<svg xmlns="http://www.w3.org/2000/svg" xmlns:xlink="http://www.w3.org/1999/xlink" width="280" height="40" viewBox="0 0 280 40">
  <defs>
    <clipPath id="clip-_40x40_icons">
      <rect width="280" height="40"/>
    </clipPath>
  </defs>
  <g id="_40x40_icons" data-name="40x40 icons" clip-path="url(#clip-_40x40_icons)">
    <g id="Group_5320" data-name="Group 5320" transform="translate(0 -207)">
      <rect id="Rectangle_597" data-name="Rectangle 597" width="40" height="40" transform="translate(40 207)" fill="#fff" opacity="0"/>
      <g id="Group_4094" data-name="Group 4094" transform="translate(41.019 282.69)">
        <g id="Group_4088" data-name="Group 4088" transform="translate(-0.019 -71.69)">
          <g id="Rectangle_589" data-name="Rectangle 589" fill="#f15060" stroke="#000" stroke-width="2">
            <rect width="13" height="14" rx="2" stroke="none"/>
            <rect x="1" y="1" width="11" height="12" rx="1" fill="none"/>
          </g>
          <g id="Rectangle_591" data-name="Rectangle 591" transform="translate(0 19)" fill="#f15060" stroke="#000" stroke-width="2">
            <rect width="13" height="14" rx="2" stroke="none"/>
            <rect x="1" y="1" width="11" height="12" rx="1" fill="none"/>
          </g>
          <g id="Group_4087" data-name="Group 4087" transform="translate(17.015 3.302)">
            <path id="Path_648" data-name="Path 648" d="M28.2-66.185h20.5" transform="translate(-28.196 66.185)" fill="none" stroke="#000" stroke-linecap="round" stroke-width="3"/>
            <path id="Path_649" data-name="Path 649" d="M28.2-66.185H42.575" transform="translate(-28.196 72.611)" fill="none" stroke="#e0534e" stroke-linecap="round" stroke-width="3"/>
          </g>
          <g id="Group_4091" data-name="Group 4091" transform="translate(2.863 3.579)">
            <g id="Group_3194" data-name="Group 3194" transform="translate(1.609 0.659)">
              <g id="Path_170" data-name="Path 170" transform="translate(3.366 1.764) rotate(180)" fill="none">
                <path d="M1.746,0l.738,1.329a.293.293,0,0,1-.256.435H.293a.293.293,0,0,1-.256-.435L.772.007Z" stroke="none"/>
                <path d="M 1.745965361595154 -1.072883605957031e-06 L 2.484145402908325 1.328728914260864 C 2.592665433883667 1.52406895160675 2.451425313949585 1.764119029045105 2.227965354919434 1.764119029045105 L 0.2934854030609131 1.764119029045105 C 0.07002544403076172 1.764119029045105 -0.07121467590332031 1.52406895160675 0.03730535507202148 1.328728914260864 L 0.7715554237365723 0.007089018821716309 L 1.745965361595154 -1.072883605957031e-06 Z" stroke="none"/>
              </g>
              <g id="Ellipse_44" data-name="Ellipse 44" transform="translate(0 1.273)" fill="none" stroke="#000" stroke-width="1">
                <circle cx="2.122" cy="2.122" r="2.122" stroke="none"/>
                <circle cx="2.122" cy="2.122" r="1.622" fill="none"/>
              </g>
            </g>
            <rect id="Rectangle_368" data-name="Rectangle 368" width="7" height="6" transform="translate(0.137 0.421)" fill="none"/>
          </g>
        </g>
        <g id="Group_4089" data-name="Group 4089" transform="translate(3.56 -49.697)">
          <g id="Group_4087-2" data-name="Group 4087" transform="translate(13.436 0)">
            <path id="Path_648-2" data-name="Path 648" d="M28.2-66.185h20.5" transform="translate(-28.196 66.185)" fill="none" stroke="#000" stroke-linecap="round" stroke-width="3"/>
            <path id="Path_649-2" data-name="Path 649" d="M28.2-66.185H42.575" transform="translate(-28.196 72.611)" fill="none" stroke="#e0534e" stroke-linecap="round" stroke-width="3"/>
          </g>
          <g id="Group_3243" data-name="Group 3243" transform="translate(0 1.627)">
            <rect id="Rectangle_369" data-name="Rectangle 369" width="5" height="5" transform="translate(0.421 0.379)" fill="none"/>
            <g id="Group_3206" data-name="Group 3206" transform="translate(0.471 1.202)">
              <g id="Group_612" data-name="Group 612">
                <path id="Path_160" data-name="Path 160" d="M-16369.371,1556.113s2.32,3.638,4.8,0" transform="translate(16369.371 -1556.113)" fill="none" stroke="#000" stroke-linecap="round" stroke-width="1"/>
                <circle id="Ellipse_29" data-name="Ellipse 29" cx="0.823" cy="0.823" r="0.823" transform="translate(1.545 1.835)"/>
              </g>
            </g>
          </g>
        </g>
      </g>
    </g>
    <g id="Group_5507" data-name="Group 5507" transform="translate(40 -207)">
      <rect id="Rectangle_597-2" data-name="Rectangle 597" width="40" height="40" transform="translate(40 207)" fill="#fff" opacity="0"/>
      <g id="Group_5508" data-name="Group 5508" transform="translate(-665.022 -269.764)">
        <path id="Path_439" data-name="Path 439" d="M715.8,481l21.694,0a3.177,3.177,0,0,1,2.97,1.955l4.264,10.719a2.033,2.033,0,0,1-2.142,2.838c-2.708,0-4.135-2.335-6.061-2.351s-2.616,2.222-4.723,2.23-3.55-2.059-5.372-2.059-3.005,1.935-5.37,1.935-2.441-2.082-4.477-2.082-3.341,2.328-6.4,2.328-1.993-2.825-1.993-2.825l4.668-10.815A3.18,3.18,0,0,1,715.8,481Z" transform="translate(-1.418 -1.421)" fill="#f15060"/>
        <path id="Path_440" data-name="Path 440" d="M744.807,491.758c-.009-.028-.02-.057-.031-.085L740.5,480.931A4.729,4.729,0,0,0,736.075,478l-21.687,0h-.044a4.766,4.766,0,0,0-4.35,2.83l-4.668,10.815c-.01.023-.02.047-.029.071a4.106,4.106,0,0,0,.292,3.537,3.594,3.594,0,0,0,3.18,1.423,7.137,7.137,0,0,0,2.176-.337v14.545c0,.009,0,.019,0,.028s0,.019,0,.029a4.731,4.731,0,0,0,4.844,4.544l18.781,0,.133,0a4.733,4.733,0,0,0,4.719-4.554c0-.019,0-.038,0-.057V496.42a6.185,6.185,0,0,0,1.742.254,3.715,3.715,0,0,0,3.227-1.418A4.145,4.145,0,0,0,744.807,491.758Zm-8.542,19.087a1.568,1.568,0,0,1-1.562,1.485c-.035,0-.071,0-.107,0l-18.83,0h-.054a1.564,1.564,0,0,1-1.609-1.494V494.724a2.31,2.31,0,0,1,1.061-.378c.334,0,.475.1.985.568a4.788,4.788,0,0,0,3.492,1.515,7.2,7.2,0,0,0,3.853-1.283,3.426,3.426,0,0,1,1.516-.652,4.091,4.091,0,0,1,1.665.745,7.04,7.04,0,0,0,3.7,1.314h.017a5.278,5.278,0,0,0,3.467-1.517c.616-.509.906-.693,1.237-.713a2.659,2.659,0,0,1,1.173.479ZM741.84,493.4a1.223,1.223,0,0,1-.673.116,5.086,5.086,0,0,1-2.726-1.08,6.3,6.3,0,0,0-3.321-1.271h-.034a4.96,4.96,0,0,0-3.24,1.436c-.63.521-.982.792-1.467.794h-.006a4.38,4.38,0,0,1-2.058-.856,6.327,6.327,0,0,0-3.3-1.2,5.98,5.98,0,0,0-3.129,1.094,4.366,4.366,0,0,1-2.241.841c-.612,0-.846-.214-1.358-.684a4.357,4.357,0,0,0-3.119-1.4,6.322,6.322,0,0,0-3.352,1.221,5.5,5.5,0,0,1-3.043,1.107,1.6,1.6,0,0,1-.583-.08,1.467,1.467,0,0,1,.062-.59l4.637-10.744a1.6,1.6,0,0,1,1.46-.944h.035l21.713,0h.02a1.582,1.582,0,0,1,1.464.96l4.238,10.652A1.292,1.292,0,0,1,741.84,493.4Z" transform="translate(0)"/>
        <g id="noun_Refresh_2072320" data-name="noun Refresh 2072320" transform="translate(719.39 498.025)">
          <g id="Group_260" data-name="Group 260">
            <path id="Path_62" data-name="Path 62" d="M743.2,517.59h0a.23.23,0,0,1,.053.158l-.013,2.9a.182.182,0,0,1-.194.171l-.016,0-2.835-.624a.245.245,0,0,1-.143-.091h0a.244.244,0,0,1,.039-.338l.6-.481a3.73,3.73,0,0,0-6.4,1.608,1.016,1.016,0,0,1-1,.768h0a1,1,0,0,1-.975-1.024.981.981,0,0,1,.028-.211,5.738,5.738,0,0,1,9.919-2.39l.6-.481A.246.246,0,0,1,743.2,517.59Z" transform="translate(-732.317 -516.041)" fill="#f15060"/>
            <path id="Path_63" data-name="Path 63" d="M732.985,531.661h0a.225.225,0,0,1-.053-.158l.013-2.9a.182.182,0,0,1,.194-.171l.017,0,2.835.624a.248.248,0,0,1,.143.091h0a.245.245,0,0,1-.039.338l-.6.468a3.73,3.73,0,0,0,6.4-1.612,1.015,1.015,0,0,1,1-.767h0a1,1,0,0,1,.975,1.024,1.019,1.019,0,0,1-.027.211,5.738,5.738,0,0,1-9.922,2.406l-.6.481A.245.245,0,0,1,732.985,531.661Z" transform="translate(-732.608 -521.504)" fill="#f15060"/>
          </g>
        </g>
      </g>
    </g>
    <g id="Group_5321" data-name="Group 5321" transform="translate(0 -207)">
      <rect id="Rectangle_596" data-name="Rectangle 596" width="40" height="40" transform="translate(0 207)" fill="#fff" opacity="0"/>
      <g id="noun_receipt_561599_1_" data-name="noun_receipt_561599 (1)" transform="translate(4.911 207)">
        <path id="Path_1" data-name="Path 1" d="M10.981,2.946V40.073H30.905V31.578h8.564V2.946Z" transform="translate(-9.881 -1.587)" fill="#f15060"/>
        <g id="Group_1" data-name="Group 1" transform="translate(0 0)">
          <path id="Path_2" data-name="Path 2" d="M24.5,18.881C24.607,18.881,24.44,18.825,24.5,18.881Z" transform="translate(-15.881 -8.658)"/>
          <path id="Path_3" data-name="Path 3" d="M24.069,22.8C23.958,22.8,24.125,22.856,24.069,22.8Z" transform="translate(-15.68 -10.411)"/>
          <path id="Path_4" data-name="Path 4" d="M38.444.5H10.111A1.114,1.114,0,0,0,9,1.611V39.389A1.114,1.114,0,0,0,10.111,40.5H29.664a1.1,1.1,0,0,0,.78-.334l8.778-8.777a1.1,1.1,0,0,0,.333-.777v-29A1.114,1.114,0,0,0,38.444.5ZM30.777,36.722v-5h5ZM37.333,29.5H29.664a1.114,1.114,0,0,0-1.111,1.111v7.67H11.222V2.722H37.334Z" transform="translate(-9 -0.5)"/>
          <path id="Path_5" data-name="Path 5" d="M35.524,11.022h9.008a1.115,1.115,0,0,0,0-2.222H35.524a1.115,1.115,0,0,0,0,2.222Z" transform="translate(-19.389 -4.189)"/>
          <path id="Path_6" data-name="Path 6" d="M35.524,21.322h9.008a1.115,1.115,0,0,0,0-2.222H35.524a1.115,1.115,0,0,0,0,2.222Z" transform="translate(-19.389 -8.767)"/>
          <path id="Path_7" data-name="Path 7" d="M35.524,31.622h9.008a1.115,1.115,0,0,0,0-2.222H35.524a1.115,1.115,0,0,0,0,2.222Z" transform="translate(-19.389 -13.344)"/>
          <path id="Path_8" data-name="Path 8" d="M17.411,41.822H37.3a1.111,1.111,0,0,0,0-2.222H17.411a1.111,1.111,0,0,0,0,2.222Z" transform="translate(-12.245 -17.878)"/>
          <path id="Path_9" data-name="Path 9" d="M17.411,52.122h9.778a1.111,1.111,0,0,0,0-2.222H17.411a1.111,1.111,0,1,0,0,2.222Z" transform="translate(-12.245 -22.456)"/>
          <path id="Path_10" data-name="Path 10" d="M17.411,62.422h9.778a1.111,1.111,0,0,0,0-2.222H17.411a1.111,1.111,0,1,0,0,2.222Z" transform="translate(-12.245 -27.034)"/>
        </g>
        <path id="Path_2751" data-name="Path 2751" d="M84.8,146.865a9.153,9.153,0,0,0-.288-1.145,8.708,8.708,0,0,0-1.779-3.209,5.153,5.153,0,0,0-.7-.638,4.284,4.284,0,0,0-.438-.282c-.033-.019-.047-.035-.022-.075.072-.121.139-.245.208-.367.269-.477.549-.948.813-1.427h0l-.09.182c.029-.053.149-.289.178-.342a.532.532,0,0,0,.092-.339c-.088-.044-.178-.083-.267-.121h0a7.487,7.487,0,0,0-4.651-.03.388.388,0,0,0-.023.462q.544.961,1.091,1.92c.064.112.065.113-.048.176a3.842,3.842,0,0,0-.776.571,6.449,6.449,0,0,0-.925,1.1,9.508,9.508,0,0,0-1.2,2.532,9.371,9.371,0,0,0-.315,1.427,5.7,5.7,0,0,0-.043.826,4.1,4.1,0,0,0,.107,1.026A2.4,2.4,0,0,0,76.9,150.69a5.022,5.022,0,0,0,1.952.525,6.179,6.179,0,0,0,.67.029c.083.015.168-.006.251.012h.948c.022-.013.047-.005.07-.006a2.061,2.061,0,0,0,.207,0,7.688,7.688,0,0,0,.981-.066,6.45,6.45,0,0,0,.923-.187,2.613,2.613,0,0,0,1.991-2.375,4.994,4.994,0,0,0,.015-.532A5.941,5.941,0,0,0,84.8,146.865ZM78.709,139.9l-.233-.44v-.037l.235-.037v0l.25-.034c.211-.028.422-.052.63-.091a6.562,6.562,0,0,1,2.474.251l-.114.2-.913,1.7a2.825,2.825,0,0,0-1.623,0Zm5.474,9.3a1.981,1.981,0,0,1-1.178,1.157,4.463,4.463,0,0,1-1.059.253,11.415,11.415,0,0,1-1.3.075c-.434.006-.869.006-1.3-.012a5.84,5.84,0,0,1-1.781-.3,2.062,2.062,0,0,1-1.1-.911,2.041,2.041,0,0,1-.24-.723,4.657,4.657,0,0,1-.037-.937,6.348,6.348,0,0,1,.144-1.087,9.057,9.057,0,0,1,.943-2.5,7.3,7.3,0,0,1,.76-1.122,4.206,4.206,0,0,1,1.138-.98h0a2.071,2.071,0,0,1,2.008-.1c.024.012.047.024.068.036a4.06,4.06,0,0,1,1.086.855,7.277,7.277,0,0,1,1.062,1.576,9,9,0,0,1,.744,1.979q.1.4.156.812a5.714,5.714,0,0,1,.057.8A3.048,3.048,0,0,1,84.183,149.2Z" transform="translate(-71.757 -133.242)" fill="#040505" stroke="#000" stroke-width="0.8"/>
      </g>
    </g>
    <g id="Group_6066" data-name="Group 6066" transform="translate(0 -84)">
      <g id="Group_6064" data-name="Group 6064" transform="translate(80 -123)">
        <rect id="Rectangle_597-3" data-name="Rectangle 597" width="40" height="40" transform="translate(40 207)" fill="#fff" opacity="0"/>
      </g>
      <g id="Group_6065" data-name="Group 6065" transform="translate(-1518 -36)">
        <g id="Group_6062" data-name="Group 6062" transform="translate(1639 123)">
          <g id="Ellipse_212" data-name="Ellipse 212" transform="translate(34.431 9.906)" fill="#fff" stroke="#ef8921" stroke-width="1" opacity="0.451">
            <circle cx="1.801" cy="1.801" r="1.801" stroke="none"/>
            <circle cx="1.801" cy="1.801" r="1.301" fill="none"/>
          </g>
          <g id="Ellipse_213" data-name="Ellipse 213" transform="translate(1.112 5.403)" fill="#fff" stroke="#c40808" stroke-width="1" opacity="0.451">
            <circle cx="1.801" cy="1.801" r="1.801" stroke="none"/>
            <circle cx="1.801" cy="1.801" r="1.301" fill="none"/>
          </g>
          <g id="Polygon_4" data-name="Polygon 4" transform="translate(0 21.311) rotate(-70)" fill="#fff" opacity="0.3">
            <path d="M 3.600532531738281 3.102123022079468 L 0.9021247625350952 3.102123022079468 L 2.251328706741333 0.943401575088501 L 3.600532531738281 3.102123022079468 Z" stroke="none"/>
            <path d="M 2.251328706741333 1.886800050735474 L 1.804250717163086 2.602123022079468 L 2.69840669631958 2.602123022079468 L 2.251328706741333 1.886800050735474 M 2.251328706741333 3.099441528320312e-06 L 4.502658843994141 3.602123022079468 L -1.430511474609375e-06 3.602123022079468 L 2.251328706741333 3.099441528320312e-06 Z" stroke="none" fill="#ae1cd1"/>
          </g>
          <g id="Polygon_3" data-name="Polygon 3" transform="matrix(-0.819, -0.574, 0.574, -0.819, 33.892, 25.28)" fill="#fff" opacity="0.3">
            <path d="M 3.600532531738281 3.102123022079468 L 0.9021247625350952 3.102123022079468 L 2.251328706741333 0.943401575088501 L 3.600532531738281 3.102123022079468 Z" stroke="none"/>
            <path d="M 2.251328706741333 1.886800050735474 L 1.804250717163086 2.602123022079468 L 2.69840669631958 2.602123022079468 L 2.251328706741333 1.886800050735474 M 2.251328706741333 3.099441528320312e-06 L 4.502658843994141 3.602123022079468 L -1.430511474609375e-06 3.602123022079468 L 2.251328706741333 3.099441528320312e-06 Z" stroke="none" fill="#62d11c"/>
          </g>
          <g id="Rectangle_2808" data-name="Rectangle 2808" transform="matrix(0.914, -0.407, 0.407, 0.914, 15.088, 1.099)" fill="#fff" stroke="#ddd400" stroke-width="0.8" opacity="0.7">
            <rect width="2.702" height="2.702" stroke="none"/>
            <rect x="0.4" y="0.4" width="1.902" height="1.902" fill="none"/>
          </g>
          <g id="Group_5583" data-name="Group 5583" transform="translate(7.364 0.04)">
            <path id="Path_2421" data-name="Path 2421" d="M99.728,419.34h0l.023.015a6.8,6.8,0,0,0,.725.355,5.459,5.459,0,0,0,4.871-.435,7.387,7.387,0,0,0,2.672-2.99,11.5,11.5,0,0,0,1.034-7.883,9.524,9.524,0,0,0-2.661-5.087,5.351,5.351,0,0,0-6.515-1,6.986,6.986,0,0,0-2.742,2.792,11.58,11.58,0,0,0-.726,9.989A7.7,7.7,0,0,0,99.728,419.34Z" transform="translate(-91.239 -392.741)" fill="#0086bf"/>
            <path id="Path_2422" data-name="Path 2422" d="M137.747,362a5.319,5.319,0,0,0-1.856,1.605,9.481,9.481,0,0,0-1.726,3.7.429.429,0,0,1-.672.234c-.068-.06-.03-.12-.016-.183.768-3.564,3.689-6.8,6.9-7.523a4.787,4.787,0,0,1,6.069,4.149,9.568,9.568,0,0,1-2.6,7.827,8.591,8.591,0,0,1-3.315,2.386c-.5.2-.493.2-.629-.295a10.153,10.153,0,0,0-2.137-4.076,6.459,6.459,0,0,0-3.275-2.108c-.315-.08-.19-.219-.125-.369A16.906,16.906,0,0,1,137.747,362Z" transform="translate(-121.069 -359.681)" fill="#38ab73"/>
            <path id="Path_2423" data-name="Path 2423" d="M83.706,385.168c-3.431,1.346-4.852,4.156-5.535,7.561a6.179,6.179,0,0,1-1.668-1.658,7.566,7.566,0,0,1-1.256-6.573,3.685,3.685,0,0,1,3.725-2.885,4.492,4.492,0,0,1,2.355.82A7.134,7.134,0,0,1,83.706,385.168Z" transform="translate(-74.96 -376.966)" fill="#a80b1b"/>
            <path id="Path_2424" data-name="Path 2424" d="M81.879,407.866a28.425,28.425,0,0,0,2.594,7.267A10.557,10.557,0,0,1,81.879,407.866Z" transform="translate(-81.174 -400.335)" fill="#f2f1f0"/>
            <path id="Path_2425" data-name="Path 2425" d="M101.238,427.141c-1.727,4.1-.886,8.056.1,12.071C98.518,435.95,98.039,430.117,101.238,427.141Z" transform="translate(-93.395 -414.762)" fill="#f5f4f4"/>
            <path id="Path_2426" data-name="Path 2426" d="M117.647,408.4a9.525,9.525,0,0,0-2.661-5.087,5.48,5.48,0,0,0-4.838-1.609c1.173.349,5.1,1.966,4.649,7.869-.462,6.006-3.928,7.823-8.286,8.236a6.6,6.6,0,0,0,2.75,1.976,5.748,5.748,0,0,0,2.723.277c.218-.063.412-.114.6-.175a6.871,6.871,0,0,0,4.028-3.6A11.5,11.5,0,0,0,117.647,408.4Z" transform="translate(-99.83 -392.742)" fill="#050605" opacity="0.13"/>
            <path id="Path_2427" data-name="Path 2427" d="M167.8,363.978a4.787,4.787,0,0,0-6.069-4.149,6.746,6.746,0,0,0-.7.2c2.667-.569,6.34-.413,4.851,5.442,0,0-.447,4.052-5.329,6.521a11.37,11.37,0,0,1,.706,1.9c.137.495.134.492.629.295a8.589,8.589,0,0,0,3.315-2.386A9.568,9.568,0,0,0,167.8,363.978Z" transform="translate(-142.425 -359.681)" fill="#14452a" opacity="0.17"/>
            <path id="Path_2428" data-name="Path 2428" d="M88.563,386.162a8.516,8.516,0,0,1,1.849-.994,7.135,7.135,0,0,0-2.38-2.736,4.492,4.492,0,0,0-2.355-.82,3.567,3.567,0,0,0-2.209.64C84.719,382.137,86.481,382.862,88.563,386.162Z" transform="translate(-81.666 -376.966)" fill="#520711" opacity="0.21"/>
            <path id="Path_2429" data-name="Path 2429" d="M120.855,491.5c.216,0,.431,0,.65,0a2.918,2.918,0,0,0,.739,2.872c.254.369.492.75.717,1.138a6.6,6.6,0,0,1,.6,1.337h.6a7.055,7.055,0,0,0-.61-1.474,18.016,18.016,0,0,0-1.151-1.779,2.1,2.1,0,0,1-.4-1.42c.05-.664.053-.671.7-.676.1,0,.191,0,.286,0,.551-.015.778-.419.489-.884-.142-.227-.293-.449-.447-.676a5.61,5.61,0,0,1-2.194-.034c-.157.234-.314.468-.461.707A.538.538,0,0,0,120.855,491.5Z" transform="translate(-110.659 -462.33)" fill="#050605" opacity="0.314"/>
          </g>
        </g>
      </g>
    </g>
    <g id="Group_6064-2" data-name="Group 6064" transform="translate(120 -207)">
      <rect id="Rectangle_597-4" data-name="Rectangle 597" width="40" height="40" transform="translate(40 207)" fill="#fff" opacity="0"/>
    </g>
    <g id="Group_6068" data-name="Group 6068" transform="translate(-74 -83)">
      <g id="Group_6061" data-name="Group 6061" transform="translate(240.018 88.615)">
        <path id="Path_2411" data-name="Path 2411" d="M152.724,146.129a27.263,27.263,0,0,1,1.991,5.366,2.4,2.4,0,0,1-.877,2.418,1.821,1.821,0,0,1-2.771-.6,2.62,2.62,0,0,1-.315-2.019A31.624,31.624,0,0,1,152.724,146.129Z" transform="translate(-144.564 -146.129)" fill="#efb100"/>
        <path id="Path_2412" data-name="Path 2412" d="M248.861,147.487c.394.826.752,1.665,1.088,2.514a14.4,14.4,0,0,1,.885,2.734,2.522,2.522,0,0,1-.579,2.163,1.818,1.818,0,0,1-3-.2,2.813,2.813,0,0,1-.315-2.461,35.033,35.033,0,0,1,1.848-4.706C248.8,147.514,248.822,147.509,248.861,147.487Z" transform="translate(-234.567 -147.401)" fill="#efb100"/>
        <path id="Path_2413" data-name="Path 2413" d="M344.854,146.468c.5,1.077.941,2.1,1.337,3.144a10.941,10.941,0,0,1,.666,2.175,2.5,2.5,0,0,1-.858,2.427,1.794,1.794,0,0,1-2.669-.4,2.811,2.811,0,0,1-.357-2.57A37.209,37.209,0,0,1,344.854,146.468Z" transform="translate(-324.475 -146.446)" fill="#efb100"/>
        <path id="Path_2414" data-name="Path 2414" d="M111.255,439.239h0c0-1.9,0-3.8,0-5.707,0-.415,0-.4-.407-.378a6.121,6.121,0,0,1-2.445-.326l-.045-.016c-.051-.019-.1-.039-.153-.06l-.093-.038-.1-.044c-.045-.02-.089-.04-.134-.061l-.055-.027c-.055-.027-.11-.055-.165-.084l-.024-.014c-.062-.033-.123-.068-.184-.1-.141-.083-.279-.173-.416-.27a3.972,3.972,0,0,0-1.858-.719,3.852,3.852,0,0,0-1.41.1,3.972,3.972,0,0,0-1.214.537q-.07.046-.139.095-.184.13-.377.245l-.072.041-.119.067c-.051.028-.1.054-.155.08l-.041.021a5.943,5.943,0,0,1-2.148.581l-.019,0c-.058,0-.115.007-.173.01l-.056,0-.134,0-.1,0-.095,0-.134,0-.056,0c-.058,0-.115-.005-.173-.01l-.019,0a5.943,5.943,0,0,1-2.148-.581l-.041-.021c-.052-.026-.1-.052-.155-.08l-.119-.067-.072-.041q-.193-.114-.377-.245l-.047-.032a3.991,3.991,0,0,0-1.157-.559l-.026-.008-.084-.023-.073-.019-.05-.012a3.851,3.851,0,0,0-1.167-.089l-.043,0-.076.007a3.971,3.971,0,0,0-1.9.723,5.778,5.778,0,0,1-3.811,1.043c-.407-.024-.407-.037-.407.378,0,1.9,0,3.8,0,5.707h0c0,.013,0,.025,0,.038a2.136,2.136,0,0,0,2.115,2.173h.005q3.186-.006,6.371,0h9.529q2.161,0,4.321,0h.005a2.136,2.136,0,0,0,2.115-2.173C111.255,439.264,111.255,439.252,111.255,439.239Z" transform="translate(-84.753 -413.201)" fill="#d47b17"/>
        <g id="Group_5581" data-name="Group 5581" transform="translate(0 8.879)">
          <path id="Path_2415" data-name="Path 2415" d="M358.746,287.887h2.035c0-.685,0-1.37.008-2.055,0-.23-.066-.28-.283-.273-.5.017-1,.014-1.5,0-.191,0-.275.025-.271.251C358.751,286.5,358.745,287.2,358.746,287.887Z" transform="translate(-339.381 -285.558)" fill="#0086bf"/>
          <path id="Path_2416" data-name="Path 2416" d="M262.735,287.9h2.037c0-.7,0-1.4,0-2.095,0-.177-.043-.235-.226-.23-.52.012-1.04.013-1.56,0-.207-.006-.266.054-.263.262C262.738,286.522,262.731,287.21,262.735,287.9Z" transform="translate(-249.485 -285.57)" fill="#0086bf"/>
          <path id="Path_2417" data-name="Path 2417" d="M166.778,287.909h2.037c0-.7,0-1.406,0-2.109,0-.159-.033-.22-.208-.216-.541.012-1.083.014-1.623,0-.2-.006-.216.075-.214.24C166.78,286.517,166.773,287.213,166.778,287.909Z" transform="translate(-159.64 -285.58)" fill="#0086bf"/>
          <path id="Path_2418" data-name="Path 2418" d="M83.291,335.632a2.014,2.014,0,0,0-1.993-1.98c-.8,0-1.592,0-2.387,0H76.928c-.167,0-.333,0-.5.006a.636.636,0,0,1-.112-.006H73.964a.579.579,0,0,1-.092.006l-.7-.006H70.839l-.564,0a.562.562,0,0,1-.079,0H67.825c-.023,0-.048,0-.077,0l-.424,0H64.882l-.667.007a.659.659,0,0,1-.111-.007H61.709a.77.77,0,0,1-.113.006l-1.057-.006H58.434v0l-1.644,0a2.019,2.019,0,0,0-2.026,2.014c0,1.284,0,2.568-.006,3.852a.426.426,0,0,0,.221.409,5.051,5.051,0,0,0,5.459-.131,4.939,4.939,0,0,1,5.76-.007,4.988,4.988,0,0,0,5.664,0,4.938,4.938,0,0,1,5.76.009,5.039,5.039,0,0,0,5.485.109.373.373,0,0,0,.19-.359C83.29,338.243,83.3,336.938,83.291,335.632Z" transform="translate(-54.759 -330.587)" fill="#aa2f1b"/>
          <path id="Path_2419" data-name="Path 2419" d="M296.829,335.646a2.014,2.014,0,0,0-1.993-1.98c-.8,0-1.592,0-2.387,0h-1.983c-.167,0-.333,0-.5.006a.645.645,0,0,1-.112-.006H287.5a.589.589,0,0,1-.093.005l-.7-.005h-1.559a22.56,22.56,0,0,0-2.334,7.012,4.812,4.812,0,0,0,2.579-.875,4.938,4.938,0,0,1,5.76.009,5.039,5.039,0,0,0,5.485.109.373.373,0,0,0,.19-.359C296.829,338.256,296.838,336.951,296.829,335.646Z" transform="translate(-268.299 -330.601)" fill="#682b13"/>
        </g>
        <path id="Path_2420" data-name="Path 2420" d="M87.491,441.193c13.128-.6,18.367-4.86,20.456-8.264l-.069-.031-.055-.027c-.055-.027-.11-.055-.165-.084l-.024-.013c-.062-.033-.123-.068-.184-.1q-.211-.125-.416-.27a3.972,3.972,0,0,0-1.858-.719,3.855,3.855,0,0,0-1.41.1,3.972,3.972,0,0,0-1.214.537q-.07.046-.139.095-.184.13-.377.245l-.072.041-.119.067c-.051.028-.1.054-.155.08l-.041.021a5.945,5.945,0,0,1-2.148.581l-.019,0c-.058,0-.115.007-.173.01l-.056,0-.134,0-.1,0-.095,0-.134,0-.056,0c-.058,0-.115-.006-.173-.01l-.019,0a5.945,5.945,0,0,1-2.148-.581l-.041-.021c-.052-.026-.1-.052-.155-.08l-.119-.067-.072-.041q-.193-.114-.377-.245l-.047-.032a3.99,3.99,0,0,0-1.157-.559l-.026-.008-.084-.023-.073-.019-.05-.012a3.85,3.85,0,0,0-1.167-.089l-.043,0-.076.007a3.971,3.971,0,0,0-1.9.723,5.779,5.779,0,0,1-3.811,1.043c-.407-.024-.407-.037-.407.378,0,1.9,0,3.8,0,5.707h0c0,.013,0,.025,0,.038A2.308,2.308,0,0,0,87.491,441.193Z" transform="translate(-84.753 -413.471)" fill="#fb8f25" opacity="0.7"/>
        <rect id="Rectangle_2806" data-name="Rectangle 2806" width="24.462" height="1.952" transform="translate(2.04 22.556)" fill="#ffd765" opacity="0.598"/>
      </g>
      <g id="Group_6062-2" data-name="Group 6062" transform="translate(233.752 86)">
        <g id="Ellipse_216" data-name="Ellipse 216" transform="translate(34.412 9.588)" fill="#fff" stroke="#ef8921" stroke-width="1" opacity="0.451">
          <circle cx="1.743" cy="1.743" r="1.743" stroke="none"/>
          <circle cx="1.743" cy="1.743" r="1.243" fill="none"/>
        </g>
        <g id="Ellipse_217" data-name="Ellipse 217" transform="translate(4.778 6.973)" fill="#fff" stroke="#c40808" stroke-width="1" opacity="0.451">
          <circle cx="1.743" cy="1.743" r="1.743" stroke="none"/>
          <circle cx="1.743" cy="1.743" r="1.243" fill="none"/>
        </g>
        <g id="Polygon_8" data-name="Polygon 8" transform="translate(2.179 25.42) rotate(-120)" fill="#fff" opacity="0.3">
          <path d="M 3.45583963394165 2.986376523971558 L 0.9021263122558594 2.986376523971558 L 2.178982973098755 0.9433988332748413 L 3.45583963394165 2.986376523971558 Z" stroke="none"/>
          <path d="M 2.178982973098755 1.88680112361908 L 1.80424976348877 2.486376523971558 L 2.55371618270874 2.486376523971558 L 2.178982973098755 1.88680112361908 M 2.178982973098755 -3.576278686523438e-06 L 4.357963085174561 3.486376523971558 L 2.86102294921875e-06 3.486376523971558 L 2.178982973098755 -3.576278686523438e-06 Z" stroke="none" fill="#ae1cd1"/>
        </g>
        <g id="Polygon_7" data-name="Polygon 7" transform="matrix(-0.819, -0.574, 0.574, -0.819, 38.248, 24.468)" fill="#fff" opacity="0.3">
          <path d="M 3.45583963394165 2.986376523971558 L 0.9021263122558594 2.986376523971558 L 2.178982973098755 0.9433988332748413 L 3.45583963394165 2.986376523971558 Z" stroke="none"/>
          <path d="M 2.178982973098755 1.88680112361908 L 1.80424976348877 2.486376523971558 L 2.55371618270874 2.486376523971558 L 2.178982973098755 1.88680112361908 M 2.178982973098755 -3.576278686523438e-06 L 4.357963085174561 3.486376523971558 L 2.86102294921875e-06 3.486376523971558 L 2.178982973098755 -3.576278686523438e-06 Z" stroke="none" fill="#62d11c"/>
        </g>
        <g id="Rectangle_2947" data-name="Rectangle 2947" transform="matrix(0.914, -0.407, 0.407, 0.914, 21.791, 1.064)" fill="#fff" stroke="#ddd400" stroke-width="0.8" opacity="0.7">
          <rect width="2.615" height="2.615" stroke="none"/>
          <rect x="0.4" y="0.4" width="1.815" height="1.815" fill="none"/>
        </g>
      </g>
    </g>
    <rect id="Rectangle_3067" data-name="Rectangle 3067" width="80" height="40" transform="translate(200)" fill="none"/>
    <g id="Group_5589" data-name="Group 5589" transform="translate(-825.766 -305)">
      <g id="Ellipse_215" data-name="Ellipse 215" transform="translate(1083 316)" fill="#fff" stroke="#ef8921" stroke-width="1" opacity="0.451">
        <circle cx="2" cy="2" r="2" stroke="none"/>
        <circle cx="2" cy="2" r="1.5" fill="none"/>
      </g>
      <g id="Ellipse_214" data-name="Ellipse 214" transform="translate(1045 316)" fill="#fff" stroke="#c40808" stroke-width="1" opacity="0.451">
        <circle cx="2" cy="2" r="2" stroke="none"/>
        <circle cx="2" cy="2" r="1.5" fill="none"/>
      </g>
      <g id="Polygon_5" data-name="Polygon 5" transform="translate(1038.766 329.665) rotate(-70)" fill="#fff" opacity="0.3">
        <path d="M 4.097875118255615 3.5 L 0.9021250009536743 3.5 L 2.5 0.9434000253677368 L 4.097875118255615 3.5 Z" stroke="none"/>
        <path d="M 2.5 1.886800050735474 L 1.804250001907349 3 L 3.195749998092651 3 L 2.5 1.886800050735474 M 2.5 0 L 5 4 L 0 4 L 2.5 0 Z" stroke="none" fill="#ae1cd1"/>
      </g>
      <g id="Polygon_6" data-name="Polygon 6" transform="matrix(-0.819, -0.574, 0.574, -0.819, 1091.401, 334.072)" fill="#fff" opacity="0.3">
        <path d="M 4.097875118255615 3.5 L 0.9021250009536743 3.5 L 2.5 0.9434000253677368 L 4.097875118255615 3.5 Z" stroke="none"/>
        <path d="M 2.5 1.886800050735474 L 1.804250001907349 3 L 3.195749998092651 3 L 2.5 1.886800050735474 M 2.5 0 L 5 4 L 0 4 L 2.5 0 Z" stroke="none" fill="#62d11c"/>
      </g>
      <g id="Rectangle_2809" data-name="Rectangle 2809" transform="matrix(0.914, -0.407, 0.407, 0.914, 1064.52, 307.22)" fill="#fff" stroke="#ddd400" stroke-width="0.8" opacity="0.7">
        <rect width="3" height="3" stroke="none"/>
        <rect x="0.4" y="0.4" width="2.2" height="2.2" fill="none"/>
      </g>
      <g id="Group_5584" data-name="Group 5584" transform="translate(806.294 -142.578)">
        <g id="Group_5588" data-name="Group 5588" transform="translate(240.27 454.178)">
          <path id="Path_2440" data-name="Path 2440" d="M266.334,543.154A12.787,12.787,0,1,0,279.12,555.94,12.786,12.786,0,0,0,266.334,543.154Zm0,22.75a9.963,9.963,0,1,1,9.963-9.964A9.964,9.964,0,0,1,266.334,565.9Z" transform="translate(-253.547 -535.591)" fill="#0092d4"/>
          <path id="Path_2441" data-name="Path 2441" d="M308.867,543.154a12.726,12.726,0,0,0-5.688,1.335,14.73,14.73,0,0,1,2.108,2.154,9.963,9.963,0,1,1-.232,18.5,14.75,14.75,0,0,1-2.165,2.1,12.787,12.787,0,1,0,5.978-24.09Z" transform="translate(-281.061 -535.591)" fill="#aa2f1b"/>
          <g id="Group_5585" data-name="Group 5585" transform="translate(15.019 10.808)">
            <path id="Path_2442" data-name="Path 2442" d="M289.957,570.094a9.394,9.394,0,0,0,2.026-2.024,9.947,9.947,0,0,1,0-11.013,9.382,9.382,0,0,0-2.029-2.027,12.766,12.766,0,0,0,0,15.064Z" transform="translate(-287.497 -553.022)" fill="#aa2f1b"/>
            <path id="Path_2443" data-name="Path 2443" d="M299.12,552.5c.039-.034.077-.07.116-.1a11.472,11.472,0,0,0-2.112-1.9l-.034.031A12.069,12.069,0,0,1,299.12,552.5Z" transform="translate(-292.846 -550.49)" fill="#aa2f1b"/>
          </g>
          <g id="Group_5586" data-name="Group 5586" transform="translate(5.987)">
            <path id="Path_2444" data-name="Path 2444" d="M273.641,536.614l-6.561-6.561,3.994-3.995h5.272l3.491,3.491Z" transform="translate(-267.079 -526.058)" fill="#fdc148"/>
            <path id="Path_2445" data-name="Path 2445" d="M267.164,535.373l6.346,6.346-2.636-6.346Z" transform="translate(-267.127 -531.252)" fill="#f88623"/>
            <path id="Path_2446" data-name="Path 2446" d="M277.284,526.289l-1.733,4.019h5.042l-1.52-4.019Z" transform="translate(-271.803 -526.187)" fill="#f88623"/>
          </g>
          <g id="Group_5587" data-name="Group 5587" transform="translate(21.828)">
            <path id="Path_2447" data-name="Path 2447" d="M309.45,536.614l-6.561-6.561,3.994-3.995h5.272l3.491,3.491Z" transform="translate(-302.889 -526.058)" fill="#fdc148"/>
            <path id="Path_2448" data-name="Path 2448" d="M302.974,535.373l6.346,6.346-2.636-6.346Z" transform="translate(-302.936 -531.252)" fill="#f88623"/>
            <path id="Path_2449" data-name="Path 2449" d="M313.094,526.289l-1.733,4.019H316.4l-1.52-4.019Z" transform="translate(-307.613 -526.187)" fill="#f88623"/>
          </g>
        </g>
      </g>
    </g>
  </g>
</svg>
