<svg xmlns="http://www.w3.org/2000/svg" xmlns:xlink="http://www.w3.org/1999/xlink" width="40" height="10" viewBox="0 0 40 10">
  <defs>
    <clipPath id="clip-icon_10x10">
      <rect width="40" height="10"/>
    </clipPath>
  </defs>
  <g id="icon_10x10" clip-path="url(#clip-icon_10x10)">
    <g id="Group_3910" data-name="Group 3910" transform="translate(-66 -130)">
      <path id="Path_481" data-name="Path 481" d="M0,0H10V10H0Z" transform="translate(66 130)" fill="none"/>
      <g id="Group_3911" data-name="Group 3911" transform="translate(-1.167 -1.167)">
        <line id="Line_75" data-name="Line 75" x2="6.5" y2="6.5" transform="translate(68.917 132.917)" fill="none" stroke="#333" stroke-linecap="round" stroke-width="1.5"/>
        <line id="Line_76" data-name="Line 76" x1="6.5" y2="6.5" transform="translate(68.917 132.917)" fill="none" stroke="#333" stroke-linecap="round" stroke-width="1.5"/>
      </g>
    </g>
    <g id="Group_4551" data-name="Group 4551" transform="translate(-46 -130)">
      <path id="Path_481-2" data-name="Path 481" d="M0,0H10V10H0Z" transform="translate(66 130)" fill="none"/>
      <line id="Line_76-2" data-name="Line 76" x1="6" transform="translate(68 135.25)" fill="none" stroke="#333" stroke-linecap="round" stroke-width="1.5"/>
    </g>
    <g id="Group_3912" data-name="Group 3912" transform="translate(-56 -130)">
      <path id="Path_481-3" data-name="Path 481" d="M0,0H10V10H0Z" transform="translate(66 130)" fill="none"/>
      <g id="Group_3911-2" data-name="Group 3911" transform="translate(-1.167 -1.167)">
        <line id="Line_75-2" data-name="Line 75" x2="6.5" y2="6.5" transform="translate(68.917 132.917)" fill="none" stroke="#fff" stroke-linecap="round" stroke-width="1.5"/>
        <line id="Line_76-3" data-name="Line 76" x1="6.5" y2="6.5" transform="translate(68.917 132.917)" fill="none" stroke="#fff" stroke-linecap="round" stroke-width="1.5"/>
      </g>
    </g>
    <g id="Group_4091" data-name="Group 4091" transform="translate(-152 -47)">
      <circle id="Ellipse_93" data-name="Ellipse 93" cx="5" cy="5" r="5" transform="translate(182 47)" fill="#1eb496"/>
      <g id="Group_4082" data-name="Group 4082" transform="translate(2.619 1.968)">
        <path id="Path_1502" data-name="Path 1502" d="M0,4.285l1.287-.07L4.3,1.2,3.118,0,.066,3.052Z" transform="translate(182.282 47.732)" fill="none" stroke="#fff" stroke-linejoin="round" stroke-width="0.5"/>
        <line id="Line_83" data-name="Line 83" x2="1.063" y2="1.063" transform="translate(182.523 50.672)" fill="none" stroke="#fff" stroke-width="0.5"/>
      </g>
      <path id="Path_1742" data-name="Path 1742" d="M185.141,52.531l2.844-2.828,1.172,1.234L186.3,53.75Z" fill="#fff"/>
    </g>
  </g>
</svg>
