<svg xmlns="http://www.w3.org/2000/svg" xmlns:xlink="http://www.w3.org/1999/xlink" width="108" height="12" viewBox="0 0 108 12">
  <defs>
    <clipPath id="clip-icon12x12">
      <rect width="108" height="12"/>
    </clipPath>
  </defs>
  <g id="icon12x12" clip-path="url(#clip-icon12x12)">
    <g id="Group_3441" data-name="Group 3441">
      <rect id="Rectangle_215" data-name="Rectangle 215" width="12" height="12" fill="none"/>
      <g id="Group_2185" data-name="Group 2185" transform="translate(0.37 0.657)">
        <path id="Path_436" data-name="Path 436" d="M-6.371,0H.439L1.92,4.337H-8Z" transform="translate(8.592 0.139)" fill="none"/>
        <g id="Group_753" data-name="Group 753">
          <path id="Path_405" data-name="Path 405" d="M-387.492,287.93l-.008-.024-1.2-3.059a1.362,1.362,0,0,0-1.267-.849h-6.084a1.352,1.352,0,0,0-1.253.815l-1.309,3.087-.008.02a1.162,1.162,0,0,0,.1,1.016,1.039,1.039,0,0,0,.9.393,2.4,2.4,0,0,0,1.336-.454,1.067,1.067,0,0,1,.458-.21c.077,0,.108.019.253.154a1.361,1.361,0,0,0,1,.44,2.027,2.027,0,0,0,1.1-.371.98.98,0,0,1,.406-.181,1.133,1.133,0,0,1,.447.208,1.982,1.982,0,0,0,1.056.38h.005a1.494,1.494,0,0,0,.994-.44c.163-.137.246-.2.324-.2a.551.551,0,0,1,.234.087c0,.01,0,.02,0,.03v4.608a.405.405,0,0,1-.125.292.43.43,0,0,1-.3.121H-395.6a.419.419,0,0,1-.424-.412.458.458,0,0,0-.464-.451.458.458,0,0,0-.465.451,1.335,1.335,0,0,0,1.353,1.313h5.163a1.368,1.368,0,0,0,.958-.385,1.287,1.287,0,0,0,.4-.93v-4.14a1.761,1.761,0,0,0,.544.086,1.072,1.072,0,0,0,.913-.392A1.172,1.172,0,0,0-387.492,287.93Zm-.876.469a.334.334,0,0,1-.167.027,1.389,1.389,0,0,1-.744-.3,1.777,1.777,0,0,0-.951-.368h-.01a1.406,1.406,0,0,0-.931.417c-.185.156-.272.219-.389.22h0a1.2,1.2,0,0,1-.557-.239,1.783,1.783,0,0,0-.946-.348,1.687,1.687,0,0,0-.9.317,1.155,1.155,0,0,1-.61.235c-.15,0-.205-.045-.358-.188a1.238,1.238,0,0,0-.9-.406,1.782,1.782,0,0,0-.96.353,1.5,1.5,0,0,1-.834.311.449.449,0,0,1-.141-.017.439.439,0,0,1,.018-.181l1.3-3.073a.425.425,0,0,1,.394-.256h6.083a.429.429,0,0,1,.4.267l1.19,3.044A.419.419,0,0,1-388.368,288.4Z" transform="translate(398.693 -283.997)" stroke="rgba(0,0,0,0)" stroke-width="1"/>
        </g>
        <path id="Path_435" data-name="Path 435" d="M-394.28,322.208a.444.444,0,0,0,0,.628.443.443,0,0,0,.314.13.442.442,0,0,0,.314-.13l1.215-1.215a.443.443,0,0,0,.13-.314.444.444,0,0,0-.13-.314l-1.215-1.215a.444.444,0,0,0-.628,0,.444.444,0,0,0,0,.628l.457.457H-396a.444.444,0,0,0-.444.444.444.444,0,0,0,.444.444h2.182Z" transform="translate(396.929 -314.256)" stroke="rgba(0,0,0,0)" stroke-width="1"/>
      </g>
    </g>
    <g id="Group_3456" data-name="Group 3456" transform="translate(-443 -285)">
      <rect id="Rectangle_216" data-name="Rectangle 216" width="12" height="12" transform="translate(455 285)" fill="none"/>
      <g id="Group_2974" data-name="Group 2974" transform="translate(455.188 285.55)">
        <path id="Path_440" data-name="Path 440" d="M716.584,482l-.009-.025-1.242-3.121a1.375,1.375,0,0,0-1.287-.851h-6.315a1.385,1.385,0,0,0-1.264.822l-1.357,3.142-.008.021a1.192,1.192,0,0,0,.085,1.028,1.045,1.045,0,0,0,.924.413,2.076,2.076,0,0,0,.632-.1v4.226s0,.005,0,.008,0,.005,0,.008a1.375,1.375,0,0,0,1.408,1.32h5.5a1.375,1.375,0,0,0,1.371-1.323c0-.005,0-.011,0-.017v-4.2a1.8,1.8,0,0,0,.506.074,1.079,1.079,0,0,0,.938-.412A1.2,1.2,0,0,0,716.584,482Zm-2.482,5.546a.456.456,0,0,1-.454.431h-5.519a.455.455,0,0,1-.468-.434v-4.68a.672.672,0,0,1,.309-.11c.1,0,.138.029.286.165a1.392,1.392,0,0,0,1.015.44,2.092,2.092,0,0,0,1.12-.373,1,1,0,0,1,.441-.189,1.188,1.188,0,0,1,.484.217,2.046,2.046,0,0,0,1.074.382h.005a1.534,1.534,0,0,0,1.008-.441c.179-.148.263-.2.359-.207a.772.772,0,0,1,.341.139Zm1.62-5.069a.357.357,0,0,1-.2.034,1.478,1.478,0,0,1-.792-.314,1.831,1.831,0,0,0-.965-.369h-.01a1.441,1.441,0,0,0-.942.417c-.183.151-.285.23-.426.231h0a1.273,1.273,0,0,1-.6-.249,1.839,1.839,0,0,0-.96-.35,1.738,1.738,0,0,0-.909.318,1.27,1.27,0,0,1-.651.244c-.178,0-.246-.062-.395-.2a1.266,1.266,0,0,0-.906-.406,1.838,1.838,0,0,0-.974.355,1.6,1.6,0,0,1-.884.322.466.466,0,0,1-.17-.023.425.425,0,0,1,.018-.171l1.347-3.122a.465.465,0,0,1,.424-.274h6.326a.46.46,0,0,1,.426.279l1.232,3.1A.376.376,0,0,1,715.722,482.474Z" transform="translate(-705.022 -477.999)"/>
        <g id="noun_Refresh_2072320" data-name="noun Refresh 2072320" transform="translate(4.172 5.813)">
          <g id="Group_260" data-name="Group 260">
            <path id="Path_62" data-name="Path 62" d="M735.486,516.492h0a.068.068,0,0,1,.015.046l0,.845a.053.053,0,0,1-.057.05h0l-.826-.182a.072.072,0,0,1-.042-.027h0a.071.071,0,0,1,.011-.1l.174-.14a1.086,1.086,0,0,0-1.863.468.3.3,0,0,1-.291.223h0a.291.291,0,0,1-.276-.36,1.671,1.671,0,0,1,2.889-.7l.174-.14A.072.072,0,0,1,735.486,516.492Z" transform="translate(-732.317 -516.041)"/>
            <path id="Path_63" data-name="Path 63" d="M732.948,528.766h0a.065.065,0,0,1-.015-.046l0-.845a.053.053,0,0,1,.056-.05h0l.826.182a.073.073,0,0,1,.042.026h0a.071.071,0,0,1-.011.1l-.174.136a1.086,1.086,0,0,0,1.863-.47.3.3,0,0,1,.291-.224h0a.291.291,0,0,1,.284.3.3.3,0,0,1-.008.062,1.671,1.671,0,0,1-2.89.7l-.174.14A.071.071,0,0,1,732.948,528.766Z" transform="translate(-732.838 -525.807)"/>
          </g>
        </g>
      </g>
    </g>
    <g id="Group_3761" data-name="Group 3761" transform="translate(-1276 -101.996)">
      <rect id="Rectangle_253" data-name="Rectangle 253" width="11.999" height="11.999" transform="translate(1312 101.997)" fill="none"/>
      <g id="Rectangle_257" data-name="Rectangle 257" transform="translate(1315.002 104.396)" fill="none" stroke="#000" stroke-width="1">
        <rect width="6" height="2.671" rx="0.5" stroke="none"/>
        <rect x="0.5" y="0.5" width="5" height="1.671" fill="none"/>
      </g>
      <g id="Path_593" data-name="Path 593" transform="translate(1313.141 102.574)" fill="none">
        <path d="M.768,0H8.95a.816.816,0,0,1,.768.857v9.13a.816.816,0,0,1-.768.857H.768A.816.816,0,0,1,0,9.987V.857A.816.816,0,0,1,.768,0Z" stroke="none"/>
        <path d="M 1.000003814697266 1.000004768371582 L 1.000003814697266 9.843724250793457 L 8.718204498291016 9.843724250793457 L 8.718204498291016 1.000004768371582 L 1.000003814697266 1.000004768371582 M 0.7678337097167969 4.76837158203125e-06 L 8.950374603271484 4.76837158203125e-06 C 9.374434471130371 4.76837158203125e-06 9.718204498291016 0.3835849761962891 9.718204498291016 0.8567647933959961 L 9.718204498291016 9.986964225769043 C 9.718204498291016 10.46014404296875 9.374434471130371 10.84372425079346 8.950374603271484 10.84372425079346 L 0.7678337097167969 10.84372425079346 C 0.3437738418579102 10.84372425079346 3.814697265625e-06 10.46014404296875 3.814697265625e-06 9.986964225769043 L 3.814697265625e-06 0.8567647933959961 C 3.814697265625e-06 0.3835849761962891 0.3437738418579102 4.76837158203125e-06 0.7678337097167969 4.76837158203125e-06 Z" stroke="none"/>
      </g>
      <line id="Line_58" data-name="Line 58" x2="5.215" transform="translate(1315.41 108.146)" fill="none" stroke="#000" stroke-linecap="round" stroke-width="1"/>
      <line id="Line_59" data-name="Line 59" x2="5.215" transform="translate(1315.41 109.646)" fill="none" stroke="#000" stroke-linecap="round" stroke-width="1"/>
      <line id="Line_60" data-name="Line 60" x2="5.215" transform="translate(1315.41 111.146)" fill="none" stroke="#000" stroke-linecap="round" stroke-width="1"/>
    </g>
    <g id="Group_3768" data-name="Group 3768" transform="translate(-885 -474)">
      <g id="Group_3767" data-name="Group 3767" transform="translate(933.618 475.002)">
        <g id="Group_3762" data-name="Group 3762" transform="translate(0)">
          <path id="Path_594" data-name="Path 594" d="M115.654,152.8a.448.448,0,0,1-.309-.124l-1.215-1.169h-1.65a2.21,2.21,0,0,1-2.208-2.208V144.78a2.21,2.21,0,0,1,2.208-2.208h6.348a2.211,2.211,0,0,1,2.208,2.208V149.3a2.211,2.211,0,0,1-2.208,2.208H116.1v.848a.445.445,0,0,1-.271.409A.45.45,0,0,1,115.654,152.8Zm-3.174-9.343a1.32,1.32,0,0,0-1.318,1.318V149.3a1.32,1.32,0,0,0,1.318,1.318h1.829a.444.444,0,0,1,.309.124l.592.569v-.248a.445.445,0,0,1,.445-.444h3.174a1.319,1.319,0,0,0,1.317-1.318V144.78a1.319,1.319,0,0,0-1.317-1.318Z" transform="translate(-110.272 -142.572)"/>
        </g>
        <g id="Group_3763" data-name="Group 3763" transform="translate(1.801 2.301)">
          <path id="Path_595" data-name="Path 595" d="M117.1,146.572h-3.945a.447.447,0,1,1,0-.895H117.1a.447.447,0,1,1,0,.895Z" transform="translate(-112.711 -145.677)"/>
        </g>
        <g id="Group_3764" data-name="Group 3764" transform="translate(1.793 4.038)">
          <path id="Path_596" data-name="Path 596" d="M119.022,148.916h-5.863a.447.447,0,1,1,0-.895h5.863a.447.447,0,0,1,0,.895Z" transform="translate(-112.711 -148.021)"/>
        </g>
        <g id="Group_3765" data-name="Group 3765" transform="translate(1.799 5.683)">
          <path id="Path_597" data-name="Path 597" d="M117.812,151.135h-4.653a.447.447,0,1,1,0-.895h4.653a.447.447,0,0,1,0,.895Z" transform="translate(-112.711 -150.24)"/>
        </g>
        <g id="Group_3766" data-name="Group 3766" transform="translate(7.901 5.687)">
          <path id="Path_598" data-name="Path 598" d="M121.377,151.136a.442.442,0,0,1-.171-.037.4.4,0,0,1-.149-.1.45.45,0,0,1,0-.626.4.4,0,0,1,.149-.1.442.442,0,0,1,.485.723A.417.417,0,0,1,121.377,151.136Z" transform="translate(-120.93 -150.246)"/>
        </g>
      </g>
      <rect id="Rectangle_603" data-name="Rectangle 603" width="12" height="12" transform="translate(933 474)" fill="none"/>
    </g>
    <g id="Group_3788" data-name="Group 3788" transform="translate(-873 -474)">
      <rect id="Rectangle_603-2" data-name="Rectangle 603" width="12" height="12" transform="translate(933 474)" fill="none"/>
      <g id="Group_3776" data-name="Group 3776" transform="translate(933.251 474.291)">
        <g id="Group_3776-2" data-name="Group 3776" transform="translate(0.595 2.818)">
          <path id="Path_599" data-name="Path 599" d="M219.056,97.711a.4.4,0,0,1-.4-.4V95.462a.4.4,0,0,1,.4-.4h3.54a.4.4,0,0,1,0,.805h-3.138v1.444A.4.4,0,0,1,219.056,97.711Z" transform="translate(-218.653 -95.059)"/>
        </g>
        <g id="Group_3777" data-name="Group 3777" transform="translate(0.595 6.297)">
          <path id="Path_600" data-name="Path 600" d="M219.056,102.016a.4.4,0,0,1-.4-.4v-1.485a.4.4,0,0,1,.805,0v1.485A.4.4,0,0,1,219.056,102.016Z" transform="translate(-218.653 -99.726)"/>
        </g>
        <g id="Group_3778" data-name="Group 3778" transform="translate(6.603 2.859)">
          <path id="Path_601" data-name="Path 601" d="M230.653,100.838h-3.538a.4.4,0,1,1,0-.805h3.135V95.517a.4.4,0,0,1,.806,0v4.919A.4.4,0,0,1,230.653,100.838Z" transform="translate(-226.713 -95.114)"/>
        </g>
        <g id="Group_3779" data-name="Group 3779" transform="translate(1.093 8.101)">
          <path id="Path_602" data-name="Path 602" d="M220.6,104.325a.4.4,0,0,1-.347-.2l-.933-1.571.693-.411.752,1.267.311-.134.319.739-.635.274A.391.391,0,0,1,220.6,104.325Z" transform="translate(-219.321 -102.146)"/>
        </g>
        <g id="Group_3780" data-name="Group 3780" transform="translate(8.368 1.131)">
          <path id="Path_603" data-name="Path 603" d="M230.371,95.166l-.691-1.444-.28.121-.32-.739.635-.275a.4.4,0,0,1,.523.2l.859,1.794Z" transform="translate(-229.081 -92.796)"/>
        </g>
        <g id="Group_3781" data-name="Group 3781" transform="translate(10.14 4.32)">
          <path id="Path_604" data-name="Path 604" d="M231.861,99.5a.4.4,0,0,1-.4-.4V97.477a.4.4,0,0,1,.772-.16l.59,1.363a.4.4,0,0,1-.21.529l-.59.256A.4.4,0,0,1,231.861,99.5Z" transform="translate(-231.458 -97.074)"/>
        </g>
        <g id="Group_3782" data-name="Group 3782" transform="translate(0 4.664)">
          <path id="Path_605" data-name="Path 605" d="M218.852,99.974a.4.4,0,0,1-.369-.243l-.6-1.375a.4.4,0,0,1,0-.308.4.4,0,0,1,.215-.221l.595-.257a.4.4,0,0,1,.562.369v1.633a.4.4,0,0,1-.321.394A.443.443,0,0,1,218.852,99.974Z" transform="translate(-217.855 -97.536)"/>
        </g>
        <g id="Group_3783" data-name="Group 3783" transform="translate(2.605 7.778)">
          <path id="Path_606" data-name="Path 606" d="M223.611,105.346a.4.4,0,0,1-.242-.081l-1.859-1.406a.4.4,0,0,1,.083-.69l3.285-1.422a.4.4,0,0,1,.16-.034h.713a.4.4,0,0,1,.321.646l-2.139,2.827A.4.4,0,0,1,223.611,105.346Zm-1.064-1.713.987.747,1.32-1.745Z" transform="translate(-221.35 -101.713)"/>
        </g>
        <g id="Group_3784" data-name="Group 3784" transform="translate(4.135 0)">
          <path id="Path_607" data-name="Path 607" d="M224.533,94.9H223.8a.4.4,0,0,1-.321-.646l2.131-2.818a.4.4,0,0,1,.564-.078l1.859,1.407a.4.4,0,0,1-.083.69l-3.263,1.411A.392.392,0,0,1,224.533,94.9Zm1.481-2.657-1.32,1.746,2.308-1Z" transform="translate(-223.403 -91.279)"/>
        </g>
        <g id="Group_3785" data-name="Group 3785" transform="translate(4.863 1.406)">
          <path id="Path_608" data-name="Path 608" d="M230.05,95.382h-5.268a.4.4,0,0,1-.16-.772l3.262-1.411a.4.4,0,1,1,.32.739l-1.478.64h3.324a.4.4,0,1,1,0,.805Z" transform="translate(-224.379 -93.165)"/>
        </g>
        <g id="Group_3786" data-name="Group 3786" transform="translate(0.602 7.778)">
          <path id="Path_609" data-name="Path 609" d="M221.069,103.94a.4.4,0,0,1-.16-.772l1.5-.65h-3.344a.4.4,0,1,1,0-.805h5.288a.4.4,0,0,1,.16.772l-3.285,1.422A.4.4,0,0,1,221.069,103.94Z" transform="translate(-218.663 -101.713)"/>
        </g>
        <g id="Group_3787" data-name="Group 3787" transform="translate(1.998 4.101)">
          <path id="Path_610" data-name="Path 610" d="M226.68,99.979H221.86a.4.4,0,0,1-.4-.364.663.663,0,0,0-.575-.6.4.4,0,0,1-.35-.4v-.5a.4.4,0,0,1,.35-.4.665.665,0,0,0,.573-.585.4.4,0,0,1,.4-.357h4.825a.4.4,0,0,1,.4.357.672.672,0,0,0,.549.584.4.4,0,0,1,.335.4v.508a.4.4,0,0,1-.335.4.669.669,0,0,0-.549.594A.4.4,0,0,1,226.68,99.979Zm-4.5-.805h4.184a1.483,1.483,0,0,1,.707-.8,1.488,1.488,0,0,1-.7-.786h-4.2a1.471,1.471,0,0,1-.7.786A1.461,1.461,0,0,1,222.179,99.174Z" transform="translate(-220.535 -96.78)"/>
        </g>
      </g>
    </g>
    <g id="Group_3789" data-name="Group 3789" transform="translate(-1288 -101.996)">
      <rect id="Rectangle_253-2" data-name="Rectangle 253" width="11.999" height="11.999" transform="translate(1312 101.997)" fill="none"/>
      <g id="Rectangle_605" data-name="Rectangle 605" transform="translate(1312.6 102.596)" fill="none" stroke="#000" stroke-linejoin="round" stroke-width="1">
        <rect width="5" height="5" stroke="none"/>
        <rect x="0.5" y="0.5" width="4" height="4" fill="none"/>
      </g>
      <g id="Rectangle_606" data-name="Rectangle 606" transform="translate(1312.6 108.396)" fill="none" stroke="#000" stroke-linejoin="round" stroke-width="1">
        <rect width="5" height="5" stroke="none"/>
        <rect x="0.5" y="0.5" width="4" height="4" fill="none"/>
      </g>
      <g id="Rectangle_607" data-name="Rectangle 607" transform="translate(1318.4 102.596)" fill="none" stroke="#000" stroke-linejoin="round" stroke-width="1">
        <rect width="5" height="5" stroke="none"/>
        <rect x="0.5" y="0.5" width="4" height="4" fill="none"/>
      </g>
      <g id="Rectangle_608" data-name="Rectangle 608" transform="translate(1318.4 108.396)" fill="none" stroke="#000" stroke-linejoin="round" stroke-width="1">
        <rect width="5" height="5" stroke="none"/>
        <rect x="0.5" y="0.5" width="4" height="4" fill="none"/>
      </g>
    </g>
    <g id="Group_3917" data-name="Group 3917" transform="translate(72)">
      <rect id="Rectangle_649" data-name="Rectangle 649" width="12" height="12" fill="none"/>
      <g id="Group_3915" data-name="Group 3915" transform="translate(1 1.799)">
        <g id="Group_3916" data-name="Group 3916">
          <g id="Rectangle_647" data-name="Rectangle 647" transform="translate(0 1)" fill="none" stroke="#000" stroke-linejoin="round" stroke-width="1">
            <rect width="10" height="8" stroke="none"/>
            <rect x="0.5" y="0.5" width="9" height="7" fill="none"/>
          </g>
          <rect id="Rectangle_648" data-name="Rectangle 648" width="1.5" height="1.5" rx="0.75" transform="translate(6.5 5.5)"/>
          <path id="Path_627" data-name="Path 627" d="M0,2V1" transform="translate(2 -1)" fill="none" stroke="#000" stroke-linecap="round" stroke-width="1"/>
          <path id="Path_626" data-name="Path 626" d="M0,2V1" transform="translate(8 -1)" fill="none" stroke="#000" stroke-linecap="round" stroke-width="1"/>
          <line id="Line_75" data-name="Line 75" x2="9" transform="translate(0.5 3.5)" fill="none" stroke="#000" stroke-width="1"/>
        </g>
      </g>
    </g>
    <g id="Group_4604" data-name="Group 4604" transform="translate(84)">
      <rect id="Rectangle_649-2" data-name="Rectangle 649" width="12" height="12" fill="none"/>
      <path id="Icon_awesome-check-circle" data-name="Icon awesome-check-circle" d="M12.562,6.563a6,6,0,1,1-6-6A6,6,0,0,1,12.562,6.563ZM5.868,9.739,10.32,5.288a.387.387,0,0,0,0-.547l-.547-.547a.387.387,0,0,0-.547,0l-3.63,3.63L3.9,6.128a.387.387,0,0,0-.547,0L2.8,6.676a.387.387,0,0,0,0,.547L5.321,9.739A.387.387,0,0,0,5.868,9.739Z" transform="translate(-0.563 -0.563)" fill="#22b598"/>
    </g>
    <g id="Group_4605" data-name="Group 4605" transform="translate(96)">
      <rect id="Rectangle_649-3" data-name="Rectangle 649" width="12" height="12" fill="none"/>
      <path id="Icon_material-cancel" data-name="Icon material-cancel" d="M9,3a6,6,0,1,0,6,6A5.995,5.995,0,0,0,9,3Zm3,8.154L11.154,12,9,9.846,6.846,12,6,11.154,8.154,9,6,6.846,6.846,6,9,8.154,11.154,6,12,6.846,9.846,9Z" transform="translate(-3 -3)" fill="#fa7272"/>
    </g>
  </g>
</svg>
