<svg xmlns="http://www.w3.org/2000/svg" width="180.417" height="205.374" viewBox="0 0 180.417 205.374">
  <g id="XMLID_650_" transform="translate(-18.696 -3.18)">
    <g id="XMLID_5_" transform="translate(18.696 3.18)">
      <path id="XMLID_289_" d="M110.288,60.916c1.907.147,5.134-3.96,9.974-12.614-7.187-2.2-11.147-.587-12.174,4.987-.733,3.814,0,6.454,2.2,7.627" transform="translate(22.9 17.438)" fill="#fff"/>
      <path id="XMLID_286_" d="M122.841,29.757h-1.76s-9.094-5.72-45.323,68.057c0,0-16.428,37.109,1.32-9.681l1.32-4.107c34.175-69.671,29.482-74.951,29.482-74.951s.587-9.094-6.6-4.694C96.44,7.316,85.586,22.424,84.853,24.33L68.718,51.612C-12.246,205.034,29.409,152.671,29.409,152.671L39.823,129.2,76.052,54.546C86.319,35.331,92.92,22.864,96.587,19.2v.587l-1.173,4.694-.587,2.347c-52.51,124.087-34.175,112.5-34.175,112.5.88,0,4.694-6.747,11.294-20.241,0,0,40.482-85.072,46.2-76.711C83.239,125.83,98.2,145.778,98.2,145.778s6.014,9.534,22.148-7.92c.147,8.8,13.934.147,15.841-2.053l9.241-8.36,1.027-1.027c.293,6.307,12.027,5.28,24.641-5.72,0,12.027,15.108-1.027,15.108-1.027,5.574-4.254,1.907-6.894,1.907-6.894-14.521,14.228-4.4-3.814-.587-10.414,2.787-3.374,6.307-9.387,6.307-18.774,0-2.787-3.667-2.493-6.747-.293a7.8,7.8,0,0,0-7.187-1.32c-13.2,6.454-28.455,19.068-32.562,38.722-4.547,4.107-24.2,21.561-9.974-.587a81.411,81.411,0,0,0,5.867-10.561c1.613-3.374,2.934-6.014,1.173-9.387l-2.053-.733-7.774,11.587s-6.747,8.947-16.134,19.068h-.147c-.587.733-1.32,1.467-1.907,2.2-1.467,1.613-3.08,3.227-4.694,4.84-3.667,3.52-6.747,5.427-7.48,3.374-9.534-28.748,21.121-93.872,21.121-93.872,3.227-7.627,2.493-11.294,2.493-11.294a5.983,5.983,0,0,0-4.987-5.574m37.989,90.205c-3.52,2.2-5.28,2.053-5.574-.733,2.053-8.507,5.134-17.748,22.148-28.015l5.574-2.787.733,1.32c-4.107,14.814-11.587,24.788-22.881,30.215" transform="translate(-18.696 -3.18)" fill="#fff"/>
      <g id="XMLID_6_" transform="translate(145.471 128.37)">
        <path id="XMLID_283_" d="M125.067,104.154v-2.64a9.49,9.49,0,0,1-1.173,1.32,9.49,9.49,0,0,0-1.173,1.32Zm-2.347.44a1.961,1.961,0,0,0-.147,1.32h-1.027a.539.539,0,0,0-.147-.44v-.293a3.232,3.232,0,0,1,1.32-2.2l1.173-1.173a10.179,10.179,0,0,0,1.467-1.76.454.454,0,0,1,.293-.147v6.16h-.587v-1.32H122.72Z" transform="translate(-116.229 -86.406)" fill="#fff"/>
        <path id="XMLID_282_" d="M121.725,105.32l.44-4.254a2,2,0,0,1,.88-1.467c-.587,0-.733.293-1.173.147h-3.227c-.587,0-.88.587-.733.733a1.128,1.128,0,0,1,.44-.293h2.934a1.62,1.62,0,0,0-.44,1.027s-.293,3.667-.293,4.84a3.373,3.373,0,0,0,2.493,3.52,5.934,5.934,0,0,1-1.32-4.254" transform="translate(-117.875 -86.546)" fill="#fff"/>
        <path id="XMLID_281_" d="M133.274,101.067c.147.147.293,0,.147-.147-1.467-.88-2.2-3.227-2.347-5.134V91.973a5.769,5.769,0,0,0,.88.293h2.053c.587,0,.88.147,1.027.733a1.448,1.448,0,0,0-1.32-1.76h-2.347a4.322,4.322,0,0,1-1.467-.44v4.107c0,4.107,2.347,5.867,3.374,6.16" transform="translate(-112.262 -90.653)" fill="#fff"/>
        <path id="XMLID_280_" d="M128.874,104.154a6.785,6.785,0,0,0-1.467-1.76,6.073,6.073,0,0,1-1.613-2.347L125.5,99.9v6.014h.587v-4.107a7.956,7.956,0,0,0,1.613,1.907,5.783,5.783,0,0,1,1.467,2.053l.293.147V99.9h-.587Z" transform="translate(-114.315 -86.406)" fill="#fff"/>
        <path id="XMLID_279_" d="M130.033,98.2a.733.733,0,1,0,0,1.467.733.733,0,0,0,0-1.467" transform="translate(-112.542 -87.199)" fill="#fff"/>
        <path id="XMLID_227_" d="M140.8,105.707l.147.147a2.2,2.2,0,0,0,1.027-1.32,3.009,3.009,0,0,0-.147-2.934,3.954,3.954,0,0,0-1.027-1.173c-.147-.147-.293-.147-.293-.293a2.594,2.594,0,0,0-1.027,1.613,3.476,3.476,0,0,0,.293,2.347,4.369,4.369,0,0,0,1.027,1.613m0,1.32h0a8.6,8.6,0,0,1-1.907-2.493,2.645,2.645,0,0,1-.293-1.467v-.147a4.34,4.34,0,0,1,.293-1.467c.293-.88,1.027-1.32,1.76-2.053a.144.144,0,0,0,.147.147,10.047,10.047,0,0,1,2.053,2.2,2.18,2.18,0,0,1,.293,1.32v.147a3.076,3.076,0,0,1-.587,1.613,13.227,13.227,0,0,1-1.32,1.467,5.479,5.479,0,0,1,.88,1.027,2.037,2.037,0,0,1,.293,1.613c0,.147-.293.88-.587.88.44-1.027-.44-2.2-1.027-2.787" transform="translate(-108.201 -86.639)" fill="#fff"/>
        <path id="XMLID_226_" d="M138.034,103.714H135.98V99.9h-.88v5.867h.88v-1.613h2.053v1.76h.88V99.9h-.88Z" transform="translate(-109.834 -86.406)" fill="#fff"/>
        <path id="XMLID_225_" d="M131.241,90.7a2.073,2.073,0,0,1-1.467.44h-2.347a1.448,1.448,0,0,0-1.32,1.76,1.1,1.1,0,0,1,1.173-.733h2.053a1.449,1.449,0,0,0,.88-.293v3.814c-.147,1.907-.88,4.107-2.347,5.134-.293.147-.147.293.147.147,1.027-.147,3.374-1.907,3.374-6.16V90.7Z" transform="translate(-114.042 -90.7)" fill="#fff"/>
        <path id="XMLID_224_" d="M134.374,102.689c-.733-.44-1.467-.733-2.053-1.173a.709.709,0,0,1,0-1.027c.293-.293.88-.147,1.173,0l.733.733c.147.147.44.293.587.147a2.364,2.364,0,0,0-.587-1.027,1.976,1.976,0,0,0-2.493,0c-.587.587-.293,1.173.147,1.76.587.587,1.76.88,2.64,1.76.44.44.587,1.027,0,1.467a2.387,2.387,0,0,1-1.76.147,1.427,1.427,0,0,1-.88-.733.843.843,0,0,0-.88-.587,2.114,2.114,0,0,0,1.32,1.613,3.106,3.106,0,0,0,2.787-.293c1.027-.733.733-2.053-.733-2.787" transform="translate(-111.748 -86.408)" fill="#fff"/>
        <rect id="XMLID_11_" width="0.733" height="6.014" transform="translate(17.052 13.494)" fill="#fff"/>
        <path id="XMLID_8_" d="M120,93.14h0c.147-.147.44-.147.587-.293a.512.512,0,0,0,.293-.147h0v1.76c0-.147.147-.147.147-.293.147-.147.293-.147.587-.147s.44.147.733.293a2.085,2.085,0,0,1,.293.88,1.5,1.5,0,0,1-1.467,1.467.882.882,0,0,1-.587-.147c-.147-.147-.293-.147-.293-.293V92.993c0,.147,0,.147-.293.147Zm1.173,3.227h.293a.762.762,0,0,0,.587-.293,1.907,1.907,0,0,0,0-1.467c-.147-.293-.293-.293-.587-.293a.539.539,0,0,0-.44.147c-.147.147-.147.147-.147.293V96.22c0,.147.147.147.293.147" transform="translate(-116.882 -89.766)" fill="#fff"/>
        <path id="XMLID_7_" d="M122.047,93.6h1.173v.147h-.147c-.147,0-.147,0-.147.147v.293l.587,1.467.587-1.467v-.44h-.293V93.6h.733v.147c-.147,0-.147,0-.147.147a.144.144,0,0,1-.147.147l-.88,2.347a2.388,2.388,0,0,1-.44.88.762.762,0,0,1-.587.293c-.147,0-.147,0-.293-.147-.147,0-.147-.147-.147-.293s0-.147.147-.147h.44c.147,0,.147-.147.293-.44a1.135,1.135,0,0,0,.147-.44h0l-.88-1.907a.512.512,0,0,0-.147-.293c.293-.147.293-.147.147-.293Z" transform="translate(-115.996 -89.346)" fill="#fff"/>
      </g>
    </g>
    <g id="XMLID_654_" transform="translate(20.755 181.273)">
      <path id="XMLID_13_" d="M32.861,144.061a5.071,5.071,0,0,1-1.76.44c-1.32,0-1.907-.147-2.053-.587-2.053-5.427-3.52-8.8-4.107-10.414,0,.587-.293,1.907-.44,3.96a70.686,70.686,0,0,0-.88,9.974,19.9,19.9,0,0,0,.147,2.64c-1.467,0-2.493-.147-2.934-.587a1.805,1.805,0,0,1-.733-1.467c0-.147.293-3.08,1.027-8.507a95.03,95.03,0,0,0,1.027-11.441h0a7.833,7.833,0,0,0-1.907-2.347,4.513,4.513,0,0,1,2.787-.88,3.529,3.529,0,0,1,3.227,1.907q1.1,1.98,4.4,10.561l1.467,3.667a8.69,8.69,0,0,0,.587-.88q7.7-11.221,7.92-15.4a2.567,2.567,0,0,1,.733.147,7.568,7.568,0,0,1,1.613.293,2.136,2.136,0,0,1,1.32.88,1.584,1.584,0,0,1,.44,1.027c0,.293.147.88.147,1.76a79.266,79.266,0,0,1-1.027,8.36,72.119,72.119,0,0,0-1.027,9.974,10.5,10.5,0,0,0,.44,3.814,6.648,6.648,0,0,1-3.667-1.907,4.976,4.976,0,0,1-1.027-3.227,51.568,51.568,0,0,1,.587-5.867q.66-4.62.88-7.48c-.88,1.467-2.053,3.374-3.52,5.867s-2.493,3.96-2.787,4.4A9.351,9.351,0,0,1,32.861,144.061Z" transform="translate(-20.1 -124.553)" fill="#fff"/>
      <path id="XMLID_212_" d="M45.987,139.921a18.059,18.059,0,0,1-2.934-.293v1.027a6.084,6.084,0,0,0,1.027,3.96,2.818,2.818,0,0,0,2.347,1.32,4.731,4.731,0,0,0,2.64-.88,10.423,10.423,0,0,0,2.2-2.2c.733.147,1.173.587,1.173,1.173-1.907,2.787-4.254,4.254-7.187,4.254a6.251,6.251,0,0,1-4.547-2.053,7.579,7.579,0,0,1-1.907-5.574,12.356,12.356,0,0,1,1.027-5.134,10.873,10.873,0,0,1,3.227-4.107,7.814,7.814,0,0,1,4.987-1.613A5.155,5.155,0,0,1,52,131.12a4.313,4.313,0,0,1,1.32,3.227,5.3,5.3,0,0,1-2.053,4.4A12.652,12.652,0,0,1,45.987,139.921Zm1.32-8.507a3.043,3.043,0,0,0-2.64,1.907,14.473,14.473,0,0,0-1.467,4.84h.44c1.76,0,3.227-.44,3.96-1.467a4.647,4.647,0,0,0,1.32-3.374,2.478,2.478,0,0,0-.44-1.467A2.186,2.186,0,0,0,47.307,131.413Z" transform="translate(-11.372 -122.173)" fill="#fff"/>
      <path id="XMLID_188_" d="M62.314,126.313a2.719,2.719,0,0,1,.293,1.027v1.613c0,.733-.293,3.52-1.027,8.214a72.119,72.119,0,0,0-1.027,9.974,10.5,10.5,0,0,0,.44,3.814,6.648,6.648,0,0,1-3.667-1.907,4.976,4.976,0,0,1-1.027-3.227,56.086,56.086,0,0,1,.587-6.014A102.918,102.918,0,0,0,58.06,127.34a19.9,19.9,0,0,0-.147-2.64,9.069,9.069,0,0,1,3.52.733A2.49,2.49,0,0,1,62.314,126.313Z" transform="translate(-3.204 -124.553)" fill="#fff"/>
      <path id="XMLID_138_" d="M74.821,129.74a3.223,3.223,0,0,1,2.64,1.173,4.814,4.814,0,0,1,.733,3.08,32.448,32.448,0,0,1-.587,5.574,29.826,29.826,0,0,0-.587,5.134,4.743,4.743,0,0,0,.44,2.347,5.6,5.6,0,0,0,1.32,1.32H77.608a6.656,6.656,0,0,1-3.814-.88,3.327,3.327,0,0,1-1.173-2.787,26.5,26.5,0,0,1,.587-4.547,27.158,27.158,0,0,0,.587-4.987c0-1.32-.44-2.053-1.32-2.053a2.548,2.548,0,0,0-1.613.88,10.826,10.826,0,0,0-1.76,2.347,15.948,15.948,0,0,0-1.467,3.814,16.135,16.135,0,0,0-.587,4.547,20.787,20.787,0,0,0,.147,3.374h-1.32a4.41,4.41,0,0,1-2.64-.587,2.382,2.382,0,0,1-.733-2.053,44.456,44.456,0,0,1,.587-4.84,43.218,43.218,0,0,0,.587-6.747,14.85,14.85,0,0,0-.587-4.547,5.884,5.884,0,0,1,3.227,2.053,5.423,5.423,0,0,1,.88,3.08,20.393,20.393,0,0,1-.44,3.96,16.977,16.977,0,0,1,3.227-6.014C72.181,130.62,73.5,129.74,74.821,129.74Z" transform="translate(-0.31 -122.406)" fill="#fff"/>
      <path id="XMLID_39_" d="M97.2,150.468a1.828,1.828,0,0,1-1.613-.587,9.765,9.765,0,0,1-.88-1.76c-.293-.733-.733-2.934-1.467-6.307a4.426,4.426,0,0,1-2.347.733l-5.427.147a50.61,50.61,0,0,0-2.787,8.36c-2.053-.733-3.08-1.467-3.08-2.347a19.839,19.839,0,0,1,1.76-4.4c1.173-2.64,2.64-5.427,4.107-8.8,1.467-3.227,2.64-5.72,3.08-7.187l.587-1.467a12.958,12.958,0,0,0-1.173-1.613,5.743,5.743,0,0,1,1.907-.44,3.256,3.256,0,0,1,1.32.147c.293.147.733.293,1.027.44a3.2,3.2,0,0,1,.733.587,4.565,4.565,0,0,1,.587.88,7.148,7.148,0,0,0,.44,1.027,6.82,6.82,0,0,1,.44,1.32c.147.587.293,1.027.44,1.467a15.162,15.162,0,0,0,.44,1.76l.44,2.2c.147.733.44,2.053.88,4.107s.733,3.52,1.027,4.547.587,2.053,1.027,3.374a10.934,10.934,0,0,0,1.467,2.934A7.773,7.773,0,0,1,97.2,150.468Zm-6.6-19.655c-.293.733-.88,2.053-1.907,4.254s-1.76,3.96-2.347,5.28H92.8C91.774,135.8,91.041,132.72,90.6,130.814Z" transform="translate(7.672 -124.507)" fill="#fff"/>
      <path id="XMLID_38_" d="M98.5,140.6q0,5.28,3.08,5.28a3.9,3.9,0,0,0,2.347-.88,10.423,10.423,0,0,0,2.2-2.2c.733.147,1.173.587,1.173,1.173a7.593,7.593,0,0,1-3.227,3.227,9.276,9.276,0,0,1-3.814,1.027,5.578,5.578,0,0,1-4.4-1.907,7.941,7.941,0,0,1-1.76-5.574,13.072,13.072,0,0,1,2.493-7.92,8.221,8.221,0,0,1,6.894-3.227,5.489,5.489,0,0,1,3.667,1.173,3.468,3.468,0,0,1,1.173,2.787,3.872,3.872,0,0,1-1.027,2.787,3.133,3.133,0,0,1-2.493,1.173,5.211,5.211,0,0,1-1.467-.293,5.252,5.252,0,0,0,.88-1.613,5.758,5.758,0,0,0,.44-2.053c0-1.32-.587-1.907-1.613-1.907-1.32,0-2.347.88-3.227,2.787A12.617,12.617,0,0,0,98.5,140.6Z" transform="translate(14.44 -122.266)" fill="#fff"/>
      <path id="XMLID_36_" d="M111.98,134.654c-.147.733-.293,2.053-.587,3.96a51.723,51.723,0,0,0-1.027,8.8,10.5,10.5,0,0,0,.44,3.814,5.71,5.71,0,0,1-3.374-1.907,6.45,6.45,0,0,1-.88-3.667,31.29,31.29,0,0,1,.587-5.72c.44-2.493.733-4.107.88-4.987a22.381,22.381,0,0,0-3.52,1.027v-1.027c0-1.173.293-1.907,1.027-2.2a5.482,5.482,0,0,1,2.934-.587,33.754,33.754,0,0,0,.147-3.374V126a5.912,5.912,0,0,1,3.08,1.173,4.38,4.38,0,0,1,.88,2.934,11.983,11.983,0,0,1-.147,2.053,6.244,6.244,0,0,0,3.814-1.027v.88c0,1.027-.147,1.76-.587,2.053-.293.44-.88.587-1.76.587Z" transform="translate(19.294 -123.947)" fill="#fff"/>
      <path id="XMLID_33_" d="M117.547,139.414a53.374,53.374,0,0,0-.733,7.334,18.466,18.466,0,0,0,.293,3.814c-1.613-.44-2.787-1.027-3.227-1.907a6.45,6.45,0,0,1-.88-3.667,41.907,41.907,0,0,1,.44-4.694,46.248,46.248,0,0,0,.44-5.427,16.037,16.037,0,0,0-.147-2.934h1.32a3.669,3.669,0,0,1,2.493.587,2.9,2.9,0,0,1,.733,2.053C118.28,134.721,117.987,136.481,117.547,139.414ZM118.72,129a5.5,5.5,0,0,1-1.467.147c-2.2,0-3.227-.733-3.227-2.2a7.239,7.239,0,0,1,.44-2.2,5.5,5.5,0,0,1,1.467-.147c2.2,0,3.227.733,3.227,2.2A4.49,4.49,0,0,1,118.72,129Z" transform="translate(23.261 -124.6)" fill="#fff"/>
      <path id="XMLID_30_" d="M125.24,129.3c.293,0,.44,0,.587.147s.293.293.293.44a9.166,9.166,0,0,0-3.814,6.16,15.174,15.174,0,0,1,1.613-3.08,6.262,6.262,0,0,1,2.053-1.907,6.764,6.764,0,0,1,3.814-1.173,3.687,3.687,0,0,1,3.227,1.907,8.381,8.381,0,0,1,1.32,4.987,13.893,13.893,0,0,1-1.467,6.454,8.886,8.886,0,0,1-4.4,4.547,9.44,9.44,0,0,1-3.52.733,6.571,6.571,0,0,1-4.694-2.053,8.521,8.521,0,0,1-2.053-6.014,12.685,12.685,0,0,1,1.907-7.04A8.179,8.179,0,0,1,125.24,129.3Zm2.64,2.787c-1.32,0-2.64.88-3.667,2.787A11.026,11.026,0,0,0,122.6,140.3c0,3.814,1.027,5.72,2.934,5.72,1.467,0,2.493-.88,3.374-2.787a13.61,13.61,0,0,0,1.32-6.16C130.374,133.847,129.641,132.087,127.881,132.087Z" transform="translate(25.689 -122.406)" fill="#fff"/>
      <path id="XMLID_655_" d="M142.921,129.74a3.223,3.223,0,0,1,2.64,1.173,4.814,4.814,0,0,1,.733,3.08,32.449,32.449,0,0,1-.587,5.574,29.826,29.826,0,0,0-.587,5.134,4.743,4.743,0,0,0,.44,2.347,5.6,5.6,0,0,0,1.32,1.32h-1.173a6.656,6.656,0,0,1-3.814-.88,3.327,3.327,0,0,1-1.173-2.787,26.5,26.5,0,0,1,.587-4.547,27.158,27.158,0,0,0,.587-4.987c0-1.32-.44-2.053-1.32-2.053a2.548,2.548,0,0,0-1.613.88,10.826,10.826,0,0,0-1.76,2.347,15.947,15.947,0,0,0-1.467,3.814,16.135,16.135,0,0,0-.587,4.547,20.785,20.785,0,0,0,.147,3.374h-1.32a4.41,4.41,0,0,1-2.64-.587,2.383,2.383,0,0,1-.733-2.053,44.461,44.461,0,0,1,.587-4.84,43.217,43.217,0,0,0,.587-6.747,14.851,14.851,0,0,0-.587-4.547,5.884,5.884,0,0,1,3.227,2.053,5.423,5.423,0,0,1,.88,3.08,20.394,20.394,0,0,1-.44,3.96,16.977,16.977,0,0,1,3.227-6.014C140.427,130.62,141.747,129.74,142.921,129.74Z" transform="translate(31.476 -122.406)" fill="#fff"/>
    </g>
  </g>
</svg>
