<svg xmlns="http://www.w3.org/2000/svg" width="770.738" height="770.738" viewBox="0 0 770.738 770.738">
  <g id="Group_4794" data-name="Group 4794" transform="translate(-87.434 -554.236)">
    <path id="Path_145" data-name="Path 145" d="M175.173,675.774c-17.864,11.706-22.2,35.745-7.409,50.532v.013l41.271,41.271c11.728,10.446,17.254,33.256,17.254,33.256v0L295.3,731.836c60.221-60.217,62.438-119.552,52.148-148.04-.735-2.008-6.648-15.74-8.812-15.521-.614.071-1.078.882-1.064,2.68a12.177,12.177,0,0,0,.236,2.56c8.611,39.454-14.787,91.176-44.37,124.45h.009L230,761.406c-2.458-8.625-11.087-18.487-11.087-18.487v0l-36.351-36.351c-9.854-9.858-11.706-17.841-7.387-30.8" transform="translate(246.508 138.757)" fill="#e9ecf0"/>
    <path id="Path_146" data-name="Path 146" d="M175.157,659.021c-17.828-11.719-22.187-35.759-7.4-50.546l41.275-41.266c11.737-10.446,17.258-33.252,17.258-33.252L295.3,602.968c60.2,60.2,62.438,119.543,52.14,148.039-.73,2-6.652,15.731-8.789,15.49-.65-.053-1.1-.881-1.086-2.658a13.049,13.049,0,0,1,.249-2.547c8.594-39.463-14.791-91.189-44.383-124.458l-63.445-63.445c-2.453,8.625-11.074,18.5-11.074,18.5h0l-36.333,36.333c-9.858,9.858-11.733,17.842-7.418,30.8Z" transform="translate(246.51 20.28)" fill="#e9ecf0"/>
    <path id="Path_147" data-name="Path 147" d="M322.7,659.035c17.859-11.71,22.192-35.754,7.409-50.537v-.009l-41.28-41.271c-11.719-10.45-17.254-33.261-17.254-33.261l-69,69.011c-60.221,60.217-62.447,119.556-52.144,148.039.726,2.013,6.643,15.744,8.807,15.526.615-.067,1.069-.886,1.06-2.685a12.188,12.188,0,0,0-.24-2.556c-8.6-39.454,14.791-91.175,44.37-124.449L267.874,573.4c2.453,8.629,11.087,18.492,11.087,18.492v-.009L315.3,628.227c9.863,9.867,11.71,17.85,7.391,30.807Z" transform="translate(201.222 20.28)" fill="#e9ecf0"/>
    <path id="Path_148" data-name="Path 148" d="M322.7,675.76c17.824,11.719,22.187,35.754,7.4,50.541v0l-41.271,41.28c-11.737,10.441-17.263,33.248-17.263,33.248l-69.006-69.011c-60.2-60.2-62.434-119.547-52.14-148.039.735-2,6.652-15.731,8.785-15.491.65.058,1.1.882,1.1,2.654a13.275,13.275,0,0,1-.263,2.551c-8.589,39.463,14.8,91.189,44.383,124.459l63.454,63.44c2.458-8.62,11.069-18.5,11.069-18.5l36.329-36.324c9.863-9.871,11.737-17.851,7.423-30.807" transform="translate(201.227 138.784)" fill="#e9ecf0"/>
    <path id="Path_149" data-name="Path 149" d="M299.056,621.7c-11.706-17.868-35.745-22.2-50.532-7.409h-.009l-41.275,41.271c-10.441,11.724-33.252,17.254-33.252,17.254h0L243,741.824c60.212,60.221,119.547,62.439,148.035,52.149,2.013-.735,15.74-6.652,15.526-8.816-.076-.61-.886-1.073-2.68-1.064a12.5,12.5,0,0,0-2.56.24c-39.454,8.607-91.18-14.787-124.45-44.37v0l-63.44-63.449c8.62-2.458,18.487-11.082,18.487-11.082h-.009l36.351-36.351c9.862-9.858,17.841-11.71,30.8-7.387" transform="translate(298.818 266.79)" fill="#e9ecf0"/>
    <path id="Path_150" data-name="Path 150" d="M315.782,621.677c11.724-17.824,35.759-22.183,50.546-7.4L407.6,655.552c10.446,11.742,33.252,17.258,33.252,17.258L371.84,741.821c-60.2,60.2-119.543,62.439-148.039,52.14-2-.735-15.735-6.657-15.491-8.794.049-.646.882-1.091,2.654-1.087a13.082,13.082,0,0,1,2.547.254c39.468,8.594,91.193-14.8,124.463-44.383l63.44-63.445c-8.625-2.458-18.5-11.078-18.5-11.078v0L346.585,629.1c-9.862-9.863-17.846-11.737-30.8-7.423Z" transform="translate(417.321 266.793)" fill="#e9ecf0"/>
    <path id="Path_151" data-name="Path 151" d="M315.8,769.218c11.706,17.864,35.75,22.192,50.537,7.409h.009l41.271-41.276c10.45-11.724,33.261-17.254,33.261-17.254l-69.011-69.006c-60.217-60.216-119.556-62.443-148.044-52.14-2.008.726-15.74,6.639-15.522,8.8.062.619.882,1.073,2.685,1.059a11.814,11.814,0,0,0,2.551-.236c39.454-8.6,91.18,14.791,124.45,44.37L401.432,714.4c-8.625,2.449-18.492,11.083-18.492,11.083h.009l-36.342,36.347c-9.867,9.863-17.85,11.706-30.812,7.387Z" transform="translate(417.294 221.505)" fill="#e9ecf0"/>
    <path id="Path_152" data-name="Path 152" d="M299.047,769.228c-11.719,17.819-35.759,22.187-50.546,7.4h.009l-41.28-41.267c-10.441-11.742-33.247-17.262-33.247-17.262l69.006-69.006c60.2-60.2,119.552-62.439,148.039-52.14,2,.735,15.735,6.652,15.491,8.785-.053.646-.882,1.1-2.654,1.1a13.174,13.174,0,0,1-2.547-.258c-39.468-8.593-91.189,14.792-124.463,44.383L213.415,714.4c8.625,2.462,18.5,11.073,18.5,11.073L268.24,761.8c9.867,9.867,17.85,11.741,30.807,7.427" transform="translate(298.818 221.509)" fill="#e9ecf0"/>
    <path id="Path_153" data-name="Path 153" d="M322.7,745.583c17.864-11.706,22.2-35.745,7.409-50.532v-.013l-41.271-41.271c-11.728-10.441-17.254-33.256-17.254-33.256v0l-69.015,69.019c-60.217,60.212-62.434,119.547-52.144,148.035.73,2.008,6.648,15.74,8.816,15.521.61-.071,1.073-.886,1.06-2.68a12.484,12.484,0,0,0-.236-2.56c-8.611-39.454,14.787-91.175,44.37-124.445h-.009l63.449-63.445c2.458,8.625,11.087,18.487,11.087,18.487v0l36.351,36.351c9.854,9.858,11.706,17.842,7.387,30.8" transform="translate(201.224 319.097)" fill="#e9ecf0"/>
    <path id="Path_154" data-name="Path 154" d="M322.705,762.309c17.828,11.719,22.187,35.759,7.4,50.546L288.83,854.121c-11.737,10.446-17.258,33.252-17.258,33.252l-69.011-69.006c-60.2-60.2-62.434-119.547-52.135-148.04.73-2,6.652-15.735,8.789-15.495.65.053,1.1.882,1.086,2.658a12.784,12.784,0,0,1-.254,2.547c-8.589,39.463,14.8,91.189,44.388,124.459l63.445,63.445c2.453-8.625,11.074-18.5,11.074-18.5h0l36.333-36.333c9.858-9.858,11.733-17.842,7.418-30.8Z" transform="translate(201.229 437.602)" fill="#e9ecf0"/>
    <path id="Path_155" data-name="Path 155" d="M175.171,762.327c-17.864,11.706-22.192,35.75-7.409,50.537v0l41.28,41.275C220.761,864.594,226.3,887.4,226.3,887.4l69-69.006c60.221-60.221,62.447-119.556,52.144-148.048-.726-2.008-6.639-15.74-8.807-15.521-.614.066-1.069.886-1.06,2.685a12.445,12.445,0,0,0,.236,2.556c8.6,39.454-14.787,91.18-44.366,124.45L230,847.959c-2.453-8.629-11.087-18.492-11.087-18.492v.009L182.567,793.13c-9.867-9.867-11.71-17.85-7.391-30.807Z" transform="translate(246.509 437.574)" fill="#e9ecf0"/>
    <path id="Path_156" data-name="Path 156" d="M175.158,745.57c-17.824-11.715-22.192-35.754-7.4-50.541v0l41.271-41.28c11.737-10.441,17.263-33.247,17.263-33.247L295.3,689.517c60.2,60.2,62.434,119.547,52.14,148.039-.735,2-6.652,15.731-8.785,15.491-.65-.058-1.1-.882-1.1-2.654a13.284,13.284,0,0,1,.263-2.551c8.589-39.463-14.8-91.184-44.388-124.458l-63.449-63.441c-2.458,8.625-11.069,18.5-11.069,18.5l-36.329,36.324c-9.863,9.872-11.737,17.855-7.422,30.808" transform="translate(246.513 319.097)" fill="#e9ecf0"/>
    <path id="Path_157" data-name="Path 157" d="M229.254,769.218c11.706,17.868,35.745,22.2,50.532,7.409h.009l41.275-41.267c10.441-11.728,33.256-17.258,33.256-17.258h0l-69.015-69.011c-60.212-60.217-119.547-62.439-148.035-52.144-2.008.73-15.744,6.648-15.526,8.812.076.615.886,1.073,2.68,1.064a12.8,12.8,0,0,0,2.56-.236c39.454-8.616,91.18,14.787,124.45,44.365v-.009l63.44,63.453c-8.625,2.458-18.487,11.083-18.487,11.083h.009l-36.351,36.351c-9.862,9.858-17.842,11.71-30.8,7.387" transform="translate(118.473 221.506)" fill="#e9ecf0"/>
    <path id="Path_158" data-name="Path 158" d="M212.494,769.233c-11.715,17.824-35.754,22.183-50.541,7.4l-41.271-41.271c-10.446-11.742-33.247-17.262-33.247-17.262l69.006-69.006c60.2-60.2,119.543-62.439,148.039-52.14,2,.735,15.735,6.657,15.5,8.789-.058.651-.886,1.1-2.658,1.091a13.049,13.049,0,0,1-2.547-.254c-39.468-8.593-91.189,14.8-124.463,44.383L126.866,714.4c8.62,2.458,18.5,11.078,18.5,11.078v0L181.7,761.806c9.863,9.863,17.846,11.737,30.8,7.422Z" transform="translate(0 221.509)" fill="#e9ecf0"/>
    <path id="Path_159" data-name="Path 159" d="M212.507,621.7c-11.706-17.864-35.754-22.192-50.537-7.409h-.009L120.69,655.562c-10.45,11.724-33.256,17.254-33.256,17.254l69.006,69.006C216.657,802.038,276,804.265,304.484,793.966c2.008-.726,15.74-6.643,15.522-8.807-.062-.619-.882-1.073-2.681-1.06a12.129,12.129,0,0,0-2.556.236c-39.454,8.6-91.18-14.791-124.45-44.37l-63.449-63.449c8.629-2.449,18.5-11.087,18.5-11.087h-.009L181.7,629.086c9.867-9.862,17.855-11.706,30.812-7.387Z" transform="translate(0 266.792)" fill="#e9ecf0"/>
    <path id="Path_160" data-name="Path 160" d="M229.232,621.678c11.719-17.819,35.759-22.187,50.546-7.4h-.009l41.28,41.266c10.441,11.742,33.247,17.263,33.247,17.263L285.29,741.818c-60.2,60.208-119.552,62.439-148.039,52.144-2-.739-15.735-6.652-15.491-8.789.053-.646.877-1.1,2.654-1.1a13.183,13.183,0,0,1,2.547.258c39.468,8.594,91.189-14.8,124.459-44.383L314.865,676.5c-8.625-2.462-18.5-11.069-18.5-11.069L260.04,629.105c-9.867-9.867-17.85-11.741-30.807-7.427" transform="translate(118.504 266.796)" fill="#e9ecf0"/>
  </g>
</svg>
