<?xml version="1.0" encoding="utf-8"?>
<!-- Generator: Adobe Illustrator 26.3.1, SVG Export Plug-In . SVG Version: 6.00 Build 0)  -->
<svg version="1.1" id="Layer_1" xmlns="http://www.w3.org/2000/svg" xmlns:xlink="http://www.w3.org/1999/xlink" x="0px" y="0px"
	 width="1728px" height="64px" viewBox="0 0 1728 64" style="enable-background:new 0 0 1728 64;" xml:space="preserve">
<style type="text/css">
	.st0{fill:none;}
	.st1{fill:#D9BDB1;}
	.st2{fill:#050505;}
	.st3{fill:#B9AA79;}
	.st4{fill:#FFFFFF;}
	.st5{fill:none;stroke:#0D0C09;stroke-width:2;stroke-linecap:round;}
	.st6{fill:#0D0C09;}
	.st7{fill:#D9BDB1;stroke:#000000;stroke-width:1.6;stroke-miterlimit:10;}
	.st8{fill:none;stroke:#000000;stroke-width:2;stroke-miterlimit:10;}
	.st9{fill:#F8F8F7;}
	.st10{fill:none;stroke:#D9BDB1;stroke-width:3;}
	.st11{fill:none;stroke:#D9BDB1;stroke-width:2;}
	.st12{fill:none;stroke:#000000;stroke-width:3;}
	.st13{fill:none;stroke:#D9BDB1;stroke-width:3;stroke-linecap:round;}
	.st14{fill:none;stroke:#000000;}
	.st15{fill:none;stroke:#000000;stroke-miterlimit:10;}
	.st16{fill:#FFFFFF;fill-opacity:0;}
	.st17{fill:#040505;stroke:#FFFFFF;stroke-width:1.2;}
	.st18{fill:none;stroke:#000000;stroke-width:5;stroke-linecap:round;}
	.st19{fill:none;stroke:#D9BDB1;stroke-width:5;stroke-linecap:round;}
	.st20{fill:none;stroke:#FFFFFF;stroke-width:2;}
	.st21{fill:none;stroke:#FFFFFF;stroke-width:2;stroke-linecap:round;}
	.st22{fill:#D9BDB1;stroke:#000000;stroke-width:2;stroke-miterlimit:10;}
	.st23{fill:#1C1A1A;}
	.st24{fill:#050605;}
	.st25{fill:#D9BDB1;stroke:#707070;}
	.st26{fill:#040505;stroke:#000000;stroke-width:1.2;}
	.st27{fill:#D9BDB1;stroke:#000000;stroke-width:2;}
	.st28{fill:none;stroke:#000000;stroke-width:2;}
	.st29{clip-path:url(#SVGID_00000162333392618000587170000009270493443644157838_);}
	.st30{fill-rule:evenodd;clip-rule:evenodd;fill:#36221C;}
	.st31{clip-path:url(#SVGID_00000172437536302714091580000017151723669837022357_);}
	.st32{fill-rule:evenodd;clip-rule:evenodd;fill:url(#SVGID_00000018919049293736718870000002023137644248103824_);}
	.st33{fill-rule:evenodd;clip-rule:evenodd;fill:url(#SVGID_00000052090093937827402760000016693112358279720838_);}
	.st34{fill-rule:evenodd;clip-rule:evenodd;fill:url(#SVGID_00000129899532162091994930000016253042679048504976_);}
	.st35{fill-rule:evenodd;clip-rule:evenodd;fill:url(#SVGID_00000116949867757040542460000001109106467685540766_);}
	
		.st36{opacity:0.5;fill-rule:evenodd;clip-rule:evenodd;fill:url(#SVGID_00000182489790018980104070000000649470320745432711_);enable-background:new    ;}
	.st37{fill-rule:evenodd;clip-rule:evenodd;fill:url(#SVGID_00000009577669847781126470000014749007180881122182_);}
	.st38{fill-rule:evenodd;clip-rule:evenodd;fill:url(#SVGID_00000174602129165245038610000004062299116215643067_);}
	.st39{fill-rule:evenodd;clip-rule:evenodd;fill:url(#SVGID_00000172419717508982131090000016447682588672312231_);}
</style>
<path id="Path_479" class="st0" d="M128,0h64v64h-64V0z"/>
<path id="Path_391" class="st0" d="M64,0h64v64H64V0z"/>
<g id="Group_2185" transform="translate(31 199)">
	<path id="Path_436" class="st1" d="M46.4-191.9h38l8.3,20.7H37.3L46.4-191.9z"/>
	<g id="Group_753">
		<path id="Path_405" d="M95.7-174.4v-0.1L89-191.3c-1.2-2.8-3.9-4.7-7-4.7H48.6l0,0c-3,0-5.7,1.7-6.9,4.5l-7.2,17v0.1
			c-0.1,0.3-1.1,3.3,0.5,5.6c1.2,1.5,3,2.3,5,2.2c2.6-0.1,5.2-1,7.4-2.5c0.7-0.6,1.6-1,2.5-1.2c0.4,0,0.6,0.1,1.4,0.9
			c1.4,1.5,3.4,2.4,5.5,2.4c2.2-0.1,4.3-0.8,6.1-2c0.7-0.5,1.4-0.8,2.2-1c0.9,0.2,1.7,0.6,2.5,1.1c1.7,1.2,3.7,2,5.8,2.1l0,0
			c2.1-0.1,4-1,5.5-2.4c0.9-0.8,1.4-1.1,1.8-1.1c0.5,0.1,0.9,0.2,1.3,0.5c0,0.1,0,0.1,0,0.2v25.4c0,0.6-0.2,1.2-0.7,1.6
			c-0.4,0.4-1,0.7-1.7,0.7l0,0H51c-1.3,0-2.3-1-2.3-2.3l0,0c0-1.4-1.2-2.5-2.6-2.5c-1.4,0-2.5,1.1-2.6,2.5c0.1,4.1,3.4,7.3,7.5,7.2
			h28.4l0,0c2,0,3.9-0.8,5.3-2.1s2.2-3.2,2.2-5.1v-22.9c1,0.3,2,0.5,3,0.5c1.9,0.1,3.8-0.7,5-2.2C96-170.5,96.3-172.5,95.7-174.4z
			 M90.9-171.8c-0.3,0.1-0.6,0.2-0.9,0.1c-1.5,0-2.7-0.8-4.1-1.7c-1.5-1.2-3.3-1.9-5.2-2h-0.1c-1.9,0.1-3.8,0.9-5.1,2.3
			c-1,0.9-1.5,1.2-2.1,1.2l0,0c-1.1-0.2-2.2-0.6-3.1-1.3c-1.5-1.1-3.3-1.8-5.2-1.9c-1.8,0.1-3.5,0.7-4.9,1.7c-1,0.7-2.1,1.2-3.4,1.3
			c-0.8,0-1.1-0.2-2-1c-1.3-1.4-3.1-2.2-4.9-2.2c-1.9,0.1-3.8,0.8-5.3,1.9c-1.3,1-2.9,1.6-4.6,1.7c-0.3,0-0.5,0-0.8-0.1
			c0-0.3,0-0.7,0.1-1l7.2-16.9c0.4-0.9,1.2-1.4,2.2-1.4l0,0h33.5c1,0,1.8,0.6,2.2,1.5l6.6,16.7C90.9-172.5,90.9-172.1,90.9-171.8z"
			/>
	</g>
	<path id="Path_435" class="st1" d="M48.8-152.2c-1,1-1,2.5,0,3.5l0,0c0.5,0.5,1.1,0.7,1.8,0.7s1.3-0.3,1.8-0.7l6.8-6.8
		c0.5-0.5,0.7-1.1,0.7-1.8s-0.3-1.3-0.7-1.8l-6.8-6.8c-1-1-2.5-1-3.5,0l0,0c-1,1-1,2.5,0,3.5l0,0l2.6,2.5H39.2
		c-1.4,0-2.5,1.1-2.5,2.5l0,0c0,1.4,1.1,2.5,2.5,2.5l0,0h12.2L48.8-152.2z"/>
</g>
<rect id="Rectangle_217" x="192" class="st0" width="64" height="64"/>
<g id="Group_2976" transform="translate(-16.027 -180.873)">
	<path id="Path_441" class="st1" d="M261.1,189.4l7.2,16.8c0,0,1.6,4.4-3.1,4.4s-6.8-3.6-9.9-3.6s-3.3,3.2-6.9,3.2s-5.5-3-8.3-3
		s-5.1,3.2-8.3,3.2s-4.3-3.5-7.3-3.5s-5.2,3.6-9.4,3.6c-4.8,0-3.3-4.4-3.3-4.4l6.6-16.6c0.8-1.9,2.6-3.1,4.6-3h33.6
		C258.5,186.4,260.3,187.6,261.1,189.4z"/>
	<path id="Path_442" d="M270.6,205.3v-0.1l-7.2-16.8l0,0c-1.2-2.7-3.9-4.4-6.8-4.4H223h-0.1c-3,0-5.7,1.8-6.8,4.6l-6.6,16.6v0.1
		c-0.6,1.8-0.4,3.8,0.6,5.4c1.2,1.5,3.1,2.4,5,2.2c0.9,0,1.8-0.1,2.7-0.4V235v0.1c0.2,3.9,3.4,7,7.3,7.1h0.2h29.1c4,0.1,7.4-3,7.5-7
		c0-1.4-1.1-2.5-2.4-2.5s-2.4,1-2.5,2.3c0,1.3-1.2,2.4-2.5,2.3h-0.1h-29.2h-0.1c-1.3,0-2.4-1-2.5-2.3v-25c0.5-0.4,1.2-0.6,1.8-0.7
		c0.5,0,1,0.3,1.9,1.1c1.4,1.4,3.4,2.3,5.4,2.4l0,0c2.1-0.1,4.1-0.8,5.7-2c0.8-0.6,1.6-1,2.6-1.2c0.9,0.1,1.7,0.5,2.3,1
		c1.8,1.2,3.8,1.9,6,2c2.1,0,4-0.9,5.4-2.3c0.8-0.7,1-0.9,1.5-0.9c1,0.2,1.9,0.6,2.6,1.2c2.1,1.5,4.7,2.4,7.3,2.4
		c2.8,0,4.2-1.2,4.9-2.2C271.7,208.5,270.7,205.6,270.6,205.3z M266.1,207.9c-0.3,0.1-0.6,0.1-0.9,0.1c-1.7-0.1-3.4-0.7-4.7-1.7
		c-1.5-1.1-3.3-1.8-5.2-1.9c-1.8,0-3.6,0.8-4.8,2.2c-0.8,0.7-1.2,1.1-2.1,1.1c-1.3-0.1-2.5-0.6-3.5-1.3c-1.4-1-3.1-1.6-4.8-1.7
		c-1.8,0.1-3.6,0.8-5.1,1.9c-0.9,0.7-2,1.2-3.2,1.3l0,0c-0.8,0-1.3-0.4-2.3-1.2c-1.3-1.3-3.1-2.1-5-2.2h-0.1c-1.9,0.1-3.7,0.8-5.1,2
		c-1.2,1-2.7,1.5-4.2,1.7c-0.4,0-0.7,0-1-0.2c-0.1-0.3-0.1-0.7,0-1l6.6-16.5c0.4-0.9,1.3-1.6,2.4-1.5h33.7c1,0,1.9,0.5,2.3,1.5
		L266,207C266.1,207.3,266.2,207.6,266.1,207.9z"/>
	<path id="Path_443" class="st1" d="M268.5,220.5l-6.7-6.7c-1-0.9-2.5-0.9-3.5,0.1c-0.9,0.9-0.9,2.4,0,3.4l2.5,2.5H248
		c-1.4,0-2.5,1.1-2.5,2.5s1.1,2.5,2.5,2.5l0,0h12.8l-2.5,2.5c-1,0.9-1,2.5-0.1,3.5s2.5,1,3.5,0.1l0.1-0.1l6.7-6.7
		C269.4,223,269.4,221.5,268.5,220.5z"/>
</g>
<rect id="Rectangle_216" x="128" class="st0" width="64" height="64"/>
<g id="Group_2974" transform="translate(-249.022 -190.074)">
	<path id="Path_439" class="st1" d="M392.5,195.4h33.6c2,0,3.8,1.2,4.6,3l6.6,16.6c0,0,1.5,4.4-3.3,4.4c-4.2,0-6.4-3.6-9.4-3.6
		s-4.1,3.4-7.3,3.5s-5.5-3.2-8.3-3.2s-4.7,3-8.3,3s-3.8-3.2-6.9-3.2s-5.2,3.6-9.9,3.6s-3.1-4.4-3.1-4.4l7.2-16.8
		C388.8,196.6,390.6,195.4,392.5,195.4z"/>
	<path id="Path_440" d="M439.7,214.3v-0.1l-6.6-16.7c-1.1-2.8-3.9-4.6-6.9-4.5h-33.6h-0.1c-2.9,0-5.6,1.7-6.7,4.4l-7.2,16.8v0.1
		c-0.1,0.3-1.1,3.2,0.5,5.5c0.7,1,2.1,2.2,4.9,2.2c1.1,0,2.3-0.2,3.4-0.5V244l0,0l0,0c0.2,4,3.5,7.1,7.5,7H424c0.1,0,0.1,0,0.2,0
		c3.9,0,7.2-3.1,7.3-7.1v-0.1v-22.4c0.9,0.3,1.8,0.4,2.7,0.4c1.9,0.2,3.8-0.7,5-2.2C440.1,218.1,440.3,216.1,439.7,214.3z
		 M426.5,243.9c-0.1,1.3-1.1,2.3-2.4,2.3c-0.1,0-0.1,0-0.2,0h-29.2h-0.1c-1.3,0-2.4-1-2.5-2.3v-25c0.5-0.3,1.1-0.5,1.6-0.6
		c0.5,0,0.7,0.2,1.5,0.9c1.4,1.5,3.4,2.3,5.4,2.3c2.1-0.1,4.2-0.8,6-2c0.7-0.5,1.5-0.9,2.3-1c0.9,0.2,1.8,0.6,2.6,1.2
		c1.7,1.2,3.7,1.9,5.7,2l0,0c2-0.1,3.9-0.9,5.4-2.4c1-0.8,1.4-1.1,1.9-1.1c0.7,0.1,1.3,0.4,1.8,0.7L426.5,243.9z M435.1,216.9
		c-0.3,0.2-0.7,0.2-1,0.2c-1.5-0.1-3-0.7-4.2-1.7c-1.5-1.1-3.3-1.8-5.1-2h-0.1c-1.9,0.1-3.7,0.9-5,2.2c-1,0.8-1.5,1.2-2.3,1.2l0,0
		c-1.2-0.2-2.3-0.6-3.2-1.3c-1.5-1.1-3.3-1.7-5.1-1.9c-1.7,0.1-3.4,0.7-4.8,1.7c-1,0.7-2.2,1.2-3.5,1.3c-0.9,0-1.3-0.3-2.1-1.1
		c-1.2-1.4-3-2.1-4.8-2.2c-1.9,0.1-3.7,0.8-5.2,1.9c-1.4,1-3,1.6-4.7,1.7c-0.3,0-0.6,0-0.9-0.1c0-0.3,0-0.6,0.1-0.9l7.2-16.7
		c0.4-0.9,1.3-1.5,2.3-1.5h0.1h33.7l0,0c1,0,1.9,0.6,2.3,1.5l6.6,16.5C435.1,216.2,435.2,216.5,435.1,216.9z"/>
	<g id="noun_Refresh_2072320" transform="translate(727.293 509.04)">
		<g id="Group_260">
			<path id="Path_62" class="st1" d="M-310.1-282.6L-310.1-282.6c0,0.1,0.1,0.2,0.1,0.2v4.5c0,0.2-0.1,0.3-0.3,0.3l0,0l-4.4-1
				c-0.1,0-0.2-0.1-0.2-0.1l0,0c-0.1-0.2-0.1-0.4,0.1-0.5l0.8-0.8c-2.1-2.4-5.8-2.6-8.2-0.4c-0.9,0.8-1.5,1.8-1.7,2.9
				c-0.2,0.7-0.9,1.2-1.6,1.2l0,0c-0.8,0-1.5-0.7-1.5-1.6l0,0c0-0.1,0-0.2,0-0.3c1.2-4.8,6-7.7,10.8-6.5c1.8,0.4,3.4,1.4,4.6,2.8
				l0.9-0.7C-310.5-282.8-310.3-282.8-310.1-282.6z"/>
			<path id="Path_63" class="st1" d="M-326.4-269.3L-326.4-269.3c-0.1-0.1-0.1-0.2-0.1-0.2v-4.5c0-0.2,0.1-0.3,0.3-0.3l0,0l0,0
				l4.4,1c0.1,0,0.2,0.1,0.2,0.1l0,0c0.1,0.2,0.1,0.4-0.1,0.5l-0.9,0.7c2.1,2.4,5.8,2.6,8.2,0.4c0.9-0.8,1.5-1.8,1.8-2.9
				c0.2-0.7,0.8-1.2,1.5-1.2l0,0c0.9,0,1.5,0.7,1.5,1.6c0,0.1,0,0.2,0,0.3c-1.1,4.8-6,7.7-10.7,6.6c-1.8-0.4-3.5-1.3-4.7-2.8
				l-0.9,0.7C-326.1-269.1-326.3-269.1-326.4-269.3z"/>
		</g>
	</g>
</g>
<rect id="Rectangle_150" x="256" class="st0" width="64" height="64"/>
<g id="Group_3676-2" transform="translate(3 3.001)">
	<g id="Group_264" transform="translate(27.065 27.065)">
		<path id="Path_64" class="st2" d="M259.4,4.2c0.6,3,2.1,5.9,4.1,8.2c1.2,1.5,2.9,2.6,4.8,3.1c0.2,0.1,0.6,0.3,0.7,0
			s-0.3-0.4-0.5-0.6c-0.9-0.6-1.7-1.4-2.4-2.3c-2.7-3.5-4.2-7.9-4.3-12.3c-0.1-3.4,0-6.8,0-10.2v-0.4c1.1,0.5,2.4,0.7,3.6,0.6
			c1.9,0,3.7,0,5.6,0c1.1,0,2.1,0.6,2.6,1.6l0.2,0.3c0-0.1,0.1-0.2,0.1-0.3c0.4-2.1-1-4.1-3.1-4.5c-0.3,0-0.5-0.1-0.8-0.1
			c-2.3,0.1-4.7,0-7,0c-1.5,0.1-3-0.4-4.2-1.3h-0.1c0,4.2,0,8.3,0,12.5C258.7,0.4,259,2.3,259.4,4.2z"/>
		<path id="Path_65" class="st2" d="M257.1-13.7c0-0.1,0-0.1,0-0.2c-0.3,0.1-0.5,0.3-0.7,0.4c-1.3,0.7-2.7,1.1-4.2,1
			c-2.1-0.1-4.1,0-6.2,0c-0.3,0-0.7,0-1,0.1c-2.1,0.4-3.4,2.5-2.9,4.6v0.1c0-0.1,0.1-0.1,0.1-0.2c0.6-1.3,1.9-2,3.3-1.9
			c1.9,0,3.8,0,5.6,0c0.5,0,1-0.1,1.5-0.1c0.5-0.1,1-0.3,1.5-0.4c0,3.3,0,6.6,0,9.9c0,3.1-0.6,6.2-1.9,9.1c-1,2.6-2.7,4.8-5,6.4
			c-0.1,0-0.2,0.1-0.2,0.1c-0.1,0.1-0.2,0.2-0.1,0.3c0.1,0.1,0.2,0.1,0.3,0.1c0.6-0.1,1.2-0.3,1.7-0.5c1.9-1,3.5-2.4,4.7-4.2
			c2.2-3.3,3.5-7.2,3.5-11.3C257.2-4.8,257.1-9.3,257.1-13.7z"/>
		<path id="Path_71" class="st2" d="M258,13.3c-1.2,0-2.2,0.9-2.2,2.1v0.1c0,1.2,0.9,2.2,2.2,2.2c1.2,0,2.1-1,2.2-2.2
			C260.1,14.3,259.2,13.3,258,13.3z"/>
	</g>
	<rect id="Rectangle_579-2" x="268" y="12" class="st0" width="34" height="34"/>
</g>
<rect id="Rectangle_786" x="320" y="0" class="st0" width="64" height="64"/>
<g id="Group_4264" transform="translate(2.465 10.904)">
	<path id="Path_683" class="st3" d="M346.6,29.3H333c-1,0.1-1.9-0.7-2-1.7l1.4-6.4v-0.1V21c0.1-1,1-1.8,2-1.7h10.7
		c1-0.1,1.9,0.7,2,1.7v0.1v0.1l1.4,6.4C348.5,28.6,347.6,29.3,346.6,29.3z"/>
	<g id="Group_3962">
		<path id="Path_684" class="st1" d="M355.7,16.7h-12.3c-0.9,0.1-1.7-0.6-1.8-1.5l1.3-5.7V9.4V9.3c0.1-0.9,0.9-1.6,1.8-1.6h9.7
			c0.9-0.1,1.7,0.6,1.8,1.6v0.1v0.1l1.3,5.7C357.4,16.1,356.6,16.7,355.7,16.7z"/>
		<path id="Path_685" class="st1" d="M345.7,28.8h-12.2c-0.9,0.1-1.7-0.6-1.8-1.5l1.3-5.7v-0.1v-0.1c0.1-0.9,0.9-1.6,1.8-1.6h9.7
			c0.9-0.1,1.7,0.6,1.8,1.6v0.1v0.1l1.3,5.7C347.4,28.2,346.6,28.8,345.7,28.8z"/>
		<path id="Path_686" class="st1" d="M365.6,28.8h-12.3c-0.9,0.1-1.7-0.6-1.8-1.5l1.3-5.7v-0.1v-0.1c0.1-0.9,0.9-1.6,1.8-1.6h9.7
			c0.9-0.1,1.7,0.6,1.8,1.6v0.1v0.1l1.3,5.7C367.3,28.2,366.5,28.8,365.6,28.8z"/>
		<path id="Path_687" class="st1" d="M355.7,40.9h-12.3c-0.9,0.1-1.7-0.6-1.8-1.5l1.3-5.7v-0.1v-0.1c0.1-0.9,0.9-1.6,1.8-1.6h9.7
			c0.9-0.1,1.7,0.6,1.8,1.6v0.1v0.1l1.3,5.7C357.4,40.3,356.6,40.9,355.7,40.9z"/>
		<path id="Path_688" class="st1" d="M335.8,40.9h-12.3c-0.9,0.1-1.7-0.6-1.8-1.5l1.3-5.8v-0.1v-0.1c0.1-0.9,0.9-1.6,1.8-1.6h9.7
			c0.9-0.1,1.7,0.6,1.8,1.6v0.1v0.1l1.3,5.7C337.5,40.3,336.7,40.9,335.8,40.9z"/>
		<path id="Path_689" class="st1" d="M375.5,40.9h-12.2c-0.9,0.1-1.7-0.6-1.8-1.5l1.3-5.7v-0.1v-0.1c0.1-0.9,0.9-1.6,1.8-1.6h9.7
			c0.9-0.1,1.7,0.6,1.8,1.6v0.1v0.1l1.3,5.7C377.3,40.3,376.5,40.9,375.5,40.9z"/>
		<path id="Path_690" d="M324.3,32.3c-0.6,0-1.2,0.4-1.2,0.9v0.2v0.2l-1.4,6.2c0.2,0.5,0.6,0.8,1.2,0.8h13.6c0.5,0,1-0.3,1.2-0.8
			l-1.4-6.2v-0.2v-0.2c0-0.5-0.5-0.9-1.2-0.9H324.3 M324.3,30.6H335c1.5-0.1,2.8,1.1,2.9,2.6l1.4,6.5c-0.1,1.5-1.4,2.7-2.9,2.6
			h-13.5c-1.5,0.1-2.8-1.1-2.9-2.6l1.4-6.5C321.5,31.7,322.8,30.5,324.3,30.6L324.3,30.6z"/>
		<path id="Path_691" class="st4" d="M342.9,26.1h-6.5c-0.5,0-0.9-0.3-1-0.6l0.7-2.3l0,0l0,0c0-0.3,0.4-0.6,1-0.6h5.2
			c0.5,0,1,0.3,1,0.6l0,0l0,0l0.7,2.3C343.8,25.8,343.4,26.1,342.9,26.1z"/>
		<path id="Path_692" class="st4" d="M352.8,14h-6.5c-0.5,0-0.9-0.3-1-0.6l0.7-2.3l0,0l0,0c0-0.3,0.4-0.6,1-0.6h5.2
			c0.5,0,1,0.3,1,0.6l0,0l0,0l0.7,2.3C353.8,13.8,353.3,14,352.8,14z"/>
		<path id="Path_693" class="st4" d="M363.1,26.1h-6.5c-0.5,0-0.9-0.3-1-0.6l0.7-2.3l0,0l0,0c0-0.3,0.4-0.6,1-0.6h5.2
			c0.5,0,1,0.3,1,0.6l0,0l0,0l0.7,2.3C364,25.8,363.6,26.1,363.1,26.1z"/>
		<path id="Path_694" class="st4" d="M373.1,38.2h-6.5c-0.5,0-0.9-0.3-1-0.6l0.7-2.3l0,0l0,0c0-0.3,0.4-0.6,1-0.6h5.2
			c0.5,0,1,0.3,1,0.6l0,0l0,0l0.7,2.3C374.1,37.9,373.6,38.2,373.1,38.2z"/>
		<path id="Path_695" class="st4" d="M353.1,38.2h-6.5c-0.5,0-0.9-0.3-1-0.6l0.7-2.3l0,0l0,0c0-0.3,0.4-0.6,1-0.6h5.2
			c0.5,0,1,0.3,1,0.6l0,0l0,0l0.7,2.3C354.1,37.9,353.6,38.2,353.1,38.2z"/>
		<path id="Path_696" class="st4" d="M332.9,38.2h-6.5c-0.5,0-0.9-0.3-1-0.6l0.7-2.3l0,0l0,0c0-0.3,0.4-0.6,1-0.6h5.2
			c0.5,0,1,0.3,1,0.6l0,0l0,0l0.7,2.3C333.9,37.9,333.5,38.2,332.9,38.2z"/>
		<path id="Path_697" d="M334.2,20.2c-0.6,0-1.2,0.4-1.2,0.9v0.2v0.2l-1.4,6.2c0.2,0.5,0.6,0.8,1.2,0.8h13.6c0.5,0,1-0.3,1.2-0.8
			l-1.4-6.2v-0.2v-0.2c0-0.5-0.5-0.9-1.2-0.9L334.2,20.2 M334.2,18.5H345c1.5-0.1,2.8,1.1,2.9,2.6l1.4,6.5c-0.1,1.5-1.4,2.7-2.9,2.6
			h-13.6c-1.5,0.1-2.8-1.1-2.9-2.6l1.4-6.5C331.5,19.6,332.7,18.4,334.2,18.5L334.2,18.5z"/>
		<path id="Path_698" d="M344.2,8.1c-0.7,0-1.2,0.4-1.2,0.9v0.2v0.2l-1.4,6.2c0.2,0.5,0.6,0.8,1.2,0.8h13.6c0.5,0,1-0.3,1.2-0.8
			l-1.4-6.2V9.2V9c0-0.5-0.5-0.9-1.2-0.9H344.2 M344.2,6.4h10.7c1.5-0.1,2.8,1.1,2.9,2.6l1.4,6.4c-0.1,1.5-1.4,2.7-2.9,2.6h-13.6
			c-1.5,0.1-2.8-1.1-2.9-2.6l1.5-6.4C341.4,7.5,342.7,6.3,344.2,6.4z"/>
		<path id="Path_699" d="M354.1,20.2c-0.6,0-1.2,0.4-1.2,0.9v0.2v0.2l-1.4,6.2c0.2,0.5,0.6,0.8,1.2,0.8h13.6c0.5,0,1-0.3,1.2-0.8
			l-1.4-6.2v-0.2v-0.2c0-0.5-0.5-0.9-1.2-0.9L354.1,20.2 M354.1,18.5h10.7c1.5-0.1,2.8,1.1,2.9,2.6l1.4,6.5
			c-0.1,1.5-1.4,2.7-2.9,2.6h-13.5c-1.5,0.1-2.8-1.1-2.9-2.6l1.4-6.5C351.3,19.6,352.6,18.4,354.1,18.5L354.1,18.5z"/>
		<path id="Path_700" d="M344.2,32.3c-0.6,0-1.2,0.4-1.2,0.9v0.2v0.2l-1.4,6.2c0.2,0.5,0.6,0.8,1.2,0.8h13.6c0.5,0,1-0.3,1.2-0.8
			l-1.4-6.2v-0.2v-0.2c0-0.5-0.5-0.9-1.2-0.9H344.2 M344.2,30.6h10.7c1.5-0.1,2.8,1.1,2.9,2.6l1.4,6.5c-0.1,1.5-1.4,2.7-2.9,2.6
			h-13.6c-1.5,0.1-2.8-1.1-2.9-2.6l1.4-6.5C341.4,31.7,342.7,30.5,344.2,30.6L344.2,30.6z"/>
		<path id="Path_701" d="M364,32.3c-0.6,0-1.2,0.4-1.2,0.9v0.2v0.2l-1.4,6.2c0.2,0.5,0.6,0.8,1.2,0.8h13.6c0.5,0,1-0.3,1.2-0.8
			l-1.4-6.3v-0.2v-0.2c0-0.5-0.5-0.9-1.2-0.9L364,32.3 M364,30.6h10.7c1.5-0.1,2.8,1.1,2.9,2.6l1.4,6.5c-0.1,1.5-1.4,2.7-2.9,2.6
			h-13.5c-1.5,0.1-2.8-1.1-2.9-2.6l1.4-6.5C361.3,31.7,362.5,30.5,364,30.6L364,30.6z"/>
		<line id="Line_5" class="st5" x1="340.2" y1="6.3" x2="337.1" y2="4.2"/>
		<line id="Line_75" class="st5" x1="368.5" y1="17" x2="369.8" y2="14.9"/>
		<line id="Line_6" class="st5" x1="342.3" y1="4.2" x2="342.3" y2="0"/>
		<line id="Line_76" class="st5" x1="369.8" y1="20.1" x2="372.6" y2="20.1"/>
		<line id="Line_7" class="st5" x1="339.2" y1="9.3" x2="334" y2="9.3"/>
		<line id="Line_77" class="st5" x1="364.8" y1="16.3" x2="364.8" y2="12.8"/>
	</g>
</g>
<rect id="Rectangle_791" x="384" y="0" class="st0" width="64" height="64"/>
<g id="Group_4265" transform="translate(17.617 10.904)">
	<g id="Path_629" transform="translate(0 0)">
		<path class="st1" d="M398.2,41.2c-0.2-0.1-1.1-0.7-2.9-3.2c-1.4-2-3.1-4.8-4.6-7.7c-3.5-6.8-5.7-12.9-5.7-16.1
			c0-3.5,1.4-6.8,3.9-9.3s5.8-3.9,9.3-3.9s6.8,1.4,9.3,3.9s3.9,5.8,3.9,9.3c0,3.2-2.2,9.3-5.7,16.1c-1.5,2.9-3.2,5.6-4.6,7.7
			C399.3,40.5,398.4,41,398.2,41.2z"/>
		<path class="st6" d="M398.2,2c-3.3,0-6.3,1.3-8.6,3.6c-2.3,2.3-3.6,5.3-3.6,8.6c0,2.9,2,8.7,5.3,15.1c1.4,2.8,3,5.5,4.4,7.5
			c1.2,1.8,2,2.6,2.4,3.1c0.4-0.4,1.2-1.3,2.4-3.1c1.4-2.1,3-4.7,4.4-7.5c3.3-6.4,5.3-12.2,5.3-15.1c0-3.3-1.3-6.3-3.6-8.6
			C404.3,3.3,401.5,2,398.2,2 M398.2,0c7.8,0,14.2,6.4,14.2,14.2s-11.4,28-14.2,28c-2.8,0-14.2-20.2-14.2-28S390.4,0,398.2,0z"/>
	</g>
	<g id="Path_703" transform="translate(7.479 6.058)">
		<path class="st4" d="M390.7,12.4c-3.1,0-5.7-2.5-5.7-5.7s2.6-5.7,5.7-5.7s5.7,2.6,5.7,5.7S393.9,12.4,390.7,12.4z"/>
		<path class="st6" d="M390.7,2c-2.6,0-4.7,2.1-4.7,4.7s2.1,4.7,4.7,4.7s4.7-2.1,4.7-4.7S393.3,2,390.7,2 M390.7,0
			c3.7,0,6.7,3,6.7,6.7s-3,6.7-6.7,6.7s-6.7-3-6.7-6.7S387,0,390.7,0z"/>
	</g>
</g>
<rect id="Rectangle_792" x="448" y="0" class="st0" width="64" height="64"/>
<g id="Group_4266" transform="translate(11.758 10.902)">
	<path id="Path_660" class="st7" d="M466.6,42.2c-0.9-0.1-1.7-0.1-2.6-0.2c-4.4-0.3-8.8-0.7-13.2-1.5c-1.6-0.2-2.8-1.6-2.8-3.2
		c0-0.6,0-1.3,0-1.9c0-1.1,0.5-2.1,1.4-2.6c3.9-2.3,7.8-4.5,11.7-6.7c0.3-0.2,0.4,0,0.6,0.2c1.4,1.6,3.4,2.7,5.6,3
		c2.3,0.3,4.6-0.4,6.4-1.9c0.4-0.3,0.7-0.6,1-1s0.5-0.3,0.9-0.1c3.8,2.2,7.7,4.3,11.5,6.5c0.9,0.5,1.5,1.6,1.5,2.7
		c0,0.6,0,1.3,0,1.9c0,1.6-1.1,3-2.7,3.2c-5,0.9-10.1,1.4-15.2,1.6c-0.2,0-0.4,0-0.6,0.1L466.6,42.2z"/>
	<path id="Path_661" class="st8" d="M458.6,10.7c0-1.9,0.3-3.7,1-5.5c1.2-2.8,3.8-4.8,6.8-5.1c1.9-0.3,3.8-0.1,5.6,0.5
		c2.9,0.9,5,3.3,5.5,6.3c1.4,5.7-0.1,11.7-3.8,16.1c-0.9,1.1-2.1,2-3.5,2.5c-2.1,0.7-4.5,0.2-6.1-1.4c-1.9-1.7-3.4-3.9-4.2-6.4
		C459,15.5,458.6,13.1,458.6,10.7z"/>
	<path id="Path_662" class="st1" d="M459.1,10.8c0-1.8,0.3-3.5,1-5.2c1.1-2.7,3.6-4.5,6.5-4.8c1.8-0.3,3.6-0.1,5.3,0.4
		c2.7,0.9,4.7,3.2,5.2,6c1.3,5.4-0.1,11.1-3.6,15.3c-0.9,1.1-2,1.9-3.3,2.3c-2,0.7-4.2,0.1-5.8-1.3c-1.8-1.6-3.2-3.7-4-6
		C459.5,15.3,459.1,13.1,459.1,10.8z"/>
	<path id="Path_702" class="st4" d="M462,11.4c0-1.2,0.2-2.4,0.7-3.6c0.8-1.8,2.5-3.1,4.4-3.3c1.2-0.2,2.4-0.1,3.6,0.3
		c1.9,0.6,3.2,2.2,3.6,4.1c0.9,3.7,0,7.6-2.5,10.5c-0.6,0.7-1.4,1.3-2.3,1.6c-1.4,0.5-2.9,0.1-4-0.9c-1.3-1.1-2.2-2.5-2.7-4.1
		C462.3,14.6,462,13,462,11.4z"/>
</g>
<rect id="Rectangle_793" x="512" y="0" class="st0" width="64" height="64"/>
<g id="Group_4267" transform="translate(17.728 10.902)">
	<path id="Path_645" d="M539.2,6l-24.1-6c-0.2,0-0.3,0-0.5,0c-1.4,0-2.6,1.2-2.6,2.6v39.6h29.3V8.5C541.3,7.3,540.4,6.2,539.2,6z
		 M539.2,40.1h-25.1V2.6c0-0.3,0.2-0.5,0.5-0.5c0,0,0,0,0.1,0l24,5.9h0.1c0.2,0,0.4,0.3,0.4,0.5V40.1z"/>
	<path id="Path_646" class="st1" d="M539.2,8.5v31.6h-25.1V2.6c0-0.3,0.2-0.5,0.5-0.5c0,0,0,0,0.1,0l24,5.9h0.1
		C539,8.1,539.2,8.3,539.2,8.5z"/>
	<path id="Rectangle_631" class="st4" d="M517.4,9.8h3.9c0.3,0,0.5,0.2,0.5,0.5v3.9c0,0.3-0.2,0.5-0.5,0.5h-3.9
		c-0.3,0-0.5-0.2-0.5-0.5v-3.9C516.9,10,517.1,9.8,517.4,9.8z"/>
	<path id="Rectangle_632" class="st4" d="M524.7,9.8h3.9c0.3,0,0.5,0.2,0.5,0.5v3.9c0,0.3-0.2,0.5-0.5,0.5h-3.9
		c-0.3,0-0.5-0.2-0.5-0.5v-3.9C524.2,10,524.4,9.8,524.7,9.8z"/>
	<path id="Rectangle_633" class="st4" d="M532,9.8h3.9c0.3,0,0.5,0.2,0.5,0.5v3.9c0,0.3-0.2,0.5-0.5,0.5H532c-0.3,0-0.5-0.2-0.5-0.5
		v-3.9C531.5,10,531.7,9.8,532,9.8z"/>
	<path id="Rectangle_631-2" class="st4" d="M517.4,17.1h3.9c0.3,0,0.5,0.2,0.5,0.5v3.9c0,0.3-0.2,0.5-0.5,0.5h-3.9
		c-0.3,0-0.5-0.2-0.5-0.5v-3.9C516.9,17.3,517.1,17.1,517.4,17.1z"/>
	<path id="Rectangle_632-2" class="st4" d="M524.7,17.1h3.9c0.3,0,0.5,0.2,0.5,0.5v3.9c0,0.3-0.2,0.5-0.5,0.5h-3.9
		c-0.3,0-0.5-0.2-0.5-0.5v-3.9C524.2,17.3,524.4,17.1,524.7,17.1z"/>
	<path id="Rectangle_633-2" class="st4" d="M532,17.1h3.9c0.3,0,0.5,0.2,0.5,0.5v3.9c0,0.3-0.2,0.5-0.5,0.5H532
		c-0.3,0-0.5-0.2-0.5-0.5v-3.9C531.5,17.3,531.7,17.1,532,17.1z"/>
	<path id="Rectangle_631-3" class="st4" d="M517.4,24.4h3.9c0.3,0,0.5,0.2,0.5,0.5v3.9c0,0.3-0.2,0.5-0.5,0.5h-3.9
		c-0.3,0-0.5-0.2-0.5-0.5v-3.9C516.9,24.6,517.1,24.4,517.4,24.4z"/>
	<path id="Rectangle_632-3" class="st4" d="M524.7,24.4h3.9c0.3,0,0.5,0.2,0.5,0.5v3.9c0,0.3-0.2,0.5-0.5,0.5h-3.9
		c-0.3,0-0.5-0.2-0.5-0.5v-3.9C524.2,24.6,524.4,24.4,524.7,24.4z"/>
	<path id="Rectangle_633-3" class="st4" d="M532,24.4h3.9c0.3,0,0.5,0.2,0.5,0.5v3.9c0,0.3-0.2,0.5-0.5,0.5H532
		c-0.3,0-0.5-0.2-0.5-0.5v-3.9C531.5,24.6,531.7,24.4,532,24.4z"/>
	<path id="Rectangle_634" class="st4" d="M522.2,31.7h2.8c0.2,0,0.4,0.2,0.4,0.4v5.7c0,0.2-0.2,0.4-0.4,0.4h-2.8
		c-0.2,0-0.4-0.2-0.4-0.4v-5.7C521.8,31.9,522,31.7,522.2,31.7z"/>
	<path id="Rectangle_635" class="st4" d="M527.1,31.7h2.8c0.2,0,0.4,0.2,0.4,0.4v5.7c0,0.2-0.2,0.4-0.4,0.4h-2.8
		c-0.2,0-0.4-0.2-0.4-0.4v-5.7C526.7,31.9,526.8,31.7,527.1,31.7z"/>
</g>
<rect id="Rectangle_794" x="576" y="0" class="st0" width="64" height="64"/>
<g id="Group_4268" transform="translate(10.069 10.902)">
	<path id="Path_712" class="st3" d="M616.5,18.2c-0.7-0.7-1.3-1.6-1.7-2.5c-0.2-1-0.3-2.1-0.1-3.2c0.1-1.3,0.2-2.5-0.4-3.2
		c-0.6-0.7-1.7-1.1-3-1.4c-1-0.2-2-0.5-2.9-1.1c-0.8-0.7-1.4-1.5-1.9-2.4c-0.7-1.1-1.3-2.2-2.2-2.5s-2,0.2-3.1,0.7
		c-1,0.5-2,0.8-3.1,0.8C597,3.3,596,3,595,2.6c-0.8-0.4-1.7-0.6-2.6-0.7c-0.2,0-0.4,0-0.6,0.1c-0.9,0.3-1.6,1.3-2.2,2.5l0,0l0.6,0.4
		c0.6-1,1.2-1.9,1.8-2.1c0.1,0,0.2-0.1,0.4,0c0.8,0.1,1.6,0.3,2.3,0.7c1,0.2,2.1,0.5,3.3,0.6c1.2-0.1,2.3-0.4,3.4-0.9
		c0.7-0.4,1.5-0.6,2.3-0.7c0.1,0,0.2,0,0.4,0.1c0.7,0.2,1.2,1.1,1.8,2.1c0.5,1,1.3,1.9,2.1,2.6c1,0.6,2.1,1,3.2,1.2
		c0.9,0.1,1.8,0.5,2.6,1.1c0.3,0.9,0.4,1.8,0.2,2.7c-0.2,1.1-0.1,2.3,0.2,3.4c0.4,1,1,2,1.8,2.8c0.8,0.9,1.5,1.7,1.5,2.4
		s-0.7,1.6-1.5,2.4s-1.4,1.8-1.8,2.8c-0.3,1.1-0.3,2.3-0.2,3.4l0,0c0.2,0.9,0.1,1.9-0.2,2.7c-0.7,0.6-1.6,1-2.6,1.1
		c-1.1,0.2-2.2,0.6-3.2,1.2c-0.9,0.7-1.6,1.6-2.1,2.6c-0.6,1-1.2,1.9-1.8,2.1c-0.1,0-0.2,0.1-0.4,0c-0.8-0.1-1.6-0.3-2.3-0.7
		c-1.1-0.5-2.2-0.8-3.4-0.9c-1.2,0.1-2.3,0.4-3.4,0.9c-0.7,0.4-1.5,0.6-2.3,0.7c-0.1,0-0.2,0-0.4-0.1c-0.7-0.2-1.2-1.1-1.8-2.1
		l-0.6,0.4c0.7,1.1,1.3,2.1,2.2,2.4c0.9,0.3,2-0.2,3.1-0.7c1-0.5,2-0.8,3.1-0.8c1.1,0.1,2.1,0.4,3.1,0.8c1.2,0.5,2.3,0.9,3.1,0.7
		c0.9-0.3,1.6-1.3,2.2-2.5c0.5-0.9,1.1-1.7,1.9-2.4c0.9-0.5,1.9-0.9,2.9-1.1c1.3-0.3,2.4-0.6,3-1.4c0.6-0.8,0.5-2,0.4-3.2
		c-0.2-1.1-0.1-2.1,0.1-3.2c0.4-0.9,1-1.8,1.7-2.5c0.9-1,1.7-1.9,1.7-2.9S617.4,19.2,616.5,18.2z M588,34.8c-1-0.6-2.1-1-3.2-1.2
		c-0.9-0.1-1.8-0.5-2.6-1.1c-0.3-0.9-0.4-1.8-0.2-2.7c0.2-1.1,0.1-2.3-0.2-3.4c-0.4-1-1-2-1.8-2.8c-0.8-0.9-1.5-1.7-1.5-2.4
		s0.7-1.6,1.5-2.5c0.8-0.8,1.4-1.8,1.8-2.8c0.3-1.1,0.3-2.3,0.2-3.4c-0.2-0.9-0.1-1.9,0.2-2.7c0.7-0.6,1.6-1,2.6-1.1
		c1.1-0.3,2.2-0.7,3.2-1.3c0.9-0.7,1.6-1.6,2.1-2.6l-0.6-0.4c-0.5,0.9-1.1,1.7-1.9,2.4c-0.9,0.6-1.9,0.9-2.9,1.1
		c-1.3,0.3-2.4,0.6-3,1.4c-0.6,0.8-0.5,2-0.4,3.2c0.2,1.1,0.1,2.1-0.1,3.2c-0.4,0.9-1,1.8-1.7,2.5c-0.9,1-1.7,1.9-1.7,2.9
		s0.8,1.9,1.6,2.9c0.7,0.7,1.3,1.6,1.7,2.5c0.2,1,0.3,2.1,0.1,3.2c0,1.3-0.1,2.5,0.4,3.3c0.6,0.8,1.7,1.1,3,1.4c1,0.2,2,0.6,2.9,1.1
		c0.8,0.7,1.4,1.5,1.9,2.4l0,0l0.6-0.4C589.6,36.5,588.9,35.6,588,34.8z"/>
	<path id="Path_713" class="st1" d="M594.6,17.2c0,1.5-1.2,2.7-2.7,2.7s-2.7-1.2-2.7-2.7s1.2-2.7,2.7-2.7
		C593.4,14.6,594.6,15.8,594.6,17.2z"/>
	<path id="Path_714" class="st4" d="M603.1,10c-0.1-0.3-0.3-0.5-0.6-0.6c-0.1-0.1-0.3-0.1-0.4-0.1c-0.5,0-0.9,0.3-1,0.8l-8,21.3
		c-0.2,0.6,0,1.3,0.6,1.6c0.1,0.1,0.3,0.1,0.4,0.1c0.5,0,0.9-0.3,1-0.8l8.1-21.3C603.2,10.6,603.2,10.3,603.1,10z"/>
	<path id="Path_715" d="M617.9,25.2c1-1.1,2.1-2.4,2.1-4.1s-1.1-3-2.1-4.1c-0.5-0.6-1-1.2-1.3-1.9c-0.2-0.8-0.2-1.6-0.1-2.4
		c0.1-1.5,0.2-3.2-0.7-4.5s-2.6-1.7-4-2.1c-0.8-0.1-1.6-0.4-2.3-0.8c-0.6-0.5-1.1-1.2-1.4-1.9c-0.8-1.3-1.7-2.7-3.3-3.2
		C604.4,0.1,604,0,603.6,0c-1.1,0.1-2.2,0.4-3.3,0.9c-0.7,0.4-1.6,0.6-2.4,0.7c-0.8-0.1-1.6-0.3-2.4-0.7l0,0c-1-0.5-2.1-0.8-3.3-0.9
		c-0.4,0-0.8,0.1-1.2,0.2c-1.6,0.5-2.5,2-3.2,3.2c-0.4,0.7-0.8,1.3-1.4,1.9c-0.6,0.4-1.4,0.7-2.2,0.8c-1.4,0.3-3.1,0.7-4,2.1
		s-0.8,3-0.7,4.5c0.1,0.8,0.1,1.6-0.1,2.4c-0.3,0.7-0.8,1.3-1.3,1.9c-1,1.2-2.1,2.5-2.1,4.1s1.1,3,2.1,4.1c0.5,0.6,1,1.2,1.3,1.9
		c0.2,0.8,0.2,1.6,0.1,2.4c-0.1,1.5-0.3,3.2,0.7,4.5s2.6,1.7,4,2.1c0.8,0.1,1.6,0.4,2.3,0.8c0.6,0.5,1.1,1.2,1.4,1.9
		c0.8,1.3,1.7,2.7,3.2,3.2c0.4,0.1,0.8,0.2,1.2,0.2c1.1-0.1,2.2-0.4,3.3-0.9c0.7-0.4,1.6-0.6,2.4-0.7c0.8,0.1,1.6,0.3,2.4,0.7
		c1,0.5,2.1,0.8,3.3,0.9c0.4,0,0.8-0.1,1.2-0.2c1.6-0.5,2.5-2,3.2-3.2c0.4-0.7,0.8-1.3,1.4-1.9c0.7-0.4,1.5-0.7,2.3-0.8
		c1.4-0.3,3.1-0.7,4-2.1c0.9-1.4,0.8-3,0.7-4.5l0,0c-0.1-0.8-0.1-1.6,0.1-2.4C616.9,26.4,617.3,25.8,617.9,25.2z M588,34.8
		c-1-0.6-2.1-1-3.2-1.2c-0.9-0.1-1.8-0.5-2.6-1.1c-0.3-0.9-0.4-1.8-0.2-2.7c0.2-1.1,0.1-2.3-0.2-3.4c-0.4-1-1-2-1.8-2.8
		c-0.8-0.9-1.5-1.7-1.5-2.4s0.7-1.6,1.5-2.4s1.4-1.8,1.8-2.8c0.3-1.1,0.3-2.3,0.2-3.4s0-2,0.3-2.9c0.7-0.6,1.6-1,2.6-1.1
		c1.1-0.2,2.2-0.6,3.1-1.2c0.9-0.7,1.6-1.6,2.1-2.6l0,0c0.6-1,1.2-1.9,1.8-2.1c0.1,0,0.2-0.1,0.4,0c0.8,0.1,1.6,0.3,2.3,0.7
		c1.1,0.5,2.2,0.8,3.4,0.9c1.2-0.1,2.3-0.4,3.4-0.9c0.7-0.4,1.5-0.6,2.3-0.7c0.1,0,0.2,0,0.4,0.1c0.7,0.2,1.2,1.1,1.8,2.1
		c0.5,1,1.2,1.9,2.1,2.6c1,0.6,2.1,1,3.2,1.2c0.9,0.1,1.8,0.5,2.6,1.1c0.3,0.9,0.4,1.8,0.2,2.7c-0.2,1.1-0.1,2.3,0.2,3.4
		c0.4,1,1,2,1.8,2.8c0.8,0.9,1.5,1.7,1.5,2.4s-0.7,1.6-1.5,2.4s-1.4,1.8-1.8,2.8c-0.3,1.1-0.3,2.3-0.2,3.4l0,0
		c0.2,0.9,0.1,1.9-0.2,2.7c-0.7,0.6-1.6,1-2.6,1.1c-1.1,0.2-2.2,0.6-3.2,1.2c-0.9,0.7-1.6,1.6-2.1,2.6c-0.6,1-1.2,1.9-1.8,2.1
		c-0.1,0-0.2,0.1-0.4,0c-0.8-0.1-1.6-0.3-2.3-0.7c-1.1-0.5-2.2-0.8-3.4-0.9c-1.2,0.1-2.3,0.4-3.4,0.9c-0.7,0.4-1.5,0.6-2.3,0.7
		c-0.1,0-0.2,0-0.4-0.1c-0.7-0.2-1.2-1.1-1.8-2.1l0,0C589.6,36.4,588.9,35.5,588,34.8z"/>
	<path id="Path_716" class="st1" d="M616,18.6c-0.8-0.8-1.4-1.8-1.8-2.8c-0.3-1.1-0.3-2.3-0.2-3.5c0.2-0.9,0.1-1.9-0.2-2.8
		c-0.7-0.6-1.6-1-2.6-1.1c-1.1,0-2.2-0.5-3.2-1.1c-0.9-0.7-1.6-1.6-2.1-2.6c-0.6-1-1.2-1.9-1.8-2.1c-0.1,0-0.2-0.1-0.4-0.1
		c-0.8,0.1-1.6,0.3-2.3,0.7c-1.1,0.5-2.2,0.8-3.4,0.9c-1.2-0.1-2.3-0.4-3.4-0.9c-0.7-0.4-1.5-0.6-2.3-0.7c-0.1,0-0.2,0-0.4,0
		c-0.7,0.2-1.2,1.2-1.8,2.1l-0.6-0.4l0.6,0.4c-0.5,1-1.3,1.9-2.1,2.6c-1,0.6-2.1,1-3.2,1.2c-1,0.3-1.8,0.6-2.6,1.2
		c-0.3,0.9-0.4,1.8-0.2,2.7c0.2,1.2,0.1,2.3-0.2,3.5c-0.4,1-1,2-1.8,2.8c-0.8,0.9-1.5,1.7-1.5,2.5s0.7,1.6,1.5,2.5
		c0.8,0.8,1.4,1.8,1.8,2.8c0.3,1.1,0.3,2.3,0.2,3.4c-0.2,0.9-0.1,1.9,0.2,2.8c0.7,0.6,1.6,1,2.6,1.1c1.1,0.2,2.2,0.6,3.2,1.2
		c0.9,0.7,1.6,1.6,2.1,2.6l-0.6,0.4l0.6-0.4c0.6,1,1.2,1.9,1.8,2.1c0.1,0,0.2,0.1,0.4,0.1c0.8-0.1,1.6-0.3,2.3-0.7
		c1.1-0.5,2.2-0.8,3.4-0.9c1.2,0.1,2.3,0.4,3.4,0.9c0.7,0.4,1.5,0.6,2.3,0.7c0.1,0,0.2,0,0.4,0c0.7-0.2,1.2-1.1,1.8-2.1
		c0.5-1,1.3-1.9,2.1-2.7c1-0.6,2.1-1,3.2-1.2c0.9-0.1,1.8-0.5,2.6-1.1c0.3-0.9,0.4-1.8,0.2-2.7l0,0c-0.2-1.1-0.1-2.3,0.2-3.4
		c0.4-1,1-2,1.8-2.8c0.8-0.9,1.5-1.7,1.5-2.5S616.8,19.5,616,18.6z M591.9,21.6c-2.4,0-4.4-2-4.4-4.4s2-4.4,4.4-4.4s4.4,2,4.4,4.4
		S594.3,21.6,591.9,21.6L591.9,21.6z M594.5,31.8c-0.1,0.3-0.4,0.5-0.7,0.5c-0.1,0-0.2,0-0.3-0.1c-0.4-0.2-0.6-0.6-0.4-1.1l8.4-20.7
		c0.2-0.4,0.6-0.6,1.1-0.4c0.4,0.2,0.6,0.6,0.4,1.1l0,0L594.5,31.8z M604.1,29.4c-2.4,0-4.4-2-4.4-4.4s2-4.4,4.4-4.4s4.4,2,4.4,4.4
		l0,0C608.5,27.4,606.5,29.4,604.1,29.4L604.1,29.4z"/>
	<path id="Path_717" class="st4" d="M591.9,12.3c-2.7,0-4.9,2.2-4.9,4.9s2.2,4.9,4.9,4.9s4.9-2.2,4.9-4.9S594.6,12.3,591.9,12.3z
		 M591.9,19.9c-1.5,0-2.7-1.2-2.7-2.7s1.2-2.7,2.7-2.7s2.7,1.2,2.7,2.7C594.5,18.7,593.3,19.9,591.9,19.9z"/>
	<path id="Path_718" class="st4" d="M604.1,29.9c-2.7,0-4.9-2.2-4.9-4.9s2.2-4.9,4.9-4.9s4.9,2.2,4.9,4.9S606.8,29.9,604.1,29.9z
		 M604.1,23.1c-1.1,0-1.9,0.9-1.9,1.9c0,1.1,0.9,1.9,1.9,1.9c1.1,0,1.9-0.9,1.9-1.9C606,23.9,605.2,23.1,604.1,23.1L604.1,23.1z"/>
	<circle id="Ellipse_95" class="st1" cx="604.1" cy="25" r="2.7"/>
</g>
<rect id="Rectangle_794-2" x="640" y="0" class="st0" width="64" height="64"/>
<g id="Group_4781" transform="translate(12.495 8.023)">
	<path id="Path_767" class="st1" d="M677.6,6.6v35.7c-0.1,2.9-2.5,5.2-5.4,5.2h-25.6c-3,0-5.4-2.4-5.4-5.4V6.6
		c0-2.9,2.3-5.3,5.2-5.4h25.8C675.2,1.2,677.6,3.6,677.6,6.6z"/>
	<path id="Path_768" d="M672.2,48.6h-25.6c-3.7,0-6.6-2.9-6.6-6.6V6.6c0-3.6,2.8-6.5,6.3-6.6h25.9c3.6,0,6.6,2.9,6.6,6.6v35.7
		C678.7,45.8,675.7,48.6,672.2,48.6z M646.6,2.3h-0.2c-2.3,0.1-4.1,2-4.1,4.2V42c0,2.3,1.9,4.2,4.2,4.2h25.6c2.3,0,4.1-1.8,4.2-4.1
		V6.6c0-2.3-1.9-4.2-4.2-4.2L646.6,2.3z"/>
	<g id="Group_4774" transform="translate(6.379 9.447)">
		<path id="Path_769" class="st9" d="M642.3,6.5l-2.1-2.7c-0.4-0.5-0.3-1.2,0.2-1.6s1.2-0.3,1.6,0.2l0,0l0.6,0.8l4-3
			c0.6-0.3,1.4-0.2,1.7,0.3c0.4,0.5,0.3,1.2-0.2,1.6L642.3,6.5z"/>
	</g>
	<g id="Group_4775" transform="translate(6.379 32.538)">
		<path id="Path_770" class="st9" d="M642.3,6.6l-2.1-2.7c-0.3-0.6-0.2-1.3,0.3-1.7s1.2-0.3,1.6,0.2l0.6,0.8l3.9-3
			c0.5-0.4,1.2-0.3,1.6,0.2c0.4,0.5,0.3,1.2-0.2,1.6l0,0L642.3,6.6z"/>
	</g>
	<g id="Group_4776" transform="translate(17.572 11.303)">
		<path id="Path_771" class="st9" d="M653.2,2.3h-12c-0.7,0-1.2-0.5-1.2-1.1s0.5-1.2,1.2-1.2h12.1c0.6,0,1.2,0.5,1.2,1.2
			S653.9,2.3,653.2,2.3z"/>
	</g>
	<g id="Group_4777" transform="translate(17.572 34.409)">
		<path id="Path_772" class="st9" d="M653.2,2.3h-12c-0.7,0-1.2-0.5-1.2-1.1s0.5-1.2,1.2-1.2h12.1c0.6,0,1.2,0.5,1.2,1.2
			S653.9,2.3,653.2,2.3z"/>
	</g>
	<g id="Group_4778" transform="translate(6.379 20.985)">
		<path id="Path_773" class="st9" d="M642.3,6.6l-2.1-2.7c-0.4-0.5-0.3-1.2,0.2-1.6s1.2-0.3,1.6,0.2l0,0l0.6,0.8l3.9-3
			c0.7-0.4,1.4-0.3,1.8,0.2c0.4,0.5,0.3,1.2-0.2,1.6L642.3,6.6z"/>
	</g>
	<g id="Group_4779" transform="translate(17.572 22.856)">
		<path id="Path_774" class="st9" d="M653.2,2.3h-12c-0.7,0-1.2-0.5-1.2-1.1s0.5-1.2,1.2-1.2h12.1c0.6,0,1.2,0.5,1.2,1.2
			S653.9,2.3,653.2,2.3z"/>
	</g>
</g>
<g id="Group_4786" transform="translate(704)">
	<rect id="Rectangle_794-3" y="0" class="st0" width="64" height="64"/>
</g>
<g id="Group_4734" transform="translate(480 -29.066)">
	<g id="Group_3202" transform="translate(233 38)">
		<g id="Group_3006" transform="translate(0 8.65)">
			<g id="Ellipse_43" transform="translate(0 0.415)">
				<circle class="st0" cx="15.1" cy="15.1" r="15.1"/>
				<circle class="st10" cx="15.1" cy="15.1" r="13.6"/>
			</g>
			<g id="Group_4735" transform="translate(1)">
				<g id="Ellipse_124" transform="translate(7.858 8.415)">
					<ellipse class="st4" cx="7.1" cy="7.1" rx="7.1" ry="7.1"/>
					<ellipse class="st11" cx="7.1" cy="7.1" rx="6.1" ry="6.1"/>
				</g>
				<g id="Ellipse_125" transform="translate(12.51 13.066)">
					<ellipse class="st4" cx="2.5" cy="2.5" rx="2.5" ry="2.5"/>
					<ellipse class="st11" cx="2.5" cy="2.5" rx="1.5" ry="1.5"/>
				</g>
			</g>
			<g id="Ellipse_42" transform="translate(15.858 0.415)">
				<circle class="st4" cx="15.1" cy="15.1" r="15.1"/>
				<circle class="st12" cx="15.1" cy="15.1" r="13.6"/>
			</g>
			<path id="Subtraction_7" class="st1" d="M30.5,25.7c-2.6,0-5.1-1.1-6.8-2.9c-1.8-1.9-2.8-4.4-2.8-7.1c0-2.1,0.7-4.2,1.9-6
				C24,8,25.7,6.8,27.6,6.1C26.5,7.8,26,9.7,26,11.7c0,2.6,1,5.2,2.8,7.1s4.3,2.9,6.8,2.9c1,0,2-0.2,2.9-0.5
				C36.8,24,33.8,25.7,30.5,25.7z"/>
		</g>
		<rect id="Rectangle_367" x="0.1" y="0.1" class="st0" width="46" height="46"/>
	</g>
</g>
<g id="Group_4740" transform="translate(751.166 -32.299)">
	<g id="Group_4739" transform="translate(31.998 46.935)">
		<g id="Ellipse_126" transform="translate(-0.164 0.364)">
			<ellipse class="st4" cx="23" cy="7" rx="23" ry="7"/>
			<ellipse class="st12" cx="23" cy="7" rx="21.5" ry="5.5"/>
		</g>
		<path id="Subtraction_9" class="st1" d="M21,21.4L21,21.4c-6.9,0.1-13.6-1.2-20-3.9l-0.2-0.1v-5.2c0.1,0,0.1,0,0.2,0l0,0l0,0
			c1.5,1.1,3.1,1.9,4.9,2.5c2,0.8,4,1.4,6.1,1.7c2.9,0.5,5.8,0.8,8.7,0.8c8.2-0.2,16.3-1.7,23.9-4.6v4.6l-0.4,0.2l0,0l0,0
			c-2.2,0.8-4.5,1.4-6.8,1.9C32,20.7,26.5,21.4,21,21.4z"/>
		<g id="Group_4736" transform="translate(12.885 12.398)">
			<g id="Ellipse_124-2" transform="translate(0 0)">
				<ellipse class="st4" cx="6.2" cy="6.2" rx="6.2" ry="6.2"/>
				<ellipse class="st11" cx="6.2" cy="6.2" rx="5.2" ry="5.2"/>
			</g>
			<g id="Ellipse_125-2" transform="translate(4.012 4.011)">
				<ellipse class="st4" cx="2.1" cy="2.1" rx="2.1" ry="2.1"/>
				<ellipse class="st11" cx="2.1" cy="2.1" rx="1.1" ry="1.1"/>
			</g>
		</g>
		<g id="Group_4737" transform="translate(20.294 12.398)">
			<g id="Ellipse_124-3" transform="translate(0 0)">
				<ellipse class="st4" cx="6.2" cy="6.2" rx="6.2" ry="6.2"/>
				<ellipse class="st11" cx="6.2" cy="6.2" rx="5.2" ry="5.2"/>
			</g>
			<g id="Ellipse_125-3" transform="translate(4.012 4.011)">
				<ellipse class="st4" cx="2.1" cy="2.1" rx="2.1" ry="2.1"/>
				<ellipse class="st11" cx="2.1" cy="2.1" rx="1.1" ry="1.1"/>
			</g>
		</g>
	</g>
	<g id="Group_4738" transform="translate(66.781 51.295)">
		<g id="Ellipse_126-2" transform="translate(0.053 0.004)">
			<ellipse class="st4" cx="31.5" cy="10.5" rx="31.5" ry="10.5"/>
			<ellipse class="st12" cx="31.5" cy="10.5" rx="30" ry="9"/>
		</g>
		<path id="Subtraction_9-2" class="st1" d="M28.8,28.5L28.8,28.5c-10.7,0-20.2-1.8-28.5-5.5L0,22.9v-7.4c0.1,0,0.2,0,0.3,0l0,0l0,0
			c2.1,1.5,4.5,2.7,6.9,3.6C10,20.2,13,21,16,21.6c4.1,0.8,8.2,1.1,12.4,1.1c10.5,0,22-2.2,34.2-6.6v6.6L62.1,23l0,0l0,0
			c-3.2,1.1-6.5,2-9.8,2.7C44.6,27.5,36.8,28.4,28.8,28.5z"/>
		<g id="Group_4736-2" transform="translate(17.3 14.134)">
			<g id="Ellipse_124-4">
				<ellipse class="st4" cx="8.7" cy="8.7" rx="8.7" ry="8.7"/>
				<ellipse class="st11" cx="8.7" cy="8.7" rx="7.7" ry="7.7"/>
			</g>
			<g id="Ellipse_125-4" transform="translate(5.684 5.684)">
				<ellipse class="st4" cx="3" cy="3" rx="3" ry="3"/>
				<ellipse class="st11" cx="3" cy="3" rx="2" ry="2"/>
			</g>
		</g>
		<g id="Group_4737-2" transform="translate(27.925 14.134)">
			<g id="Ellipse_124-5">
				<ellipse class="st4" cx="8.7" cy="8.7" rx="8.7" ry="8.7"/>
				<ellipse class="st11" cx="8.7" cy="8.7" rx="7.7" ry="7.7"/>
			</g>
			<g id="Ellipse_125-5" transform="translate(5.684 5.684)">
				<ellipse class="st4" cx="3" cy="3" rx="3" ry="3"/>
				<ellipse class="st11" cx="3" cy="3" rx="2" ry="2"/>
			</g>
		</g>
	</g>
</g>
<rect id="Rectangle_794-4" x="768" y="0" class="st0" width="128" height="64"/>
<g id="Group_4789" transform="translate(128)">
	<rect id="Rectangle_794-5" x="768" y="0" class="st0" width="128" height="64"/>
</g>
<g id="Group_4749" transform="translate(379.5 -262)">
	<path id="Subtraction_18" class="st1" d="M604.4,304.1c-0.8,0-1.6-0.1-2.3-0.3c-1.9-0.1-3.4-1.5-3.7-3.4c-0.2-1-0.2-2-0.1-3
		c0.1-0.9,0.2-1.8,0.4-2.6c0.2-0.9,0.4-1.8,0.7-2.6c0.3-0.9,0.6-1.7,1-2.6s0.8-1.7,1.3-2.5c0.3-0.4,0.5-0.9,0.9-1.3
		c0.3-0.4,0.7-0.8,1.1-1.1c0.5-0.5,1.2-0.7,2-0.7c0.7,0.1,1.4,0.4,1.9,1c0.5,0.5,0.9,1,1.2,1.6s0.6,1.1,0.8,1.7
		c0.2,0.4,0.3,0.8,0.4,1.2c-0.3,0.5-0.5,1-0.7,1.5c-0.5,1-0.8,2.1-1.2,3.2c-0.3,1-0.6,2-0.8,3l0,0c-0.3-0.3-0.6-0.5-0.9-0.6
		c-0.4-0.2-0.7-0.2-1.1-0.3c-0.4,0-0.8,0-1.2,0.1s-0.7,0.3-1,0.5s-0.5,0.5-0.7,0.8s-0.3,0.6-0.3,1s0,0.7,0.2,1
		c0.1,0.3,0.3,0.6,0.6,0.9s0.6,0.5,0.9,0.6c0.4,0.2,0.7,0.2,1.1,0.3c0.4,0,0.8,0,1.2-0.1c0.2-0.1,0.4-0.2,0.6-0.3
		c-0.1,1,0,2.1,0.2,3.1C606,304.2,605.2,304.2,604.4,304.1z M603.8,283.7L603.8,283.7L603.8,283.7c-0.2-0.2-0.4-0.4-0.6-0.6
		c-0.1-0.1-0.2-0.2-0.2-0.3c0-0.1,0.1-0.2,0.2-0.3c0.2-0.2,0.4-0.3,0.6-0.5l0.1-0.1l0,0c0.3-0.2,0.6-0.5,0.8-0.7
		c0.2-0.1,0.4-0.4,0.4-0.7c0-0.2,0-0.4,0-0.6v-0.1c0-0.2,0-0.5,0-0.7s0-0.3,0.1-0.4s0.3-0.2,0.5-0.2c0.4,0,0.7-0.2,1-0.4
		c0.2-0.2,0.4-0.5,0.4-0.9c-0.1-0.7-0.6-1.3-1.3-1.3h-0.1c-0.3,0-0.7,0.1-1,0.3c-0.3,0.2-0.5,0.4-0.6,0.7v0.1l0,0c0,0,0,0,0,0.1l0,0
		c0,0.1-0.1,0.2-0.1,0.3c-0.1,0.1-0.2,0.1-0.3,0.1l0,0l0,0l0,0l0,0c-0.1,0-0.2-0.1-0.3-0.2c0-0.1-0.1-0.2,0-0.3
		c0.1-0.5,0.3-1,0.8-1.3c0.2-0.2,0.5-0.3,0.8-0.4s0.6-0.1,0.9-0.1c0.3,0,0.6,0.1,0.9,0.2c0.4,0.2,0.7,0.5,1,0.8
		c0.2,0.3,0.3,0.7,0.3,1.1s-0.2,0.8-0.5,1.1c-0.3,0.3-0.7,0.5-1.1,0.6c-0.1,0-0.2,0.1-0.3,0.2s-0.1,0.2-0.1,0.3
		c-0.1,0.4-0.1,0.9,0.1,1.3c0.1,0.2,0.2,0.4,0.3,0.6c0.2,0.2,0.3,0.4,0.6,0.5c0.2,0.1,0.3,0.3,0.4,0.4l0,0c0.1,0.1,0.2,0.2,0.3,0.3
		c0.1,0.1,0.2,0.2,0.2,0.3c0,0.1-0.1,0.2-0.2,0.3c-0.1,0.1-0.2,0.2-0.3,0.3l-0.1,0.1l-0.1,0.1c-0.4-0.4-1-0.6-1.6-0.7
		C605,283.1,604.4,283.3,603.8,283.7L603.8,283.7z"/>
	<path id="Path_1997" class="st13" d="M537.5,281.3c0,0,14.6,22.9,30.3,0"/>
	<g id="Group_4741" transform="translate(549.195 289.525)">
		<g id="Group_4748" transform="translate(-1.196)">
			<g id="Ellipse_124-6">
				<ellipse class="st4" cx="5.6" cy="5.6" rx="5.6" ry="5.6"/>
				<ellipse class="st11" cx="5.6" cy="5.6" rx="4.6" ry="4.6"/>
			</g>
			<g id="Ellipse_125-6" transform="translate(3.627 3.627)">
				<ellipse class="st4" cx="1.9" cy="1.9" rx="1.9" ry="1.9"/>
				<ellipse class="st11" cx="1.9" cy="1.9" rx="0.9" ry="0.9"/>
			</g>
		</g>
		<g id="Ellipse_130" transform="translate(60.627 22.627)">
			<ellipse class="st1" cx="1.9" cy="1.9" rx="1.9" ry="1.9"/>
			<ellipse class="st11" cx="1.9" cy="1.9" rx="0.9" ry="0.9"/>
		</g>
		<g id="Ellipse_131" transform="translate(65.627 23.627)">
			<ellipse class="st1" cx="1.9" cy="1.9" rx="1.9" ry="1.9"/>
			<ellipse class="st11" cx="1.9" cy="1.9" rx="0.9" ry="0.9"/>
		</g>
		<g id="Ellipse_132" transform="translate(70.627 22.627)">
			<ellipse class="st1" cx="1.9" cy="1.9" rx="1.9" ry="1.9"/>
			<ellipse class="st11" cx="1.9" cy="1.9" rx="0.9" ry="0.9"/>
		</g>
	</g>
	<path id="Path_1998" d="M589.6,285.8L589.6,285.8c-3.2,0-6.3,0-9.4,0c-0.1,0-0.2,0-0.2,0.2c0,0.6,0,1.1,0,1.7v0.2
		c-0.1,0-0.1-0.1-0.2-0.1l-3.8-2.9l0,0v-0.1c0-0.1,0.1-0.1,0.1-0.1c1.1-0.9,2.2-1.7,3.3-2.6c0.1-0.1,0.3-0.2,0.4-0.3
		c0,0,0.1-0.1,0.1,0s0,0.1,0,0.1c0,0.4,0,0.8,0,1.3c0,0.1,0,0.3,0,0.4s0,0.2,0.2,0.2c0.1,0,0.1,0,0.2,0h9c0.1,0,0.2,0,0.2,0
		L589.6,285.8z"/>
	<path id="Path_1999" class="st1" d="M576.9,290.8L576.9,290.8c3.2,0,6.3,0,9.4,0c0.1,0,0.2,0,0.2-0.2c0-0.6,0-1.1,0-1.7v-0.2
		c0.1,0,0.1,0.1,0.2,0.1l3.8,2.9l0,0v0.1c0,0.1-0.1,0.1-0.1,0.1c-1.1,0.9-2.2,1.7-3.3,2.6c-0.1,0.1-0.3,0.2-0.4,0.3
		c0,0-0.1,0.1-0.1,0c-0.1,0,0-0.1,0-0.1c0-0.4,0-0.8,0-1.3c0-0.1,0-0.3,0-0.4s0-0.2-0.2-0.2h-0.1h-9c-0.1,0-0.2,0-0.2,0L576.9,290.8
		z"/>
	<g id="Group_4744" transform="translate(498.095 -123.148)">
		<g id="Group_4745" transform="translate(110.185 408.477)">
			<path id="Path_2034" class="st8" d="M0,16c0.2-4.3,1.3-8.4,3.4-12.2c0.5-1.1,1.3-2,2.2-2.8C6.9-0.3,9-0.3,10.4,1
				c1.2,1,2.1,2.3,2.7,3.7c2,4,2.9,8.3,2.9,12.8c0,0.9-0.2,1.7-0.5,2.5c-0.6,1.9-2.1,3-4.5,3.3c-1.9,0.2-3.9,0.2-5.8,0
				C2.5,23,1,21.8,0.4,19.6C0.1,18.4,0,17.2,0,16z"/>
		</g>
	</g>
	<path id="Subtraction_19" class="st1" d="M614.2,283.4L614.2,283.4c-0.2-0.2-0.5-0.5-0.7-0.7c-0.1-0.1-0.2-0.3-0.2-0.4
		c0-0.2,0.1-0.3,0.2-0.4c0.3-0.3,0.6-0.6,0.9-0.8l0,0c0.3-0.3,0.6-0.7,1-1c0.3-0.2,0.4-0.6,0.4-0.9s0-0.7,0-1s0-0.6,0-0.9
		c0-0.2,0-0.4,0.1-0.6c0.2-0.2,0.4-0.3,0.6-0.3c0.5-0.1,0.9-0.3,1.2-0.6c0.3-0.4,0.4-0.8,0.4-1.2c-0.1-0.9-0.8-1.7-1.7-1.7h-0.1
		c-0.9,0-1.6,0.6-1.8,1.5c0,0.1,0,0.1,0,0.2s0,0.1,0,0.1c0,0.1-0.1,0.3-0.1,0.4c-0.1,0.1-0.2,0.1-0.3,0.1H614
		c-0.1,0-0.3-0.1-0.3-0.2c-0.1-0.1-0.1-0.3-0.1-0.4c0-0.7,0.3-1.4,0.9-1.9c0.3-0.2,0.6-0.4,0.9-0.6c0.3-0.1,0.7-0.2,1-0.2
		c0.4,0,0.8,0.1,1.1,0.2c0.5,0.2,0.9,0.6,1.2,1.1c0.6,1,0.6,2.2-0.1,3.1c-0.3,0.5-0.8,0.8-1.3,1c-0.1,0-0.3,0.1-0.4,0.2
		c-0.1,0.1-0.1,0.3-0.1,0.4c-0.1,0.6,0,1.2,0.2,1.8c0.1,0.3,0.3,0.5,0.4,0.8c0.2,0.2,0.4,0.5,0.7,0.7c0.2,0.2,0.4,0.3,0.6,0.5l0,0
		c0.1,0.1,0.2,0.2,0.4,0.4c0.1,0.1,0.2,0.2,0.2,0.4c0,0.2-0.1,0.3-0.2,0.4c-0.2,0.2-0.4,0.4-0.7,0.7c-0.5-0.5-1.2-0.8-2-0.8
		C615.5,282.5,614.8,282.8,614.2,283.4L614.2,283.4z"/>
	<path id="Path_2043" class="st14" d="M609.2,310.3c0,0,5.4,2.8,14.8,0"/>
	<ellipse id="Ellipse_133" class="st15" cx="616.6" cy="302.6" rx="3.6" ry="3"/>
</g>
<rect id="Rectangle_794-6" x="1024" class="st0" width="64" height="64"/>
<rect id="Rectangle_215" x="1024" class="st0" width="64" height="64"/>
<g id="Group_2185-2" transform="translate(129 287.6)">
	<path id="Path_436-2" class="st1" d="M908.4-280.9h38l8.3,20.7h-55.4L908.4-280.9z"/>
	<g id="Group_753-2">
		<path id="Path_405-2" d="M957.7-263.4v-0.1l-6.7-16.8c-1.2-2.8-3.9-4.7-7-4.7h-33.4l0,0c-3,0-5.7,1.7-6.9,4.5l-7.2,17v0.1
			c-0.1,0.3-1.1,3.3,0.5,5.6c1.2,1.5,3,2.3,5,2.2c2.6-0.1,5.2-1,7.4-2.5c0.7-0.6,1.6-1,2.5-1.2c0.4,0,0.6,0.1,1.4,0.9
			c1.4,1.5,3.4,2.4,5.5,2.4c2.2-0.1,4.3-0.8,6.1-2c0.7-0.5,1.4-0.8,2.2-1c0.9,0.2,1.7,0.6,2.5,1.1c1.7,1.2,3.7,2,5.8,2.1l0,0
			c2.1-0.1,4-1,5.5-2.4c0.9-0.8,1.4-1.1,1.8-1.1c0.5,0.1,0.9,0.2,1.3,0.5c0,0.1,0,0.1,0,0.2v25.4c0,0.6-0.2,1.2-0.7,1.6
			c-0.4,0.4-1,0.7-1.7,0.7l0,0H913c-1.3,0-2.3-1-2.3-2.3l0,0c0-1.4-1.2-2.5-2.6-2.5c-1.4,0-2.5,1.1-2.6,2.5c0.1,4.1,3.4,7.3,7.5,7.2
			h28.4l0,0c2,0,3.9-0.8,5.3-2.1c1.4-1.3,2.2-3.2,2.2-5.1v-22.9c1,0.3,2,0.5,3,0.5c1.9,0.1,3.8-0.7,5-2.2
			C958-259.5,958.3-261.5,957.7-263.4z M952.9-260.8c-0.3,0.1-0.6,0.2-0.9,0.1c-1.5,0-2.7-0.8-4.1-1.7c-1.5-1.2-3.3-1.9-5.2-2h-0.1
			c-1.9,0.1-3.8,0.9-5.1,2.3c-1,0.9-1.5,1.2-2.1,1.2l0,0c-1.1-0.2-2.2-0.6-3.1-1.3c-1.5-1.1-3.3-1.8-5.2-1.9
			c-1.8,0.1-3.5,0.7-4.9,1.7c-1,0.7-2.1,1.2-3.4,1.3c-0.8,0-1.1-0.2-2-1c-1.3-1.4-3.1-2.2-4.9-2.2c-1.9,0.1-3.8,0.8-5.3,1.9
			c-1.3,1-2.9,1.6-4.6,1.7c-0.3,0-0.5,0-0.8-0.1c0-0.3,0-0.7,0.1-1l7.2-16.9c0.4-0.9,1.2-1.4,2.2-1.4l0,0h33.5c1,0,1.8,0.6,2.2,1.5
			l6.6,16.7C952.9-261.5,952.9-261.1,952.9-260.8z"/>
	</g>
	<path id="Path_435-2" class="st1" d="M915.3-244.8c1,1,2.5,1,3.5,0l0,0c0.5-0.5,0.7-1.1,0.7-1.8s-0.3-1.3-0.7-1.8l-6.8-6.7
		c-0.5-0.5-1.1-0.7-1.8-0.7s-1.3,0.3-1.8,0.7l-6.8,6.8c-1,1-1,2.5,0,3.5l0,0c1,1,2.5,1,3.5,0l0,0l2.5-2.6v7.2c0,1.4,1.1,2.5,2.5,2.5
		l0,0c1.4,0,2.5-1.1,2.5-2.5l0,0v-7.2L915.3-244.8z"/>
</g>
<g id="Group_4801" transform="translate(320)">
	<rect id="Rectangle_794-7" x="768" class="st0" width="128" height="64"/>
</g>
<g id="Group_2980-2" transform="translate(1010.819 -285)">
	<rect id="Rectangle_215-2" x="128" y="285" class="st0" width="64" height="64"/>
	<g id="Group_2185-3" transform="translate(129 287.6)">
		<path id="Path_436-3" class="st1" d="M12.4,4.1h38l8.3,20.7H3.3L12.4,4.1z"/>
		<g id="Group_753-3">
			<path id="Path_405-3" d="M61.7,21.6v-0.1L55,4.7C53.8,1.9,51.1,0,48,0H14.6l0,0c-3,0-5.7,1.7-6.9,4.5l-7.2,17v0.1
				c-0.1,0.3-1.1,3.3,0.5,5.6c1.2,1.5,3,2.3,5,2.2c2.6-0.1,5.2-1,7.4-2.5c0.7-0.6,1.6-1,2.5-1.2c0.4,0,0.6,0.1,1.4,0.9
				c1.4,1.5,3.4,2.4,5.5,2.4c2.2-0.1,4.3-0.8,6.1-2c0.7-0.5,1.4-0.8,2.2-1c0.9,0.2,1.7,0.6,2.5,1.1c1.7,1.2,3.7,2,5.8,2.1l0,0
				c2.1-0.1,4-1,5.5-2.4c0.9-0.8,1.4-1.1,1.8-1.1c0.5,0.1,0.9,0.2,1.3,0.5c0,0.1,0,0.1,0,0.2v25.4c0,0.6-0.2,1.2-0.7,1.6
				c-0.4,0.4-1,0.7-1.7,0.7l0,0H17c-1.3,0-2.3-1-2.3-2.3l0,0c0-1.4-1.2-2.5-2.6-2.5s-2.5,1.1-2.6,2.5c0.1,4.1,3.4,7.3,7.5,7.2h28.4
				l0,0c2,0,3.9-0.8,5.3-2.1c1.4-1.3,2.2-3.2,2.2-5.1V28.9c1,0.3,2,0.5,3,0.5c1.9,0.1,3.8-0.7,5-2.2C62,25.5,62.3,23.5,61.7,21.6z
				 M56.9,24.2c-0.3,0.1-0.6,0.2-0.9,0.1c-1.5,0-2.7-0.8-4.1-1.7c-1.5-1.2-3.3-1.9-5.2-2h-0.1c-1.9,0.1-3.8,0.9-5.1,2.3
				c-1,0.9-1.5,1.2-2.1,1.2l0,0c-1.1-0.2-2.2-0.6-3.1-1.3c-1.5-1.1-3.3-1.8-5.2-1.9c-1.8,0.1-3.5,0.7-4.9,1.7
				c-1,0.7-2.1,1.2-3.4,1.3c-0.8,0-1.1-0.2-2-1c-1.3-1.4-3.1-2.2-4.9-2.2c-1.9,0.1-3.8,0.8-5.3,1.9c-1.3,1-2.9,1.6-4.6,1.7
				c-0.3,0-0.5,0-0.8-0.1c0-0.3,0-0.7,0.1-1l7.2-16.9c0.4-0.9,1.2-1.4,2.2-1.4l0,0h33.5c1,0,1.8,0.6,2.2,1.5L57,23.1
				C56.9,23.5,56.9,23.9,56.9,24.2z"/>
		</g>
		<path id="Path_435-3" class="st1" d="M-20.7,36.3c-1,1-1,2.5,0,3.5l0,0c0.5,0.5,1.1,0.7,1.8,0.7c0.7,0,1.3-0.3,1.8-0.7l6.8-6.8
			c0.5-0.5,0.7-1.1,0.7-1.8c0-0.7-0.3-1.3-0.7-1.8l-6.8-6.8c-1-1-2.5-1-3.5,0l0,0c-1,1-1,2.5,0,3.5l0,0l2.6,2.5h-17.2
			c-1.4,0-2.5,1.1-2.5,2.5l0,0c0,1.4,1.1,2.5,2.5,2.5l0,0H-18L-20.7,36.3z"/>
		<rect id="Rectangle_216-2" x="10" y="24.4" width="5" height="28"/>
	</g>
	<path id="ic_account_circle_24px" class="st1" d="M160,318c2.5,0,4.6,2,4.6,4.6c0,2.5-2,4.6-4.6,4.6s-4.6-2-4.6-4.6l0,0
		C155.5,320.1,157.5,318,160,318L160,318z M160,338.4c-2.7,0-9.2-1-9.1-5.2c0-3,6.1-4.7,9.1-4.7s9.1,1.7,9.1,4.7
		C169.2,337.6,162.7,338.4,160,338.4z"/>
</g>
<rect id="Rectangle_1" x="1216" class="st16" width="64" height="64"/>
<g id="noun_receipt_561599_1_" transform="translate(9.911 2.501)">
	<path id="Path_1" class="st1" d="M1217.6,2v54.6h29.3V44.1h12.6V2H1217.6z"/>
	<g id="Group_1" transform="translate(0 0)">
		<path id="Path_2" d="M1228.7,15C1228.8,15,1228.6,15,1228.7,15z"/>
		<path id="Path_3" d="M1228.3,18.2C1228.2,18.2,1228.4,18.3,1228.3,18.2z"/>
		<path id="Path_4" d="M1259.3,0h-41.7c-0.9,0-1.6,0.7-1.6,1.6v55.6c0,0.9,0.7,1.6,1.6,1.6h28.8c0.4,0,0.8-0.2,1.1-0.5l12.9-12.9
			c0.3-0.3,0.5-0.7,0.5-1.1V1.6C1260.9,0.7,1260.2,0,1259.3,0z M1248,53.3v-7.4h7.4L1248,53.3z M1257.7,42.7h-11.3
			c-0.9,0-1.6,0.7-1.6,1.6v11.3h-25.5V3.3h38.4V42.7z"/>
		<path id="Path_5" class="st4" d="M1239.7,10.1h13.3c0.9,0,1.5-0.8,1.5-1.6c0-0.9-0.6-1.6-1.5-1.6h-13.3c-0.9,0-1.5,0.8-1.5,1.6
			S1238.9,10,1239.7,10.1z"/>
		<path id="Path_6" class="st4" d="M1239.7,18.5h13.3c0.9-0.1,1.6-0.9,1.5-1.8c-0.1-0.8-0.7-1.4-1.5-1.5h-13.3
			c-0.9,0.1-1.6,0.9-1.5,1.8C1238.3,17.8,1238.9,18.4,1239.7,18.5z"/>
		<path id="Path_7" class="st4" d="M1239.7,26.9h13.3c0.9-0.1,1.6-0.9,1.5-1.8c-0.1-0.8-0.7-1.4-1.5-1.5h-13.3
			c-0.9,0.1-1.6,0.9-1.5,1.8C1238.3,26.2,1238.9,26.8,1239.7,26.9z"/>
		<path id="Path_8" class="st4" d="M1223.6,35.2h29.3c0.9,0,1.6-0.8,1.6-1.7s-0.7-1.6-1.6-1.6h-29.3c-0.9,0.1-1.6,0.8-1.6,1.7
			C1222,34.5,1222.7,35.2,1223.6,35.2z"/>
		<path id="Path_9" class="st4" d="M1223.6,43.6h14.4c0.9,0,1.7-0.7,1.7-1.6s-0.7-1.7-1.6-1.7h-0.1h-14.4c-0.9,0-1.7,0.7-1.7,1.6
			S1222.6,43.6,1223.6,43.6C1223.5,43.6,1223.6,43.6,1223.6,43.6z"/>
		<path id="Path_10" class="st4" d="M1223.6,52.1h14.4c0.9,0,1.6-0.8,1.6-1.7s-0.7-1.6-1.6-1.6h-14.4c-0.9,0-1.7,0.7-1.7,1.6
			S1222.6,52,1223.6,52.1C1223.5,52.1,1223.6,52.1,1223.6,52.1z"/>
	</g>
	<path id="Path_2751" class="st17" d="M1235.2,20c-0.1-0.6-0.2-1.1-0.4-1.7c-0.5-1.7-1.4-3.4-2.6-4.7c-0.3-0.3-0.7-0.7-1-0.9
		c-0.2-0.2-0.4-0.3-0.6-0.4c0,0-0.1-0.1,0-0.1c0.1-0.2,0.2-0.4,0.3-0.5c0.4-0.7,0.8-1.4,1.2-2.1l0,0l-0.1,0.3c0-0.1,0.2-0.4,0.3-0.5
		c0.1-0.1,0.1-0.3,0.1-0.5c-0.1-0.1-0.3-0.1-0.4-0.2l0,0c-2.2-0.7-4.6-0.8-6.8,0c-0.4,0.1-0.4,0.3-0.3,0.6c0.5,0.9,1.1,1.9,1.6,2.8
		c0.1,0.2,0.1,0.2-0.1,0.3c-0.4,0.2-0.8,0.5-1.1,0.8c-0.5,0.5-1,1-1.4,1.6c-0.8,1.1-1.4,2.4-1.8,3.7c-0.2,0.7-0.4,1.4-0.5,2.1
		c-0.1,0.4-0.1,0.8-0.1,1.2c0,0.5,0,1,0.2,1.5c0.2,1,0.9,1.8,1.7,2.3c0.9,0.4,1.9,0.7,2.9,0.8c0.3,0,0.7,0,1,0c0.1,0,0.2,0,0.4,0
		h1.4h0.1c0.1,0,0.2,0,0.3,0c0.5,0,1,0,1.4-0.1c0.5-0.1,0.9-0.2,1.4-0.3c1.6-0.4,2.8-1.8,2.9-3.5c0-0.3,0-0.5,0-0.8
		C1235.4,21.2,1235.3,20.6,1235.2,20z M1226.2,9.8l-0.3-0.6V9.1l0.3-0.1l0,0h0.4c0.3,0,0.6-0.1,0.9-0.1c1.2-0.1,2.5,0,3.6,0.4
		l-0.1,0.2l-1.3,2.5c-0.8-0.2-1.6-0.2-2.4,0L1226.2,9.8z M1234.3,23.5c-0.3,0.8-0.9,1.4-1.7,1.7c-0.5,0.2-1,0.3-1.6,0.4
		s-1.3,0.1-1.9,0.1s-1.3,0-1.9,0c-0.9,0-1.8-0.2-2.6-0.4c-0.7-0.2-1.3-0.7-1.6-1.3c-0.2-0.3-0.3-0.7-0.4-1.1
		c-0.1-0.5-0.1-0.9-0.1-1.4s0.1-1.1,0.2-1.6c0.3-1.3,0.7-2.5,1.4-3.7c0.3-0.6,0.7-1.1,1.1-1.6c0.5-0.6,1-1.1,1.7-1.4l0,0
		c0.9-0.6,2-0.6,3-0.1c0,0,0.1,0,0.1,0.1c0.6,0.3,1.1,0.8,1.6,1.3c0.6,0.7,1.1,1.5,1.6,2.3c0.5,0.9,0.8,1.9,1.1,2.9
		c0.1,0.4,0.2,0.8,0.2,1.2c0.1,0.4,0.1,0.8,0.1,1.2C1234.6,22.4,1234.5,22.9,1234.3,23.5z"/>
</g>
<rect id="Rectangle_590" x="1280" class="st16" width="64" height="64"/>
<g id="Group_4090" transform="translate(1.143 5.714)">
	<g id="Group_4088" transform="translate(0)">
		<g id="Rectangle_589" transform="translate(-0.143 0.286)">
			<path class="st1" d="M1282,0h17c1.1,0,2,0.9,2,2v17c0,1.1-0.9,2-2,2h-17c-1.1,0-2-0.9-2-2V2C1280,0.9,1280.9,0,1282,0z"/>
			<path class="st12" d="M1282,1.5h17c0.3,0,0.5,0.2,0.5,0.5v17c0,0.3-0.2,0.5-0.5,0.5h-17c-0.3,0-0.5-0.2-0.5-0.5V2
				C1281.5,1.7,1281.7,1.5,1282,1.5z"/>
		</g>
		<g id="Rectangle_591" transform="translate(-0.143 31.286)">
			<path class="st1" d="M1282,0h17c1.1,0,2,0.9,2,2v17c0,1.1-0.9,2-2,2h-17c-1.1,0-2-0.9-2-2V2C1280,0.9,1280.9,0,1282,0z"/>
			<path class="st12" d="M1282,1.5h17c0.3,0,0.5,0.2,0.5,0.5v17c0,0.3-0.2,0.5-0.5,0.5h-17c-0.3,0-0.5-0.2-0.5-0.5V2
				C1281.5,1.7,1281.7,1.5,1282,1.5z"/>
		</g>
		<g id="Group_4087" transform="translate(27.167 5.272)">
			<path id="Path_648" class="st18" d="M1280,0h32.7"/>
			<path id="Path_649" class="st19" d="M1280,10.3h23"/>
		</g>
		<g id="Group_4091" transform="translate(4.571 5.714)">
			<g id="Group_3194" transform="translate(2.57 1.052)">
				<g id="Path_170" transform="translate(5.375 2.817) rotate(180)">
					<path class="st0" d="M-1277.2,0l1.2,2.1c0.1,0.2,0,0.5-0.2,0.7c-0.1,0-0.2,0.1-0.2,0.1h-3.1c-0.3-0.1-0.5-0.3-0.5-0.5
						c0-0.1,0-0.2,0.1-0.2l1.1-2.2C-1278.8,0-1277.2,0-1277.2,0z"/>
					<path class="st4" d="M-1277.2,0l1.2,2.1c0.2,0.3-0.1,0.7-0.4,0.7h-3.1c-0.4,0-0.6-0.4-0.4-0.7l1.1-2.1H-1277.2z"/>
				</g>
				<g id="Ellipse_44" transform="translate(0 2.033)">
					<circle class="st0" cx="1283.4" cy="3.4" r="3.4"/>
					<circle class="st20" cx="1283.4" cy="3.4" r="2.4"/>
				</g>
			</g>
			<rect id="Rectangle_368" x="1280.3" y="-0.4" class="st0" width="11" height="11"/>
		</g>
	</g>
	<g id="Group_4089" transform="translate(5.714 35.116)">
		<g id="Group_4087-2" transform="translate(21.453 0)">
			<path id="Path_648-2" class="st18" d="M1280,0h32.7"/>
			<path id="Path_649-2" class="st19" d="M1280,10.3h23"/>
		</g>
		<g id="Group_3243" transform="translate(0 2.598)">
			<rect id="Rectangle_369" x="1280.1" y="-0.4" class="st0" width="9" height="10"/>
			<g id="Group_3206" transform="translate(0.752 1.919)">
				<g id="Group_612">
					<path id="Path_160" class="st21" d="M1280,0c0,0,3.7,5.8,7.7,0"/>
					<circle id="Ellipse_29" class="st4" cx="1283.8" cy="4.2" r="1.3"/>
				</g>
			</g>
		</g>
	</g>
</g>
<rect id="Rectangle_590-2" x="1344" class="st16" width="64" height="64"/>
<g id="Group_3963" transform="translate(-267.394 -625.387)">
	<g id="Group_7141" transform="translate(-283.606 194.587)">
		<path id="Path_662-2" class="st1" d="M1915.3,445.7c0-2.3,0.4-4.5,1.2-6.6c1.4-3.4,4.6-5.8,8.2-6.1c2.2-0.4,4.5-0.2,6.7,0.5
			c3.5,1.1,6,4,6.6,7.6c1.6,6.9-0.1,14.1-4.6,19.5c-1.1,1.4-2.6,2.4-4.3,3c-2.8,0.9-5.2,0.1-7.3-1.7c-2.3-2.1-4.1-4.7-5.1-7.7
			C1915.8,451.5,1915.3,448.6,1915.3,445.7z"/>
		<path id="Subtraction_1" class="st22" d="M1912.3,485L1912.3,485c-2.5-0.3-5.1-0.7-7.7-1.1c-2.1-0.3-3.6-2.1-3.6-4.2v-0.1
			c0-0.8,0-1.5,0-2.3c-0.1-1.4,0.6-2.6,1.8-3.3c3.3-1.9,6.7-3.8,9.9-5.6c1.7-0.9,3.4-1.9,5.1-2.9c0.1-0.1,0.2-0.1,0.3-0.1
			c0.2,0,0.3,0.1,0.5,0.3c1.9,2.1,4.4,3.4,7.2,3.8c0.4,0.1,0.9,0.1,1.4,0.1c2.5-0.1,4.9-1,6.9-2.5c0.5-0.3,0.9-0.8,1.3-1.2
			c0.1-0.2,0.3-0.3,0.6-0.4c0.2,0,0.4,0.1,0.5,0.2c1.7,1,3.4,1.9,5.1,2.8l0,0c3.2,1.8,6.4,3.6,9.6,5.4c1.2,0.7,1.9,2,1.9,3.4
			c0,0.7,0,1.4,0,2.1c0,0.1,0,0.3,0,0.4c0,2-1.5,3.8-3.5,4.1c-2.1,0.4-4.2,0.7-6.3,0.9v-6.1c0-2.5-2-4.5-4.5-4.5h-21.9
			c-2.5,0-4.5,2-4.5,4.5L1912.3,485L1912.3,485z"/>
		<path id="Path_661-2" class="st8" d="M1914.7,445.6c0-2.4,0.4-4.7,1.3-6.9c1.5-3.6,4.8-6.1,8.7-6.5c2.4-0.4,4.8-0.2,7,0.6
			c3.6,1.2,6.3,4.3,7,8c1.7,7.2-0.1,14.8-4.9,20.5c-1.2,1.5-2.7,2.5-4.5,3.1c-2.9,1-5.5,0.1-7.7-1.8c-2.5-2.2-4.3-5-5.3-8.1
			C1915.2,451.7,1914.7,448.6,1914.7,445.6z"/>
		<path id="Path_702-2" class="st4" d="M1919,446.6c0-1.5,0.3-3.1,0.9-4.5c1-2.3,3.1-4,5.7-4.2c1.5-0.3,3.1-0.1,4.6,0.4
			c2.4,0.8,4.1,2.8,4.5,5.2c1.1,4.7-0.1,9.7-3.2,13.4c-0.8,0.9-1.8,1.7-2.9,2c-1.8,0.6-3.7,0.1-5-1.2c-1.6-1.4-2.8-3.2-3.5-5.3
			C1919.3,450.5,1919,448.6,1919,446.6z"/>
		<g id="Group_3969" transform="translate(570.928 477.183)">
			<path id="Subtraction_2" class="st2" d="M1366.3,16.8h-9.8c-3.2,0-6.5,0-9.8,0c-0.8,0-1.5-0.4-2-1c-0.5-0.5-0.7-1.2-0.7-2v-0.2
				c0-3.5,0-7.1,0-10.7c0-1.3,0.8-2.4,2-2.8c0.3-0.1,0.6-0.1,0.9-0.1h19.1c0.1,0,0.2,0,0.2,0c1.4,0.1,2.6,1.2,2.7,2.6v11.7
				c-0.1,1.2-1,2.1-2.1,2.5C1366.7,16.7,1366.5,16.8,1366.3,16.8z M1345.9,6.6c-0.1,0-0.1,0-0.2,0c0,0.1-0.1,0.1,0,0.2
				c0,1.6,0,3.3,0,4.9c0,0.6,0,1.3,0,1.9c-0.1,0.7,0.5,1.4,1.2,1.4c0.1,0,0.1,0,0.2,0h18.8c0.7,0.1,1.4-0.5,1.4-1.2
				c0-0.1,0-0.1,0-0.2c0-0.6,0-1.2,0-1.8v-0.1c0-1.6,0-3.3,0-4.9c0-0.1,0-0.1,0-0.2c-0.1,0-0.1-0.1-0.2,0c-2.4,0-4.8,0-7,0h-7.1
				C1350.8,6.6,1348.4,6.6,1345.9,6.6z M1349.8,2.2c-0.9,0-1.8,0-2.7,0c-0.7,0-1.4,0.5-1.4,1.2c0,0.1,0,0.1,0,0.2c0,0.1,0,0.2,0,0.3
				c0,0.2,0,0.4,0,0.6c0,0.1,0,0.1,0,0.2c0,0,0.1,0.1,0.2,0.1l0,0c2.6,0,5.3,0,7.9,0h12.8c0.2,0,0.4,0,0.5,0l0,0h0.1V4.7
				c0-0.3,0-0.5,0-0.8c0-0.4-0.1-0.8-0.4-1.1s-0.7-0.5-1.2-0.5l0,0c-1.8,0-3.7,0-6.2,0h-3.5l0,0h-3.3L1349.8,2.2L1349.8,2.2z
				 M1351.1,13.6h-3.3c-0.3,0-0.4-0.1-0.4-0.4c0-0.1,0-0.3,0-0.4s0-0.3,0-0.4c0-0.1,0-0.2,0.1-0.3s0.1-0.1,0.2-0.1
				c0.8,0,1.6,0,2.4,0c0.7,0,1.4,0,2.2,0c0.2,0,0.3,0.1,0.3,0.3c0,0.3,0,0.5,0,0.8s-0.1,0.4-0.4,0.4L1351.1,13.6z M1361,13.6
				c-1.1,0-2.1-0.9-2.1-2s0.8-1.9,1.8-2.1c0.1,0,0.2,0,0.3,0c0.4,0,0.8,0.1,1.1,0.3h0.1c0,0,0.1,0,0.1-0.1c0.3-0.2,0.7-0.3,1.1-0.3
				c0.8,0,1.6,0.5,1.9,1.3c0.3,0.6,0.2,1.3-0.2,1.9c-0.4,0.6-1.1,1-1.9,1l0,0c-0.3,0-0.7-0.1-0.9-0.3c0,0-0.1-0.1-0.2-0.1
				s-0.1,0-0.2,0.1S1361.4,13.5,1361,13.6L1361,13.6z"/>
		</g>
	</g>
</g>
<rect id="Rectangle_590-3" x="1408" class="st16" width="64" height="64"/>
<g id="Group_7716" transform="translate(-62.977 -231.549)">
	<path id="Path_2746" class="st1" d="M1474.2,264h57.8l-29-29.8l-28.3,27.6L1474.2,264z"/>
	<path id="Path_2747" class="st23" d="M1532,261l-2.6-2.6l-4.6-4.6c-1.4-1.4-2.8-2.8-4.2-4.2l-0.1-0.1l-10.1-10.1
		c-1.6-1.6-3.2-3.2-4.8-4.8l0,0l0,0c-0.3-0.3-0.6-0.6-0.9-0.9c-1.4-1.5-2-1.4-3.4,0c-9.1,9.2-18.3,18.4-27.5,27.6
		c-0.9,0.9-1.1,1.7-0.4,2.4c0.7,0.7,1.4,0.6,2.4-0.4c8.9-8.9,17.9-17.9,26.8-26.8c0.4-0.4,0.6-0.4,1,0c8.9,9,17.9,17.9,26.8,26.8
		c1.1,1.1,1.8,1,2.7-0.2v-0.9C1532.7,261.7,1532.4,261.3,1532,261z"/>
	<path id="Path_2748" class="st23" d="M1524.5,262.5c0-0.8-0.7-1.4-1.5-1.3c-0.8,0-1.4,0.6-1.4,1.3c0,0.2,0,0.5,0,0.7
		c0,8.7,0,17.3,0,26c0.2,1.7-1.1,3.2-2.8,3.4c-0.2,0-0.4,0-0.5,0c-2.5-0.1-5,0-7.4,0c-0.1,0-0.3,0-0.4,0h-3.4c-0.1,0-0.2,0-0.3,0
		c-2.5,0-5,0-7.4,0c-0.1,0-0.2,0-0.4,0h-3.3c-0.1,0-0.2,0.1-0.4,0c-2.6,0-5.2,0-7.8,0c-0.3,0-0.7,0-1-0.1c-1.3-0.4-2.2-1.7-2-3
		c0-8.9,0-17.7,0-26.6c0-1.1-0.5-1.7-1.4-1.7s-1.4,0.6-1.4,1.6c0,9,0,18,0,27c0,2.6,1.8,4.8,4.2,5.5c0.2,0.1,0.5,0,0.7,0.2h0.1
		c0.3-0.1,0.5-0.1,0.8-0.1c10.4,0,20.8,0,31.2,0c0.3,0,0.5,0,0.8,0c2.9-0.3,5.1-2.8,5.1-5.7c0-8.9,0-17.9,0-26.8
		C1524.5,262.8,1524.5,262.6,1524.5,262.5z"/>
</g>
<path id="ic_account_circle_24px-2" class="st1" d="M1440.1,35c2.5,0,4.6,2,4.6,4.6s-2,4.6-4.6,4.6s-4.6-2-4.6-4.6l0,0
	C1435.6,37.1,1437.6,35,1440.1,35L1440.1,35z M1440.1,55.4c-2.7,0-9.2-1-9.1-5.2c0-3,6.1-4.7,9.1-4.7s9.1,1.7,9.1,4.7
	C1449.3,54.6,1442.8,55.4,1440.1,55.4z"/>
<rect id="Rectangle_590-4" x="1472" class="st16" width="64" height="64"/>
<g id="Group_7718" transform="translate(1.594 -0.5)">
	<path id="Path_2749" class="st24" d="M1488.2,37.8c2.3,0,4.6,0.4,6.7,1.4c5.1,2.2,10.3,4.4,15.4,6.7c0.5,0.3,1.1,0.2,1.6-0.2
		c4.5-2.8,9-5.6,13.6-8.4c1.7-1.2,3.9-1.2,5.6,0c3,2,3,6,0,8.3c-3.2,2.5-6.5,4.9-9.7,7.3c-3.5,2.7-7,5.3-10.5,8
		c-2.4,2-5.7,2.5-8.5,1.3c-5-1.8-10-3.5-15-5.3c-2.8-1.1-6-0.7-8.4,1.2c-1.3,1-2.7,2-4,2.9c-0.8,0.6-1.5,0.7-2.2-0.1
		c-0.6-0.8-0.1-1.5,0.6-2c1.6-1.2,3.1-2.4,4.7-3.4c3-2,6.7-2.4,10.1-1.1c5,1.8,10.1,3.5,15.1,5.4c2,0.8,4.3,0.5,6-1
		c6.6-5.1,13.3-10.1,20-15.1c1.5-1.1,1.8-2.4,1-3.6c-0.8-1.2-2.1-1.3-3.6-0.3c-4.3,2.6-8.5,5.3-12.8,7.9c-0.6,0.3-0.8,0.6-0.6,1.4
		c0.8,2.4-0.5,4.9-2.9,5.7c-1,0.3-2,0.3-2.9,0c-4.1-1.1-8.1-2.4-12.2-3.6c-0.9-0.3-1.8-0.6-1.5-1.8c0.3-1.1,1.3-1,2.2-0.7
		c4.1,1.2,8.1,2.4,12.2,3.6c1,0.4,2.1,0,2.5-1c0,0,0,0,0-0.1c0.5-0.8,0.2-1.9-0.7-2.4c-0.1,0-0.1-0.1-0.2-0.1
		c-5.9-2.9-11.9-5.4-18.1-7.7c-3-1.1-6.2-0.6-9.1,0.7c-2.6,1.1-5.1,2.1-7.7,3.2c-1,0.4-1.9,0.6-2.3-0.6c-0.4-1.1,0.5-1.6,1.4-1.9
		c3.7-1.4,7.2-3.4,11.1-4.2C1486.1,37.9,1487.1,37.8,1488.2,37.8z"/>
	<path id="Path_2753" class="st25" d="M1504.5,9.7c0,0,6.5,3.2,7.5,12.1s-4.6,9.3-4.6,9.3l-10.4,0.4l-5.2-2.9l-1-4l1.8-7.6l3.2-5.2
		l3.6-2.9l-2.4-6.3l5.3-0.3l4.4,0.3l-0.6,3.6L1504.5,9.7z"/>
	<path id="Path_2751-2" class="st26" d="M1512.8,21.5c-0.2-0.9-0.4-1.9-0.7-2.8c-0.9-2.9-2.4-5.6-4.4-7.9c-0.5-0.6-1.1-1.1-1.7-1.6
		c-0.3-0.2-0.7-0.4-1-0.6c-0.1,0-0.1-0.1-0.1-0.2c0.2-0.3,0.3-0.6,0.5-0.9c0.7-1.2,1.3-2.3,2-3.5l0,0l-0.2,0.4
		c0.1-0.1,0.4-0.7,0.4-0.8c0.2-0.2,0.2-0.5,0.2-0.8c-0.2-0.1-0.4-0.2-0.7-0.3l0,0l0,0c-5.1-2.2-11.3-0.1-11.3-0.1
		c-0.3,0.3-0.3,0.8-0.1,1.1c0.9,1.6,1.8,3.1,2.7,4.7c0.2,0.3,0.2,0.3-0.1,0.4c-0.7,0.4-1.3,0.9-1.9,1.4c-0.9,0.8-1.6,1.7-2.3,2.7
		c-1.3,1.9-2.3,4-2.9,6.2c-0.3,1.1-0.6,2.3-0.8,3.5c-0.1,0.7-0.1,1.3-0.1,2c0,0.8,0.1,1.7,0.3,2.5c0.4,1.6,1.4,3,2.9,3.9
		c1.5,0.7,3.1,1.2,4.8,1.3c0.5,0.1,1.1,0.1,1.6,0.1c0.2,0,0.4,0,0.6,0h2.3c0.1,0,0.1,0,0.2,0c0.2,0,0.3,0,0.5,0
		c0.8,0,1.6-0.1,2.4-0.2c0.8-0.1,1.5-0.3,2.3-0.5c2.7-0.7,4.7-3,4.9-5.8c0-0.4,0-0.9,0-1.3C1513.1,23.5,1513,22.5,1512.8,21.5z
		 M1497.9,4.4l-0.6-1.1l0,0l0.6-0.1l0,0c0.2,0,0.4-0.1,0.6-0.1c0.5-0.1,1-0.1,1.5-0.2c2-0.2,4.1,0,6.1,0.6l-0.2,0.5l-2.2,4.1
		c-1.3-0.4-2.7-0.4-4,0L1497.9,4.4z M1511.3,27.2c-0.5,1.3-1.6,2.3-2.9,2.8c-0.8,0.3-1.7,0.5-2.6,0.6c-1.1,0.1-2.1,0.2-3.2,0.2
		s-2.1,0-3.2,0c-1.5,0-3-0.3-4.4-0.7c-1.1-0.4-2.1-1.2-2.7-2.2c-0.3-0.5-0.5-1.1-0.6-1.8c-0.1-0.8-0.1-1.5-0.1-2.3
		c0-0.9,0.2-1.8,0.4-2.7c0.5-2.1,1.2-4.2,2.3-6.1c0.5-1,1.2-1.9,1.9-2.7c0.8-1,1.7-1.8,2.8-2.4l0,0c1.5-0.9,3.3-1,4.9-0.2
		c0.1,0,0.1,0.1,0.2,0.1c1,0.5,1.9,1.2,2.7,2.1c1,1.2,1.9,2.5,2.6,3.9c0.8,1.5,1.4,3.2,1.8,4.8c0.2,0.7,0.3,1.3,0.4,2
		c0.1,0.6,0.1,1.3,0.1,2C1511.8,25.4,1511.6,26.3,1511.3,27.2z"/>
</g>
<rect id="Rectangle_590-5" x="1536" class="st16" width="64" height="64"/>
<rect id="Rectangle_590-6" x="1600" class="st16" width="64" height="64"/>
<rect id="Rectangle_590-7" x="1664" class="st16" width="64" height="64"/>
<g id="Subtraction_15" transform="translate(-4793.001 8794)">
	<path class="st1" d="M6383-8737h-45c-2.2,0-4-1.8-4-4v-34c0-2.2,1.8-4,4-4h4v6c0,1.7,1.3,3,3,3h5c1.7,0,3-1.3,3-3v-6h14v6
		c0,1.7,1.3,3,3,3h5c1.7,0,3-1.3,3-3v-6h5c2.2,0,4,1.8,4,4v34C6387-8738.8,6385.2-8737,6383-8737z"/>
	<path class="st1" d="M6383-8738c1.7,0,3-1.3,3-3v-34c0-1.7-1.3-3-3-3h-4v5c0,2.2-1.8,4-4,4h-5c-2.2,0-4-1.8-4-4v-5h-12v5
		c0,2.2-1.8,4-4,4h-5c-2.2,0-4-1.8-4-4v-5h-3c-1.7,0-3,1.3-3,3v34c0,1.7,1.3,3,3,3H6383 M6383-8736h-45c-2.8,0-5-2.2-5-5v-34
		c0-2.8,2.2-5,5-5h5v7c0,1.1,0.9,2,2,2h5c1.1,0,2-0.9,2-2v-7h16v7c0,1.1,0.9,2,2,2h5c1.1,0,2-0.9,2-2v-7h6c2.8,0,5,2.2,5,5v34
		C6388-8738.2,6385.8-8736,6383-8736z"/>
</g>
<path id="Rectangle_3056" d="M1554,6h1c1.1,0,2,0.9,2,2v11c0,1.1-0.9,2-2,2h-1c-1.1,0-2-0.9-2-2V8C1552,6.9,1552.9,6,1554,6z"/>
<path id="Rectangle_3057" d="M1579,6h1c1.1,0,2,0.9,2,2v11c0,1.1-0.9,2-2,2h-1c-1.1,0-2-0.9-2-2V8C1577,6.9,1577.9,6,1579,6z"/>
<rect id="Rectangle_3058" x="1549" y="29" class="st4" width="14" height="8"/>
<rect id="Rectangle_3061" x="1549" y="40" class="st4" width="14" height="8"/>
<rect id="Rectangle_3059" x="1571" y="29" class="st4" width="14" height="8"/>
<rect id="Rectangle_3060" x="1571" y="40" class="st4" width="14" height="8"/>
<g id="Group_7736-2" transform="translate(-5480.98 8781.69)">
	<g id="Group_4088-2" transform="translate(0.006 -71.69)">
		<g id="Rectangle_589-2" transform="translate(-0.026 0)">
			<path class="st1" d="M7089-8701h14c1.1,0,2,0.9,2,2v15c0,1.1-0.9,2-2,2h-14c-1.1,0-2-0.9-2-2v-15
				C7087-8700.1,7087.9-8701,7089-8701z"/>
			<path class="st12" d="M7089-8699.5h14c0.3,0,0.5,0.2,0.5,0.5v15c0,0.3-0.2,0.5-0.5,0.5h-14c-0.3,0-0.5-0.2-0.5-0.5v-15
				C7088.5-8699.3,7088.7-8699.5,7089-8699.5z"/>
		</g>
		<g id="Rectangle_591-2" transform="translate(-0.026 27)">
			<path class="st1" d="M7089-8701h14c1.1,0,2,0.9,2,2v15c0,1.1-0.9,2-2,2h-14c-1.1,0-2-0.9-2-2v-15
				C7087-8700.1,7087.9-8701,7089-8701z"/>
			<path class="st12" d="M7089-8699.5h14c0.3,0,0.5,0.2,0.5,0.5v15c0,0.3-0.2,0.5-0.5,0.5h-14c-0.3,0-0.5-0.2-0.5-0.5v-15
				C7088.5-8699.3,7088.7-8699.5,7089-8699.5z"/>
		</g>
		<g id="Group_4087-3" transform="translate(23.746 4.613)">
			<path id="Path_648-3" class="st18" d="M7087-8701h28.6"/>
			<path id="Path_649-3" class="st19" d="M7087-8692h20.1"/>
		</g>
	</g>
	<g id="Group_4089-2" transform="translate(-0.398 -45.065)">
		<g id="Group_4087-4" transform="translate(24.15 4.101)">
			<path id="Path_648-4" class="st18" d="M7087-8701h28.6"/>
			<path id="Path_649-4" class="st19" d="M7087-8692h20.1"/>
		</g>
		<path id="Path_2754" class="st20" d="M7093-8717.3l2.4,2l4-5.8"/>
		<path id="Path_2755" class="st20" d="M7093-8690.3l2.4,2l4-5.8"/>
	</g>
</g>
<g id="Group_7737-2" transform="translate(1477.221 -33)">
	<path id="Subtraction_7-2" class="st27" d="M198.8,39v51.9h39.8V39H198.8z"/>
</g>
<rect id="Rectangle_3063" x="1682" y="19" class="st4" width="28" height="4"/>
<rect id="Rectangle_3064" x="1682" y="39" class="st4" width="28" height="4"/>
<line id="Line_129" class="st28" x1="1682.5" y1="30.5" x2="1710.5" y2="30.5"/>
<line id="Line_130" class="st28" x1="1682.5" y1="34.5" x2="1710.5" y2="34.5"/>
<line id="Line_131" class="st28" x1="1682.5" y1="49.5" x2="1710.5" y2="49.5"/>
<circle id="Ellipse_222" class="st4" cx="1696.5" cy="13.5" r="3.5"/>
<g>
	<g>
		<defs>
			<rect id="SVGID_1_" width="64" height="64"/>
		</defs>
		<clipPath id="SVGID_00000046311558124917365730000013798547470137716402_">
			<use xlink:href="#SVGID_1_"  style="overflow:visible;"/>
		</clipPath>
		<g style="clip-path:url(#SVGID_00000046311558124917365730000013798547470137716402_);">
			<g>
				<polygon class="st30" points="20,43.9 20,42 19.2,42 19.2,41.1 21.8,41.1 21.8,42 21.1,42 21.1,43.9 				"/>
				<polygon class="st30" points="25.3,43.9 25.3,42 24.5,42 24.5,41.1 27.1,41.1 27.1,42 26.4,42 26.4,43.9 				"/>
				<polygon class="st30" points="21.5,43.9 22.6,41.1 23.8,41.1 24.8,43.9 23.7,43.9 23.2,42.3 22.6,43.9 				"/>
				<polygon class="st30" points="26.8,43.9 27.9,41.1 29.1,41.1 30.1,43.9 29,43.9 28.5,42.3 27.9,43.9 				"/>
				<path class="st30" d="M16.8,41.6l-0.5,1.3h0.9L16.8,41.6z M16.5,41.1h0.7l1.1,2.8h-0.6l-0.2-0.7h-1.2l-0.2,0.7h-0.5L16.5,41.1z"
					/>
				<path class="st30" d="M31.6,41.5v0.9h0.2c0.2,0,0.3,0,0.4-0.1s0.1-0.2,0.1-0.3s0-0.3-0.1-0.3c-0.1-0.1-0.2-0.1-0.4-0.1h-0.2
					V41.5z M31.1,41.1h0.8c0.4,0,0.6,0.1,0.8,0.2c0.2,0.1,0.3,0.4,0.3,0.7s-0.1,0.5-0.3,0.6c-0.2,0.2-0.4,0.2-0.8,0.2h-0.3v1.1h-0.5
					C31.1,43.9,31.1,41.1,31.1,41.1z M33.9,41.5v0.8h0.3c0.2,0,0.3,0,0.4-0.1c0.1-0.1,0.1-0.2,0.1-0.3c0-0.2,0-0.3-0.1-0.3
					c-0.1-0.1-0.2-0.1-0.4-0.1C34.2,41.5,33.9,41.5,33.9,41.5z M33.4,41.1h0.9c0.3,0,0.6,0.1,0.8,0.2c0.2,0.1,0.3,0.3,0.3,0.5
					s0,0.3-0.1,0.4c-0.1,0.1-0.2,0.2-0.4,0.2c0.1,0,0.1,0.1,0.2,0.1c0,0.1,0.1,0.2,0.2,0.3l0.4,1h-0.6L34.8,43
					c0-0.1-0.1-0.2-0.2-0.3c-0.1,0-0.2-0.1-0.3-0.1h-0.2v1.2h-0.5v-2.7C33.6,41.1,33.4,41.1,33.4,41.1z M37,41.5
					c-0.2,0-0.4,0.1-0.5,0.3s-0.2,0.4-0.2,0.8c0,0.3,0.1,0.6,0.2,0.8c0.1,0.2,0.3,0.3,0.5,0.3s0.4-0.1,0.6-0.3
					c0.1-0.2,0.2-0.4,0.2-0.8c0-0.3-0.1-0.6-0.2-0.8C37.4,41.6,37.2,41.5,37,41.5 M37,41.1c0.4,0,0.7,0.1,1,0.4
					c0.2,0.3,0.4,0.6,0.4,1.1s-0.1,0.8-0.3,1.1s-0.6,0.4-1,0.4s-0.7-0.1-1-0.4c-0.2-0.3-0.3-0.6-0.3-1.1s0.1-0.8,0.4-1.1
					C36.3,41.2,36.6,41.1,37,41.1 M39.3,41.5v2h0.3c0.3,0,0.5-0.1,0.7-0.3s0.3-0.4,0.3-0.7s-0.1-0.6-0.3-0.7
					c-0.2-0.2-0.4-0.2-0.7-0.2L39.3,41.5L39.3,41.5z M38.8,41.1h0.8c0.2,0,0.4,0,0.6,0.1c0.2,0,0.3,0.1,0.4,0.2
					c0.2,0.1,0.3,0.3,0.4,0.5c0.1,0.2,0.1,0.4,0.1,0.7S41,43.1,41,43.3c-0.1,0.2-0.2,0.4-0.5,0.5c-0.1,0.1-0.3,0.1-0.4,0.2
					c-0.2,0-0.4,0.1-0.6,0.1h-0.8L38.8,41.1L38.8,41.1z M41.6,41.1h0.5v1.6c0,0.3,0,0.5,0.1,0.6s0.2,0.2,0.4,0.2s0.3-0.1,0.4-0.2
					c0.1-0.1,0.1-0.3,0.1-0.6v-1.6h0.5v1.6c0,0.4-0.1,0.7-0.3,0.9s-0.5,0.3-0.8,0.3c-0.4,0-0.6-0.1-0.8-0.3s-0.3-0.5-0.3-0.9v-1.6
					H41.6z M46.6,41.2v0.4l0,0c-0.3-0.1-0.5-0.1-0.6-0.1c-0.3,0-0.5,0.1-0.7,0.3S45,42.2,45,42.6c0,0.3,0.1,0.5,0.3,0.7
					s0.4,0.3,0.7,0.3c0.1,0,0.3,0,0.5-0.1c0.1,0,0.1,0,0.2-0.1v0.4h-0.1C46.2,43.9,46,44,45.9,44c-0.5,0-0.9-0.1-1.1-0.4
					c-0.3-0.3-0.4-0.6-0.4-1s0.1-0.8,0.4-1.1c0.3-0.3,0.6-0.4,1.1-0.4C46,41.1,46.2,41.1,46.6,41.2C46.5,41.2,46.5,41.2,46.6,41.2
					 M46.7,41.1h2v0.4H48v2.4h-0.5v-2.4h-0.7L46.7,41.1L46.7,41.1z"/>
			</g>
		</g>
	</g>
	<g>
		<defs>
			<rect id="SVGID_00000065073664972273855540000006286341342690747306_" width="64" height="64"/>
		</defs>
		<clipPath id="SVGID_00000028321552343707850110000018083873285532396428_">
			<use xlink:href="#SVGID_00000065073664972273855540000006286341342690747306_"  style="overflow:visible;"/>
		</clipPath>
		<g style="clip-path:url(#SVGID_00000028321552343707850110000018083873285532396428_);">
			<g>
				
					<linearGradient id="SVGID_00000180342485241568287560000004651465449070261418_" gradientUnits="userSpaceOnUse" x1="31.95" y1="1031.7917" x2="31.95" y2="1052.2712" gradientTransform="matrix(1 0 0 1 0 -1014)">
					<stop  offset="8.912825e-02" style="stop-color:#7B4534"/>
					<stop  offset="0.2621" style="stop-color:#A67565"/>
					<stop  offset="0.3476" style="stop-color:#BC8F7F"/>
					<stop  offset="0.4028" style="stop-color:#C19584"/>
					<stop  offset="0.4767" style="stop-color:#D0A693"/>
					<stop  offset="0.5609" style="stop-color:#E9C2AB"/>
					<stop  offset="0.5641" style="stop-color:#EAC3AC"/>
					<stop  offset="0.8114" style="stop-color:#B4775B"/>
					<stop  offset="1" style="stop-color:#6F3F28"/>
				</linearGradient>
				<path style="fill-rule:evenodd;clip-rule:evenodd;fill:url(#SVGID_00000180342485241568287560000004651465449070261418_);" d="
					M63,35.6c-0.3-0.3-0.6-0.7-0.9-1.6l-5.3-13.7l0,0L56.5,21l-0.4,1.1l0,0l-3.8,10.3c-0.6,1.6-1.1,2.8-1.5,3.1
					c-0.3,0.3-0.7,0.5-1.2,0.5v0.1c0.4,0,1.1,0,1.5,0s1.3,0,1.7,0V36c-0.4,0-0.8-0.1-0.8-0.5s0.2-0.9,0.4-1.4l1.5-4.1
					c0.9,0,2.2,0,2.9,0c0.6,0,1.4,0,2.3,0c0.1,0,0.2,0,0.2,0l1.6,4.4c0.1,0.3,0.3,0.6,0.3,1c0,0.3-0.3,0.6-1,0.6v0.1
					c0.5,0,1.5,0,2,0c0.7,0,1.1,0,1.7,0V36C63.7,36,63.3,35.9,63,35.6z M58.8,29.4c-0.8,0-1.7,0-2.1,0c-0.7,0-1.8,0-2.6,0l2.4-6.4
					l0.1-0.2l2.5,6.7C59,29.4,58.9,29.4,58.8,29.4z M47.3,20.3L47.3,20.3c-0.5,0-1.1-0.1-1.5-0.1v0.1c0.3,0,0.6,0.2,0.6,0.5
					c0,0.4-0.2,0.7-0.7,1.5L42.3,28l-3.6-5.6c-0.5-0.7-0.7-1.1-0.7-1.5v-0.1c0.1-0.3,0.3-0.4,0.5-0.4v-0.1c-0.5,0-1.6,0.1-2.1,0.1
					l0,0c-0.6,0-1.2-0.1-1.8-0.1v0.1c0.3,0,0.8,0.1,1.1,0.3c0.1,0,0.1,0.1,0.2,0.1c0.4,0.3,0.7,0.8,1.4,1.9l4,6.3c0,1.6,0,4-0.1,5.8
					c0,0.5-0.1,0.9-0.3,1.1c-0.2,0.2-0.5,0.2-0.8,0.2v0.1c0.6,0,1.2,0,1.7,0h0.1c0.6,0,1.2,0,1.8,0v-0.1c-0.3,0-0.6,0-0.8-0.2
					c-0.3-0.2-0.3-0.7-0.3-1.1c0-0.9,0-4.3,0-5.8l3.8-6.3c0.8-1.3,1.1-1.7,1.6-2c0.3-0.2,0.7-0.3,1.1-0.3v-0.1
					C48.3,20.2,47.9,20.3,47.3,20.3z M24.1,20.2c-4.4,0-7.6,3.7-7.6,8s3.2,7.9,7.8,7.9c4.4,0,7.6-3.7,7.6-8.1
					C31.9,23.7,28.7,20.2,24.1,20.2z M24.3,35.5c-4.1,0-6.3-3.7-6.3-7.6c0-3.8,2.2-7.1,6.2-7.1c4.2,0,6.4,3.7,6.4,7.5
					C30.5,32.2,28.2,35.5,24.3,35.5z M13.1,33.6c-0.2,0.7-0.6,1.3-1.3,1.6c-1,0.4-2.4,0.4-3.4,0.4c-2,0-4.1,0-6.1,0l10-14.7
					c-2.9,0-5.8,0-8.8,0c-0.3,0-1.4,0-2-0.1c-0.4,0-0.6-0.2-0.6-0.4c0-0.1,0-0.2,0-0.3H0.8c-0.1,0.3-0.2,0.7-0.3,1l0,0
					c-0.2,0.5-0.3,1-0.5,1.5h0.1c0.1-0.3,0.2-0.6,0.5-0.8c0.3-0.3,0.7-0.3,1.1-0.4c1.3-0.1,2.6-0.1,3.9-0.1c1.6,0,3.2,0,4.7,0
					L0.3,36c3.2,0,6.4,0,9.6,0c0.7,0,2,0,2.6-0.5C13.1,35.2,13.1,34.3,13.1,33.6L13.1,33.6z"/>
				
					<linearGradient id="SVGID_00000035525030148746496370000001922023942979113880_" gradientUnits="userSpaceOnUse" x1="-3.411" y1="1035.9927" x2="13.5748" y2="1035.9126" gradientTransform="matrix(1 0 0 1 0 -1014)">
					<stop  offset="8.912825e-02" style="stop-color:#7B4534"/>
					<stop  offset="0.2621" style="stop-color:#A67565"/>
					<stop  offset="0.3476" style="stop-color:#BC8F7F"/>
					<stop  offset="0.4028" style="stop-color:#C19584"/>
					<stop  offset="0.4767" style="stop-color:#D0A693"/>
					<stop  offset="0.5609" style="stop-color:#E9C2AB"/>
					<stop  offset="0.5641" style="stop-color:#EAC3AC"/>
					<stop  offset="0.8114" style="stop-color:#B4775B"/>
					<stop  offset="1" style="stop-color:#6F3F28"/>
				</linearGradient>
				<path style="fill-rule:evenodd;clip-rule:evenodd;fill:url(#SVGID_00000035525030148746496370000001922023942979113880_);" d="
					M11.2,21.1l-0.9,0.4c-1.5,0-3.1,0-4.7,0c-1.3,0-2.7,0-3.9,0.1c-0.4,0-0.8,0.1-1.1,0.4c-0.3,0.2-0.4,0.5-0.5,0.8H0
					c0.2-0.5,0.3-1,0.5-1.5l0,0h10.7V21.1z"/>
				
					<linearGradient id="SVGID_00000151546024691381951060000008376551363507303564_" gradientUnits="userSpaceOnUse" x1="20.0284" y1="1032.2704" x2="-12.0203" y2="1056.3871" gradientTransform="matrix(1 0 0 1 0 -1014)">
					<stop  offset="8.912825e-02" style="stop-color:#7B4534"/>
					<stop  offset="0.2621" style="stop-color:#A67565"/>
					<stop  offset="0.3476" style="stop-color:#BC8F7F"/>
					<stop  offset="0.4028" style="stop-color:#C19584"/>
					<stop  offset="0.4767" style="stop-color:#D0A693"/>
					<stop  offset="0.5609" style="stop-color:#E9C2AB"/>
					<stop  offset="0.5641" style="stop-color:#EAC3AC"/>
					<stop  offset="0.8114" style="stop-color:#B4775B"/>
					<stop  offset="1" style="stop-color:#6F3F28"/>
				</linearGradient>
				
					<polygon style="fill-rule:evenodd;clip-rule:evenodd;fill:url(#SVGID_00000151546024691381951060000008376551363507303564_);" points="
					12.2,20.8 11.2,21.1 1.2,35.9 2.2,35.5 				"/>
				
					<linearGradient id="SVGID_00000085949573901100166580000009365935851237012641_" gradientUnits="userSpaceOnUse" x1="19.2048" y1="1048.7278" x2="-5.5528" y2="1049.2887" gradientTransform="matrix(1 0 0 1 0 -1014)">
					<stop  offset="8.912825e-02" style="stop-color:#7B4534"/>
					<stop  offset="0.2621" style="stop-color:#A67565"/>
					<stop  offset="0.3476" style="stop-color:#BC8F7F"/>
					<stop  offset="0.4028" style="stop-color:#C19584"/>
					<stop  offset="0.4767" style="stop-color:#D0A693"/>
					<stop  offset="0.5609" style="stop-color:#E9C2AB"/>
					<stop  offset="0.5641" style="stop-color:#EAC3AC"/>
					<stop  offset="0.8114" style="stop-color:#B4775B"/>
					<stop  offset="1" style="stop-color:#6F3F28"/>
				</linearGradient>
				<path style="fill-rule:evenodd;clip-rule:evenodd;fill:url(#SVGID_00000085949573901100166580000009365935851237012641_);" d="
					M13.1,33.6c0,0.7-0.1,1.6-0.7,2.1c-0.6,0.5-1.9,0.5-2.6,0.5c-3.2,0-6.4,0-9.6,0L1.1,36c0,0,8.8,0,9.3,0s1.5-0.2,2-0.7
					C13,34.7,13.1,33.9,13.1,33.6L13.1,33.6z"/>
				
					<linearGradient id="SVGID_00000024712033492734660150000005148946944675868589_" gradientUnits="userSpaceOnUse" x1="-1.1331" y1="1036.2593" x2="67.4496" y2="1052.3237" gradientTransform="matrix(1 0 0 1 0 -1014)">
					<stop  offset="8.912825e-02" style="stop-color:#7B4534"/>
					<stop  offset="0.2621" style="stop-color:#A67565"/>
					<stop  offset="0.3476" style="stop-color:#BC8F7F"/>
					<stop  offset="0.4028" style="stop-color:#C19584"/>
					<stop  offset="0.4767" style="stop-color:#D0A693"/>
					<stop  offset="0.5609" style="stop-color:#E9C2AB"/>
					<stop  offset="0.5641" style="stop-color:#EAC3AC"/>
					<stop  offset="0.8114" style="stop-color:#B4775B"/>
					<stop  offset="1" style="stop-color:#6F3F28"/>
				</linearGradient>
				
					<path style="opacity:0.5;fill-rule:evenodd;clip-rule:evenodd;fill:url(#SVGID_00000024712033492734660150000005148946944675868589_);enable-background:new    ;" d="
					M24.1,20.6c-4,0-6.9,3.5-6.9,7.7c0,4.1,3,7.5,7.1,7.5c4,0,7-3.5,7-7.7C31.3,23.9,28.3,20.6,24.1,20.6z M24.3,35.5
					c-4.1,0-6.3-3.7-6.3-7.6c0-3.8,2.2-7.1,6.2-7.1c4.2,0,6.4,3.7,6.4,7.5C30.5,32.2,28.2,35.5,24.3,35.5z"/>
				
					<linearGradient id="SVGID_00000165200638961718020930000005536227295097481383_" gradientUnits="userSpaceOnUse" x1="30.244" y1="1034.5353" x2="46.3526" y2="1050.1584" gradientTransform="matrix(1 0 0 1 0 -1014)">
					<stop  offset="8.912825e-02" style="stop-color:#7B4534"/>
					<stop  offset="0.2621" style="stop-color:#A67565"/>
					<stop  offset="0.3476" style="stop-color:#BC8F7F"/>
					<stop  offset="0.4028" style="stop-color:#C19584"/>
					<stop  offset="0.4767" style="stop-color:#D0A693"/>
					<stop  offset="0.5609" style="stop-color:#E9C2AB"/>
					<stop  offset="0.5641" style="stop-color:#EAC3AC"/>
					<stop  offset="0.8114" style="stop-color:#B4775B"/>
					<stop  offset="1" style="stop-color:#6F3F28"/>
				</linearGradient>
				<path style="fill-rule:evenodd;clip-rule:evenodd;fill:url(#SVGID_00000165200638961718020930000005536227295097481383_);" d="
					M41.8,28.9v7.3c-0.6,0-1.2,0-1.7,0v-0.1c0.3,0,0.6,0,0.8-0.2c0.3-0.2,0.3-0.6,0.3-1.1c0.1-1.8,0.1-4.2,0.1-5.8l-4-6.3
					c-0.7-1.2-1-1.6-1.4-1.9c0,0-0.1-0.1-0.2-0.1c-0.3-0.2-0.7-0.3-1.1-0.3v-0.1c0.6,0,1.2,0.1,1.8,0.1L41.8,28.9z"/>
				
					<linearGradient id="SVGID_00000060023212572782808230000011082683593643732880_" gradientUnits="userSpaceOnUse" x1="51.774" y1="1032.2429" x2="32.2243" y2="1047.5461" gradientTransform="matrix(1 0 0 1 0 -1014)">
					<stop  offset="8.912825e-02" style="stop-color:#7B4534"/>
					<stop  offset="0.2621" style="stop-color:#A67565"/>
					<stop  offset="0.3476" style="stop-color:#BC8F7F"/>
					<stop  offset="0.4028" style="stop-color:#C19584"/>
					<stop  offset="0.4767" style="stop-color:#D0A693"/>
					<stop  offset="0.5609" style="stop-color:#E9C2AB"/>
					<stop  offset="0.5641" style="stop-color:#EAC3AC"/>
					<stop  offset="0.8114" style="stop-color:#B4775B"/>
					<stop  offset="1" style="stop-color:#6F3F28"/>
				</linearGradient>
				<path style="fill-rule:evenodd;clip-rule:evenodd;fill:url(#SVGID_00000060023212572782808230000011082683593643732880_);" d="
					M47.2,20.3l-4.8,7.9L42.3,28l3.4-5.6c0.5-0.8,0.7-1.1,0.7-1.5c0-0.3-0.3-0.5-0.6-0.5v-0.1C46.2,20.2,46.8,20.3,47.2,20.3z"/>
				
					<linearGradient id="SVGID_00000175301989323374557770000015265433610783824284_" gradientUnits="userSpaceOnUse" x1="67.3252" y1="1037.1665" x2="44.9713" y2="1052.0691" gradientTransform="matrix(1 0 0 1 0 -1014)">
					<stop  offset="8.912825e-02" style="stop-color:#7B4534"/>
					<stop  offset="0.2621" style="stop-color:#A67565"/>
					<stop  offset="0.3476" style="stop-color:#BC8F7F"/>
					<stop  offset="0.4028" style="stop-color:#C19584"/>
					<stop  offset="0.4767" style="stop-color:#D0A693"/>
					<stop  offset="0.5609" style="stop-color:#E9C2AB"/>
					<stop  offset="0.5641" style="stop-color:#EAC3AC"/>
					<stop  offset="0.8114" style="stop-color:#B4775B"/>
					<stop  offset="1" style="stop-color:#6F3F28"/>
				</linearGradient>
				<path style="fill-rule:evenodd;clip-rule:evenodd;fill:url(#SVGID_00000175301989323374557770000015265433610783824284_);" d="
					M61.2,35.4c0-0.3-0.2-0.7-0.3-1l-4.4-11.7l-0.4-0.8l0.3-0.9l5.7,15.1c-0.5,0-1.5,0-2,0V36C60.8,36,61.2,35.7,61.2,35.4z"/>
			</g>
		</g>
	</g>
</g>
</svg>
