<?xml version="1.0" encoding="utf-8"?>
<!-- Generator: Adobe Illustrator 26.3.1, SVG Export Plug-In . SVG Version: 6.00 Build 0)  -->
<svg version="1.1" id="Layer_1" xmlns="http://www.w3.org/2000/svg" xmlns:xlink="http://www.w3.org/1999/xlink" x="0px" y="0px"
	 width="108px" height="12px" viewBox="0 0 108 12" style="enable-background:new 0 0 108 12;" xml:space="preserve">
<style type="text/css">
	.st0{clip-path:url(#SVGID_00000170251160746918858110000000672959488509565112_);}
	.st1{fill:none;}
	.st2{fill:none;stroke:#000000;}
	.st3{fill:none;stroke:#000000;stroke-linecap:round;}
	.st4{fill:none;stroke:#000000;stroke-linejoin:round;}
	.st5{fill:#22B598;}
	.st6{fill:#D9BDB1;}
</style>
<g>
	<g>
		<defs>
			<rect id="SVGID_1_" width="108" height="12"/>
		</defs>
		<clipPath id="SVGID_00000137095103698404458950000000211460058330470070_">
			<use xlink:href="#SVGID_1_"  style="overflow:visible;"/>
		</clipPath>
		<g id="icon12x12" style="clip-path:url(#SVGID_00000137095103698404458950000000211460058330470070_);">
			<g id="Group_3441">
				<rect id="Rectangle_215" class="st1" width="12" height="12"/>
				<g id="Group_2185" transform="translate(0.37 0.657)">
					<path id="Path_436" class="st1" d="M2.2,0.1H9l1.5,4.3H0.6L2.2,0.1z"/>
					<g id="Group_753">
						<path id="Path_405" d="M11.2,3.9L11.2,3.9l-1.2-3C9.8,0.3,9.3,0,8.7,0H2.6c-0.5,0-1,0.3-1.3,0.8L0.1,3.9l0,0
							C0,4.2,0,4.6,0.2,4.9s0.6,0.4,0.9,0.4c0.5,0,0.9-0.2,1.3-0.5c0.1-0.1,0.3-0.2,0.5-0.2c0.1,0,0.1,0,0.3,0.2
							c0.3,0.3,0.6,0.4,1,0.4c0.4,0,0.8-0.1,1.1-0.4c0.1-0.1,0.3-0.2,0.4-0.2c0.2,0,0.3,0.1,0.4,0.2C6.4,5,6.8,5.2,7.2,5.2l0,0
							c0.4,0,0.7-0.2,1-0.4c0.2-0.1,0.2-0.2,0.3-0.2s0.2,0,0.2,0.1l0,0v4.6c0,0.1,0,0.2-0.1,0.3C8.5,9.8,8.4,9.8,8.3,9.8H3.1
							c-0.2,0-0.4-0.2-0.4-0.4c0-0.3-0.2-0.5-0.5-0.5C2,8.9,1.7,9.1,1.7,9.4l0,0c0,0.7,0.6,1.3,1.4,1.3h5.2c0.4,0,0.7-0.1,1-0.4
							c0.3-0.2,0.4-0.6,0.4-0.9V5.2c0.2,0.1,0.4,0.1,0.5,0.1c0.4,0,0.7-0.1,0.9-0.4C11.3,4.6,11.3,4.3,11.2,3.9z M10.3,4.4
							c-0.1,0-0.1,0-0.2,0c-0.3,0-0.5-0.1-0.7-0.3c-0.3-0.2-0.6-0.3-1-0.4l0,0C8,3.7,7.7,3.9,7.5,4.1C7.3,4.3,7.2,4.4,7.1,4.4l0,0
							c-0.2,0-0.4-0.1-0.6-0.2C6.3,4,6,3.8,5.6,3.8C5.3,3.8,5,3.9,4.7,4.1C4.6,4.3,4.3,4.3,4.1,4.4c-0.1,0-0.2,0-0.4-0.2
							C3.5,3.9,3.2,3.8,2.9,3.8s-0.7,0.1-1,0.4C1.7,4.3,1.4,4.4,1.1,4.4H1c0-0.1,0-0.1,0-0.2l1.3-3.1c0-0.1,0.2-0.2,0.3-0.2h6.1
							C8.9,0.9,9,1,9.1,1.2l1.2,3C10.3,4.3,10.3,4.3,10.3,4.4L10.3,4.4z"/>
					</g>
					<path id="Path_435" d="M2.6,8c-0.2,0.2-0.2,0.5,0,0.6l0,0C2.7,8.7,2.8,8.7,3,8.7c0.1,0,0.2,0,0.3-0.1l1.2-1.2
						c0.1-0.1,0.1-0.2,0.1-0.3c0-0.1,0-0.2-0.1-0.3L3.3,5.5c-0.2-0.2-0.5-0.2-0.6,0l0,0C2.5,5.7,2.5,6,2.6,6.1l0,0l0.5,0.5H0.9
						C0.7,6.6,0.5,6.8,0.5,7l0,0c0,0.2,0.2,0.4,0.4,0.4l0,0h2.2L2.6,8z"/>
				</g>
			</g>
			<g id="Group_3456" transform="translate(-443 -285)">
				<rect id="Rectangle_216" x="455" y="285" class="st1" width="12" height="12"/>
				<g id="Group_2974" transform="translate(455.188 285.55)">
					<path id="Path_440" d="M11.6,4L11.6,4l-1.3-3.1C10.1,0.3,9.6,0,9,0H2.7c-0.5,0-1,0.3-1.3,0.8L0.1,4l0,0C0,4.3,0,4.7,0.2,5
						s0.6,0.4,0.9,0.4c0.2,0,0.4,0,0.6-0.1v4.2l0,0l0,0c0,0.8,0.7,1.3,1.4,1.3h5.5c0.7,0,1.3-0.6,1.4-1.3l0,0V5.4
						c0.2,0,0.3,0.1,0.5,0.1c0.4,0,0.7-0.1,0.9-0.4C11.6,4.7,11.7,4.3,11.6,4z M9.1,9.5c0,0.2-0.2,0.4-0.5,0.4H3.1
						c-0.2,0-0.5-0.2-0.5-0.4V4.9c0.1-0.1,0.2-0.1,0.3-0.1S3,4.8,3.2,5c0.3,0.3,0.6,0.4,1,0.4C4.7,5.3,5,5.2,5.4,5
						c0.1-0.1,0.3-0.2,0.4-0.2C6,4.8,6.2,4.9,6.3,5C6.6,5.2,7,5.4,7.4,5.4l0,0c0.4,0,0.7-0.2,1-0.4c0.2-0.1,0.3-0.2,0.4-0.2
						c0.1,0,0.2,0.1,0.3,0.1L9.1,9.5z M10.7,4.5c-0.1,0-0.1,0-0.2,0c-0.3,0-0.6-0.1-0.8-0.3C9.4,4,9.1,3.9,8.7,3.8l0,0
						C8.4,3.8,8,4,7.8,4.2C7.6,4.4,7.5,4.5,7.4,4.5l0,0C7.2,4.5,7,4.4,6.8,4.3C6.5,4,6.2,3.9,5.8,3.9C5.5,3.9,5.2,4,4.9,4.2
						C4.7,4.3,4.5,4.4,4.2,4.4c-0.1,0-0.2,0-0.4-0.2C3.6,4,3.3,3.8,2.9,3.8C2.6,3.9,2.3,4,2,4.2C1.7,4.4,1.4,4.5,1.1,4.5
						c-0.1,0-0.1,0-0.2,0c0-0.1,0-0.1,0-0.2l1.3-3.1C2.4,1,2.5,0.9,2.7,0.9H9c0.2,0,0.4,0.1,0.4,0.3l1.2,3.1
						C10.7,4.4,10.7,4.4,10.7,4.5L10.7,4.5z"/>
					<g id="noun_Refresh_2072320" transform="translate(4.172 5.813)">
						<g id="Group_260">
							<path id="Path_62" d="M3.2,0.5L3.2,0.5L3.2,0.5v0.9c0,0,0,0.1-0.1,0.1l0,0l0,0L2.3,1.2l0,0l0,0V1.1l0,0L2.5,1
								C2,0.5,1.4,0.5,0.9,0.9C0.7,1,0.6,1.2,0.6,1.4c0,0.1-0.2,0.2-0.3,0.2l0,0C0.1,1.6,0,1.5,0,1.3c0,0,0,0,0-0.1
								C0.2,0.4,1.1-0.2,2,0c0.3,0.1,0.6,0.3,0.9,0.5H3.2C3.1,0.4,3.1,0.4,3.2,0.5z"/>
							<path id="Path_63" d="M0.1,3L0.1,3C0.1,2.9,0.1,2.9,0.1,3V2.1c0,0,0-0.1,0.1,0l0,0l0,0L1,2.2l0,0l0,0v0.1l0,0L0.8,2.5
								C1.2,2.9,1.9,3,2.3,2.6C2.5,2.4,2.6,2.2,2.7,2c0-0.1,0.2-0.2,0.3-0.2l0,0c0.2,0,0.3,0.1,0.3,0.3l0,0c0,0,0,0,0,0.1
								C3,3,2.1,3.6,1.2,3.4C0.9,3.3,0.6,3.1,0.4,2.8L0.1,3C0.2,3,0.1,3,0.1,3z"/>
						</g>
					</g>
				</g>
			</g>
			<g id="Group_3761" transform="translate(-1276 -101.996)">
				<rect id="Rectangle_253" x="1312" y="102" class="st1" width="12" height="12"/>
				<g id="Rectangle_257" transform="translate(1315.002 104.396)">
					<path class="st1" d="M0.5,0h5C5.8,0,6,0.2,6,0.5v1.7c0,0.3-0.2,0.5-0.5,0.5h-5C0.2,2.7,0,2.4,0,2.2V0.5C0,0.2,0.2,0,0.5,0z"/>
					<rect x="0.5" y="0.5" class="st2" width="5" height="1.7"/>
				</g>
				<g id="Path_593" transform="translate(1313.141 102.574)">
					<path class="st1" d="M0.8,0H9c0.4,0,0.8,0.4,0.8,0.9V10c0,0.4-0.3,0.8-0.8,0.9H0.8C0.3,10.8,0,10.4,0,10V0.9C0,0.4,0.3,0,0.8,0
						z"/>
					<path class="st1" d="M1,1v8.8h7.7V1H1 M0.8,0H9c0.4,0,0.8,0.4,0.8,0.9V10c0,0.5-0.3,0.9-0.8,0.9H0.8C0.3,10.8,0,10.5,0,10V0.9
						C0,0.4,0.3,0,0.8,0z"/>
				</g>
				<line id="Line_58" class="st3" x1="1315.4" y1="108.1" x2="1320.6" y2="108.1"/>
				<line id="Line_59" class="st3" x1="1315.4" y1="109.6" x2="1320.6" y2="109.6"/>
				<line id="Line_60" class="st3" x1="1315.4" y1="111.1" x2="1320.6" y2="111.1"/>
			</g>
			<g id="Group_3768" transform="translate(-885 -474)">
				<g id="Group_3767" transform="translate(933.618 475.002)">
					<g id="Group_3762" transform="translate(0)">
						<path id="Path_594" d="M5.4,10.2c-0.1,0-0.2,0-0.3-0.1L3.9,8.9H2.2C1,8.9,0,7.9,0,6.7V2.2C0,1,1,0,2.2,0h6.3
							c1.2,0,2.2,1,2.2,2.2v4.5c0,1.2-1,2.2-2.2,2.2H5.8v0.8c0,0.2-0.1,0.3-0.3,0.4C5.5,10.2,5.4,10.2,5.4,10.2z M2.2,0.9
							c-0.7,0-1.3,0.6-1.3,1.3v4.5C0.9,7.5,1.5,8,2.2,8H4c0.1,0,0.2,0,0.3,0.1l0.6,0.6V8.5C4.9,8.2,5.1,8,5.4,8h3.2
							c0.7,0,1.3-0.6,1.3-1.3V2.2c0-0.7-0.6-1.3-1.3-1.3L2.2,0.9z"/>
					</g>
					<g id="Group_3763" transform="translate(1.801 2.301)">
						<path id="Path_595" d="M4.4,0.9h-4C0.2,0.9,0,0.7,0,0.4C0,0.2,0.2,0,0.4,0h3.9c0.2,0,0.4,0.2,0.4,0.4C4.8,0.7,4.6,0.9,4.4,0.9
							z"/>
					</g>
					<g id="Group_3764" transform="translate(1.793 4.038)">
						<path id="Path_596" d="M6.3,0.9H0.4C0.2,0.9,0,0.7,0,0.4C0,0.2,0.2,0,0.4,0h5.9c0.2,0,0.4,0.2,0.4,0.4
							C6.8,0.7,6.6,0.9,6.3,0.9z"/>
					</g>
					<g id="Group_3765" transform="translate(1.799 5.683)">
						<path id="Path_597" d="M5.1,0.9H0.4C0.2,0.9,0,0.7,0,0.4C0,0.2,0.2,0,0.4,0h4.7c0.2,0,0.4,0.2,0.4,0.4
							C5.5,0.7,5.3,0.9,5.1,0.9z"/>
					</g>
					<g id="Group_3766" transform="translate(7.901 5.687)">
						<path id="Path_598" d="M0.4,0.9c-0.1,0-0.1,0-0.2,0S0.1,0.8,0.1,0.8C0,0.6,0,0.3,0.1,0.1L0.2,0c0.2-0.1,0.5,0,0.6,0.2
							s0,0.4-0.1,0.5C0.7,0.8,0.6,0.9,0.4,0.9z"/>
					</g>
				</g>
				<rect id="Rectangle_603" x="933" y="474" class="st1" width="12" height="12"/>
			</g>
			<g id="Group_3788" transform="translate(-873 -474)">
				<rect id="Rectangle_603-2" x="933" y="474" class="st1" width="12" height="12"/>
				<g id="Group_3776" transform="translate(933.251 474.291)">
					<g id="Group_3776-2" transform="translate(0.595 2.818)">
						<path id="Path_599" d="M0.4,2.7C0.2,2.7,0,2.5,0,2.3V0.4C0,0.2,0.2,0,0.4,0h3.5c0.2,0,0.4,0.2,0.4,0.4S4.1,0.8,3.9,0.8H0.8
							v1.4C0.8,2.5,0.6,2.7,0.4,2.7L0.4,2.7z"/>
					</g>
					<g id="Group_3777" transform="translate(0.595 6.297)">
						<path id="Path_600" d="M0.4,2.3C0.2,2.3,0,2.1,0,1.9V0.4C0,0.2,0.2,0,0.4,0s0.4,0.2,0.4,0.4l0,0v1.5C0.8,2.1,0.6,2.3,0.4,2.3
							L0.4,2.3z"/>
					</g>
					<g id="Group_3778" transform="translate(6.603 2.859)">
						<path id="Path_601" d="M3.9,5.7H0.4C0.2,5.7,0,5.5,0,5.3s0.2-0.4,0.4-0.4h3.1V0.4C3.5,0.2,3.7,0,3.9,0c0.2,0,0.4,0.2,0.4,0.4
							l0,0v4.9C4.3,5.5,4.2,5.7,3.9,5.7L3.9,5.7z"/>
					</g>
					<g id="Group_3779" transform="translate(1.093 8.101)">
						<path id="Path_602" d="M1.3,2.2C1.1,2.2,1,2.1,0.9,2L0,0.4L0.7,0l0.8,1.3l0.3-0.1l0.3,0.7L1.4,2.1C1.4,2.2,1.3,2.2,1.3,2.2z"
							/>
					</g>
					<g id="Group_3780" transform="translate(8.368 1.131)">
						<path id="Path_603" d="M1.3,2.4L0.6,0.9L0.3,1L0,0.3L0.6,0C0.8-0.1,1,0,1.1,0.2L2,2L1.3,2.4z"/>
					</g>
					<g id="Group_3781" transform="translate(10.14 4.32)">
						<path id="Path_604" d="M0.4,2.4C0.2,2.4,0,2.2,0,2V0.4C0,0.2,0.2,0,0.4,0s0.3,0.1,0.4,0.3l0.6,1.4c0.1,0.2,0,0.4-0.2,0.5l0,0
							L0.6,2.4C0.5,2.4,0.5,2.4,0.4,2.4z"/>
					</g>
					<g id="Group_3782" transform="translate(0 4.664)">
						<path id="Path_605" d="M1,2.4c-0.2,0-0.3-0.1-0.4-0.2L0,0.8c0-0.1,0-0.2,0-0.3s0.1-0.2,0.2-0.2L0.8,0C1-0.1,1.3,0,1.4,0.2
							c0,0.1,0,0.1,0,0.2V2C1.4,2.2,1.3,2.4,1,2.4C1.1,2.4,1,2.4,1,2.4z"/>
					</g>
					<g id="Group_3783" transform="translate(2.605 7.778)">
						<path id="Path_606" d="M2.3,3.6c-0.1,0-0.2,0-0.2-0.1L0.2,2.1C0,2-0.1,1.8,0.1,1.6c0-0.1,0.1-0.1,0.2-0.1L3.5,0
							c0.1,0,0.1,0,0.2,0h0.7c0.2,0,0.4,0.2,0.4,0.4c0,0.1,0,0.2-0.1,0.3L2.6,3.5C2.5,3.6,2.4,3.6,2.3,3.6z M1.2,1.9l1,0.7l1.3-1.7
							L1.2,1.9z"/>
					</g>
					<g id="Group_3784" transform="translate(4.135 0)">
						<path id="Path_607" d="M1.1,3.6H0.4C0.2,3.6,0,3.4,0,3.2C0,3.1,0,3,0.1,3l2.1-2.8C2.3,0,2.6-0.1,2.8,0.1l0,0l1.9,1.4
							c0.1,0.1,0.1,0.4,0,0.5c0,0.1-0.1,0.1-0.2,0.1L1.3,3.6C1.2,3.6,1.2,3.6,1.1,3.6z M2.6,1L1.3,2.7l2.3-1L2.6,1z"/>
					</g>
					<g id="Group_3785" transform="translate(4.863 1.406)">
						<path id="Path_608" d="M5.7,2.2H0.4C0.2,2.2,0,2.1,0,1.8c0-0.2,0.1-0.3,0.3-0.4L3.5,0C3.7-0.1,3.9,0,4,0.2s0,0.4-0.2,0.5
							L2.3,1.4h3.3C5.8,1.4,6,1.6,6,1.8C6.1,2,5.9,2.2,5.7,2.2L5.7,2.2z"/>
					</g>
					<g id="Group_3786" transform="translate(0.602 7.778)">
						<path id="Path_609" d="M2.4,2.2C2.2,2.2,2,2.1,2,1.8c0-0.2,0.1-0.3,0.3-0.4l1.5-0.7H0.4C0.2,0.8,0,0.6,0,0.4S0.2,0,0.4,0h5.3
							c0.2,0,0.4,0.2,0.4,0.4S6,0.7,5.8,0.8L2.6,2.2C2.5,2.2,2.5,2.2,2.4,2.2z"/>
					</g>
					<g id="Group_3787" transform="translate(1.998 4.101)">
						<path id="Path_610" d="M6.1,3.2H1.3C1.1,3.2,0.9,3,0.9,2.8c0-0.3-0.3-0.6-0.6-0.6C0.1,2.2,0,2,0,1.8V1.3C0,1.1,0.1,1,0.4,0.9
							c0.3,0,0.5-0.3,0.6-0.6C0.9,0.1,1.1,0,1.3,0h4.8c0.2,0,0.4,0.2,0.4,0.4C6.5,0.7,6.8,0.9,7,1c0.2,0,0.3,0.2,0.3,0.4v0.5
							c0,0.2-0.1,0.4-0.3,0.4S6.6,2.5,6.5,2.8C6.5,3,6.4,3.2,6.1,3.2z M1.6,2.4h4.2C6,2,6.2,1.8,6.5,1.6C6.2,1.4,6,1.1,5.8,0.8H1.6
							C1.5,1.1,1.3,1.4,0.9,1.6C1.3,1.8,1.5,2,1.6,2.4L1.6,2.4z"/>
					</g>
				</g>
			</g>
			<g id="Group_3789" transform="translate(-1288 -101.996)">
				<rect id="Rectangle_253-2" x="1312" y="102" class="st1" width="12" height="12"/>
				<g id="Rectangle_605" transform="translate(1312.6 102.596)">
					<rect x="0" y="0" class="st1" width="5" height="5"/>
					<rect x="0.5" y="0.5" class="st4" width="4" height="4"/>
				</g>
				<g id="Rectangle_606" transform="translate(1312.6 108.396)">
					<rect x="0" y="0" class="st1" width="5" height="5"/>
					<rect x="0.5" y="0.5" class="st4" width="4" height="4"/>
				</g>
				<g id="Rectangle_607" transform="translate(1318.4 102.596)">
					<rect x="0" y="0" class="st1" width="5" height="5"/>
					<rect x="0.5" y="0.5" class="st4" width="4" height="4"/>
				</g>
				<g id="Rectangle_608" transform="translate(1318.4 108.396)">
					<rect x="0" y="0" class="st1" width="5" height="5"/>
					<rect x="0.5" y="0.5" class="st4" width="4" height="4"/>
				</g>
			</g>
			<g id="Group_3917" transform="translate(72)">
				<rect id="Rectangle_649" class="st1" width="12" height="12"/>
				<g id="Group_3915" transform="translate(1 1.799)">
					<g id="Group_3916">
						<g id="Rectangle_647" transform="translate(0 1)">
							<rect y="0" class="st1" width="10" height="8"/>
							<rect x="0.5" y="0.5" class="st4" width="9" height="7"/>
						</g>
						<path id="Rectangle_648" d="M7.2,5.5L7.2,5.5C7.7,5.5,8,5.8,8,6.2l0,0C8,6.7,7.7,7,7.2,7l0,0C6.8,7,6.5,6.7,6.5,6.2l0,0
							C6.5,5.8,6.8,5.5,7.2,5.5z"/>
						<path id="Path_627" class="st3" d="M2,1V0"/>
						<path id="Path_626" class="st3" d="M8,1V0"/>
						<line id="Line_75" class="st2" x1="0.5" y1="3.5" x2="9.5" y2="3.5"/>
					</g>
				</g>
			</g>
			<g id="Group_4604" transform="translate(84)">
				<rect id="Rectangle_649-2" class="st1" width="12" height="12"/>
				<path id="Icon_awesome-check-circle" class="st5" d="M12,6c0,3.3-2.7,6-6,6S0,9.3,0,6s2.7-6,6-6S12,2.7,12,6z M5.3,9.2l4.5-4.5
					c0.2-0.2,0.2-0.4,0-0.5L9.2,3.6C9,3.4,8.8,3.4,8.7,3.6L5,7.3L3.3,5.6c-0.2-0.2-0.4-0.2-0.5,0L2.2,6.1C2,6.3,2,6.5,2.2,6.6
					l2.5,2.5C4.9,9.3,5.2,9.3,5.3,9.2z"/>
			</g>
			<g id="Group_4605" transform="translate(96)">
				<rect id="Rectangle_649-3" class="st1" width="12" height="12"/>
				<path id="Icon_material-cancel" class="st6" d="M6,0C2.7,0,0,2.7,0,6s2.7,6,6,6s6-2.7,6-6S9.3,0,6,0L6,0z M9,8.2L8.2,9L6,6.8
					L3.8,9L3,8.2L5.2,6L3,3.8L3.8,3L6,5.2L8.2,3L9,3.8L6.8,6L9,8.2z"/>
			</g>
		</g>
	</g>
</g>
</svg>
