<?xml version="1.0" encoding="utf-8"?>
<!-- Generator: Adobe Illustrator 26.3.1, SVG Export Plug-In . SVG Version: 6.00 Build 0)  -->
<svg version="1.1" id="Layer_1" xmlns="http://www.w3.org/2000/svg" xmlns:xlink="http://www.w3.org/1999/xlink" x="0px" y="0px"
	 width="2119px" height="24px" viewBox="0 0 2119 24" style="enable-background:new 0 0 2119 24;" xml:space="preserve">
<style type="text/css">
	.st0{clip-path:url(#SVGID_00000165201964253979626440000003617520694906070168_);}
	.st1{fill:none;}
	.st2{fill:#D9BDB1;}
	.st3{fill:none;stroke:#000000;stroke-width:3;}
	.st4{fill:none;stroke:#000000;stroke-linecap:round;stroke-miterlimit:10;}
	.st5{fill:none;stroke:#000000;stroke-width:2.5;}
	.st6{fill:#333333;}
	.st7{fill:none;stroke:#333333;stroke-width:1.5;stroke-linecap:round;}
	.st8{fill:none;stroke:#000000;stroke-linejoin:round;}
	.st9{fill:#D9BDB1;stroke:#000000;stroke-linejoin:round;}
	.st10{fill:none;stroke:#000000;stroke-linecap:round;}
	.st11{fill:none;stroke:#000000;stroke-linecap:round;stroke-linejoin:round;}
	.st12{fill:none;stroke:#D9BDB1;stroke-width:1.5;stroke-linecap:round;}
	.st13{fill:none;stroke:#000000;}
	.st14{fill:#FFFFFF;fill-opacity:0;}
	.st15{fill:none;stroke:#070707;stroke-width:3;}
	.st16{fill:#FFFFFF;}
	.st17{fill:#040505;stroke:#FFFFFF;stroke-width:0.4;}
	.st18{fill:#D9BDB1;stroke:#000000;}
	.st19{fill:none;stroke:#FFFFFF;stroke-width:1.5;stroke-linecap:round;}
	.st20{fill:#E0534E;}
	.st21{fill:#3EB200;fill-opacity:0;}
	.st22{fill:#3EB200;}
	.st23{font-family:'Montserrat-ExtraBold';}
	.st24{font-size:6px;}
	.st25{fill:none;stroke:#000000;stroke-width:1.5;stroke-linecap:round;stroke-linejoin:round;}
	.st26{fill:#707070;}
	.st27{fill:none;stroke:#D9BDB1;stroke-width:1.333;stroke-linecap:round;stroke-linejoin:round;}
	.st28{fill:none;stroke:#707070;stroke-width:1.5;stroke-linecap:round;}
	.st29{fill:none;stroke:#D9BDB1;stroke-width:1.5;stroke-linecap:round;stroke-linejoin:round;}
	.st30{fill:none;stroke:#707070;stroke-width:1.5;stroke-linecap:round;stroke-linejoin:round;}
	.st31{fill:none;stroke:#707070;stroke-linejoin:round;}
	.st32{fill:none;stroke:#707070;stroke-linecap:round;}
	.st33{fill:none;stroke:#707070;}
	.st34{font-family:'Arial-BoldMT';}
	.st35{font-size:14px;}
	.st36{fill:#2AB79C;}
	.st37{fill:none;stroke:#D9BDB1;stroke-width:1.5;stroke-linejoin:round;}
	.st38{fill:#707070;stroke:#707070;stroke-width:2;stroke-linecap:round;stroke-linejoin:round;}
	.st39{fill:#D9BDB1;stroke:#D9BDB1;stroke-width:2;stroke-linecap:round;stroke-linejoin:round;}
	.st40{fill:none;stroke:#707070;stroke-width:1.5;}
	.st41{fill:#060606;}
	.st42{fill:#C6C3C4;}
	.st43{fill:#888484;}
	.st44{font-size:12px;}
	.st45{fill:none;stroke:#B0A16E;}
	.st46{clip-path:url(#SVGID_00000114053416287676693090000017430220050478785413_);}
	.st47{fill:#D9D9D9;}
	.st48{fill:none;stroke:#D9BDB1;stroke-width:2;stroke-linecap:round;stroke-linejoin:round;}
	.st49{fill:#050605;}
	.st50{fill:#030504;}
	.st51{fill:none;stroke:#000000;stroke-width:1.3;}
	.st52{fill:none;stroke:#D9BDB1;stroke-width:1.5;stroke-miterlimit:4.0001;}
	.st53{fill:#C40808;}
	.st54{fill:#D07000;}
</style>
<g>
	<g>
		<defs>
			<rect id="SVGID_1_" width="2119" height="24"/>
		</defs>
		<clipPath id="SVGID_00000160160091639499095860000008049704824961242261_">
			<use xlink:href="#SVGID_1_"  style="overflow:visible;"/>
		</clipPath>
		<g id="_24x24_icons" style="clip-path:url(#SVGID_00000160160091639499095860000008049704824961242261_);">
			<g id="Group_5417" transform="translate(0 -252)">
				<rect id="Rectangle_165" y="252" class="st1" width="24" height="24"/>
				<g id="Group_3046" transform="translate(-178 152.004)">
					<g id="Group_3045">
						<g id="Group_1" transform="translate(42.5 3.496)">
							<rect id="Rectangle_2" x="140" y="102" width="15" height="3"/>
							<rect id="Rectangle_3" x="140" y="107" width="15" height="3"/>
							<rect id="Rectangle_4" x="140" y="112" width="15" height="3"/>
						</g>
						<rect id="Rectangle_252" x="182" y="104" class="st1" width="16" height="16"/>
					</g>
				</g>
			</g>
			<g id="Group_3419" transform="translate(-30 -76)">
				<rect id="Rectangle_374" x="54" y="76" class="st1" width="24" height="24"/>
				<g id="Group_3051" transform="translate(-1254 -21.996)">
					<rect id="Rectangle_253" x="1312" y="102" class="st1" width="16" height="16"/>
					<g id="noun_dashboard_2467541" transform="translate(1239.302 34.896)">
						<g id="Group_160" transform="translate(72.7 67.1)">
							<g id="Group_3050">
								<g id="Group_3049">
									<g id="Group_3048">
										<g id="Group_3047">
											<path id="Rectangle_257" d="M0.5,0H7c0.3,0,0.5,0.2,0.5,0.5V7c0,0.3-0.2,0.5-0.5,0.5H0.5C0.2,7.5,0,7.3,0,7V0.5
												C0,0.2,0.2,0,0.5,0z"/>
											<path id="Rectangle_263" d="M0.5,8.5H7c0.3,0,0.5,0.2,0.5,0.5v6.5C7.5,15.8,7.3,16,7,16H0.5C0.2,16,0,15.8,0,15.5V9
												C0,8.7,0.2,8.5,0.5,8.5z"/>
											<path id="Rectangle_261" d="M9,0h6.5C15.8,0,16,0.2,16,0.5V7c0,0.3-0.2,0.5-0.5,0.5H9C8.7,7.5,8.5,7.3,8.5,7V0.5
												C8.5,0.2,8.7,0,9,0z"/>
											<path id="Rectangle_262" d="M9,8.5h6.5C15.8,8.5,16,8.7,16,9v6.5c0,0.3-0.2,0.5-0.5,0.5H9c-0.3,0-0.5-0.2-0.5-0.5V9
												C8.5,8.7,8.7,8.5,9,8.5z"/>
										</g>
									</g>
								</g>
							</g>
						</g>
					</g>
				</g>
			</g>
			<g id="Group_3418" transform="translate(-30 -76)">
				<rect id="Rectangle_375" x="78" y="76" class="st1" width="24" height="24"/>
				<g id="Group_3052" transform="translate(-1284 -21.996)">
					<g id="Group_161" transform="translate(-399.656 2.48)">
						<g id="noun_notification_2484335" transform="translate(1766.657 99.516)">
							<g id="Group_2" transform="translate(0)">
								<path id="Path_1" d="M6.8,13.6c-0.4,0.8-0.1,1.8,0.7,2.2c0.8,0.4,1.8,0.1,2.2-0.7l0,0L6.8,13.6L6.8,13.6z"/>
								<path id="Path_2" d="M11.7,2l0.5-0.9c0.1-0.2,0.1-0.4,0-0.6S12,0.2,11.9,0.1C11.7,0,11.5,0,11.4,0C11.2,0.1,11,0.2,11,0.4
									l-0.5,0.9c-2.1-0.7-4.4-0.2-6,1.4C4.1,3.1,3.8,3.5,3.6,4C2.7,5.8,1.5,7.4,0.1,8.8C-0.1,9,0,9.3,0.2,9.5l0.1,0.1l10.8,5.5
									c0.3,0.1,0.6,0,0.7-0.2v-0.1c0.3-1.9,0.9-3.8,1.8-5.6c0.3-0.5,0.4-1,0.5-1.6C14.5,5.4,13.6,3.2,11.7,2z"/>
							</g>
						</g>
						<circle id="Ellipse_45" class="st2" cx="1780.1" cy="109.9" r="3.4"/>
					</g>
					<path id="Path_480" class="st1" d="M1364,102h16v16h-16V102z"/>
				</g>
			</g>
			<g id="Group_3417" transform="translate(-30 -76)">
				<rect id="Rectangle_376" x="102" y="76" class="st1" width="24" height="24"/>
				<g id="Group_3275" transform="translate(-1258 -21.994)">
					<g id="Group_161-2" transform="translate(-399.656 2.48)">
						<g id="noun_notification_2484335-2" transform="translate(1764.456 99.515)">
							<g id="Group_2-2" transform="translate(0)">
								<path id="Path_1-2" d="M6.8,13.6c-0.4,0.8-0.1,1.8,0.7,2.2c0.8,0.4,1.8,0.1,2.2-0.7l0,0L6.8,13.6L6.8,13.6z"/>
								<path id="Path_2-2" d="M11.7,2l0.5-0.9c0.1-0.2,0.1-0.4,0-0.6S12,0.2,11.9,0.1C11.7,0,11.5,0,11.4,0C11.2,0.1,11,0.2,11,0.4
									l-0.5,0.9c-2.1-0.7-4.4-0.2-6,1.4C4.1,3.1,3.8,3.5,3.6,4C2.7,5.8,1.5,7.4,0.1,8.8C-0.1,9,0,9.3,0.2,9.5l0.1,0.1l10.8,5.5
									c0.3,0.1,0.6,0,0.7-0.2v-0.1c0.3-1.9,0.9-3.8,1.8-5.6c0.3-0.5,0.4-1,0.5-1.6C14.5,5.4,13.6,3.2,11.7,2z"/>
							</g>
						</g>
					</g>
					<rect id="Rectangle_254" x="1364" y="102" class="st1" width="16" height="16"/>
				</g>
			</g>
			<g id="Group_3414" transform="translate(-30 -76)">
				<rect id="Rectangle_379" x="174" y="76" class="st1" width="24" height="24"/>
				<g id="Group_3055" transform="translate(37 -883.236)">
					<g id="Group_273" transform="translate(1.505 1.522)">
						<g id="noun_actions_2010719" transform="translate(140 962.125)">
							<g id="Group_272" transform="translate(0 0)">
								<g id="Group_271" transform="translate(0 0)">
									<g id="Layer_2_00000001653619084692310770000008260838490839651473_">
										<g id="Layer_1_00000173122148941042165460000017515945715630904754_" transform="translate(0 0)">
											<path id="Path_75" d="M8.4,0C4.4-0.3,1,2.7,0.7,6.7l0,0c0,0.2,0.2,0.4,0.4,0.5l0,0l0,0c0.2,0,0.5-0.2,0.5-0.4
												C1.9,3.3,4.9,0.7,8.3,1s6.1,3.3,5.8,6.7c-0.2,3.1-2.7,5.6-5.8,5.8c-0.3,0-0.5,0.2-0.5,0.5l0,0c0,0.2,0.2,0.4,0.4,0.4l0,0
												c4-0.3,7-3.7,6.7-7.6C14.8,3.1,11.9,0.3,8.4,0z"/>
											<path id="Path_76" d="M10.1,2.3C7.4,1,4.2,2.2,2.9,4.9c-0.2,0.7-0.4,1.3-0.4,2c0,0.1,0.1,0.3,0.2,0.3l0,0H3
												c0.2,0,0.3-0.1,0.3-0.3c0.2-2.5,2.4-4.4,4.9-4.2c0.6,0,1.2,0.2,1.8,0.5c0.8,0.4,1.5,1,1.8,1.8c1.2,2.2,0.3,5-1.9,6.1
												c-0.6,0.3-1.3,0.5-1.9,0.5c-0.1,0-0.1,0.1-0.1,0.1v0.4c0,0.2,0.1,0.3,0.2,0.3l0,0c3-0.2,5.3-2.8,5.1-5.7
												c0-0.7-0.2-1.3-0.5-2C12.2,3.7,11.3,2.8,10.1,2.3L10.1,2.3z"/>
											<path id="Path_77" d="M7,7.2L2.7,8.3C2.3,8.4,2.1,8.8,2.2,9.2c0,0.1,0.1,0.2,0.2,0.3l1,1l-3.1,3.1c-0.4,0.4-0.4,1,0,1.3
												c0.4,0.4,1,0.4,1.3,0l0,0l3.1-3.1l1,1c0.3,0.3,0.7,0.3,1,0c0.1-0.1,0.2-0.2,0.2-0.4l1-4.4C8,7.7,7.8,7.3,7.4,7.2
												C7.3,7.1,7.2,7.1,7,7.2L7,7.2z"/>
										</g>
									</g>
								</g>
							</g>
						</g>
					</g>
					<rect id="Rectangle_268" x="141" y="963.2" class="st1" width="16" height="16"/>
				</g>
			</g>
			<g id="Group_3413" transform="translate(-30 -76)">
				<rect id="Rectangle_380" x="198" y="76" class="st1" width="24" height="24"/>
				<g id="Group_3058" transform="translate(63 -104)">
					<g id="Group_3057">
						<g id="Group_3056">
							<path id="Path_447" class="st3" d="M149.4,186.4l-5.7,5.7l5.7,5.7"/>
							<rect id="Rectangle_264" x="139" y="184" class="st1" width="16" height="16"/>
						</g>
					</g>
				</g>
			</g>
			<g id="Group_3412" transform="translate(-30 -76)">
				<rect id="Rectangle_381" x="222" y="76" class="st1" width="24" height="24"/>
				<g id="Group_3278" transform="translate(226 80)">
					<g id="Group_3057-2">
						<g id="Group_3056-2">
							<path id="Path_447-2" class="st3" d="M5.6,2.4l5.7,5.7l-5.7,5.7"/>
							<rect id="Rectangle_264-2" class="st1" width="16" height="16"/>
						</g>
					</g>
				</g>
			</g>
			<g id="Group_3744" transform="translate(-6 -76)">
				<rect id="Rectangle_381-2" x="222" y="76" class="st1" width="24" height="24"/>
				<g id="Group_3745" transform="translate(-863 -347)">
					<path id="Path_589" class="st4" d="M1095.2,427h-5.4c-1.3,0-2.3,1.1-2.3,2.5v11.6c0,1.3,1,2.4,2.3,2.5h5.4"/>
					<path id="Path_590" d="M1091.6,431.8h7.2c0.1,0,0.3-0.1,0.3-0.3l0,0v-3.8c0-0.1,0.1-0.3,0.3-0.3c0.1,0,0.1,0,0.2,0.1l7.4,7.4
						c0.1,0.1,0.1,0.3,0,0.4l0,0l-7.6,7.6c-0.1,0.1-0.3,0.1-0.4,0c0,0-0.1-0.1-0.1-0.2v-4c0-0.1-0.1-0.3-0.3-0.3l0,0h-7
						c-0.1,0-0.3-0.1-0.3-0.3l0,0V432C1091.3,431.9,1091.4,431.8,1091.6,431.8z"/>
				</g>
			</g>
			<g id="Group_3415" transform="translate(-30 -76)">
				<rect id="Rectangle_378" x="150" y="76" class="st1" width="24" height="24"/>
				<g id="Group_3276" transform="translate(-28.703 233.703) rotate(-90)">
					<g id="Group_3057-3" transform="translate(139 184)">
						<g id="Group_3056-3">
							<path id="Path_447-3" class="st5" d="M8.7,2L3.9,6.8l4.8,4.8"/>
							
								<rect id="Rectangle_264-3" x="0" y="0" transform="matrix(-2.535182e-06 -1 1 -2.535182e-06 -5.966169e-03 13.406)" class="st1" width="13.4" height="13.4"/>
						</g>
					</g>
				</g>
			</g>
			<g id="Group_3416" transform="translate(-30 -76)">
				<rect id="Rectangle_377" x="126" y="76" class="st1" width="24" height="24"/>
				<g id="Group_3277" transform="translate(144.703 81.297) rotate(90)">
					<g id="Group_3057-4">
						<g id="Group_3056-4">
							<path id="Path_447-4" class="st5" d="M8.7,11.4L3.9,6.6l4.8-4.8"/>
							
								<rect id="Rectangle_264-4" x="0" y="0" transform="matrix(2.535182e-06 1 -1 2.535182e-06 13.406 -6.034498e-03)" class="st1" width="13.4" height="13.4"/>
						</g>
					</g>
				</g>
			</g>
			<g id="Group_3858" transform="translate(266.297 -1.939) rotate(90)">
				<g id="Path_624" transform="translate(1.939 2.297)">
					<path class="st1" d="M12,0c6.6,0,12,5.4,12,12s-5.4,12-12,12S0,18.6,0,12S5.4,0,12,0z"/>
					<path class="st6" d="M12,1.5C6.2,1.5,1.5,6.2,1.5,12S6.2,22.5,12,22.5S22.5,17.8,22.5,12S17.8,1.5,12,1.5 M12,0
						c6.6,0,12,5.4,12,12s-5.4,12-12,12S0,18.6,0,12S5.4,0,12,0z"/>
				</g>
				<g id="Group_3660" transform="translate(7.937 8.298)">
					<g id="Group_3906" transform="translate(0 12) rotate(-90)">
						<g id="Group_3662">
							<g id="Group_3664">
								<g id="Group_3665">
									<rect id="Rectangle_578" x="0" y="0" class="st1" width="12" height="12"/>
									<g id="Group_3903" transform="translate(2.251 2.252)">
										<line id="Line_73" class="st7" x1="0" y1="0" x2="7.5" y2="7.5"/>
										<line id="Line_74" class="st7" x1="7.5" y1="0" x2="0" y2="7.5"/>
									</g>
								</g>
							</g>
						</g>
					</g>
				</g>
			</g>
			<g id="Group_3907" transform="translate(288) rotate(90)">
				<g id="Path_624-2" transform="translate(0)">
					<path class="st1" d="M12,0c6.6,0,12,5.4,12,12s-5.4,12-12,12S0,18.6,0,12S5.4,0,12,0z"/>
					<path class="st6" d="M12,1.5C6.2,1.5,1.5,6.2,1.5,12S6.2,22.5,12,22.5S22.5,17.8,22.5,12S17.8,1.5,12,1.5 M12,0
						c6.6,0,12,5.4,12,12s-5.4,12-12,12S0,18.6,0,12S5.4,0,12,0z"/>
				</g>
				<g id="Group_3660-2" transform="translate(3.512 12.001) rotate(-45)">
					<g id="Group_3906-2" transform="translate(0 12) rotate(-90)">
						<g id="Group_3662-2">
							<g id="Group_3664-2">
								<g id="Group_3665-2">
									
										<rect id="Rectangle_578-2" x="0" y="0" transform="matrix(-1 5.070363e-06 -5.070363e-06 -1 12 12)" class="st1" width="12" height="12"/>
									<g id="Group_3903-2" transform="translate(2.251 2.252)">
										<line id="Line_73-2" class="st7" x1="0" y1="0" x2="7.5" y2="7.5"/>
										<line id="Line_74-2" class="st7" x1="7.5" y1="0" x2="0" y2="7.5"/>
									</g>
								</g>
							</g>
						</g>
					</g>
				</g>
			</g>
			<g id="Group_4283" transform="translate(15879 20967)">
				<g id="Group_4282" transform="translate(-12067.466 -20401.768)">
					<path id="Path_719" d="M-3506.2-562.2h-7.8c-1.3,0-2.3,1-2.3,2.3c-1.3,0-2.2,1.1-2.3,2.3v10.8c0,1.3,1,2.3,2.3,2.3h7.8
						c1.3,0,2.3-1,2.3-2.3c1.3,0,2.2-1.1,2.3-2.3v-10.8C-3503.9-561.2-3504.9-562.2-3506.2-562.2z M-3506.8-546.9L-3506.8-546.9
						c0,0.9-0.8,1.6-1.6,1.6h-7.8c-0.9,0-1.6-0.7-1.6-1.6v-10.8c0-0.9,0.7-1.6,1.6-1.6h0.1h7.8c0.9,0,1.6,0.7,1.6,1.6L-3506.8-546.9
						z M-3504.6-549.2c0,0.9-0.7,1.6-1.6,1.6v-10.1c0-1.3-1-2.3-2.3-2.3h-7.2c0-0.9,0.8-1.6,1.6-1.6h7.8c0.9,0,1.6,0.7,1.6,1.6
						L-3504.6-549.2L-3504.6-549.2z"/>
					<path id="Path_720" class="st2" d="M-3506.8-557.7v10.8c0,0,0,0,0,0.1c0,0.9-0.8,1.6-1.6,1.6h-7.8c-0.9,0-1.6-0.7-1.6-1.6
						v-10.8c0-0.9,0.7-1.6,1.6-1.6h0.1h7.8C-3507.5-559.3-3506.8-558.6-3506.8-557.7z"/>
				</g>
				<rect id="Rectangle_381-3" x="-15591" y="-20967" class="st1" width="24" height="24"/>
			</g>
			<g id="Group_4284" transform="translate(15903 20967)">
				<rect id="Rectangle_381-4" x="-15591" y="-20967" class="st1" width="24" height="24"/>
				<g id="Group_4287" transform="translate(-18999.758 -22979.387)">
					<g id="Group_4285" transform="translate(3412.678 2015.68)">
						<path id="Path_1637" d="M13.7,16.7H2.8c-1.5,0-2.8-1.2-2.8-2.8V2.8C0,1.3,1.2,0.1,2.7,0h0.1h5.1c0.3,0,0.5,0.2,0.5,0.5
							c0,0.2-0.2,0.4-0.5,0.5H2.7c-1,0-1.8,0.8-1.8,1.8v11.1c0,1,0.8,1.8,1.8,1.8h10.9c1,0,1.8-0.8,1.8-1.8l0,0c0,0,0,0,0-0.1v-3.6
							c0-0.3,0.2-0.5,0.5-0.5c0.2,0,0.4,0.2,0.5,0.5v3.6v0.1C16.4,15.5,15.2,16.7,13.7,16.7z"/>
					</g>
					<g id="Group_4286" transform="translate(3416.269 2015.68)">
						<path id="Path_1638" class="st2" d="M1.6,7.6l5.5-5.5l3.6,3.6l-0.1,0.1L5.4,11c-0.1,0.1-0.1,0.1-0.3,0C3.9,10,2.8,8.9,1.6,7.6
							C1.6,7.7,1.6,7.7,1.6,7.6z"/>
						<path id="Path_1639" class="st2" d="M11.7,4.8L8,1.2c0.4-0.6,1-1,1.7-1.1c1.4-0.3,2.7,0.5,3.1,1.9v0.1
							c0.2,0.8-0.1,1.7-0.7,2.3C12,4.5,11.8,4.7,11.7,4.8z"/>
						<path id="Path_1640" class="st2" d="M4,12l-1.6,0.4c-0.6,0.1-1.1,0.3-1.7,0.4c-0.3,0.1-0.7-0.1-0.8-0.4c0-0.1,0-0.2,0-0.3
							C0.3,11,0.5,9.9,0.8,8.9V8.8L4,12z"/>
					</g>
				</g>
			</g>
			<g id="Group_4559" transform="translate(15927 20967)">
				<rect id="Rectangle_381-5" x="-15591" y="-20967" class="st1" width="24" height="24"/>
				<g id="Group_4560" transform="translate(-15274.526 -24640.883)">
					<path id="Path_753" d="M-298.4,3682.4c-0.2,0-0.4,0.2-0.3,0.4v9.5c0,0.4-0.3,0.8-0.8,0.8h-10.1c-0.4,0-0.8-0.4-0.8-0.8v-9.5
						c0-0.2-0.1-0.4-0.3-0.4c-0.2,0-0.4,0.2-0.3,0.4v9.5c0,0.9,0.6,1.6,1.5,1.6h10.1c0.9,0,1.5-0.8,1.5-1.6v-9.5
						C-298,3682.5-298.2,3682.4-298.4,3682.4z"/>
					<path id="Rectangle_718" class="st2" d="M-307.5,3684.9L-307.5,3684.9c0.2,0,0.4,0.2,0.4,0.4v4.7c0,0.2-0.2,0.4-0.4,0.4l0,0
						c-0.2,0-0.4-0.2-0.4-0.4v-4.7C-307.9,3685-307.7,3684.9-307.5,3684.9z"/>
					<path id="Rectangle_719" class="st2" d="M-304.6,3684.9L-304.6,3684.9c0.2,0,0.4,0.2,0.4,0.4v4.7c0,0.2-0.2,0.4-0.4,0.4l0,0
						c-0.2,0-0.4-0.2-0.4-0.4v-4.7C-305,3685-304.8,3684.9-304.6,3684.9z"/>
					<path id="Rectangle_720" class="st2" d="M-301.7,3684.9L-301.7,3684.9c0.2,0,0.4,0.2,0.4,0.4v4.7c0,0.2-0.2,0.4-0.4,0.4l0,0
						c-0.2,0-0.4-0.2-0.4-0.4v-4.7C-302.1,3685-301.9,3684.9-301.7,3684.9z"/>
					<path id="Path_754" class="st2" d="M-297.3,3680.5h-3.9v-1.6c0-0.5-0.4-1-0.9-1h-5c-0.5,0-1,0.5-0.9,1v1.6h-3.9
						c-0.3,0-0.5,0.3-0.5,0.5v0.4h15.7v-0.4C-296.8,3680.8-297,3680.5-297.3,3680.5z M-307.2,3680.5v-1.6c0-0.1,0-0.1,0.1-0.1h5
						c0.1,0,0.1,0,0.1,0.1v1.6H-307.2z"/>
				</g>
			</g>
			<g id="Group_4600" transform="translate(15975 20967)">
				<rect id="Rectangle_381-6" x="-15591" y="-20967" class="st1" width="24" height="24"/>
				<g id="Group_4602" transform="translate(-16762 -21239)">
					<g id="Group_4324" transform="translate(-2431.705 -2065.836)">
						<path id="Path_735" class="st2" d="M3611.8,2347.6c-0.8-0.8-1.5-1.5-2.2-2.2c-0.2-0.1-0.3-0.3-0.3-0.5c-0.1-0.3,0-0.7,0.4-0.8
							c0.3-0.2,0.7-0.1,1,0.1c0.6,0.6,1.2,1.2,1.9,1.9c0.1,0.1,0.3,0.2,0.4,0.4l1.8-1.7l0.2,0.1v4.8c-1.5,0-2.9,0-4.4,0
							c-0.1,0-0.3-0.1-0.3-0.1c0-0.1,0.1-0.3,0.1-0.4C3610.8,2348.6,3611.3,2348.1,3611.8,2347.6z"/>
						<path id="Path_736" class="st2" d="M3617.3,2353c-0.6,0.6-1,1.1-1.5,1.6c-0.1,0.1-0.2,0.1-0.3,0.1s-0.2-0.2-0.2-0.3
							c0-1.5,0-2.9,0-4.4h4.8l0.1,0.2l-1.8,1.8l2,2c0.1,0.1,0.2,0.2,0.3,0.3c0.3,0.3,0.3,0.8,0,1.1l0,0c-0.3,0.3-0.8,0.3-1.1,0
							l-0.1-0.1c-0.6-0.6-1.1-1.1-1.7-1.7C3617.7,2353.4,3617.5,2353.2,3617.3,2353z"/>
						<g id="Group_4324-2" transform="translate(3606.347 2341.103)">
							<path id="Path_737" d="M15.1,17.4H2.3c-1.3,0-2.3-1-2.3-2.3V2.3C0,1,1,0,2.3,0h12.8c1.3,0,2.3,1,2.3,2.3v12.8
								C17.4,16.3,16.3,17.4,15.1,17.4z M2.3,1C1.6,1,1,1.6,1,2.3l0,0v12.8c0,0.7,0.6,1.3,1.3,1.3l0,0h12.8c0.7,0,1.3-0.6,1.3-1.3
								l0,0V2.3c0-0.7-0.6-1.3-1.3-1.3l0,0H2.3z"/>
						</g>
						<line id="Line_129" class="st1" x1="3606.8" y1="2342.1" x2="3623.7" y2="2357.8"/>
					</g>
				</g>
			</g>
			<g id="Group_4790" transform="translate(15999 20967)">
				<rect id="Rectangle_381-7" x="-15591" y="-20967" class="st1" width="24" height="24"/>
			</g>
			<g id="Group_4792" transform="translate(16023 20967)">
				<rect id="Rectangle_381-8" x="-15591" y="-20967" class="st1" width="24" height="24"/>
			</g>
			<g id="Group_4793" transform="translate(16047 20967)">
				<rect id="Rectangle_381-9" x="-15591" y="-20967" class="st1" width="24" height="24"/>
			</g>
			<g id="Group_4601" transform="translate(15951 20967)">
				<rect id="Rectangle_381-10" x="-15591" y="-20967" class="st1" width="24" height="24"/>
				<g id="Group_4603" transform="translate(-16762 -21239)">
					<g id="Group_4316" transform="translate(-2120.187 -2065.836)">
						<g id="Group_4313" transform="translate(3294.969 2341.103)">
							<path id="Path_732" class="st2" d="M5.9,4.8C6.7,5.6,7.4,6.3,8.1,7c0.2,0.1,0.3,0.3,0.3,0.5c0.1,0.3,0,0.7-0.4,0.8
								C7.7,8.5,7.3,8.4,7,8.2C6.5,7.6,5.9,7,5.3,6.4C5.1,6.2,5,6.1,4.9,6L3.1,7.7L2.9,7.6V2.8c1.5,0,2.9,0,4.4,0
								c0.1,0,0.3,0.1,0.3,0.1c0,0.1-0.1,0.3-0.1,0.4C7,3.8,6.5,4.3,5.9,4.8z"/>
							<path id="Path_733" class="st2" d="M12.5,11.5c0.6-0.6,1-1.1,1.5-1.6c0.1-0.1,0.2-0.1,0.3-0.1s0.2,0.2,0.2,0.3
								c0,1.5,0,2.9,0,4.4H9.8l-0.1-0.2l1.8-1.8l-2-2c-0.1-0.1-0.2-0.2-0.3-0.3c-0.3-0.3-0.3-0.8,0-1.1l0,0c0.3-0.3,0.8-0.3,1.1,0
								l0.1,0.1c0.6,0.6,1.1,1.1,1.7,1.7C12.2,11.1,12.3,11.3,12.5,11.5z"/>
							<g id="Group_4312" transform="translate(0)">
								<path id="Path_734" d="M15.1,17.4H2.3c-1.3,0-2.3-1-2.3-2.3V2.3C0,1,1,0,2.3,0h12.8c1.3,0,2.3,1,2.3,2.3v12.8
									C17.4,16.3,16.3,17.4,15.1,17.4z M2.3,1C1.6,1,1,1.6,1,2.3l0,0v12.8c0,0.7,0.6,1.3,1.3,1.3l0,0h12.8c0.7,0,1.3-0.6,1.3-1.3
									l0,0V2.3c0-0.7-0.6-1.3-1.3-1.3l0,0H2.3z"/>
							</g>
						</g>
					</g>
				</g>
			</g>
			<g id="Group_3790" transform="translate(-12155.5 16260.191)">
				<g id="Group_3899" transform="translate(12565 -16259)">
					<path id="Path_1641" class="st8" d="M2.5,2.8h16l-6.9,8.6v4.2l-3.1,3.1v-7.3L2.5,2.8z"/>
				</g>
			</g>
			<g id="Group_4263" transform="translate(-12106.026 16264)">
				<path id="Path_2114" class="st1" d="M12585-16262v20h-20L12585-16262z"/>
			</g>
			<path id="Path_2113" class="st9" d="M435.5,4.5h16l-6.9,8.6v4.2l-3.1,3.1v-7.3L435.5,4.5z"/>
			<g id="Group_4794" transform="translate(459.001 4)">
				<line id="Line_69" class="st10" x1="9" y1="3.1" x2="15.1" y2="3.1"/>
				<line id="Line_70" class="st10" x1="5.9" y1="7.7" x2="12.1" y2="7.7"/>
				<line id="Line_72" class="st10" x1="2.8" y1="12.3" x2="9" y2="12.3"/>
				<g id="Group_3896" transform="translate(12.288 7.681)">
					<line id="Line_71" class="st10" x1="2.8" y1="0" x2="2.8" y2="7.7"/>
					<path id="Path_621" class="st11" d="M0,4.8l2.8,2.8l2.8-2.8"/>
				</g>
				<g id="Group_3897" transform="translate(5.683 7.681) rotate(180)">
					<line id="Line_71-2" class="st10" x1="2.8" y1="0" x2="2.8" y2="7.7"/>
					<path id="Path_621-2" class="st11" d="M0,4.8l2.8,2.8l2.8-2.8"/>
				</g>
			</g>
			<g id="Group_4808" transform="translate(15913 20967)">
				<g id="close" transform="translate(-15426.347 -20960.348)">
					<line id="Line_130" class="st12" x1="-0.7" y1="-0.7" x2="11.3" y2="11.3"/>
					<line id="Line_131" class="st12" x1="11.3" y1="-0.7" x2="-0.7" y2="11.3"/>
				</g>
				<g id="Group_4807" transform="translate(158)">
					<rect id="Rectangle_381-11" x="-15591" y="-20967" class="st1" width="24" height="24"/>
				</g>
			</g>
			<g id="Group_4810">
				<path id="Icon_ionic-md-key" class="st13" d="M515.5,10c-0.8-2.2-2.9-3.7-5.2-3.7c-2.9,0-5.3,2.4-5.3,5.3c0,0,0,0,0,0.1
					c0,3,2.4,5.4,5.4,5.4l0,0c2.3-0.1,4.4-1.6,5.1-3.7h5.4v3.3h3.6v-3.3h2.2V10H515.5z M510.4,13.5c-1,0-1.8-0.8-1.8-1.8
					s0.8-1.8,1.8-1.8s1.8,0.8,1.8,1.8l0,0C512.2,12.7,511.4,13.5,510.4,13.5z"/>
				<g id="Group_4809" transform="translate(15937 20967)">
					<g id="Group_4807-2" transform="translate(158)">
						<rect id="Rectangle_381-12" x="-15591" y="-20967" class="st1" width="24" height="24"/>
					</g>
				</g>
			</g>
			<g id="Group_5315" transform="translate(528)">
				<rect id="Rectangle_592" class="st14" width="24" height="24"/>
				<g id="Group_4092" transform="translate(18.356 5.439) rotate(90)">
					<g id="Group_3057-5">
						<g id="Group_3056-5">
							<path id="Path_447-5" class="st15" d="M4.4,1.9l4.4,4.4l-4.4,4.4"/>
							
								<rect id="Rectangle_264-5" x="0" y="0" transform="matrix(2.535182e-06 1 -1 2.535182e-06 12.418 -1.803212e-02)" class="st1" width="12.4" height="12.4"/>
						</g>
					</g>
				</g>
			</g>
			<g id="Group_5314" transform="translate(552)">
				<rect id="Rectangle_593" class="st14" width="24" height="24"/>
				<g id="Group_4093" transform="translate(5.938 17.857) rotate(-90)">
					<g id="Group_3057-6">
						<g id="Group_3056-6">
							<path id="Path_447-6" class="st15" d="M4.4,10.6l4.4-4.4L4.4,1.7"/>
							
								<rect id="Rectangle_264-6" x="0" y="0" transform="matrix(-2.535182e-06 -1 1 -2.535182e-06 -1.797025e-02 12.418)" class="st1" width="12.4" height="12.4"/>
						</g>
					</g>
				</g>
			</g>
			<g id="Group_5313" transform="translate(576)">
				<rect id="Rectangle_2780" class="st14" width="24" height="24"/>
				<path id="Path_2180" d="M19.1,6.8l-1-1l-5.6,5.6L6.8,5.7l-1,1l5.6,5.6L5.7,18l1,1l5.6-5.6l5.6,5.6l1-1l-5.6-5.6L19.1,6.8z"/>
			</g>
			<g id="Group_5342" transform="translate(600)">
				<rect id="Rectangle_2780-2" class="st14" width="24" height="24"/>
				<g id="noun_receipt_561599_1_" transform="translate(6 3)">
					<path id="Path_1-3" class="st2" d="M0.5,0.6v15.8H9v-3.6h3.6V0.6H0.5z"/>
					<g id="Group_1-2" transform="translate(0 0)">
						<path id="Path_2-3" d="M3.7,4.3C3.7,4.3,3.6,4.3,3.7,4.3z"/>
						<path id="Path_3" d="M3.6,5.3C3.5,5.3,3.6,5.3,3.6,5.3z"/>
						<path id="Path_4" d="M12.5,0h-12C0.2,0,0,0.2,0,0.5v16.1C0,16.8,0.2,17,0.5,17h8.3c0.1,0,0.2,0,0.3-0.1l3.7-3.7
							c0.1-0.1,0.1-0.2,0.1-0.3V0.5C13,0.2,12.8,0,12.5,0z M9.3,15.4v-2.1h2.1L9.3,15.4z M12,12.3H8.8c-0.3,0-0.5,0.2-0.5,0.5v3.3
							H0.9V0.9H12V12.3z"/>
						<path id="Path_5" class="st16" d="M6.9,2.9h3.8c0.3,0,0.5-0.2,0.4-0.5c0-0.2-0.2-0.4-0.4-0.4H6.9C6.6,2,6.4,2.2,6.4,2.5
							C6.4,2.7,6.6,2.9,6.9,2.9z"/>
						<path id="Path_6" class="st16" d="M6.9,5.3h3.8c0.3,0,0.5-0.2,0.4-0.5c0-0.2-0.2-0.4-0.4-0.4H6.9c-0.3,0-0.5,0.2-0.4,0.5
							C6.4,5.1,6.6,5.3,6.9,5.3z"/>
						<path id="Path_7" class="st16" d="M6.9,7.8h3.8c0.3,0,0.5-0.2,0.4-0.5c0-0.2-0.2-0.4-0.4-0.4H6.9c-0.3,0-0.5,0.2-0.4,0.5
							C6.4,7.6,6.6,7.8,6.9,7.8z"/>
						<path id="Path_8" class="st16" d="M2.2,10.2h8.5c0.3,0,0.5-0.2,0.5-0.5S11,9.2,10.7,9.2H2.2c-0.3,0-0.5,0.2-0.5,0.5
							S1.9,10.2,2.2,10.2z"/>
						<path id="Path_9" class="st16" d="M2.2,12.6h4.2c0.3,0,0.5-0.2,0.5-0.5s-0.2-0.5-0.5-0.5H2.2c-0.3,0-0.5,0.2-0.5,0.5
							S1.9,12.6,2.2,12.6z"/>
						<path id="Path_10" class="st16" d="M2.2,15h4.2c0.3,0,0.5-0.2,0.5-0.5S6.7,14,6.4,14H2.2c-0.3,0-0.5,0.2-0.5,0.5
							S1.9,15,2.2,15z"/>
					</g>
					<path id="Path_2751" class="st17" d="M5.5,5.8c0-0.2-0.1-0.3-0.1-0.5C5.3,4.8,5,4.3,4.7,3.9C4.6,3.8,4.5,3.7,4.4,3.7
						S4.3,3.6,4.2,3.6l0,0c0-0.1,0.1-0.1,0.1-0.2C4.4,3.2,4.5,3,4.6,2.8l0,0v0.1l0.1-0.1V2.7c0,0-0.1,0-0.1-0.1l0,0
						c-0.6-0.2-1.3-0.2-2,0c0,0.1-0.1,0.1,0,0.2L3,3.5c0,0,0,0,0,0.1c-0.1,0-0.2,0.1-0.3,0.2C2.5,4,2.4,4.1,2.3,4.3
						C2.1,4.6,1.9,5,1.8,5.4C1.7,5.6,1.7,5.8,1.7,6c0,0.1,0,0.2,0,0.4c0,0.1,0,0.3,0,0.4c0,0.2,0.2,0.5,0.5,0.6
						C2.4,7.6,2.7,7.6,3,7.6c0.1,0,0.2,0,0.3,0h0.1h0.4l0,0h0.1c0.1,0,0.3,0,0.4,0s0.3,0,0.4-0.1c0.5-0.1,0.8-0.5,0.8-1
						c0-0.1,0-0.2,0-0.2C5.6,6.1,5.6,6,5.5,5.8z M3,2.8L2.9,2.6l0,0H3l0,0h0.1c0.1,0,0.2,0,0.3,0c0.4,0,0.7,0,1.1,0.1v0.1L3.9,3.5
						c-0.2-0.1-0.5-0.1-0.7,0L3,2.8z M5.3,6.8C5.2,7,5,7.2,4.8,7.3c-0.2,0-0.3,0.1-0.5,0.1s-0.4,0-0.6,0c-0.2,0-0.4,0-0.6,0
						c-0.3,0-0.5,0-0.8-0.1c0-0.1-0.2-0.2-0.3-0.4C1.9,6.8,1.9,6.7,1.9,6.6s0-0.3,0-0.4c0-0.2,0-0.3,0.1-0.5c0-0.3,0.2-0.7,0.3-1
						c0.1-0.2,0.2-0.3,0.3-0.5C2.8,4,3,3.9,3.2,3.8l0,0c0.3-0.2,0.6-0.2,0.9,0l0,0c0.1,0,0.3,0.2,0.4,0.3C4.7,4.3,4.8,4.5,5,4.8
						C5.1,5,5.2,5.3,5.3,5.6c0,0.1,0,0.2,0.1,0.3c0,0.1,0,0.2,0,0.3C5.4,6.5,5.3,6.6,5.3,6.8L5.3,6.8z"/>
				</g>
			</g>
			<g id="Group_5343" transform="translate(624)">
				<rect id="Rectangle_2780-3" class="st14" width="24" height="24"/>
				<g id="Group_5405" transform="translate(5.249 4.596)">
					<g id="noun_gold_2883279" transform="translate(1.269 0)">
						<g id="Layer_2-2" transform="translate(0)">
							<path id="Path_659" class="st18" d="M9,5.6H0.8C0.3,5.6,0,5.2,0,4.8c0-0.1,0-0.2,0-0.3l1.4-4C1.6,0.2,1.9,0,2.2,0h5.6
								c0.4,0,0.7,0.2,0.8,0.6l1.1,4c0.1,0.4-0.1,0.9-0.6,1C9.1,5.6,9.1,5.6,9,5.6L9,5.6z"/>
						</g>
					</g>
					<g id="Group_4537" transform="translate(6.197 7.588)">
						<path id="Path_435" class="st2" d="M4,4.7C3.7,5,3.7,5.5,4,5.8l0,0C4.1,6,4.3,6.1,4.5,6.1C4.8,6.1,5,6,5.1,5.8l2.2-2.2
							C7.5,3.5,7.6,3.3,7.6,3c0-0.2-0.1-0.4-0.2-0.6L5.1,0.2C4.8-0.1,4.3-0.1,4,0.2l0,0C3.7,0.6,3.7,1.1,4,1.4l0,0l0.8,0.8h-4
							C0.4,2.2,0,2.6,0,3s0.4,0.8,0.8,0.8h4L4,4.7z"/>
					</g>
					<g id="Group_5406" transform="translate(0 10.687)">
						<path id="Path_435-2" class="st2" d="M3.6,4.7c0.3,0.3,0.3,0.8,0,1.1l0,0C3.5,6,3.3,6.1,3,6.1C2.8,6.1,2.6,6,2.5,5.8L0.2,3.6
							C0.1,3.5,0,3.3,0,3c0-0.2,0.1-0.4,0.2-0.6l2.2-2.2c0.3-0.3,0.8-0.3,1.1,0l0,0c0.3,0.3,0.3,0.8,0,1.1l0,0L2.8,2.2h4
							c0.4,0,0.8,0.4,0.8,0.8S7.2,3.8,6.8,3.8h-4L3.6,4.7z"/>
					</g>
				</g>
			</g>
			<g id="Group_5407" transform="translate(648)">
				<rect id="Rectangle_2780-4" class="st14" width="24" height="24"/>
				<g id="Group_5404" transform="translate(1.858 5.799)">
					<g id="noun_gold_2883279-2" transform="translate(0 0.464)">
						<g id="Layer_2-3" transform="translate(0 0)">
							<path id="Path_659-2" class="st13" d="M8.1,5H0.7C0.3,5,0,4.7,0,4.3c0-0.1,0-0.2,0-0.2l1.3-3.6C1.4,0.2,1.7,0,2,0h5
								c0.3,0,0.6,0.2,0.7,0.5l1,3.6c0.2,0.4,0,0.8-0.4,0.9C8.2,5,8.2,5,8.1,5L8.1,5z"/>
						</g>
					</g>
					<g id="Group_5410" transform="translate(1.385 7.014)">
						<path id="Path_435-3" class="st2" d="M3.7,4.3c-0.3,0.3-0.3,0.8,0,1.1C3.8,5.5,4,5.6,4.2,5.6s0.4-0.1,0.5-0.2l2-2
							C6.9,3.2,7,3,7,2.8S6.9,2.4,6.8,2.3l-2-2C4.4-0.1,4-0.1,3.7,0.2S3.4,1,3.7,1.3L4.4,2H0.8C0.3,2,0,2.4,0,2.8s0.3,0.7,0.7,0.7
							h3.7L3.7,4.3z"/>
					</g>
					<g id="Group_5411" transform="translate(11.124)">
						<path id="Path_2213" class="st2" d="M0.5,0.6V12h6.1V9.4h2.6V0.6H0.5z"/>
						<path id="Path_2212" d="M9.3,0H0.4C0.2,0,0,0.2,0,0.3v11.9c0,0.2,0.2,0.3,0.4,0.4h6.2c0.1,0,0.2,0,0.2-0.1l2.8-2.8
							c0.1-0.1,0.1-0.2,0.1-0.2V0.3C9.6,0.2,9.5,0,9.3,0z M6.9,11.4V9.8h1.6L6.9,11.4z M8.9,9.1H6.5c-0.2,0-0.3,0.2-0.4,0.4v2.4H0.7
							V0.7h8.2V9.1z"/>
						<path id="Path_2752" class="st17" d="M6.6,6c0-0.2-0.1-0.3-0.1-0.5C6.3,5,6,4.5,5.7,4.1C5.6,4,5.5,4,5.4,3.9
							c-0.1,0-0.1-0.1-0.2-0.1l0,0c0-0.1,0.1-0.1,0.1-0.2C5.4,3.4,5.5,3.2,5.6,3l0,0v0.1L5.7,3V2.9c0,0-0.1,0-0.1-0.1l0,0
							c-0.6-0.2-1.3-0.2-2,0c0,0.1-0.1,0.1,0,0.2l0.5,0.8c0,0,0,0,0,0.1C3.9,3.8,3.8,3.9,3.7,4C3.6,4.2,3.4,4.3,3.3,4.5
							C3.1,4.8,2.9,5.2,2.8,5.6c0,0.2-0.1,0.4-0.1,0.6c0,0.1,0,0.2,0,0.4c0,0.1,0,0.3,0,0.4c0.1,0.3,0.2,0.5,0.5,0.7
							C3.5,7.8,3.7,7.8,4,7.8c0.1,0,0.2,0,0.3,0h0.1h0.4l0,0h0.1c0.1,0,0.3,0,0.4,0s0.3,0,0.4-0.1c0.5-0.1,0.8-0.5,0.8-1
							c0-0.1,0-0.2,0-0.2C6.6,6.3,6.6,6.2,6.6,6z M4,3L3.9,2.8l0,0H4l0,0h0.1c0.1,0,0.2,0,0.3,0c0.4,0,0.7,0,1.1,0.1V3L5,3.7
							c-0.2-0.1-0.5-0.1-0.7,0L4,3z M6.3,7C6.2,7.2,6,7.4,5.8,7.5c-0.1,0-0.3,0.1-0.5,0.1s-0.4,0-0.6,0s-0.4,0-0.6,0
							c-0.3,0-0.5,0-0.8-0.1c0-0.1-0.2-0.2-0.3-0.4C3,7,2.9,6.9,2.9,6.8s0-0.3,0-0.4c0-0.2,0-0.3,0.1-0.5c0-0.3,0.2-0.7,0.4-1
							c0.1-0.2,0.2-0.3,0.3-0.5C3.8,4.2,4,4.1,4.2,4l0,0c0.3-0.2,0.6-0.2,0.9,0l0,0c0.1,0,0.3,0.2,0.4,0.3C5.7,4.5,5.8,4.7,6,5
							c0.1,0.3,0.2,0.5,0.3,0.8c0,0.1,0,0.2,0.1,0.3c0,0.1,0,0.2,0,0.3C6.4,6.7,6.4,6.8,6.3,7L6.3,7z"/>
					</g>
				</g>
			</g>
			<g id="Group_5408" transform="translate(672)">
				<rect id="Rectangle_2780-5" class="st14" width="24" height="24"/>
				<g id="Group_5404-2" transform="translate(6.666 3.253)">
					<g id="noun_gold_2883279-3" transform="translate(0 9.171)">
						<g id="Layer_2-4" transform="translate(0 0)">
							<path id="Path_659-3" class="st18" d="M9.2,5.7H0.8C0.3,5.7,0,5.3,0,4.9c0-0.1,0-0.2,0-0.3l1.5-4.1C1.6,0.2,1.9,0,2.3,0H8
								c0.4,0,0.7,0.2,0.8,0.6L10,4.7c0.1,0.4-0.1,0.9-0.6,1C9.3,5.7,9.2,5.7,9.2,5.7L9.2,5.7z"/>
						</g>
					</g>
					<g id="Group_4537-2" transform="translate(7.977 0) rotate(90)">
						<path id="Path_435-4" class="st2" d="M3.8,4.5c-0.3,0.3-0.3,0.8,0,1.1c0.3,0.3,0.8,0.3,1.1,0L7,3.5c0.3-0.3,0.3-0.8,0-1.1l0,0
							L4.9,0.2c-0.3-0.3-0.8-0.3-1.1,0S3.5,1,3.8,1.3l0,0l0.8,0.8H0.8C0.3,2.1,0,2.5,0,2.9s0.3,0.8,0.8,0.8h3.8L3.8,4.5z"/>
					</g>
				</g>
			</g>
			<g id="Group_5409" transform="translate(696)">
				<rect id="Rectangle_2780-6" class="st14" width="24" height="24"/>
				<g id="noun_voucher_2112209" transform="translate(2.315 6.161)">
					<path id="Rectangle_2797" class="st2" d="M5.7,2.8h4c0.6,0,1,0.4,1,1v4c0,0.6-0.4,1-1,1h-4c-0.6,0-1-0.4-1-1v-4
						C4.7,3.3,5.1,2.8,5.7,2.8z"/>
					<path id="Path_2177" d="M18.5,4.5C19,4.2,19.3,3.6,19.4,3V2.4C19.4,1.1,18.3,0,17,0l0,0H2.4C1.1,0,0,1.1,0,2.4V3
						c0,0.6,0.4,1.2,0.9,1.5C1.8,5,2.1,6.1,1.6,7C1.4,7.3,1.2,7.5,0.9,7.7C0.4,7.9,0,8.5,0,9.1v0.6c0,1.3,1.1,2.4,2.4,2.4h14.5
						c1.3,0,2.4-1.1,2.4-2.4V9.1c0-0.6-0.4-1.2-0.9-1.5c-0.9-0.5-1.2-1.6-0.7-2.5C18,4.9,18.2,4.6,18.5,4.5z M17.8,3.4
						c-1.4,0.8-1.9,2.7-1.1,4.1C17,8,17.4,8.4,17.8,8.7C18,8.8,18.1,9,18.1,9.1v0.6c0,0.7-0.5,1.2-1.2,1.2l0,0H2.4
						c-0.7,0-1.2-0.5-1.2-1.2l0,0V9.1c0-0.2,0.1-0.4,0.3-0.4C3,7.8,3.5,6,2.6,4.5C2.4,4.1,2,3.7,1.5,3.4C1.4,3.4,1.2,3.2,1.2,3V2.4
						c0-0.7,0.5-1.2,1.2-1.2l0,0h14.5c0.7,0,1.2,0.5,1.2,1.2l0,0V3C18.1,3.2,18,3.4,17.8,3.4L17.8,3.4z"/>
					<circle id="Ellipse_182" cx="13.8" cy="9.3" r="0.6"/>
					<circle id="Ellipse_183" cx="13.8" cy="5.8" r="0.6"/>
					<circle id="Ellipse_184" cx="13.8" cy="2.4" r="0.6"/>
					<circle id="Ellipse_185" cx="13.8" cy="4.1" r="0.6"/>
					<circle id="Ellipse_186" cx="13.8" cy="7.6" r="0.6"/>
					<path id="Path_2178" d="M9.4,2.4H6.3c-1.1,0-2.1,0.9-2.1,2.1v3.1c0,1.1,0.9,2.1,2.1,2.1h3.1c1.1,0,2.1-0.9,2.1-2.1V4.5
						C11.5,3.4,10.6,2.4,9.4,2.4z M10.3,7.6c0,0.5-0.4,0.9-0.9,0.9H6.3c-0.5,0-0.9-0.4-0.9-0.9V4.5c0-0.5,0.4-0.9,0.9-0.9h3.1
						c0.5,0,0.9,0.4,0.9,0.9L10.3,7.6z"/>
				</g>
			</g>
			<g id="Group_5414" transform="translate(720)">
				<g id="Group_5413" transform="translate(0 0)">
					<rect id="Rectangle_2780-7" class="st14" width="24" height="24"/>
					<path id="Rectangle_2798" class="st2" d="M3,0h18c1.7,0,3,1.3,3,3v18c0,1.7-1.3,3-3,3H3c-1.7,0-3-1.3-3-3V3C0,1.3,1.3,0,3,0z"
						/>
					<g id="plus" transform="translate(11.706 6.857) rotate(45)">
						<line id="Line_73-3" class="st19" x1="0" y1="0" x2="6.9" y2="6.9"/>
						<line id="Line_74-3" class="st19" x1="6.9" y1="0" x2="0" y2="6.9"/>
					</g>
				</g>
			</g>
			<g id="Group_5415" transform="translate(744)">
				<g id="Group_5413-2" transform="translate(0 0)">
					<rect id="Rectangle_2780-8" x="0" y="0" class="st14" width="24" height="24"/>
					<path id="Rectangle_2798-2" class="st20" d="M3,0h18c1.7,0,3,1.3,3,3v18c0,1.7-1.3,3-3,3H3c-1.7,0-3-1.3-3-3V3C0,1.3,1.3,0,3,0
						z"/>
					<g id="plus-2" transform="translate(15.134 8.277) rotate(90)">
						<line id="Line_73-4" class="st19" x1="0" y1="0" x2="6.9" y2="6.9"/>
						<line id="Line_74-4" class="st19" x1="6.9" y1="0" x2="0" y2="6.9"/>
					</g>
				</g>
			</g>
			<g id="Group_5420" transform="translate(768)">
				<g id="Group_5413-3" transform="translate(0 0)">
					<rect id="Rectangle_2780-9" x="0" y="0" class="st21" width="24" height="24"/>
					<path id="Rectangle_2798-3" class="st22" d="M3,0h18c1.7,0,3,1.3,3,3v18c0,1.7-1.3,3-3,3H3c-1.7,0-3-1.3-3-3V3C0,1.3,1.3,0,3,0
						z"/>
					<g id="tick" transform="translate(7.857 8.636)">
						<path id="Path_47" class="st16" d="M8.3,1.5L3.2,7.3L0,4.3l1.4-1.6l1.8,1.5L6.9,0L8.3,1.5z"/>
					</g>
				</g>
			</g>
			<g id="Group_5307" transform="translate(1104)">
				<rect id="Rectangle_2788" y="0" class="st14" width="24" height="24"/>
				<g id="noun_ATM_Card_2674810" transform="translate(0 4.8)">
					<g id="Layer_2-5" transform="translate(0 0)">
						<path id="Path_2185" d="M23.2,0H0.8C0.4,0,0,0.4,0,0.8l0,0v12.8c0,0.4,0.4,0.8,0.8,0.8h22.4c0.4,0,0.8-0.4,0.8-0.8V0.8
							C24,0.4,23.6,0,23.2,0z M22.4,12.8H1.6V1.6h20.8V12.8z"/>
						<text transform="matrix(1 0 0 1 5 9.2)" class="st23 st24">GHS</text>
					</g>
				</g>
			</g>
			<g id="Group_5308" transform="translate(1128)">
				<rect id="Rectangle_2789" y="0" class="st14" width="24" height="24"/>
				<g id="noun_ATM_Card_2674810-2" transform="translate(0 1.843)">
					<path id="Subtraction_20" d="M22.4,17.3H0.8C0.4,17.3,0,17,0,16.5V4.1c0-0.4,0.3-0.8,0.8-0.8h18.5l-1.5,1.5H1.5v10.8h20.1V5.8
						l1-1c0.2-0.2,0.4-0.6,0.5-0.9c0,0.1,0,0.1,0,0.2v12.4C23.2,16.9,22.9,17.3,22.4,17.3z"/>
					<g id="edit" transform="translate(12.547 1.852)">
						<path id="Path_2083" class="st11" d="M7.9,0.5c0.6-0.6,1.6-0.6,2.3,0s0.6,1.6,0,2.3l0,0L3,9.9l-3,0.8l0.8-3L7.9,0.5z"/>
					</g>
					<path id="Path_2192" d="M3.5,14.5h5.6c0.3,0,0.5-0.2,0.5-0.5s-0.2-0.5-0.5-0.5H3.5C3.2,13.5,3,13.7,3,14S3.3,14.5,3.5,14.5z"/>
				</g>
			</g>
			<g id="Group_5310" transform="translate(1183.2)">
				<rect id="Rectangle_2792" x="-0.2" y="0" class="st14" width="24" height="24"/>
				<g id="noun_ATM_Card_2674810-3" transform="translate(0 4.953)">
					<g id="Layer_2-6" transform="translate(0 0)">
						<path id="Path_2185-2" d="M23.2,0H0.8C0.4,0,0,0.4,0,0.8l0,0v12.8c0,0.4,0.4,0.8,0.8,0.8h22.4c0.4,0,0.8-0.4,0.8-0.8V0.8
							C24,0.4,23.6,0,23.2,0z M22.4,12.8H1.6V1.6h20.8V12.8z"/>
					</g>
					<path id="Path_2192-2" d="M3.7,11.5h6c0.3,0,0.5-0.2,0.5-0.5s-0.2-0.5-0.5-0.5h-6c-0.3,0-0.5,0.2-0.5,0.5S3.4,11.5,3.7,11.5z"
						/>
					<path id="Path_2194" d="M4,4.8h1.6C6,4.8,6.4,4.4,6.4,4S6,3.2,5.6,3.2H4C3.6,3.2,3.2,3.6,3.2,4S3.6,4.8,4,4.8z"/>
				</g>
			</g>
			<g id="Group_5309" transform="translate(1159.2)">
				<rect id="Rectangle_2791" x="-0.2" y="0" class="st14" width="24" height="24"/>
				<g id="noun_ATM_Card_2674810-4" transform="translate(0 4.953)">
					<g id="Layer_2-7" transform="translate(0 0)">
						<path id="Path_2185-3" d="M23.2,0H0.8C0.4,0,0,0.4,0,0.8l0,0v12.8c0,0.4,0.4,0.8,0.8,0.8h22.4c0.4,0,0.8-0.4,0.8-0.8V0.8
							C24,0.4,23.6,0,23.2,0z M22.4,12.8H1.6V1.6h20.8V12.8z"/>
					</g>
					<circle id="Ellipse_187" cx="16.6" cy="10.9" r="0.7"/>
					<circle id="Ellipse_188" cx="16.6" cy="7.1" r="0.7"/>
					<circle id="Ellipse_189" cx="16.6" cy="3.2" r="0.7"/>
					<circle id="Ellipse_190" cx="16.6" cy="5.1" r="0.7"/>
					<circle id="Ellipse_191" cx="16.6" cy="9" r="0.7"/>
					<path id="Path_2193" d="M11.7,3.2H8.2c-1.3,0-2.3,1.1-2.3,2.3V9c0,1.3,1.1,2.3,2.3,2.3h3.5C13,11.3,14,10.2,14,9V5.5
						C14.1,4.2,13,3.2,11.7,3.2z M12.7,9.1c0,0.5-0.4,1-1,1l0,0H8.2c-0.5,0-1-0.4-1-1l0,0V5.5c0-0.5,0.4-1,1-1l0,0h3.5
						c0.5,0,1,0.4,1,1l0,0V9.1z"/>
				</g>
			</g>
			<g id="Group_5294" transform="translate(792)">
				<rect id="Rectangle_598" y="0" class="st14" width="24" height="24"/>
				<path id="Path_628" class="st25" d="M15.8,5.4L9,12.2l6.8,6.8"/>
			</g>
			<g id="Group_5295" transform="translate(816)">
				<rect id="Rectangle_600" y="0" class="st14" width="24" height="24"/>
				<path id="Path_650" class="st25" d="M9,5.4l6.8,6.8L9,19.1"/>
			</g>
			<g id="Group_5297" transform="translate(864)">
				<rect id="Rectangle_2775" y="0" class="st14" width="24" height="24"/>
				<g id="Group_5279" transform="translate(1.2 3.6)">
					<path id="Union_9" class="st2" d="M12.3,16.8c-4.6,0-8.4-3.8-8.4-8.4S7.7,0,12.3,0s8.4,3.8,8.4,8.4S16.9,16.8,12.3,16.8z
						 M12.3,1.7c-3.7,0-6.7,3-6.7,6.7s3,6.7,6.7,6.7s6.7-3,6.7-6.7S16,1.7,12.3,1.7z"/>
					<path id="Subtraction_10" class="st2" d="M8.4,16.8C3.8,16.8,0,13.1,0,8.4S3.8,0,8.4,0c0.4,0,0.8,0,1.3,0.1
						C7.7,0.4,6,1.4,4.6,2.9C1.5,5,0.8,9.1,2.9,12.2C3.4,12.9,4,13.5,4.7,14c1.3,1.5,3.1,2.5,5.1,2.8C9.3,16.8,8.8,16.8,8.4,16.8z"
						/>
				</g>
			</g>
			<g id="Group_5298" transform="translate(888)">
				<rect id="Rectangle_2776" y="0" class="st14" width="24" height="24"/>
				<g id="noun_voucher_2112209-2" transform="translate(0 4.8)">
					<path id="Path_2177-2" class="st2" d="M22.9,5.6c0.7-0.4,1.1-1,1.1-1.8V3c0-1.7-1.3-3-3-3H3C1.3,0,0,1.3,0,3v0.8
						c0,0.8,0.5,1.5,1.1,1.9c1.1,0.6,1.4,2,0.8,3.1C1.8,9,1.5,9.3,1.1,9.5C0.5,9.8,0,10.5,0,11.3V12c0,1.7,1.3,3,3,3h18
						c1.7,0,3-1.3,3-3v-0.7c0-0.8-0.5-1.5-1.1-1.8c-1.1-0.6-1.4-2-0.8-3.1C22.2,6,22.5,5.8,22.9,5.6z M22.1,4.3
						c-1.8,1-2.4,3.3-1.4,5.1c0.3,0.6,0.8,1,1.4,1.4c0.2,0.1,0.4,0.3,0.4,0.5V12c0,0.8-0.7,1.5-1.5,1.5H3c-0.8,0-1.5-0.7-1.5-1.5
						v-0.7c0-0.2,0.2-0.4,0.4-0.5c1.8-1,2.4-3.3,1.4-5.1C3,5.1,2.5,4.7,1.9,4.3C1.7,4.2,1.5,4,1.5,3.8V3c0-0.8,0.7-1.5,1.5-1.5h18
						c0.8,0,1.5,0.7,1.5,1.5v0.8C22.5,4,22.3,4.2,22.1,4.3L22.1,4.3z"/>
					<circle id="Ellipse_182-2" class="st2" cx="17" cy="11.5" r="0.8"/>
					<circle id="Ellipse_183-2" class="st2" cx="17" cy="7.2" r="0.8"/>
					<circle id="Ellipse_184-2" class="st2" cx="17" cy="3" r="0.8"/>
					<circle id="Ellipse_185-2" class="st2" cx="17" cy="5.1" r="0.8"/>
					<circle id="Ellipse_186-2" class="st2" cx="17" cy="9.4" r="0.8"/>
					<path id="Path_2178-2" class="st2" d="M11.7,3H7.8C6.4,3,5.3,4.2,5.2,5.6v3.9c0,1.4,1.2,2.6,2.6,2.6h3.9c1.4,0,2.6-1.2,2.6-2.6
						V5.6C14.2,4.2,13.1,3,11.7,3z M12.8,9.4c0,0.6-0.5,1.1-1.1,1.1H7.8c-0.6,0-1.1-0.5-1.1-1.1V5.6c0-0.6,0.5-1.1,1.1-1.1h3.9
						c0.6,0,1.1,0.5,1.1,1.1C12.8,5.6,12.8,9.4,12.8,9.4z"/>
				</g>
			</g>
			<g id="Group_5299" transform="translate(912)">
				<rect id="Rectangle_2779" y="0" class="st14" width="24" height="24"/>
				<path id="Path_2179" class="st2" d="M11.2,17.2c-3.3,0-6-2.7-6-6s2.7-6,6-6s6,2.7,6,6l0,0C17.2,14.5,14.5,17.2,11.2,17.2z
					 M20.4,19.3L17.1,16c2.6-3.3,2.1-8.1-1.1-10.7C12.7,2.6,7.9,3.1,5.3,6.4s-2.1,8.1,1.1,10.7c2.8,2.3,6.8,2.3,9.6,0l3.3,3.3
					L20.4,19.3z"/>
			</g>
			<g id="Group_5336" transform="translate(936)">
				<rect id="Rectangle_2779-2" y="0" class="st14" width="24" height="24"/>
				<path id="Path_2179-2" class="st26" d="M11.2,17.2c-3.3,0-6-2.7-6-6s2.7-6,6-6s6,2.7,6,6l0,0C17.2,14.5,14.5,17.2,11.2,17.2z
					 M20.4,19.3L17.1,16c2.6-3.3,2.1-8.1-1.1-10.7C12.7,2.6,7.9,3.1,5.3,6.4s-2.1,8.1,1.1,10.7c2.8,2.3,6.8,2.3,9.6,0l3.3,3.3
					L20.4,19.3z"/>
			</g>
			<g id="Group_5300" transform="translate(960)">
				<g id="Group_5280" transform="translate(0 0)">
					<rect id="Rectangle_2781" y="0" class="st14" width="24" height="24"/>
					<g id="edit-2" transform="translate(3.6 3.6)">
						<path id="Path_2083-2" class="st27" d="M12.5,0.7c1-1,2.6-0.9,3.6,0.1c0.9,1,0.9,2.5,0,3.5L4.8,15.6L0,16.8L1.2,12L12.5,0.7z"
							/>
					</g>
				</g>
			</g>
			<g id="Group_5301" transform="translate(984)">
				<rect id="Rectangle_2781-2" y="0" class="st14" width="24" height="24"/>
				<g id="plus-3" transform="translate(11.588 4.8) rotate(45)">
					<line id="Line_73-5" class="st12" x1="0" y1="0" x2="9.6" y2="9.6"/>
					<line id="Line_74-5" class="st12" x1="9.6" y1="0" x2="0" y2="9.6"/>
				</g>
			</g>
			<g id="Group_5296" transform="translate(840)">
				<rect id="Rectangle_2774" x="0" y="0" class="st14" width="24" height="24"/>
				<g id="noun_scan_2082613" transform="translate(2.4 3.6)">
					<path id="Path_2181" class="st2" d="M4.3,3.6C3.9,3.6,3.5,4,3.5,4.4l0,0v8c0,0.4,0.4,0.8,0.8,0.8s0.8-0.4,0.8-0.8v-8
						C5.1,4,4.8,3.6,4.3,3.6L4.3,3.6z M7.8,3.6C7.4,3.6,7,4,7,4.4l0,0v8c0,0.4,0.4,0.8,0.8,0.8c0.4,0,0.8-0.4,0.8-0.8v-8
						C8.6,4,8.3,3.6,7.8,3.6L7.8,3.6z M11.4,3.6c-0.4,0-0.8,0.4-0.8,0.8l0,0v8c0,0.4,0.4,0.8,0.8,0.8c0.4,0,0.8-0.4,0.8-0.8v-8
						C12.2,4,11.8,3.6,11.4,3.6z M14.9,3.6c-0.4,0-0.8,0.4-0.8,0.8v8c0,0.4,0.4,0.8,0.8,0.8c0.4,0,0.8-0.4,0.8-0.8v-8
						C15.7,4,15.3,3.6,14.9,3.6z"/>
					<path id="Path_2182" class="st2" d="M4,0H0.8C0.4,0,0,0.4,0,0.8l0,0V4c0,0.4,0.4,0.8,0.8,0.8S1.6,4.4,1.6,4l0,0V1.6H4
						c0.4,0,0.8-0.4,0.8-0.8S4.4,0,4,0L4,0z M18.4,0h-3.2c-0.4,0-0.8,0.4-0.8,0.8s0.4,0.8,0.8,0.8l0,0h2.4V4c0,0.4,0.4,0.8,0.8,0.8
						s0.8-0.4,0.8-0.8V0.8C19.2,0.4,18.9,0,18.4,0L18.4,0z M18.4,12c-0.4,0-0.8,0.4-0.8,0.8v2.4h-2.4c-0.4,0-0.8,0.4-0.8,0.8
						s0.4,0.8,0.8,0.8l0,0h3.2c0.4,0,0.8-0.4,0.8-0.8v-3.2C19.2,12.4,18.9,12,18.4,12L18.4,12z M4,15.2H1.6v-2.4
						c0-0.4-0.4-0.8-0.8-0.8S0,12.4,0,12.8l0,0V16c0,0.4,0.4,0.8,0.8,0.8H4c0.4,0,0.8-0.4,0.8-0.8C4.8,15.6,4.4,15.2,4,15.2z"/>
				</g>
			</g>
			<g id="Group_5303" transform="translate(1008)">
				<rect id="Rectangle_2784" x="0" y="0" class="st14" width="24" height="24"/>
				<g id="noun_cash_537120" transform="translate(0.296 2.505)">
					<g id="Group_5281" transform="translate(0)">
						<path id="Path_2183" d="M21.5,4.8c-0.2-0.2-0.5-0.2-0.8-0.1c-0.1,0-4.9,1.4-9,0C7,3.1,0.9,4.5,0.7,4.6C0.3,4.7,0,5,0,5.4
							l0.1,10.9c0,0.3,0.1,0.5,0.3,0.7s0.5,0.2,0.8,0.2c0.1,0,5.8-1.4,10,0c1.5,0.5,3.1,0.7,4.7,0.7c1.8,0,3.6-0.2,5.3-0.7
							c0.4-0.1,0.6-0.5,0.6-0.8l0-11C21.8,5.2,21.7,4.9,21.5,4.8z M11.7,15.5c-1.6-0.5-3.3-0.7-5-0.7c-1.6,0-3.3,0.2-4.9,0.5
							L1.7,6.2c1.7-0.3,6-1,9.4,0.1c2.9,0.8,6,0.9,8.9,0.3v9.1C17.3,16.3,14.4,16.3,11.7,15.5z M4,1.8c1.7,0.1,6.1,0.5,9.1,2.3
							c0.2,0.1,0.5,0.3,0.6,0.4c0.7,0.1,1.4,0.1,2.1,0.1c1,0,2-0.1,3-0.3C17.1,4,15.5,3.4,14,2.5C9.9,0,3.6,0,3.4,0
							C3,0,2.6,0.3,2.5,0.7L1.8,3.8C2.3,3.7,3,3.6,3.7,3.5L4,1.8z M23.5,5.1c-0.2-0.2-0.4-0.3-0.7-0.3h-0.6c0.1,0.2,0.2,0.5,0.2,0.7
							v5.8l1.3-5.4C23.7,5.5,23.7,5.3,23.5,5.1L23.5,5.1z"/>
						<g id="Ellipse_227" transform="translate(7.704 7.495)">
							<ellipse class="st1" cx="3.5" cy="3" rx="3.5" ry="3"/>
							<ellipse class="st13" cx="3.5" cy="3" rx="3" ry="2.5"/>
						</g>
					</g>
				</g>
			</g>
			<g id="Group_5304" transform="translate(1032)">
				<rect id="Rectangle_2785" y="0" class="st14" width="24" height="24"/>
				<g id="noun_ATM_Card_2674810-5" transform="translate(0 4.953)">
					<g id="Layer_2-8" transform="translate(0 0)">
						<path id="Path_2185-4" d="M23.2,0H0.8C0.4,0,0,0.4,0,0.8l0,0v12.8c0,0.4,0.4,0.8,0.8,0.8h22.4c0.4,0,0.8-0.4,0.8-0.8V0.8
							C24,0.4,23.6,0,23.2,0z M22.4,12.8H1.6V1.6h20.8V12.8z"/>
						<path id="Path_2186" d="M16.8,12c0.4,0,0.8-0.1,1.2-0.3c1.1,0.7,2.6,0.3,3.3-0.8s0.3-2.6-0.8-3.3c-0.8-0.4-1.7-0.4-2.4,0
							c-1.1-0.7-2.6-0.3-3.3,0.8s-0.3,2.6,0.8,3.3C15.9,11.9,16.4,12,16.8,12z M20,9.6c0,0.5-0.5,0.8-0.9,0.8c0.2-0.5,0.2-1,0-1.5
							c0,0,0.1,0,0.1-0.1C19.6,8.8,20,9.2,20,9.6L20,9.6z M16.8,8.8c0.4,0,0.8,0.4,0.8,0.8s-0.4,0.8-0.8,0.8S16,10,16,9.6l0,0
							C16,9.2,16.4,8.8,16.8,8.8z"/>
						<path id="Path_2187" d="M4,4.8h1.6C6,4.8,6.4,4.4,6.4,4S6,3.2,5.6,3.2H4C3.6,3.2,3.2,3.6,3.2,4S3.6,4.8,4,4.8z"/>
						<path id="Path_2188" d="M4,8h8.8c0.4,0,0.8-0.4,0.8-0.8s-0.4-0.8-0.8-0.8H4c-0.4,0-0.8,0.4-0.8,0.8S3.6,8,4,8z"/>
					</g>
				</g>
			</g>
			<g id="Group_5305" transform="translate(1056)">
				<rect id="Rectangle_2786" y="0" class="st14" width="24" height="24"/>
				<g id="noun_ATM_Card_2674810-6" transform="translate(0 4.684)">
					<g id="Layer_2-9" transform="translate(0 0)">
						<path id="Path_2185-5" d="M23.2,0H0.8C0.4,0,0,0.4,0,0.8l0,0v12.8c0,0.4,0.4,0.8,0.8,0.8h22.4c0.4,0,0.8-0.4,0.8-0.8V0.8
							C24,0.4,23.6,0,23.2,0z M22.4,12.8H1.6V1.6h20.8V12.8z"/>
						<text transform="matrix(1 0 0 1 6 9.316)" class="st23 st24">CN</text>
					</g>
				</g>
			</g>
			<g id="Group_5306" transform="translate(1080)">
				<rect id="Rectangle_2787" y="0" class="st14" width="24" height="24"/>
				<g id="noun_ATM_Card_2674810-7" transform="translate(0 4.8)">
					<g id="Layer_2-10" transform="translate(0 0)">
						<path id="Path_2185-6" d="M23.2,0H0.8C0.4,0,0,0.4,0,0.8l0,0v12.8c0,0.4,0.4,0.8,0.8,0.8h22.4c0.4,0,0.8-0.4,0.8-0.8V0.8
							C24,0.4,23.6,0,23.2,0z M22.4,12.8H1.6V1.6h20.8V12.8z"/>
						<g id="noun_User_2087080" transform="translate(1.195 6.497)">
							<g id="Group_5282" transform="translate(0)">
								<path id="Path_2189" d="M3.5,0c1,0,1.8,0.8,1.8,1.8S4.5,3.6,3.5,3.6S1.7,2.9,1.7,1.8l0,0C1.7,0.8,2.5,0,3.5,0z M3.5,0.8
									c-0.6,0-1.1,0.5-1.1,1.1S2.9,3,3.5,3s1.1-0.5,1.1-1l0,0C4.6,1.3,4.1,0.8,3.5,0.8L3.5,0.8z"/>
								<path id="Path_2190" d="M3.5,4C5.3,4,6.9,5.3,7,7.1c0,0.4-0.7,0.4-0.7,0.1C6.1,5.7,4.7,4.6,3.2,4.8C1.9,4.9,0.9,5.9,0.8,7.2
									C0.7,7.6,0,7.6,0,7.1C0.2,5.3,1.7,4,3.5,4z"/>
							</g>
						</g>
					</g>
				</g>
			</g>
			<g id="Group_5312" transform="translate(1231.2)">
				<rect id="Rectangle_2795" x="-0.2" y="0" class="st14" width="24" height="24"/>
				<g id="Group_5290" transform="translate(0 5.04)">
					<path id="Path_2185-7" d="M23.2,0H0.8C0.4,0,0,0.4,0,0.8l0,0v12.8c0,0.4,0.4,0.8,0.8,0.8h22.4c0.4,0,0.8-0.4,0.8-0.8V0.8
						C24,0.4,23.6,0,23.2,0z M22.4,12.8H1.6V1.6h20.8V12.8z"/>
					<g id="Group_5289" transform="translate(5.188 2.862)">
						<path id="Path_2207" d="M9.8,2.9C9.6,1.8,8.6,1,7.5,1C7.3,1,7.2,1,7,1.1C5.9-0.2,3.9-0.4,2.6,0.8c-0.6,0.6-1,1.4-1,2.3
							c-1.4,0.6-2,2.1-1.4,3.4c0.4,1,1.4,1.6,2.4,1.6h7.2c1.4,0,2.6-1.2,2.6-2.7C12.4,4,11.2,2.9,9.8,2.9z M9.8,7.1H2.6
							C1.7,7.1,1,6.4,1,5.5c0-0.7,0.5-1.4,1.2-1.6c0.2-0.1,0.4-0.3,0.4-0.5c0-0.1,0-0.2,0-0.3C2.6,1.9,3.5,1,4.7,1
							c0.7,0,1.4,0.4,1.8,0.9C6.6,2.1,6.8,2.2,7,2.1C7.2,2,7.4,2,7.5,2c0.8,0,1.4,0.6,1.4,1.4c0,0.1,0.1,0.3,0.2,0.4
							c0.1,0.1,0.3,0.1,0.4,0.1c0.9-0.2,1.8,0.5,1.9,1.4C11.6,6.1,11,7,10.1,7.1C10,7.1,9.9,7.1,9.8,7.1L9.8,7.1z"/>
					</g>
				</g>
			</g>
			<g id="Group_5311" transform="translate(1207.2)">
				<path id="Path_2208" class="st14" d="M0,0h24v24H0V0z"/>
				<g id="Group_5291" transform="translate(0 5.04)">
					<path id="Path_2185-8" d="M23.1,0H0.8C0.4,0,0,0.4,0,0.8l0,0v12.7c0,0.4,0.4,0.8,0.8,0.8h22.3c0.4,0,0.8-0.4,0.8-0.8V0.8
						C23.9,0.4,23.5,0,23.1,0z M22.3,12.7H1.6V1.6h20.7L22.3,12.7z"/>
					<g id="noun_Air_1256458" transform="translate(6.875 2.839)">
						<path id="Path_2209" d="M5.2,2.2H0.4C0.2,2.2,0,2.3,0,2.5s0.2,0.4,0.4,0.4h4.9h0.1c0.8-0.1,1.4-0.8,1.3-1.6
							C6.5,0.5,5.8-0.1,5,0C4.3,0.1,3.8,0.7,3.8,1.5c0,0.2,0.2,0.4,0.4,0.4s0.4-0.2,0.4-0.4c0-0.4,0.3-0.7,0.7-0.7S6,1.1,6,1.5
							C5.9,1.8,5.6,2.2,5.2,2.2L5.2,2.2z"/>
						<path id="Path_2210" d="M0.4,5.2H5c0.2,0,0.4-0.2,0.4-0.4S5.3,4.4,5,4.4H0.4C0.2,4.4,0,4.6,0,4.8S0.2,5.2,0.4,5.2z"/>
						<path id="Path_2211" d="M8.1,4.5C7.3,4.5,6.7,5.2,6.6,6c0,0.2,0.2,0.4,0.4,0.4S7.4,6.2,7.4,6c0-0.4,0.3-0.7,0.7-0.7
							S8.8,5.6,8.8,6c0,0.4-0.3,0.7-0.7,0.7H0.4C0.2,6.6,0,6.8,0,7s0.2,0.4,0.4,0.4h7.8h0.1C9,7.3,9.6,6.5,9.5,5.7
							C9.4,5,8.8,4.5,8.1,4.5z"/>
					</g>
				</g>
			</g>
			<g id="Group_5283" transform="translate(1255.2)">
				<rect id="Rectangle_2790" x="-0.2" y="0" class="st14" width="24" height="24"/>
				<g id="noun_Rupee_842802" transform="translate(6 3.6)">
					<path id="Path_113" class="st16" d="M1,2h2.6C4,2,4.5,2,4.9,2H4.6c0.3,0,0.6,0.1,0.9,0.3L5.3,2.2c0.3,0.1,0.5,0.3,0.8,0.5
						L5.9,2.5c0.2,0.2,0.5,0.4,0.7,0.7L6.4,2.9c0.2,0.2,0.3,0.5,0.5,0.8L6.7,3.5C6.9,3.8,6.9,4.1,7,4.4V4.1C7,4.4,7,4.7,7,5V4.7
						C7,5,6.9,5.3,6.8,5.6l0.1-0.2C6.7,5.8,6.6,6.1,6.4,6.3l0.2-0.2C6.3,6.4,6.1,6.6,5.9,6.8l0.2-0.2C5.8,6.8,5.6,7,5.3,7.1L5.5,7
						C5.2,7.1,4.9,7.2,4.6,7.2h0.3c-0.4,0-0.7,0-1.1,0H1c-0.5,0-1,0.5-1,1v0.3C0,8.8,0.1,9,0.3,9.2l0,0l0.1,0.1L1,10.1l2,2.4L5.2,15
						l1.2,1.4l0,0c0.2,0.2,0.4,0.3,0.7,0.3c0.3,0,0.5-0.1,0.7-0.3C8,16.2,8.1,16,8.1,15.7S8,15.2,7.8,15l-1-1.1l-2.1-2.5L2.6,9
						L1.7,7.9L2,8.6V8.2l-1,1h2.6c0.3,0,0.7,0,1,0c0.5,0,1-0.1,1.4-0.3c0.3-0.1,0.5-0.2,0.7-0.4C7,8.4,7.2,8.3,7.4,8.1
						c0.7-0.6,1.2-1.5,1.4-2.4c0.1-0.5,0.1-1,0.1-1.5c0-0.6-0.2-1.1-0.4-1.6C8.1,1.7,7.4,1,6.6,0.6C5.9,0.2,5.1,0,4.3,0H1
						C0.4,0,0,0.4,0,1S0.4,2,1,2L1,2z"/>
					<path id="Path_115" class="st16" d="M1,2.1h9.8c0.6,0,1-0.5,1-1.1c0-0.5-0.5-1-1-1H1C0.4,0,0,0.5,0,1.1S0.5,2.1,1,2.1z"/>
					<path id="Path_114" class="st16" d="M10.8,3.7H1c-0.6,0-1,0.5-1,1.1c0,0.5,0.5,1,1,1h9.8c0.6,0,1-0.5,1-1.1
						C11.8,4.2,11.4,3.7,10.8,3.7z"/>
				</g>
			</g>
			<g id="Group_5292" transform="translate(1279.2)">
				<rect id="Rectangle_2790-2" x="-0.2" y="0" class="st14" width="24" height="24"/>
				<g id="noun_Rupee_842802-2" transform="translate(7.2 4.8)">
					<path id="Path_114-2" class="st16" d="M9.3,3.2H0.9C0.4,3.2,0.1,3.5,0,3.9c0,0.4,0.3,0.8,0.7,0.9c0.1,0,0.1,0,0.2,0h8.4
						c0.4,0,0.8-0.3,0.9-0.7c0-0.4-0.3-0.8-0.7-0.9C9.4,3.2,9.3,3.2,9.3,3.2z"/>
					<path id="Path_115-2" class="st16" d="M0.9,1.6h8.4c0.4,0,0.8-0.3,0.9-0.7C10.2,0.4,9.8,0,9.4,0H9.3H0.9C0.4,0,0.1,0.3,0,0.7
						c0,0.4,0.3,0.8,0.7,0.9C0.8,1.6,0.8,1.6,0.9,1.6z"/>
					<path id="Path_113-2" class="st16" d="M0.9,1.7h2.4c0.4,0,0.8,0,1.1,0H4.2c0.3,0,0.6,0.1,0.8,0.2L4.8,1.8C5,2,5.2,2.1,5.5,2.2
						L5.3,2.1c0.2,0.2,0.4,0.4,0.6,0.6L5.7,2.5C5.9,2.7,6,2.9,6.1,3.2L6,3c0.1,0.3,0.2,0.5,0.2,0.8V3.6c0,0.3,0,0.5,0,0.8V4.2
						C6.2,4.5,6.1,4.7,6,5l0.1-0.2C6,5,5.9,5.2,5.7,5.4l0.1-0.2C5.7,5.4,5.5,5.6,5.3,5.8l0.2-0.1C5.2,5.8,5,6,4.8,6.1L5,6
						C4.7,6.1,4.4,6.2,4.1,6.2h0.2c-0.3,0-0.7,0-1,0H0.9C0.4,6.2,0,6.6,0,7.1v0.3C0,7.6,0.1,7.8,0.3,8l0,0l0.1,0.1l0.5,0.6l1.8,2
						l2,2.2l1.1,1.2l0,0c0.2,0.2,0.4,0.3,0.6,0.3s0.5-0.1,0.6-0.3c0.2-0.2,0.3-0.4,0.3-0.6c0-0.2-0.1-0.4-0.3-0.6l-0.9-1L4.2,9.8
						L2.4,7.7l-0.8-1l0.3,0.6V7l-1,0.9h2.4c0.3,0,0.6,0,0.9,0c0.4,0,0.9-0.1,1.3-0.3C6,7.4,6.4,7.2,6.7,6.9C7,6.7,7.2,6.4,7.4,6
						C7.9,5.3,8.1,4.5,8,3.6c0-0.5-0.2-1-0.4-1.4c-0.2-0.4-0.4-0.7-0.7-1c-0.3-0.3-0.6-0.5-1-0.7C5.3,0.2,4.6,0,3.9,0h-3
						C0.4,0,0,0.4,0,0.9S0.4,1.7,0.9,1.7L0.9,1.7z"/>
				</g>
			</g>
			<g id="Group_5293" transform="translate(1327.2)">
				<rect id="Rectangle_2790-3" x="-0.2" y="0" class="st14" width="24" height="24"/>
				<g id="noun_Rupee_842802-3" transform="translate(7.2 4.8)">
					<path id="Path_114-3" d="M9.3,3.2H0.9C0.4,3.2,0.1,3.5,0,3.9c0,0.4,0.3,0.8,0.7,0.9c0.1,0,0.1,0,0.2,0h8.4
						c0.4,0,0.8-0.3,0.9-0.7c0-0.4-0.3-0.8-0.7-0.9C9.4,3.2,9.3,3.2,9.3,3.2z"/>
					<path id="Path_115-3" d="M0.9,1.6h8.4c0.4,0,0.8-0.3,0.9-0.7C10.2,0.4,9.8,0,9.4,0H9.3H0.9C0.4,0,0.1,0.3,0,0.7
						c0,0.4,0.3,0.8,0.7,0.9C0.8,1.6,0.8,1.6,0.9,1.6z"/>
					<path id="Path_113-3" d="M0.9,1.7h2.4c0.4,0,0.8,0,1.1,0H4.2c0.3,0,0.6,0.1,0.8,0.2L4.8,1.8C5,2,5.2,2.1,5.5,2.2L5.3,2.1
						c0.2,0.2,0.4,0.4,0.6,0.6L5.7,2.5C5.9,2.7,6,2.9,6.1,3.2L6,3c0.1,0.3,0.2,0.5,0.2,0.8V3.6c0,0.3,0,0.5,0,0.8V4.2
						C6.2,4.5,6.1,4.7,6,5l0.1-0.2C6,5,5.9,5.2,5.7,5.4l0.1-0.2C5.7,5.4,5.5,5.6,5.3,5.8l0.2-0.1C5.2,5.8,5,6,4.8,6.1L5,6
						C4.7,6.1,4.4,6.2,4.1,6.2h0.2c-0.3,0-0.7,0-1,0H0.9C0.4,6.2,0,6.6,0,7.1v0.3C0,7.6,0.1,7.8,0.3,8l0,0l0.1,0.1l0.5,0.6l1.8,2
						l2,2.2l1.1,1.2l0,0c0.2,0.2,0.4,0.3,0.6,0.3s0.5-0.1,0.6-0.3c0.2-0.2,0.3-0.4,0.3-0.6c0-0.2-0.1-0.4-0.3-0.6l-0.9-1L4.2,9.8
						L2.4,7.7l-0.8-1l0.3,0.6V7l-1,0.9h2.4c0.3,0,0.6,0,0.9,0c0.4,0,0.9-0.1,1.3-0.3C6,7.4,6.4,7.2,6.7,6.9C7,6.7,7.2,6.4,7.4,6
						C7.9,5.3,8.1,4.5,8,3.6c0-0.5-0.2-1-0.4-1.4c-0.2-0.4-0.4-0.7-0.7-1c-0.3-0.3-0.6-0.5-1-0.7C5.3,0.2,4.6,0,3.9,0h-3
						C0.4,0,0,0.4,0,0.9S0.4,1.7,0.9,1.7L0.9,1.7z"/>
				</g>
			</g>
			<g id="Group_5335" transform="translate(1303.2)">
				<rect id="Rectangle_2790-4" x="-0.2" y="0" class="st14" width="24" height="24"/>
				<g id="rupee_icon" transform="translate(7.2 4.8)">
					<path id="Path_115-4" class="st26" d="M0.9,1.7h8.4c0.5,0,0.9-0.4,0.9-0.9S9.7,0,9.3,0H0.9C0.4,0,0,0.4,0,0.9S0.4,1.7,0.9,1.7
						L0.9,1.7z"/>
					<path id="Path_114-4" class="st26" d="M9.3,3.2H0.9C0.4,3.2,0,3.6,0,4.1S0.4,5,0.9,5h8.4c0.5,0,0.9-0.4,0.9-0.9
						C10.1,3.6,9.7,3.2,9.3,3.2z"/>
					<path id="Path_113-4" class="st26" d="M0.9,1.7h2.3c0.4,0,0.7,0,1.1,0H4c0.3,0,0.5,0.1,0.8,0.2L4.6,1.8C4.9,2,5.1,2.1,5.3,2.2
						L5.1,2.1c0.2,0.2,0.4,0.4,0.6,0.6L5.6,2.5C5.7,2.7,5.8,2.9,6,3.2L5.9,3C6,3.2,6,3.5,6.1,3.8V3.6c0,0.3,0,0.5,0,0.8V4.2
						C6,4.4,6,4.7,5.9,4.9L6,4.7C5.8,5,5.7,5.2,5.6,5.4l0.1-0.2C5.5,5.4,5.3,5.6,5.1,5.8l0.2-0.1C5.1,5.8,4.9,6,4.6,6.1L4.8,6
						C4.6,6.1,4.3,6.2,4,6.2h0.2c-0.3,0-0.6,0-1,0H0.9C0.4,6.2,0,6.6,0,7.1v0.3C0,7.6,0.1,7.8,0.3,8l0,0l0.1,0.1l0.5,0.6l1.7,2
						l1.9,2.2l1.1,1.2l0,0c0.2,0.2,0.4,0.3,0.6,0.3C6.7,14.4,7,14,7,13.5c0-0.2-0.1-0.4-0.3-0.6L6,12L4.1,9.8L2.3,7.7l-0.8-1
						l0.3,0.6V7.1L0.9,7.9h2.3c0.3,0,0.6,0,0.9,0c0.4,0,0.8-0.1,1.2-0.3c0.2-0.1,0.4-0.2,0.6-0.3C6.1,7.2,6.3,7,6.5,6.9
						c0.9-0.8,1.4-2.1,1.3-3.3c0-0.5-0.2-1-0.4-1.4C7,1.5,6.5,0.9,5.8,0.5C5.1,0.2,4.5,0,3.8,0H0.9C0.4,0,0,0.4,0,0.9
						S0.4,1.7,0.9,1.7L0.9,1.7z"/>
				</g>
			</g>
			<g id="Group_5329" transform="translate(1351.2)">
				<rect id="Rectangle_2796" x="-0.2" y="0" class="st14" width="24" height="24"/>
				<g id="Group_5328" transform="translate(7.2 7.8)">
					<line id="Line_73-6" class="st28" x1="0" y1="0" x2="9.6" y2="9.6"/>
					<line id="Line_74-6" class="st28" x1="9.6" y1="0" x2="0" y2="9.6"/>
				</g>
			</g>
			<g id="Group_5525" transform="translate(1591.2)">
				<rect id="Rectangle_2796-2" x="-0.2" y="0" class="st14" width="24" height="24"/>
				<g id="Group_5328-2" transform="translate(7.2 7.8)">
					<line id="Line_73-7" class="st12" x1="0" y1="0" x2="9.6" y2="9.6"/>
					<line id="Line_74-7" class="st12" x1="9.6" y1="0" x2="0" y2="9.6"/>
				</g>
			</g>
			<g id="Group_5934" transform="translate(1615.2)">
				<rect id="Rectangle_2796-3" x="-0.2" y="0" class="st14" width="24" height="24"/>
				<g id="Group_5935" transform="translate(0.3 1)">
					<path id="Path_2388" class="st29" d="M4.5,6.1h14"/>
					<path id="Path_2389" class="st29" d="M16.3,6.1V17c0.1,0.8-0.6,1.5-1.4,1.6H8.1c-0.8-0.1-1.4-0.8-1.4-1.6V6.1 M8.8,6.1V4.6
						C8.7,3.8,9.3,3.1,10.1,3h2.7c0.8,0.1,1.4,0.8,1.4,1.6v1.6"/>
				</g>
			</g>
			<g id="Group_5936" transform="translate(1639.2)">
				<rect id="Rectangle_2796-4" x="-0.2" y="0" class="st14" width="24" height="24"/>
				<g id="Group_5935-2" transform="translate(0.3 1)">
					<path id="Path_2388-2" class="st30" d="M4.5,6.1h14"/>
					<path id="Path_2389-2" class="st30" d="M16.3,6.1V17c0.1,0.8-0.6,1.5-1.4,1.6H8.1c-0.8-0.1-1.4-0.8-1.4-1.6V6.1 M8.8,6.1V4.6
						C8.7,3.8,9.3,3.1,10.1,3h2.7c0.8,0.1,1.4,0.8,1.4,1.6v1.6"/>
				</g>
			</g>
			<g id="Group_5331" transform="translate(1375.2)">
				<g id="Group_5330" transform="translate(0 0)">
					<rect id="Rectangle_2796-5" x="-0.2" y="0" class="st14" width="24" height="24"/>
					<g id="cal_icon" transform="translate(5.174 6.549)">
						<g id="Rectangle_647" transform="translate(0 1.365)">
							<rect x="0" y="0" class="st1" width="13.7" height="9.4"/>
							<rect x="0.5" y="0.5" class="st31" width="12.7" height="8.4"/>
						</g>
						<path id="Rectangle_648" class="st26" d="M9.9,6.4L9.9,6.4c0.6,0,1,0.4,1,1l0,0c0,0.6-0.4,1-1,1l0,0c-0.6,0-1-0.4-1-1l0,0
							C8.9,6.8,9.3,6.4,9.9,6.4z"/>
						<path id="Path_627" class="st32" d="M2.7,1.4V0"/>
						<path id="Path_626" class="st32" d="M10.9,1.4V0"/>
						<line id="Line_75" class="st33" x1="0.7" y1="4.2" x2="13" y2="4.2"/>
					</g>
				</g>
			</g>
			<g id="Group_5332" transform="translate(1399.2)">
				<g id="Group_5330-2" transform="translate(0 0)">
					<rect id="Rectangle_2796-6" x="-0.2" y="0" class="st14" width="24" height="24"/>
					<g id="badge" transform="translate(0)">
						<circle id="circle" class="st26" cx="11.8" cy="12" r="12"/>
						<text transform="matrix(1 0 0 1 7 17)" class="st16 st34 st35">1</text>
					</g>
				</g>
			</g>
			<g id="Group_5333" transform="translate(1423.2)">
				<g id="Group_5330-3" transform="translate(0 0)">
					<rect id="Rectangle_2796-7" x="-0.2" y="0" class="st14" width="24" height="24"/>
					<g id="tick-2" transform="translate(0)">
						<circle id="Ellipse_144" class="st22" cx="11.8" cy="12" r="12"/>
						<path id="Path_47-2" class="st16" d="M18.8,8.7l-8.7,9.7l-5.3-5l2.3-2.6l3,2.5l6.4-7.1L18.8,8.7z"/>
					</g>
				</g>
			</g>
			<g id="Group_5334" transform="translate(1447.2)">
				<rect id="Rectangle_2796-8" x="-0.2" y="0" class="st14" width="24" height="24"/>
				<g id="tick-3" transform="translate(4.8 6.139)">
					<path id="Path_47-3" class="st22" d="M14,2.6l-8.7,9.7L0,7.2l2.3-2.6l3,2.5L11.7,0L14,2.6z"/>
				</g>
			</g>
			<g id="Group_5522" transform="translate(1519.2)">
				<rect id="Rectangle_2796-9" x="-0.2" y="0" class="st14" width="24" height="24"/>
				<g id="tick-4" transform="translate(4.8 6.139)">
					<path id="Path_47-4" class="st36" d="M14,2.6l-8.7,9.7L0,7.2l2.3-2.6l3,2.5L11.7,0L14,2.6z"/>
				</g>
			</g>
			<g id="Group_5523" transform="translate(1543.2)">
				<rect id="Rectangle_2796-10" x="-0.2" y="0" class="st14" width="24" height="24"/>
				<g id="Icon_feather-upload" transform="translate(2.36 2.189)">
					<path id="Path_2545" class="st30" d="M14.8,11.3v2.3c0,0.6-0.5,1.1-1.1,1.1h-8c-0.6,0-1.1-0.5-1.1-1.1v-2.3"/>
					<path id="Path_2546" class="st30" d="M12.5,7.3L9.6,4.5L6.8,7.3"/>
					<path id="Path_2547" class="st30" d="M9.6,4.5v6.8"/>
				</g>
			</g>
			<g id="Group_5524" transform="translate(1567.2)">
				<rect id="Rectangle_2796-11" x="-0.2" y="0" class="st14" width="24" height="24"/>
				<g id="Icon_feather-upload-2" transform="translate(2.36 2.189)">
					<path id="Path_2545-2" class="st29" d="M14.8,11.3v2.3c0,0.6-0.5,1.1-1.1,1.1h-8c-0.6,0-1.1-0.5-1.1-1.1v-2.3"/>
					<path id="Path_2546-2" class="st29" d="M12.5,7.3L9.6,4.5L6.8,7.3"/>
					<path id="Path_2547-2" class="st29" d="M9.6,4.5v6.8"/>
				</g>
			</g>
			<g id="Group_5412" transform="translate(1471.2)">
				<rect id="Rectangle_2796-12" x="-0.2" y="0" class="st14" width="24" height="24"/>
				<path id="Path_2214" class="st37" d="M4.8,4.8H20l-6.5,8.1v4l-3,2.3v-6.3L4.8,4.8z"/>
			</g>
			<g id="Group_5506" transform="translate(1495.199)">
				<rect id="Rectangle_2796-13" x="-0.2" y="0" class="st14" width="24" height="24"/>
				<g id="Icon_feather-more-vertical" transform="translate(-5 -0.241)">
					<path id="Path_2384" class="st38" d="M18.1,12.4c0,0.4-0.4,0.8-0.8,0.8s-0.8-0.4-0.8-0.8s0.4-0.8,0.8-0.8l0,0
						C17.7,11.6,18.1,12,18.1,12.4z"/>
					<path id="Path_2385" class="st38" d="M18.1,6.8c0,0.4-0.4,0.8-0.8,0.8s-0.8-0.4-0.8-0.8S16.9,6,17.3,6l0,0
						C17.7,6,18.1,6.4,18.1,6.8z"/>
					<path id="Path_2386" class="st38" d="M18.1,18c0,0.4-0.4,0.8-0.8,0.8s-0.8-0.4-0.8-0.8s0.4-0.8,0.8-0.8l0,0
						C17.7,17.2,18.1,17.6,18.1,18z"/>
				</g>
			</g>
			<g id="Group_6077" transform="translate(1831.199)">
				<rect id="Rectangle_2796-14" x="-0.2" y="0" class="st14" width="24" height="24"/>
				<g id="Icon_feather-more-vertical-2" transform="translate(-5 -0.241)">
					<path id="Path_2384-2" class="st39" d="M18.1,12.4c0,0.4-0.4,0.8-0.8,0.8s-0.8-0.4-0.8-0.8s0.4-0.8,0.8-0.8l0,0
						C17.7,11.6,18.1,12,18.1,12.4z"/>
					<path id="Path_2385-2" class="st39" d="M18.1,6.8c0,0.4-0.4,0.8-0.8,0.8s-0.8-0.4-0.8-0.8S16.9,6,17.3,6l0,0
						C17.7,6,18.1,6.4,18.1,6.8z"/>
					<path id="Path_2386-2" class="st39" d="M18.1,18c0,0.4-0.4,0.8-0.8,0.8s-0.8-0.4-0.8-0.8s0.4-0.8,0.8-0.8l0,0
						C17.7,17.2,18.1,17.6,18.1,18z"/>
				</g>
			</g>
			<g id="bin_icon" transform="translate(1663.2)">
				<rect id="Rectangle_2796-15" x="-0.2" y="0" class="st14" width="24" height="24"/>
				<g id="Group_5935-3" transform="translate(0.3 1)">
					<path id="Path_2388-3" class="st30" d="M4.5,6.1h14"/>
					<path id="Path_2389-3" class="st30" d="M16.3,6.1V17c0.1,0.8-0.6,1.5-1.4,1.6H8.1c-0.8-0.1-1.4-0.8-1.4-1.6V6.1 M8.8,6.1V4.6
						C8.7,3.8,9.3,3.1,10.1,3h2.7c0.8,0.1,1.4,0.8,1.4,1.6v1.6"/>
				</g>
				<line id="Line_288" class="st40" x1="10.3" y1="9.5" x2="10.3" y2="16.5"/>
				<line id="Line_289" class="st40" x1="13.3" y1="9.5" x2="13.3" y2="16.5"/>
			</g>
			<g id="bin_icon-2" transform="translate(1687.2)">
				<rect id="Rectangle_2796-16" x="-0.2" y="0" class="st14" width="24" height="24"/>
				<g id="Icon_feather-user" transform="translate(-38.2 99.54)">
					<g id="Group_5937" transform="translate(-5.964 -39.268)">
						<path id="Path_2543" class="st29" d="M60.7-42.1v-1.5c0-1.6-1-2.9-2.2-2.9h-4.4c-1.2,0-2.2,1.3-2.2,2.9v1.5"/>
						<path id="Path_2544" class="st29" d="M59.3-52.3c0,1.7-1.3,3-3,3s-3-1.3-3-3s1.3-3,3-3S59.3-53.9,59.3-52.3z"/>
					</g>
				</g>
			</g>
			<g id="Group_5938" transform="translate(0 -252)">
				<rect id="Rectangle_2796-17" x="1711" y="252" class="st14" width="24" height="24"/>
				<g id="mobile_icon" transform="translate(1550.076 56.366)">
					<g id="Group_2-3" transform="translate(167.96 198.989)">
						<g id="Group_1-3" transform="translate(0)">
							<path id="Subtraction_2" class="st41" d="M1.1,16.8c-0.1,0-0.3,0-0.4-0.1c-0.3-0.1-0.5-0.3-0.6-0.6C0,16,0,15.9,0,15.7V1.1
								C0,1,0,0.9,0.1,0.8c0-0.1,0.1-0.2,0.2-0.3s0.1-0.2,0.2-0.2c0.1-0.1,0.2-0.1,0.3-0.2S1,0,1.1,0h7.4C8.7,0,8.8,0,9,0.1
								c0.1,0.1,0.3,0.1,0.4,0.3c0.1,0.1,0.2,0.2,0.3,0.4c0,0.1,0,0.2,0,0.4v0.1l0,0l0,0c0,1.2,0,2.4,0,3.5s0,2.4,0,3.5
								c0,2.4,0,4.7,0,7.1c0,0.1,0,0.3,0,0.4c0,0.1-0.1,0.2-0.1,0.3c-0.1,0.1-0.1,0.2-0.2,0.3c-0.1,0.1-0.2,0.2-0.3,0.2
								c-0.1,0.1-0.3,0.1-0.4,0.1H1.3C1.2,16.8,1.2,16.8,1.1,16.8z M1.4,0.8c-0.2,0-0.3,0-0.5,0.2C0.8,1.1,0.7,1.3,0.8,1.5
								c0,1.7,0,3.4,0,5.1l0,0c0,0.6,0,1.2,0,1.8s0,1.2,0,1.7v0.1c0,1.7,0,3.4,0,5.1c0,0.2,0,0.4,0.2,0.5c0,0.1,0.1,0.1,0.1,0.2
								c0.1,0,0.2,0,0.3,0l0,0c0.3,0,0.6,0,1,0h0.7h0.7h4.5c0.3,0,0.5-0.1,0.6-0.4c0-0.1,0-0.2,0-0.3l0,0l0,0l0,0l0,0
								c0-3.6,0-7.3,0-10.4c0-0.2,0-0.5,0-0.7V4c0-0.8,0-1.7,0-2.5c0-0.2,0-0.4-0.2-0.5C8.6,0.8,8.5,0.8,8.3,0.8H8.2H7.9
								c-0.1,0-0.2,0-0.3,0l0,0c-0.1,0-0.1,0-0.2,0l0,0c-0.1,0-0.1,0-0.2,0S7.1,0.8,7,0.9c0,0,0,0.1,0,0.3c0,0.1,0,0.1,0,0.2v0.1
								C7,1.7,6.9,1.9,6.8,2C6.6,2.1,6.5,2.2,6.3,2.1c-0.5,0-0.9,0-1.4,0s-1,0-1.5,0c-0.1,0-0.2,0-0.3-0.1C3,2.1,3,2,2.9,1.9
								C2.8,1.8,2.7,1.6,2.7,1.4s0-0.3,0-0.5V0.8H2.6l0,0c-0.2,0-0.4,0-0.6,0C1.7,0.8,1.6,0.8,1.4,0.8L1.4,0.8z M3.8,0.8
								c-0.4,0-0.4,0-0.4,0.4l0,0c0,0.1,0,0.1,0,0.1h0.1l0,0c0.3,0,0.7,0,1.1,0h1.2c0.2,0,0.3,0,0.4-0.1s0.1-0.2,0-0.4l0,0
								c0-0.1,0-0.1-0.1-0.1l0,0c-0.2,0-0.4,0-0.6,0L3.8,0.8L3.8,0.8z"/>
							<path id="Path_3-2" class="st42" d="M9.5,16.9L9.5,16.9z"/>
							<path id="Path_6-2" class="st43" d="M9.9,16.9L9.9,16.9z"/>
						</g>
					</g>
				</g>
			</g>
			<g id="Group_6069" transform="translate(24 -252)">
				<rect id="Rectangle_2796-18" x="1711" y="252" class="st14" width="24" height="24"/>
				<g id="tier" transform="translate(627 140)">
					<circle id="Ellipse_144-2" class="st2" cx="1096" cy="124" r="10"/>
					<text transform="matrix(1 0 0 1 1092 128)" class="st16 st34 st44">G</text>
				</g>
			</g>
			<g id="Group_6070" transform="translate(48 -252)">
				<rect id="Rectangle_2796-19" x="1711" y="252" class="st14" width="24" height="24"/>
				<path id="Icon_awesome-id-card" class="st2" d="M1729.4,258.3h-13.1c-0.7,0-1.3,0.6-1.3,1.3v0.4h15.7v-0.4
					C1730.7,258.9,1730.1,258.3,1729.4,258.3z M1715,269.2c0,0.7,0.6,1.3,1.3,1.3h13.1c0.7,0,1.3-0.6,1.3-1.3v-8.3H1715V269.2z
					 M1724.6,262.9c0-0.1,0.1-0.2,0.2-0.2h3.9c0.1,0,0.2,0.1,0.2,0.2v0.4c0,0.1-0.1,0.2-0.2,0.2h-3.9c-0.1,0-0.2-0.1-0.2-0.2V262.9z
					 M1724.6,264.6c0-0.1,0.1-0.2,0.2-0.2h3.9c0.1,0,0.2,0.1,0.2,0.2v0.4c0,0.1-0.1,0.2-0.2,0.2h-3.9c-0.1,0-0.2-0.1-0.2-0.2V264.6z
					 M1724.6,266.4c0-0.1,0.1-0.2,0.2-0.2h3.9c0.1,0,0.2,0.1,0.2,0.2v0.4c0,0.1-0.1,0.2-0.2,0.2h-3.9c-0.1,0-0.2-0.1-0.2-0.2V266.4z
					 M1719.8,262.6c1,0,1.7,0.8,1.8,1.7s-0.8,1.7-1.7,1.8s-1.7-0.8-1.8-1.7l0,0C1718.1,263.4,1718.8,262.6,1719.8,262.6z
					 M1716.8,268.2c0.2-0.7,0.9-1.2,1.7-1.2h0.2c0.7,0.3,1.5,0.3,2.2,0h0.2c0.8,0,1.4,0.5,1.7,1.2c0.1,0.2-0.1,0.5-0.3,0.5h-0.1
					h-5.1c-0.2,0-0.4-0.2-0.4-0.4C1716.8,268.3,1716.8,268.3,1716.8,268.2z"/>
			</g>
			<g id="Group_6071" transform="translate(72 -252)">
				<rect id="Rectangle_2796-20" x="1711" y="252" class="st14" width="24" height="24"/>
				<g id="noun_Rupee_842802-4" transform="translate(1718.5 258.5)">
					<path id="Path_114-5" d="M7.7,2.7h-7C0.4,2.7,0,2.9,0,3.3S0.2,4,0.6,4h0.1h7c0.4,0,0.7-0.2,0.7-0.6S8.2,2.7,7.9,2.7
						C7.8,2.7,7.8,2.7,7.7,2.7z"/>
					<path id="Path_115-5" d="M0.7,1.3h7c0.4,0,0.7-0.2,0.7-0.6S8.2,0,7.9,0H7.8h-7C0.4,0,0,0.2,0,0.6S0.2,1.3,0.7,1.3L0.7,1.3z"/>
					<path id="Path_113-5" d="M0.7,1.4h2c0.3,0,0.6,0,1,0H3.5c0.2,0,0.5,0.1,0.7,0.2L4,1.5c0.2,0.1,0.4,0.2,0.6,0.3H4.4
						c0.2,0.1,0.3,0.3,0.5,0.5L4.8,2.1C4.9,2.3,5,2.5,5.1,2.7L5,2.5c0.1,0.2,0.2,0.4,0.2,0.7V3c0,0.2,0,0.5,0,0.7V3.5
						C5.2,3.7,5.1,4,5,4.2L5.1,4C5,4.1,4.9,4.3,4.8,4.5l0.1-0.1C4.7,4.5,4.6,4.7,4.4,4.8l0.1-0.1C4.4,4.9,4.2,5,4,5h0.1
						C3.9,5.1,3.7,5.1,3.5,5.2h0.2c-0.3,0-0.6,0-0.8,0H0.7C0.3,5.2,0,5.5,0,5.9v0.2c0,0.2,0.1,0.4,0.2,0.5l0,0l0.1,0.1l0.4,0.5
						l1.5,1.7l1.6,1.8l0.9,1l0,0C4.9,11.9,5.1,12,5.3,12c0.2,0,0.4-0.1,0.5-0.2C5.9,11.7,6,11.5,6,11.3s-0.1-0.4-0.2-0.5L5.1,10
						L3.5,8.2L2,6.4L1.3,5.6l0.2,0.5V5.9L0.7,6.6h2c0.2,0,0.5,0,0.8,0c0.4,0,0.7-0.1,1-0.2c0.4-0.1,0.7-0.3,1-0.6
						C5.8,5.6,6,5.3,6.2,5c0.4-0.6,0.5-1.3,0.5-2c0-0.4-0.1-0.8-0.3-1.2C6.2,1.5,6,1.3,5.8,1C5.5,0.8,5.2,0.6,4.9,0.4
						C4.4,0.1,3.8,0,3.3,0H0.7C0.3,0,0,0.3,0,0.7S0.3,1.4,0.7,1.4L0.7,1.4L0.7,1.4z"/>
				</g>
			</g>
			<g id="Group_6072" transform="translate(96 -252)">
				<rect id="Rectangle_2796-21" x="1711" y="252" class="st14" width="24" height="24"/>
				<path id="Icon_material-fullscreen" d="M1717.3,266.7h-2.3v5.7h5.7v-2.3h-3.4L1717.3,266.7L1717.3,266.7z M1715,262.2h2.3v-3.4
					h3.4v-2.3h-5.7L1715,262.2L1715,262.2z M1728.6,270.1h-3.4v2.3h5.7v-5.7h-2.3L1728.6,270.1L1728.6,270.1z M1725.2,256.5v2.3h3.4
					v3.4h2.3v-5.7L1725.2,256.5L1725.2,256.5z"/>
			</g>
			<g id="Component_132_1" transform="translate(1855)">
				<rect id="Rectangle_2977" y="0" class="st14" width="24" height="24"/>
				<g id="Ellipse_220">
					<circle class="st16" cx="12" cy="12" r="12"/>
					<circle class="st45" cx="12" cy="12" r="11.5"/>
				</g>
				<g>
					<g>
						<defs>
							<circle id="SVGID_00000047059139015415754970000005529379752199737790_" cx="12" cy="12" r="12"/>
						</defs>
						<clipPath id="SVGID_00000029046037472517246930000011856223811289360260_">
							<use xlink:href="#SVGID_00000047059139015415754970000005529379752199737790_"  style="overflow:visible;"/>
						</clipPath>
						<g id="Mask_Group_84" style="clip-path:url(#SVGID_00000029046037472517246930000011856223811289360260_);">
							<path id="Union_18" class="st47" d="M11.7,26.2C5,25,2.3,23.6,2.1,22.4s-0.6-1.2-0.2-1.7c0.1-0.1,0.2-0.2,0.3-0.4
								c0-0.1,0-0.1,0-0.2c0-0.5,0.2-1,0.7-1.3c1.9-1.1,3.8-2.2,5.7-3.2c0.1-0.1,0.2,0,0.3,0.1c0.7,0.8,1.7,1.3,2.7,1.4
								c1.1,0.1,2.2-0.2,3.1-0.9c0.2-0.1,0.4-0.3,0.5-0.5s0.3-0.2,0.4-0.1c1.9,1,3.7,2.1,5.6,3.1c0.3,0.2,0.5,0.4,0.6,0.7l1.1,0.6
								c-0.3,0.5-0.6,0.9-1,1.3c-0.1,0.5-0.5,0.9-0.9,1c-1.7,1.7-4.4,3.8-7.8,3.8C12.7,26.3,12.2,26.3,11.7,26.2z M10.4,15
								c-0.7-0.6-1.3-1.5-1.6-2.4c-0.3-0.8-0.5-1.7-0.5-2.6c0-0.7,0.1-1.4,0.4-2c0.4-1.1,1.4-1.8,2.6-1.9C12.1,6,12.8,6,13.4,6.2
								c1.1,0.3,1.9,1.3,2.1,2.4c0.5,2.1,0,4.4-1.4,6c-0.3,0.4-0.8,0.7-1.3,0.9c-0.2,0.1-0.5,0.1-0.7,0.1
								C11.4,15.7,10.9,15.4,10.4,15z"/>
						</g>
					</g>
				</g>
				<g id="Ellipse_218">
					<circle class="st1" cx="12" cy="12" r="12"/>
					<circle class="st45" cx="12" cy="12" r="11.5"/>
				</g>
			</g>
			<g id="Group_6172" transform="translate(1879.199)">
				<rect id="Rectangle_2796-22" x="-0.2" y="0" class="st14" width="24" height="24"/>
				<g id="Group_6173" transform="translate(-1101.448 -406.625)">
					<rect id="Rectangle_3022" x="1112" y="413" class="st2" width="3" height="11"/>
					<rect id="Rectangle_3023" x="1108" y="417" class="st2" width="11" height="3"/>
					<g id="Group_4303" transform="translate(-2307.429 -1606.054)">
						<g id="Group_4301" transform="translate(3412.678 2016.68)">
							<path id="Path_728" d="M13.1,16H2.7C1.2,16,0,14.8,0,13.4V2.7C0,1.2,1.1,0.1,2.6,0h0.1h4.9C7.8,0,8,0.2,7.9,0.5
								c0,0.2-0.2,0.4-0.4,0.4H2.6c-0.9,0-1.7,0.8-1.7,1.7v10.7c0,1,0.8,1.7,1.7,1.7h10.5c0.9,0,1.7-0.7,1.7-1.7l0,0c0,0,0,0,0-0.1
								V9.9c0-0.3,0.2-0.5,0.4-0.5c0.3,0,0.5,0.2,0.5,0.4l0,0v3.5v0.1C15.7,14.9,14.6,16,13.1,16z"/>
						</g>
					</g>
				</g>
			</g>
			<g id="Group_6177" transform="translate(1903.199)">
				<rect id="Rectangle_2796-23" x="-0.2" class="st14" width="24" height="24"/>
				<g id="Icon_feather-upload-3" transform="translate(22.801 23) rotate(180)">
					<path id="Path_2429" class="st48" d="M18,13.5v3c0,0.8-0.7,1.5-1.5,1.5H6c-0.8,0-1.5-0.7-1.5-1.5v-3"/>
					<path id="Path_2430" class="st48" d="M15,8.2l-3.8-3.8L7.5,8.2"/>
					<path id="Path_2431" class="st48" d="M11.3,4.5v9"/>
				</g>
			</g>
			<g id="Group_6180" transform="translate(1927.199)">
				<rect id="Rectangle_2796-24" x="-0.2" class="st14" width="24" height="24"/>
			</g>
			<g id="Group_6181" transform="translate(1951.199)">
				<rect id="Rectangle_2796-25" x="-0.2" class="st14" width="24" height="24"/>
			</g>
			<g id="Group_6184" transform="translate(1975.199)">
				<rect id="Rectangle_2796-26" x="-0.2" class="st14" width="24" height="24"/>
			</g>
			<g id="Group_6186" transform="translate(1999.199)">
				<rect id="Rectangle_2796-27" x="-0.2" class="st14" width="24" height="24"/>
			</g>
			<g id="Group_6189" transform="translate(2023.199)">
				<rect id="Rectangle_2796-28" x="-0.2" class="st14" width="24" height="24"/>
			</g>
			<g id="Group_6191" transform="translate(2047.199)">
				<rect id="Rectangle_2796-29" x="-0.2" class="st14" width="24" height="24"/>
			</g>
			<g id="Group_6192" transform="translate(2071.199)">
				<rect id="Rectangle_2796-30" x="-0.2" class="st14" width="24" height="24"/>
			</g>
			<g id="Group_6193" transform="translate(2095.199)">
				<rect id="Rectangle_2796-31" x="-0.2" class="st14" width="24" height="24"/>
			</g>
			<g id="encircle" transform="translate(1929 6)">
				<g id="noun_ATM_Card_2674810-8" transform="translate(-1 -7)">
					<g id="Layer_2-11" transform="translate(1 7)">
						<path id="Path_2185-9" class="st2" d="M19.3,0H0.7C0.3,0,0,0.3,0,0.7v10.7C0,11.7,0.3,12,0.7,12h18.7c0.4,0,0.7-0.3,0.7-0.7
							V0.7C20,0.3,19.7,0,19.3,0z M18.7,10.7H1.3V1.3h17.3L18.7,10.7z"/>
						<g id="Group_5282-2" transform="translate(0.996 5.414)">
							<path id="Path_2189-2" class="st2" d="M2.9,0c0.8,0,1.5,0.7,1.5,1.5S3.7,3,2.9,3S1.4,2.4,1.4,1.5l0,0C1.4,0.7,2.1,0,2.9,0z
								 M2.9,0.6C2.4,0.6,2,1,2,1.5s0.3,0.9,0.8,1c0.1,0,0.1,0,0.2,0c0.5,0,0.9-0.4,0.9-0.9l0,0C3.8,1,3.4,0.6,2.9,0.6L2.9,0.6z"/>
							<path id="Path_2190-2" class="st2" d="M2.9,3.3c1.5,0,2.8,1.1,2.9,2.6c0,0.3-0.6,0.4-0.6,0.1C5.1,4.7,3.9,3.8,2.7,4
								c-1.1,0.1-1.9,1-2,2C0.6,6.3,0,6.3,0,5.9C0.2,4.4,1.4,3.3,2.9,3.3z"/>
						</g>
					</g>
				</g>
			</g>
			<g id="Group_5291-2" transform="translate(1629 -306)">
				<path id="Path_2185-10" class="st2" d="M343.2,312h-18.6c-0.4,0-0.7,0.3-0.7,0.7l0,0v10.6c0,0.4,0.3,0.7,0.7,0.7l0,0h18.6
					c0.4,0,0.7-0.3,0.7-0.7l0,0v-10.6C343.9,312.3,343.6,312,343.2,312L343.2,312z M342.6,322.6h-17.2v-9.3h17.2V322.6z"/>
				<g id="noun_Air_1256458-2" transform="translate(329.729 314.366)">
					<path id="Path_2209-2" class="st2" d="M4.3,1.8h-4C0.1,1.8,0,1.9,0,2.1c0,0.2,0.1,0.3,0.3,0.3l0,0h4.1c0,0,0,0,0.1,0
						c0.7-0.1,1.1-0.7,1.1-1.3C5.5,0.4,4.9-0.1,4.2,0C3.6,0.1,3.1,0.6,3.1,1.2c0,0.2,0.2,0.3,0.3,0.3c0.2,0,0.3-0.1,0.3-0.3
						c0-0.3,0.3-0.6,0.6-0.6s0.6,0.3,0.6,0.6C4.9,1.5,4.7,1.8,4.3,1.8L4.3,1.8L4.3,1.8z"/>
					<path id="Path_2210-2" class="st2" d="M0.3,4.3h3.9c0.2,0,0.3-0.1,0.3-0.3S4.4,3.7,4.2,3.7l0,0H0.3C0.1,3.7,0,3.8,0,4
						C0,4.1,0.1,4.3,0.3,4.3L0.3,4.3z"/>
					<path id="Path_2211-2" class="st2" d="M6.7,3.7C6,3.7,5.5,4.2,5.5,4.9c0,0.2,0.1,0.3,0.3,0.3C6,5.3,6.1,5.1,6.1,5l0,0
						c0-0.3,0.3-0.6,0.6-0.6S7.3,4.7,7.3,5c0,0.3-0.3,0.6-0.6,0.6l0,0H0.3C0.1,5.5,0,5.6,0,5.8C0,6,0.1,6.1,0.3,6.1l0,0h6.5
						c0,0,0,0,0.1,0c0.6,0,1.1-0.7,1-1.3S7.3,3.7,6.7,3.7L6.7,3.7z"/>
				</g>
			</g>
			<g id="Group_6182" transform="translate(1878.874 -217.928)">
				<path id="Path_2746" class="st49" d="M120,229.7c-0.1-0.1-0.2-0.3-0.4-0.4c-1.5-1.5-3.1-2.7-4.9-3.7s-3.7-1.6-5.7-1.7
					c-1.5-0.1-2.9,0.1-4.3,0.5c-2.3,0.7-4.4,1.9-6.3,3.5c-0.7,0.5-1.3,1.1-1.9,1.7c-0.2,0.2-0.2,0.5,0,0.7l0,0
					c0.1,0.1,0.2,0.2,0.3,0.3c1.4,1.4,3.1,2.6,4.9,3.6c2,1.1,4.2,1.8,6.5,1.8c1.4,0,2.7-0.2,4-0.7c2.2-0.8,4.3-2,6.1-3.5
					c0.6-0.5,1.2-1,1.7-1.6C120.2,230.2,120.2,229.9,120,229.7C120,229.8,120,229.7,120,229.7z M102.5,233.3
					c-1.6-0.9-3.1-1.9-4.5-3.2c-0.1-0.1-0.1-0.1,0-0.2c1.8-1.7,4-3.1,6.3-4h0.1c-1.8,2.4-1.8,5.8,0,8.2
					C103.7,233.9,103.1,233.6,102.5,233.3z M108.2,234.8c-2.3,0-4.1-2.2-4.1-4.8s1.9-4.8,4.2-4.8s4.1,2.2,4.1,4.8
					S110.5,234.9,108.2,234.8z M118.5,230.1c-1.8,1.7-3.9,3.1-6.3,4h-0.1c1.8-2.4,1.8-5.8,0-8.2c0.4,0.1,0.8,0.3,1.1,0.5
					c1.9,0.9,3.7,2.1,5.2,3.5C118.6,230,118.6,230,118.5,230.1L118.5,230.1z"/>
				<circle id="Ellipse_222" class="st50" cx="108.5" cy="230.2" r="0.9"/>
			</g>
			<g id="Group_6185" transform="translate(1902.874 -217.928)">
				<path id="Path_2746-2" class="st49" d="M120,229.7c-0.1-0.1-0.2-0.3-0.4-0.4c-1.5-1.5-3.1-2.7-4.9-3.7s-3.7-1.6-5.7-1.7
					c-1.5-0.1-2.9,0.1-4.3,0.5c-2.3,0.7-4.4,1.9-6.3,3.5c-0.7,0.5-1.3,1.1-1.9,1.7c-0.2,0.2-0.2,0.5,0,0.7l0,0
					c0.1,0.1,0.2,0.2,0.3,0.3c1.4,1.4,3.1,2.6,4.9,3.6c2,1.1,4.2,1.8,6.5,1.8c1.4,0,2.7-0.2,4-0.7c2.2-0.8,4.3-2,6.1-3.5
					c0.6-0.5,1.2-1,1.7-1.6C120.2,230.2,120.2,229.9,120,229.7C120,229.8,120,229.7,120,229.7z M102.5,233.3
					c-1.6-0.9-3.1-1.9-4.5-3.2c-0.1-0.1-0.1-0.1,0-0.2c1.8-1.7,4-3.1,6.3-4h0.1c-1.8,2.4-1.8,5.8,0,8.2
					C103.7,233.9,103.1,233.6,102.5,233.3z M108.2,234.8c-2.3,0-4.1-2.2-4.1-4.8s1.9-4.8,4.2-4.8s4.1,2.2,4.1,4.8
					S110.5,234.9,108.2,234.8z M118.5,230.1c-1.8,1.7-3.9,3.1-6.3,4h-0.1c1.8-2.4,1.8-5.8,0-8.2c0.4,0.1,0.8,0.3,1.1,0.5
					c1.9,0.9,3.7,2.1,5.2,3.5C118.6,230,118.6,230,118.5,230.1L118.5,230.1z"/>
				<circle id="Ellipse_222-2" class="st50" cx="108.5" cy="230.2" r="0.9"/>
			</g>
			<line id="Line_312" class="st51" x1="2015.5" y1="4.5" x2="2006.5" y2="19.5"/>
			<g id="Group_6190" transform="translate(0.499 0.112)">
				<path id="Path_2749" class="st52" d="M2033.1,20.1c0,1.3,1,2.4,2.3,2.4c0.1,0,0.1,0,0.2,0c0.7,0,1.3-0.2,1.8-0.7
					s0.7-1.1,0.7-1.8l0,0L2033.1,20.1L2033.1,20.1z"/>
				<path id="Path_2750" class="st52" d="M2036.1,4.1V3c0-0.2-0.1-0.4-0.2-0.6c-0.1-0.1-0.3-0.2-0.5-0.2s-0.4,0.1-0.6,0.2
					c-0.2,0.2-0.3,0.4-0.3,0.6v1.1c-2.4,0.3-4.4,1.9-5.2,4.2c-0.2,0.6-0.3,1.2-0.3,1.8c-0.1,2.2-0.5,4.3-1.1,6.4
					c-0.1,0.3,0.1,0.6,0.4,0.7c0.1,0,0.1,0,0.2,0h13.5c0.3,0,0.6-0.2,0.6-0.6c0-0.1,0-0.1,0-0.2c-0.6-2-0.9-4.1-1-6.2
					c0-0.6-0.1-1.2-0.2-1.8C2040.5,6.1,2038.5,4.4,2036.1,4.1z"/>
			</g>
			<g id="icons" transform="translate(1446 -1049)">
				<path id="check" class="st22" d="M613,1053c-4.4,0-8,3.6-8,8s3.6,8,8,8s8-3.6,8-8S617.4,1053,613,1053z M617.6,1059.2l-5.6,5.6
					c-0.3,0.3-0.8,0.3-1.1,0l-2.4-2.4c-0.3-0.3-0.3-0.8,0-1.1s0.8-0.3,1.1,0l0,0l1.8,1.8l5-5c0.3-0.3,0.8-0.3,1.1,0
					S617.9,1058.8,617.6,1059.2C617.6,1059.1,617.6,1059.2,617.6,1059.2L617.6,1059.2z"/>
			</g>
			<path id="rejected" class="st53" d="M2082.4,14.4h1.6V16h-1.6V14.4z M2082.4,8h1.6v4.8h-1.6V8z M2083.2,4c-4.4,0-8,3.6-8,8
				s3.6,8,8,8s8-3.6,8-8S2087.6,4,2083.2,4L2083.2,4z M2083.2,18.4c-3.5,0-6.4-2.9-6.4-6.4s2.9-6.4,6.4-6.4s6.4,2.9,6.4,6.4l0,0
				C2089.6,15.5,2086.7,18.4,2083.2,18.4z"/>
			<path id="pending" class="st54" d="M2112.2,4h-10.5c-0.4,0-0.8,0.3-0.8,0.8v0.5c0,0.4,0.3,0.8,0.8,0.8c-0.1,2.6,1.4,5,3.8,6
				c-2.4,1-3.9,3.4-3.8,6c-0.4,0-0.8,0.3-0.8,0.8v0.5c0,0.4,0.3,0.8,0.8,0.8h10.5c0.4,0,0.8-0.3,0.8-0.8v-0.5c0-0.4-0.3-0.8-0.8-0.8
				c0.1-2.6-1.4-5-3.8-6c2.4-1,3.9-3.4,3.8-6c0.4,0,0.8-0.3,0.8-0.8V4.8C2113,4.3,2112.7,4,2112.2,4z M2109.9,16h-5.8
				c0.3-1.4,1.5-2.4,2.9-2.5C2108.4,13.6,2109.6,14.6,2109.9,16z M2109.9,8h-5.8c-0.2-0.6-0.4-1.3-0.4-2h6.5
				C2110.3,6.7,2110.1,7.4,2109.9,8z"/>
		</g>
	</g>
</g>
</svg>
