<?xml version="1.0" encoding="utf-8"?>
<!-- Generator: Adobe Illustrator 26.3.1, SVG Export Plug-In . SVG Version: 6.00 Build 0)  -->
<svg version="1.1" id="Layer_1" xmlns="http://www.w3.org/2000/svg" xmlns:xlink="http://www.w3.org/1999/xlink" x="0px" y="0px"
	 width="280px" height="40px" viewBox="0 0 280 40" style="enable-background:new 0 0 280 40;" xml:space="preserve">
<style type="text/css">
	.st0{clip-path:url(#SVGID_00000139290086978815645720000018011118936052321716_);}
	.st1{fill:#FFFFFF;fill-opacity:0;}
	.st2{fill:#D9BDB1;}
	.st3{fill:none;stroke:#000000;stroke-width:2;}
	.st4{fill:none;stroke:#000000;stroke-width:3;stroke-linecap:round;}
	.st5{fill:none;stroke:#D9BDB1;stroke-width:3;stroke-linecap:round;}
	.st6{fill:none;}
	.st7{fill:none;stroke:#000000;}
	.st8{fill:none;stroke:#000000;stroke-linecap:round;}
	.st9{fill:#040505;stroke:#000000;stroke-width:0.8;}
	.st10{opacity:0.451;}
	.st11{fill:#FFFFFF;}
	.st12{fill:none;stroke:#EF8921;}
	.st13{fill:none;stroke:#C40808;}
	.st14{opacity:0.3;}
	.st15{fill:#AE1CD1;}
	.st16{fill:#62D11C;}
	.st17{opacity:0.7;}
	.st18{fill:none;stroke:#DDD400;stroke-width:0.8008;stroke-miterlimit:4.0042;}
	.st19{fill:#0086BF;}
	.st20{fill:#38AB73;}
	.st21{fill:#A80B1B;}
	.st22{fill:#F2F1F0;}
	.st23{fill:#F5F4F4;}
	.st24{opacity:0.13;fill:#050605;enable-background:new    ;}
	.st25{opacity:0.17;fill:#14452A;enable-background:new    ;}
	.st26{opacity:0.21;fill:#520711;enable-background:new    ;}
	.st27{opacity:0.314;fill:#050605;enable-background:new    ;}
	.st28{fill:#EFB100;}
	.st29{fill:#D47B17;}
	.st30{fill:#AA2F1B;}
	.st31{fill:#682B13;}
	.st32{opacity:0.7;fill:#FB8F25;enable-background:new    ;}
	.st33{opacity:0.598;fill:#FFD765;enable-background:new    ;}
	.st34{fill:#0092D4;}
	.st35{fill:#FDC148;}
	.st36{fill:#F88623;}
</style>
<g>
	<g>
		<defs>
			<rect id="SVGID_1_" width="280" height="40"/>
		</defs>
		<clipPath id="SVGID_00000112592282643006503410000000154339028059997114_">
			<use xlink:href="#SVGID_1_"  style="overflow:visible;"/>
		</clipPath>
		<g id="_40x40_icons" style="clip-path:url(#SVGID_00000112592282643006503410000000154339028059997114_);">
			<g id="Group_5320" transform="translate(0 -207)">
				<rect id="Rectangle_597" x="40" y="207" class="st1" width="40" height="40"/>
				<g id="Group_4094" transform="translate(41.019 282.69)">
					<g id="Group_4088" transform="translate(-0.019 -71.69)">
						<g id="Rectangle_589">
							<path class="st2" d="M2,0h9c1.1,0,2,0.9,2,2v10c0,1.1-0.9,2-2,2H2c-1.1,0-2-0.9-2-2V2C0,0.9,0.9,0,2,0z"/>
							<path class="st3" d="M2,1h9c0.6,0,1,0.4,1,1v10c0,0.6-0.4,1-1,1H2c-0.6,0-1-0.4-1-1V2C1,1.4,1.4,1,2,1z"/>
						</g>
						<g id="Rectangle_591" transform="translate(0 19)">
							<path class="st2" d="M2,0h9c1.1,0,2,0.9,2,2v10c0,1.1-0.9,2-2,2H2c-1.1,0-2-0.9-2-2V2C0,0.9,0.9,0,2,0z"/>
							<path class="st3" d="M2,1h9c0.6,0,1,0.4,1,1v10c0,0.6-0.4,1-1,1H2c-0.6,0-1-0.4-1-1V2C1,1.4,1.4,1,2,1z"/>
						</g>
						<g id="Group_4087" transform="translate(17.015 3.302)">
							<path id="Path_648" class="st4" d="M0,0h20.5"/>
							<path id="Path_649" class="st5" d="M0,6.4h14.4"/>
						</g>
						<g id="Group_4091" transform="translate(2.863 3.579)">
							<g id="Group_3194" transform="translate(1.609 0.659)">
								<g id="Path_170" transform="translate(3.366 1.764) rotate(180)">
									<path class="st6" d="M1.7,0l0.7,1.3c0.1,0.1,0,0.3-0.1,0.4H2.2H0.3C0.1,1.8,0,1.6,0,1.5V1.4L0.8,0H1.7z"/>
									<path class="st6" d="M1.7,0l0.7,1.3c0.1,0.2,0,0.4-0.3,0.4H0.3C0.1,1.8-0.1,1.5,0,1.3L0.8,0H1.7z"/>
								</g>
								<g id="Ellipse_44" transform="translate(0 1.273)">
									<circle class="st6" cx="2.1" cy="2.1" r="2.1"/>
									<circle class="st7" cx="2.1" cy="2.1" r="1.6"/>
								</g>
							</g>
							<rect id="Rectangle_368" x="0.1" y="0.4" class="st6" width="7" height="6"/>
						</g>
					</g>
					<g id="Group_4089" transform="translate(3.56 -49.697)">
						<g id="Group_4087-2" transform="translate(13.436 0)">
							<path id="Path_648-2" class="st4" d="M0,0h20.5"/>
							<path id="Path_649-2" class="st5" d="M0,6.4h14.4"/>
						</g>
						<g id="Group_3243" transform="translate(0 1.627)">
							<rect id="Rectangle_369" x="0.4" y="0.4" class="st6" width="5" height="5"/>
							<g id="Group_3206" transform="translate(0.471 1.202)">
								<g id="Group_612">
									<path id="Path_160" class="st8" d="M0,0c0,0,2.3,3.6,4.8,0"/>
									<circle id="Ellipse_29" cx="2.4" cy="2.7" r="0.8"/>
								</g>
							</g>
						</g>
					</g>
				</g>
			</g>
			<g id="Group_5507" transform="translate(40 -207)">
				<rect id="Rectangle_597-2" x="40" y="207" class="st1" width="40" height="40"/>
				<g id="Group_5508" transform="translate(-665.022 -269.764)">
					<path id="Path_439" class="st2" d="M714.4,479.6h21.7c1.3,0,2.5,0.8,3,2l4.3,10.7c0.5,1,0,2.2-1,2.7c-0.3,0.2-0.7,0.2-1.1,0.2
						c-2.7,0-4.1-2.3-6.1-2.4s-2.6,2.2-4.7,2.2s-3.5-2.1-5.4-2.1s-3,1.9-5.4,1.9s-2.4-2.1-4.5-2.1s-3.3,2.3-6.4,2.3s-2-2.8-2-2.8
						l4.7-10.8C712,480.3,713.1,479.6,714.4,479.6z"/>
					<path id="Path_440" d="M744.8,491.8C744.8,491.7,744.8,491.7,744.8,491.8l-4.3-10.8c-0.7-1.8-2.5-3-4.4-2.9h-21.7l0,0
						c-1.9,0-3.6,1.1-4.3,2.8l-4.7,10.8c0,0,0,0,0,0.1c-0.4,1.2-0.3,2.5,0.3,3.5c0.7,1,1.9,1.5,3.2,1.4c0.7,0,1.5-0.1,2.2-0.3v14.5
						l0,0l0,0c0.1,2.6,2.3,4.6,4.8,4.5h18.8h0.1c2.5,0,4.6-2,4.7-4.6c0,0,0,0,0-0.1v-14.5c0.6,0.2,1.2,0.3,1.7,0.3
						c1.2,0.1,2.5-0.4,3.2-1.4C745,494.2,745.2,492.9,744.8,491.8z M736.3,510.8c0,0.8-0.7,1.5-1.6,1.5h-0.1h-18.8h-0.1
						c-0.9,0-1.6-0.6-1.6-1.5v-16.1c0.3-0.2,0.7-0.3,1.1-0.4c0.3,0,0.5,0.1,1,0.6c0.9,1,2.2,1.5,3.5,1.5c1.4,0,2.7-0.5,3.9-1.3
						c0.4-0.3,1-0.6,1.5-0.7c0.6,0.1,1.2,0.4,1.7,0.7c1.1,0.8,2.4,1.2,3.7,1.3l0,0c1.3-0.1,2.5-0.6,3.5-1.5c0.6-0.5,0.9-0.7,1.2-0.7
						c0.4,0.1,0.8,0.2,1.2,0.5L736.3,510.8z M741.8,493.4c-0.2,0.1-0.4,0.1-0.7,0.1c-1-0.1-1.9-0.5-2.7-1.1c-1-0.7-2.1-1.2-3.3-1.3
						l0,0c-1.2,0.1-2.4,0.6-3.2,1.4c-0.6,0.5-1,0.8-1.5,0.8l0,0c-0.7-0.1-1.5-0.4-2.1-0.9c-1-0.7-2.1-1.1-3.3-1.2
						c-1.1,0.1-2.2,0.4-3.1,1.1c-0.7,0.5-1.4,0.8-2.2,0.8c-0.6,0-0.8-0.2-1.4-0.7c-0.8-0.9-1.9-1.4-3.1-1.4
						c-1.2,0.1-2.4,0.5-3.4,1.2c-0.9,0.7-1.9,1.1-3,1.1c-0.2,0-0.4,0-0.6-0.1c0-0.2,0-0.4,0.1-0.6l4.6-10.7c0.3-0.6,0.8-0.9,1.5-0.9
						l0,0h21.7l0,0c0.6,0,1.2,0.4,1.5,1l4.2,10.7C741.9,493,741.9,493.2,741.8,493.4z"/>
					<g id="noun_Refresh_2072320" transform="translate(719.39 498.025)">
						<g id="Group_260">
							<path id="Path_62" class="st2" d="M10.9,1.5L10.9,1.5c0,0,0.1,0.1,0.1,0.2v2.9c0,0.1-0.1,0.2-0.2,0.2l0,0l0,0L7.9,4.2
								c-0.1,0-0.1,0-0.1-0.1l0,0C7.7,4,7.7,3.8,7.8,3.7l0.6-0.5C7,1.7,4.6,1.6,3.1,3C2.5,3.5,2.2,4.1,2,4.9C1.9,5.3,1.4,5.6,1,5.6
								l0,0c-0.6,0-1-0.5-1-1c0-0.1,0-0.1,0-0.2c0.8-3.1,3.9-5,6.9-4.2c1.2,0.3,2.2,0.9,3,1.8l0.6-0.5C10.6,1.4,10.8,1.4,10.9,1.5z"
								/>
							<path id="Path_63" class="st2" d="M0.4,10.2L0.4,10.2c0,0-0.1-0.1-0.1-0.2V7.1c0-0.1,0.1-0.2,0.2-0.2l0,0l0,0l2.8,0.6
								c0.1,0,0.1,0,0.1,0.1l0,0c0.1,0.1,0.1,0.3,0,0.3L2.9,8.4c1.4,1.5,3.7,1.7,5.3,0.3c0.6-0.5,1-1.2,1.1-1.9
								C9.4,6.3,9.8,6,10.3,6l0,0c0.6,0,1,0.5,1,1c0,0.1,0,0.1,0,0.2c-0.7,3.1-3.8,5-6.9,4.2c-1.2-0.3-2.2-0.9-3-1.8l-0.6,0.5
								C0.6,10.3,0.5,10.3,0.4,10.2z"/>
						</g>
					</g>
				</g>
			</g>
			<g id="Group_5321" transform="translate(0 -207)">
				<rect id="Rectangle_596" y="207" class="st1" width="40" height="40"/>
				<g id="noun_receipt_561599_1_" transform="translate(4.911 207)">
					<path id="Path_1" class="st2" d="M1.1,1.4v37.1H21V30h8.6V1.4H1.1z"/>
					<g id="Group_1" transform="translate(0 0)">
						<path id="Path_2" d="M8.6,10.2C8.7,10.2,8.6,10.2,8.6,10.2z"/>
						<path id="Path_3" d="M8.4,12.4C8.3,12.4,8.4,12.4,8.4,12.4z"/>
						<path id="Path_4" d="M29.4,0H1.1C0.5,0,0,0.5,0,1.1v37.8C0,39.5,0.5,40,1.1,40h19.6c0.3,0,0.6-0.1,0.8-0.3l8.8-8.8
							c0.2-0.2,0.3-0.5,0.3-0.8v-29C30.6,0.5,30.1,0,29.4,0z M21.8,36.2v-5h5L21.8,36.2z M28.3,29h-7.7c-0.6,0-1.1,0.5-1.1,1.1v7.7
							H2.2V2.2h26.1L28.3,29z"/>
						<path id="Path_5" d="M16.1,6.8h9c0.6-0.1,1.1-0.6,1-1.2c0-0.5-0.5-1-1-1h-9c-0.6,0.1-1.1,0.6-1,1.2
							C15.2,6.4,15.6,6.8,16.1,6.8z"/>
						<path id="Path_6" d="M16.1,12.6h9c0.6-0.1,1.1-0.6,1-1.2c0-0.5-0.5-1-1-1h-9c-0.6,0.1-1.1,0.6-1,1.2
							C15.2,12.1,15.6,12.5,16.1,12.6z"/>
						<path id="Path_7" d="M16.1,18.3h9c0.6-0.1,1.1-0.6,1-1.2c0-0.5-0.5-1-1-1h-9c-0.6,0.1-1.1,0.6-1,1.2
							C15.2,17.8,15.6,18.2,16.1,18.3z"/>
						<path id="Path_8" d="M5.2,23.9h19.9c0.6,0,1.1-0.5,1.1-1.1s-0.5-1.1-1.1-1.1H5.2c-0.6,0-1.1,0.5-1.1,1.1S4.6,23.9,5.2,23.9z"
							/>
						<path id="Path_9" d="M5.2,29.7H15c0.6,0,1.1-0.5,1.1-1.1s-0.5-1.1-1.1-1.1l0,0H5.2c-0.6,0-1.1,0.5-1.1,1.1S4.6,29.7,5.2,29.7z
							"/>
						<path id="Path_10" d="M5.2,35.4H15c0.6,0,1.1-0.5,1.1-1.1s-0.5-1.1-1.1-1.1l0,0H5.2c-0.6,0-1.1,0.5-1.1,1.1S4.6,35.4,5.2,35.4
							z"/>
					</g>
					<path id="Path_2751" class="st9" d="M13,13.6c-0.1-0.4-0.2-0.8-0.3-1.1c-0.4-1.2-1-2.3-1.8-3.2c-0.2-0.2-0.4-0.4-0.7-0.6
						C10.1,8.5,10,8.4,9.8,8.3c0,0,0,0,0-0.1C9.9,8.2,10,8,10,7.9c0.3-0.5,0.5-0.9,0.8-1.4l0,0l-0.1,0.2c0-0.1,0.1-0.3,0.2-0.3
						C11,6.2,11,6.1,11,6c-0.1,0-0.2-0.1-0.3-0.1l0,0C9.2,5.4,7.6,5.4,6,5.9C6,6,6,6.1,6.1,6.3c0.4,0.6,0.7,1.3,1.1,1.9
						c0.1,0.1,0.1,0.1,0,0.2C6.8,8.5,6.6,8.7,6.3,9C6,9.3,5.7,9.7,5.4,10.1c-0.5,0.8-0.9,1.6-1.2,2.5C4.1,13.1,4,13.5,3.9,14
						c0,0.3,0,0.5,0,0.8s0,0.7,0.1,1c0.1,0.7,0.6,1.2,1.2,1.6c0.6,0.3,1.3,0.5,2,0.5c0.2,0,0.4,0,0.7,0c0.1,0,0.2,0,0.3,0H9
						c0,0,0,0,0.1,0s0.1,0,0.2,0c0.3,0,0.7,0,1-0.1c0.3,0,0.6-0.1,0.9-0.2c1.1-0.3,1.9-1.2,2-2.4c0-0.2,0-0.4,0-0.5
						C13.2,14.4,13.1,14,13,13.6z M7,6.7L6.7,6.2l0,0h0.2l0,0h0.2c0.2,0,0.4-0.1,0.6-0.1c0.8-0.1,1.7,0,2.5,0.3l-0.1,0.2L9.3,8.2
						C8.8,8,8.2,8,7.7,8.2L7,6.7z M12.4,16c-0.2,0.5-0.6,1-1.2,1.2c-0.3,0.1-0.7,0.2-1.1,0.3c-0.4,0-0.9,0.1-1.3,0.1
						c-0.4,0-0.9,0-1.3,0c-0.6,0-1.2-0.1-1.8-0.3c-0.4-0.3-0.7-0.7-1-1.1c-0.1-0.2-0.2-0.5-0.2-0.7c0-0.3-0.1-0.6,0-0.9
						c0-0.4,0.1-0.7,0.1-1.1c0.2-0.9,0.5-1.7,0.9-2.5c0.2-0.4,0.5-0.8,0.8-1.1c0.3-0.4,0.7-0.7,1.1-1l0,0c0.6-0.4,1.4-0.4,2-0.1
						c0,0,0,0,0.1,0c0.4,0.2,0.8,0.5,1.1,0.9c0.4,0.5,0.8,1,1.1,1.6s0.6,1.3,0.7,2c0.1,0.3,0.1,0.5,0.2,0.8c0,0.3,0.1,0.5,0.1,0.8
						C12.6,15.2,12.6,15.6,12.4,16z"/>
				</g>
			</g>
			<g id="Group_6066" transform="translate(0 -84)">
				<g id="Group_6064" transform="translate(80 -123)">
					<rect id="Rectangle_597-3" x="40" y="207" class="st1" width="40" height="40"/>
				</g>
				<g id="Group_6065" transform="translate(-1518 -36)">
					<g id="Group_6062" transform="translate(1639 123)">
						<g id="Ellipse_212" transform="translate(34.431 9.906)" class="st10">
							<circle class="st11" cx="1.8" cy="1.8" r="1.8"/>
							<circle class="st12" cx="1.8" cy="1.8" r="1.3"/>
						</g>
						<g id="Ellipse_213" transform="translate(1.112 5.403)" class="st10">
							<circle class="st11" cx="1.8" cy="1.8" r="1.8"/>
							<circle class="st13" cx="1.8" cy="1.8" r="1.3"/>
						</g>
						<g id="Polygon_4" transform="translate(0 21.311) rotate(-70)" class="st14">
							<path class="st11" d="M3.6,3.1l-2.7,0l1.3-2.2L3.6,3.1z"/>
							<path class="st15" d="M2.3,1.9L1.8,2.6l0.9,0L2.3,1.9 M2.3,0l2.3,3.6L0,3.6L2.3,0z"/>
						</g>
						<g id="Polygon_3" transform="matrix(-0.819, -0.574, 0.574, -0.819, 33.892, 25.28)" class="st14">
							<path class="st11" d="M3.6,3.1H0.9l1.3-2.2L3.6,3.1z"/>
							<path class="st16" d="M2.3,1.9L1.8,2.6h0.9L2.3,1.9 M2.3,0l2.3,3.6H0L2.3,0z"/>
						</g>
						<g id="Rectangle_2808" transform="matrix(0.914, -0.407, 0.407, 0.914, 15.088, 1.099)" class="st17">
							
								<rect x="0" y="0" transform="matrix(-1 5.100492e-06 -5.100492e-06 -1 2.704 2.704)" class="st11" width="2.7" height="2.7"/>
							
								<rect x="0.4" y="0.4" transform="matrix(-1 5.100492e-06 -5.100492e-06 -1 2.704 2.704)" class="st18" width="1.9" height="1.9"/>
						</g>
						<g id="Group_5583" transform="translate(7.364 0.04)">
							<path id="Path_2421" class="st19" d="M8.5,26.6L8.5,26.6L8.5,26.6C8.7,26.7,9,26.9,9.2,27c1.6,0.6,3.4,0.5,4.9-0.4
								c1.1-0.7,2.1-1.8,2.7-3c1.3-2.4,1.6-5.2,1-7.9c-0.3-1.9-1.3-3.7-2.7-5.1c-1.7-1.8-4.4-2.2-6.5-1c-1.2,0.7-2.1,1.6-2.7,2.8
								c-1.7,3-2,6.7-0.7,10C5.7,24.1,6.9,25.6,8.5,26.6z"/>
							<path id="Path_2422" class="st20" d="M16.7,2.3c-0.7,0.4-1.4,0.9-1.9,1.6C14,5,13.4,6.3,13.1,7.6C13,7.9,12.8,8,12.6,7.9
								c-0.1,0-0.1,0-0.1-0.1c-0.1-0.1,0-0.1,0-0.2c0.8-3.6,3.7-6.8,6.9-7.5c2.5-0.7,5.2,0.8,5.9,3.3c0.1,0.3,0.1,0.6,0.2,0.8
								c0.4,2.9-0.6,5.7-2.6,7.8c-0.9,1.1-2,1.9-3.3,2.4c-0.5,0.2-0.5,0.2-0.6-0.3c-0.4-1.5-1.1-2.9-2.1-4.1c-0.8-1-2-1.8-3.3-2.1
								c-0.3-0.1-0.2-0.2-0.1-0.4C14.1,5.7,15.2,3.9,16.7,2.3z"/>
							<path id="Path_2423" class="st21" d="M8.7,8.2c-3.4,1.3-4.9,4.2-5.5,7.6c-0.7-0.4-1.2-1-1.7-1.7c-1.4-1.9-1.9-4.3-1.3-6.6
								c0.4-1.7,2-2.9,3.7-2.9c0.8,0,1.7,0.3,2.4,0.8C7.4,6.2,8.2,7.1,8.7,8.2z"/>
							<path id="Path_2424" class="st22" d="M0.7,7.5c0.5,2.5,1.4,5,2.6,7.3C1.5,12.8,0.6,10.2,0.7,7.5z"/>
							<path id="Path_2425" class="st23" d="M7.8,12.4c-1.7,4.1-0.8,8,0.1,12.1C5.1,21.2,4.6,15.4,7.8,12.4z"/>
							<path id="Path_2426" class="st24" d="M17.8,15.7c-0.3-1.9-1.3-3.7-2.7-5.1C13.9,9.3,12,8.7,10.3,9c1.2,0.3,5.1,2,4.6,7.9
								c-0.5,6-3.9,7.8-8.3,8.2c0.7,0.9,1.7,1.6,2.8,2c0.9,0.3,1.8,0.4,2.7,0.3c0.2-0.1,0.4-0.1,0.6-0.2c1.8-0.6,3.2-1.9,4-3.6
								C18.1,21.1,18.4,18.3,17.8,15.7z"/>
							<path id="Path_2427" class="st25" d="M25.4,4.3c-0.3-2.6-2.6-4.6-5.2-4.3c-0.3,0-0.6,0.1-0.8,0.2c-0.2,0.1-0.5,0.1-0.7,0.2
								C21.4-0.2,25,0,23.6,5.8c0,0-0.4,4.1-5.3,6.5c0.3,0.6,0.5,1.2,0.7,1.9c0.1,0.5,0.1,0.5,0.6,0.3c1.3-0.5,2.4-1.3,3.3-2.4
								C24.8,10,25.7,7.2,25.4,4.3z"/>
							<path id="Path_2428" class="st26" d="M6.9,9.2c0.6-0.4,1.2-0.7,1.8-1c-0.5-1.1-1.4-2-2.4-2.7C5.7,5,4.9,4.7,4,4.6
								c-0.8,0-1.6,0.2-2.2,0.6C3.1,5.2,4.8,5.9,6.9,9.2z"/>
							<path id="Path_2429" class="st27" d="M10.2,29.2c0.2,0,0.4,0,0.7,0c-0.3,1,0,2.1,0.7,2.9c0.3,0.4,0.5,0.8,0.7,1.1
								c0.2,0.4,0.5,0.9,0.6,1.3h0.6c-0.1-0.5-0.4-1-0.6-1.5c-0.3-0.6-0.7-1.2-1.2-1.8c-0.3-0.4-0.4-0.9-0.4-1.4
								c0.1-0.7,0.1-0.7,0.7-0.7c0.1,0,0.2,0,0.3,0c0.6,0,0.8-0.4,0.5-0.9c-0.1-0.2-0.3-0.4-0.4-0.7c-0.7,0.1-1.5,0.1-2.2,0
								C10,27.8,9.9,28,9.7,28.3c-0.2,0.2-0.2,0.6,0,0.8C9.9,29.1,10,29.2,10.2,29.2z"/>
						</g>
					</g>
				</g>
			</g>
			<g id="Group_6064-2" transform="translate(120 -207)">
				<rect id="Rectangle_597-4" x="40" y="207" class="st1" width="40" height="40"/>
			</g>
			<g id="Group_6068" transform="translate(-74 -83)">
				<g id="Group_6061" transform="translate(240.018 88.615)">
					<path id="Path_2411" class="st28" d="M8.2,0c0.9,1.7,1.5,3.5,2,5.4c0.2,0.9-0.1,1.8-0.9,2.4c-0.8,0.6-2,0.5-2.6-0.3
						C6.6,7.4,6.6,7.3,6.5,7.2C6.1,6.6,6,5.9,6.2,5.2C6.7,3.4,7.4,1.7,8.2,0z"/>
					<path id="Path_2412" class="st28" d="M14.3,0.1c0.4,0.8,0.8,1.7,1.1,2.5c0.4,0.9,0.7,1.8,0.9,2.7c0.2,0.8-0.1,1.6-0.6,2.2
						c-0.6,0.8-1.8,0.9-2.6,0.3c-0.2-0.1-0.3-0.3-0.4-0.5c-0.5-0.7-0.6-1.6-0.3-2.5C12.9,3.2,13.5,1.7,14.3,0.1
						C14.2,0.1,14.3,0.1,14.3,0.1z"/>
					<path id="Path_2413" class="st28" d="M20.4,0c0.5,1.1,0.9,2.1,1.3,3.1c0.3,0.7,0.5,1.4,0.7,2.2c0.2,0.9-0.1,1.8-0.9,2.4
						S19.6,8.2,19,7.5c-0.1-0.1-0.1-0.1-0.1-0.2c-0.5-0.7-0.7-1.7-0.4-2.6C19,3.2,19.6,1.6,20.4,0z"/>
					<path id="Path_2414" class="st29" d="M26.5,26L26.5,26c0-1.9,0-3.8,0-5.7c0-0.4,0-0.4-0.4-0.4c-0.8,0.1-1.7-0.1-2.4-0.3l0,0
						c-0.1,0-0.1,0-0.2-0.1h-0.1h-0.1c0,0-0.1,0-0.1-0.1h-0.1c-0.1,0-0.1-0.1-0.2-0.1l0,0c-0.1,0-0.1-0.1-0.2-0.1
						c-0.1-0.1-0.3-0.2-0.4-0.3c-0.5-0.4-1.2-0.6-1.9-0.7c-0.5-0.1-1,0-1.4,0.1s-0.8,0.3-1.2,0.5l-0.1,0.1c-0.1,0.1-0.2,0.2-0.4,0.2
						h-0.1l-0.1,0.1c-0.1,0-0.1,0.1-0.2,0.1l0,0c-0.7,0.3-1.4,0.5-2.1,0.6l0,0c-0.1,0-0.1,0-0.2,0h-0.1h-0.1h-0.1h-0.1H14l0,0
						c-0.1,0-0.1,0-0.2,0l0,0c-0.7-0.1-1.5-0.3-2.1-0.6l0,0c-0.1,0-0.1-0.1-0.2-0.1l-0.1-0.1h-0.1c-0.1-0.1-0.3-0.2-0.4-0.2l0,0
						c-0.4-0.2-0.7-0.4-1.2-0.6l0,0H9.6H9.5H9.4c-0.4-0.1-0.8-0.1-1.2-0.1l0,0H8.1c-0.7,0.1-1.3,0.3-1.9,0.7c-1.1,0.8-2.5,1.2-3.8,1
						c-0.4,0-0.4,0-0.4,0.4c0,1.9,0,3.8,0,5.7l0,0l0,0c0,1.2,0.9,2.2,2.1,2.2l0,0l0,0c2.1,0,4.2,0,6.4,0H20c1.4,0,2.9,0,4.3,0l0,0
						C25.6,28.2,26.5,27.3,26.5,26C26.5,26.1,26.5,26.1,26.5,26C26.5,26.1,26.5,26.1,26.5,26z"/>
					<g id="Group_5581" transform="translate(0 8.879)">
						<path id="Path_2415" class="st19" d="M19.4,2.3h2c0-0.7,0-1.4,0-2.1C21.4,0,21.3,0,21.1,0c-0.5,0-1,0-1.5,0
							c-0.2,0-0.3,0-0.3,0.3C19.4,0.9,19.4,1.6,19.4,2.3z"/>
						<path id="Path_2416" class="st19" d="M13.2,2.3h2c0-0.7,0-1.4,0-2.1C15.2,0,15.2,0,15,0c-0.5,0-1,0-1.6,0
							c-0.2,0-0.3,0.1-0.3,0.3C13.3,1,13.2,1.6,13.2,2.3z"/>
						<path id="Path_2417" class="st19" d="M7.1,2.3h2c0-0.7,0-1.4,0-2.1C9.2,0.1,9.1,0,9,0C8.4,0,7.9,0,7.3,0
							C7.1,0,7.1,0.1,7.1,0.2C7.1,0.9,7.1,1.6,7.1,2.3z"/>
						<path id="Path_2418" class="st30" d="M28.5,5c0-1.1-0.9-2-2-2c-0.8,0-1.6,0-2.4,0h-2c-0.2,0-0.3,0-0.5,0h-0.1h-2.4H19h-0.7H16
							h-0.6h-0.1h-2.4c0,0,0,0-0.1,0h-0.4H10H9.3H9.2H7H6.9H5.8H3.7l0,0H2C0.9,3,0,3.9,0,5l0,0c0,1.3,0,2.6,0,3.9
							c0,0.2,0.1,0.3,0.2,0.4c1.7,1,3.8,1,5.5-0.1c1.7-1.2,4-1.2,5.8,0c1.7,1.2,4,1.2,5.7,0s4-1.2,5.8,0c1.6,1.1,3.8,1.2,5.5,0.1
							c0.1-0.1,0.2-0.2,0.2-0.4C28.5,7.7,28.5,6.4,28.5,5z"/>
						<path id="Path_2419" class="st31" d="M28.5,5c0-1.1-0.9-2-2-2c-0.8,0-1.6,0-2.4,0h-2c-0.2,0-0.3,0-0.5,0h-0.1h-2.4H19h-0.7
							h-1.6c-1.2,2.2-1.9,4.6-2.3,7c0.9,0,1.8-0.3,2.6-0.9c1.7-1.2,4-1.2,5.8,0c1.6,1.1,3.8,1.2,5.5,0.1c0.1-0.1,0.2-0.2,0.2-0.4
							C28.5,7.7,28.5,6.3,28.5,5z"/>
					</g>
					<path id="Path_2420" class="st32" d="M2.7,27.7c13.1-0.6,18.4-4.9,20.5-8.3h-0.1H23c-0.1,0-0.1-0.1-0.2-0.1l0,0
						c-0.1,0-0.1-0.1-0.2-0.1c-0.1-0.1-0.3-0.2-0.4-0.3c-0.5-0.4-1.2-0.6-1.9-0.7c-0.5-0.1-1,0-1.4,0.1s-0.8,0.3-1.2,0.5l-0.1,0.1
						c-0.1,0.1-0.2,0.2-0.4,0.2h-0.1L17,19.2c-0.1,0-0.1,0.1-0.2,0.1l0,0c-0.7,0.3-1.4,0.5-2.1,0.6l0,0c-0.1,0-0.1,0-0.2,0h-0.1
						h-0.1h-0.1h-0.1H14l0,0c-0.1,0-0.1,0-0.2,0l0,0c-0.7-0.1-1.5-0.3-2.1-0.6l0,0c-0.1,0-0.1-0.1-0.2-0.1l-0.1-0.1h-0.1
						c-0.1-0.1-0.3-0.2-0.4-0.2l0,0c-0.4-0.2-0.7-0.4-1.2-0.6l0,0H9.6H9.5H9.4c-0.4-0.1-0.8-0.1-1.2-0.1l0,0H8.1
						c-0.7,0.1-1.3,0.3-1.9,0.7c-1.1,0.8-2.5,1.2-3.8,1C2,20,2,19.9,2,20.4c0,1.9,0,3.8,0,5.7l0,0l0,0C2,26.7,2.3,27.3,2.7,27.7z"/>
					<rect id="Rectangle_2806" x="2" y="22.6" class="st33" width="24.5" height="2"/>
				</g>
				<g id="Group_6062-2" transform="translate(233.752 86)">
					<g id="Ellipse_216" transform="translate(34.412 9.588)" class="st10">
						<circle class="st11" cx="1.7" cy="1.7" r="1.7"/>
						<circle class="st12" cx="1.7" cy="1.7" r="1.2"/>
					</g>
					<g id="Ellipse_217" transform="translate(4.778 6.973)" class="st10">
						<circle class="st11" cx="1.7" cy="1.7" r="1.7"/>
						<circle class="st13" cx="1.7" cy="1.7" r="1.2"/>
					</g>
					<g id="Polygon_8" transform="translate(2.179 25.42) rotate(-120)" class="st14">
						<path class="st11" d="M3.5,3L0.9,3l1.3-2L3.5,3z"/>
						<path class="st15" d="M2.2,1.9L1.8,2.5l0.7,0L2.2,1.9 M2.2,0l2.2,3.5L0,3.5L2.2,0z"/>
					</g>
					<g id="Polygon_7" transform="matrix(-0.819, -0.574, 0.574, -0.819, 38.248, 24.468)" class="st14">
						<path class="st11" d="M3.5,3H0.9l1.3-2L3.5,3z"/>
						<path class="st16" d="M2.2,1.9L1.8,2.5h0.7L2.2,1.9 M2.2,0l2.2,3.5H0L2.2,0z"/>
					</g>
					<g id="Rectangle_2947" transform="matrix(0.914, -0.407, 0.407, 0.914, 21.791, 1.064)" class="st17">
						<rect x="0" y="0" transform="matrix(-1 5.100492e-06 -5.100492e-06 -1 2.63 2.63)" class="st11" width="2.6" height="2.6"/>
						
							<rect x="0.4" y="0.4" transform="matrix(-1 5.100492e-06 -5.100492e-06 -1 2.63 2.63)" class="st18" width="1.8" height="1.8"/>
					</g>
				</g>
			</g>
			<rect id="Rectangle_3067" x="200" y="0" class="st6" width="80" height="40"/>
			<g id="Group_5589" transform="translate(-825.766 -305)">
				<g id="Ellipse_215" transform="translate(1083 316)" class="st10">
					<circle class="st11" cx="2" cy="2" r="2"/>
					<circle class="st12" cx="2" cy="2" r="1.5"/>
				</g>
				<g id="Ellipse_214" transform="translate(1045 316)" class="st10">
					<circle class="st11" cx="2" cy="2" r="2"/>
					<circle class="st13" cx="2" cy="2" r="1.5"/>
				</g>
				<g id="Polygon_5" transform="translate(1038.766 329.665) rotate(-70)" class="st14">
					<path class="st11" d="M4.1,3.5l-3.2,0l1.6-2.6L4.1,3.5z"/>
					<path class="st15" d="M2.5,1.9L1.8,3l1.4,0L2.5,1.9 M2.5,0L5,4L0,4L2.5,0z"/>
				</g>
				<g id="Polygon_6" transform="matrix(-0.819, -0.574, 0.574, -0.819, 1091.401, 334.072)" class="st14">
					<path class="st11" d="M4.1,3.5H0.9l1.6-2.6L4.1,3.5z"/>
					<path class="st16" d="M2.5,1.9L1.8,3h1.4L2.5,1.9 M2.5,0L5,4H0L2.5,0z"/>
				</g>
				<g id="Rectangle_2809" transform="matrix(0.914, -0.407, 0.407, 0.914, 1064.52, 307.22)" class="st17">
					<rect x="0" y="0" transform="matrix(-1 5.100492e-06 -5.100492e-06 -1 3 3)" class="st11" width="3" height="3"/>
					<rect x="0.4" y="0.4" transform="matrix(-1 5.100492e-06 -5.100492e-06 -1 3 3)" class="st18" width="2.2" height="2.2"/>
				</g>
				<g id="Group_5584" transform="translate(806.294 -142.578)">
					<g id="Group_5588" transform="translate(240.27 454.178)">
						<path id="Path_2440" class="st34" d="M12.8,7.6C5.7,7.6,0,13.3,0,20.3c0,7.1,5.7,12.8,12.8,12.8s12.8-5.7,12.8-12.8l0,0
							C25.6,13.3,19.8,7.6,12.8,7.6z M12.8,30.3c-5.5,0-10-4.5-10-10s4.5-10,10-10s10,4.5,10,10C22.7,25.9,18.3,30.3,12.8,30.3
							L12.8,30.3z"/>
						<path id="Path_2441" class="st30" d="M27.8,7.6c-2,0-3.9,0.5-5.7,1.3c0.8,0.6,1.5,1.4,2.1,2.2c5.1-2,10.9,0.6,12.9,5.7
							s-0.6,10.9-5.7,12.9c-2.4,0.9-5,0.9-7.4-0.1c-0.6,0.8-1.4,1.5-2.2,2.1c6.2,3.3,14,0.9,17.3-5.3S40,12.3,33.8,9
							C31.9,8.1,29.9,7.6,27.8,7.6L27.8,7.6z"/>
						<g id="Group_5585" transform="translate(15.019 10.808)">
							<path id="Path_2442" class="st30" d="M2.5,17.1c0.8-0.6,1.5-1.2,2-2c-2.2-3.3-2.2-7.7,0-11c-0.6-0.8-1.3-1.5-2-2
								C-0.8,6.5-0.8,12.6,2.5,17.1L2.5,17.1z"/>
							<path id="Path_2443" class="st30" d="M6.3,2l0.1-0.1C5.8,1.2,5.1,0.6,4.3,0l0,0C5,0.6,5.7,1.3,6.3,2z"/>
						</g>
						<g id="Group_5586" transform="translate(5.987)">
							<path id="Path_2444" class="st35" d="M6.6,10.6L0,4l4-4h5.3l3.5,3.5L6.6,10.6z"/>
							<path id="Path_2445" class="st36" d="M0,4.1l6.3,6.3L3.7,4.1H0z"/>
							<path id="Path_2446" class="st36" d="M5.5,0.1l-1.7,4h5l-1.5-4C7.3,0.1,5.5,0.1,5.5,0.1z"/>
						</g>
						<g id="Group_5587" transform="translate(21.828)">
							<path id="Path_2447" class="st35" d="M6.6,10.6L0,4l4-4h5.3l3.5,3.5L6.6,10.6z"/>
							<path id="Path_2448" class="st36" d="M0,4.1l6.3,6.3L3.7,4.1H0z"/>
							<path id="Path_2449" class="st36" d="M5.5,0.1l-1.7,4h5l-1.5-4C7.3,0.1,5.5,0.1,5.5,0.1z"/>
						</g>
					</g>
				</g>
			</g>
		</g>
	</g>
</g>
</svg>
