<?xml version="1.0" encoding="utf-8"?>
<!-- Generator: Adobe Illustrator 26.3.1, SVG Export Plug-In . SVG Version: 6.00 Build 0)  -->
<svg version="1.1" id="Layer_1" xmlns="http://www.w3.org/2000/svg" xmlns:xlink="http://www.w3.org/1999/xlink" x="0px" y="0px"
	 width="238px" height="14px" viewBox="0 0 238 14" style="enable-background:new 0 0 238 14;" xml:space="preserve">
<style type="text/css">
	.st0{clip-path:url(#SVGID_00000027597607916988916240000003794266131569686948_);}
	.st1{fill:#FFFFFF;}
	.st2{fill:none;}
	.st3{fill:none;stroke:#000000;stroke-linecap:round;stroke-miterlimit:10;}
	.st4{fill:none;stroke:#000000;}
	.st5{fill:#FFFFFF;fill-opacity:0;}
	.st6{fill:none;stroke:#D9BDB1;stroke-width:2;stroke-linecap:round;stroke-linejoin:round;}
	.st7{fill:none;stroke:#070707;stroke-width:2;stroke-linecap:round;stroke-linejoin:round;}
	.st8{fill:none;stroke:#707070;stroke-width:2;stroke-linecap:round;stroke-linejoin:round;}
	.st9{fill:#D9BDB1;}
	.st10{fill-rule:evenodd;clip-rule:evenodd;fill:#FFFFFF;}
	.st11{fill:#707070;}
</style>
<g>
	<g>
		<defs>
			<rect id="SVGID_1_" width="238" height="14"/>
		</defs>
		<clipPath id="SVGID_00000093145429624455395990000007091961236701159573_">
			<use xlink:href="#SVGID_1_"  style="overflow:visible;"/>
		</clipPath>
		<g id="_14x14_icons" style="clip-path:url(#SVGID_00000093145429624455395990000007091961236701159573_);">
			<g id="Group_3677" transform="translate(91 -12)">
				<g id="noun_request_540038" transform="translate(-90.557 12.437)">
					<path id="Path_131" class="st1" d="M13.1,1.8c0-1-0.8-1.8-1.8-1.8H1.8C0.8,0,0,0.8,0,1.8V9c0,1,0.8,1.8,1.8,1.8h1.8v2
						c0,0.2,0.1,0.4,0.3,0.4c0.1,0,0.2,0,0.3-0.1l2.3-2.3l0,0l0,0h4.9c1,0,1.8-0.8,1.8-1.8L13.1,1.8L13.1,1.8z M6.1,2.5H7
						c0.1,0,0.2,0.1,0.2,0.2l0,0L7.1,6.5c0,0.1-0.1,0.2-0.2,0.2l0,0H6.2C6.1,6.6,6,6.6,6,6.5l0,0L5.9,2.7C5.9,2.6,5.9,2.5,6.1,2.5
						C6,2.5,6,2.5,6.1,2.5L6.1,2.5z M7.2,8c0,0.2-0.1,0.3-0.3,0.3l0,0H6.2C6,8.3,5.9,8.2,5.9,8l0,0V7.5c0-0.2,0.1-0.3,0.3-0.3l0,0H7
						c0.2,0,0.3,0.1,0.3,0.3l0,0V8H7.2z"/>
				</g>
				<rect id="Rectangle_593" x="-91" y="12" class="st2" width="14" height="14"/>
			</g>
			<g id="Group_3793" transform="translate(14)">
				<rect id="Rectangle_215" class="st2" width="14" height="14"/>
				<g id="Group_3794" transform="translate(-1085.9 -425.079)">
					<path id="Path_589" class="st3" d="M1092.2,427h-3.3c-0.8,0-1.4,0.7-1.4,1.5v7.1c0,0.8,0.6,1.5,1.4,1.5h3.3"/>
					<path id="Path_590" class="st4" d="M1090.8,430.3h3.6c0.1,0,0.1-0.1,0.1-0.1l0,0v-1.9c0-0.1,0.1-0.1,0.1-0.1h0.1l3.7,3.7
						c0.1,0,0.1,0.1,0,0.2l0,0l-3.8,3.8c-0.1,0.1-0.1,0-0.2,0v-0.1v-2c0-0.1-0.1-0.1-0.1-0.1l0,0h-3.5c-0.1,0-0.1-0.1-0.1-0.1l0,0
						v-3.1C1090.7,430.4,1090.7,430.3,1090.8,430.3z"/>
				</g>
			</g>
			<g id="Group_5337" transform="translate(28 -361)">
				<rect id="Rectangle_594" y="361" class="st5" width="14" height="14"/>
				<path id="arrow" class="st6" d="M2.5,365.5l4.6,4.6l4.6-4.6"/>
			</g>
			<g id="Group_5339" transform="translate(28 -361)">
				<rect id="Rectangle_2778" x="28" y="361" class="st5" width="14" height="14"/>
				<path id="arrow-2" class="st7" d="M30.5,365.5l4.6,4.6l4.6-4.6"/>
			</g>
			<g id="Group_5419" transform="translate(56 -361)">
				<rect id="Rectangle_2778-2" x="28" y="361" class="st5" width="14" height="14"/>
				<path id="arrow-3" class="st8" d="M30.5,365.5l4.6,4.6l4.6-4.6"/>
			</g>
			<g id="Group_5338" transform="translate(28 -361)">
				<rect id="Rectangle_599" x="14" y="361" class="st5" width="14" height="14"/>
				<path id="arrow-4" class="st6" d="M16.5,370.1l4.6-4.6l4.6,4.6"/>
			</g>
			<g id="Group_5340" transform="translate(28 -361)">
				<rect id="Rectangle_2777" x="42" y="361" class="st5" width="14" height="14"/>
				<path id="arrow-5" class="st7" d="M44.5,370.1l4.6-4.6l4.6,4.6"/>
			</g>
			<g id="Group_5418" transform="translate(56 -361)">
				<rect id="Rectangle_2777-2" x="42" y="361" class="st5" width="14" height="14"/>
				<path id="arrow-6" class="st8" d="M44.5,370.1l4.6-4.6l4.6,4.6"/>
			</g>
			<g id="Group_5423" transform="translate(70 -361)">
				<rect id="Rectangle_2777-3" x="42" y="361" class="st5" width="14" height="14"/>
				<path id="arrow-7" class="st8" d="M46.8,363.2l4.6,4.6l-4.6,4.6"/>
			</g>
			<g id="Group_5341" transform="translate(70 -361)">
				<rect id="Rectangle_2783" x="56" y="361" class="st5" width="14" height="14"/>
				<path id="Icon_awesome-arrow-right" class="st9" d="M61.9,363.6l0.5-0.5c0.2-0.2,0.5-0.2,0.7,0L67,367c0.2,0.2,0.2,0.5,0,0.7
					l0,0l-3.9,3.9c-0.2,0.2-0.5,0.2-0.7,0l0,0l-0.5-0.5c-0.2-0.2-0.2-0.5,0-0.7l0,0l2.5-2.3h-5.8c-0.3,0-0.5-0.2-0.5-0.5l0,0V367
					c0-0.3,0.2-0.5,0.5-0.5l0,0h5.8l-2.4-2.3C61.7,364.1,61.7,363.8,61.9,363.6L61.9,363.6z"/>
			</g>
			<g id="Group_5421" transform="translate(84 -361)">
				<rect id="Rectangle_2783-2" x="56" y="361" class="st5" width="14" height="14"/>
				<path id="Icon_awesome-arrow-right-2" class="st9" d="M67.3,366.9l0.5,0.5c0.2,0.2,0.2,0.5,0,0.7l-3.9,4c-0.2,0.2-0.5,0.2-0.7,0
					l0,0l-3.9-4c-0.2-0.2-0.2-0.5,0-0.7l0,0l0.5-0.5c0.2-0.2,0.5-0.2,0.7,0l0,0l2.3,2.5v-5.8c0-0.3,0.2-0.5,0.5-0.5l0,0h0.6
					c0.3,0,0.5,0.2,0.5,0.5l0,0v5.8l2.3-2.4C66.8,366.7,67.1,366.7,67.3,366.9L67.3,366.9z"/>
			</g>
			<g id="Group_5422" transform="translate(98 -361)">
				<rect id="Rectangle_2783-3" x="56" y="361" class="st5" width="14" height="14"/>
				<path id="Icon_awesome-arrow-right-3" class="st9" d="M67.3,368.2l0.5-0.5c0.2-0.2,0.2-0.5,0-0.7l-3.9-4c-0.2-0.2-0.5-0.2-0.7,0
					l0,0l-3.9,4c-0.2,0.2-0.2,0.5,0,0.7l0,0l0.5,0.4c0.2,0.2,0.5,0.2,0.7,0l0,0l2.3-2.4v5.8c0,0.3,0.2,0.5,0.5,0.5l0,0h0.6
					c0.3,0,0.5-0.2,0.5-0.5l0,0v-5.8l2.3,2.4C66.8,368.4,67.1,368.4,67.3,368.2L67.3,368.2z"/>
			</g>
			<g id="Group_5284" transform="translate(98 -361)">
				<rect id="Rectangle_2793" x="70" y="361" class="st5" width="14" height="14"/>
				<g id="i_icon" transform="translate(71 362)">
					<path id="Path_651" class="st10" d="M6,0C2.7,0,0,2.7,0,6s2.7,6,6,6s6-2.7,6-6S9.3,0,6,0z M6,1.2C3.3,1.2,1.2,3.3,1.2,6
						s2.1,4.8,4.8,4.8s4.8-2.1,4.8-4.8l0,0C10.8,3.3,8.7,1.2,6,1.2z"/>
					<path id="Path_652" class="st1" d="M5.4,3.6C5.4,3.3,5.7,3,6,3s0.6,0.3,0.6,0.6S6.3,4.2,6,4.2C5.7,4.2,5.4,3.9,5.4,3.6L5.4,3.6
						z"/>
					<path id="Path_653" class="st1" d="M5.4,5.5c0-0.3,0.3-0.6,0.6-0.6s0.6,0.3,0.6,0.6v2.9C6.6,8.7,6.3,9,6,9S5.4,8.7,5.4,8.4V5.5
						z"/>
				</g>
			</g>
			<g id="Group_6073" transform="translate(112 -361)">
				<rect id="Rectangle_2793-2" x="70" y="361" class="st5" width="14" height="14"/>
				<path id="Icon_awesome-percentage" class="st1" d="M75.1,366.1c0.7-0.7,0.7-1.8,0-2.5s-1.8-0.7-2.5,0s-0.7,1.8,0,2.5
					C73.2,366.8,74.4,366.8,75.1,366.1L75.1,366.1z M82.2,370.7c-0.7-0.7-1.8-0.7-2.5,0s-0.7,1.8,0,2.5s1.8,0.7,2.5,0
					C82.9,372.5,82.9,371.4,82.2,370.7L82.2,370.7L82.2,370.7z M82.2,364.2l-0.6-0.6c-0.4-0.3-0.9-0.3-1.3,0l-7.7,7.7
					c-0.3,0.4-0.3,0.9,0,1.3l0.6,0.6c0.4,0.3,0.9,0.3,1.3,0l7.7-7.7C82.5,365.1,82.5,364.6,82.2,364.2L82.2,364.2z"/>
			</g>
			<g id="Group_6074" transform="translate(126 -361)">
				<rect id="Rectangle_2793-3" x="70" y="361" class="st5" width="14" height="14"/>
				<path id="Icon_awesome-percentage-2" class="st9" d="M75.1,366.1c0.7-0.7,0.7-1.8,0-2.5s-1.8-0.7-2.5,0s-0.7,1.8,0,2.5
					C73.2,366.8,74.4,366.8,75.1,366.1L75.1,366.1z M82.2,370.7c-0.7-0.7-1.8-0.7-2.5,0s-0.7,1.8,0,2.5s1.8,0.7,2.5,0
					C82.9,372.5,82.9,371.4,82.2,370.7L82.2,370.7L82.2,370.7z M82.2,364.2l-0.6-0.6c-0.4-0.3-0.9-0.3-1.3,0l-7.7,7.7
					c-0.3,0.4-0.3,0.9,0,1.3l0.6,0.6c0.4,0.3,0.9,0.3,1.3,0l7.7-7.7C82.5,365.1,82.5,364.6,82.2,364.2L82.2,364.2z"/>
			</g>
			<g id="Group_6075" transform="translate(140 -361)">
				<rect id="Rectangle_2793-4" x="70" y="361" class="st5" width="14" height="14"/>
				<g id="noun_Rupee_842802" transform="translate(73 362)">
					<path id="Path_114" class="st9" d="M7.7,2.7h-7C0.4,2.7,0,2.9,0,3.3S0.2,4,0.6,4h0.1h7c0.4,0,0.7-0.2,0.7-0.6S8.2,2.7,7.9,2.7
						C7.8,2.7,7.8,2.7,7.7,2.7z"/>
					<path id="Path_115" class="st9" d="M0.7,1.3h7c0.4,0,0.7-0.2,0.7-0.6S8.2,0,7.9,0H7.8h-7C0.4,0,0,0.2,0,0.6S0.2,1.3,0.7,1.3
						L0.7,1.3z"/>
					<path id="Path_113" class="st9" d="M0.7,1.4h2c0.3,0,0.6,0,1,0H3.5c0.2,0,0.5,0.1,0.7,0.2L4,1.5c0.2,0.1,0.4,0.2,0.6,0.3H4.4
						c0.2,0.1,0.3,0.3,0.5,0.5L4.8,2.1C4.9,2.3,5,2.5,5.1,2.7L5,2.5c0.1,0.2,0.2,0.4,0.2,0.7V3c0,0.2,0,0.5,0,0.7V3.5
						C5.2,3.7,5.1,4,5,4.2L5.1,4C5,4.1,4.9,4.3,4.8,4.5l0.1-0.1C4.7,4.5,4.6,4.7,4.4,4.8l0.1-0.1C4.4,4.9,4.2,5,4,5h0.1
						C3.9,5.1,3.7,5.1,3.5,5.2h0.2c-0.3,0-0.6,0-0.8,0H0.7C0.3,5.2,0,5.5,0,5.9v0.2c0,0.2,0.1,0.4,0.2,0.5l0,0l0.1,0.1l0.4,0.5
						l1.5,1.7l1.6,1.8l0.9,1l0,0C4.9,11.9,5.1,12,5.3,12c0.2,0,0.4-0.1,0.5-0.2C5.9,11.7,6,11.5,6,11.3s-0.1-0.4-0.2-0.5L5.1,10
						L3.5,8.2L2,6.4L1.3,5.6l0.2,0.5V5.9L0.7,6.6h2c0.2,0,0.5,0,0.8,0c0.4,0,0.7-0.1,1-0.2c0.4-0.1,0.7-0.3,1-0.6
						C5.8,5.6,6,5.3,6.2,5c0.4-0.6,0.5-1.3,0.5-2c0-0.4-0.1-0.8-0.3-1.2C6.2,1.5,6,1.3,5.8,1C5.5,0.8,5.2,0.6,4.9,0.4
						C4.4,0.1,3.8,0,3.3,0H0.7C0.3,0,0,0.3,0,0.7S0.3,1.4,0.7,1.4L0.7,1.4L0.7,1.4z"/>
				</g>
			</g>
			<g id="Group_6076" transform="translate(154 -361)">
				<rect id="Rectangle_2793-5" x="70" y="361" class="st5" width="14" height="14"/>
				<g id="noun_Rupee_842802-2" transform="translate(73 362)">
					<path id="Path_114-2" class="st11" d="M7.7,2.7h-7C0.4,2.7,0,2.9,0,3.3S0.2,4,0.6,4h0.1h7c0.4,0,0.7-0.2,0.7-0.6
						S8.2,2.7,7.9,2.7C7.8,2.7,7.8,2.7,7.7,2.7z"/>
					<path id="Path_115-2" class="st11" d="M0.7,1.3h7c0.4,0,0.7-0.2,0.7-0.6S8.2,0,7.9,0H7.8h-7C0.4,0,0,0.2,0,0.6S0.2,1.3,0.7,1.3
						L0.7,1.3z"/>
					<path id="Path_113-2" class="st11" d="M0.7,1.4h2c0.3,0,0.6,0,1,0H3.5c0.2,0,0.5,0.1,0.7,0.2L4,1.5c0.2,0.1,0.4,0.2,0.6,0.3
						H4.4c0.2,0.1,0.3,0.3,0.5,0.5L4.8,2.1C4.9,2.3,5,2.5,5.1,2.7L5,2.5c0.1,0.2,0.2,0.4,0.2,0.7V3c0,0.2,0,0.5,0,0.7V3.5
						C5.2,3.7,5.1,4,5,4.2L5.1,4C5,4.1,4.9,4.3,4.8,4.5l0.1-0.1C4.7,4.5,4.6,4.7,4.4,4.8l0.1-0.1C4.4,4.9,4.2,5,4,5h0.1
						C3.9,5.1,3.7,5.1,3.5,5.2h0.2c-0.3,0-0.6,0-0.8,0H0.7C0.3,5.2,0,5.5,0,5.9v0.2c0,0.2,0.1,0.4,0.2,0.5l0,0l0.1,0.1l0.4,0.5
						l1.5,1.7l1.6,1.8l0.9,1l0,0C4.9,11.9,5.1,12,5.3,12c0.2,0,0.4-0.1,0.5-0.2C5.9,11.7,6,11.5,6,11.3s-0.1-0.4-0.2-0.5L5.1,10
						L3.5,8.2L2,6.4L1.3,5.6l0.2,0.5V5.9L0.7,6.6h2c0.2,0,0.5,0,0.8,0c0.4,0,0.7-0.1,1-0.2c0.4-0.1,0.7-0.3,1-0.6
						C5.8,5.6,6,5.3,6.2,5c0.4-0.6,0.5-1.3,0.5-2c0-0.4-0.1-0.8-0.3-1.2C6.2,1.5,6,1.3,5.8,1C5.5,0.8,5.2,0.6,4.9,0.4
						C4.4,0.1,3.8,0,3.3,0H0.7C0.3,0,0,0.3,0,0.7S0.3,1.4,0.7,1.4L0.7,1.4L0.7,1.4z"/>
				</g>
			</g>
		</g>
	</g>
</g>
</svg>
