<?xml version="1.0" encoding="utf-8"?>
<!-- Generator: Adobe Illustrator 26.3.1, SVG Export Plug-In . SVG Version: 6.00 Build 0)  -->
<svg version="1.1" id="Layer_1" xmlns="http://www.w3.org/2000/svg" xmlns:xlink="http://www.w3.org/1999/xlink" x="0px" y="0px"
	 width="40px" height="10px" viewBox="0 0 40 10" style="enable-background:new 0 0 40 10;" xml:space="preserve">
<style type="text/css">
	.st0{clip-path:url(#SVGID_00000000200495578592879340000005295377690747807636_);}
	.st1{fill:none;}
	.st2{fill:none;stroke:#333333;stroke-width:1.5;stroke-linecap:round;}
	.st3{fill:none;stroke:#FFFFFF;stroke-width:1.5;stroke-linecap:round;}
	.st4{fill:#D9BDB1;}
	.st5{fill:none;stroke:#FFFFFF;stroke-width:0.5;stroke-linejoin:round;}
	.st6{fill:none;stroke:#FFFFFF;stroke-width:0.5;}
	.st7{fill:#FFFFFF;}
</style>
<g>
	<g>
		<defs>
			<rect id="SVGID_1_" width="40" height="10"/>
		</defs>
		<clipPath id="SVGID_00000031896377837119190360000010653556105358936718_">
			<use xlink:href="#SVGID_1_"  style="overflow:visible;"/>
		</clipPath>
		<g id="icon_10x10" style="clip-path:url(#SVGID_00000031896377837119190360000010653556105358936718_);">
			<g id="Group_3910" transform="translate(-66 -130)">
				<path id="Path_481" class="st1" d="M66,130h10v10H66V130z"/>
				<g id="Group_3911" transform="translate(-1.167 -1.167)">
					<line id="Line_75" class="st2" x1="68.9" y1="132.9" x2="75.4" y2="139.4"/>
					<line id="Line_76" class="st2" x1="75.4" y1="132.9" x2="68.9" y2="139.4"/>
				</g>
			</g>
			<g id="Group_4551" transform="translate(-46 -130)">
				<path id="Path_481-2" class="st1" d="M66,130h10v10H66V130z"/>
				<line id="Line_76-2" class="st2" x1="74" y1="135.2" x2="68" y2="135.2"/>
			</g>
			<g id="Group_3912" transform="translate(-56 -130)">
				<path id="Path_481-3" class="st1" d="M66,130h10v10H66V130z"/>
				<g id="Group_3911-2" transform="translate(-1.167 -1.167)">
					<line id="Line_75-2" class="st3" x1="68.9" y1="132.9" x2="75.4" y2="139.4"/>
					<line id="Line_76-3" class="st3" x1="75.4" y1="132.9" x2="68.9" y2="139.4"/>
				</g>
			</g>
			<g id="Group_4091" transform="translate(-152 -47)">
				<circle id="Ellipse_93" class="st4" cx="187" cy="52" r="5"/>
				<g id="Group_4082" transform="translate(2.619 1.968)">
					<path id="Path_1502" class="st5" d="M182.3,52l1.3-0.1l3-3l-1.2-1.2l-3.1,3.1V52z"/>
					<line id="Line_83" class="st6" x1="182.5" y1="50.7" x2="183.6" y2="51.7"/>
				</g>
				<path id="Path_1742" class="st7" d="M185.1,52.5l2.8-2.8l1.2,1.2l-2.9,2.8L185.1,52.5z"/>
			</g>
		</g>
	</g>
</g>
</svg>
