<?xml version="1.0" encoding="utf-8"?>
<!-- Generator: Adobe Illustrator 26.3.1, SVG Export Plug-In . SVG Version: 6.00 Build 0)  -->
<svg version="1.1" id="Layer_1" xmlns="http://www.w3.org/2000/svg" xmlns:xlink="http://www.w3.org/1999/xlink" x="0px" y="0px"
	 width="45px" height="8px" viewBox="0 0 45 8" style="enable-background:new 0 0 45 8;" xml:space="preserve">
<style type="text/css">
	.st0{clip-path:url(#SVGID_00000093872126842541884550000006769069086697786006_);}
	.st1{fill:none;}
	.st2{fill:#D9BDB1;}
	.st3{fill:#050505;}
</style>
<g>
	<g>
		<defs>
			<rect id="SVGID_1_" width="45" height="8"/>
		</defs>
		<clipPath id="SVGID_00000168080889133252387550000011922666032121431444_">
			<use xlink:href="#SVGID_1_"  style="overflow:visible;"/>
		</clipPath>
		<g id="icons_8x8" style="clip-path:url(#SVGID_00000168080889133252387550000011922666032121431444_);">
			<g id="Group_3627" transform="translate(15039 21975)">
				<g id="Group_3462" transform="translate(-15025.997 -21975)">
					<rect id="Rectangle_216" x="0" class="st1" width="8" height="8"/>
					<g id="Group_2974" transform="translate(0.134 0.393)">
						<path id="Path_439" class="st2" d="M1.8,0.3H6c0.3,0,0.5,0.2,0.6,0.4L7.4,3c0,0,0.2,0.6-0.4,0.6c-0.5,0-0.8-0.5-1.2-0.5
							S5.3,3.5,4.9,3.5s-0.7-0.4-1-0.4s-0.6,0.4-1,0.4S2.4,3.1,2,3.1S1.3,3.6,0.7,3.6S0.4,3,0.4,3l0.9-2.2C1.4,0.5,1.6,0.3,1.8,0.3z
							"/>
						<path id="Path_440" d="M7.7,2.6L7.7,2.6l-0.8-2C6.7,0.2,6.4,0,6,0H1.8C1.4,0,1.1,0.2,1,0.5L0.1,2.6l0,0C0,2.9,0,3.1,0.1,3.3
							s0.4,0.3,0.6,0.3c0.1,0,0.3,0,0.4-0.1v2.8l0,0l0,0c0,0.5,0.4,0.9,0.9,0.9h3.7c0.5,0,0.9-0.4,0.9-0.9l0,0V3.5
							c0.1,0,0.2,0,0.3,0c0.2,0,0.5-0.1,0.6-0.3C7.7,3.1,7.8,2.9,7.7,2.6z M6,6.3c0,0.2-0.1,0.3-0.3,0.3H2.1c-0.2,0-0.3-0.1-0.3-0.3
							V3.2c0.1,0,0.1-0.1,0.2-0.1s0.1,0,0.2,0.1c0.2,0.2,0.4,0.3,0.7,0.3s0.5-0.1,0.7-0.2c0.1-0.1,0.2-0.1,0.3-0.1s0.2,0.1,0.3,0.1
							c0.2,0.2,0.5,0.2,0.7,0.3l0,0c0.3,0,0.5-0.1,0.7-0.3c0.1-0.1,0.2-0.1,0.2-0.1c0.1,0,0.2,0,0.2,0.1L6,6.3z M7.1,3L7.1,3
							C6.8,3,6.6,2.9,6.5,2.8C6.3,2.6,6,2.5,5.8,2.5l0,0c-0.2,0-0.5,0.1-0.6,0.3C5.1,2.9,5,3,4.9,3l0,0C4.8,3,4.6,2.9,4.5,2.8
							C4.3,2.7,4.1,2.6,3.9,2.6c-0.2,0-0.4,0.1-0.6,0.2C3.1,2.9,3,2.9,2.8,2.9c-0.1,0-0.2,0-0.3-0.1C2.4,2.6,2.2,2.5,2,2.5
							S1.5,2.6,1.4,2.7C1.1,2.9,0.9,3,0.7,3H0.6V2.9l0.9-2.1c0.1-0.1,0.2-0.2,0.3-0.2H6c0.1,0,0.2,0.1,0.3,0.2l0.8,2
							C7.1,2.9,7.1,2.9,7.1,3L7.1,3z"/>
					</g>
				</g>
				<g id="Group_3477" transform="translate(-15039 -21975)">
					<rect id="Rectangle_216-2" class="st1" width="8" height="8"/>
					<g id="Group_2974-2" transform="translate(0.134 0.393)">
						<path id="Path_439-2" class="st2" d="M1.8,0.3H6c0.3,0,0.5,0.2,0.6,0.4L7.4,3c0,0,0.2,0.6-0.4,0.6c-0.5,0-0.8-0.5-1.2-0.5
							S5.3,3.5,4.9,3.5s-0.7-0.4-1-0.4s-0.6,0.4-1,0.4S2.4,3.1,2,3.1S1.3,3.6,0.7,3.6S0.4,3,0.4,3l0.9-2.2C1.4,0.5,1.6,0.3,1.8,0.3z
							"/>
						<path id="Path_440-2" d="M7.7,2.6L7.7,2.6l-0.8-2C6.7,0.2,6.4,0,6,0H1.8C1.4,0,1.1,0.2,1,0.5L0.1,2.6l0,0C0,2.9,0,3.1,0.1,3.3
							s0.4,0.3,0.6,0.3c0.1,0,0.3,0,0.4-0.1v2.8l0,0l0,0c0,0.5,0.4,0.9,0.9,0.9h3.7c0.5,0,0.9-0.4,0.9-0.9l0,0V3.5
							c0.1,0,0.2,0,0.3,0c0.2,0,0.5-0.1,0.6-0.3C7.7,3.1,7.8,2.9,7.7,2.6z M6,6.3c0,0.2-0.1,0.3-0.3,0.3H2.1c-0.2,0-0.3-0.1-0.3-0.3
							V3.2c0.1,0,0.1-0.1,0.2-0.1c0.1,0,0.1,0,0.2,0.1c0.2,0.2,0.4,0.3,0.7,0.3s0.5-0.1,0.7-0.2c0.1-0.1,0.2-0.1,0.3-0.1
							s0.2,0.1,0.3,0.1c0.2,0.2,0.5,0.2,0.7,0.3l0,0c0.3,0,0.5-0.1,0.7-0.3c0.1-0.1,0.2-0.1,0.2-0.1c0.1,0,0.2,0,0.2,0.1L6,6.3z
							 M7.1,3L7.1,3C6.8,3,6.6,2.9,6.5,2.8C6.3,2.6,6,2.5,5.8,2.5l0,0c-0.2,0-0.5,0.1-0.6,0.3C5.1,2.9,5,3,4.9,3l0,0
							C4.8,3,4.6,2.9,4.5,2.8C4.3,2.7,4.1,2.6,3.9,2.6c-0.2,0-0.4,0.1-0.6,0.2C3.1,2.9,3,2.9,2.8,2.9c-0.1,0-0.2,0-0.3-0.1
							C2.4,2.6,2.2,2.5,2,2.5S1.5,2.6,1.4,2.7C1.1,2.9,0.9,3,0.7,3H0.6V2.9l0.9-2.1c0.1-0.1,0.2-0.2,0.3-0.2H6
							c0.1,0,0.2,0.1,0.3,0.2l0.8,2C7.1,2.9,7.1,2.9,7.1,3L7.1,3z"/>
					</g>
				</g>
				<g id="noun_Arrow_1953010" transform="translate(-15029.834 -21971.736)">
					<g id="Group_256" transform="translate(0 0)">
						<path id="Path_61" class="st3" d="M1.6,0c0,0-0.1,0-0.2,0l0,0L1.2,0.3c0,0,0,0.1,0,0.2l0,0l0.3,0.3H0.1c0,0-0.1,0-0.1,0.1v0.3
							c0,0.1,0.1,0.1,0.1,0.1h1.4L1.2,1.7c0,0,0,0.1,0,0.2l0,0l0.2,0.2c0,0,0.1,0,0.2,0l0,0l0.9-0.9c0,0,0-0.1,0-0.2l0,0L1.6,0z"/>
					</g>
				</g>
			</g>
			<g id="Group_3626" transform="translate(15081 21926)">
				<g id="Group_3459" transform="translate(-15060 -21926)">
					<rect id="Rectangle_506" class="st1" width="8" height="8"/>
					<g id="Group_3603" transform="translate(-0.001 0.717)">
						<g id="noun_Arrow_1953010-2" transform="translate(2.842 3.856)">
							<g id="Group_256-2">
								<path id="Path_61-2" class="st3" d="M0,1.1c0,0,0,0.1,0,0.2l0,0l0.3,0.3c0,0,0.1,0,0.2,0l0,0l0.4-0.4v1.5
									C0.9,2.8,1,2.8,1,2.8h0.4c0.1,0,0.1-0.1,0.1-0.1V1.1l0.4,0.4c0,0,0.1,0,0.2,0l0,0l0.3-0.3c0,0,0-0.1,0-0.2l0,0l-1-1
									c0,0-0.1,0-0.2,0l0,0L0,1.1z"/>
							</g>
						</g>
						<g id="noun_Arrow_1953010-2-2" transform="translate(0 0.002)">
							<g id="Group_256-2-2">
								<path id="Path_61-2-2" class="st2" d="M0,2.2c0,0.1,0,0.2,0.1,0.2l0,0l0.5,0.1c0.1,0,0.2,0,0.2-0.1l0,0l0,0L1,1.7l1.1,1.9
									c0,0.1,0.2,0.1,0.2,0.1l0.5-0.3C3,3.4,3,3.2,3,3.2l-1.2-2l0.7,0.2c0.1,0,0.2,0,0.2-0.1l0,0l0,0l0.1-0.5c0-0.1,0-0.2-0.1-0.2
									l0,0L0.8,0C0.7,0,0.6,0,0.5,0.1l0,0l0,0L0,2.2z"/>
							</g>
						</g>
						<g id="noun_Arrow_1953010-3" transform="translate(4.963)">
							<g id="Group_256-3">
								<path id="Path_61-3" class="st2" d="M0.2,0.6C0.1,0.6,0,0.7,0.1,0.8l0,0l0.1,0.5c0,0.1,0.1,0.2,0.2,0.1l0,0l0.7-0.2L0,3.2
									c0,0.1,0,0.2,0.1,0.2l0.5,0.3c0.1,0,0.2,0,0.2-0.1l1.1-1.9l0.2,0.7c0,0.1,0.1,0.1,0.2,0.1l0,0l0.5-0.1C2.9,2.4,3,2.3,3,2.2
									l0,0l-0.5-2C2.4,0.1,2.3,0,2.2,0l0,0l0,0L0.2,0.6z"/>
							</g>
						</g>
					</g>
				</g>
			</g>
			<g id="Group_3663">
				<g id="Group_3662">
					<g id="Group_3664">
						<rect id="Rectangle_578" x="37" class="st1" width="8" height="8"/>
						<path id="Path_574" d="M43.9,5.8L42.1,4l1.8-1.8c0.3-0.3,0.3-0.8,0-1.1l0,0c-0.3-0.3-0.8-0.3-1.1,0L41.1,3l-1.8-1.8
							c-0.3-0.3-0.8-0.3-1.1,0s-0.3,0.8,0,1.1l0,0l0,0L40,4l-1.8,1.8c-0.3,0.3-0.3,0.8,0,1.1c0.3,0.3,0.8,0.3,1.1,0l1.8-1.8l1.8,1.8
							c0.3,0.3,0.8,0.3,1.1,0l0,0l0,0C44.2,6.6,44.2,6.1,43.9,5.8z"/>
					</g>
				</g>
			</g>
			<g id="Group_3661">
				<path id="Path_573" d="M36.2,3.2h-2.5V0.8C33.7,0.3,33.4,0,33,0s-0.8,0.3-0.8,0.8v2.5h-2.5C29.3,3.2,29,3.6,29,4
					s0.3,0.8,0.7,0.8l0,0h2.5v2.5C32.2,7.7,32.6,8,33,8s0.8-0.3,0.8-0.8V4.7h2.5C36.7,4.7,37,4.4,37,4l0,0C37,3.6,36.7,3.2,36.2,3.2
					z"/>
				<rect id="Rectangle_579" x="29" class="st1" width="8" height="8"/>
			</g>
		</g>
	</g>
</g>
</svg>
