<?xml version="1.0" encoding="utf-8"?>
<!-- Generator: Adobe Illustrator 26.3.1, SVG Export Plug-In . SVG Version: 6.00 Build 0)  -->
<svg version="1.1" id="Layer_1" xmlns="http://www.w3.org/2000/svg" xmlns:xlink="http://www.w3.org/1999/xlink" x="0px" y="0px"
	 width="912px" height="16px" viewBox="0 0 912 16" style="enable-background:new 0 0 912 16;" xml:space="preserve">
<style type="text/css">
	.st0{fill:none;}
	.st1{fill:none;stroke:#DDAA4A;stroke-width:2.5;stroke-linecap:round;}
	.st2{fill:#DDAA4A;}
	.st3{fill-rule:evenodd;clip-rule:evenodd;fill:#D9BDB1;}
	.st4{fill:#1EB496;}
	.st5{fill:none;stroke:#000000;stroke-linecap:round;stroke-miterlimit:10;}
	.st6{fill:#131313;}
	.st7{fill:#DDAA4A;stroke:#DDAA4A;stroke-width:2;}
	.st8{fill:#DDAA4A;stroke:#DDAA4A;}
	.st9{fill:none;stroke:#DDAA4A;stroke-width:2;}
	.st10{fill:none;stroke:#DDAA4A;}
	.st11{fill:none;stroke:#26B69A;stroke-width:1.5;stroke-linecap:round;}
	.st12{fill:none;stroke:#26B69A;stroke-width:1.5;stroke-linecap:round;stroke-linejoin:round;}
	.st13{fill:#D9BDB1;}
	.st14{fill:none;stroke:#000000;stroke-linecap:round;}
	.st15{fill:#B7B7B7;}
	.st16{fill:none;stroke:#AFAFAF;stroke-width:2;stroke-linecap:round;stroke-linejoin:round;}
	.st17{fill:none;stroke:#AFAFAF;stroke-width:2;stroke-linecap:round;}
	.st18{fill:none;stroke:#000000;stroke-width:1.5;}
	.st19{fill:none;stroke:#000000;stroke-width:1.5;stroke-linecap:round;}
	.st20{fill:none;stroke:#FFFFFF;stroke-width:1.5;}
	.st21{fill:none;stroke:#FFFFFF;stroke-width:1.5;stroke-linecap:round;}
	.st22{fill:none;stroke:#000000;stroke-linejoin:round;}
	.st23{fill:none;stroke:#000000;stroke-linecap:round;stroke-linejoin:round;}
	.st24{fill:#FFFFFF;}
	.st25{fill:none;stroke:#707070;stroke-linecap:round;}
	.st26{fill:none;stroke:#707070;stroke-linecap:round;stroke-linejoin:round;}
	.st27{fill:none;stroke:#FFFFFF;stroke-width:1.3;stroke-linecap:round;stroke-linejoin:round;}
	.st28{fill:none;stroke:#000000;stroke-width:0.7;}
	.st29{fill:none;stroke:#DDAA4A;stroke-width:2;stroke-linecap:round;}
	.st30{font-family:'Arial-BoldMT';}
	.st31{font-size:11px;}
	.st32{fill:#808080;}
	.st33{fill:#FFFFFF;fill-opacity:0;}
	.st34{fill:#060606;}
	.st35{fill:#C6C3C4;}
	.st36{fill:#888484;}
	.st37{fill:none;stroke:#D9BDB1;stroke-linecap:round;stroke-linejoin:round;}
	.st38{fill:none;stroke:#000000;stroke-width:1.5;stroke-linecap:round;stroke-linejoin:round;}
	.st39{fill:none;stroke:#D9BDB1;stroke-width:1.5;stroke-linecap:round;stroke-linejoin:round;}
	.st40{fill:none;stroke:#D9BDB1;stroke-width:1.333;stroke-linecap:round;stroke-linejoin:round;}
	.st41{fill:none;stroke:#000000;stroke-width:1.2;stroke-linecap:round;}
	.st42{fill:none;stroke:#000000;}
	.st43{fill:#050605;}
	.st44{fill:#3EB200;}
	.st45{fill:#C40808;}
	.st46{fill:#D07000;}
</style>
<rect class="st0" width="912" height="16"/>
<rect id="Rectangle_2954" x="224" class="st0" width="16" height="16"/>
<rect id="Rectangle_2960" x="208" class="st0" width="16" height="16"/>
<rect id="Rectangle_2961" x="273" class="st0" width="16" height="16"/>
<path id="Path_2549" class="st0" d="M337,0h16v16h-16V0z"/>
<path id="Path_2550" class="st0" d="M305,0h16v16h-16V0z"/>
<rect id="Rectangle_2962" x="321" class="st0" width="16" height="16"/>
<rect id="Rectangle_2963" x="385" class="st0" width="16" height="16"/>
<path id="Path_2551" class="st0" d="M417,0h16v16h-16V0z"/>
<rect id="Rectangle_2964" x="401" class="st0" width="16" height="16"/>
<rect id="Rectangle_2965" x="433" class="st0" width="16" height="16"/>
<rect id="Rectangle_2968" x="369" y="-0.4" class="st0" width="15.9" height="15.9"/>
<rect id="Rectangle_2972" x="208" class="st0" width="16" height="16"/>
<g id="Group_6090" transform="translate(-23 -63.605)">
	<g id="Group_612" transform="translate(230.999 69.606)">
		<path id="Path_160" class="st1" d="M1.4,0c0,0,6.4,10.1,13.3,0"/>
	</g>
</g>
<g id="Group_6091" transform="translate(-145.225 -120.758)">
	<path id="Union_4" class="st2" d="M371,133.6c0-1.8,1.4-3.2,3.2-3.2c1.8,0,3.2,1.4,3.2,3.2s-1.4,3.2-3.2,3.2S371,135.3,371,133.6z
		 M376.1,126.6c-0.3,0-0.5-0.2-0.5-0.5c0-0.1,0-0.2,0.1-0.2l2.8-4.9c0.1-0.2,0.4-0.3,0.7-0.2c0.1,0,0.1,0.1,0.2,0.2l2.8,4.9
		c0.1,0.2,0.1,0.5-0.2,0.7c-0.1,0-0.2,0.1-0.2,0.1L376.1,126.6z"/>
	<g id="Group_2185" transform="translate(384.032 131.6)">
		<path id="Path_161" class="st1" d="M0,3.6V0"/>
	</g>
	<rect id="Rectangle_487" x="370.2" y="120.8" class="st0" width="16" height="16"/>
</g>
<g id="noun_exclamation_2492166" transform="translate(306 1)">
	<g id="Group_214">
		<path id="Path_48" class="st3" d="M6.2,8.6h1.6V3.9H6.2V8.6z M7,10.9c-0.4,0-0.8-0.3-0.8-0.8S6.6,9.3,7,9.3s0.8,0.3,0.8,0.8
			S7.4,10.9,7,10.9L7,10.9z M11.7,0H2.3C1,0,0,1,0,2.3v9.3C0,12.9,1,14,2.3,14h9.3c1.3,0,2.3-1,2.3-2.3V2.3C14,1,12.9,0,11.7,0z"/>
	</g>
</g>
<rect id="Rectangle_2973" x="305" class="st0" width="16" height="16"/>
<g id="noun_tick_2000994_1_" transform="translate(205 -149.117)">
	<g id="Group_195" transform="translate(117.665 151.95)">
		<path id="Path_47" class="st4" d="M12.7,2.2l-8.1,8.1L0,5.7l2.2-2.2L4.7,6l5.9-6L12.7,2.2z"/>
	</g>
</g>
<rect id="Rectangle_2974" x="321" y="-0.1" class="st0" width="16" height="16"/>
<g id="Group_6092" transform="translate(-981 -777)">
	<path id="Rectangle_195" class="st0" d="M1323,777h6c2.8,0,5,2.2,5,5v6c0,2.8-2.2,5-5,5h-6c-2.8,0-5-2.2-5-5v-6
		C1318,779.2,1320.2,777,1323,777z"/>
	<path id="Path_382" class="st5" d="M1324.5,781.5l-4.2,4.2c-1.2,1.2-1.2,3.1,0,4.3s3.1,1.2,4.3,0l0,0l7.3-7.2
		c0.9-0.9,0.9-2.3,0-3.1s-2.3-0.9-3.1,0l0,0l-6.9,6.8c-0.6,0.5-0.6,1.3-0.1,1.9c0.5,0.6,1.3,0.6,1.9,0.1l0.1-0.1l4.7-4.7"/>
</g>
<g id="Group_6093" transform="translate(-1017 -776)">
	<rect id="Rectangle_196" x="1370" y="776" class="st0" width="16" height="16"/>
	<g id="Group_738" transform="translate(1371.087 778.349)">
		<g id="Group_737">
			<path id="Path_384" class="st5" d="M6.9,0h-1C4.8,0,4,0.8,4,1.9l0,0l0,0C4,2,3.9,2,3.9,2c-0.4,0.1-1.6,0.4-2,0.5S0.4,3.1,0.1,3.2
				C0,3.2,0,3.3,0,3.3V8c0,1.7,1.4,3.1,3.1,3.1h0.3"/>
			<path id="Path_385" class="st5" d="M6.9,0h1c1,0,1.9,0.8,1.9,1.9l0,0l0,0C9.8,2,9.9,2,10,2c0.4,0.1,1.6,0.4,2,0.5
				s1.5,0.5,1.8,0.7c0.1,0,0.1,0.1,0.1,0.1V8c0,1.7-1.4,3.1-3.1,3.1h-0.3"/>
		</g>
		<circle id="Ellipse_36" class="st5" cx="6.9" cy="7.1" r="4.2"/>
		<path id="Path_386" class="st5" d="M0.8,1.4c0,0,0.3-0.1,0.8-0.3c0.3,0,0.5-0.1,0.8-0.2"/>
	</g>
</g>
<g id="Group_6094" transform="translate(-39 -144.75)">
	<path id="Path_98" class="st4" d="M437.9,144.8H426c-1.1,0-2,0.9-2,2v11.9c0,1.1,0.9,2,2,2l0,0h11.9c1.1,0,2-0.9,2-2v-11.9
		C439.9,145.6,439,144.8,437.9,144.8z M437.9,158.6H426v-11.9h11.9V158.6z"/>
	<g id="noun_tick_2000994_1_2" transform="translate(427.572 149.268)">
		<g id="Group_195-2">
			<path id="Path_47-2" class="st4" d="M8.8,1.5L3.2,7.1L0,3.9l1.5-1.5l1.7,1.7L7.3,0L8.8,1.5z"/>
		</g>
	</g>
</g>
<g id="Group_6095" transform="translate(-7 -144.75)">
	<path id="Path_98-2" class="st4" d="M437.9,144.8H426c-1.1,0-2,0.9-2,2v11.9c0,1.1,0.9,2,2,2l0,0h11.9c1.1,0,2-0.9,2-2v-11.9
		C439.9,145.6,439,144.8,437.9,144.8z M437.9,158.6H426v-11.9h11.9V158.6z"/>
</g>
<g id="Group_6096" transform="translate(-23 -144.75)">
	<path id="Path_98-3" d="M437.9,144.8H426c-1.1,0-2,0.9-2,2v11.9c0,1.1,0.9,2,2,2l0,0h11.9c1.1,0,2-0.9,2-2v-11.9
		C439.9,145.6,439,144.8,437.9,144.8z M437.9,158.6H426v-11.9h11.9V158.6z"/>
	<g id="noun_tick_2000994_1_3" transform="translate(427.572 149.268)">
		<g id="Group_195-3">
			<path id="Path_47-3" d="M8.8,1.5L3.2,7.1L0,3.9l1.5-1.5l1.7,1.7L7.3,0L8.8,1.5z"/>
		</g>
	</g>
</g>
<g id="Group_6097" transform="translate(9 -144.75)">
	<path id="Path_98-4" d="M437.9,144.8H426c-1.1,0-2,0.9-2,2v11.9c0,1.1,0.9,2,2,2l0,0h11.9c1.1,0,2-0.9,2-2v-11.9
		C439.9,145.6,439,144.8,437.9,144.8z M437.9,158.6H426v-11.9h11.9V158.6z"/>
</g>
<g id="Group_6098" transform="translate(420 -16)">
	<g id="Group_3402">
		<g id="Group_3403">
			<rect id="Rectangle_479" x="45" y="16" class="st0" width="16" height="16"/>
			<g id="Group_3404" transform="translate(-689.4 -488.986)">
				<path id="Path_516" class="st6" d="M746.8,509.7h-0.9v-1.1c0-0.2,0-0.4,0-0.7c-0.2-1.8-1.7-3.1-3.5-2.9c-0.2,0-0.4,0-0.6,0
					c-0.9,0.1-1.7,0.5-2.2,1.2s-0.8,1.5-0.7,2.3v1.1H738c-1.1,0-2,0.9-2,2v7.4c0,1.1,0.9,2,2,2h8.9c1.1,0,2-0.9,2-2v-7.4
					C748.8,510.5,747.9,509.7,746.8,509.7z M739.9,508.5c-0.1-1.2,0.8-2.4,2-2.5c0.2,0,0.3,0,0.5,0h0.1l0,0c1.2-0.1,2.4,0.8,2.5,2
					c0,0.2,0,0.3,0,0.5v1.1h-5.1V508.5z M747.8,519c0,0.5-0.4,1-1,1H738c-0.5,0-1-0.4-1-1v-7.4c0-0.5,0.4-1,1-1h8.9c0.5,0,1,0.4,1,1
					v7.4H747.8z"/>
				<path id="Path_517" class="st6" d="M742.4,513.3c-1.1,0-2,0.9-2,2s0.9,2,2,2l0,0l0,0c1.1,0,2-0.9,2-2S743.5,513.3,742.4,513.3z
					 M742.4,516.3c-0.5,0-1-0.4-1-1s0.4-1,1-1c0.5,0,1,0.4,1,1C743.4,515.9,742.9,516.3,742.4,516.3L742.4,516.3L742.4,516.3z"/>
			</g>
		</g>
	</g>
</g>
<g id="Group_6099" transform="translate(403.999 -16.002)">
	<rect id="Rectangle_479-2" x="45" y="16" class="st0" width="16" height="16"/>
	<g id="ic_perm_contact_calendar_24px" transform="translate(-708.015 -499.013)">
		<path id="Path_515" class="st6" d="M769,531h-16v-1.8c0-2.9,5.2-4.4,8-4.4s8,1.5,8,4.4V531z M754,530h14v-0.7c0-2.1-4.6-3.4-7-3.4
			s-7,1.3-7,3.4V530z M761,523.5c-2.3,0-4.2-2-4.2-4.3s1.9-4.1,4.2-4.2l0,0c2.3,0.1,4.2,2,4.2,4.3
			C765.1,521.6,763.3,523.5,761,523.5z M761,516c-1.8,0-3.2,1.5-3.2,3.3s1.5,3.2,3.3,3.2l0,0c1.8,0,3.2-1.5,3.2-3.2
			S762.8,516,761,516L761,516L761,516z"/>
	</g>
</g>
<g id="Group_6100" transform="translate(8 -37)">
	<rect id="Rectangle_369" x="233" y="37" class="st0" width="16" height="16"/>
	<g id="Group_3344" transform="translate(-0.862 -2.687)">
		<path id="Path_488" class="st7" d="M241.9,47.5c0.7,0.9,1.2,1.9,1.4,3c0.3,1.7-0.6,3-1.4,3s-1.8-1.4-1.4-3
			C240.7,49.4,241.2,48.4,241.9,47.5z"/>
		<path id="Path_489" class="st2" d="M242.9,44.9c0.9,0.1,1.8,0.4,2.5,0.9c1.2,0.8,1.3,2.1,0.9,2.5c-0.5,0.5-1.8,0.2-2.5-0.9
			C243.3,46.7,243,45.8,242.9,44.9z"/>
		<path id="Path_490" class="st2" d="M240.8,44.9c-0.9,0.1-1.8,0.4-2.5,0.9c-1.2,0.8-1.4,2.1-0.9,2.5c0.5,0.5,1.8,0.2,2.5-0.9
			C240.4,46.7,240.7,45.8,240.8,44.9z"/>
		<ellipse id="Ellipse_46" class="st8" cx="236.4" cy="44.1" rx="1.4" ry="1.4"/>
		<ellipse id="Ellipse_47" class="st8" cx="247.3" cy="44.1" rx="1.4" ry="1.4"/>
	</g>
</g>
<g id="Group_6101" transform="translate(24 -37)">
	<rect id="Rectangle_369-2" x="233" y="37" class="st0" width="16" height="16"/>
	<g id="Group_3344-2" transform="translate(-0.862 -2.687)">
		<path id="Path_488-2" class="st9" d="M241.9,47.5c0.7,0.9,1.2,1.9,1.4,3c0.3,1.7-0.6,3-1.4,3s-1.8-1.4-1.4-3
			C240.7,49.4,241.2,48.4,241.9,47.5z"/>
		<path id="Path_489-2" class="st2" d="M242.9,44.9c0.9,0.1,1.8,0.4,2.5,0.9c1.2,0.8,1.3,2.1,0.9,2.5c-0.5,0.5-1.8,0.2-2.5-0.9
			C243.3,46.7,243,45.8,242.9,44.9z"/>
		<path id="Path_490-2" class="st2" d="M240.8,44.9c-0.9,0.1-1.8,0.4-2.5,0.9c-1.2,0.8-1.4,2.1-0.9,2.5c0.5,0.5,1.8,0.2,2.5-0.9
			C240.4,46.7,240.7,45.8,240.8,44.9z"/>
		<ellipse id="Ellipse_46-2" class="st10" cx="236.4" cy="44.1" rx="1.4" ry="1.4"/>
		<ellipse id="Ellipse_47-2" class="st10" cx="247.3" cy="44.1" rx="1.4" ry="1.4"/>
	</g>
</g>
<g id="Group_6102" transform="translate(403.999 -16.002)">
	<rect id="Rectangle_479-3" x="45" y="16" class="st0" width="16" height="16"/>
	<g id="ic_perm_contact_calendar_24px-2" transform="translate(-708.015 -499.013)">
		<path id="Path_515-2" class="st6" d="M769,531h-16v-1.8c0-2.9,5.2-4.4,8-4.4s8,1.5,8,4.4V531z M754,530h14v-0.7
			c0-2.1-4.6-3.4-7-3.4s-7,1.3-7,3.4V530z M761,523.5c-2.3,0-4.2-2-4.2-4.3s1.9-4.1,4.2-4.2l0,0c2.3,0.1,4.2,2,4.2,4.3
			C765.1,521.6,763.3,523.5,761,523.5z M761,516c-1.8,0-3.2,1.5-3.2,3.3s1.5,3.2,3.3,3.2l0,0c1.8,0,3.2-1.5,3.2-3.2
			S762.8,516,761,516L761,516L761,516z"/>
	</g>
</g>
<g id="Group_6103" transform="translate(-4)">
	<g id="Group_3359" transform="translate(-605 -668)">
		<g id="Ellipse_48" transform="translate(1091 669)">
			<circle class="st0" cx="7" cy="7" r="7"/>
			<circle class="st11" cx="7" cy="7" r="6.2"/>
		</g>
		<g id="Group_3356" transform="translate(1095.599 673.242)">
			<line id="Line_21" class="st11" x1="2.4" y1="0" x2="2.4" y2="5.1"/>
			<path id="Path_504" class="st12" d="M0,3.1l2.4,2.4l2.4-2.4"/>
		</g>
	</g>
	<rect id="Rectangle_488" x="485" class="st0" width="16" height="16"/>
</g>
<g id="Group_6104" transform="translate(497)">
	<rect id="Rectangle_215" class="st0" width="16" height="16"/>
	<g id="Group_2185-2" transform="translate(0.489 0.867)">
		<path id="Path_436" class="st13" d="M2.9,0.3h9l2,5.7H0.8L2.9,0.3z"/>
		<g id="Group_753">
			<path id="Path_405" d="M14.9,5.2L14.9,5.2l-1.6-4.1C13.1,0.4,12.4,0,11.6,0H3.5l0,0C2.8,0,2.1,0.4,1.9,1.1L0.1,5.2l0,0
				c-0.2,0.5-0.1,1,0.1,1.4C0.5,7,1,7.2,1.4,7.1c0.6,0,1.3-0.2,1.8-0.6c0.2-0.1,0.4-0.2,0.6-0.3c0.1,0,0.1,0,0.3,0.2
				C4.5,6.8,5,7,5.5,7s1-0.2,1.5-0.5c0.2-0.1,0.3-0.2,0.5-0.2s0.4,0.1,0.6,0.3C8.5,6.9,9,7,9.5,7.1l0,0c0.5,0,1-0.2,1.3-0.6
				c0.2-0.2,0.3-0.3,0.4-0.3c0.1,0,0.2,0.1,0.3,0.1l0,0v6.2c0,0.1-0.1,0.3-0.2,0.4c-0.1,0.1-0.3,0.2-0.4,0.2H4.1
				c-0.3,0-0.6-0.2-0.6-0.5S3.2,12,2.9,12s-0.6,0.3-0.6,0.6c0,1,0.8,1.8,1.8,1.8H11c0.5,0,0.9-0.2,1.3-0.5c0.3-0.3,0.5-0.8,0.5-1.2
				V7c0.2,0.1,0.5,0.1,0.7,0.1c0.5,0,0.9-0.2,1.2-0.5C15,6.2,15.1,5.7,14.9,5.2z M13.8,5.9c-0.1,0-0.1,0-0.2,0c-0.4,0-0.7-0.2-1-0.4
				C12.2,5.2,11.8,5,11.3,5l0,0c-0.5,0-0.9,0.2-1.2,0.6C9.8,5.8,9.7,5.9,9.5,5.9l0,0C9.2,5.8,9,5.7,8.8,5.5C8.4,5.3,8,5.1,7.5,5.1
				c-0.4,0-0.8,0.2-1.2,0.4C6.1,5.7,5.8,5.8,5.5,5.8c-0.2,0-0.3,0-0.5-0.2C4.7,5.2,4.3,5,3.8,5S2.9,5.2,2.5,5.5
				C2.2,5.7,1.8,5.9,1.4,5.9c-0.1,0-0.1,0-0.2,0c0-0.1,0-0.2,0-0.2L3,1.6c0.1-0.2,0.3-0.3,0.5-0.3l0,0h8.1c0.2,0,0.4,0.1,0.5,0.4
				l1.6,4.1C13.8,5.7,13.8,5.8,13.8,5.9L13.8,5.9z"/>
		</g>
		<path id="Path_435" class="st13" d="M3.5,10.6c-0.2,0.2-0.2,0.6,0,0.8l0,0c0.1,0.1,0.3,0.2,0.4,0.2c0.2,0,0.3-0.1,0.4-0.2l1.6-1.6
			C6,9.7,6.1,9.6,6.1,9.4C6.1,9.3,6,9.1,5.9,9L4.3,7.4c-0.2-0.2-0.6-0.2-0.8,0l0,0C3.3,7.6,3.3,8,3.5,8.2l0,0l0.6,0.6H1.2
			c-0.3,0-0.6,0.3-0.6,0.6l0,0c0,0.3,0.3,0.6,0.6,0.6h2.9L3.5,10.6z"/>
	</g>
</g>
<g id="Group_6105" transform="translate(-268 -285)">
	<rect id="Rectangle_217" x="797" y="285" class="st0" width="16" height="16"/>
	<g id="Group_2976" transform="translate(797.25 285.781)">
		<path id="Path_441" class="st13" d="M13,1.3l1.8,4.2c0,0,0.4,1.1-0.8,1.1s-1.7-0.9-2.5-0.9s-0.8,0.8-1.7,0.8s-1.3-0.7-2-0.7
			S6.5,6.6,5.7,6.6S4.6,5.7,3.8,5.7S2.5,6.6,1.5,6.6C1.1,6.7,0.7,6.4,0.6,6c0-0.1,0-0.3,0.1-0.4l1.7-4.2C2.5,0.9,3,0.6,3.5,0.6h8.4
			C12.4,0.6,12.8,0.9,13,1.3z"/>
		<path id="Path_442" d="M15.4,5.3L15.4,5.3l-1.8-4.2l0,0c-0.3-0.7-1-1.1-1.7-1.1H3.5l0,0C2.7,0,2,0.5,1.8,1.1L0.1,5.3l0,0
			c-0.2,0.5-0.1,1,0.1,1.4C0.5,7.1,1,7.3,1.5,7.2c0.2,0,0.5,0,0.7-0.1v5.6l0,0c0,1,0.8,1.8,1.8,1.8h7.3c1,0,1.8-0.8,1.9-1.8
			c0-0.3-0.3-0.6-0.6-0.6S12,12.3,12,12.7c0,0.3-0.3,0.6-0.6,0.6l0,0l0,0H4c-0.3,0-0.6-0.2-0.6-0.6V6.5c0.1-0.1,0.3-0.2,0.5-0.2
			c0.1,0,0.2,0.1,0.5,0.3C4.7,7,5.2,7.2,5.7,7.2l0,0c0.5,0,1-0.2,1.4-0.5c0.2-0.1,0.4-0.2,0.6-0.3c0.2,0,0.4,0.1,0.6,0.3
			c0.4,0.3,1,0.5,1.5,0.5s1-0.2,1.4-0.6c0.2-0.2,0.3-0.2,0.4-0.2c0.2,0,0.5,0.1,0.7,0.3c0.5,0.4,1.2,0.6,1.8,0.6
			c0.5,0,0.9-0.2,1.2-0.6C15.5,6.3,15.6,5.8,15.4,5.3z M14.3,6c-0.1,0-0.1,0-0.2,0c-0.4,0-0.8-0.2-1.2-0.4c-0.4-0.3-0.8-0.4-1.3-0.5
			c-0.5,0-0.9,0.2-1.2,0.5c-0.2,0.2-0.3,0.3-0.5,0.3C9.5,5.9,9.2,5.8,9,5.6C8.6,5.3,8.2,5.2,7.8,5.2c-0.5,0-0.9,0.2-1.3,0.5
			C6.2,5.8,6,5.9,5.7,6l0,0C5.5,6,5.4,5.9,5.1,5.7C4.8,5.3,4.3,5.1,3.9,5.1l0,0C3.4,5.1,3,5.3,2.6,5.6C2.2,5.8,1.9,6,1.5,6
			C1.4,6,1.3,6,1.2,6c0-0.1,0-0.2,0-0.2l1.6-4.1C3,1.4,3.2,1.2,3.5,1.2h8.4c0.2,0,0.5,0.1,0.6,0.4l1.8,4.2C14.3,5.8,14.3,5.9,14.3,6
			L14.3,6z"/>
		<path id="Path_443" class="st13" d="M14.9,9.1l-1.7-1.7c-0.2-0.2-0.6-0.2-0.9,0c-0.2,0.2-0.2,0.6,0,0.8L13,8.9H9.8
			c-0.3,0-0.6,0.3-0.6,0.6s0.3,0.6,0.6,0.6H13l-0.6,0.6c-0.2,0.2-0.3,0.6,0,0.9s0.6,0.3,0.9,0l0,0L15,9.9
			C15.1,9.7,15.1,9.4,14.9,9.1z"/>
	</g>
</g>
<g id="Group_6106" transform="translate(58 -285)">
	<rect id="Rectangle_216" x="455" y="285" class="st0" width="16" height="16"/>
	<g id="Group_2974" transform="translate(455.25 285.731)">
		<path id="Path_439" class="st13" d="M3.6,0.6H12c0.5,0,1,0.3,1.2,0.8l1.7,4.2c0.2,0.4,0,0.9-0.4,1c-0.1,0.1-0.3,0.1-0.4,0.1
			c-1,0-1.6-0.9-2.3-0.9s-1,0.9-1.8,0.9S8.5,5.8,7.7,5.8s-1.1,0.7-2,0.7s-1-0.8-1.8-0.8S2.6,6.6,1.5,6.6S0.7,5.5,0.7,5.5l1.8-4.2
			C2.7,0.9,3.1,0.6,3.6,0.6z"/>
		<path id="Path_440" d="M15.4,5.3L15.4,5.3l-1.7-4.2C13.5,0.4,12.8,0,12,0H3.6l0,0C2.9,0,2.2,0.4,1.9,1.1L0.1,5.3l0,0
			c-0.2,0.5-0.1,1,0.1,1.4C0.5,7.1,1,7.3,1.5,7.2c0.3,0,0.6,0,0.8-0.1v5.6l0,0l0,0c0,1,0.9,1.8,1.9,1.8h7.3c1,0,1.8-0.8,1.8-1.8l0,0
			V7.1c0.2,0.1,0.4,0.1,0.7,0.1c0.5,0,1-0.2,1.3-0.5C15.5,6.3,15.6,5.8,15.4,5.3z M12.1,12.7c0,0.3-0.3,0.6-0.6,0.6H4.1
			c-0.3,0-0.6-0.2-0.6-0.6V6.5c0.1-0.1,0.3-0.1,0.4-0.1c0.1,0,0.2,0,0.4,0.2C4.7,7,5.1,7.2,5.7,7.2c0.5,0,1.1-0.2,1.5-0.5
			c0.2-0.1,0.4-0.2,0.6-0.3c0.2,0,0.5,0.1,0.6,0.3C8.8,7,9.3,7.2,9.8,7.2l0,0c0.5,0,1-0.2,1.3-0.6c0.2-0.2,0.4-0.3,0.5-0.3
			c0.2,0,0.3,0.1,0.5,0.2V12.7z M14.3,6c-0.1,0-0.2,0-0.3,0c-0.4,0-0.8-0.2-1.1-0.4c-0.4-0.3-0.8-0.5-1.3-0.5l0,0
			c-0.5,0-0.9,0.2-1.3,0.6C10.2,5.9,10,6,9.8,6l0,0C9.5,5.9,9.3,5.8,9,5.6C8.7,5.4,8.2,5.2,7.7,5.2c-0.4,0-0.9,0.2-1.2,0.4
			C6.3,5.8,6,5.9,5.7,5.9c-0.2,0-0.3-0.1-0.5-0.3C4.8,5.3,4.4,5.1,3.9,5.1C3.5,5.1,3,5.3,2.6,5.6C2.3,5.8,1.9,6,1.5,6
			C1.4,6,1.3,6,1.2,6c0-0.1,0-0.2,0-0.2L3,1.6c0.1-0.2,0.3-0.4,0.6-0.4l0,0H12l0,0c0.2,0,0.5,0.1,0.6,0.4l1.6,4.1
			C14.3,5.8,14.3,5.9,14.3,6L14.3,6z"/>
		<g id="noun_Refresh_2072320" transform="translate(5.568 7.76)">
			<g id="Group_260">
				<path id="Path_62" class="st13" d="M4.2,0.6L4.2,0.6L4.2,0.6v1.2c0,0,0,0.1-0.1,0.1l0,0l-1-0.3c0,0,0,0-0.1,0l0,0V1.5l0.2-0.2
					c-0.5-0.6-1.4-0.6-2-0.1C1,1.3,0.8,1.6,0.8,1.9c0,0.2-0.2,0.3-0.4,0.3l0,0C0.2,2.2,0,2,0,1.8V1.7c0.3-1.2,1.5-1.9,2.7-1.6
					c0.4,0.1,0.9,0.4,1.2,0.7L4.2,0.6C4.1,0.6,4.2,0.6,4.2,0.6z"/>
				<path id="Path_63" class="st13" d="M0.1,3.9L0.1,3.9L0.1,3.9V2.7c0,0,0-0.1,0.1-0.1l0,0l1.1,0.2c0,0,0,0,0.1,0l0,0v0.1L1.1,3.3
					c0.5,0.6,1.4,0.6,2,0.1c0.2-0.2,0.4-0.5,0.4-0.7s0.2-0.3,0.4-0.3l0,0c0.2,0,0.4,0.2,0.4,0.4l0,0v0.1C4.1,4,2.9,4.8,1.7,4.5
					C1.2,4.4,0.8,4.1,0.5,3.8L0.3,3.9C0.2,4,0.2,4,0.1,3.9z"/>
			</g>
		</g>
	</g>
</g>
<g id="Group_6107" transform="translate(-1191.979 -22)">
	<rect id="Rectangle_489" x="1737" y="22" class="st0" width="16" height="16"/>
	<g id="Group_2184" transform="translate(1739.034 25)">
		<path id="Path_379" class="st14" d="M0.5,1h11"/>
		<path id="Path_380" class="st14" d="M2.5,5.2h7"/>
		<path id="Path_381" class="st14" d="M4.9,9.4h2"/>
	</g>
</g>
<g id="Group_6108" transform="translate(-1198.979 -22)">
	<g id="noun_options_2091331" transform="translate(1769.481 24.499) rotate(90)">
		<path id="Path_374" class="st15" d="M1.5,3C0.7,3,0,2.3,0,1.5S0.7,0,1.5,0S3,0.7,3,1.5S2.3,3,1.5,3z"/>
		<path id="Path_375" class="st15" d="M5.5,3C4.7,3,4,2.3,4,1.5S4.7,0,5.5,0S7,0.7,7,1.5S6.3,3,5.5,3z"/>
		<path id="Path_376" class="st15" d="M9.5,3C8.7,3,8,2.3,8,1.5S8.7,0,9.5,0C10.4,0,11,0.7,11,1.5S10.4,3,9.5,3z"/>
	</g>
	<rect id="Rectangle_490" x="1760" y="22" class="st0" width="16" height="16"/>
</g>
<g id="Group_6109" transform="translate(577)">
	<g id="Group_3057">
		<g id="Group_3056">
			<g id="Group_3481">
				<path id="Path_447" class="st16" d="M8.2,5.1L5.3,8l2.9,2.9"/>
				<rect id="Rectangle_264" class="st0" width="16" height="16"/>
				<line id="Line_35" class="st17" x1="6" y1="8" x2="11.5" y2="8"/>
			</g>
		</g>
	</g>
</g>
<g id="Group_6110" transform="translate(145 -285)">
	<rect id="Rectangle_215-2" x="128" y="285" class="st0" width="16" height="16"/>
	<g id="Group_3905" transform="translate(129.5 286.5)">
		<g id="Ellipse_89">
			<circle class="st0" cx="6.1" cy="6.1" r="6.1"/>
			<circle class="st18" cx="6.1" cy="6.1" r="5.4"/>
		</g>
		<path id="Path_623" class="st19" d="M10.3,10.3L13,13"/>
	</g>
</g>
<g id="Group_6111" transform="translate(161 -285)">
	<rect id="Rectangle_215-3" x="128" y="285" class="st0" width="16" height="16"/>
	<g id="Group_3905-2" transform="translate(129.5 286.5)">
		<g id="Ellipse_89-2">
			<circle class="st0" cx="6.1" cy="6.1" r="6.1"/>
			<circle class="st20" cx="6.1" cy="6.1" r="5.4"/>
		</g>
		<path id="Path_623-2" class="st21" d="M10.3,10.3L13,13"/>
	</g>
</g>
<g id="Group_6112" transform="translate(-12196 16259)">
	<g id="Group_3899" transform="translate(0 3)">
		<rect id="Rectangle_643" x="12565" y="-16262" class="st0" width="16" height="16"/>
		<path id="Path_1641" class="st22" d="M12567.5-16259.4h11.1l-4.8,5.9v2.9l-2.2,2.2v-5.1L12567.5-16259.4z"/>
	</g>
</g>
<g id="Group_6113" transform="translate(-11973 16262)">
	<g id="Group_3899-2">
		<g id="Group_3898" transform="translate(-446.307 117.937)">
			<line id="Line_69" class="st14" x1="13019.3" y1="-16375.6" x2="13024.2" y2="-16375.6"/>
			<line id="Line_70" class="st14" x1="13016.9" y1="-16371.9" x2="13021.8" y2="-16371.9"/>
			<line id="Line_72" class="st14" x1="13014.4" y1="-16368.2" x2="13019.3" y2="-16368.2"/>
			<g id="Group_3896" transform="translate(13021.937 -16371.88)">
				<line id="Line_71" class="st14" x1="2.3" y1="0" x2="2.3" y2="6.1"/>
				<path id="Path_621" class="st23" d="M0,3.9l2.3,2.3l2.3-2.3"/>
			</g>
			<g id="Group_3897" transform="translate(13016.675 -16371.88) rotate(180)">
				<line id="Line_71-2" class="st14" x1="2.3" y1="0" x2="2.3" y2="6.1"/>
				<path id="Path_621-2" class="st23" d="M0,3.9l2.3,2.3l2.3-2.3"/>
			</g>
		</g>
		<rect id="Rectangle_643-2" x="12565" y="-16262" class="st0" width="16" height="16"/>
	</g>
</g>
<g id="Group_6114" transform="translate(369.001 -511.23)">
	<g id="Group_3729" transform="translate(239.463 513.029)">
		<g id="Group_3651" transform="translate(0 0)">
			<path id="Path_567" class="st24" d="M13.1,12.2H2.2C1,12.2,0,11.2,0,10V0.6C0,0.3,0.3,0,0.6,0s0.6,0.3,0.6,0.6V10
				c0,0.5,0.4,0.9,0.9,0.9l0,0H13c0.5,0,0.9-0.4,0.9-0.9l0,0V0.6C14,0.3,14.3,0,14.6,0s0.6,0.3,0.6,0.6V10
				C15.3,11.2,14.3,12.2,13.1,12.2L13.1,12.2z"/>
		</g>
		<g id="Group_3653" transform="translate(4.081 3.572)">
			<ellipse id="Ellipse_71" class="st24" cx="3.6" cy="1" rx="1" ry="1"/>
			<ellipse id="Ellipse_72" class="st24" cx="4.9" cy="4.3" rx="1" ry="1"/>
			<ellipse id="Ellipse_73" class="st24" cx="1" cy="1" rx="1" ry="1"/>
			<ellipse id="Ellipse_74" class="st24" cx="2.3" cy="4.3" rx="1" ry="1"/>
			<ellipse id="Ellipse_75" class="st24" cx="6.2" cy="1" rx="1" ry="1"/>
		</g>
	</g>
	<rect id="Rectangle_596" x="239" y="511.2" class="st0" width="16" height="16"/>
</g>
<g id="Group_4464" transform="translate(3294 5325)">
	<circle id="Ellipse_108" class="st24" cx="-2662" cy="-5317" r="8"/>
	<g id="Group_4462" transform="translate(-2665 -5320)">
		<line id="Line_114" class="st25" x1="0" y1="0" x2="6" y2="6"/>
		<line id="Line_115" class="st25" x1="6" y1="0" x2="0" y2="6"/>
	</g>
</g>
<g id="Group_4466" transform="translate(94 -408.5)">
	<g id="Group_4465" transform="translate(3216 5733.5)">
		<circle id="Ellipse_108-2" class="st24" cx="-2662" cy="-5317" r="8"/>
	</g>
	<path id="Path_1740" class="st26" d="M556,419.9c0.3-0.5,1.5-2.5,0.4-4c-0.8-1.2-2.5-1-4.4-1"/>
	<path id="Path_1741" class="st26" d="M553.2,412.9l-2.1,2.1l2.1,2.1"/>
</g>
<g id="Group_4476" transform="translate(-544 -121)">
	<g id="Group_4475" transform="translate(1200.001 121)">
		<g id="Group_4474" transform="translate(2.686 0.738)">
			<path id="ic_location_on_24px" class="st27" d="M5.3,0C2.4,0,0,2.4,0,5.3c0,4,5.3,9.3,5.3,9.3s5.3-5.3,5.3-9.3
				C10.6,2.4,8.2,0,5.3,0z"/>
			<path id="ic_location_on_24px-2" class="st27" d="M5.3,7.8c-1.4,0-2.5-1.1-2.5-2.5s1.1-2.5,2.5-2.5s2.5,1.1,2.5,2.5l0,0
				C7.8,6.7,6.7,7.8,5.3,7.8z"/>
		</g>
		<rect id="Rectangle_575" x="0" class="st0" width="16" height="16"/>
	</g>
</g>
<g id="Group_6115" transform="translate(168)">
	<path id="Icon_ionic-md-key" class="st28" d="M511.7,6.9C511.3,5.8,510.3,5,509,5c-1.5,0-2.7,1.2-2.7,2.8l0,0
		c0,1.5,1.2,2.8,2.8,2.8l0,0c1.2,0,2.2-0.8,2.6-1.9h2.8v1.7h1.9V8.6h1.2V6.9H511.7z M509.1,8.7c-0.5,0-0.9-0.4-0.9-0.9
		s0.4-0.9,0.9-0.9s0.9,0.4,0.9,0.9l0,0C510,8.3,509.6,8.7,509.1,8.7z"/>
	<g id="Group_4809" transform="translate(504)">
		<g id="Group_4807">
			<rect id="Rectangle_381" class="st0" width="16" height="16"/>
		</g>
	</g>
</g>
<path id="Path_2548" class="st0" d="M0,0h16v16H0V0z"/>
<rect id="Rectangle_2948" x="32" class="st0" width="16" height="16"/>
<rect id="Rectangle_2949" x="64" class="st0" width="16" height="16"/>
<rect id="Rectangle_2950" x="96" class="st0" width="16" height="16"/>
<rect id="Rectangle_2951" x="128" class="st0" width="16" height="16"/>
<rect id="Rectangle_2952" x="192" class="st0" width="16" height="16"/>
<rect id="Rectangle_2953" x="160" class="st0" width="16" height="16"/>
<rect id="Rectangle_2955" x="16" class="st0" width="16" height="16"/>
<rect id="Rectangle_2956" x="48" class="st0" width="16" height="16"/>
<rect id="Rectangle_2957" x="80" class="st0" width="16" height="16"/>
<rect id="Rectangle_2958" x="112" class="st0" width="16" height="16"/>
<rect id="Rectangle_2959" x="176" class="st0" width="16" height="16"/>
<g id="Group_6079" transform="translate(-233 -38)">
	<g id="Group_3202">
		<g id="Group_3006" transform="translate(4267 14050)">
			<g id="Ellipse_42" transform="translate(-4028.5 -14009)">
				<circle class="st0" cx="5.2" cy="5.2" r="5.2"/>
				<circle class="st9" cx="5.2" cy="5.2" r="4.2"/>
			</g>
			<g id="Ellipse_43" transform="translate(-4034 -14009)">
				<circle class="st0" cx="5.2" cy="5.2" r="5.2"/>
				<circle class="st9" cx="5.2" cy="5.2" r="4.2"/>
			</g>
		</g>
		<rect id="Rectangle_367" x="233" y="38" class="st0" width="16" height="16"/>
	</g>
</g>
<g id="Group_6080" transform="translate(-218 -38.703)">
	<g id="Path_170" transform="translate(244.07 42.397) rotate(180)">
		<path class="st0" d="M3.7,0l1.5,2.8C5.4,3.1,5.3,3.5,5,3.6C4.9,3.7,4.8,3.7,4.7,3.7h-4C0.3,3.7,0,3.4,0,3.1C0,3,0,2.9,0.1,2.8
			L1.6,0H3.7z"/>
		<path class="st2" d="M3.7,0l1.5,2.8c0.2,0.4-0.1,0.9-0.5,0.9H0.6c-0.5,0-0.8-0.5-0.5-0.9L1.6,0H3.7z"/>
	</g>
	<g id="Ellipse_44" transform="translate(235 41.745)">
		<circle class="st0" cx="6.5" cy="6.5" r="6.5"/>
		<circle class="st9" cx="6.5" cy="6.5" r="5.5"/>
	</g>
</g>
<rect id="Rectangle_2966" x="16" class="st0" width="16" height="16"/>
<g id="Group_6081" transform="translate(-200.5 -65.605)">
	<g id="Group_612-2" transform="translate(233.499 69.606)">
		<path id="Path_160-2" class="st29" d="M0,0c0,0,6.8,10.6,14,0"/>
		<circle id="Ellipse_29" class="st2" cx="6.9" cy="7.7" r="2.4"/>
	</g>
</g>
<g id="Group_6082" transform="translate(-185.107 -35.785)">
	<g id="Group_616" transform="translate(235 38.784)">
		<path id="Path_161-2" class="st29" d="M2.7,6.1V0"/>
		<ellipse id="Ellipse_30" class="st2" cx="2.7" cy="8.3" rx="2.7" ry="2.7"/>
	</g>
	<g id="Group_617" transform="translate(241.843 38.784)">
		<path id="Path_161-3" class="st29" d="M2.7,6.1V0"/>
		<ellipse id="Ellipse_30-2" class="st2" cx="2.7" cy="8.3" rx="2.7" ry="2.7"/>
	</g>
</g>
<rect id="Rectangle_2967" x="48" class="st0" width="16" height="16"/>
<g id="Group_6083" transform="translate(-302.996 -117.871)">
	<g id="noun_Diamond_539123" transform="translate(367 119)">
		<path id="Path_383" class="st2" d="M8,14c-0.3,0-0.6-0.1-0.8-0.4l-7-8.4c-0.3-0.4-0.3-0.9,0-1.3l3-3.6C3.4,0.1,3.7,0,4,0h8
			c0.3,0,0.6,0.1,0.8,0.4l3,3.6c0.3,0.4,0.3,0.9,0,1.3l-7,8.4C8.6,13.8,8.3,14,8,14z M2.3,4.6L8,11.4l5.7-6.8L11.5,2h-7L2.3,4.6z"/>
	</g>
	<path id="Path_384-2" class="st29" d="M369.7,123.6h10.8"/>
</g>
<rect id="Rectangle_2969" x="64" class="st0" width="16" height="16"/>
<g id="Group_6084" transform="translate(-167.701 -31)">
	<g id="Group_3221" transform="translate(258.247 36.706) rotate(180)">
		<circle id="Ellipse_37" class="st2" cx="2.9" cy="2.9" r="2.9"/>
	</g>
	<g id="Path_168" transform="translate(262.065 47) rotate(180)">
		<path class="st0" d="M6.7,0c3.7,0,6.7,3,6.7,6.7s-3,6.7-6.7,6.7S0,10.4,0,6.7l0,0C0,3,3,0,6.7,0z"/>
		<path class="st2" d="M6.7,2C4.1,2,2,4.1,2,6.7s2.1,4.7,4.7,4.7s4.7-2.1,4.7-4.7S9.3,2,6.7,2 M6.7,0c3.7,0,6.7,3,6.7,6.7
			s-3,6.7-6.7,6.7S0,10.4,0,6.7S3,0,6.7,0z"/>
	</g>
</g>
<rect id="Rectangle_2970" x="80" class="st0" width="16" height="16"/>
<rect id="Rectangle_2971" x="176" class="st0" width="16" height="16"/>
<path id="Union_18" class="st2" d="M105.1,12.1c0-1.9,1.5-3.4,3.4-3.4l0,0c1.9,0,3.4,1.5,3.4,3.4l0,0c0,1.9-1.5,3.4-3.4,3.4l0,0
	C106.7,15.5,105.1,14,105.1,12.1L105.1,12.1z M96,12.1c0-1.9,1.5-3.4,3.4-3.4s3.4,1.5,3.4,3.4l0,0c0,1.9-1.5,3.4-3.4,3.4l0,0
	C97.5,15.5,96,14,96,12.1L96,12.1z M100.6,4.4c0-1.9,1.5-3.4,3.4-3.4s3.4,1.5,3.4,3.4l0,0c0,1.9-1.5,3.4-3.4,3.4l0,0
	C102.1,7.9,100.6,6.3,100.6,4.4z"/>
<circle id="Ellipse_221" class="st2" cx="120" cy="8" r="8"/>
<g id="Group_6085" transform="translate(-414 -64)">
	<g id="Path_167" transform="translate(542.84 64)">
		<path class="st0" d="M7.3,0c4,0,7.3,3.3,7.3,7.3s-3.3,7.3-7.3,7.3S0,11.3,0,7.3S3.3,0,7.3,0L7.3,0z"/>
		<path class="st2" d="M7.3,2.5c-2.6,0-4.8,2.2-4.8,4.8s2.2,4.8,4.8,4.8s4.8-2.2,4.8-4.8S10,2.5,7.3,2.5 M7.3,0c4,0,7.3,3.3,7.3,7.3
			s-3.3,7.3-7.3,7.3S0,11.3,0,7.3S3.3,0,7.3,0z"/>
	</g>
	<circle id="Ellipse_35" class="st2" cx="547.4" cy="76.9" r="3.1"/>
</g>
<g id="Group_6086">
	<rect id="Rectangle_397" x="144" class="st0" width="16" height="16"/>
	<g id="Group_3281" transform="translate(-87.83 -64.605)">
		<g id="Group_612-3" transform="translate(233.499 69.606)">
			<path id="Path_160-3" class="st1" d="M0,0c0,0,6,9.5,12.5,0"/>
			<path id="Polygon_1" class="st2" d="M5.3,5.1c0.3-0.5,0.9-0.7,1.4-0.4C6.8,4.8,7,5,7,5.1l1,1.8C8.3,7.4,8.1,8,7.6,8.3
				c-0.1,0-0.3,0.1-0.4,0.1h-2c-0.6,0-1-0.4-1-1c0-0.2,0-0.3,0.1-0.5L5.3,5.1z"/>
		</g>
	</g>
</g>
<g id="Group_6087" transform="translate(-7.4 -263.75) rotate(45)">
	<path id="Path_161-4" class="st1" d="M316.5,70.6v-6.4"/>
	
		<ellipse id="Ellipse_30-3" transform="matrix(0.7071 -0.7071 0.7071 0.7071 41.2062 244.8804)" class="st2" cx="316.2" cy="72.7" rx="3.2" ry="3.2"/>
	
		<ellipse id="Ellipse_38" transform="matrix(0.7071 -0.7071 0.7071 0.7071 48.7186 242.0172)" class="st2" cx="316.5" cy="62.2" rx="2.2" ry="2.2"/>
</g>
<g id="Group_6088" transform="translate(-55 -65.605)">
	<g id="Group_612-4" transform="translate(230.999 69.606)">
		<path id="Path_160-4" class="st1" d="M1.4,0c0,0,6.4,10.1,13.3,0"/>
		<circle id="Ellipse_29-2" class="st2" cx="8" cy="7.4" r="2.3"/>
		<circle id="Ellipse_39" class="st2" cx="14.2" cy="6.8" r="1.7"/>
		<circle id="Ellipse_40" class="st2" cx="1.7" cy="6.8" r="1.7"/>
	</g>
</g>
<g id="Group_6089" transform="translate(-39.666 -65.041)">
	<g id="Group_612-5" transform="translate(233.095 69.606)">
		<path id="Path_160-5" class="st1" d="M0.2,0c0,0,6.1,9.6,12.7,0"/>
		<path id="Polygon_1-2" class="st2" d="M6.1,5.4C6.2,5.1,6.5,5,6.7,5.2c0.1,0,0.1,0.1,0.2,0.2l1.9,3.4c0.1,0.2,0,0.5-0.2,0.7
			c-0.1,0-0.2,0.1-0.2,0.1H4.6C4.3,9.5,4.1,9.3,4.1,9c0-0.1,0-0.2,0.1-0.2L6.1,5.4z"/>
		<g id="Group_653" transform="translate(13.1 5.922)">
			<path id="Path_161-5" class="st1" d="M0,2.6V0"/>
		</g>
		<g id="Group_654" transform="translate(0 5.922)">
			<path id="Path_161-6" class="st1" d="M0,2.6V0"/>
		</g>
	</g>
</g>
<rect id="Rectangle_10" x="688" class="st0" width="16" height="16"/>
<rect id="Rectangle_115" x="704" class="st0" width="16" height="16"/>
<rect id="Rectangle_116" x="720" class="st0" width="16" height="16"/>
<rect id="Rectangle_117" x="736" class="st0" width="16" height="16"/>
<g id="Component_37_1" transform="translate(688)">
	<g id="Group_4090" transform="translate(-162 -47)">
		<g id="Group_4091" transform="translate(162 47)">
			<circle id="Ellipse_93" class="st13" cx="8" cy="8" r="8"/>
		</g>
	</g>
	<g id="Group_5503" transform="translate(-175.245 -247.367)">
		<path id="Union_6" class="st24" d="M178.4,254.9L178.4,254.9c0.9,0,1.8,0,2.6,0c0.1,0,0.1,0,0.1,0.1c0.5,1.7,1.1,3.5,1.6,5.2
			c0.8,2.6,0,0,0,0L178.4,254.9z M183.7,260.2c0.1-0.2,0.1-0.5,0.2-0.7l1.4-4.6c0,0,0-0.1,0.1-0.1c0.9,0,1.8,0,2.7,0l0,0
			L183.7,260.2L183.7,260.2z M181.6,254.9h3.1c-0.5,1.7-1,3.3-1.5,5C182.7,258.2,182.2,256.6,181.6,254.9z M185.6,254.3
			c0.5-0.9,1-1.7,1.5-2.6l1.1,2.6H185.6z M181.8,254.3l1.4-2.4l1.4,2.4H181.8z M178.2,254.3c0.4-0.9,0.7-1.7,1.1-2.6l1.5,2.6H178.2z
			 M179.8,251.4h3.1l-1.6,2.7C180.8,253.2,180.3,252.3,179.8,251.4z M185.1,254l-1.5-2.5c0,0,0,0,0-0.1h3.1c0,0,0,0,0,0.1L185.1,254
			L185.1,254L185.1,254z"/>
	</g>
</g>
<g id="Component_36_1" transform="translate(704)">
	<g id="Group_5737" transform="translate(-162 -47)">
		<g id="Group_4091-2" transform="translate(162 47)">
			<circle id="Ellipse_93-2" class="st13" cx="8" cy="8" r="8"/>
		</g>
	</g>
	<g id="Component_1_1" transform="translate(5 1)">
		<text transform="matrix(1 0 0 1 0 11)" class="st24 st30 st31">P</text>
	</g>
</g>
<g id="Component_34_1" transform="translate(720)">
	<g id="Group_5738" transform="translate(-162 -47)">
		<g id="Group_4091-3" transform="translate(162 47)">
			<circle id="Ellipse_93-3" class="st13" cx="8" cy="8" r="8"/>
		</g>
	</g>
	<g id="Component_33_1" transform="translate(5 1)">
		<text transform="matrix(1 0 0 1 0 11)" class="st24 st30 st31">R</text>
	</g>
</g>
<g id="Component_35_1" transform="translate(736)">
	<g id="Group_5739" transform="translate(-162 -47)">
		<g id="Group_4091-4" transform="translate(162 47)">
			<circle id="Ellipse_93-4" class="st32" cx="8" cy="8" r="8"/>
		</g>
	</g>
	<text transform="matrix(1 0 0 1 5 12)" class="st24 st30 st31">S</text>
</g>
<g id="Group_5938" transform="translate(-959 -252)">
	<rect id="Rectangle_2796" x="1711" y="252" class="st33" width="16" height="16"/>
	<g id="mobile_icon" transform="translate(1714.38 252)">
		<g id="Group_2" transform="translate(0)">
			<g id="Group_1" transform="translate(0)">
				<path id="Subtraction_2" class="st34" d="M1.1,15.6c-0.1,0-0.3,0-0.4-0.1c-0.2-0.1-0.4-0.3-0.6-0.5C0,14.9,0,14.8,0,14.6V1
					c0-0.1,0-0.2,0.1-0.3c0-0.1,0.1-0.2,0.1-0.3c0.1-0.1,0.1-0.1,0.2-0.2S0.6,0.1,0.7,0c0.1,0,0.2,0,0.4,0H8c0.1,0,0.3,0,0.4,0.1
					c0.1,0.1,0.2,0.1,0.3,0.2s0.2,0.2,0.2,0.4C9,0.8,9,1,9,1.1v0.1l0,0l0,0c0,1.1,0,2.2,0,3.3s0,2.2,0,3.3c0,2.2,0,4.4,0,6.6
					c0,0.1,0,0.3,0,0.4c0,0.1-0.1,0.2-0.1,0.3c-0.1,0.1-0.1,0.2-0.2,0.3c-0.1,0.1-0.2,0.1-0.3,0.2c-0.1,0.1-0.3,0.1-0.4,0.1H1.2
					C1.1,15.6,1.1,15.6,1.1,15.6z M1.3,0.7c-0.2,0-0.3,0-0.4,0.2C0.8,1,0.7,1.2,0.7,1.4c0,1.6,0,3.2,0,4.7l0,0c0,0.5,0,1.1,0,1.7
					c0,0.5,0,1.1,0,1.6v0.1c0,1.6,0,3.2,0,4.8c0,0.2,0,0.3,0.2,0.5C1,14.9,1,14.9,1.1,14.9s0.2,0,0.2,0l0,0c0.3,0,0.6,0,0.9,0h5.5
					c0.2,0,0.5-0.1,0.6-0.3c0-0.1,0-0.2,0-0.3l0,0l0,0l0,0l0,0c0-3.4,0-6.8,0-9.7c0-0.2,0-0.4,0-0.7V3.7c0-0.8,0-1.5,0-2.3
					c0-0.2,0-0.3-0.1-0.4C8,0.8,7.9,0.7,7.7,0.8H7.6H7.3c-0.1,0-0.2,0-0.3,0l0,0H6.9l0,0H6.8c-0.1,0-0.1,0-0.2,0.1s0,0.2,0,0.3
					s0,0.1,0,0.2v0.1c0,0.2-0.1,0.4-0.2,0.5C6.2,1.9,6,2,5.8,2C5.4,2,5,2,4.6,2c-0.5,0-1,0-1.4,0C3.1,2,3,2,2.9,1.9
					c-0.1,0-0.2-0.1-0.2-0.1C2.6,1.7,2.5,1.5,2.5,1.3c0-0.1,0-0.3,0-0.4V0.8H2.4l0,0c-0.2,0-0.3,0-0.5,0C1.6,0.8,1.5,0.8,1.3,0.7
					L1.3,0.7z M3.5,0.7c-0.4,0-0.4,0-0.4,0.3l0,0v0.1h0.1l0,0c0.3,0,0.6,0,1,0h1.1c0.2,0,0.3,0,0.3,0s0-0.1,0-0.3l0,0
					c0-0.1,0-0.1-0.1-0.1l0,0c-0.2,0-0.3,0-0.6,0H3.5L3.5,0.7z"/>
				<path id="Path_3" class="st35" d="M8.9,15.8L8.9,15.8z"/>
				<path id="Path_6" class="st36" d="M9.2,15.8L9.2,15.8z"/>
			</g>
		</g>
	</g>
</g>
<g id="Group_6122">
	<rect id="Rectangle_2978" x="768" class="st33" width="16" height="16"/>
	<g id="Icon_feather-settings" transform="translate(761 -7.176)">
		<path id="Path_2744" class="st37" d="M17.5,15.3c0,1.2-1,2.1-2.1,2.1c-1.2,0-2.1-1-2.1-2.1s1-2.1,2.1-2.1l0,0
			C16.5,13.2,17.5,14.2,17.5,15.3z"/>
		<path id="Path_2745" class="st23" d="M19.9,17.2c-0.2,0.4-0.1,0.9,0.2,1.2l0,0c0.5,0.5,0.5,1.3,0,1.8s-1.3,0.5-1.8,0l0,0
			c-0.4-0.4-1.1-0.4-1.5,0c-0.2,0.2-0.3,0.5-0.3,0.7V21c0,0.7-0.6,1.3-1.3,1.3s-1.3-0.6-1.3-1.3v-0.1c0-0.6-0.6-1.1-1.2-1
			c-0.3,0-0.5,0.1-0.7,0.3l0,0c-0.5,0.5-1.3,0.5-1.8,0s-0.5-1.3,0-1.8l0,0c0.4-0.4,0.4-1.1,0-1.5c-0.2-0.2-0.5-0.3-0.7-0.3H9.4
			c-0.7,0-1.3-0.6-1.3-1.3S8.7,14,9.4,14h0.1c0.6,0,1.1-0.6,1-1.2c0-0.3-0.1-0.5-0.3-0.7l0,0c-0.5-0.5-0.6-1.3-0.1-1.8
			s1.3-0.6,1.8-0.1c0,0,0.1,0,0.1,0.1l0,0c0.3,0.3,0.8,0.4,1.2,0.2h0.1c0.4-0.2,0.6-0.5,0.6-1l0,0c0-0.7,0.6-1.3,1.3-1.3
			s1.3,0.6,1.3,1.3v0.1c0,0.6,0.5,1.1,1.1,1.1c0.3,0,0.5-0.1,0.7-0.3l0,0c0.5-0.5,1.3-0.5,1.8,0s0.5,1.3,0,1.8l0,0l0,0
			c-0.3,0.3-0.4,0.8-0.2,1.2v0.1c0.2,0.4,0.5,0.6,1,0.6H21c0.7,0,1.3,0.6,1.3,1.3c0,0.7-0.6,1.3-1.3,1.3h-0.1
			C20.4,16.5,20,16.8,19.9,17.2L19.9,17.2z"/>
	</g>
</g>
<g id="Group_6123">
	<rect id="Rectangle_2979" x="784" class="st33" width="16" height="16"/>
	<g id="Icon_feather-log-out" transform="translate(779.8 -9.981)">
		<path id="Path_2741" class="st38" d="M11.2,24.7H8.3c-0.8,0-1.5-0.7-1.5-1.5l0,0V13c0-0.8,0.7-1.5,1.5-1.5l0,0h2.9"/>
		<path id="Path_2742" class="st39" d="M15.3,21.3l3.2-3.2l-3.2-3.2"/>
		<path id="Path_2743" class="st39" d="M17,18.1h-5.4"/>
	</g>
</g>
<g id="Group_6174" transform="translate(16)">
	<rect id="Rectangle_2979-2" x="784" class="st33" width="16" height="16"/>
	<g id="Group_6175" transform="translate(784)">
		<path id="Path_1638" class="st13" d="M1.9,9.3l6.7-6.7L13,7.1l-0.1,0.1l-6.4,6.4c-0.2,0.2-0.2,0.2-0.3,0
			C4.8,12.2,3.4,10.8,1.9,9.3C2,9.4,2,9.3,1.9,9.3z"/>
		<path id="Path_1639" class="st13" d="M14.2,5.9L9.8,1.5c0.5-0.7,1.2-1.2,2.1-1.4c1.7-0.4,3.3,0.7,3.7,2.3v0.1c0.2,1-0.1,2-0.8,2.8
			C14.6,5.5,14.4,5.7,14.2,5.9z"/>
		<path id="Path_1640" class="st13" d="M4.9,14.6L3,15.1c-0.7,0.2-1.4,0.3-2,0.5c-0.4,0.1-0.8-0.1-0.9-0.5c0-0.1,0-0.3,0-0.4
			c0.3-1.3,0.6-2.6,1-3.9v-0.1L4.9,14.6z"/>
	</g>
</g>
<g id="edit" transform="translate(817.074 0.985)">
	<path id="Path_2083" class="st40" d="M10.4,0.6c0.8-0.8,2.1-0.8,3,0c0.8,0.8,0.8,2.1,0,3L3.9,13L0,14l1-4L10.4,0.6z"/>
</g>
<rect id="Rectangle_2979-3" x="816" class="st33" width="16" height="16"/>
<g id="Group_6187" transform="translate(52)">
	<rect id="Rectangle_2979-4" x="780" class="st33" width="16" height="16"/>
</g>
<g id="Group_6188" transform="translate(68)">
	<rect id="Rectangle_2979-5" x="780" class="st33" width="16" height="16"/>
</g>
<g id="Group_6194" transform="translate(84)">
	<rect id="Rectangle_2979-6" x="780" class="st33" width="16" height="16"/>
</g>
<g id="Group_6195" transform="translate(100)">
	<rect id="Rectangle_2979-7" x="780" class="st33" width="16" height="16"/>
</g>
<g id="Group_6196" transform="translate(116)">
	<rect id="Rectangle_2979-8" x="780" class="st33" width="16" height="16"/>
</g>
<line id="Line_312" class="st41" x1="859" y1="2.5" x2="853" y2="12.5"/>
<g id="Ellipse_223" transform="translate(839 6)">
	<ellipse class="st0" cx="1" cy="1.5" rx="1" ry="1.5"/>
	<ellipse class="st42" cx="1" cy="1.5" rx="0.5" ry="1"/>
</g>
<g id="Ellipse_225" transform="translate(855 6)">
	<ellipse class="st0" cx="1" cy="1.5" rx="1" ry="1.5"/>
	<ellipse class="st42" cx="1" cy="1.5" rx="0.5" ry="1"/>
</g>
<path id="Path_2747" class="st43" d="M847.9,7.4c-0.1-0.1-0.2-0.2-0.2-0.3c-1-1.1-2.1-2-3.3-2.8c-1.2-0.7-2.5-1.2-3.8-1.3
	c-1-0.1-2,0.1-2.9,0.4c-1.6,0.6-3,1.5-4.2,2.7c-0.4,0.4-0.9,0.8-1.3,1.3c-0.1,0.2-0.1,0.4,0,0.6c0.1,0.1,0.1,0.2,0.2,0.2
	c0.9,1.1,2.1,2,3.3,2.8c1.3,0.9,2.8,1.3,4.4,1.4c0.9,0,1.9-0.2,2.7-0.5c1.5-0.6,2.9-1.5,4.1-2.7c0.4-0.4,0.8-0.8,1.1-1.2
	C848,7.8,848,7.6,847.9,7.4z M846.9,7.7c-0.8,0.9-1.8,1.6-2.8,2.3l0,0c-2.3,1.6-5.3,1.7-7.7,0.3l0,0c-0.1-0.1-0.2-0.1-0.3-0.2
	c-1.1-0.7-2.1-1.5-3-2.4c0,0-0.1-0.1,0-0.1c0.9-1,1.9-1.8,3.1-2.5l0,0c2-1.3,4.5-1.5,6.6-0.5h0.1l0.1,0.1l0,0
	c0.5,0.2,0.9,0.5,1.3,0.7l0,0C845.2,6,846.1,6.7,846.9,7.7C847,7.6,847,7.7,846.9,7.7L846.9,7.7z"/>
<path id="Path_2748" class="st43" d="M863.9,7.4c-0.1-0.1-0.2-0.2-0.2-0.3c-1-1.1-2.1-2-3.3-2.8c-1.2-0.7-2.5-1.2-3.8-1.3
	c-1-0.1-2,0.1-2.9,0.4c-1.6,0.6-3,1.5-4.2,2.7c-0.4,0.4-0.9,0.8-1.3,1.3c-0.1,0.2-0.1,0.4,0,0.6c0.1,0.1,0.1,0.2,0.2,0.2
	c0.9,1.1,2.1,2,3.3,2.8c1.3,0.9,2.8,1.3,4.4,1.4c0.9,0,1.9-0.2,2.7-0.5c1.5-0.6,2.9-1.5,4.1-2.7c0.4-0.4,0.8-0.8,1.1-1.2
	C864,7.8,864,7.6,863.9,7.4z M862.9,7.7c-0.8,0.9-1.8,1.6-2.8,2.3l0,0c-2.3,1.6-5.3,1.7-7.7,0.3l0,0c-0.1-0.1-0.2-0.1-0.3-0.2
	c-1.1-0.7-2.1-1.5-3-2.4c0,0-0.1-0.1,0-0.1c0.9-1,1.9-1.8,3.1-2.5l0,0c2-1.3,4.5-1.5,6.6-0.5h0.1l0.1,0.1l0,0
	c0.5,0.2,0.9,0.5,1.3,0.7l0,0C861.2,6,862.1,6.7,862.9,7.7C863,7.6,863,7.7,862.9,7.7L862.9,7.7z"/>
<g id="Ellipse_224" transform="translate(836 3)">
	<ellipse class="st0" cx="4" cy="4.5" rx="4" ry="4.5"/>
	<ellipse class="st42" cx="4" cy="4.5" rx="3.5" ry="4"/>
</g>
<g id="Ellipse_226" transform="translate(852 3)">
	<ellipse class="st0" cx="4" cy="4.5" rx="4" ry="4.5"/>
	<ellipse class="st42" cx="4" cy="4.5" rx="3.5" ry="4"/>
</g>
<g id="icons" transform="translate(259 -1053)">
	<path id="check" class="st44" d="M613,1053c-4.4,0-8,3.6-8,8s3.6,8,8,8s8-3.6,8-8S617.4,1053,613,1053z M617.6,1059.2l-5.6,5.6
		c-0.3,0.3-0.8,0.3-1.1,0l-2.4-2.4c-0.3-0.3-0.3-0.8,0-1.1s0.8-0.3,1.1,0l0,0l1.8,1.8l5-5c0.3-0.3,0.8-0.3,1.1,0
		S617.9,1058.8,617.6,1059.2C617.6,1059.1,617.6,1059.2,617.6,1059.2L617.6,1059.2z"/>
</g>
<path id="rejected" class="st45" d="M887.2,10.4h1.6V12h-1.6V10.4z M887.2,4h1.6v4.8h-1.6V4z M888,0c-4.4,0-8,3.6-8,8s3.6,8,8,8
	s8-3.6,8-8S892.4,0,888,0L888,0z M888,14.4c-3.5,0-6.4-2.9-6.4-6.4s2.9-6.4,6.4-6.4s6.4,2.9,6.4,6.4l0,0
	C894.4,11.5,891.5,14.4,888,14.4z"/>
<path id="pending" class="st46" d="M909.2,0h-10.5c-0.4,0-0.8,0.3-0.8,0.8v0.5c0,0.4,0.3,0.8,0.8,0.8c-0.1,2.6,1.4,5,3.8,6
	c-2.4,1-3.9,3.4-3.8,6c-0.4,0-0.8,0.3-0.8,0.8v0.5c0,0.4,0.3,0.8,0.8,0.8h10.5c0.4,0,0.8-0.3,0.8-0.8v-0.5c0-0.4-0.3-0.8-0.8-0.8
	c0.1-2.6-1.4-5-3.8-6c2.4-1,3.9-3.4,3.8-6c0.4,0,0.8-0.3,0.8-0.8V0.8C910,0.3,909.7,0,909.2,0z M906.9,12h-5.8
	c0.3-1.4,1.5-2.4,2.9-2.5C905.4,9.6,906.6,10.6,906.9,12z M906.9,4h-5.8c-0.2-0.6-0.4-1.3-0.3-2h6.5C907.3,2.7,907.1,3.4,906.9,4z"
	/>
</svg>
