<?xml version="1.0" encoding="utf-8"?>
<!-- Generator: Adobe Illustrator 26.3.1, SVG Export Plug-In . SVG Version: 6.00 Build 0)  -->
<svg version="1.1" id="Layer_1" xmlns="http://www.w3.org/2000/svg" xmlns:xlink="http://www.w3.org/1999/xlink" x="0px" y="0px"
	 width="612px" height="36px" viewBox="0 0 612 36" style="enable-background:new 0 0 612 36;" xml:space="preserve">
<style type="text/css">
	.st0{clip-path:url(#SVGID_00000146464107699567973500000017616230588613739916_);}
	.st1{fill:none;}
	.st2{fill:none;stroke:#333333;stroke-width:1.5;stroke-linecap:round;}
	.st3{opacity:1.000000e-03;fill:#C7C7C7;enable-background:new    ;}
	.st4{fill:#D9BDB1;}
	.st5{fill:#0D0C09;}
	.st6{fill:#FFFFFF;}
	.st7{fill:#D9BDB1;stroke:#000000;stroke-width:2.5;}
	.st8{fill:#F8F8F7;}
	.st9{fill:#B9AA79;}
	.st10{fill:none;stroke:#0D0C09;stroke-linecap:round;}
	.st11{fill:#D9BDB1;stroke:#000000;stroke-miterlimit:10;}
	.st12{fill:none;stroke:#000000;stroke-miterlimit:10;}
	.st13{clip-path:url(#SVGID_00000098183849537516976340000003907281491912075959_);}
	.st14{fill:#FFFFFF;fill-opacity:0;}
	.st15{fill:none;stroke:#FFFFFF;stroke-width:0.7;}
	.st16{fill:none;stroke:#FFFFFF;stroke-width:2;stroke-linecap:round;}
	.st17{fill:none;stroke:#000000;stroke-width:2;}
</style>
<g>
	<g>
		<defs>
			<rect id="SVGID_1_" width="612" height="36"/>
		</defs>
		<clipPath id="SVGID_00000114787922563767438320000014406820839955989649_">
			<use xlink:href="#SVGID_1_"  style="overflow:visible;"/>
		</clipPath>
		<g id="_36x36_icons" style="clip-path:url(#SVGID_00000114787922563767438320000014406820839955989649_);">
			<g id="Group_3410" transform="translate(-30 -130)">
				<rect id="Rectangle_166" x="30" y="130" class="st1" width="36" height="36"/>
				<rect id="Rectangle_215" x="35.6" y="135.6" class="st1" width="18" height="18"/>
				<path id="Path_444" d="M58.6,157.2l-4-4c3.2-4,2.6-9.9-1.4-13.1c-4-3.2-9.9-2.6-13.1,1.4s-2.6,9.9,1.4,13.1
					c3.4,2.8,8.3,2.8,11.7,0l4,4L58.6,157.2z M47.3,154.7c-4.1,0-7.3-3.3-7.3-7.3s3.3-7.3,7.3-7.3c4.1,0,7.3,3.3,7.3,7.3
					C54.7,151.4,51.4,154.7,47.3,154.7z"/>
			</g>
			<g id="Group_3409" transform="translate(-30 -130)">
				<path id="Path_481" class="st1" d="M66,130h36v36H66V130z"/>
				<line id="Line_75" class="st2" x1="76.5" y1="140.5" x2="91.5" y2="155.5"/>
				<line id="Line_76" class="st2" x1="91.5" y1="140.5" x2="76.5" y2="155.5"/>
			</g>
			<g id="Group_3408" transform="translate(-30 -130)">
				<path id="Path_482" class="st3" d="M102,130h36v36h-36V130z"/>
				<g id="Group_2185" transform="translate(105 133.773)">
					<path id="Path_436" class="st4" d="M6,2h18.4l4,10H1.6L6,2z"/>
					<g id="Group_753">
						<path id="Path_405" d="M29.8,10.5C29.8,10.4,29.8,10.4,29.8,10.5l-3.2-8.2C26.1,0.9,24.7,0,23.3,0H7.1l0,0
							C5.6,0,4.3,0.8,3.7,2.2l-3.5,8.2c0,0,0,0,0,0.1c-0.3,0.9-0.2,1.9,0.3,2.7c0.6,0.7,1.5,1.1,2.4,1c1.3,0,2.5-0.5,3.6-1.2
							c0.4-0.3,0.8-0.5,1.2-0.6c0.2,0,0.3,0,0.7,0.4C9,13.6,10,14,11,14c1.1,0,2.1-0.4,2.9-1c0.3-0.2,0.7-0.4,1.1-0.5
							c0.4,0.1,0.8,0.3,1.2,0.6c0.8,0.6,1.8,1,2.8,1l0,0c1,0,1.9-0.5,2.6-1.2c0.4-0.4,0.7-0.5,0.9-0.5c0.2,0,0.4,0.1,0.6,0.2v0.1V25
							c0,0.3-0.1,0.6-0.3,0.8c-0.2,0.2-0.5,0.3-0.8,0.3l0,0H8.3c-0.6,0-1.1-0.5-1.1-1.1l0,0c0-0.7-0.6-1.2-1.2-1.2
							c-0.7,0-1.2,0.5-1.2,1.2c0,2,1.6,3.5,3.6,3.5H22l0,0c1,0,1.9-0.4,2.6-1s1.1-1.5,1.1-2.5V14c0.5,0.2,1,0.2,1.4,0.2
							c0.9,0.1,1.8-0.3,2.4-1C30,12.4,30.1,11.4,29.8,10.5z M27.5,11.7c-0.1,0.1-0.3,0.1-0.4,0.1c-0.7-0.1-1.4-0.3-2-0.8
							c-0.7-0.6-1.6-0.9-2.5-1l0,0c-0.9,0-1.8,0.4-2.5,1.1c-0.5,0.4-0.7,0.6-1,0.6l0,0c-0.5-0.1-1.1-0.3-1.5-0.6
							c-0.7-0.5-1.6-0.9-2.5-0.9s-1.7,0.3-2.4,0.8c-0.5,0.4-1,0.6-1.6,0.6c-0.4,0-0.5-0.1-1-0.5C9.4,10.4,8.6,10,7.6,10
							c-0.9,0.1-1.8,0.4-2.6,0.9c-0.6,0.5-1.4,0.8-2.2,0.8c-0.1,0-0.3,0-0.4,0c0-0.2,0-0.3,0-0.5L6,3.1c0.2-0.4,0.6-0.7,1.1-0.7l0,0
							h16.2c0.5,0,0.9,0.3,1.1,0.7l3.2,8.1C27.5,11.4,27.5,11.6,27.5,11.7L27.5,11.7z"/>
					</g>
					<path id="Path_435" class="st4" d="M7.2,21.2c-0.5,0.5-0.5,1.2,0,1.7l0,0c0.2,0.2,0.5,0.4,0.8,0.4s0.6-0.1,0.8-0.4l3.3-3.3
						c0.2-0.2,0.4-0.5,0.4-0.8s-0.1-0.6-0.4-0.8l-3.3-3.3c-0.5-0.5-1.2-0.5-1.7,0l0,0c-0.5,0.5-0.5,1.2,0,1.7l0,0l1.2,1.2H2.5
						c-0.7,0-1.2,0.5-1.2,1.2l0,0c0,0.7,0.5,1.2,1.2,1.2l0,0h5.9L7.2,21.2z"/>
				</g>
			</g>
			<g id="Group_3407" transform="translate(-30 -130)">
				<path id="Path_483" class="st1" d="M138,130h36v36h-36V130z"/>
				<g id="Group_3283" transform="translate(-564.021 -343.998)">
					<path id="Path_439" class="st4" d="M712.1,479.2h16.4c1,0,1.9,0.6,2.2,1.5l3.2,8.1c0.3,0.8,0,1.7-0.8,2
						c-0.3,0.1-0.6,0.2-0.8,0.1c-2,0-3.1-1.8-4.6-1.8s-2,1.7-3.6,1.7s-2.7-1.6-4.1-1.6s-2.3,1.5-4.1,1.5s-1.8-1.6-3.4-1.6
						s-2.5,1.8-4.8,1.8s-1.5-2.1-1.5-2.1l3.5-8.2C710.3,479.7,711.1,479.2,712.1,479.2z"/>
					<path id="Path_440" d="M735.1,488.4L735.1,488.4l-3.3-8.2c-0.6-1.4-1.9-2.2-3.3-2.2h-16.4l0,0c-1.4,0-2.7,0.8-3.3,2.1l-3.5,8.2
						c0,0,0,0,0,0.1c-0.3,0.9-0.3,1.9,0.2,2.7c0.6,0.7,1.5,1.2,2.4,1.1c0.6,0,1.1-0.1,1.6-0.3v11l0,0l0,0c0.1,2,1.7,3.5,3.7,3.4
						h14.2h0.1c1.9,0,3.5-1.5,3.6-3.4l0,0V492c0.4,0.1,0.9,0.2,1.3,0.2c0.9,0.1,1.9-0.3,2.4-1.1
						C735.3,490.3,735.4,489.3,735.1,488.4z M728.6,502.8c0,0.6-0.6,1.1-1.2,1.1h-0.1h-14.2l0,0c-0.6,0-1.2-0.5-1.2-1.1v-12.2
						c0.2-0.2,0.5-0.3,0.8-0.3s0.4,0.1,0.7,0.4c0.7,0.7,1.6,1.1,2.6,1.1s2.1-0.4,2.9-1c0.3-0.3,0.7-0.4,1.1-0.5
						c0.5,0.1,0.9,0.3,1.3,0.6c0.8,0.6,1.8,0.9,2.8,1l0,0c1,0,1.9-0.5,2.6-1.1c0.5-0.4,0.7-0.5,0.9-0.5c0.3,0,0.6,0.2,0.9,0.4
						L728.6,502.8z M732.8,489.6c-0.2,0.1-0.3,0.1-0.5,0.1c-0.8-0.1-1.5-0.3-2.1-0.8c-0.7-0.6-1.6-0.9-2.5-1l0,0
						c-0.9,0-1.8,0.4-2.4,1.1c-0.5,0.4-0.7,0.6-1.1,0.6l0,0c-0.6-0.1-1.1-0.3-1.6-0.6c-0.7-0.5-1.6-0.8-2.5-0.9
						c-0.9,0-1.7,0.3-2.4,0.8c-0.5,0.4-1.1,0.6-1.7,0.6c-0.5,0-0.6-0.2-1-0.5c-0.6-0.7-1.5-1-2.4-1.1c-0.9,0.1-1.8,0.4-2.5,0.9
						s-1.5,0.8-2.3,0.8c-0.1,0-0.3,0-0.4-0.1c0-0.2,0-0.3,0-0.4l3.5-8.1c0.2-0.4,0.6-0.7,1.1-0.7l0,0h16.4l0,0
						c0.5,0,0.9,0.3,1.1,0.7l3.2,8C732.9,489.3,732.9,489.5,732.8,489.6L732.8,489.6z"/>
					<g id="noun_Refresh_2072320" transform="translate(715.881 493.134)">
						<g id="Group_260">
							<path id="Path_62" class="st4" d="M8.2,1.2L8.2,1.2v0.1v2.2c0,0.1-0.1,0.1-0.1,0.1l0,0l0,0L6,3.1c0,0-0.1,0-0.1-0.1l0,0
								c-0.1-0.1,0-0.2,0-0.3l0.5-0.4c-1-1.2-2.8-1.3-4-0.2c-0.5,0.5-0.8,1-0.9,1.6C1.4,4,1.1,4.3,0.7,4.2l0,0C0.3,4.2,0,3.9,0,3.5
								c0-0.1,0-0.1,0-0.2C0.6,1,2.9-0.4,5.3,0.1C6.2,0.3,7,0.8,7.6,1.5L8,1.1C8.1,1.1,8.2,1.1,8.2,1.2z"/>
							<path id="Path_63" class="st4" d="M0.3,7.7L0.3,7.7L0.3,7.7V5.4c0-0.1,0.1-0.1,0.1-0.1l0,0l0,0l2.1,0.5c0,0,0.1,0,0.1,0.1
								l0,0c0.1,0.1,0,0.2,0,0.3L2.2,6.4c1,1.2,2.8,1.3,4,0.2C6.6,6.2,6.9,5.7,7,5.2c0.1-0.3,0.4-0.6,0.8-0.6l0,0
								c0.4,0,0.7,0.4,0.7,0.8c0,0.1,0,0.1,0,0.2C7.9,7.9,5.6,9.3,3.3,8.7C2.4,8.5,1.6,8,1,7.3L0.5,7.7C0.5,7.8,0.3,7.8,0.3,7.7z"/>
						</g>
					</g>
				</g>
			</g>
			<g id="Group_3406" transform="translate(-30 -130)">
				<path id="Path_484" class="st1" d="M174,130h36v36h-36V130z"/>
				<g id="Group_3284" transform="translate(-637.027 -334.998)">
					<path id="Path_441" class="st4" d="M839.3,471.6l3.5,8.2c0,0,0.8,2.1-1.5,2.1s-3.3-1.8-4.8-1.8s-1.6,1.6-3.4,1.6
						s-2.7-1.5-4-1.5s-2.5,1.6-4,1.6s-2.1-1.7-3.6-1.7s-2.5,1.8-4.6,1.8c-0.8,0.1-1.6-0.5-1.7-1.3c0-0.3,0-0.6,0.1-0.8l3.2-8.1
						c0.4-0.9,1.3-1.5,2.2-1.5h16.4C838.1,470.2,838.9,470.7,839.3,471.6z"/>
					<path id="Path_442" d="M844,479.3L844,479.3l-3.5-8.2l0,0c-0.6-1.3-1.9-2.1-3.3-2.1h-16.3l0,0c-1.5,0-2.8,0.9-3.3,2.2l-3.2,8.1
						c0,0,0,0,0,0.1c-0.3,0.9-0.2,1.8,0.3,2.6c0.6,0.7,1.5,1.1,2.4,1.1c0.4,0,0.9-0.1,1.3-0.2v10.9l0,0c0.1,1.9,1.6,3.4,3.6,3.4h0.1
						h14.2c2,0.1,3.6-1.5,3.7-3.4c0-0.7-0.5-1.2-1.1-1.2c-0.7,0-1.2,0.5-1.2,1.1s-0.6,1.2-1.2,1.1l0,0h-14.2l0,0
						c-0.6,0-1.2-0.5-1.2-1.1v-12.1c0.3-0.2,0.6-0.3,0.9-0.4c0.2,0,0.5,0.2,0.9,0.5c0.7,0.7,1.6,1.1,2.6,1.1l0,0c1-0.1,2-0.4,2.8-1
						c0.4-0.3,0.8-0.5,1.3-0.6c0.4,0.1,0.8,0.2,1.1,0.5c0.9,0.6,1.9,0.9,2.9,1c1,0,2-0.4,2.6-1.1c0.4-0.4,0.5-0.4,0.7-0.4
						c0.5,0.1,0.9,0.3,1.3,0.6c1,0.7,2.3,1.1,3.5,1.2c0.9,0.1,1.8-0.3,2.4-1.1C844.2,481.2,844.3,480.2,844,479.3z M841.8,480.6
						c-0.1,0-0.3,0.1-0.4,0.1c-0.8,0-1.6-0.3-2.3-0.8s-1.6-0.9-2.5-0.9s-1.7,0.4-2.3,1.1c-0.4,0.4-0.6,0.5-1,0.5
						c-0.6,0-1.2-0.3-1.7-0.6c-0.7-0.5-1.5-0.8-2.4-0.8c-0.9,0.1-1.8,0.4-2.5,0.9c-0.5,0.3-1,0.6-1.6,0.6l0,0
						c-0.4,0-0.6-0.2-1.1-0.6c-0.7-0.6-1.5-1-2.4-1.1l0,0c-0.9,0.1-1.8,0.4-2.5,1c-0.6,0.5-1.3,0.8-2.1,0.8c-0.2,0-0.3,0-0.5-0.1
						c0-0.2,0-0.3,0-0.5l3.2-8c0.2-0.5,0.6-0.8,1.1-0.7h16.4c0.5,0,0.9,0.3,1.1,0.7l3.5,8.1C841.8,480.3,841.8,480.5,841.8,480.6
						L841.8,480.6z"/>
					<path id="Path_443" class="st4" d="M842.9,486.8l-3.3-3.3c-0.5-0.5-1.2-0.5-1.7,0s-0.5,1.2,0,1.7l0,0l1.2,1.2H833
						c-0.7,0-1.2,0.5-1.2,1.2s0.5,1.2,1.2,1.2h6.2L838,490c-0.5,0.5-0.5,1.2,0,1.7s1.2,0.5,1.7,0l3.3-3.3
						C843.4,488,843.4,487.2,842.9,486.8L842.9,486.8z"/>
				</g>
			</g>
			<g id="Group_4281" transform="translate(180)">
				<rect id="Rectangle_791" class="st1" width="36" height="36"/>
				<g id="Group_4265" transform="translate(8.444 3.956)">
					<g id="Path_629" transform="translate(0 0)">
						<path class="st4" d="M9.5,27c-0.3-0.2-0.8-0.7-1.8-2.1c-0.9-1.4-2-3.2-3-5.1C2.4,15.5,1,11.5,1,9.5C1,4.8,4.8,1,9.5,1
							S18,4.8,18,9.5c0,2-1.4,6-3.7,10.3c-1,1.9-2,3.7-3,5.1S9.7,26.8,9.5,27z"/>
						<path class="st5" d="M9.5,2C5.3,2,2,5.3,2,9.5C2,11.2,3.3,15,5.4,19c1.7,3.3,3.2,5.5,4.1,6.6c0.9-1.1,2.4-3.3,4.1-6.6
							c2-4,3.4-7.7,3.4-9.5C16.9,5.3,13.6,2,9.5,2 M9.5,0C14.7,0,19,4.2,19,9.5c0,5.2-7.6,18.6-9.5,18.6S0,14.7,0,9.5
							C0,4.2,4.2,0,9.5,0z"/>
					</g>
					<g id="Path_703" transform="translate(4.979 4.033)">
						<path class="st6" d="M4.5,7.9C2.6,7.9,1,6.4,1,4.5S2.6,1,4.5,1S8,2.6,8,4.5S6.4,7.9,4.5,7.9z"/>
						<path class="st5" d="M4.5,2C3.1,2,2,3.1,2,4.5S3.1,7,4.5,7S7,5.9,7,4.5S5.8,2,4.5,2 M4.5,0C7,0,9,2,9,4.5S7,9,4.5,9
							S0,6.9,0,4.5S2,0,4.5,0z"/>
					</g>
				</g>
			</g>
			<g id="Group_4550" transform="translate(216)">
				<rect id="Rectangle_791-2" class="st1" width="36" height="36"/>
				<path id="Path_2109" class="st7" d="M18.4,10.8c2.8,0,5.2,2.3,5.2,5.2s-2.3,5.2-5.2,5.2s-5.2-2.3-5.2-5.2l0,0
					C13.2,13.1,15.5,10.8,18.4,10.8z M18.4,3C11.3,3,5.5,8.8,5.5,15.9s10.3,18,12.9,18s12.9-10.9,12.9-18S25.5,3,18.4,3z"/>
			</g>
			<g id="Group_4556" transform="translate(252)">
				<rect id="Rectangle_791-3" class="st1" width="36" height="36"/>
				<g id="Group_4557" transform="translate(-1039.706 -262.576)">
					<path id="Path_645" d="M1068.5,268l-19.9-4.9c-0.1,0-0.3,0-0.4,0c-1.2,0-2.1,1-2.1,2.1V298h24.2v-28
						C1070.2,269,1069.5,268.2,1068.5,268z M1068.5,296.2h-20.7v-31c0-0.2,0.2-0.4,0.4-0.4c0,0,0,0,0.1,0l19.9,4.9h0.1
						c0.2,0,0.3,0.2,0.3,0.4L1068.5,296.2z"/>
					<path id="Path_646" class="st4" d="M1068.5,270v26.1h-20.7v-31c0-0.2,0.2-0.4,0.4-0.4c0,0,0,0,0.1,0l19.9,4.9h0.1
						C1068.3,269.7,1068.5,269.9,1068.5,270z"/>
					<path id="Rectangle_631" class="st6" d="M1050.5,271.1h3c0.3,0,0.5,0.2,0.5,0.5v3c0,0.3-0.2,0.5-0.5,0.5h-3
						c-0.3,0-0.5-0.2-0.5-0.5v-3C1050,271.3,1050.3,271.1,1050.5,271.1z"/>
					<path id="Rectangle_632" class="st6" d="M1056.6,271.1h3c0.3,0,0.5,0.2,0.5,0.5v3c0,0.3-0.2,0.5-0.5,0.5h-3
						c-0.3,0-0.5-0.2-0.5-0.5v-3C1056.1,271.3,1056.3,271.1,1056.6,271.1z"/>
					<path id="Rectangle_633" class="st6" d="M1062.7,271.1h3c0.3,0,0.5,0.2,0.5,0.5v3c0,0.3-0.2,0.5-0.5,0.5h-3
						c-0.3,0-0.5-0.2-0.5-0.5v-3C1062.2,271.3,1062.4,271.1,1062.7,271.1z"/>
					<path id="Rectangle_631-2" class="st6" d="M1050.5,277.1h3c0.3,0,0.5,0.2,0.5,0.5v3c0,0.3-0.2,0.5-0.5,0.5h-3
						c-0.3,0-0.5-0.2-0.5-0.5v-3C1050,277.4,1050.3,277.1,1050.5,277.1z"/>
					<path id="Rectangle_632-2" class="st6" d="M1056.6,277.1h3c0.3,0,0.5,0.2,0.5,0.5v3c0,0.3-0.2,0.5-0.5,0.5h-3
						c-0.3,0-0.5-0.2-0.5-0.5v-3C1056.1,277.4,1056.3,277.1,1056.6,277.1z"/>
					<path id="Rectangle_633-2" class="st6" d="M1062.7,277.1h3c0.3,0,0.5,0.2,0.5,0.5v3c0,0.3-0.2,0.5-0.5,0.5h-3
						c-0.3,0-0.5-0.2-0.5-0.5v-3C1062.2,277.4,1062.4,277.1,1062.7,277.1z"/>
					<path id="Rectangle_631-3" class="st6" d="M1050.5,283.2h3c0.3,0,0.5,0.2,0.5,0.5v3c0,0.3-0.2,0.5-0.5,0.5h-3
						c-0.3,0-0.5-0.2-0.5-0.5v-3C1050,283.4,1050.3,283.2,1050.5,283.2z"/>
					<path id="Rectangle_632-3" class="st6" d="M1056.6,283.2h3c0.3,0,0.5,0.2,0.5,0.5v3c0,0.3-0.2,0.5-0.5,0.5h-3
						c-0.3,0-0.5-0.2-0.5-0.5v-3C1056.1,283.4,1056.3,283.2,1056.6,283.2z"/>
					<path id="Rectangle_633-3" class="st6" d="M1062.7,283.2h3c0.3,0,0.5,0.2,0.5,0.5v3c0,0.3-0.2,0.5-0.5,0.5h-3
						c-0.3,0-0.5-0.2-0.5-0.5v-3C1062.2,283.4,1062.4,283.2,1062.7,283.2z"/>
					<path id="Rectangle_634" class="st6" d="M1054.4,289.3h2.3c0.2,0,0.3,0.1,0.3,0.3v4.7c0,0.2-0.2,0.3-0.3,0.3h-2.3
						c-0.2,0-0.3-0.1-0.3-0.3v-4.7C1054.1,289.4,1054.2,289.2,1054.4,289.3z"/>
					<path id="Rectangle_635" class="st6" d="M1058.5,289.3h2.3c0.2,0,0.3,0.1,0.3,0.3v4.7c0,0.2-0.2,0.3-0.3,0.3h-2.3
						c-0.2,0-0.3-0.1-0.3-0.3v-4.7C1058.1,289.4,1058.3,289.2,1058.5,289.3z"/>
				</g>
			</g>
			<g id="Group_4782" transform="translate(324)">
				<rect id="Rectangle_794" class="st1" width="36" height="36"/>
				<g id="Group_4781" transform="translate(5.854 2.994)">
					<path id="Path_767" class="st4" d="M23.8,4.2v22.6c-0.1,1.8-1.6,3.3-3.4,3.3H4.2c-1.9,0-3.4-1.5-3.4-3.4V4.2
						c0-1.8,1.5-3.3,3.3-3.4h16.4C22.3,0.7,23.8,2.3,23.8,4.2z"/>
					<path id="Path_768" d="M20.4,30.8H4.2c-2.3,0-4.2-1.9-4.2-4.2V4.2C0,1.9,1.8,0.1,4,0h16.4c2.3,0,4.2,1.9,4.2,4.2v22.6
						C24.5,29,22.6,30.8,20.4,30.8z M4.2,1.5L4.2,1.5c-1.6,0-2.7,1.2-2.7,2.7v22.5c0,1.5,1.2,2.7,2.7,2.7h16.2
						c1.4,0,2.6-1.1,2.7-2.6V4.2c0-1.5-1.2-2.7-2.7-2.7C20.4,1.5,4.2,1.5,4.2,1.5z"/>
					<g id="Group_4774" transform="translate(4.038 5.98)">
						<path id="Path_769" class="st8" d="M1.5,4.1L0.2,2.4c-0.3-0.3-0.2-0.8,0.1-1c0.3-0.3,0.8-0.2,1,0.1c0,0,0,0,0,0.1L1.7,2
							l2.5-1.9C4.6-0.1,5,0,5.3,0.3c0.2,0.3,0.2,0.7-0.1,1L1.5,4.1z"/>
					</g>
					<g id="Group_4775" transform="translate(4.038 20.598)">
						<path id="Path_770" class="st8" d="M1.5,4.1L0.2,2.4C0,2.1,0.1,1.6,0.4,1.4s0.7-0.2,1,0.1L1.8,2l2.5-1.9
							c0.3-0.3,0.8-0.2,1,0.1s0.2,0.8-0.1,1c0,0,0,0-0.1,0L1.5,4.1z"/>
					</g>
					<g id="Group_4776" transform="translate(11.124 7.156)">
						<path id="Path_771" class="st8" d="M8.4,1.5H0.7C0.3,1.5,0,1.2,0,0.7S0.3,0,0.7,0h7.6C8.7,0,9,0.3,9,0.7S8.8,1.5,8.4,1.5z"/>
					</g>
					<g id="Group_4777" transform="translate(11.124 21.783)">
						<path id="Path_772" class="st8" d="M8.4,1.5H0.7C0.3,1.5,0,1.2,0,0.7S0.3,0,0.7,0h7.6C8.7,0,9,0.3,9,0.7S8.8,1.5,8.4,1.5z"/>
					</g>
					<g id="Group_4778" transform="translate(4.038 13.284)">
						<path id="Path_773" class="st8" d="M1.5,4.1L0.2,2.4c-0.3-0.3-0.2-0.8,0.1-1s0.8-0.2,1,0.1c0,0,0,0,0,0.1l0.4,0.5l2.5-1.9
							C4.5-0.1,5,0,5.2,0.3s0.2,0.8-0.1,1c0,0,0,0-0.1,0L1.5,4.1z"/>
					</g>
					<g id="Group_4779" transform="translate(11.124 14.469)">
						<path id="Path_774" class="st8" d="M8.4,1.5H0.7C0.3,1.5,0,1.2,0,0.7S0.3,0,0.7,0h7.6C8.7,0,9,0.3,9,0.7S8.8,1.5,8.4,1.5z"/>
					</g>
				</g>
			</g>
			<g id="Group_4783" transform="translate(288)">
				<rect id="Rectangle_794-2" class="st1" width="36" height="36"/>
				<g id="Group_4268" transform="translate(3.007 3.584)">
					<path id="Path_712" class="st9" d="M27.7,12.4c-0.5-0.5-0.9-1.1-1.2-1.7c-0.2-0.7-0.2-1.4-0.1-2.2c0.2-0.7,0.1-1.5-0.2-2.2
						c-0.6-0.5-1.3-0.9-2-0.9c-0.7-0.1-1.4-0.4-2-0.7c-0.5-0.5-1-1-1.3-1.7c-0.5-0.8-0.9-1.5-1.5-1.7c-0.7-0.1-1.5,0.1-2.1,0.4
						C16.5,2,15.8,2.2,15,2.3c-0.7-0.1-1.5-0.3-2.1-0.6c-0.5-0.3-1.1-0.4-1.7-0.5c-0.1,0-0.3,0-0.4,0.1C10.1,1.5,9.7,2.2,9.2,3l0,0
						l0.4,0.3C10,2.6,10.4,2,10.9,1.8c0.1,0,0.2,0,0.2,0c0.5,0.1,1.1,0.2,1.6,0.5c0.7,0.4,1.5,0.6,2.3,0.6c0.8-0.1,1.6-0.3,2.3-0.6
						c0.5-0.2,1-0.4,1.6-0.5c0.1,0,0.2,0,0.2,0c0.5,0.1,0.8,0.8,1.3,1.5c0.4,0.7,0.9,1.3,1.5,1.8c0.7,0.4,1.4,0.7,2.2,0.8
						c0.6,0.1,1.3,0.3,1.8,0.7c0.2,0.6,0.3,1.2,0.2,1.9c-0.1,0.8-0.1,1.6,0.1,2.4c0.3,0.7,0.7,1.4,1.3,1.9c0.5,0.6,1,1.2,1,1.7
						s-0.5,1.1-1,1.7c-0.5,0.6-1,1.2-1.3,1.9c-0.2,0.8-0.2,1.6-0.1,2.3l0,0c0.1,0.6,0.1,1.3-0.2,1.9c-0.5,0.4-1.1,0.7-1.8,0.7
						c-0.8,0.1-1.5,0.4-2.2,0.8c-0.6,0.5-1.1,1.1-1.5,1.8c-0.4,0.7-0.8,1.3-1.3,1.5c-0.1,0-0.2,0-0.2,0c-0.5-0.1-1.1-0.2-1.6-0.5
						C16.6,26.2,15.8,26,15,26c-0.8,0.1-1.6,0.3-2.3,0.6c-0.5,0.2-1,0.4-1.5,0.5c-0.1,0-0.2,0-0.2,0c-0.5-0.1-0.8-0.8-1.3-1.5
						l-0.4,0.3c0.5,0.8,0.9,1.5,1.5,1.7c0.7,0.1,1.5-0.1,2.1-0.4c0.7-0.3,1.4-0.5,2.1-0.6c0.7,0.1,1.5,0.3,2.1,0.6
						c0.6,0.4,1.4,0.5,2.1,0.4c0.6-0.2,1.1-0.9,1.5-1.7c0.3-0.6,0.8-1.2,1.3-1.7c0.6-0.4,1.3-0.6,2-0.8c0.8-0.1,1.5-0.4,2-0.9
						c0.3-0.7,0.4-1.5,0.2-2.2c-0.1-0.7-0.1-1.5,0.1-2.2c0.3-0.6,0.7-1.2,1.2-1.7c0.6-0.5,1-1.2,1.1-2
						C28.7,13.6,28.3,12.9,27.7,12.4z M8.2,23.8C7.5,23.4,6.8,23.1,6,23c-0.6-0.1-1.3-0.3-1.8-0.7C4,21.6,4,21,4.1,20.4
						C4.2,19.6,4.2,18.8,4,18c-0.3-0.7-0.7-1.4-1.3-1.9c-0.5-0.6-1-1.2-1-1.7s0.5-1.1,1-1.7c0.5-0.5,1-1.2,1.3-1.9
						C4.2,10,4.2,9.2,4.1,8.4C4,7.8,4,7.2,4.3,6.6C4.8,6.2,5.4,5.9,6,5.9C6.8,5.7,7.5,5.4,8.2,5c0.6-0.5,1.1-1.1,1.5-1.8L9.2,3
						C8.9,3.6,8.5,4.2,7.9,4.6s-1.3,0.7-2,0.8c-0.8,0.1-1.5,0.4-2,0.9C3.5,7,3.4,7.8,3.6,8.5c0.1,0.7,0.1,1.5-0.1,2.2
						c-0.3,0.6-0.7,1.2-1.2,1.7c-0.6,0.5-1,1.2-1.1,2c0.1,0.8,0.5,1.5,1.1,2c0.5,0.5,0.9,1.1,1.2,1.7c0.2,0.7,0.2,1.4,0.1,2.2
						c-0.2,0.7-0.1,1.5,0.2,2.2c0.6,0.5,1.3,0.9,2,0.9c0.7,0.1,1.4,0.4,2,0.8c0.5,0.5,1,1,1.3,1.7l0,0l0.4-0.3
						C9.3,24.9,8.8,24.3,8.2,23.8z"/>
					<path id="Path_713" class="st4" d="M12.7,11.8c0,1-0.8,1.8-1.8,1.8s-1.8-0.8-1.8-1.8S9.9,10,10.9,10S12.7,10.8,12.7,11.8z"/>
					<path id="Path_714" class="st6" d="M18.5,6.8c-0.1-0.2-0.2-0.4-0.4-0.4c-0.1,0-0.2-0.1-0.3-0.1c-0.3,0-0.6,0.2-0.7,0.5
						l-5.5,14.5c-0.2,0.4,0,0.9,0.4,1.1c0.1,0,0.2,0.1,0.3,0.1c0.3,0,0.6-0.2,0.7-0.5l5.5-14.5C18.6,7.2,18.6,7,18.5,6.8z"/>
					<path id="Path_715" d="M28.6,17.2c0.8-0.7,1.3-1.7,1.4-2.8c-0.1-1.1-0.6-2.1-1.4-2.8c-0.4-0.4-0.7-0.8-0.9-1.3
						c-0.1-0.5-0.1-1.1,0-1.7c0.2-1,0-2.1-0.5-3c-0.7-0.8-1.7-1.3-2.8-1.4c-0.5-0.1-1.1-0.3-1.6-0.5c-0.4-0.4-0.7-0.8-1-1.3
						c-0.4-1-1.2-1.8-2.2-2.2C19.4,0,19.2,0,18.9,0c-0.8,0.1-1.5,0.3-2.2,0.6C16.1,0.9,15.6,1,15,1.1c-0.6-0.1-1.1-0.2-1.6-0.5l0,0
						C12.7,0.3,12,0.1,11.2,0c-0.3,0-0.5,0-0.8,0.1c-1,0.4-1.8,1.2-2.2,2.2C8,2.8,7.6,3.2,7.2,3.6c-0.5,0.3-1,0.5-1.6,0.5
						c-1.1,0.1-2,0.6-2.8,1.4c-0.5,0.9-0.7,2-0.5,3c0.1,0.6,0.1,1.1,0,1.7c-0.2,0.5-0.5,0.9-0.9,1.3c-0.8,0.7-1.3,1.7-1.4,2.8
						c0.1,1.1,0.6,2.1,1.4,2.8c0.4,0.4,0.7,0.8,0.9,1.3c0.1,0.5,0.1,1.1,0,1.7c-0.2,1,0,2.1,0.5,3c0.7,0.8,1.7,1.3,2.8,1.4
						c0.5,0.1,1.1,0.3,1.6,0.5c0.4,0.4,0.7,0.8,1,1.3c0.4,1,1.2,1.8,2.2,2.2c0.3,0.1,0.5,0.1,0.8,0.1c0.8-0.1,1.5-0.3,2.2-0.6
						c0.5-0.3,1.1-0.4,1.6-0.5c0.6,0.1,1.1,0.2,1.6,0.5c0.7,0.3,1.5,0.5,2.2,0.6c0.3,0,0.5,0,0.8-0.1c1-0.4,1.8-1.2,2.2-2.2
						c0.2-0.5,0.6-0.9,1-1.3c0.5-0.3,1-0.5,1.6-0.5c1.1-0.1,2-0.6,2.8-1.4c0.5-0.9,0.7-2,0.5-3l0,0c-0.1-0.5-0.1-1.1,0-1.6
						C27.9,18.1,28.2,17.6,28.6,17.2z M8.2,23.8C7.5,23.4,6.8,23.1,6,23c-0.6-0.1-1.2-0.3-1.7-0.7c-0.2-0.7-0.3-1.3-0.1-2
						c0.1-0.7,0-1.5-0.2-2.3c-0.3-0.7-0.7-1.4-1.2-1.9c-0.5-0.6-1-1.2-1-1.7s0.5-1.1,1-1.7c0.5-0.5,1-1.2,1.2-1.9
						C4.2,10,4.2,9.2,4.1,8.5C4,7.9,4.1,7.2,4.3,6.6C4.8,6.2,5.4,6,6.1,5.9c0.8-0.1,1.5-0.4,2.2-0.8c0.5-0.5,1-1.1,1.4-1.8l0,0
						c0.4-0.7,0.8-1.3,1.2-1.4c0.1,0,0.2,0,0.2,0c0.5,0.1,1.1,0.2,1.6,0.5C13.4,2.8,14.2,3,15,3c0.8-0.1,1.6-0.3,2.3-0.6
						c0.5-0.2,1-0.4,1.5-0.5c0.1,0,0.2,0,0.2,0c0.6,0.1,1,0.7,1.4,1.4s0.9,1.3,1.4,1.8c0.7,0.4,1.4,0.7,2.2,0.8
						c0.6,0.1,1.2,0.3,1.7,0.7C26,7.2,26,7.9,25.9,8.5c-0.1,0.8-0.1,1.6,0.1,2.3c0.3,0.7,0.7,1.4,1.3,1.9c0.5,0.6,1,1.2,1,1.7
						s-0.5,1.1-1,1.7c-0.5,0.5-1,1.2-1.2,1.9c-0.2,0.8-0.2,1.6-0.1,2.3l0,0c0.1,0.6,0.1,1.3-0.2,1.9c-0.5,0.4-1.1,0.7-1.7,0.7
						c-0.8,0.1-1.5,0.4-2.2,0.8c-0.6,0.5-1.1,1.1-1.5,1.8c-0.4,0.7-0.8,1.3-1.2,1.4c-0.1,0-0.2,0-0.2,0c-0.5-0.1-1.1-0.2-1.5-0.5
						C16.6,26.2,15.8,26,15,26c-0.8,0.1-1.6,0.3-2.3,0.6c-0.5,0.2-1,0.4-1.5,0.5c-0.1,0-0.2,0-0.2,0c-0.4-0.1-0.8-0.8-1.2-1.4l0,0
						C9.3,24.9,8.8,24.3,8.2,23.8z"/>
					<path id="Path_716" class="st4" d="M27.3,12.7c-0.5-0.6-1-1.2-1.3-1.9c-0.2-0.8-0.2-1.6-0.1-2.4C26,7.8,26,7.1,25.7,6.5
						c-0.5-0.4-1.1-0.7-1.8-0.7c-0.8-0.1-1.5-0.4-2.2-0.8c-0.6-0.5-1.1-1.1-1.5-1.8s-0.8-1.3-1.3-1.5c-0.1,0-0.2,0-0.2,0
						c-0.5,0.1-1.1,0.2-1.6,0.5c-0.7,0.4-1.5,0.6-2.3,0.6c-0.8-0.1-1.6-0.3-2.3-0.6c-0.5-0.2-1-0.4-1.6-0.5c-0.1,0-0.2,0-0.2,0
						c-0.5,0.1-0.8,0.8-1.3,1.5L9.2,2.9l0.4,0.3C9.3,3.9,8.8,4.5,8.2,5C7.5,5.4,6.8,5.7,6,5.8C5.4,5.9,4.8,6.2,4.3,6.6
						C4,7.2,4,7.8,4.1,8.5S4.2,10,4,10.8c-0.3,0.7-0.7,1.4-1.3,1.9c-0.5,0.6-1,1.2-1,1.7s0.5,1.1,1,1.7s1,1.2,1.3,1.9
						c0.2,0.8,0.2,1.6,0.1,2.4C4,21,4,21.6,4.3,22.2C4.8,22.7,5.4,22.9,6,23c0.8,0.1,1.5,0.4,2.2,0.8c0.6,0.5,1.1,1.1,1.5,1.8
						l-0.4,0.3l0.4-0.3c0.4,0.7,0.8,1.3,1.3,1.5c0.1,0,0.2,0,0.2,0c0.5-0.1,1.1-0.2,1.6-0.5c0.7-0.4,1.5-0.6,2.3-0.6
						c0.8,0.1,1.6,0.3,2.3,0.6c0.5,0.2,1,0.4,1.6,0.5c0.1,0,0.2,0,0.2,0c0.5-0.1,0.8-0.8,1.3-1.5c0.4-0.7,0.9-1.3,1.5-1.8
						c0.7-0.4,1.4-0.7,2.2-0.8c0.6-0.1,1.3-0.3,1.8-0.7c0.2-0.6,0.3-1.2,0.2-1.9l0,0c-0.1-0.8-0.1-1.6,0.1-2.4
						c0.3-0.7,0.7-1.4,1.3-1.9c0.5-0.6,1-1.2,1-1.7S27.9,13.3,27.3,12.7z M10.9,14.8c-1.7,0-3-1.3-3-3s1.3-3,3-3s3,1.3,3,3
						C13.9,13.4,12.5,14.8,10.9,14.8z M12.7,21.7c-0.1,0.2-0.3,0.3-0.5,0.3c-0.1,0-0.1,0-0.2,0c-0.3-0.1-0.4-0.4-0.3-0.7l5.7-14.2
						c0.1-0.3,0.4-0.4,0.7-0.3s0.4,0.4,0.3,0.7l0,0L12.7,21.7z M19.2,20.1c-1.7,0-3-1.3-3-3s1.3-3,3-3s3,1.3,3,3
						C22.2,18.7,20.8,20.1,19.2,20.1L19.2,20.1z"/>
					<path id="Path_717" class="st6" d="M10.9,8.4c-1.9,0-3.4,1.5-3.4,3.4s1.5,3.4,3.4,3.4s3.4-1.5,3.4-3.4
						C14.2,9.9,12.7,8.4,10.9,8.4z M10.9,13.6c-1,0-1.8-0.8-1.8-1.8S9.9,10,10.9,10s1.8,0.8,1.8,1.8S11.9,13.6,10.9,13.6z"/>
					<path id="Path_718" class="st6" d="M19.2,20.4c-1.9,0-3.4-1.5-3.4-3.4s1.5-3.4,3.4-3.4s3.4,1.5,3.4,3.4S21.1,20.4,19.2,20.4z
						 M19.2,15.8c-0.7,0-1.3,0.6-1.3,1.3s0.6,1.3,1.3,1.3c0.7,0,1.3-0.6,1.3-1.3C20.5,16.3,19.9,15.8,19.2,15.8z"/>
					<circle id="Ellipse_95" class="st4" cx="19.2" cy="17.1" r="1.8"/>
				</g>
			</g>
			<g id="Group_4805">
				<g id="Group_4800" transform="translate(360)">
					<rect id="Rectangle_794-3" class="st1" width="36" height="36"/>
				</g>
				<g id="Group_2980" transform="translate(234.701 -282.299)">
					<rect id="Rectangle_215-2" x="128.3" y="285.3" class="st1" width="30" height="30"/>
					<g id="Group_2185-2" transform="translate(128.479 286.246)">
						<path id="Path_436-2" class="st4" d="M5.9,2h18.2l4,9.9H1.6L5.9,2z"/>
						<g id="Group_753-2">
							<path id="Path_405-2" d="M29.6,10.4C29.6,10.4,29.6,10.3,29.6,10.4l-3.2-8.1C25.8,0.9,24.5,0,23,0H7l0,0
								C5.6,0,4.2,0.8,3.7,2.2l-3.5,8.1v0.1C-0.1,11.2,0,12.2,0.5,13c0.6,0.7,1.5,1.1,2.4,1c1.3,0,2.5-0.5,3.5-1.2
								c0.4-0.3,0.8-0.5,1.2-0.6c0.2,0,0.3,0,0.7,0.4c0.7,0.7,1.6,1.2,2.6,1.2s2.1-0.4,2.9-1c0.3-0.2,0.7-0.4,1.1-0.5
								c0.4,0.1,0.8,0.3,1.2,0.5c0.8,0.6,1.8,0.9,2.8,1l0,0c1,0,1.9-0.5,2.6-1.2c0.4-0.4,0.6-0.5,0.9-0.5c0.2,0,0.4,0.1,0.6,0.2v0.1
								v12.2c0,0.3-0.1,0.6-0.3,0.8c-0.2,0.2-0.5,0.3-0.8,0.3l0,0H8.2c-0.6,0-1.1-0.5-1.1-1.1l0,0c0-0.7-0.6-1.2-1.2-1.2
								c-0.7,0-1.2,0.5-1.2,1.2c0,1.9,1.6,3.5,3.6,3.5h13.6l0,0c0.9,0,1.9-0.4,2.5-1c0.7-0.6,1-1.5,1-2.5V13.8
								c0.5,0.2,0.9,0.2,1.4,0.2c0.9,0.1,1.8-0.3,2.4-1C29.7,12.2,29.9,11.3,29.6,10.4z M27.3,11.6c-0.1,0.1-0.3,0.1-0.4,0.1
								c-0.7-0.1-1.4-0.3-2-0.8c-0.7-0.6-1.6-0.9-2.5-1l0,0c-0.9,0-1.8,0.4-2.5,1.1c-0.5,0.4-0.7,0.6-1,0.6l0,0
								c-0.5-0.1-1-0.3-1.5-0.6c-0.7-0.5-1.6-0.9-2.5-0.9s-1.7,0.3-2.4,0.8c-0.5,0.4-1,0.6-1.6,0.6c-0.4,0-0.5-0.1-0.9-0.5
								c-0.6-0.7-1.5-1.1-2.4-1.1c-1,0.1-1.8,0.4-2.6,1c-0.6,0.5-1.4,0.8-2.2,0.8c-0.1,0-0.3,0-0.4,0c0-0.2,0-0.3,0-0.5l3.4-8.1
								c0.2-0.4,0.6-0.7,1-0.7l0,0H23c0.5,0,0.9,0.3,1.1,0.7l3.1,8C27.3,11.3,27.3,11.4,27.3,11.6z"/>
						</g>
						<path id="Path_435-2" class="st4" d="M9.2,19.3c0.5,0.5,1.2,0.5,1.7,0s0.5-1.2,0-1.7l0,0l-3.3-3.3c-0.5-0.5-1.2-0.5-1.7,0
							l-3.3,3.3c-0.5,0.5-0.5,1.2,0,1.7s1.2,0.5,1.7,0l0,0L5.6,18v3.4c0,0.7,0.5,1.2,1.2,1.2S8,22.1,8,21.5V18L9.2,19.3z"/>
					</g>
				</g>
			</g>
			<g id="Group_4804" transform="translate(396)">
				<rect id="Rectangle_786" class="st1" width="36" height="36"/>
				<g id="Group_4264" transform="translate(1.386 6.134)">
					<path id="Path_683" class="st9" d="M15,16.5H7.3c-0.6,0-1.1-0.4-1.1-0.9L7,12v-0.1v-0.1c0-0.6,0.6-1,1.1-1h6
						c0.6,0,1.1,0.4,1.1,1v0.1V12l0.8,3.6C16,16.1,15.5,16.5,15,16.5z"/>
					<g id="Group_3962">
						<path id="Path_684" class="st4" d="M20.1,9.4h-6.9c-0.5,0-1-0.3-1-0.8l0.7-3.2l0,0l0,0c0-0.5,0.5-0.9,1-0.9h5.5
							c0.5,0,1,0.4,1,0.9l0,0l0,0l0.7,3.2C21,9.1,20.6,9.4,20.1,9.4z"/>
						<path id="Path_685" class="st4" d="M14.5,16.2H7.6c-0.5,0-1-0.3-1-0.8l0.7-3.2l0,0l0,0c0-0.5,0.5-0.9,1-0.9h5.5
							c0.5,0,1,0.4,1,0.9l0,0l0,0l0.7,3.2C15.4,15.9,15,16.2,14.5,16.2z"/>
						<path id="Path_686" class="st4" d="M25.7,16.2h-6.9c-0.5,0-1-0.3-1-0.8l0.7-3.2l0,0l0,0c0-0.5,0.5-0.9,1-0.9H25
							c0.5,0,1,0.4,1,0.9l0,0l0,0l0.7,3.2C26.6,15.9,26.2,16.2,25.7,16.2z"/>
						<path id="Path_687" class="st4" d="M20.1,23h-6.9c-0.5,0-1-0.3-1-0.8l0.7-3.2l0,0l0,0c0-0.5,0.5-0.9,1-0.9h5.5
							c0.5,0,1,0.4,1,0.9l0,0l0,0l0.7,3.2C21,22.7,20.6,23,20.1,23z"/>
						<path id="Path_688" class="st4" d="M8.9,23H2c-0.5,0-1-0.3-1-0.8L1.7,19l0,0l0,0c0-0.5,0.5-0.9,1-0.9h5.5c0.5,0,1,0.4,1,0.9
							l0,0l0,0l0.7,3.2C9.8,22.7,9.4,23,8.9,23z"/>
						<path id="Path_689" class="st4" d="M31.2,23h-6.9c-0.5,0-1-0.3-1-0.8L24,19l0,0l0,0c0-0.5,0.5-0.9,1-0.9h5.5
							c0.5,0,1,0.4,1,0.9l0,0l0,0l0.7,3.2C32.2,22.7,31.8,23,31.2,23z"/>
						<path id="Path_690" d="M2.4,18.2c-0.4,0-0.7,0.2-0.7,0.5v0.1v0.1L1,22.4c0.1,0.3,0.4,0.5,0.7,0.4h7.6c0.3,0,0.6-0.2,0.7-0.4
							l-0.8-3.5v-0.1v-0.1c0-0.3-0.3-0.5-0.7-0.5L2.4,18.2 M2.4,17.2h6c0.8,0,1.6,0.6,1.6,1.5l0.8,3.6c0,0.8-0.8,1.5-1.6,1.5H1.6
							c-0.8,0-1.6-0.6-1.6-1.5l0.8-3.6C0.8,17.8,1.6,17.2,2.4,17.2L2.4,17.2z"/>
						<path id="Path_691" class="st6" d="M12.9,14.7H9.2c-0.3,0-0.5-0.2-0.5-0.3L9,13l0,0l0,0c0-0.2,0.2-0.4,0.5-0.4h2.9
							c0.3,0,0.5,0.2,0.5,0.4l0,0l0,0l0.4,1.3C13.4,14.5,13.2,14.7,12.9,14.7z"/>
						<path id="Path_692" class="st6" d="M18.5,7.9h-3.7c-0.3,0-0.5-0.2-0.5-0.3l0.4-1.3l0,0l0,0c0-0.2,0.2-0.4,0.5-0.4h2.9
							c0.3,0,0.5,0.2,0.5,0.4l0,0l0,0L19,7.5C19,7.7,18.7,7.9,18.5,7.9z"/>
						<path id="Path_693" class="st6" d="M24.2,14.7h-3.7c-0.3,0-0.5-0.2-0.5-0.3l0.4-1.3l0,0l0,0c0-0.2,0.2-0.4,0.5-0.4h2.9
							c0.3,0,0.5,0.2,0.5,0.4l0,0l0,0l0.4,1.3C24.7,14.5,24.5,14.7,24.2,14.7z"/>
						<path id="Path_694" class="st6" d="M29.9,21.5h-3.7c-0.3,0-0.5-0.2-0.5-0.3l0.4-1.3l0,0l0,0c0-0.2,0.2-0.4,0.5-0.4h2.9
							c0.3,0,0.5,0.2,0.5,0.4l0,0l0,0l0.4,1.3C30.4,21.3,30.2,21.5,29.9,21.5z"/>
						<path id="Path_695" class="st6" d="M18.6,21.5h-3.7c-0.3,0-0.5-0.2-0.5-0.3l0.4-1.3l0,0l0,0c0-0.2,0.2-0.4,0.5-0.4h2.9
							c0.3,0,0.5,0.2,0.5,0.4l0,0l0,0l0.4,1.3C19.2,21.3,18.9,21.5,18.6,21.5z"/>
						<path id="Path_696" class="st6" d="M7.3,21.5H3.6c-0.3,0-0.5-0.2-0.5-0.3l0.4-1.3l0,0l0,0c0-0.2,0.2-0.4,0.5-0.4h2.9
							c0.3,0,0.5,0.2,0.5,0.4l0,0l0,0l0.4,1.3C7.8,21.3,7.6,21.5,7.3,21.5z"/>
						<path id="Path_697" d="M8,11.3c-0.4,0-0.7,0.2-0.7,0.5v0.1V12l-0.8,3.5C6.6,15.8,6.9,16,7.2,16h7.6c0.3,0,0.6-0.2,0.7-0.4
							L14.7,12v-0.1v-0.1c0-0.3-0.3-0.5-0.7-0.5L8,11.3 M8,10.4h6c0.8,0,1.6,0.6,1.6,1.5l0.8,3.6c0,0.8-0.8,1.5-1.6,1.5H7.2
							c-0.8,0-1.6-0.6-1.6-1.5l0.8-3.6C6.4,11,7.2,10.4,8,10.4L8,10.4z"/>
						<path id="Path_698" d="M13.6,4.5c-0.4,0-0.7,0.2-0.7,0.5v0.1v0.1l-0.8,3.5c0.1,0.3,0.4,0.5,0.7,0.4h7.6c0.3,0,0.6-0.2,0.7-0.4
							l-0.8-3.5V5.1V5c0-0.3-0.3-0.5-0.7-0.5H13.6 M13.6,3.6h6c0.8,0,1.6,0.6,1.6,1.5L22,8.7c0,0.8-0.8,1.5-1.6,1.5h-7.6
							c-0.8,0-1.6-0.6-1.6-1.5L12,5.1C12,4.2,12.7,3.6,13.6,3.6L13.6,3.6z"/>
						<path id="Path_699" d="M19.2,11.3c-0.4,0-0.7,0.2-0.7,0.5v0.1V12l-0.8,3.5c0.1,0.3,0.4,0.5,0.7,0.4H26c0.3,0,0.6-0.2,0.7-0.4
							L25.9,12v-0.1v-0.1c0-0.3-0.3-0.5-0.7-0.5L19.2,11.3 M19.2,10.4h6c0.8,0,1.6,0.6,1.6,1.5l0.8,3.6c0,0.8-0.8,1.5-1.6,1.5h-7.6
							c-0.8,0-1.6-0.6-1.6-1.5l0.8-3.6C17.6,11,18.3,10.4,19.2,10.4L19.2,10.4z"/>
						<path id="Path_700" d="M13.6,18.2c-0.4,0-0.7,0.2-0.7,0.5v0.1v0.1l-0.8,3.5c0.1,0.3,0.4,0.5,0.7,0.4h7.6
							c0.3,0,0.6-0.2,0.7-0.4l-0.8-3.5v-0.1v-0.1c0-0.3-0.3-0.5-0.7-0.5H13.6 M13.6,17.2h6c0.8,0,1.6,0.6,1.6,1.5l0.8,3.6
							c0,0.8-0.8,1.5-1.6,1.5h-7.6c-0.8,0-1.6-0.6-1.6-1.5l0.8-3.6C12,17.8,12.7,17.2,13.6,17.2L13.6,17.2z"/>
						<path id="Path_701" d="M24.8,18.2c-0.4,0-0.7,0.2-0.7,0.5v0.1v0.1l-0.8,3.5c0.1,0.3,0.4,0.5,0.7,0.4h7.6
							c0.3,0,0.6-0.2,0.7-0.4l-0.8-3.5v-0.1v-0.1c0-0.3-0.3-0.5-0.7-0.5H24.8 M24.8,17.2h6c0.8,0,1.6,0.6,1.6,1.5l0.8,3.6
							c0,0.8-0.8,1.5-1.6,1.5H24c-0.8,0-1.6-0.6-1.6-1.5l0.8-3.6C23.2,17.8,23.9,17.2,24.8,17.2L24.8,17.2z"/>
						<line id="Line_5" class="st10" x1="11.4" y1="3.5" x2="9.6" y2="2.3"/>
						<line id="Line_75-2" class="st10" x1="27.3" y1="9.6" x2="28" y2="8.4"/>
						<line id="Line_6" class="st10" x1="12.5" y1="2.3" x2="12.5" y2="0"/>
						<line id="Line_76-2" class="st10" x1="28" y1="11.3" x2="29.6" y2="11.3"/>
						<line id="Line_7" class="st10" x1="10.8" y1="5.3" x2="7.9" y2="5.3"/>
						<line id="Line_77" class="st10" x1="25.2" y1="9.2" x2="25.2" y2="7.2"/>
					</g>
				</g>
			</g>
			<g id="Group_4806" transform="translate(432)">
				<rect id="Rectangle_792" class="st1" width="36" height="36"/>
				<g id="Group_4266" transform="translate(6.614 6.133)">
					<path id="Path_660" class="st11" d="M10.5,23.7c-0.5,0-1-0.1-1.5-0.1c-2.5-0.1-5-0.4-7.4-0.8C0.7,22.7,0,21.9,0,21
						c0-0.4,0-0.7,0-1.1c0-0.6,0.3-1.2,0.8-1.5c2.2-1.3,4.4-2.5,6.6-3.8c0.2-0.1,0.2,0,0.3,0.1c0.8,0.9,1.9,1.5,3.1,1.7
						c1.3,0.1,2.6-0.2,3.6-1.1c0.2-0.2,0.4-0.3,0.6-0.5c0.2-0.2,0.3-0.2,0.5-0.1c2.1,1.2,4.3,2.4,6.5,3.7c0.5,0.3,0.9,0.9,0.8,1.5
						c0,0.4,0,0.7,0,1.1c0,0.9-0.6,1.7-1.5,1.8c-2.8,0.5-5.7,0.8-8.6,0.9c-0.1,0-0.2,0-0.3,0L10.5,23.7z"/>
					<path id="Path_661" class="st12" d="M6,6c0-1.1,0.2-2.1,0.6-3.1C7.3,1.3,8.7,0.2,10.4,0c1-0.2,2.1-0.1,3.1,0.2
						c1.6,0.5,2.8,1.9,3.1,3.5c0.8,3.2,0,6.6-2.2,9.1c-0.5,0.6-1.2,1.1-2,1.4c-1.2,0.4-2.5,0.1-3.4-0.8c-1.1-1-1.9-2.2-2.4-3.6
						C6.2,8.7,6,7.4,6,6z"/>
					<path id="Path_662" class="st4" d="M6.3,6.1c0-1,0.2-2,0.5-2.9c0.6-1.5,2-2.5,3.6-2.7c1-0.2,2-0.1,3,0.2
						C14.9,1.2,16,2.5,16.3,4c0.7,3,0,6.2-2,8.6c-0.5,0.6-1.1,1.1-1.9,1.3c-1.1,0.4-2.4,0.1-3.2-0.7c-1-0.9-1.8-2.1-2.2-3.4
						C6.5,8.6,6.3,7.3,6.3,6.1z"/>
					<path id="Path_702" class="st6" d="M7.9,6.4c0-0.7,0.1-1.4,0.4-2c0.4-1,1.4-1.7,2.5-1.9c0.7-0.1,1.4-0.1,2,0.2
						c1,0.3,1.8,1.2,2,2.3c0.5,2.1,0,4.3-1.4,5.9c-0.3,0.4-0.8,0.7-1.3,0.9c-0.8,0.3-1.6,0.1-2.2-0.5C9.1,10.7,8.6,9.9,8.3,9
						C8,8.2,7.9,7.3,7.9,6.4z"/>
				</g>
			</g>
			<g id="Group_3751" transform="translate(417 -76)">
				<path id="ic_account_circle_24px-2" class="st6" d="M69,76c-9.9,0-18,8.1-18,18s8.1,18,18,18s18-8.1,18-18S78.9,76,69,76z"/>
				<g>
					<g>
						<defs>
							<circle id="SVGID_00000018919359870517488880000013506178242241880995_" cx="120" cy="170" r="18"/>
						</defs>
						<clipPath id="SVGID_00000095316236442977803930000000867198861684465047_">
							<use xlink:href="#SVGID_00000018919359870517488880000013506178242241880995_"  style="overflow:visible;"/>
						</clipPath>
						
							<g id="Mask_Group_6" transform="translate(50.999 76)" style="clip-path:url(#SVGID_00000095316236442977803930000000867198861684465047_);">
							<path id="ic_account_circle_24px-3" class="st4" d="M18,7.4c3.7,0,6.7,3,6.7,6.7s-3,6.7-6.7,6.7s-6.7-3-6.7-6.7l0,0
								C11.3,10.4,14.3,7.4,18,7.4L18,7.4z M18,37.5c-4,0-13.6-1.5-13.5-7.7c0.1-4.5,9-6.9,13.5-6.9s13.4,2.5,13.5,6.9
								C31.6,36.3,22,37.5,18,37.5z"/>
						</g>
					</g>
				</g>
			</g>
			<g id="Group_5321" transform="translate(504 -207)">
				<rect id="Rectangle_596" y="207" class="st14" width="36" height="36"/>
				<g id="noun_receipt_561599_1_" transform="translate(4.5 207)">
					<path id="Path_1" class="st4" d="M1,1.2v33.3h17.8v-7.6h7.7V1.2H1z"/>
					<g id="Group_1" transform="translate(0 0)">
						<path id="Path_2" d="M7.7,9.2C7.8,9.2,7.7,9.1,7.7,9.2z"/>
						<path id="Path_3" d="M7.5,11.1C7.4,11.1,7.6,11.1,7.5,11.1z"/>
						<path id="Path_4" d="M26.4,0H1C0.4,0,0,0.4,0,1v33.8c0,0.6,0.4,1,1,1h17.5c0.3,0,0.5-0.1,0.7-0.3l7.9-7.9
							c0.2-0.2,0.3-0.4,0.3-0.7V1C27.4,0.4,26.9,0,26.4,0L26.4,0z M19.5,32.4V28H24L19.5,32.4z M25.4,26h-6.9c-0.6,0-1,0.4-1,1v6.9
							H2V2h23.4V26z"/>
						<path id="Path_5" class="st6" d="M14.5,6.1h8.1c0.5-0.1,1-0.5,0.9-1.1c0-0.5-0.4-0.9-0.9-0.9h-8.1c-0.5,0.1-1,0.5-0.9,1.1
							C13.6,5.7,14,6.1,14.5,6.1z"/>
						<path id="Path_6" class="st6" d="M14.5,11.2h8.1c0.5-0.1,1-0.5,0.9-1.1c0-0.5-0.4-0.9-0.9-0.9h-8.1c-0.5,0.1-1,0.5-0.9,1.1
							C13.6,10.8,14,11.2,14.5,11.2z"/>
						<path id="Path_7" class="st6" d="M14.5,16.4h8.1c0.5-0.1,1-0.5,0.9-1.1c0-0.5-0.4-0.9-0.9-0.9h-8.1c-0.5,0.1-1,0.5-0.9,1.1
							C13.6,15.9,14,16.3,14.5,16.4z"/>
						<path id="Path_8" class="st6" d="M4.6,21.4h17.8c0.5-0.1,1-0.5,0.9-1.1c0-0.5-0.4-0.9-0.9-0.9H4.6c-0.5,0.1-1,0.5-0.9,1.1
							C3.8,21,4.2,21.4,4.6,21.4z"/>
						<path id="Path_9" class="st6" d="M4.6,26.6h8.8c0.5,0.1,1-0.4,1.1-0.9s-0.4-1-0.9-1.1c-0.1,0-0.1,0-0.2,0H4.6
							c-0.5-0.1-1,0.4-1.1,0.9s0.4,1,0.9,1.1C4.5,26.6,4.6,26.6,4.6,26.6z"/>
						<path id="Path_10" class="st6" d="M4.6,31.7h8.8c0.5,0.1,1-0.4,1.1-0.9s-0.4-1-0.9-1.1c-0.1,0-0.1,0-0.2,0H4.6
							c-0.5-0.1-1,0.4-1.1,0.9s0.4,1,0.9,1.1C4.5,31.7,4.6,31.7,4.6,31.7z"/>
					</g>
					<path id="Path_2751" class="st15" d="M11.7,12.2c-0.1-0.3-0.2-0.7-0.3-1c-0.3-1.1-0.9-2-1.6-2.9C9.6,8.1,9.4,7.9,9.2,7.7
						C9.1,7.6,8.9,7.6,8.8,7.5c0,0,0,0,0-0.1C8.9,7.3,8.9,7.2,9,7.1c0.2-0.4,0.5-0.8,0.7-1.3l0,0L9.6,6c0,0,0.1-0.3,0.2-0.3
						c0.1-0.1,0.1-0.2,0.1-0.3c-0.1,0-0.2-0.1-0.2-0.1l0,0c-1.4-0.5-2.8-0.5-4.2,0c-0.1,0.1-0.1,0.3,0,0.4c0.3,0.6,0.7,1.1,1,1.7
						c0.1,0.1,0.1,0.1,0,0.2C6.1,7.7,5.9,7.8,5.7,8C5.4,8.3,5.1,8.7,4.8,9c-0.4,0.7-0.8,1.5-1,2.3c-0.1,0.4-0.2,0.8-0.3,1.3
						c0,0.2,0,0.5,0,0.7c0,0.3,0,0.6,0.1,0.9c0.1,0.6,0.5,1.1,1.1,1.4c0.5,0.3,1.1,0.4,1.7,0.5c0.2,0,0.4,0,0.6,0c0.1,0,0.2,0,0.2,0
						H8c0,0,0,0,0.1,0s0.1,0,0.2,0c0.3,0,0.6,0,0.9-0.1c0.3,0,0.6-0.1,0.8-0.2c1-0.2,1.7-1.1,1.8-2.1c0-0.2,0-0.3,0-0.5
						C11.8,12.9,11.8,12.6,11.7,12.2z M6.2,6L6,5.6l0,0h0.2l0,0h0.2c0.2,0,0.4,0,0.6-0.1c0.7-0.1,1.5,0,2.2,0.2L9.1,5.8L8.3,7.3
						c-0.5-0.1-1-0.1-1.5,0L6.2,6z M11.1,14.3c-0.2,0.5-0.6,0.9-1.1,1c-0.3,0.1-0.6,0.2-0.9,0.2c-0.4,0-0.8,0.1-1.2,0.1
						c-0.4,0-0.8,0-1.2,0c-0.5,0-1.1-0.1-1.6-0.3c-0.4-0.1-0.8-0.4-1-0.8c0-0.2-0.1-0.4-0.1-0.6c0-0.3-0.1-0.6,0-0.8
						c0-0.3,0.1-0.7,0.1-1c0.2-0.8,0.5-1.5,0.8-2.2c0.2-0.4,0.4-0.7,0.7-1c0.3-0.4,0.6-0.6,1-0.9l0,0c0.5-0.3,1.2-0.4,1.8-0.1
						c0,0,0,0,0.1,0c0.4,0.2,0.7,0.5,1,0.8c0.4,0.4,0.7,0.9,1,1.4c0.3,0.6,0.5,1.2,0.7,1.8c0.1,0.2,0.1,0.5,0.1,0.7s0.1,0.5,0.1,0.7
						C11.3,13.6,11.2,14,11.1,14.3L11.1,14.3z"/>
				</g>
			</g>
			<g id="Group_7712" transform="translate(540 -207)">
				<rect id="Rectangle_596-2" y="207" class="st14" width="36" height="36"/>
			</g>
			<g id="Group_7739" transform="translate(576 -207)">
				<rect id="Rectangle_596-3" y="207" class="st14" width="36" height="36"/>
			</g>
			<g id="Group_7711" transform="translate(354 -63.405)">
				<g id="Group_6691" transform="translate(189 63.405)">
					<path id="Subtraction_7" class="st4" d="M13,34.2H0V0h26.7v16.5c-4.4-2.2-9.8-1.4-13.3,2.1C9,22.9,8.9,29.8,13,34.2L13,34.2z"
						/>
					<g id="Group_4085" transform="translate(2.77 3.048)">
						<path id="Path_631" d="M4.3,5.3C4.4,5.3,4.2,5.2,4.3,5.3z"/>
						<path id="Path_632" d="M4.1,7.1C4,7.1,4.1,7.2,4.1,7.1z"/>
						<path id="Path_635" class="st6" d="M1.3,2.1h18.2c0.6,0,1-0.5,1-1s-0.5-1-1-1H1.3c-0.6,0-1,0.5-1,1S0.7,2.1,1.3,2.1z"/>
						<path id="Path_636" class="st6" d="M1.3,7.3h18.2c0.6,0,1-0.5,1-1s-0.5-1-1-1H1.3c-0.6,0-1,0.5-1,1S0.7,7.3,1.3,7.3z"/>
						<path id="Path_637" class="st6" d="M1.3,12.6h9.2c0.6,0,1-0.5,1-1s-0.5-1-1-1H1.3c-0.6,0-1,0.5-1,1S0.7,12.6,1.3,12.6z"/>
						<path id="Path_638" class="st6" d="M0.6,17.8h6.2c0.2,0,0.3-0.5,0.3-1s-0.2-1-0.3-1H0.6c-0.2,0-0.3,0.5-0.3,1
							S0.4,17.8,0.6,17.8z"/>
						<path id="Path_639" class="st6" d="M0.4,23h3.5c0.2,0,0.4-0.5,0.4-1s-0.2-1-0.4-1H0.4C0.2,21,0,21.5,0,22S0.2,23,0.4,23z"/>
						<path id="Path_640" class="st6" d="M0.6,28.3h5.2c0.3,0,0.6-0.5,0.6-1s-0.3-1-0.6-1H0.6c-0.3,0-0.6,0.5-0.6,1
							S0.3,28.3,0.6,28.3z"/>
					</g>
				</g>
				<circle id="Ellipse_225" cx="210.5" cy="89.9" r="9.5"/>
				<path id="Path_3159" class="st16" d="M206.1,91.2l3,2.4l5.7-7.6"/>
			</g>
			<g id="Group_7741" transform="translate(-3.342)">
				<g id="Rectangle_929" transform="translate(583.167 20.663)">
					<rect x="0" y="0" class="st4" width="7.7" height="15.3"/>
					<rect x="1" y="1" class="st17" width="5.7" height="13.3"/>
				</g>
				<g id="Rectangle_930" transform="translate(594.03 14.912)">
					<rect x="0" y="0" class="st4" width="7.7" height="21.1"/>
					<rect x="1" y="1" class="st17" width="5.7" height="19.1"/>
				</g>
				<g id="Rectangle_931" transform="translate(604.894 10.439)">
					<rect x="0" y="0" class="st4" width="7.7" height="25.6"/>
					<rect x="1" y="1" class="st17" width="5.7" height="23.6"/>
				</g>
				<g id="Group_7740">
					<path id="Path_841" class="st17" d="M582.3,14.9l13.4-9.3l2.4,3.5l10.4-7.2"/>
					<g id="Polygon_1" transform="translate(608.392 -3.58) rotate(56)">
						<path class="st4" d="M7.3,7.3l-5.6,0l2.8-5.2L7.3,7.3z"/>
						<path class="st4" d="M4.5,4.2L3.3,6.3l2.2,0L4.5,4.2 M4.5,0L9,8.3l-9,0L4.5,0z"/>
					</g>
				</g>
			</g>
		</g>
	</g>
</g>
</svg>
