<?xml version="1.0" encoding="utf-8"?>
<!-- Generator: Adobe Illustrator 26.3.1, SVG Export Plug-In . SVG Version: 6.00 Build 0)  -->
<svg version="1.1" id="Layer_1" xmlns="http://www.w3.org/2000/svg" xmlns:xlink="http://www.w3.org/1999/xlink" x="0px" y="0px"
	 width="873px" height="32px" viewBox="0 0 873 32" style="enable-background:new 0 0 873 32;" xml:space="preserve">
<style type="text/css">
	.st0{fill:none;}
	.st1{fill:#D9BDB1;}
	.st2{fill:#FFFFFF;}
	.st3{fill:#050505;}
	.st4{fill:none;stroke:#000000;stroke-width:1.5;}
	.st5{fill:none;stroke:#000000;stroke-width:1.5;stroke-linecap:round;}
	.st6{fill:none;stroke:#000000;stroke-width:2.5;}
	.st7{fill:none;stroke:#000000;stroke-width:2.5;stroke-linecap:round;}
	.st8{fill:#D9BDB1;stroke:#000000;stroke-width:2.5;stroke-linecap:round;stroke-linejoin:round;}
	.st9{fill:none;stroke:#000000;stroke-width:2.5;stroke-linecap:round;stroke-linejoin:round;}
	.st10{fill:none;stroke:#0D0C09;}
	.st11{fill:#B7B7B7;}
	.st12{fill:#FFFFFF;fill-opacity:0;}
	.st13{fill:#FFFFFF;stroke:#FFFFFF;stroke-width:0.7;}
	.st14{fill:none;stroke:#FFFFFF;stroke-width:2;stroke-linecap:round;}
	.st15{clip-path:url(#SVGID_00000077296356794728281860000007323561435014762143_);}
	.st16{fill-rule:evenodd;clip-rule:evenodd;fill:#36221C;}
	.st17{fill-rule:evenodd;clip-rule:evenodd;fill:url(#SVGID_00000101073562639572440880000012528441941671055277_);}
	.st18{fill-rule:evenodd;clip-rule:evenodd;fill:url(#SVGID_00000147179716688209966940000014199557439823562172_);}
	.st19{fill-rule:evenodd;clip-rule:evenodd;fill:url(#SVGID_00000016042124189189112320000011187564924345392823_);}
	.st20{fill-rule:evenodd;clip-rule:evenodd;fill:url(#SVGID_00000023972981244458353470000016052801465508232625_);}
	
		.st21{opacity:0.5;fill-rule:evenodd;clip-rule:evenodd;fill:url(#SVGID_00000057833490292789779220000003461967891644297105_);enable-background:new    ;}
	.st22{fill-rule:evenodd;clip-rule:evenodd;fill:url(#SVGID_00000077310422201913849160000002153833372602753962_);}
	.st23{fill-rule:evenodd;clip-rule:evenodd;fill:url(#SVGID_00000054266422648447519720000012110816195995315112_);}
	.st24{fill-rule:evenodd;clip-rule:evenodd;fill:url(#SVGID_00000057126080698289119470000001605929507145072813_);}
</style>
<g id="Group_3657" transform="translate(-146 -247)">
	<rect id="Rectangle_575" x="178" y="247" class="st0" width="90" height="32"/>
	<path id="Path_568" class="st1" d="M223.3,263.9c-0.5,0.5-0.5,1.2,0,1.7l0,0c0.2,0.2,0.5,0.4,0.8,0.4s0.6-0.1,0.8-0.4l3.3-3.3
		c0.2-0.2,0.4-0.5,0.4-0.8s-0.1-0.6-0.4-0.8l-3.3-3.3c-0.5-0.5-1.2-0.5-1.7,0l0,0c-0.5,0.5-0.5,1.2,0,1.7l0,0l1.2,1.2h-5.9
		c-0.7,0-1.2,0.5-1.2,1.2l0,0c0,0.7,0.5,1.2,1.2,1.2l0,0h5.9L223.3,263.9z"/>
	<g id="Group_3656" transform="translate(0 -2)">
		<g id="Group_3651" transform="translate(537.002 -307.856)">
			<path id="Path_567" d="M-332.3,584.8h-21.5c-2.3,0-4.2-1.9-4.2-4.2v-18.5c0-0.7,0.6-1.2,1.2-1.2c0.7,0,1.2,0.6,1.2,1.2v18.5
				c0,1,0.8,1.8,1.8,1.8h21.5c1,0,1.8-0.8,1.8-1.8v-18.5c0-0.7,0.6-1.2,1.2-1.2c0.7,0,1.2,0.6,1.2,1.2v18.5
				C-328.1,582.9-330,584.8-332.3,584.8z"/>
		</g>
		<g id="Group_3653" transform="translate(2.633 0.969)">
			<ellipse id="Ellipse_71" class="st1" cx="191.4" cy="261" rx="1.9" ry="1.9"/>
			<ellipse id="Ellipse_72" class="st1" cx="194" cy="267.4" rx="1.9" ry="1.9"/>
			<ellipse id="Ellipse_73" class="st1" cx="186.3" cy="261" rx="1.9" ry="1.9"/>
			<ellipse id="Ellipse_74" class="st1" cx="188.9" cy="267.4" rx="1.9" ry="1.9"/>
			<ellipse id="Ellipse_75" class="st1" cx="196.6" cy="261" rx="1.9" ry="1.9"/>
		</g>
	</g>
	<g id="Group_3655" transform="translate(0 -2)">
		<g id="Group_3652" transform="translate(595.002 -307.856)">
			<path id="Path_567-2" d="M-332.3,584.8h-21.5c-2.3,0-4.2-1.9-4.2-4.2v-18.5c0-0.7,0.6-1.2,1.2-1.2c0.7,0,1.2,0.6,1.2,1.2v18.5
				c0,1,0.8,1.8,1.8,1.8h21.5c1,0,1.8-0.8,1.8-1.8v-18.5c0-0.7,0.6-1.2,1.2-1.2c0.7,0,1.2,0.6,1.2,1.2v18.5
				C-328.1,582.9-330,584.8-332.3,584.8z"/>
		</g>
		<g id="Group_3654" transform="translate(60.633 0.969)">
			<ellipse id="Ellipse_71-2" class="st1" cx="191.4" cy="261" rx="1.9" ry="1.9"/>
			<ellipse id="Ellipse_72-2" class="st1" cx="194" cy="267.4" rx="1.9" ry="1.9"/>
			<ellipse id="Ellipse_73-2" class="st1" cx="186.3" cy="261" rx="1.9" ry="1.9"/>
			<ellipse id="Ellipse_74-2" class="st1" cx="188.9" cy="267.4" rx="1.9" ry="1.9"/>
			<ellipse id="Ellipse_75-2" class="st1" cx="196.6" cy="261" rx="1.9" ry="1.9"/>
		</g>
	</g>
</g>
<g id="Group_3658" transform="translate(-56 -247)">
	<rect id="Rectangle_575-2" x="178" y="247" class="st0" width="90" height="32"/>
	<path id="Path_568-2" class="st2" d="M223.3,263.9c-0.5,0.5-0.5,1.2,0,1.7l0,0c0.2,0.2,0.5,0.4,0.8,0.4s0.6-0.1,0.8-0.4l3.3-3.3
		c0.2-0.2,0.4-0.5,0.4-0.8s-0.1-0.6-0.4-0.8l-3.3-3.3c-0.5-0.5-1.2-0.5-1.7,0l0,0c-0.5,0.5-0.5,1.2,0,1.7l0,0l1.2,1.2h-5.9
		c-0.7,0-1.2,0.5-1.2,1.2l0,0c0,0.7,0.5,1.2,1.2,1.2l0,0h5.9L223.3,263.9z"/>
	<g id="Group_3656-2" transform="translate(0 -2)">
		<g id="Group_3651-2" transform="translate(537.002 -307.856)">
			<path id="Path_567-3" class="st2" d="M-332.3,584.8h-21.5c-2.3,0-4.2-1.9-4.2-4.2v-18.5c0-0.7,0.6-1.2,1.2-1.2
				c0.7,0,1.2,0.6,1.2,1.2v18.5c0,1,0.8,1.8,1.8,1.8h21.5c1,0,1.8-0.8,1.8-1.8v-18.5c0-0.7,0.6-1.2,1.2-1.2c0.7,0,1.2,0.6,1.2,1.2
				v18.5C-328.1,582.9-330,584.8-332.3,584.8z"/>
		</g>
		<g id="Group_3653-2" transform="translate(2.633 0.969)">
			<ellipse id="Ellipse_71-3" class="st2" cx="191.4" cy="261" rx="1.9" ry="1.9"/>
			<ellipse id="Ellipse_72-3" class="st2" cx="194" cy="267.4" rx="1.9" ry="1.9"/>
			<ellipse id="Ellipse_73-3" class="st2" cx="186.3" cy="261" rx="1.9" ry="1.9"/>
			<ellipse id="Ellipse_74-3" class="st2" cx="188.9" cy="267.4" rx="1.9" ry="1.9"/>
			<ellipse id="Ellipse_75-3" class="st2" cx="196.6" cy="261" rx="1.9" ry="1.9"/>
		</g>
	</g>
	<g id="Group_3655-2" transform="translate(0 -2)">
		<g id="Group_3652-2" transform="translate(595.002 -307.856)">
			<path id="Path_567-4" class="st2" d="M-332.3,584.8h-21.5c-2.3,0-4.2-1.9-4.2-4.2v-18.5c0-0.7,0.6-1.2,1.2-1.2
				c0.7,0,1.2,0.6,1.2,1.2v18.5c0,1,0.8,1.8,1.8,1.8h21.5c1,0,1.8-0.8,1.8-1.8v-18.5c0-0.7,0.6-1.2,1.2-1.2c0.7,0,1.2,0.6,1.2,1.2
				v18.5C-328.1,582.9-330,584.8-332.3,584.8z"/>
		</g>
		<g id="Group_3654-2" transform="translate(60.633 0.969)">
			<ellipse id="Ellipse_71-4" class="st2" cx="191.4" cy="261" rx="1.9" ry="1.9"/>
			<ellipse id="Ellipse_72-4" class="st2" cx="194" cy="267.4" rx="1.9" ry="1.9"/>
			<ellipse id="Ellipse_73-4" class="st2" cx="186.3" cy="261" rx="1.9" ry="1.9"/>
			<ellipse id="Ellipse_74-4" class="st2" cx="188.9" cy="267.4" rx="1.9" ry="1.9"/>
			<ellipse id="Ellipse_75-4" class="st2" cx="196.6" cy="261" rx="1.9" ry="1.9"/>
		</g>
	</g>
</g>
<g id="Group_3648" transform="translate(177 -37)">
	<g id="Group_3430" transform="translate(-93 -248)">
		<rect id="Rectangle_215" x="128" y="285" class="st0" width="32" height="32"/>
		<g id="Group_2185" transform="translate(129.002 286.775)">
			<g id="Group_3431" transform="translate(-34.012 41.167)">
				<path id="Path_519" class="st1" d="M40-39.2h18.4l4,10H35.6L40-39.2z"/>
				<g id="Group_3431-2" transform="translate(302.443 -324.938)">
					<path id="Path_518" d="M-238.6,294.4L-238.6,294.4l-3.2-8.2c-0.6-1.4-1.9-2.3-3.4-2.2h-16.2l0,0c-1.4,0-2.8,0.8-3.3,2.2
						l-3.5,8.2c0,0,0,0,0,0.1c-0.3,0.9-0.2,1.9,0.3,2.7c0.6,0.7,1.5,1.1,2.4,1c0.6,0,1.2-0.1,1.8-0.3v11c0,2,1.7,3.5,3.6,3.5h13.8
						l0,0c1,0,1.9-0.4,2.6-1c0.7-0.6,1.1-1.5,1.1-2.5v-11c0.5,0.2,1,0.2,1.4,0.2c0.9,0.1,1.8-0.3,2.4-1
						C-238.4,296.3-238.3,295.3-238.6,294.4z M-245.3,308.8c0,0.3-0.1,0.6-0.3,0.8c-0.2,0.2-0.5,0.3-0.8,0.3l0,0h-13.8
						c-0.6,0-1.1-0.5-1.1-1.1v-12.3c0.2-0.1,0.3-0.1,0.5-0.2c0.2,0,0.3,0,0.7,0.4c0.7,0.7,1.7,1.2,2.7,1.2c1.1,0,2.1-0.4,2.9-1
						c0.3-0.2,0.7-0.4,1.1-0.5c0.4,0.1,0.8,0.3,1.2,0.5c0.8,0.6,1.8,0.9,2.8,1c1,0,1.9-0.5,2.6-1.2c0.4-0.4,0.6-0.5,0.9-0.5
						c0.2,0,0.4,0.1,0.6,0.2v0.1L-245.3,308.8z M-240.9,295.6c-0.1,0.1-0.3,0.1-0.4,0.1c-0.7-0.1-1.4-0.3-2-0.8
						c-0.7-0.6-1.6-0.9-2.5-1l0,0c-0.9,0-1.8,0.4-2.5,1.1c-0.5,0.4-0.7,0.6-1,0.6l0,0c-0.5-0.1-1.1-0.3-1.5-0.6
						c-0.7-0.5-1.6-0.9-2.5-0.9s-1.7,0.3-2.4,0.8c-0.5,0.4-1,0.6-1.6,0.6c-0.4,0-0.5-0.1-1-0.5c-0.6-0.7-1.5-1.1-2.4-1.1
						c-0.9,0.1-1.8,0.4-2.6,0.9c-0.6,0.5-1.4,0.8-2.2,0.8c-0.1,0-0.3,0-0.4,0c0-0.2,0-0.3,0-0.5l3.5-8.1c0.2-0.4,0.6-0.7,1.1-0.7
						l0,0h16.2c0.5,0,0.9,0.3,1.1,0.7l3.2,8C-240.9,295.3-240.9,295.5-240.9,295.6L-240.9,295.6z"/>
				</g>
			</g>
		</g>
	</g>
	<g id="Group_3432" transform="translate(-35 -248)">
		<rect id="Rectangle_215-2" x="128" y="285" class="st0" width="32" height="32"/>
		<g id="Group_2185-2" transform="translate(129.002 286.775)">
			<g id="Group_3431-3" transform="translate(-34.012 41.167)">
				<path id="Path_519-2" class="st1" d="M40-39.2h18.4l4,10H35.6L40-39.2z"/>
				<g id="Group_3431-4" transform="translate(302.443 -324.938)">
					<path id="Path_518-2" d="M-238.6,294.4L-238.6,294.4l-3.2-8.2c-0.6-1.4-1.9-2.3-3.4-2.2h-16.2l0,0c-1.4,0-2.8,0.8-3.3,2.2
						l-3.5,8.2c0,0,0,0,0,0.1c-0.3,0.9-0.2,1.9,0.3,2.7c0.6,0.7,1.5,1.1,2.4,1c0.6,0,1.2-0.1,1.8-0.3v11c0,2,1.7,3.5,3.6,3.5h13.8
						l0,0c1,0,1.9-0.4,2.6-1c0.7-0.6,1.1-1.5,1.1-2.5v-11c0.5,0.2,1,0.2,1.4,0.2c0.9,0.1,1.8-0.3,2.4-1
						C-238.4,296.3-238.3,295.3-238.6,294.4z M-245.3,308.8c0,0.3-0.1,0.6-0.3,0.8c-0.2,0.2-0.5,0.3-0.8,0.3l0,0h-13.8
						c-0.6,0-1.1-0.5-1.1-1.1v-12.3c0.2-0.1,0.3-0.1,0.5-0.2c0.2,0,0.3,0,0.7,0.4c0.7,0.7,1.7,1.2,2.7,1.2c1.1,0,2.1-0.4,2.9-1
						c0.3-0.2,0.7-0.4,1.1-0.5c0.4,0.1,0.8,0.3,1.2,0.5c0.8,0.6,1.8,0.9,2.8,1c1,0,1.9-0.5,2.6-1.2c0.4-0.4,0.6-0.5,0.9-0.5
						c0.2,0,0.4,0.1,0.6,0.2v0.1L-245.3,308.8z M-240.9,295.6c-0.1,0.1-0.3,0.1-0.4,0.1c-0.7-0.1-1.4-0.3-2-0.8
						c-0.7-0.6-1.6-0.9-2.5-1l0,0c-0.9,0-1.8,0.4-2.5,1.1c-0.5,0.4-0.7,0.6-1,0.6l0,0c-0.5-0.1-1.1-0.3-1.5-0.6
						c-0.7-0.5-1.6-0.9-2.5-0.9s-1.7,0.3-2.4,0.8c-0.5,0.4-1,0.6-1.6,0.6c-0.4,0-0.5-0.1-1-0.5c-0.6-0.7-1.5-1.1-2.4-1.1
						c-0.9,0.1-1.8,0.4-2.6,0.9c-0.6,0.5-1.4,0.8-2.2,0.8c-0.1,0-0.3,0-0.4,0c0-0.2,0-0.3,0-0.5l3.5-8.1c0.2-0.4,0.6-0.7,1.1-0.7
						l0,0h16.2c0.5,0,0.9,0.3,1.1,0.7l3.2,8C-240.9,295.3-240.9,295.5-240.9,295.6L-240.9,295.6z"/>
				</g>
			</g>
		</g>
	</g>
	<path id="Path_523" class="st1" d="M83.9,53.9c-0.5,0.5-0.5,1.2,0,1.7l0,0c0.2,0.2,0.5,0.4,0.8,0.4s0.6-0.1,0.8-0.4l3.3-3.3
		c0.2-0.2,0.4-0.5,0.4-0.8s-0.1-0.6-0.4-0.8l-3.3-3.3c-0.5-0.5-1.2-0.5-1.7,0l0,0c-0.5,0.5-0.5,1.2,0,1.7l0,0l1.2,1.2h-5.9
		c-0.7,0-1.2,0.5-1.2,1.2l0,0c0,0.7,0.5,1.2,1.2,1.2l0,0H85L83.9,53.9z"/>
	<path id="Path_569" d="M76.3,58.9c0.5,0.5,0.5,1.2,0,1.7l0,0c-0.2,0.2-0.5,0.4-0.8,0.4s-0.6-0.1-0.8-0.4l-3.3-3.3
		c-0.2-0.2-0.4-0.5-0.4-0.8s0.1-0.6,0.4-0.8l3.3-3.3c0.5-0.5,1.2-0.5,1.7,0l0,0c0.5,0.5,0.5,1.2,0,1.7l0,0l-1.2,1.2H81
		c0.7,0,1.2,0.5,1.2,1.2l0,0c0,0.7-0.5,1.2-1.2,1.2l0,0h-5.9L76.3,58.9z"/>
	<rect id="Rectangle_576" x="35" y="37" class="st0" width="90" height="32"/>
</g>
<g id="Group_3659" transform="translate(267 -37)">
	<g id="Group_3430-2" transform="translate(-93 -248)">
		<rect id="Rectangle_215-3" x="128" y="285" class="st0" width="32" height="32"/>
		<g id="Group_2185-3" transform="translate(129.002 286.775)">
			<g id="Group_3431-5" transform="translate(-34.012 41.167)">
				<g id="Group_3431-6" transform="translate(302.443 -324.938)">
					<path id="Path_518-3" class="st2" d="M-238.6,294.4L-238.6,294.4l-3.2-8.2c-0.6-1.4-1.9-2.3-3.4-2.2h-16.2l0,0
						c-1.4,0-2.8,0.8-3.3,2.2l-3.5,8.2c0,0,0,0,0,0.1c-0.3,0.9-0.2,1.9,0.3,2.7c0.6,0.7,1.5,1.1,2.4,1c0.6,0,1.2-0.1,1.8-0.3v11
						c0,2,1.7,3.5,3.6,3.5h13.8l0,0c1,0,1.9-0.4,2.6-1c0.7-0.6,1.1-1.5,1.1-2.5v-11c0.5,0.2,1,0.2,1.4,0.2c0.9,0.1,1.8-0.3,2.4-1
						C-238.4,296.3-238.3,295.3-238.6,294.4z M-245.3,308.8c0,0.3-0.1,0.6-0.3,0.8c-0.2,0.2-0.5,0.3-0.8,0.3l0,0h-13.8
						c-0.6,0-1.1-0.5-1.1-1.1v-12.3c0.2-0.1,0.3-0.1,0.5-0.2c0.2,0,0.3,0,0.7,0.4c0.7,0.7,1.7,1.2,2.7,1.2c1.1,0,2.1-0.4,2.9-1
						c0.3-0.2,0.7-0.4,1.1-0.5c0.4,0.1,0.8,0.3,1.2,0.5c0.8,0.6,1.8,0.9,2.8,1c1,0,1.9-0.5,2.6-1.2c0.4-0.4,0.6-0.5,0.9-0.5
						c0.2,0,0.4,0.1,0.6,0.2v0.1L-245.3,308.8z M-240.9,295.6c-0.1,0.1-0.3,0.1-0.4,0.1c-0.7-0.1-1.4-0.3-2-0.8
						c-0.7-0.6-1.6-0.9-2.5-1l0,0c-0.9,0-1.8,0.4-2.5,1.1c-0.5,0.4-0.7,0.6-1,0.6l0,0c-0.5-0.1-1.1-0.3-1.5-0.6
						c-0.7-0.5-1.6-0.9-2.5-0.9s-1.7,0.3-2.4,0.8c-0.5,0.4-1,0.6-1.6,0.6c-0.4,0-0.5-0.1-1-0.5c-0.6-0.7-1.5-1.1-2.4-1.1
						c-0.9,0.1-1.8,0.4-2.6,0.9c-0.6,0.5-1.4,0.8-2.2,0.8c-0.1,0-0.3,0-0.4,0c0-0.2,0-0.3,0-0.5l3.5-8.1c0.2-0.4,0.6-0.7,1.1-0.7
						l0,0h16.2c0.5,0,0.9,0.3,1.1,0.7l3.2,8C-240.9,295.3-240.9,295.5-240.9,295.6L-240.9,295.6z"/>
				</g>
			</g>
		</g>
	</g>
	<g id="Group_3432-2" transform="translate(-35 -248)">
		<rect id="Rectangle_215-4" x="128" y="285" class="st0" width="32" height="32"/>
		<g id="Group_2185-4" transform="translate(129.002 286.775)">
			<g id="Group_3431-7" transform="translate(-34.012 41.167)">
				<g id="Group_3431-8" transform="translate(302.443 -324.938)">
					<path id="Path_518-4" class="st2" d="M-238.6,294.4L-238.6,294.4l-3.2-8.2c-0.6-1.4-1.9-2.3-3.4-2.2h-16.2l0,0
						c-1.4,0-2.8,0.8-3.3,2.2l-3.5,8.2c0,0,0,0,0,0.1c-0.3,0.9-0.2,1.9,0.3,2.7c0.6,0.7,1.5,1.1,2.4,1c0.6,0,1.2-0.1,1.8-0.3v11
						c0,2,1.7,3.5,3.6,3.5h13.8l0,0c1,0,1.9-0.4,2.6-1c0.7-0.6,1.1-1.5,1.1-2.5v-11c0.5,0.2,1,0.2,1.4,0.2c0.9,0.1,1.8-0.3,2.4-1
						C-238.4,296.3-238.3,295.3-238.6,294.4z M-245.3,308.8c0,0.3-0.1,0.6-0.3,0.8c-0.2,0.2-0.5,0.3-0.8,0.3l0,0h-13.8
						c-0.6,0-1.1-0.5-1.1-1.1v-12.3c0.2-0.1,0.3-0.1,0.5-0.2c0.2,0,0.3,0,0.7,0.4c0.7,0.7,1.7,1.2,2.7,1.2c1.1,0,2.1-0.4,2.9-1
						c0.3-0.2,0.7-0.4,1.1-0.5c0.4,0.1,0.8,0.3,1.2,0.5c0.8,0.6,1.8,0.9,2.8,1c1,0,1.9-0.5,2.6-1.2c0.4-0.4,0.6-0.5,0.9-0.5
						c0.2,0,0.4,0.1,0.6,0.2v0.1L-245.3,308.8z M-240.9,295.6c-0.1,0.1-0.3,0.1-0.4,0.1c-0.7-0.1-1.4-0.3-2-0.8
						c-0.7-0.6-1.6-0.9-2.5-1l0,0c-0.9,0-1.8,0.4-2.5,1.1c-0.5,0.4-0.7,0.6-1,0.6l0,0c-0.5-0.1-1.1-0.3-1.5-0.6
						c-0.7-0.5-1.6-0.9-2.5-0.9s-1.7,0.3-2.4,0.8c-0.5,0.4-1,0.6-1.6,0.6c-0.4,0-0.5-0.1-1-0.5c-0.6-0.7-1.5-1.1-2.4-1.1
						c-0.9,0.1-1.8,0.4-2.6,0.9c-0.6,0.5-1.4,0.8-2.2,0.8c-0.1,0-0.3,0-0.4,0c0-0.2,0-0.3,0-0.5l3.5-8.1c0.2-0.4,0.6-0.7,1.1-0.7
						l0,0h16.2c0.5,0,0.9,0.3,1.1,0.7l3.2,8C-240.9,295.3-240.9,295.5-240.9,295.6L-240.9,295.6z"/>
				</g>
			</g>
		</g>
	</g>
	<path id="Path_523-2" class="st2" d="M83.9,53.9c-0.5,0.5-0.5,1.2,0,1.7l0,0c0.2,0.2,0.5,0.4,0.8,0.4s0.6-0.1,0.8-0.4l3.3-3.3
		c0.2-0.2,0.4-0.5,0.4-0.8s-0.1-0.6-0.4-0.8l-3.3-3.3c-0.5-0.5-1.2-0.5-1.7,0l0,0c-0.5,0.5-0.5,1.2,0,1.7l0,0l1.2,1.2h-5.9
		c-0.7,0-1.2,0.5-1.2,1.2l0,0c0,0.7,0.5,1.2,1.2,1.2l0,0H85L83.9,53.9z"/>
	<path id="Path_569-2" class="st2" d="M76.3,58.9c0.5,0.5,0.5,1.2,0,1.7l0,0c-0.2,0.2-0.5,0.4-0.8,0.4s-0.6-0.1-0.8-0.4l-3.3-3.3
		c-0.2-0.2-0.4-0.5-0.4-0.8s0.1-0.6,0.4-0.8l3.3-3.3c0.5-0.5,1.2-0.5,1.7,0l0,0c0.5,0.5,0.5,1.2,0,1.7l0,0l-1.2,1.2H81
		c0.7,0,1.2,0.5,1.2,1.2l0,0c0,0.7-0.5,1.2-1.2,1.2l0,0h-5.9L76.3,58.9z"/>
	<rect id="Rectangle_576-2" x="35" y="37" class="st0" width="90" height="32"/>
</g>
<g id="Group_3659-2" transform="translate(329 -28)">
	<g id="Group_3658-2">
		<rect id="Rectangle_577" x="63" y="28" class="st0" width="32" height="32"/>
		<g id="Group_319" transform="translate(477.536 -467.485)">
			<g id="noun_Arrow_1953010" transform="translate(-404.577 512.484)">
				<g id="Group_256">
					<path id="Path_61" d="M0.2,5.6c-0.3,0.2-0.3,0.6,0,0.9l0,0l0,0l1.4,1.4c0.2,0.3,0.6,0.3,0.9,0l0,0l0,0L4.4,6v8.1
						c0,0.4,0.3,0.6,0.6,0.6h2c0.4,0,0.7-0.3,0.7-0.6V6l1.9,1.9c0.2,0.3,0.6,0.3,0.9,0l0,0l0,0l1.4-1.4c0.3-0.2,0.3-0.6,0-0.9l0,0
						l0,0L6.5,0.2c-0.2-0.3-0.6-0.3-0.9,0l0,0l0,0L0.2,5.6z"/>
				</g>
			</g>
			<g id="noun_Arrow_1953010-2" transform="translate(-414.512 495.484)">
				<g id="Group_256-2">
					<path id="Path_61-2" class="st1" d="M0,9.2c-0.1,0.4,0.1,0.8,0.5,0.9c0,0,0,0,0.1,0l2.2,0.6c0.4,0.1,0.8-0.1,0.9-0.5
						c0,0,0,0,0-0.1l0.8-3l4.7,8.2c0.2,0.4,0.7,0.5,1,0.3l2-1.1c0.4-0.2,0.5-0.7,0.3-1L7.8,5.2l3,0.8c0.4,0.1,0.8-0.1,0.9-0.5
						c0,0,0,0,0-0.1l0.6-2.2c0.1-0.4-0.1-0.8-0.5-0.9l0,0c0,0,0,0-0.1,0L3.3,0c-0.4-0.1-0.8,0.1-1,0.5c0,0,0,0,0,0.1L0,9.2z"/>
				</g>
			</g>
			<g id="noun_Arrow_1953010-3" transform="translate(-395.178 495.489)">
				<g id="Group_256-3">
					<path id="Path_61-3" class="st1" d="M0.8,2.3C0.4,2.4,0.2,2.8,0.3,3.2l0,0c0,0,0,0,0,0.1l0.6,2.2C1,5.8,1.3,6.1,1.7,6
						c0,0,0,0,0.1,0l3-0.8l-4.7,8.2c-0.2,0.4-0.1,0.8,0.3,1l2,1.1c0.4,0.2,0.8,0.1,1-0.3L8.1,7l0.8,3c0.1,0.4,0.5,0.6,0.9,0.5l0,0
						c0,0,0,0,0.1,0l2.2-0.6c0.4-0.1,0.6-0.5,0.5-0.9c0,0,0,0,0-0.1l-2.3-8.6C10.2,0.2,9.8-0.1,9.4,0l0,0c0,0,0,0-0.1,0L0.8,2.3z"/>
				</g>
			</g>
		</g>
	</g>
</g>
<g id="Group_3660" transform="translate(361 -28)">
	<g id="Group_3658-3">
		<rect id="Rectangle_577-2" x="63" y="28" class="st0" width="32" height="32"/>
		<g id="Group_319-2" transform="translate(477.536 -467.485)">
			<g id="noun_Arrow_1953010-2-2" transform="translate(-404.577 512.484)">
				<g id="Group_256-2-2">
					<path id="Path_61-2-2" class="st2" d="M0.2,5.6c-0.3,0.2-0.3,0.6,0,0.9l0,0l0,0l1.4,1.4c0.2,0.3,0.6,0.3,0.9,0l0,0l0,0L4.4,6
						v8.1c0,0.4,0.3,0.6,0.6,0.6h2c0.4,0,0.7-0.3,0.7-0.6V6l1.9,1.9c0.2,0.3,0.6,0.3,0.9,0l0,0l0,0l1.4-1.4c0.3-0.2,0.3-0.6,0-0.9
						l0,0l0,0L6.5,0.2c-0.2-0.3-0.6-0.3-0.9,0l0,0l0,0L0.2,5.6z"/>
				</g>
			</g>
			<g id="noun_Arrow_1953010-2-3" transform="translate(-414.512 495.484)">
				<g id="Group_256-2-3">
					<path id="Path_61-2-3" class="st2" d="M0,9.2c-0.1,0.4,0.1,0.8,0.5,0.9c0,0,0,0,0.1,0l2.2,0.6c0.4,0.1,0.8-0.1,0.9-0.5
						c0,0,0,0,0-0.1l0.8-3l4.7,8.2c0.2,0.4,0.7,0.5,1,0.3l2-1.1c0.4-0.2,0.5-0.7,0.3-1L7.8,5.2l3,0.8c0.4,0.1,0.8-0.1,0.9-0.5
						c0,0,0,0,0-0.1l0.6-2.2c0.1-0.4-0.1-0.8-0.5-0.9l0,0c0,0,0,0-0.1,0L3.3,0c-0.4-0.1-0.8,0.1-1,0.5c0,0,0,0,0,0.1L0,9.2z"/>
				</g>
			</g>
			<g id="noun_Arrow_1953010-3-2" transform="translate(-395.178 495.489)">
				<g id="Group_256-3-2">
					<path id="Path_61-3-2" class="st2" d="M0.8,2.3C0.4,2.4,0.2,2.8,0.3,3.2l0,0c0,0,0,0,0,0.1l0.6,2.2C1,5.8,1.3,6.1,1.7,6
						c0,0,0,0,0.1,0l3-0.8l-4.7,8.2c-0.2,0.4-0.1,0.8,0.3,1l2,1.1c0.4,0.2,0.8,0.1,1-0.3L8.1,7l0.8,3c0.1,0.4,0.5,0.6,0.9,0.5l0,0
						c0,0,0,0,0.1,0l2.2-0.6c0.4-0.1,0.6-0.5,0.5-0.9c0,0,0,0,0-0.1l-2.3-8.6C10.2,0.2,9.8-0.1,9.4,0l0,0c0,0,0,0-0.1,0L0.8,2.3z"/>
				</g>
			</g>
		</g>
	</g>
</g>
<g id="Group_3675" transform="translate(430 -26)">
	<g id="Group_264" transform="translate(8.165 27)">
		<path id="Path_64" class="st3" d="M35.3,17.1c0.6,2.9,1.9,5.5,3.9,7.7c1.2,1.4,2.7,2.4,4.5,2.9c0.2,0.1,0.5,0.3,0.6,0
			s-0.2-0.4-0.4-0.5c-0.9-0.6-1.6-1.3-2.3-2.1c-2.6-3.3-4-7.4-4-11.6c-0.1-3.2,0-6.4,0-9.6V3.5c1.1,0.4,2.2,0.6,3.4,0.6
			c1.8,0,3.5,0,5.3,0c1,0,2,0.6,2.4,1.5l0.2,0.3c0-0.1,0.1-0.2,0.1-0.3c0.4-2-1-3.9-2.9-4.2c-0.2,0-0.5-0.1-0.7-0.1
			c-2.2,0-4.4,0-6.6,0c-1.4-0.1-2.7-0.5-3.9-1.3h-0.1c0,3.9,0,7.8,0,11.8C34.6,13.6,34.8,15.4,35.3,17.1z"/>
		<path id="Path_65" class="st3" d="M33.1,0.2c0-0.1,0-0.1,0-0.2c-0.2,0.1-0.4,0.2-0.6,0.3c-1.2,0.7-2.6,1-4,1c-1.9-0.1-3.9,0-5.8,0
			c-0.3,0-0.6,0-0.9,0.1c-2,0.5-3.3,2.5-2.8,4.5V6c0-0.1,0-0.1,0.1-0.2c0.5-1.2,1.8-1.9,3.1-1.7c1.8,0,3.5,0,5.3,0
			c0.5,0,1-0.1,1.4-0.1c0.5-0.1,0.9-0.2,1.4-0.4c0,3.1,0,6.2,0,9.3c0,2.9-0.6,5.8-1.8,8.5c-0.9,2.4-2.6,4.5-4.7,6
			c-0.1,0.1-0.1,0.1-0.2,0.2s-0.2,0.2-0.1,0.3c0.1,0.1,0.2,0.1,0.3,0.1c0.5-0.1,1.1-0.3,1.6-0.5c1.8-0.9,3.3-2.3,4.4-3.9
			c2.1-3.1,3.3-6.8,3.3-10.6C33.2,8.6,33,4.4,33.1,0.2z"/>
		<path id="Path_71" class="st3" d="M33.9,25.7c-1.1,0-2,0.8-2.1,2v0.1c0,1.1,0.9,2.1,2,2.1c1.1,0,2-0.9,2-2.1
			C35.9,26.7,35,25.7,33.9,25.7z"/>
	</g>
	<rect id="Rectangle_579-2" x="26" y="26" class="st0" width="32" height="32"/>
</g>
<g id="Group_3743" transform="translate(249.001 -511)">
	<g id="Group_3729" transform="translate(239.912 515.001)">
		<g id="Group_3651-3" transform="translate(0 0)">
			<path id="Path_567-5" class="st2" d="M25.9,24.1H4.3c-2.4,0-4.3-1.9-4.3-4.3V1.2C0,0.6,0.6,0,1.2,0c0.7,0,1.2,0.6,1.2,1.2v18.6
				c0,1,0.8,1.8,1.8,1.8h21.6c1,0,1.8-0.8,1.8-1.8V1.2c0-0.7,0.6-1.2,1.2-1.2C29.5,0,30,0.6,30,1.2v18.6
				C30.1,22.2,28.2,24.1,25.9,24.1z"/>
		</g>
		<g id="Group_3653-3" transform="translate(8.047 7.042)">
			<ellipse id="Ellipse_71-5" class="st2" cx="7.1" cy="1.9" rx="1.9" ry="1.9"/>
			<ellipse id="Ellipse_72-5" class="st2" cx="9.7" cy="8.4" rx="1.9" ry="1.9"/>
			<ellipse id="Ellipse_73-5" class="st2" cx="1.9" cy="1.9" rx="1.9" ry="1.9"/>
			<ellipse id="Ellipse_74-5" class="st2" cx="4.5" cy="8.4" rx="1.9" ry="1.9"/>
			<ellipse id="Ellipse_75-5" class="st2" cx="12.3" cy="1.9" rx="1.9" ry="1.9"/>
		</g>
	</g>
	<rect id="Rectangle_596" x="239" y="511" class="st0" width="32" height="32"/>
</g>
<g id="Group_2986" transform="translate(392 -285)">
	<rect id="Rectangle_215-5" x="128" y="285" class="st0" width="32" height="32"/>
	<g id="Group_3905" transform="translate(-286 175)">
		<g id="Ellipse_89" transform="translate(417 113)">
			<circle class="st0" cx="12.3" cy="12.3" r="12.3"/>
			<circle class="st4" cx="12.3" cy="12.3" r="11.5"/>
		</g>
		<path id="Path_623" class="st5" d="M437.6,133.6l5.4,5.4"/>
	</g>
</g>
<g id="Group_4119" transform="translate(489 -37)">
	<g id="Group_4259" transform="translate(-247.399 16.35)">
		<g id="Group_4260" transform="translate(326.507 38.634)">
			<circle id="Ellipse_97" class="st6" cx="6.2" cy="6.3" r="6.5"/>
			<line id="Line_104" class="st7" x1="6.2" y1="3.8" x2="6.2" y2="5.8"/>
			<circle id="Ellipse_98" cx="6.2" cy="8.9" r="1.2"/>
		</g>
		<g id="Group_4261" transform="translate(311.939 21.9)">
			<path id="Line_100" class="st7" d="M6.5,15.9h6.4"/>
			<path id="Line_100-2" class="st7" d="M6.5,10.7h11.2"/>
			<path id="Line_101" class="st7" d="M6.5,21.2h3.8"/>
			<path id="Rectangle_784" class="st8" d="M3,0h18.1c1.7,0,3,1.3,3,3v2.3l0,0H0l0,0V3C0,1.3,1.3,0,3,0z"/>
		</g>
		<g id="Layer_2_00000131340973978932244440000011573027950171616385_" transform="translate(311.907 27.236)">
			<g id="Layer_4" transform="translate(0 0)">
				<path id="Rectangle_782" class="st9" d="M12.4,24.2h-9c-1.8,0.1-3.3-1.2-3.4-3L0,0h24.1v7.7"/>
			</g>
		</g>
	</g>
	<rect id="Rectangle_785" x="62" y="37" class="st0" width="32" height="32"/>
</g>
<g id="Group_4262" transform="translate(15916 20993)">
	<rect id="Rectangle_577-3" x="-15333" y="-20993" class="st0" width="32" height="32"/>
	<g id="Group_4108" transform="translate(-15625.73 -21165.059)">
		<g id="Path_1514" transform="translate(310.303 173.166)">
			<path id="Path_1627" class="st0" d="M0,5.3L4.8,0l11.4,6.9L11.3,12"/>
		</g>
		<g id="Path_1515" transform="translate(293.511 173.17)">
			<path id="Path_1628" class="st0" d="M16.2,5.3L11.4,0L0,6.9L4.9,12"/>
		</g>
		<g id="Path_1516" transform="translate(293.834 185.113)">
			<path id="Path_1629" class="st0" d="M0,0l11.5,6.7l4.7-0.5L5.2,0H0z"/>
		</g>
		<g id="Path_1517" transform="translate(310.57 185.113)">
			<path id="Path_1630" class="st0" d="M16.2,0L4.7,6.7L0,6.1L11.1,0H16.2z"/>
		</g>
		<g id="Path_1717" transform="translate(310.377 174.4)">
			<path id="Path_1631" class="st1" d="M0,4.6L4.4,0l10.3,6.3l-4.5,4.5L0,4.6z"/>
		</g>
		<g id="Path_1718" transform="translate(296.902 174.4)">
			<path id="Path_1632" class="st1" d="M14.7,4.6L10.3,0L0,6.3l4.5,4.5L14.7,4.6z"/>
		</g>
		<g id="Path_1719" transform="translate(310.935 185.208)">
			<path id="Path_1633" class="st1" d="M0,6l10.7-6l4.2,0.2L4.1,6.4L0,6z"/>
		</g>
		<g id="Path_1720" transform="translate(296.446 185.436)">
			<path id="Path_1634" class="st1" d="M13.7,5.6L3.8,0L0,0.2L9.9,6L13.7,5.6z"/>
		</g>
		<path id="Path_1635" d="M326.5,185.1c-0.1-0.4-0.5-0.8-1-0.8h-2.4l2.9-3c0.4-0.4,0.4-1,0-1.4c-0.1-0.1-0.1-0.1-0.2-0.1l-10.5-6.3
			c-0.4-0.3-1-0.2-1.3,0.2l-3.6,4l-3.6-4c-0.3-0.4-0.9-0.4-1.3-0.2l-10.5,6.3c-0.5,0.3-0.6,0.9-0.3,1.4c0,0.1,0.1,0.1,0.1,0.2l2.9,3
			h-2.5c-0.6,0-1,0.5-1,1c0,0.4,0.2,0.7,0.5,0.9l4.4,2.5v7.3c0,0.4,0.2,0.7,0.5,0.9l10.3,5.7c0.3,0.2,0.7,0.2,1,0l10.4-5.7
			c0.3-0.2,0.5-0.5,0.5-0.9v-7.3l4.2-2.4C326.4,186,326.6,185.6,326.5,185.1z M314.4,190.5h-0.6l7.2-4.1h0.7L314.4,190.5z
			 M310.3,180.4l8.4,4.9l-8.4,4.8l-8.3-4.8L310.3,180.4z M314.9,175.7l8.7,5.2l-3,3.2L312,179L314.9,175.7z M305.8,175.7l3,3.3
			l-8.6,5.1l-3.1-3.2L305.8,175.7z M299.8,186.4l7.1,4.1h-0.7l-7.3-4.1H299.8z M301.1,189.9l4.4,2.5c0.2,0.1,0.3,0.1,0.5,0.1h0.1
			l3.2-0.2v7.6l-8.2-4.6V189.9z M319.7,195.4l-8.4,4.6v-7.7l3.3,0.2h0.1c0.2,0,0.4,0,0.5-0.1l4.6-2.6v5.6H319.7z"/>
	</g>
</g>
<g id="Group_4608" transform="translate(15950 20993)">
	<rect id="Rectangle_577-4" x="-15333" y="-20993" class="st0" width="32" height="32"/>
	<g id="Group_4609" transform="translate(-15332 -20984)">
		<g id="Rectangle_682">
			<path class="st0" d="M7.5,0h15C26.6,0,30,3.4,30,7.5l0,0c0,4.1-3.4,7.5-7.5,7.5h-15C3.4,15,0,11.6,0,7.5l0,0C0,3.4,3.4,0,7.5,0z"
				/>
			<path class="st10" d="M7.5,0.5h15c3.9,0,7,3.1,7,7l0,0c0,3.9-3.1,7-7,7h-15c-3.9,0-7-3.1-7-7l0,0C0.5,3.6,3.6,0.5,7.5,0.5z"/>
		</g>
		<circle id="Ellipse_99" class="st1" cx="22.5" cy="7.5" r="5.5"/>
	</g>
</g>
<g id="Group_4615" transform="translate(15982 20993)">
	<rect id="Rectangle_577-5" x="-15333" y="-20993" class="st0" width="32" height="32"/>
	<g id="Group_4609-2" transform="translate(-15332 -20984)">
		<g id="Rectangle_682-2">
			<path class="st0" d="M7.5,0h15C26.6,0,30,3.4,30,7.5l0,0c0,4.1-3.4,7.5-7.5,7.5h-15C3.4,15,0,11.6,0,7.5l0,0C0,3.4,3.4,0,7.5,0z"
				/>
			<path class="st10" d="M7.5,0.5h15c3.9,0,7,3.1,7,7l0,0c0,3.9-3.1,7-7,7h-15c-3.9,0-7-3.1-7-7l0,0C0.5,3.6,3.6,0.5,7.5,0.5z"/>
		</g>
		<circle id="Ellipse_99-2" class="st11" cx="7.5" cy="7.5" r="5.5"/>
	</g>
</g>
<g id="Group_4610" transform="translate(16046 20993)">
	<rect id="Rectangle_577-6" x="-15333" y="-20993" class="st0" width="32" height="32"/>
	<g id="Group_4617" transform="translate(-15662.613 -25075.686)">
		<g id="Group_4617-2" transform="translate(338.861 4086.685)">
			<path id="Path_2110" class="st1" d="M11.6,10.2c-0.5,0-0.9-0.4-0.9-0.9l0,0V5.2c0-1.9-2-3.4-4.5-3.4S1.8,3.3,1.8,5.2v4.1
				c0,0.5-0.4,0.9-0.9,0.9C0.4,10.2,0,9.8,0,9.3V5.2C0,2.3,2.8,0,6.3,0s6.3,2.3,6.3,5.2v4.1C12.5,9.8,12.1,10.2,11.6,10.2z"/>
		</g>
		<path id="Path_2111" class="st1" d="M345.8,4104.5l0.4,2.9h-1.7l0.4-2.9c-0.6-0.2-0.9-0.9-0.6-1.5c0.2-0.6,0.9-0.9,1.5-0.6
			s0.9,0.9,0.6,1.5C346.3,4104.1,346,4104.4,345.8,4104.5L345.8,4104.5z"/>
		<path id="Path_2112" d="M352.7,4095.3h-14.8c-1.8,0-3.3,1.5-3.3,3.3v8.7c0,1.8,1.5,3.3,3.3,3.3h14.8c1.8,0,3.3-1.5,3.3-3.3v-8.7
			C356.1,4096.8,354.6,4095.3,352.7,4095.3z M336.2,4098.6c0-1,0.8-1.8,1.8-1.8h14.8c1,0,1.8,0.8,1.8,1.8v8.7c0,1-0.8,1.8-1.8,1.8
			H338c-1,0-1.8-0.8-1.8-1.8V4098.6z"/>
	</g>
</g>
<g id="Group_4616" transform="translate(16014 20993)">
	<rect id="Rectangle_577-7" x="-15333" y="-20993" class="st0" width="32" height="32"/>
	<g id="Group_4611" transform="translate(-15934.051 -25075.686)">
		<g id="Group_4478" transform="translate(618.036 4086.685)">
			<path id="Path_1387" class="st1" d="M11.6,10.2c-0.5,0-0.9-0.4-0.9-0.9l0,0V5.2c0-1.9-2-3.4-4.5-3.4S1.8,3.3,1.8,5.2v4.1
				c0,0.5-0.4,0.9-0.9,0.9C0.4,10.2,0,9.8,0,9.3V5.2C0,2.3,2.8,0,6.3,0s6.3,2.3,6.3,5.2v4.1C12.5,9.8,12.1,10.2,11.6,10.2z"/>
		</g>
		<g id="Group_4479" transform="translate(612.647 4102.311)">
			<path id="Path_1388" class="st1" d="M1.6,2.2L2,5.1H0.3l0.4-2.9C0.1,1.9-0.2,1.3,0.1,0.7C0.3,0.1,1-0.2,1.6,0.1
				C2.1,0.3,2.4,1,2.2,1.6C2.1,1.8,1.8,2.1,1.6,2.2z"/>
		</g>
		<g id="Group_4480" transform="translate(603.051 4095.293)">
			<path id="Path_1389" d="M18.1,0H3.3C1.5,0,0,1.5,0,3.3V12c0,1.8,1.5,3.3,3.3,3.3h14.8c1.8,0,3.3-1.5,3.3-3.3V3.3
				C21.4,1.5,20,0,18.1,0z M1.6,3.3c0-1,0.8-1.8,1.8-1.8h14.8c1,0,1.8,0.8,1.8,1.8V12c0,1-0.8,1.8-1.8,1.8H3.3c-1,0-1.8-0.8-1.8-1.8
				L1.6,3.3z"/>
		</g>
	</g>
</g>
<g id="Group_4795" transform="translate(16076 21027)">
	<rect id="Rectangle_577-8" x="-15331" y="-21027" class="st0" width="64" height="32"/>
	<g id="Group_4798" transform="translate(1 -34)">
		<g id="Group_4796" transform="translate(-15459 -21278)">
			<rect id="Rectangle_215-6" x="128" y="285" class="st0" width="32" height="32"/>
			<g id="Group_2185-5" transform="translate(129.002 286.775)">
				<g id="Group_3431-9" transform="translate(-34.012 41.167)">
					<path id="Path_519-3" class="st1" d="M40-39.2h18.4l4,10H35.6L40-39.2z"/>
					<g id="Group_3431-10" transform="translate(302.443 -324.938)">
						<path id="Subtraction_6" d="M-246.4,312.3h-13.8c-1.7,0-3.2-1.1-3.5-2.8h2.7c0.2,0.3,0.5,0.4,0.9,0.4h13.8
							c0.3,0,0.6-0.1,0.8-0.3c0.2-0.2,0.3-0.5,0.3-0.8v-12.2l0,0l0,0c-0.2-0.1-0.4-0.2-0.6-0.2l0,0c-0.2,0-0.4,0.2-0.8,0.5l0,0
							c-0.7,0.7-1.6,1.1-2.6,1.2c-1-0.1-2-0.4-2.8-1c-0.4-0.3-0.8-0.5-1.2-0.5c-0.4,0.1-0.8,0.2-1.1,0.5l0,0c-0.9,0.6-1.9,0.9-2.9,1
							c-1,0-2-0.4-2.7-1.2c-0.4-0.4-0.5-0.4-0.7-0.4s-0.4,0.1-0.5,0.1v3h-2.5v-1.7c-0.6,0.2-1.2,0.3-1.8,0.3c-0.9,0.1-1.8-0.3-2.4-1
							c-0.5-0.8-0.6-1.8-0.3-2.7c0,0,0,0,0-0.1l3.5-8.2c0.6-1.3,1.9-2.2,3.3-2.2h16.2c1.5,0,2.8,0.9,3.4,2.2l3.2,8.1c0,0,0,0,0,0.1
							c0.3,0.9,0.2,1.9-0.3,2.7c-0.6,0.7-1.5,1.1-2.4,1c-0.5,0-1-0.1-1.4-0.2v11c0,0.9-0.4,1.8-1.1,2.5
							C-244.6,311.9-245.5,312.3-246.4,312.3z M-245.9,293.9L-245.9,293.9c0.9,0.1,1.8,0.4,2.6,1l0,0c0.6,0.5,1.3,0.7,2,0.8
							c0.2,0,0.3,0,0.4-0.1c0-0.2,0-0.3,0-0.5l-3.2-8c-0.2-0.4-0.6-0.7-1.1-0.7h-16.2c-0.5,0-0.9,0.3-1.1,0.7l-3.5,8.1
							c-0.1,0.2-0.1,0.3,0,0.5c0.1,0,0.2,0.1,0.4,0c0.8,0,1.6-0.3,2.2-0.8l0,0l0,0c0.7-0.5,1.6-0.9,2.5-0.9s1.8,0.4,2.4,1.1
							c0.4,0.4,0.6,0.5,1,0.5c0.6,0,1.2-0.3,1.6-0.6c0.7-0.5,1.5-0.8,2.4-0.8c0.9,0.1,1.8,0.4,2.5,0.9l0,0l0,0
							c0.4,0.3,0.9,0.5,1.5,0.6c0.3,0,0.5-0.2,1-0.6C-247.7,294.4-246.9,294-245.9,293.9z"/>
					</g>
				</g>
			</g>
		</g>
		<g id="Group_4797" transform="translate(-15428 -21278)">
			<rect id="Rectangle_215-7" x="128" y="285" class="st0" width="32" height="32"/>
			<g id="Group_2185-6" transform="translate(129.002 286.775)">
				<g id="Group_3431-11" transform="translate(-34.012 41.167)">
					<path id="Path_519-4" class="st1" d="M40-39.2h18.4l4,10H35.6L40-39.2z"/>
					<g id="Group_3431-12" transform="translate(302.443 -324.938)">
						<path id="Subtraction_6-2" d="M-246.4,312.3h-13.8c-2,0-3.6-1.5-3.6-3.5v-11c-0.6,0.2-1.2,0.3-1.8,0.3c-0.9,0.1-1.8-0.3-2.4-1
							c-0.5-0.8-0.6-1.8-0.3-2.7c0,0,0,0,0-0.1l3.5-8.2c0.6-1.3,1.9-2.2,3.3-2.2h16.2c1.5,0,2.8,0.9,3.4,2.2l3.2,8.1c0,0,0,0,0,0.1
							c0.3,0.9,0.2,1.9-0.3,2.7c-0.6,0.7-1.5,1.1-2.4,1c-0.5,0-1-0.1-1.4-0.2v1.6h-2.5v-2.9l0,0l0,0c-0.2-0.1-0.4-0.2-0.6-0.2l0,0
							c-0.2,0-0.4,0.2-0.8,0.5l0,0c-0.7,0.7-1.6,1.1-2.6,1.2c-1-0.1-2-0.4-2.8-1c-0.4-0.3-0.8-0.5-1.2-0.5c-0.4,0.1-0.8,0.2-1.1,0.5
							l0,0c-0.9,0.6-1.9,0.9-2.9,1c-1,0-2-0.4-2.7-1.2c-0.4-0.4-0.5-0.4-0.7-0.4s-0.4,0.1-0.5,0.1v12.3c0,0.6,0.5,1.1,1.1,1.1h13.8
							c0.3,0,0.6-0.1,0.8-0.3l0.1-0.1h2.7c-0.1,0.7-0.5,1.3-1,1.8C-244.6,311.9-245.5,312.3-246.4,312.3z M-245.9,293.9
							L-245.9,293.9c0.9,0.1,1.8,0.4,2.6,1l0,0c0.6,0.5,1.3,0.7,2,0.8c0.2,0,0.3,0,0.4-0.1c0-0.2,0-0.3,0-0.5l-3.2-8
							c-0.2-0.4-0.6-0.7-1.1-0.7h-16.2c-0.5,0-0.9,0.3-1.1,0.7l-3.5,8.1c-0.1,0.2-0.1,0.3,0,0.5c0.1,0,0.2,0.1,0.4,0
							c0.8,0,1.6-0.3,2.2-0.8l0,0l0,0c0.7-0.5,1.6-0.9,2.5-0.9s1.8,0.4,2.4,1.1c0.4,0.4,0.6,0.5,1,0.5c0.6,0,1.2-0.3,1.6-0.6
							c0.7-0.5,1.5-0.8,2.4-0.8c0.9,0.1,1.8,0.4,2.5,0.9l0,0l0,0c0.4,0.3,0.9,0.5,1.5,0.6c0.3,0,0.5-0.2,1-0.6
							C-247.7,294.4-246.9,294-245.9,293.9z"/>
					</g>
				</g>
			</g>
		</g>
		<path id="Path_2115" d="M-15325.7-20968.1c0.5,0.5,0.5,1.2,0,1.7l0,0c-0.2,0.2-0.5,0.4-0.8,0.4s-0.6-0.1-0.8-0.4l-3.3-3.3
			c-0.2-0.2-0.4-0.5-0.4-0.8s0.1-0.6,0.4-0.8l3.3-3.3c0.5-0.5,1.2-0.5,1.7,0l0,0c0.5,0.5,0.5,1.2,0,1.7l0,0l-1.2,1.2h10.9
			c0.7,0,1.2,0.5,1.2,1.2l0,0c0,0.7-0.5,1.2-1.2,1.2l0,0h-10.9L-15325.7-20968.1z"/>
		<path id="Path_2116" class="st1" d="M-15274.1-20973c-0.5-0.5-0.5-1.2,0-1.7l0,0c0.2-0.2,0.5-0.4,0.8-0.4s0.6,0.1,0.8,0.4l3.3,3.3
			c0.2,0.2,0.4,0.5,0.4,0.8s-0.1,0.6-0.4,0.8l-3.3,3.3c-0.5,0.5-1.2,0.5-1.7,0l0,0c-0.5-0.5-0.5-1.2,0-1.7l0,0l1.2-1.2h-10.9
			c-0.7,0-1.2-0.5-1.2-1.2l0,0c0-0.7,0.5-1.2,1.2-1.2l0,0h10.9L-15274.1-20973z"/>
	</g>
</g>
<g id="Group_6121" transform="translate(809 -207)">
	<rect id="Rectangle_596-2" y="207" class="st12" width="32" height="32"/>
	<g id="noun_receipt_561599_1_" transform="translate(4 207)">
		<path id="Path_1" class="st1" d="M0.9,1.1v29.6h15.9v-6.8h6.8V1.1H0.9z"/>
		<g id="Group_1" transform="translate(0 0)">
			<path id="Path_2" d="M6.9,8.1C6.9,8.1,6.8,8.1,6.9,8.1z"/>
			<path id="Path_3" d="M6.7,9.9C6.6,9.9,6.7,9.9,6.7,9.9z"/>
			<path id="Path_4" d="M23.4,0H0.9C0.4,0,0,0.4,0,0.9V31c0,0.5,0.4,0.9,0.9,0.9h15.6c0.2,0,0.5-0.1,0.6-0.3l7-7
				c0.2-0.2,0.3-0.4,0.3-0.6V0.9C24.3,0.4,23.9,0,23.4,0z M17.3,28.8v-4h4L17.3,28.8z M22.6,23.1h-6.1c-0.5,0-0.9,0.4-0.9,0.9v6.1
				H1.8V1.8h20.8L22.6,23.1z"/>
			<path id="Path_5" class="st2" d="M12.8,5.4H20c0.5,0,0.9-0.5,0.8-1c0-0.4-0.4-0.8-0.8-0.8h-7.2c-0.5,0-0.9,0.5-0.8,1
				C12.1,5.1,12.4,5.4,12.8,5.4z"/>
			<path id="Path_6" class="st2" d="M12.8,10H20c0.5,0,0.9-0.5,0.8-1c0-0.4-0.4-0.8-0.8-0.8h-7.2c-0.5,0-0.9,0.5-0.8,1
				C12.1,9.6,12.4,10,12.8,10z"/>
			<path id="Path_7" class="st2" d="M12.8,14.6H20c0.5,0,0.9-0.5,0.8-1c0-0.4-0.4-0.8-0.8-0.8h-7.2c-0.5,0-0.9,0.5-0.8,1
				C12.1,14.2,12.4,14.5,12.8,14.6z"/>
			<path id="Path_8" class="st2" d="M4.1,19.1H20c0.5,0,0.9-0.4,0.9-0.9s-0.4-0.9-0.9-0.9H4.1c-0.5,0-0.9,0.4-0.9,0.9
				C3.2,18.7,3.6,19.1,4.1,19.1z"/>
			<path id="Path_9" class="st2" d="M4.1,23.6h7.8c0.5,0,0.9-0.4,0.9-0.9s-0.4-0.9-0.9-0.9l0,0H4.1c-0.5,0-0.9,0.4-0.9,0.9
				C3.2,23.2,3.6,23.6,4.1,23.6z"/>
			<path id="Path_10" class="st2" d="M4.1,28.2h7.8c0.5,0,0.9-0.4,0.9-0.9s-0.4-0.9-0.9-0.9l0,0H4.1c-0.5,0-0.9,0.4-0.9,0.9
				C3.2,27.8,3.6,28.2,4.1,28.2z"/>
		</g>
		<path id="Path_2751" class="st13" d="M10.4,10.8c-0.1-0.3-0.1-0.6-0.2-0.9C9.9,9,9.4,8.1,8.7,7.4C8.6,7.2,8.4,7,8.2,6.9
			C8.1,6.8,8,6.7,7.8,6.6c0,0,0,0,0-0.1c0.1,0,0.1-0.1,0.2-0.2c0.2-0.4,0.4-0.8,0.6-1.1l0,0v0.1c0,0,0.1-0.2,0.1-0.3
			c0.1-0.1,0.1-0.2,0.1-0.3c-0.1,0-0.1-0.1-0.2-0.1l0,0c-1.2-0.4-2.5-0.4-3.7,0C4.8,4.7,4.8,4.9,4.8,5c0.3,0.5,0.6,1,0.9,1.5
			c0.1,0.1,0.1,0.1,0,0.1C5.4,6.8,5.2,6.9,5.1,7.1C4.8,7.4,4.5,7.7,4.3,8c-0.4,0.6-0.7,1.3-1,2c-0.1,0.4-0.2,0.8-0.3,1.1
			c0,0.2,0,0.4,0,0.7s0,0.5,0.1,0.8c0.1,0.5,0.5,1,0.9,1.3c0.5,0.2,1,0.4,1.6,0.4c0.2,0,0.4,0,0.5,0s0.1,0,0.2,0h0.8c0,0,0,0,0.1,0
			s0.1,0,0.2,0c0.3,0,0.5,0,0.8-0.1c0.2,0,0.5-0.1,0.7-0.1c0.9-0.2,1.5-1,1.6-1.9c0-0.1,0-0.3,0-0.4C10.5,11.5,10.4,11.2,10.4,10.8z
			 M5.5,5.3L5.4,5l0,0h0.2l0,0h0.2C6,5,6.1,5,6.3,4.9c0.7-0.1,1.3,0,2,0.2H8.1L7.4,6.5C7,6.4,6.5,6.4,6.1,6.5L5.5,5.3z M9.9,12.7
			c-0.2,0.4-0.5,0.8-0.9,0.9c-0.3,0.1-0.6,0.2-0.8,0.2c-0.3,0-0.7,0.1-1,0.1s-0.7,0-1,0c-0.5,0-1-0.1-1.4-0.2
			c-0.4-0.1-0.7-0.4-0.9-0.7c-0.1-0.2-0.2-0.4-0.2-0.6c0-0.2,0-0.5,0-0.7c0-0.3,0.1-0.6,0.1-0.9C3.8,10,4,9.4,4.4,8.7
			C4.6,8.4,4.8,8.1,5,7.8C5.3,7.5,5.6,7.2,5.9,7l0,0C6.4,6.8,7,6.7,7.5,7c0,0,0,0,0.1,0c0.3,0.2,0.6,0.4,0.9,0.7
			C8.8,8.1,9,8.5,9.3,9s0.5,1,0.6,1.6c0,0.1,0.1,0.4,0.1,0.6s0,0.4,0,0.6C10,12.1,10,12.4,9.9,12.7L9.9,12.7z"/>
	</g>
</g>
<g id="Group_7713" transform="translate(841 -207)">
	<rect id="Rectangle_596-3" y="207" class="st12" width="32" height="32"/>
	<g id="Group_7711" transform="translate(-187 143.595)">
		<g id="Group_6691" transform="translate(189 63.405)">
			<path id="Subtraction_7" class="st1" d="M11.5,30.4H0V0h23.7v14.7c-3.9-2-8.7-1.2-11.9,1.9C8,20.3,7.9,26.5,11.5,30.4L11.5,30.4z
				"/>
			<g id="Group_4085" transform="translate(2.462 2.71)">
				<path id="Path_631" d="M3.8,4.7C3.9,4.7,3.8,4.6,3.8,4.7z"/>
				<path id="Path_632" d="M3.6,6.3C3.5,6.3,3.7,6.4,3.6,6.3z"/>
				<path id="Path_635" class="st2" d="M1.1,1.9h16.1c0.5,0,0.9-0.4,1-0.9c0-0.5-0.4-0.9-0.9-1c0,0,0,0-0.1,0H1.1
					c-0.5,0-0.9,0.4-1,0.9C0.2,1.4,0.6,1.8,1.1,1.9L1.1,1.9z"/>
				<path id="Path_636" class="st2" d="M1.1,6.5h16.1c0.5,0,0.9-0.4,1-0.9s-0.4-0.9-0.9-1c0,0,0,0-0.1,0H1.1c-0.5,0-0.9,0.4-1,0.9
					S0.6,6.5,1.1,6.5L1.1,6.5z"/>
				<path id="Path_637" class="st2" d="M1.1,11.2h8.1c0.5,0,0.9-0.4,0.9-1c0-0.5-0.4-0.9-0.9-0.9H1.1c-0.5,0-0.9,0.4-0.9,1
					C0.3,10.8,0.6,11.2,1.1,11.2z"/>
				<path id="Path_638" class="st2" d="M0.5,15.8H6c0.2,0,0.3-0.4,0.3-0.9s-0.1-1-0.3-1H0.5c-0.2,0-0.3,0.4-0.3,0.9
					S0.3,15.8,0.5,15.8z"/>
				<path id="Path_639" class="st2" d="M0.4,20.4h3.1c0.2,0,0.4-0.4,0.4-0.9s-0.2-0.9-0.4-0.9H0.4C0.2,18.6,0,19,0,19.5
					S0.2,20.4,0.4,20.4z"/>
				<path id="Path_640" class="st2" d="M0.5,25.1h4.6c0.3,0,0.5-0.4,0.5-0.9s-0.2-0.9-0.5-0.9H0.5c-0.3,0-0.5,0.4-0.5,0.9
					S0.2,25.1,0.5,25.1z"/>
			</g>
		</g>
		<circle id="Ellipse_225" cx="208.5" cy="86.9" r="8.5"/>
		<path id="Path_3159" class="st14" d="M204.2,88.1l2.7,2.1l5.1-6.7"/>
	</g>
</g>
<g>
	<g>
		<defs>
			<rect id="SVGID_1_" width="32" height="32"/>
		</defs>
		<clipPath id="SVGID_00000055691088390678075220000004156824966688245396_">
			<use xlink:href="#SVGID_1_"  style="overflow:visible;"/>
		</clipPath>
		<g style="clip-path:url(#SVGID_00000055691088390678075220000004156824966688245396_);">
			<g>
				<g>
					<polygon class="st16" points="10,22 10,21 9.6,21 9.6,20.6 10.9,20.6 10.9,21 10.5,21 10.5,22 					"/>
					<polygon class="st16" points="12.6,22 12.6,21 12.3,21 12.3,20.6 13.6,20.6 13.6,21 13.2,21 13.2,22 					"/>
					<polygon class="st16" points="10.8,22 11.3,20.6 11.9,20.6 12.4,22 11.8,22 11.6,21.2 11.3,22 					"/>
					<polygon class="st16" points="13.4,22 13.9,20.6 14.5,20.6 15,22 14.5,22 14.2,21.2 14,22 					"/>
					<path class="st16" d="M8.4,20.8l-0.2,0.6h0.5L8.4,20.8z M8.2,20.6h0.3L9.1,22H8.8l-0.1-0.3H8.1L8,22H7.7L8.2,20.6z"/>
					<path class="st16" d="M15.8,20.8v0.5h0.1c0.1,0,0.2,0,0.2-0.1c0,0,0.1-0.1,0.1-0.2s0-0.1-0.1-0.2c0,0-0.1-0.1-0.2-0.1h-0.1
						V20.8z M15.5,20.6H16c0.2,0,0.3,0,0.4,0.1s0.1,0.2,0.1,0.3c0,0.1,0,0.2-0.1,0.3c-0.1,0.1-0.2,0.1-0.4,0.1h-0.1V22h-0.3
						L15.5,20.6L15.5,20.6z M17,20.8v0.4h0.1c0.1,0,0.2,0,0.2-0.1c0,0,0.1-0.1,0.1-0.2s0-0.1-0.1-0.2c0,0-0.1-0.1-0.2-0.1H17V20.8z
						 M16.7,20.6h0.4c0.2,0,0.3,0,0.4,0.1s0.1,0.2,0.1,0.3c0,0.1,0,0.2-0.1,0.2c0,0.1-0.1,0.1-0.2,0.1c0,0,0.1,0,0.1,0.1
						c0,0,0.1,0.1,0.1,0.2l0.2,0.5h-0.3l-0.2-0.4c0-0.1-0.1-0.1-0.1-0.1s-0.1,0-0.2,0H17V22h-0.3V20.6z M18.5,20.7
						c-0.1,0-0.2,0-0.3,0.1c-0.1,0.1-0.1,0.2-0.1,0.4c0,0.2,0,0.3,0.1,0.4s0.2,0.1,0.3,0.1c0.1,0,0.2,0,0.3-0.1
						c0.1-0.1,0.1-0.2,0.1-0.4c0-0.2,0-0.3-0.1-0.4C18.7,20.8,18.6,20.7,18.5,20.7 M18.5,20.5c0.2,0,0.4,0.1,0.5,0.2
						s0.2,0.3,0.2,0.5s-0.1,0.4-0.2,0.5s-0.3,0.2-0.5,0.2s-0.4-0.1-0.5-0.2s-0.2-0.3-0.2-0.5s0.1-0.4,0.2-0.5S18.3,20.5,18.5,20.5
						 M19.7,20.8v1h0.2c0.2,0,0.3,0,0.4-0.1s0.1-0.2,0.1-0.4c0-0.2,0-0.3-0.1-0.4s-0.2-0.1-0.4-0.1H19.7z M19.4,20.6h0.4
						c0.1,0,0.2,0,0.3,0c0.1,0,0.2,0,0.2,0.1c0.1,0.1,0.2,0.1,0.2,0.2s0.1,0.2,0.1,0.3c0,0.1,0,0.3-0.1,0.4c0,0.1-0.1,0.2-0.2,0.2
						s-0.1,0.1-0.2,0.1s-0.2,0-0.3,0h-0.4V20.6z M20.8,20.6h0.3v0.8c0,0.1,0,0.2,0.1,0.3c0,0.1,0.1,0.1,0.2,0.1s0.2,0,0.2-0.1
						s0.1-0.2,0.1-0.3v-0.8H22v0.8c0,0.2,0,0.4-0.1,0.5s-0.2,0.2-0.4,0.2c-0.2,0-0.3-0.1-0.4-0.2S21,21.6,21,21.4v-0.8H20.8z
						 M23.3,20.6v0.2l0,0c-0.1,0-0.2-0.1-0.3-0.1c-0.2,0-0.3,0-0.4,0.1s-0.1,0.2-0.1,0.4c0,0.2,0,0.3,0.1,0.4s0.2,0.1,0.4,0.1
						c0,0,0.1,0,0.2-0.1h0.1v0.2c0,0,0,0-0.1,0C23.1,22,23,22,22.9,22c-0.2,0-0.4-0.1-0.6-0.2c-0.1-0.1-0.2-0.3-0.2-0.5
						s0.1-0.4,0.2-0.5s0.3-0.2,0.5-0.2C23,20.5,23.1,20.6,23.3,20.6C23.2,20.6,23.3,20.6,23.3,20.6 M23.4,20.6h1v0.2H24V22h-0.3
						v-1.2h-0.4L23.4,20.6L23.4,20.6z"/>
				</g>
			</g>
			<g>
				<g>
					
						<linearGradient id="SVGID_00000160874670153575376680000015541506894893504941_" gradientUnits="userSpaceOnUse" x1="15.9601" y1="25.1041" x2="15.9601" y2="14.8644" gradientTransform="matrix(1 0 0 -1 0 34)">
						<stop  offset="8.912825e-02" style="stop-color:#7B4534"/>
						<stop  offset="0.2621" style="stop-color:#A67565"/>
						<stop  offset="0.3476" style="stop-color:#BC8F7F"/>
						<stop  offset="0.4028" style="stop-color:#C19584"/>
						<stop  offset="0.4767" style="stop-color:#D0A693"/>
						<stop  offset="0.5609" style="stop-color:#E9C2AB"/>
						<stop  offset="0.5641" style="stop-color:#EAC3AC"/>
						<stop  offset="0.8114" style="stop-color:#B4775B"/>
						<stop  offset="1" style="stop-color:#6F3F28"/>
					</linearGradient>
					<path style="fill-rule:evenodd;clip-rule:evenodd;fill:url(#SVGID_00000160874670153575376680000015541506894893504941_);" d="
						M31.5,17.8c-0.1-0.1-0.3-0.4-0.4-0.8l-2.7-6.8l0,0l-0.1,0.3L28.1,11l0,0l-1.9,5.2c-0.3,0.8-0.6,1.4-0.7,1.6
						C25.3,18,25.1,18,24.9,18v0.1c0.2,0,0.5,0,0.7,0s0.6,0,0.8,0V18c-0.2,0-0.4,0-0.4-0.2s0.1-0.5,0.2-0.7l0.7-2c0.4,0,1.1,0,1.4,0
						s0.7,0,1.1,0h0.1l0.8,2.2c0.1,0.1,0.1,0.3,0.1,0.5s-0.2,0.3-0.5,0.3v0.1c0.2,0,0.7,0,1,0s0.5,0,0.9,0V18
						C31.9,18,31.6,17.9,31.5,17.8z M29.4,14.7c-0.4,0-0.8,0-1.1,0c-0.4,0-0.9,0-1.3,0l1.2-3.2v-0.1l1.3,3.3
						C29.5,14.7,29.5,14.7,29.4,14.7z M23.7,10.1C23.6,10.1,23.6,10.1,23.7,10.1c-0.3,0-0.5,0-0.8,0v0.1c0.1,0,0.3,0.1,0.3,0.3
						s-0.1,0.4-0.4,0.8L21.1,14l-1.8-2.8c-0.2-0.4-0.3-0.5-0.4-0.8c0,0,0,0,0-0.1s0.2-0.2,0.3-0.2V10c-0.2,0-0.8,0-1,0l0,0
						c-0.3,0-0.6,0-0.9,0v0.1c0.2,0,0.4,0.1,0.5,0.2c0,0,0.1,0,0.1,0.1c0.2,0.2,0.3,0.4,0.7,1l2,3.2c0,0.8,0,2-0.1,2.9
						c0,0.2,0,0.4-0.2,0.5c0,0-0.1,0-0.3,0v0.1c0.3,0,0.6,0,0.9,0l0,0c0.3,0,0.6,0,0.9,0V18c-0.1,0-0.3,0-0.4-0.1s-0.2-0.3-0.2-0.5
						c0-0.5,0-2.2,0-2.9l1.9-3.2c0.4-0.6,0.5-0.8,0.8-1c0.1-0.1,0.4-0.1,0.6-0.2V10C24.2,10.1,24,10.1,23.7,10.1z M12.1,10.1
						c-2.2,0-3.8,1.8-3.8,4S9.9,18,12.2,18c2.2,0,3.8-1.9,3.8-4C16,11.8,14.3,10.1,12.1,10.1z M12.1,17.8c-2,0-3.1-1.9-3.1-3.8
						s1.1-3.5,3.1-3.5c2.1,0,3.2,1.8,3.2,3.8C15.3,16.1,14.1,17.8,12.1,17.8z M6.5,16.8c-0.1,0.3-0.3,0.7-0.6,0.8
						c-0.5,0.2-1.2,0.2-1.7,0.2c-1,0-2,0-3.1,0l5-7.4c-1.5,0-2.9,0-4.4,0c-0.2,0-0.7,0-1,0c-0.2,0-0.3-0.1-0.3-0.2v-0.1h0
						c-0.1,0.2-0.1,0.3-0.1,0.5l0,0c-0.1,0.3-0.2,0.5-0.2,0.8h0.1c0.1-0.1,0.1-0.3,0.2-0.4c0.1-0.1,0.4-0.2,0.6-0.2c0.6,0,1.3,0,2,0
						c0.8,0,1.6,0,2.3,0l-5,7.3c1.6,0,3.2,0,4.8,0c0.4,0,1,0,1.3-0.3C6.5,17.6,6.6,17.1,6.5,16.8L6.5,16.8z"/>
					
						<linearGradient id="SVGID_00000058581248025964156400000005716172483923663759_" gradientUnits="userSpaceOnUse" x1="-1.7059" y1="23.0915" x2="6.787" y2="23.1315" gradientTransform="matrix(1 0 0 -1 0 34)">
						<stop  offset="8.912825e-02" style="stop-color:#7B4534"/>
						<stop  offset="0.2621" style="stop-color:#A67565"/>
						<stop  offset="0.3476" style="stop-color:#BC8F7F"/>
						<stop  offset="0.4028" style="stop-color:#C19584"/>
						<stop  offset="0.4767" style="stop-color:#D0A693"/>
						<stop  offset="0.5609" style="stop-color:#E9C2AB"/>
						<stop  offset="0.5641" style="stop-color:#EAC3AC"/>
						<stop  offset="0.8114" style="stop-color:#B4775B"/>
						<stop  offset="1" style="stop-color:#6F3F28"/>
					</linearGradient>
					<path style="fill-rule:evenodd;clip-rule:evenodd;fill:url(#SVGID_00000058581248025964156400000005716172483923663759_);" d="
						M5.6,10.5l-0.5,0.2c-0.8,0-1.6,0-2.3,0s-1.3,0-2,0c-0.2,0-0.4,0-0.6,0.2C0.1,11,0,11.2,0,11.3h0c0.1-0.3,0.2-0.5,0.2-0.8l0,0
						C0.2,10.5,5.6,10.5,5.6,10.5z"/>
					
						<linearGradient id="SVGID_00000161601044617815609080000006607180797830144402_" gradientUnits="userSpaceOnUse" x1="10.0142" y1="24.8648" x2="-6.0101" y2="12.8065" gradientTransform="matrix(1 0 0 -1 0 34)">
						<stop  offset="8.912825e-02" style="stop-color:#7B4534"/>
						<stop  offset="0.2621" style="stop-color:#A67565"/>
						<stop  offset="0.3476" style="stop-color:#BC8F7F"/>
						<stop  offset="0.4028" style="stop-color:#C19584"/>
						<stop  offset="0.4767" style="stop-color:#D0A693"/>
						<stop  offset="0.5609" style="stop-color:#E9C2AB"/>
						<stop  offset="0.5641" style="stop-color:#EAC3AC"/>
						<stop  offset="0.8114" style="stop-color:#B4775B"/>
						<stop  offset="1" style="stop-color:#6F3F28"/>
					</linearGradient>
					
						<polygon style="fill-rule:evenodd;clip-rule:evenodd;fill:url(#SVGID_00000161601044617815609080000006607180797830144402_);" points="
						6.1,10.4 5.6,10.5 0.6,17.9 1.1,17.8 					"/>
					
						<linearGradient id="SVGID_00000039109879349738341900000003436569963921043086_" gradientUnits="userSpaceOnUse" x1="9.6024" y1="16.6358" x2="-2.7764" y2="16.3554" gradientTransform="matrix(1 0 0 -1 0 34)">
						<stop  offset="8.912825e-02" style="stop-color:#7B4534"/>
						<stop  offset="0.2621" style="stop-color:#A67565"/>
						<stop  offset="0.3476" style="stop-color:#BC8F7F"/>
						<stop  offset="0.4028" style="stop-color:#C19584"/>
						<stop  offset="0.4767" style="stop-color:#D0A693"/>
						<stop  offset="0.5609" style="stop-color:#E9C2AB"/>
						<stop  offset="0.5641" style="stop-color:#EAC3AC"/>
						<stop  offset="0.8114" style="stop-color:#B4775B"/>
						<stop  offset="1" style="stop-color:#6F3F28"/>
					</linearGradient>
					<path style="fill-rule:evenodd;clip-rule:evenodd;fill:url(#SVGID_00000039109879349738341900000003436569963921043086_);" d="
						M6.6,16.8c0,0.3,0,0.8-0.3,1S5.4,18.1,5,18.1c-1.6,0-3.2,0-4.8,0L0.6,18c0,0,4.4,0,4.6,0s0.8-0.1,1-0.4
						C6.5,17.3,6.6,16.9,6.6,16.8L6.6,16.8z"/>
					
						<linearGradient id="SVGID_00000165915001244449769360000012695065349215877550_" gradientUnits="userSpaceOnUse" x1="-0.5668" y1="22.8695" x2="33.7246" y2="14.8372" gradientTransform="matrix(1 0 0 -1 0 34)">
						<stop  offset="8.912825e-02" style="stop-color:#7B4534"/>
						<stop  offset="0.2621" style="stop-color:#A67565"/>
						<stop  offset="0.3476" style="stop-color:#BC8F7F"/>
						<stop  offset="0.4028" style="stop-color:#C19584"/>
						<stop  offset="0.4767" style="stop-color:#D0A693"/>
						<stop  offset="0.5609" style="stop-color:#E9C2AB"/>
						<stop  offset="0.5641" style="stop-color:#EAC3AC"/>
						<stop  offset="0.8114" style="stop-color:#B4775B"/>
						<stop  offset="1" style="stop-color:#6F3F28"/>
					</linearGradient>
					
						<path style="opacity:0.5;fill-rule:evenodd;clip-rule:evenodd;fill:url(#SVGID_00000165915001244449769360000012695065349215877550_);enable-background:new    ;" d="
						M12.1,10.3c-2,0-3.5,1.8-3.5,3.8c0,2.1,1.5,3.8,3.5,3.8s3.5-1.8,3.5-3.8C15.6,11.9,14.1,10.3,12.1,10.3z M12.1,17.8
						c-2,0-3.1-1.9-3.1-3.8s1.1-3.5,3.1-3.5c2.1,0,3.2,1.8,3.2,3.8C15.3,16.1,14.1,17.8,12.1,17.8z"/>
					
						<linearGradient id="SVGID_00000036969355512219112780000000780050544417779877_" gradientUnits="userSpaceOnUse" x1="15.2092" y1="23.8221" x2="23.2634" y2="16.0106" gradientTransform="matrix(1 0 0 -1 0 34)">
						<stop  offset="8.912825e-02" style="stop-color:#7B4534"/>
						<stop  offset="0.2621" style="stop-color:#A67565"/>
						<stop  offset="0.3476" style="stop-color:#BC8F7F"/>
						<stop  offset="0.4028" style="stop-color:#C19584"/>
						<stop  offset="0.4767" style="stop-color:#D0A693"/>
						<stop  offset="0.5609" style="stop-color:#E9C2AB"/>
						<stop  offset="0.5641" style="stop-color:#EAC3AC"/>
						<stop  offset="0.8114" style="stop-color:#B4775B"/>
						<stop  offset="1" style="stop-color:#6F3F28"/>
					</linearGradient>
					<path style="fill-rule:evenodd;clip-rule:evenodd;fill:url(#SVGID_00000036969355512219112780000000780050544417779877_);" d="
						M20.9,14.4v3.7c-0.3,0-0.6,0-0.9,0V18c0.1,0,0.3,0,0.4-0.1s0.2-0.3,0.2-0.5c0.1-0.9,0.1-2.1,0.1-2.9l-2-3.2
						c-0.4-0.6-0.5-0.8-0.7-1c0,0-0.1,0-0.1-0.1c-0.1-0.1-0.4-0.1-0.5-0.2V9.9c0.3,0,0.6,0,0.9,0L20.9,14.4z"/>
					
						<linearGradient id="SVGID_00000098221595287518475100000016426443111046545046_" gradientUnits="userSpaceOnUse" x1="25.8506" y1="24.925" x2="16.0758" y2="17.2734" gradientTransform="matrix(1 0 0 -1 0 34)">
						<stop  offset="8.912825e-02" style="stop-color:#7B4534"/>
						<stop  offset="0.2621" style="stop-color:#A67565"/>
						<stop  offset="0.3476" style="stop-color:#BC8F7F"/>
						<stop  offset="0.4028" style="stop-color:#C19584"/>
						<stop  offset="0.4767" style="stop-color:#D0A693"/>
						<stop  offset="0.5609" style="stop-color:#E9C2AB"/>
						<stop  offset="0.5641" style="stop-color:#EAC3AC"/>
						<stop  offset="0.8114" style="stop-color:#B4775B"/>
						<stop  offset="1" style="stop-color:#6F3F28"/>
					</linearGradient>
					<path style="fill-rule:evenodd;clip-rule:evenodd;fill:url(#SVGID_00000098221595287518475100000016426443111046545046_);" d="
						M23.6,10.1l-2.4,4L21.1,14l1.7-2.8c0.2-0.4,0.3-0.6,0.4-0.8c0-0.2-0.1-0.3-0.3-0.3V10C23.1,10.1,23.4,10.1,23.6,10.1z"/>
					
						<linearGradient id="SVGID_00000064324719266786897090000005690238043145059244_" gradientUnits="userSpaceOnUse" x1="33.6896" y1="22.3764" x2="22.5126" y2="14.9251" gradientTransform="matrix(1 0 0 -1 0 34)">
						<stop  offset="8.912825e-02" style="stop-color:#7B4534"/>
						<stop  offset="0.2621" style="stop-color:#A67565"/>
						<stop  offset="0.3476" style="stop-color:#BC8F7F"/>
						<stop  offset="0.4028" style="stop-color:#C19584"/>
						<stop  offset="0.4767" style="stop-color:#D0A693"/>
						<stop  offset="0.5609" style="stop-color:#E9C2AB"/>
						<stop  offset="0.5641" style="stop-color:#EAC3AC"/>
						<stop  offset="0.8114" style="stop-color:#B4775B"/>
						<stop  offset="1" style="stop-color:#6F3F28"/>
					</linearGradient>
					<path style="fill-rule:evenodd;clip-rule:evenodd;fill:url(#SVGID_00000064324719266786897090000005690238043145059244_);" d="
						M30.6,17.7c0-0.2-0.1-0.3-0.1-0.5l-2.2-5.8L28.1,11l0.2-0.5l2.9,7.5c-0.3,0-0.8,0-1,0l0,0C30.4,18,30.6,17.9,30.6,17.7z"/>
				</g>
			</g>
		</g>
	</g>
</g>
</svg>
