<?xml version="1.0" encoding="utf-8"?>
<!-- Generator: Adobe Illustrator 26.3.1, SVG Export Plug-In . SVG Version: 6.00 Build 0)  -->
<svg version="1.1" id="Layer_1" xmlns="http://www.w3.org/2000/svg" xmlns:xlink="http://www.w3.org/1999/xlink" x="0px" y="0px"
	 width="180.4px" height="205.4px" viewBox="0 0 180.4 205.4" style="enable-background:new 0 0 180.4 205.4;" xml:space="preserve"
	>
<style type="text/css">
	.st0{fill-rule:evenodd;clip-rule:evenodd;fill:#FFFFFF;}
	.st1{opacity:0.5;fill-rule:evenodd;clip-rule:evenodd;fill:#FFFFFF;enable-background:new    ;}
</style>
<g>
	<g>
		<g>
			<polygon class="st0" points="56.3,136.3 56.3,130.8 54.1,130.8 54.1,128.5 61.4,128.5 61.4,130.9 59.4,130.9 59.4,136.3 			"/>
			<polygon class="st0" points="71.3,136.3 71.3,130.8 69.2,130.9 69.2,128.5 76.5,128.5 76.5,130.9 74.5,130.9 74.5,136.3 			"/>
			<polygon class="st0" points="60.7,136.3 63.6,128.5 67,128.5 69.8,136.3 66.8,136.3 65.3,131.8 63.8,136.3 			"/>
			<polygon class="st0" points="75.7,136.3 78.6,128.5 81.9,128.5 84.8,136.3 81.8,136.3 80.3,131.8 78.7,136.3 			"/>
			<path class="st0" d="M47.3,129.8l-1.3,3.6h2.6L47.3,129.8z M46.4,128.4h1.9l3,7.9h-1.7l-0.7-1.9h-3.4l-0.7,1.9h-1.5L46.4,128.4z"
				/>
			<path class="st0" d="M89.2,129.5v2.7h0.6c0.5,0,0.9-0.1,1.2-0.3c0.3-0.2,0.4-0.6,0.4-1s-0.1-0.8-0.4-1c-0.2-0.2-0.6-0.4-1.1-0.4
				H89.2z M87.7,128.4H90c1,0,1.7,0.2,2.2,0.6c0.5,0.4,0.7,1,0.7,1.8s-0.2,1.4-0.7,1.8c-0.5,0.4-1.2,0.6-2.2,0.6h-0.8v3h-1.5V128.4z
				 M95.6,129.5v2.4h0.8c0.5,0,0.9-0.1,1.1-0.3c0.3-0.2,0.4-0.5,0.4-0.9s-0.1-0.7-0.4-0.9s-0.7-0.3-1.2-0.3H95.6z M94.1,128.4h2.5
				c0.9,0,1.7,0.2,2.1,0.5c0.5,0.3,0.7,0.9,0.7,1.5c0,0.5-0.1,0.9-0.4,1.2s-0.7,0.6-1.2,0.7c0.2,0.1,0.4,0.2,0.5,0.3
				c0.1,0.2,0.3,0.4,0.5,0.9l1.1,2.7h-1.6l-0.9-2.4c-0.1-0.3-0.3-0.6-0.5-0.7c-0.2-0.1-0.5-0.2-0.9-0.2h-0.5v3.3H94v-7.8H94.1z
				 M104.2,129.4c-0.6,0-1.1,0.3-1.5,0.8s-0.6,1.2-0.6,2.1c0,0.9,0.2,1.6,0.6,2.1s0.9,0.8,1.5,0.8s1.2-0.3,1.6-0.8
				c0.4-0.6,0.6-1.3,0.6-2.1c0-0.9-0.2-1.6-0.6-2.1C105.4,129.7,104.9,129.4,104.2,129.4 M104.2,128.3c1.2,0,2,0.4,2.7,1.1
				c0.7,0.7,1,1.7,1,3s-0.3,2.3-1,3c-0.6,0.7-1.6,1.1-2.7,1.1s-2-0.4-2.7-1.1c-0.7-0.7-1-1.7-1-3s0.3-2.3,1-3
				C102.2,128.6,103.1,128.3,104.2,128.3 M110.9,129.6v5.5h0.9c0.9,0,1.5-0.3,2-0.7c0.5-0.5,0.7-1.2,0.7-2c0-0.9-0.2-1.6-0.7-2
				c-0.5-0.5-1.1-0.7-2-0.7h-0.9V129.6z M109.3,128.4h2.2c0.7,0,1.2,0.1,1.7,0.1c0.5,0.1,0.9,0.2,1.2,0.4c0.6,0.4,1,0.8,1.3,1.4
				c0.3,0.6,0.4,1.2,0.4,2s-0.1,1.4-0.4,2s-0.7,1-1.3,1.4c-0.3,0.2-0.7,0.4-1.2,0.5s-1.1,0.1-1.8,0.2h-2.1
				C109.3,136.4,109.3,128.4,109.3,128.4z M117.4,128.4h1.5v4.6c0,0.8,0.1,1.3,0.4,1.7c0.2,0.4,0.6,0.5,1.2,0.5c0.5,0,1-0.2,1.2-0.6
				c0.3-0.4,0.4-0.9,0.4-1.7v-4.6h1.4v4.6c0,1.2-0.3,2-0.8,2.6s-1.3,0.9-2.3,0.9s-1.8-0.3-2.3-0.9c-0.5-0.6-0.8-1.4-0.8-2.6v-4.5
				H117.4z M131.3,128.7l-0.1,1.2h-0.1c-0.7-0.3-1.3-0.4-1.7-0.4c-0.8,0-1.5,0.3-2,0.8s-0.8,1.3-0.8,2.1c0,0.9,0.3,1.5,0.8,2
				s1.2,0.8,2.1,0.8c0.3,0,0.7-0.1,1.3-0.3c0.2-0.1,0.4-0.1,0.5-0.1l0.1,1.2c-0.1,0-0.2,0.1-0.4,0.1c-0.7,0.2-1.2,0.3-1.6,0.3
				c-1.3,0-2.4-0.4-3.2-1.1c-0.8-0.7-1.2-1.7-1.2-3c0-1.2,0.4-2.2,1.2-3c0.8-0.8,1.8-1.1,3.1-1.1c0.4,0,0.9,0.1,1.6,0.3
				C131,128.6,131.2,128.7,131.3,128.7 M131.8,128.4h5.7v1.2h-2.1v6.7h-1.5v-6.7h-2.1L131.8,128.4L131.8,128.4z"/>
		</g>
	</g>
	<g>
		<g>
			<path class="st0" d="M177.6,112.8c-0.8-0.8-1.6-2.1-2.5-4.6l-15-38.5H160l-0.7,1.9l-1.1,3l0,0l-10.7,29.2c-1.7,4.5-3.2,8-4.1,8.8
				c-1,0.9-2.1,1.4-3.3,1.4v0.3c1.1,0,3.1-0.1,4.2-0.1c1.1,0,3.7,0.1,4.7,0.1V114c-1,0-2.3-0.3-2.3-1.4s0.5-2.5,1.1-4.1L152,97
				c2.5,0,6.1-0.1,8-0.1c1.7,0,3.9,0.1,6.4,0.1c0.2,0,0.4,0,0.6,0l4.6,12.5c0.3,0.8,0.8,1.8,0.8,2.7c0,1-1,1.7-2.7,1.8v0.3
				c1.4,0,4.2-0.1,5.7-0.1c1.9,0,3,0.1,4.9,0.1V114C179.6,114,178.4,113.6,177.6,112.8z M165.9,95.4c-2.1,0-4.7,0-6,0
				c-2,0-5-0.1-7.3-0.1l6.6-18.2l0.2-0.6l7.1,18.8C166.3,95.4,166.1,95.4,165.9,95.4z M133.4,69.7c-0.1,0-0.2,0-0.3,0
				c-1.2,0-2.7-0.2-3.9-0.2l-0.1,0.4c0.7,0,1.7,0.5,1.6,1.5c-0.1,1.1-0.7,2.1-2,4.3l-9.5,15.9L109,75.5c-1.3-2.1-1.9-3.1-2-4.3
				c0-0.1,0-0.3,0-0.4c0.1-0.7,0.9-1.1,1.5-1.1v-0.4c-1.3,0-4.4,0.2-5.8,0.3h-0.1c-1.7,0-3.5-0.3-5.2-0.3v0.4c1,0.1,2.2,0.3,3.1,0.9
				c0.2,0.1,0.3,0.2,0.4,0.3c1.2,1,2,2.1,4,5.4l11.3,17.9c0,4.5,0,11.2-0.4,16.3c-0.1,1.3-0.2,2.4-0.9,3.1c-0.6,0.6-1.4,0.6-2.2,0.6
				v0.4c1.6,0,3.3-0.1,4.9-0.1h0.2c1.7,0,3.4,0.1,5.1,0.1v-0.4c-0.8,0-1.7-0.1-2.3-0.6c-0.7-0.7-0.8-1.9-1-3.1
				c-0.1-2.6-0.1-12.2-0.1-16.4l10.7-17.8c2.2-3.6,3.1-4.7,4.5-5.7c0.8-0.6,2-0.8,3.1-0.9v-0.4C136.3,69.4,135.1,69.7,133.4,69.7z
				 M68,69.5c-12.4,0-21.4,10.4-21.4,22.6s9.1,22.3,21.9,22.3C81,114.4,90,104,90,91.7C90.1,79.3,80.8,69.5,68,69.5z M68.5,112.6
				c-11.6,0-17.9-10.4-17.9-21.3c0-10.7,6.3-20,17.4-20c11.7,0,18,10.4,18,21.3C86,103.3,79.6,112.6,68.5,112.6z M36.8,107.2
				c-0.5,1.9-1.8,3.7-3.6,4.4c-2.8,1.1-6.7,1.2-9.7,1.2c-5.8,0-11.5-0.1-17.2-0.1l28.2-41.6c-8.2,0-16.5,0.1-24.7,0.1
				c-1,0-4.1-0.1-5.6-0.2c-1.1-0.1-1.8-0.5-1.8-1.2c0-0.2,0.1-0.5,0.1-0.8H2.2c-0.3,1-0.5,2-0.8,2.9V72C1,73.4,0.5,74.8,0,76.3h0.3
				c0.3-0.8,0.6-1.7,1.3-2.2c0.8-0.8,2-0.9,3.1-1c3.5-0.2,7.3-0.2,11.1-0.2c4.4,0,8.9,0.1,13.2,0.1L0.8,114.3c9,0,18,0.1,27,0.1
				c2,0,5.7-0.1,7.3-1.5c1.6-1.3,1.9-3.9,1.9-5.8L36.8,107.2L36.8,107.2z"/>
			<path class="st0" d="M31.6,71.8L29,72.9c-4.3,0-8.8-0.1-13.2-0.1c-3.7,0-7.5,0-11.1,0.2c-1.1,0.1-2.3,0.2-3.1,1
				c-0.7,0.6-1,1.4-1.3,2.2H0c0.5-1.4,1-2.8,1.4-4.3v-0.1C1.4,71.8,31.6,71.8,31.6,71.8z"/>
			<polygon class="st0" points="34.5,71.1 31.6,71.8 3.3,113.6 6.3,112.6 			"/>
			<path class="st0" d="M37,107.2c0,1.9-0.2,4.5-1.9,5.8c-1.6,1.4-5.3,1.5-7.3,1.5c-9,0-18-0.1-27-0.1l2.4-0.7
				c0,0,24.8,0.1,26.2,0.1c1.3,0,4.2-0.5,5.7-2S37,107.9,37,107.2L37,107.2z"/>
			<path class="st1" d="M68,70.5c-11.3,0-19.5,9.9-19.5,21.6s8.3,21.3,20,21.3c11.4,0,19.6-10,19.6-21.7
				C88.1,79.8,79.7,70.5,68,70.5z M68.5,112.6c-11.6,0-17.9-10.4-17.9-21.3c0-10.7,6.3-20,17.4-20c11.7,0,18,10.4,18,21.3
				C86,103.3,79.6,112.6,68.5,112.6z"/>
			<path class="st0" d="M117.8,93.9v20.6c-1.6,0-3.3,0.1-4.9,0.1v-0.4c0.8,0,1.6-0.1,2.2-0.6c0.7-0.7,0.8-1.8,0.9-3.1
				c0.4-5.1,0.4-11.8,0.4-16.3l-11.3-17.9c-2.1-3.3-2.8-4.4-4-5.4c-0.1-0.1-0.3-0.2-0.4-0.3c-0.8-0.6-2.1-0.8-3.1-0.9v-0.4
				c1.7,0,3.5,0.3,5.2,0.3L117.8,93.9z"/>
			<path class="st0" d="M133.1,69.7L119.6,92l-0.5-0.6l9.5-15.9c1.3-2.2,1.9-3.2,2-4.3c0.1-1-0.8-1.5-1.6-1.5l0.1-0.4
				C130.4,69.4,131.8,69.6,133.1,69.7z"/>
			<path class="st0" d="M172.5,112.2c0-0.9-0.5-1.9-0.8-2.7l-12.3-32.9l-1-2.3l1-2.7l16.1,42.5c-1.5,0-4.3,0.1-5.7,0.1V114
				C171.5,113.9,172.5,113.2,172.5,112.2z"/>
		</g>
	</g>
</g>
</svg>
