<svg xmlns="http://www.w3.org/2000/svg" xmlns:xlink="http://www.w3.org/1999/xlink" width="492" height="397" viewBox="0 0 492 397">
  <defs>
    <clipPath id="clip-_404-error">
      <rect width="492" height="397"/>
    </clipPath>
  </defs>
  <g id="_404-error" data-name="404-error" clip-path="url(#clip-_404-error)">
    <g id="Group_4552" data-name="Group 4552" transform="translate(-727.347 -227.699)">
      <path id="Path_1505" data-name="Path 1505" d="M847.563,542.367l-19.746,15.352L940.77,623.537l40.273-30.9,64.369,31.571,114.347-66.489-62.584-31.906,58.531-29.376L1044.7,431.569l-16.425,6.4Z" fill="#754c24" opacity="0.3"/>
      <path id="Path_1506" data-name="Path 1506" d="M1132.149,355.407a1.136,1.136,0,0,0-.555-.818l-112.219-64.82a1.117,1.117,0,0,0-1.374.195L967.172,343.03l-50.829-53.066a1.117,1.117,0,0,0-1.374-.195L802.75,354.589a1.121,1.121,0,0,0-.248,1.756l50.259,52.263-48.382,5.907a1.127,1.127,0,0,0-.428,2.094l.158.091-.218.57,50.266,29.137-.142,91.691a1.106,1.106,0,0,0,.563.976L967.33,603.7c.014.007.03.007.044.015a.847.847,0,0,0,.188.075.256.256,0,0,0,.068.022.988.988,0,0,0,.263.038h.014a.943.943,0,0,0,.256-.038.183.183,0,0,1,.06-.015,1.487,1.487,0,0,0,.2-.082.111.111,0,0,1,.038-.015l111.31-64.625a1.115,1.115,0,0,0,.563-.976V445.762l50.064-29.153a1.13,1.13,0,0,0-.428-2.094l-48.382-5.907,50.236-51.6-.225-.412.248-.256A1.15,1.15,0,0,0,1132.149,355.407Zm-327.027.413,110.207-63.657L965.363,344.4,855.336,408.038Zm160.924-9.21V472.535l-21.557-12.512-87.1-50.567ZM807.974,416.347l46.919-5.735,93.875,54.5,14.929,8.662-47.332,5.689Zm48.292,121.1.143-89.732,59.363,34.407,49.6-6.185,1.374,124.829ZM968.3,346.61l108.654,62.839L968.3,471.747Zm109.78,190.843L969,600.779l-1.374-125.1,50.462,6.065a.871.871,0,0,0,.135.007,1.146,1.146,0,0,0,.563-.15l59.3-34.527Zm48.292-121.106-108.391,63.116-47.332-5.689,108.166-62.794.39-.225v.293l.406-.413ZM1079,408.038,968.973,344.4l50.042-52.241,110.207,63.657Z" fill="#184c3d"/>
      <path id="Path_1507" data-name="Path 1507" d="M963.7,473.774l-47.332,5.689L807.974,416.347l46.919-5.734,93.875,54.5Z" fill="#e2be8f"/>
      <path id="Path_1508" data-name="Path 1508" d="M965.363,344.4,855.336,408.038,805.122,355.82l110.208-63.657Z" fill="#e2be8f"/>
      <path id="Path_1509" data-name="Path 1509" d="M1129.222,355.82,1079,408.038,968.973,344.4l50.041-52.24Z" fill="#e2be8f"/>
      <path id="Path_1510" data-name="Path 1510" d="M1126.37,416.347l-108.391,63.116-47.332-5.689,108.166-62.794.39-.225v.293l.405-.413Z" fill="#e2be8f"/>
      <path id="Path_1511" data-name="Path 1511" d="M1078.078,447.075v90.378L969,600.779l-1.374-125.1,50.462,6.065a.871.871,0,0,0,.135.007,1.146,1.146,0,0,0,.563-.15Z" fill="#b29267"/>
      <path id="Path_1512" data-name="Path 1512" d="M966.744,600.764,856.266,537.445l.143-89.732,59.363,34.407,49.6-6.185Z" fill="#b29267"/>
      <path id="Path_1513" data-name="Path 1513" d="M1076.952,409.449,968.3,471.747V346.61Z" fill="#846b4d"/>
      <path id="Path_1514" data-name="Path 1514" d="M966.046,346.61V472.535L944.49,460.023l-87.1-50.567Z" fill="#564533"/>
      <g id="Group_4086" data-name="Group 4086" opacity="0.15">
        <g id="Group_4085" data-name="Group 4085">
          <path id="Path_1515" data-name="Path 1515" d="M876.058,506.134c.216.252.4.474.591.687a12.618,12.618,0,0,0,1.812,1.741,4.15,4.15,0,0,0,.8.481c1.845.831,3.689,1.654,5.529,2.509a4.515,4.515,0,0,1,2.239,2.882,7.09,7.09,0,0,1,.313,2.859c-.022.241-.062.471-.1.7-.008.053-.027.1-.049.18-.026-.108-.041-.176-.058-.243-.057-.222-.108-.445-.172-.664a3.56,3.56,0,0,0-1.42-2.083,5.414,5.414,0,0,0-.608-.34c-1.534-.734-3.07-1.453-4.606-2.193a6.087,6.087,0,0,1-1.616-1.17c-.124-.121-.241-.26-.375-.4-.007.056-.017.1-.019.156-.01.347-.019.7-.028,1.042q-.128,4.923-.243,9.838c-.017.737.015,1.5.062,2.261a46.8,46.8,0,0,0,.689,5.608,44.209,44.209,0,0,0,1.551,6.209,25.833,25.833,0,0,0,1.8,4.3,3.726,3.726,0,0,1,.23.553c.066.2.021.287-.094.208a1.087,1.087,0,0,1-.154-.145,15.813,15.813,0,0,1-2.846-4.731,37.371,37.371,0,0,1-1.988-5.93,44.639,44.639,0,0,1-1.128-6.24,45.664,45.664,0,0,1-.287-5.622q.072-6.111.164-12.232Z"/>
          <path id="Path_1516" data-name="Path 1516" d="M874.766,505.567l0,.267q-.047,5.931-.078,11.85c0,1.165-.044,2.307-.137,3.414a24.631,24.631,0,0,1-1.2,6.19,8.675,8.675,0,0,1-2.159,3.633,3.063,3.063,0,0,1-1.929.885,2.1,2.1,0,0,1-.85-.139c-.086-.033-.168-.045-.252-.069a.155.155,0,0,1-.077-.036.473.473,0,0,1-.13-.154.231.231,0,0,1,.02-.176.518.518,0,0,1,.207-.167A4.276,4.276,0,0,0,870.4,528.9a15.37,15.37,0,0,0,1.477-4.253,25.924,25.924,0,0,0,.534-3.833c.042-.635.067-1.287.063-1.953-.021-3.415-.051-6.84-.072-10.266v-.271c-.034-.009-.05-.018-.062-.015a2.858,2.858,0,0,1-1.525-.161,5.7,5.7,0,0,1-.663-.266q-2.208-1.019-4.418-2.042a3.288,3.288,0,0,0-.872-.285,1.063,1.063,0,0,0-1.1.439,5.544,5.544,0,0,0-.293.514.335.335,0,0,1-.088.128c-.019-.1-.042-.2-.056-.293a3.632,3.632,0,0,1,.477-2.858,1.67,1.67,0,0,1,2.152-.378c1.251.537,2.5,1.1,3.75,1.653.625.277,1.249.553,1.872.833a3.465,3.465,0,0,0,1.622.28,5.377,5.377,0,0,0,1.4-.256C874.637,505.6,874.688,505.59,874.766,505.567Z"/>
          <path id="Path_1517" data-name="Path 1517" d="M875.2,542.843a4.69,4.69,0,0,1-1.37-3.545c.075-.934.47-1.358,1.066-1.15.83.288,1.523,1.707,1.645,2.967.131,1.372-.421,2.074-1.03,1.874A2.715,2.715,0,0,1,875.2,542.843Z"/>
        </g>
      </g>
      <g id="Group_4087" data-name="Group 4087" opacity="0.15">
        <path id="Path_1518" data-name="Path 1518" d="M988.99,535.287c-.216.251-.4.474-.591.687a12.671,12.671,0,0,1-1.812,1.741,4.25,4.25,0,0,1-.8.481c-1.845.83-3.689,1.654-5.529,2.508a4.52,4.52,0,0,0-2.239,2.882,7.092,7.092,0,0,0-.313,2.86c.022.24.062.471.1.7a1.731,1.731,0,0,0,.05.181c.025-.108.04-.176.057-.243.057-.222.108-.446.172-.665a3.56,3.56,0,0,1,1.42-2.083A5.263,5.263,0,0,1,980.1,544c1.534-.734,3.07-1.453,4.606-2.193a6.127,6.127,0,0,0,1.617-1.17c.123-.121.24-.26.374-.405.007.055.017.1.019.155q.015.52.028,1.043.127,4.923.243,9.837c.017.737-.015,1.5-.062,2.262a46.588,46.588,0,0,1-.689,5.607,44.144,44.144,0,0,1-1.551,6.209,25.876,25.876,0,0,1-1.8,4.3,3.668,3.668,0,0,0-.23.552c-.066.2-.021.288.094.209a1.145,1.145,0,0,0,.154-.145,15.839,15.839,0,0,0,2.846-4.731,37.383,37.383,0,0,0,1.988-5.931,44.568,44.568,0,0,0,1.128-6.24,45.654,45.654,0,0,0,.287-5.622q-.072-6.109-.164-12.232Z"/>
        <path id="Path_1519" data-name="Path 1519" d="M990.282,534.72l0,.267q.048,5.931.078,11.85c0,1.165.044,2.306.137,3.414a24.63,24.63,0,0,0,1.2,6.19,8.674,8.674,0,0,0,2.159,3.633,3.061,3.061,0,0,0,1.929.884,2.063,2.063,0,0,0,.85-.139c.086-.032.168-.044.252-.068a.157.157,0,0,0,.077-.037.478.478,0,0,0,.13-.153.231.231,0,0,0-.02-.176.515.515,0,0,0-.207-.168,4.272,4.272,0,0,1-2.214-2.163,15.363,15.363,0,0,1-1.477-4.252,25.954,25.954,0,0,1-.534-3.833c-.042-.636-.067-1.288-.063-1.954q.033-5.121.072-10.265v-.271c.034-.009.05-.019.062-.016a2.857,2.857,0,0,0,1.525-.16,5.531,5.531,0,0,0,.663-.267q2.208-1.017,4.419-2.042a3.3,3.3,0,0,1,.871-.284,1.062,1.062,0,0,1,1.1.439,5.281,5.281,0,0,1,.293.514.339.339,0,0,0,.088.127c.019-.1.042-.2.056-.293a3.629,3.629,0,0,0-.477-2.857,1.671,1.671,0,0,0-2.152-.379c-1.251.538-2.5,1.1-3.75,1.654-.625.277-1.249.553-1.872.833a3.461,3.461,0,0,1-1.621.279,5.333,5.333,0,0,1-1.4-.256Z"/>
        <path id="Path_1520" data-name="Path 1520" d="M989.844,572a4.69,4.69,0,0,0,1.37-3.546c-.075-.934-.47-1.358-1.066-1.149-.83.287-1.523,1.707-1.645,2.966-.131,1.373.421,2.075,1.03,1.875A3.1,3.1,0,0,0,989.844,572Z"/>
      </g>
      <circle id="Ellipse_94" data-name="Ellipse 94" cx="8.193" cy="8.193" r="8.193" transform="translate(727.348 410.635)" fill="none" stroke="#dab67f" stroke-miterlimit="10" stroke-width="2"/>
      <circle id="Ellipse_95" data-name="Ellipse 95" cx="8.193" cy="8.193" r="8.193" transform="translate(895.119 227.699)" fill="none" stroke="#dab67f" stroke-miterlimit="10" stroke-width="2"/>
      <circle id="Ellipse_96" data-name="Ellipse 96" cx="3.75" cy="3.75" r="3.75" transform="translate(942.529 261.133)" fill="none" stroke="#1a1a1a" stroke-miterlimit="10" stroke-width="2"/>
      <circle id="Ellipse_97" data-name="Ellipse 97" cx="8.193" cy="8.193" r="8.193" transform="translate(1202.097 418.828)" fill="none" stroke="#dab67f" stroke-miterlimit="10" stroke-width="2"/>
      <circle id="Ellipse_98" data-name="Ellipse 98" cx="4.232" cy="4.232" r="4.232" transform="translate(770.078 308.317)" fill="none" stroke="#dab67f" stroke-miterlimit="10" stroke-width="2"/>
      <rect id="Rectangle_653" data-name="Rectangle 653" width="10.648" height="10.648" transform="translate(796.615 476.944) rotate(45)" fill="none" stroke="#1a1a1a" stroke-miterlimit="10" stroke-width="2"/>
      <rect id="Rectangle_654" data-name="Rectangle 654" width="10.648" height="10.648" transform="translate(1149.907 368.825) rotate(45)" fill="none" stroke="#1a1a1a" stroke-miterlimit="10" stroke-width="2"/>
      <rect id="Rectangle_655" data-name="Rectangle 655" width="10.648" height="10.648" transform="translate(1039.002 246.074) rotate(45)" fill="none" stroke="#dab67f" stroke-miterlimit="10" stroke-width="2"/>
      <path id="Path_1521" data-name="Path 1521" d="M833.18,315.95v-6.8h6.8Z" fill="none" stroke="#1a1a1a" stroke-linecap="round" stroke-linejoin="round" stroke-width="2"/>
      <path id="Path_1522" data-name="Path 1522" d="M1141.749,458.824l5.468-4.047,4.047,5.468Z" fill="none" stroke="#dab67f" stroke-linecap="round" stroke-linejoin="round" stroke-width="2"/>
      <path id="Path_1523" data-name="Path 1523" d="M1097.622,296.21l7.291-5.4,5.4,7.291Z" fill="none" stroke="#dab67f" stroke-linecap="round" stroke-linejoin="round" stroke-width="2"/>
    </g>
  </g>
</svg>
