<svg xmlns="http://www.w3.org/2000/svg" xmlns:xlink="http://www.w3.org/1999/xlink" width="390" height="397" viewBox="0 0 390 397">
  <defs>
    <clipPath id="clip-path">
      <path id="Path_1564" data-name="Path 1564" d="M902.3,496.666l-2.031,38.707-21.521,10.76a18.562,18.562,0,0,1-14.964.788,106.439,106.439,0,0,1-16.5-8.305,2.645,2.645,0,0,0-1.213-.737c-4.89-3.031-9.335-6.153-12.912-8.841a14.346,14.346,0,0,1-5.739-12.337l3.354-58.954a34.318,34.318,0,0,1,29.442-32.14c1.021-.141,2.061-.242,3.092-.313,1.778.727,16.247,7.295,21.8,30.331l-.2,5.153,1.707,30.432-7-1.516c-.041-.01-.112-.04-.2-.061a2.7,2.7,0,0,1-1.626-3.98c2.8-4.8,5.921-11.892,4.91-18.479a1.013,1.013,0,0,0-2,.313c.92,6-2.021,12.64-4.647,17.146a4.7,4.7,0,0,0-.364,3.991,81.177,81.177,0,0,0-12.781-2.04c-12.164-.9-21.46,1.748-26.875,7.668a1.012,1.012,0,1,0,1.495,1.365c11.215-12.266,36.969-5.325,40.97-4.143l.516.152a.106.106,0,0,1,.03.01h.01a.281.281,0,0,0,.09.02l11.185,2.425,5.931,1.283Z" transform="translate(-827.398 -425.295)" fill="none"/>
    </clipPath>
    <clipPath id="clip-path-2">
      <path id="Path_1566" data-name="Path 1566" d="M890,570.7a.625.625,0,0,0,.192.02c-20.236-1.672-41.56,1.409-63.714,8.1,3.668-20.551,1.051-30.735-1.96-42.5-2.839-11.074-6.062-23.622-5.385-47.912.769-27.6,8.933-41.96,16.086-49.275a36.5,36.5,0,0,0-7.478,20.177l-3.354,58.944a16.382,16.382,0,0,0,6.547,14.085c3.849,2.879,8.679,6.264,14,9.507.808,1.01,2.354,4.789-1.152,17.984a1,1,0,0,0,.717,1.233,1.084,1.084,0,0,0,.253.031,1,1,0,0,0,.98-.748c2.011-7.568,2.678-13.286,1.991-16.842a105.216,105.216,0,0,0,14.317,6.981,20.072,20.072,0,0,0,7.253,1.344,21.026,21.026,0,0,0,9.346-2.213l15.973-7.992L889.2,569.516A1,1,0,0,0,890,570.7Z" transform="translate(-819.041 -439.139)" fill="none"/>
    </clipPath>
    <clipPath id="clip-path-3">
      <path id="Path_1568" data-name="Path 1568" d="M1066.733,638.722c-58.6-6.578-106.59-4.733-134.015,13.438V573.442H959.9v18.974a1.01,1.01,0,1,0,2.021,0V573.442h16.1a1.007,1.007,0,0,0,1.01-1.01h38.091a1.014,1.014,0,0,0,1.01,1.01h17.5v35.272a1.01,1.01,0,0,0,2.021,0V573.442h28.068v64.269A1.007,1.007,0,0,0,1066.733,638.722Z" transform="translate(-932.718 -572.432)" fill="none"/>
    </clipPath>
    <clipPath id="clip-path-4">
      <path id="Path_1574" data-name="Path 1574" d="M966.291,432.981l-7.325-6.891a2.018,2.018,0,0,0-2.991.263l-.293.394-.627-.546a2.417,2.417,0,0,0-1.749-.576,2.32,2.32,0,0,0-1.626.838L933.788,447.59c-.031.04-.031.081-.061.111a1.256,1.256,0,0,0-.121.233,1.089,1.089,0,0,0-.03.182,1.157,1.157,0,0,0-.021.192l.92,15.712-23.4,22.147-6.4,1.556-6.486-1.4-1.3-.272-1.738-30.886,1.687-43.234a10.872,10.872,0,0,1,2.809-6.891l20.3-22.4a10.878,10.878,0,0,1,10.729-3.254l22.2,5.6C968.868,398.558,973.465,415.087,966.291,432.981Z" transform="translate(-895.152 -379.051)" fill="none"/>
    </clipPath>
    <clipPath id="clip-_500-server-error">
      <rect width="390" height="397"/>
    </clipPath>
  </defs>
  <g id="_500-server-error" data-name="500-server-error" clip-path="url(#clip-_500-server-error)">
    <g id="Group_4553" data-name="Group 4553" transform="translate(-738.912 -218.498)">
      <g id="Group_4090" data-name="Group 4090" transform="translate(743.912 237.805)">
        <circle id="Ellipse_99" data-name="Ellipse 99" cx="10.726" cy="10.726" r="10.726" transform="translate(0 123.322)" fill="none" stroke="#dab67f" stroke-miterlimit="10" stroke-width="2"/>
        <circle id="Ellipse_100" data-name="Ellipse 100" cx="4.909" cy="4.909" r="4.909" transform="translate(143.149 27.856)" fill="none" stroke="#1a1a1a" stroke-miterlimit="10" stroke-width="2"/>
        <circle id="Ellipse_101" data-name="Ellipse 101" cx="5.363" cy="5.363" r="5.363" transform="translate(295.907 193.54)" fill="none" stroke="#dab67f" stroke-miterlimit="10" stroke-width="2"/>
        <circle id="Ellipse_102" data-name="Ellipse 102" cx="5.54" cy="5.54" r="5.54" transform="translate(294.374)" fill="none" stroke="#dab67f" stroke-miterlimit="10" stroke-width="2"/>
        <rect id="Rectangle_660" data-name="Rectangle 660" width="13.939" height="13.939" transform="translate(21.451 264.056) rotate(45)" fill="none" stroke="#1a1a1a" stroke-miterlimit="10" stroke-width="2"/>
        <rect id="Rectangle_661" data-name="Rectangle 661" width="13.939" height="13.939" transform="translate(71.349 1.223) rotate(45)" fill="none" stroke="#dab67f" stroke-miterlimit="10" stroke-width="2"/>
        <path id="Path_1527" data-name="Path 1527" d="M1159.55,506.547l7.158-5.3,5.3,7.158Z" transform="translate(-794.339 -271.624)" fill="none" stroke="#dab67f" stroke-linecap="round" stroke-linejoin="round" stroke-width="2"/>
        <path id="Path_1528" data-name="Path 1528" d="M1157.187,347.827l9.544-7.063,7.063,9.544Z" transform="translate(-794.052 -252.153)" fill="none" stroke="#dab67f" stroke-linecap="round" stroke-linejoin="round" stroke-width="2"/>
      </g>
      <g id="Group_4091" data-name="Group 4091" transform="translate(969.02 307.493)">
        <path id="Path_1529" data-name="Path 1529" d="M1048.9,363.824h-48.8l2.1-21.836v-.462a22.3,22.3,0,0,1,44.6,0v.462Z" transform="translate(-1000.102 -319.229)" fill="#dab67f"/>
      </g>
      <path id="Path_1530" data-name="Path 1530" d="M1066.733,638.722c-58.6-6.578-106.59-4.733-134.015,13.438V573.442H959.9v18.974a1.01,1.01,0,1,0,2.021,0V573.442h16.1a1.007,1.007,0,0,0,1.01-1.01h38.091a1.014,1.014,0,0,0,1.01,1.01h17.5v35.272a1.01,1.01,0,0,0,2.021,0V573.442h28.068v64.269A1.007,1.007,0,0,0,1066.733,638.722Z" transform="translate(-22.907 -42.455)" fill="#dab67f"/>
      <rect id="Rectangle_662" data-name="Rectangle 662" width="142.426" height="5.809" rx="2.875" transform="translate(903.836 521.394)" fill="#dab67f"/>
      <path id="Path_1531" data-name="Path 1531" d="M1078.372,568.473h-42.8l4.815-5.809h37.982a3.107,3.107,0,0,1,3.276,2.9h0A3.107,3.107,0,0,1,1078.372,568.473Z" transform="translate(-35.385 -41.27)" opacity="0.12"/>
      <path id="Path_1532" data-name="Path 1532" d="M984.261,502.606a6.783,6.783,0,0,0-4.88-4.84l-4.173-1.061-9.619-19.813a3.428,3.428,0,0,0-3.839-1.869c-1.405-2.84-3.355-5.881-5.174-5.507-1.465.283-1.748,2.183-1.838,3.8-.233,4.456-1.789,4.446-3.628,4.456a3.318,3.318,0,0,0-2.727.788c-.869.981-.656,2.324-.435,3.739.264,1.647.536,3.354-.7,4.708a12.636,12.636,0,0,0-3.092,7.022l-41.909-7.335-2.567-.556,2.627-.636a1.069,1.069,0,0,0,.454-.253l23.551-22.289,10.579,2.274a.8.8,0,0,0,.212.03h.04c.07-.011.132-.04.193-.051a1.279,1.279,0,0,0,.182-.05.969.969,0,0,0,.232-.162c.03-.02.061-.03.081-.061l.011-.01h.01l19.339-20.43a3.208,3.208,0,0,0,.869-2.5l-.738-7.8c9.356-19.935,4.981-38.374-12.68-53.347a35.6,35.6,0,0,0-4.93-7.517,41.081,41.081,0,0,0-21.7-13.236c-10.043-2.5-28.664-5.061-40.505,5.719a33,33,0,0,0-2.567,2.617h-.01a2.809,2.809,0,0,0-3.96.858l-1.213,1.96a2.79,2.79,0,0,0,.6,3.637c-8.78,15.217-9.224,35.586-9.2,40.273-.829.061-1.667.152-2.5.263a35.7,35.7,0,0,0-13.438,4.689c-2.334.627-27,8.406-28.381,58.389-.677,24.562,2.576,37.262,5.446,48.456,3.111,12.145,5.566,21.733,1.818,42.264a1.007,1.007,0,0,0,.819,1.171,1.071,1.071,0,0,0,.182.02,1.015,1.015,0,0,0,.99-.829c.04-.212.081-.424.111-.626,3.668-20.551,1.051-30.735-1.96-42.5-2.839-11.074-6.062-23.622-5.385-47.912.769-27.6,8.933-41.96,16.086-49.275a36.5,36.5,0,0,0-7.478,20.177l-3.354,58.944a16.382,16.382,0,0,0,6.547,14.085c3.849,2.879,8.679,6.264,14,9.507.808,1.01,2.354,4.789-1.152,17.984a1,1,0,0,0,.717,1.233,1.084,1.084,0,0,0,.253.031,1,1,0,0,0,.98-.748c2.011-7.568,2.678-13.286,1.991-16.842a105.216,105.216,0,0,0,14.317,6.981,20.072,20.072,0,0,0,7.253,1.344,21.026,21.026,0,0,0,9.346-2.213l15.973-7.992-5.415,27.886a1,1,0,0,0,.8,1.183.625.625,0,0,0,.192.02,1.007,1.007,0,0,0,.99-.819l5.718-29.411,3.537-1.769,46.679,3.516c.192.01.373.02.555.02a7.46,7.46,0,0,0,4.072-1.2l6.356-4.122a5.434,5.434,0,0,1,2.94-.869h17.388a1.01,1.01,0,0,0,0-2.021H960.76a7.447,7.447,0,0,0-4.042,1.192l-6.355,4.123a5.523,5.523,0,0,1-3.375.869l-45.971-3.466,2-38.03,43.394,7.608a23.779,23.779,0,0,1,4.2,1.112l4.022,1.445a11.216,11.216,0,0,0,8.871-.6l1.919-.99a4.4,4.4,0,0,1,3.1-.354l5.719,1.455h.01l4.617,1.172a4.739,4.739,0,0,1,3.425,3.4c.99,3.769,2.587,10.608,2.233,14.054a1.011,1.011,0,0,0,.909,1.1c.031,0,.071.01.1.01a1.025,1.025,0,0,0,1.01-.909C986.907,513.8,985.5,507.376,984.261,502.606Zm-57.3-41.567-.778-13.265,9.467,6.981.384,8.235Zm9.569-8.144-10.012-7.385L943.7,425.2a.409.409,0,0,1,.253-.132.369.369,0,0,1,.262.091l10.528,9.093Zm11.175-27.4.363-.495,7.861,7.4a1.054,1.054,0,0,1-.071.151Zm8.021,17.621-17.721,18.711-.334-7.2L955.5,436.377l.546,5.819A1.16,1.16,0,0,1,955.728,443.116Zm1.051-12.7-7.325-6.891a2.018,2.018,0,0,0-2.991.263l-.293.394-.627-.546a2.417,2.417,0,0,0-1.749-.576,2.32,2.32,0,0,0-1.626.838l-17.893,21.127c-.031.04-.031.081-.061.111a1.256,1.256,0,0,0-.121.233,1.089,1.089,0,0,0-.03.182,1.157,1.157,0,0,0-.021.192l.92,15.712-23.4,22.147-6.4,1.556-6.486-1.4-1.3-.272-1.738-30.886,1.687-43.234a10.872,10.872,0,0,1,2.809-6.891l20.3-22.4a10.878,10.878,0,0,1,10.729-3.254l22.2,5.6C959.355,395.993,963.952,412.523,956.779,430.416Zm-77.91-63.1c11.145-10.154,29.008-7.648,38.657-5.254a39.061,39.061,0,0,1,20.642,12.579,35.228,35.228,0,0,1,3.728,5.314l-20.238-5.1a12.913,12.913,0,0,0-12.721,3.849l-7.032,7.77-25.279-16.9C877.364,368.764,878.122,368,878.869,367.318Zm-7.395,5,1.213-1.959a.807.807,0,0,1,.505-.364.83.83,0,0,1,.616.121l26.724,17.863-3.829,4.233-25.037-18.833A.8.8,0,0,1,871.474,372.32Zm.495,3.809,23.37,17.591-6.71,7.4a12.893,12.893,0,0,0-3.324,8.164l-1.232,31.805c-6.275-18.307-17.954-24.4-20.895-25.673C863.168,411.512,863.512,391.012,871.969,376.129ZM898.976,527.2l-21.521,10.76a18.562,18.562,0,0,1-14.964.788,106.45,106.45,0,0,1-16.5-8.305,2.644,2.644,0,0,0-1.213-.737c-4.89-3.031-9.335-6.153-12.912-8.841a14.346,14.346,0,0,1-5.739-12.337l3.354-58.954a34.318,34.318,0,0,1,29.442-32.14c1.021-.141,2.061-.242,3.092-.313,1.778.727,16.247,7.295,21.8,30.331l-.2,5.153,1.707,30.432-7-1.516c-.04-.01-.112-.04-.2-.061a2.7,2.7,0,0,1-1.626-3.98c2.8-4.8,5.921-11.892,4.91-18.479a1.013,1.013,0,0,0-2,.313c.92,6-2.021,12.64-4.647,17.146a4.7,4.7,0,0,0-.364,3.991,81.179,81.179,0,0,0-12.781-2.04c-12.164-.9-21.46,1.748-26.875,7.668a1.012,1.012,0,1,0,1.495,1.365c11.215-12.266,36.969-5.325,40.97-4.143l.516.152a.106.106,0,0,1,.03.01h.01a.281.281,0,0,0,.091.02l11.185,2.425,5.931,1.283,6.042,1.3ZM964.5,495.655l-1.92.99a9.1,9.1,0,0,1-7.264.485l-4.011-1.445a27.353,27.353,0,0,0-4.537-1.191l-.627-.112a.28.28,0,0,0,.02-.09,10.657,10.657,0,0,1,2.587-5.931c1.88-2.071,1.485-4.557,1.2-6.376-.131-.808-.293-1.818-.05-2.082a3.236,3.236,0,0,1,1.162-.111h.061c2.567,0,5.325-.505,5.638-6.365a6.231,6.231,0,0,1,.283-1.819,15.83,15.83,0,0,1,2.93,4.4,3.478,3.478,0,0,0-.718,3.7l6.295,15.529A6.445,6.445,0,0,0,964.5,495.655Zm7.679.283-4.647-1.182-6.4-15.813a1.441,1.441,0,0,1,1.7-1.94,1.41,1.41,0,0,1,.939.768l8.871,18.288Z" transform="translate(-8.836 -16.429)" fill="#184c3d"/>
      <path id="Path_1533" data-name="Path 1533" d="M950.763,467.163l-9.467-6.981.778,13.265,9.073,1.951Zm-.686,5.6a1.437,1.437,0,0,1-1.415,1.424,1.325,1.325,0,0,1-.394-.061l-4.86-1.394a1.418,1.418,0,0,1-1.021-1.364v-6.8a1.415,1.415,0,0,1,2.263-1.132l4.859,3.658a1.416,1.416,0,0,1,.567,1.132Z" transform="translate(-23.947 -28.837)" fill="#333"/>
      <path id="Path_1534" data-name="Path 1534" d="M966.291,432.981l-7.325-6.891a2.018,2.018,0,0,0-2.991.263l-.293.394-.627-.546a2.417,2.417,0,0,0-1.749-.576,2.32,2.32,0,0,0-1.626.838L933.788,447.59c-.031.04-.031.081-.061.111a1.256,1.256,0,0,0-.121.233,1.089,1.089,0,0,0-.03.182,1.157,1.157,0,0,0-.021.192l.92,15.712-23.4,22.147-6.4,1.556-6.486-1.4-1.3-.272-1.738-30.886,1.687-43.234a10.872,10.872,0,0,1,2.809-6.891l20.3-22.4a10.878,10.878,0,0,1,10.729-3.254l22.2,5.6C968.868,398.558,973.465,415.087,966.291,432.981Z" transform="translate(-18.349 -18.994)" fill="#ffa900"/>
      <path id="Path_1535" data-name="Path 1535" d="M908.072,389.647l-3.829,4.233-25.037-18.833a.8.8,0,0,1-.192-1.061l1.213-1.959a.807.807,0,0,1,.505-.364.83.83,0,0,1,.616.121Z" transform="translate(-16.376 -18.095)" fill="#ffa900"/>
      <path id="Path_1536" data-name="Path 1536" d="M969.905,443.528l-18.217,18.641-10.012-7.385,17.186-20.308a.409.409,0,0,1,.253-.132.369.369,0,0,1,.262.091Z" transform="translate(-23.993 -25.702)" fill="#2c7f69"/>
      <path id="Path_1537" data-name="Path 1537" d="M972.425,453.95,954.7,472.662l-.334-7.2,17.823-18.247.546,5.819A1.16,1.16,0,0,1,972.425,453.95Z" transform="translate(-25.533 -27.263)" fill="#666" opacity="0.3"/>
      <path id="Path_1538" data-name="Path 1538" d="M902.3,496.666l-2.031,38.707-21.521,10.76a18.562,18.562,0,0,1-14.964.788,106.439,106.439,0,0,1-16.5-8.305,2.645,2.645,0,0,0-1.213-.737c-4.89-3.031-9.335-6.153-12.912-8.841a14.346,14.346,0,0,1-5.739-12.337l3.354-58.954a34.318,34.318,0,0,1,29.442-32.14c1.021-.141,2.061-.242,3.092-.313,1.778.727,16.247,7.295,21.8,30.331l-.2,5.153,1.707,30.432-7-1.516c-.041-.01-.112-.04-.2-.061a2.7,2.7,0,0,1-1.626-3.98c2.8-4.8,5.921-11.892,4.91-18.479a1.013,1.013,0,0,0-2,.313c.92,6-2.021,12.64-4.647,17.146a4.7,4.7,0,0,0-.364,3.991,81.177,81.177,0,0,0-12.781-2.04c-12.164-.9-21.46,1.748-26.875,7.668a1.012,1.012,0,1,0,1.495,1.365c11.215-12.266,36.969-5.325,40.97-4.143l.516.152a.106.106,0,0,1,.03.01h.01a.281.281,0,0,0,.09.02l11.185,2.425,5.931,1.283Z" transform="translate(-10.129 -24.604)" fill="#2c7f69"/>
      <path id="Path_1539" data-name="Path 1539" d="M949.661,467.5l-4.859-3.658a1.415,1.415,0,0,0-2.263,1.132v6.8a1.418,1.418,0,0,0,1.021,1.364l4.86,1.394a1.326,1.326,0,0,0,.394.061,1.437,1.437,0,0,0,1.415-1.424v-4.537A1.416,1.416,0,0,0,949.661,467.5Zm-1.454,4.87-3.647-1.051v-5.132l3.647,2.749Z" transform="translate(-24.098 -29.247)" fill="#184c3d"/>
      <path id="Path_1540" data-name="Path 1540" d="M948.485,469.3v3.435l-3.648-1.051v-5.132Z" transform="translate(-24.377 -29.61)" fill="#333"/>
      <path id="Path_1541" data-name="Path 1541" d="M1007.62,513.737a1.009,1.009,0,0,0,1.01-1.01v-8.094a1.01,1.01,0,1,0-2.021,0v8.094A1.01,1.01,0,0,0,1007.62,513.737Z" transform="translate(-31.871 -34.107)" fill="#184c3d"/>
      <path id="Path_1542" data-name="Path 1542" d="M1018.606,520.439a1.023,1.023,0,0,0,.367.068,1.011,1.011,0,0,0,.942-.642l5.037-12.893a1.011,1.011,0,1,0-1.882-.736l-5.038,12.893A1.013,1.013,0,0,0,1018.606,520.439Z" transform="translate(-33.249 -34.346)" fill="#184c3d"/>
      <g id="Group_4092" data-name="Group 4092" transform="translate(970.453 365.688)">
        <path id="Path_1543" data-name="Path 1543" d="M1002.07,394.378a1.033,1.033,0,0,0,.321.192,1.014,1.014,0,0,0,1.106-.275l6.37-7.154a1.011,1.011,0,1,0-1.51-1.344l-6.37,7.154A1.012,1.012,0,0,0,1002.07,394.378Z" transform="translate(-1001.732 -385.459)" fill="#184c3d"/>
      </g>
      <g id="Group_4093" data-name="Group 4093" transform="translate(1006.592 365.688)">
        <path id="Path_1544" data-name="Path 1544" d="M1050.26,393.643a1,1,0,0,1-.321.192,1.011,1.011,0,0,1-1.106-.275l-5.716-6.42a1.011,1.011,0,0,1,1.51-1.344l5.716,6.42A1.012,1.012,0,0,1,1050.26,393.643Z" transform="translate(-1042.862 -385.459)" fill="#184c3d"/>
      </g>
      <g id="Group_4094" data-name="Group 4094" transform="translate(990.831 371.853)">
        <path id="Path_1545" data-name="Path 1545" d="M1025.876,408.314a1.022,1.022,0,0,1-.364-.091,1.01,1.01,0,0,1-.587-.976l.8-13.819a1.011,1.011,0,0,1,2.018.117l-.8,13.819A1.011,1.011,0,0,1,1025.876,408.314Z" transform="translate(-1024.924 -392.475)" fill="#184c3d"/>
      </g>
      <path id="Path_1546" data-name="Path 1546" d="M1028.781,545.131h.042l17.513-.72a1.01,1.01,0,1,0-.083-2.018l-17.513.719a1.01,1.01,0,0,0,.04,2.02Z" transform="translate(-34.439 -38.81)" fill="#184c3d"/>
      <path id="Path_1547" data-name="Path 1547" d="M1013.8,559.531a.984.984,0,0,0,.446.115h4.024a1.01,1.01,0,0,0,0-2.021h-3.112a6.086,6.086,0,0,0-11.882,0h-2.558a1.01,1.01,0,1,0,0,2.021h6.66a1.01,1.01,0,0,0,0-2.021h-2.014a3.98,3.98,0,0,1,3.852-2.746,3.9,3.9,0,0,1,4.019,3.756,1,1,0,0,0,.054.267Z" transform="translate(-31.034 -40.08)" fill="#184c3d"/>
      <path id="Path_1548" data-name="Path 1548" d="M995.465,556.838a1.01,1.01,0,0,0-1.363.431L983.4,577.9a1.011,1.011,0,0,0,1.794.931L995.9,558.2A1.011,1.011,0,0,0,995.465,556.838Z" transform="translate(-29.041 -40.55)" fill="#184c3d"/>
      <path id="Path_1549" data-name="Path 1549" d="M983.51,561.2l-4.078,6.356a1.012,1.012,0,0,0,.3,1.4,1.011,1.011,0,0,0,1.4-.3l4.078-6.356a1.011,1.011,0,0,0-1.7-1.091Z" transform="translate(-28.555 -41.036)" fill="#184c3d"/>
      <path id="Path_1550" data-name="Path 1550" d="M982.342,550.816l-8.636,3.17a1.01,1.01,0,1,0,.7,1.9l8.636-3.17a1.01,1.01,0,0,0-.7-1.9Z" transform="translate(-27.799 -39.825)" fill="#184c3d"/>
      <path id="Path_1551" data-name="Path 1551" d="M1027.819,527.776,1023.17,531a1.01,1.01,0,1,0,1.151,1.66l4.649-3.22a1.01,1.01,0,0,0-1.151-1.66Z" transform="translate(-33.828 -37.016)" fill="#184c3d"/>
      <path id="Path_1552" data-name="Path 1552" d="M1026.547,558.128l-4.438-2.879a1.01,1.01,0,0,0-1.1,1.7l4.438,2.879a1.01,1.01,0,0,0,1.1-1.7Z" transform="translate(-33.563 -40.351)" fill="#184c3d"/>
      <path id="Path_1553" data-name="Path 1553" d="M1000.314,563.848a1.009,1.009,0,0,0-1.208.763l-1.466,6.477a1.01,1.01,0,0,0,.763,1.208,1.034,1.034,0,0,0,.224.025,1.01,1.01,0,0,0,.985-.787l1.466-6.477A1.01,1.01,0,0,0,1000.314,563.848Z" transform="translate(-30.78 -41.411)" fill="#184c3d"/>
      <path id="Path_1554" data-name="Path 1554" d="M1011.611,568.8a1.01,1.01,0,0,0,.889-1.489l-2.84-5.277a1.01,1.01,0,0,0-1.779.957l2.839,5.278A1.011,1.011,0,0,0,1011.611,568.8Z" transform="translate(-32.011 -41.129)" fill="#184c3d"/>
      <path id="Path_1555" data-name="Path 1555" d="M981.143,559.3a1.013,1.013,0,0,1-1.01,1.01H927.846a4.7,4.7,0,0,0,0,9.4h48.77a1.01,1.01,0,0,1,0,2.021h-16.1V590.7a1.01,1.01,0,1,1-2.021,0V571.726H931.312v78.919a1.01,1.01,0,0,1-2.021,0V571.726h-1.445a6.719,6.719,0,0,1,0-13.438h52.287A1.008,1.008,0,0,1,981.143,559.3Z" transform="translate(-21.5 -40.739)" fill="#184c3d"/>
      <path id="Path_1556" data-name="Path 1556" d="M995.314,571.277h-1.868a1.01,1.01,0,1,0,0,2.02h1.868a1.01,1.01,0,1,0,0-2.02Z" transform="translate(-30.152 -42.315)" fill="#184c3d"/>
      <path id="Path_1557" data-name="Path 1557" d="M1016.771,571.277h-13.419a1.01,1.01,0,0,0,0,2.02h5.5v48.787a1.01,1.01,0,1,0,2.021,0V573.3h5.9a1.01,1.01,0,1,0,0-2.02Z" transform="translate(-31.354 -42.315)" fill="#184c3d"/>
      <path id="Path_1558" data-name="Path 1558" d="M1085.106,565.007a6.719,6.719,0,0,1-5.708,6.628V636a1.01,1.01,0,1,1-2.021,0V571.726h-28.068V607a1.01,1.01,0,0,1-2.021,0V571.726h-17.5a1.01,1.01,0,1,1,0-2.021h48.6a4.7,4.7,0,0,0,0-9.4h-45.8a1.01,1.01,0,1,1,0-2.021h45.8A6.728,6.728,0,0,1,1085.106,565.007Z" transform="translate(-34.561 -40.739)" fill="#184c3d"/>
      <path id="Path_1559" data-name="Path 1559" d="M890,570.7a.625.625,0,0,0,.192.02c-20.236-1.672-41.56,1.409-63.714,8.1,3.668-20.551,1.051-30.735-1.96-42.5-2.839-11.074-6.062-23.622-5.385-47.912.769-27.6,8.933-41.96,16.086-49.275a36.5,36.5,0,0,0-7.478,20.177l-3.354,58.944a16.382,16.382,0,0,0,6.547,14.085c3.849,2.879,8.679,6.264,14,9.507.808,1.01,2.354,4.789-1.152,17.984a1,1,0,0,0,.717,1.233,1.084,1.084,0,0,0,.253.031,1,1,0,0,0,.98-.748c2.011-7.568,2.678-13.286,1.991-16.842a105.216,105.216,0,0,0,14.317,6.981,20.072,20.072,0,0,0,7.253,1.344,21.026,21.026,0,0,0,9.346-2.213l15.973-7.992L889.2,569.516A1,1,0,0,0,890,570.7Z" transform="translate(-9.115 -26.284)" fill="#2c7f69"/>
      <line id="Line_91" data-name="Line 91" x1="2.102" y2="0.263" transform="translate(815.262 552.538)" fill="none"/>
      <path id="Path_1560" data-name="Path 1560" d="M997.18,536.37l-6.385,6.911a1.014,1.014,0,0,0-1.01-1.01H972.4a7.447,7.447,0,0,0-4.042,1.192L962,547.585a5.523,5.523,0,0,1-3.375.869l-45.971-3.466,2-38.03,43.394,7.608a23.779,23.779,0,0,1,4.2,1.112l4.022,1.445a11.216,11.216,0,0,0,8.871-.6l1.919-.99a4.4,4.4,0,0,1,3.1-.354l5.719,1.455h.01l4.617,1.172a4.739,4.739,0,0,1,3.425,3.4c.99,3.769,2.587,10.608,2.233,14.054a1.011,1.011,0,0,0,.909,1.1C997.11,536.36,997.15,536.37,997.18,536.37Z" transform="translate(-20.472 -34.512)" fill="#ffa900"/>
      <path id="Path_1561" data-name="Path 1561" d="M1000.719,557.483c1.361-5.475,7.007-11.4,12.865-13.533" transform="translate(-31.157 -39)" fill="none" stroke="#184c3d" stroke-linecap="round" stroke-linejoin="round" stroke-width="2"/>
      <line id="Line_92" data-name="Line 92" x1="11.942" transform="translate(994.217 529.977)" fill="none" stroke="#184c3d" stroke-linecap="round" stroke-linejoin="round" stroke-width="2"/>
      <line id="Line_93" data-name="Line 93" x1="0.727" transform="translate(955.399 529.977)" fill="none" stroke="#184c3d" stroke-linecap="round" stroke-linejoin="round" stroke-width="2"/>
      <g id="Group_4096" data-name="Group 4096" transform="translate(817.27 400.691)" opacity="0.2">
        <g id="Group_4095" data-name="Group 4095" clip-path="url(#clip-path)">
          <path id="Path_1562" data-name="Path 1562" d="M882.738,469.94s-.3-11.834-3.206-14.744-2.1,28.781-9.055,29.1-29.484-2.153-33.255,13.556c0,0,11.74-10.68,39.656-5.628C876.878,492.229,885.621,477.247,882.738,469.94Z" transform="translate(-828.59 -428.9)"/>
          <path id="Path_1563" data-name="Path 1563" d="M867.226,427.693s-23.931,4.221-26.3,13.974-14.233,58.132-7.116,74.8,33.475,22.919,33.475,22.919l32.853-17.324-3.067,31.175-43.016,15.929-41.858-47.894-2.636-41.119,10.807-42.494,30.313-23.4Z" transform="translate(-825.234 -423.956)"/>
        </g>
      </g>
      <g id="Group_4098" data-name="Group 4098" transform="translate(809.926 412.855)" opacity="0.2">
        <g id="Group_4097" data-name="Group 4097" clip-path="url(#clip-path-2)">
          <path id="Path_1565" data-name="Path 1565" d="M893.219,559.428,876.965,584.15l.98,4.359,21.574-2.688,7.781-32.4-1.981-2.334Z" transform="translate(-826.069 -452.721)"/>
        </g>
      </g>
      <g id="Group_4100" data-name="Group 4100" transform="translate(909.811 529.977)">
        <g id="Group_4099" data-name="Group 4099" transform="translate(0 0)" clip-path="url(#clip-path-3)">
          <path id="Path_1567" data-name="Path 1567" d="M1027.013,572.426l45.637,0,2.436,64.676-2.866,4.77-8.813,1.97-46.866,1.555-35.046-.726Z" transform="translate(-938.636 -572.431)" opacity="0.12"/>
        </g>
      </g>
      <g id="Group_4101" data-name="Group 4101" transform="translate(963.218 302.145)">
        <path id="Path_1569" data-name="Path 1569" d="M1052.895,368.434H994.509a1.009,1.009,0,0,1-1.005-1.107l2.558-26.636a27.643,27.643,0,0,1,55.286.1l2.553,26.54a1.009,1.009,0,0,1-1.005,1.107Zm-57.274-2.02h56.161l-2.451-25.53a25.628,25.628,0,1,0-51.255-.1Z" transform="translate(-993.498 -313.142)" fill="#184c3d"/>
      </g>
      <g id="Group_4102" data-name="Group 4102" transform="translate(973.858 310.233)">
        <path id="Path_1570" data-name="Path 1570" d="M1043.72,343.3a1.009,1.009,0,0,1-1.01-1.01v-.383a17.54,17.54,0,1,0-35.08,0,1.01,1.01,0,0,1-2.021,0,19.561,19.561,0,1,1,39.122,0v.383A1.01,1.01,0,0,1,1043.72,343.3Z" transform="translate(-1005.608 -322.347)" fill="#184c3d"/>
      </g>
      <g id="Group_4103" data-name="Group 4103" transform="translate(992.411 222.498)">
        <path id="Path_1571" data-name="Path 1571" d="M1027.732,311.7a1.009,1.009,0,0,1-1.01-1.01V223.508a1.01,1.01,0,1,1,2.021,0v87.179A1.009,1.009,0,0,1,1027.732,311.7Z" transform="translate(-1026.722 -222.498)" fill="#184c3d"/>
      </g>
      <g id="Group_4104" data-name="Group 4104" transform="translate(980.286 358.521)">
        <path id="Path_1572" data-name="Path 1572" d="M1026.057,384.2a17.672,17.672,0,0,1-12.864-5.147,1.01,1.01,0,0,1,1.482-1.373,16.632,16.632,0,0,0,22.808-.051,1.011,1.011,0,1,1,1.492,1.364A17.629,17.629,0,0,1,1026.057,384.2Z" transform="translate(-1012.923 -377.303)" fill="#184c3d"/>
      </g>
      <g id="Group_4106" data-name="Group 4106" transform="translate(876.803 360.058)" opacity="0.1">
        <g id="Group_4105" data-name="Group 4105" clip-path="url(#clip-path-4)">
          <path id="Path_1573" data-name="Path 1573" d="M960.753,428.4s7.159-22.062-3.182-33.4-26.846-14.915-32.812-9.943-23.467,22.274-23.665,36.79-1.572,64.285-1.572,64.285l-14.619-3.21-4.69-54.014,11.136-60.767,42.871-13.312,37.074,11.534,6.761,26.648-3.521,33.012-2.247,6.148-1.392,6.436Z" transform="translate(-893.339 -376.113)"/>
        </g>
      </g>
    </g>
  </g>
</svg>
