<svg xmlns="http://www.w3.org/2000/svg" width="911.988" height="911.988" viewBox="0 0 911.988 911.988"><defs><style>.a{fill:#ebe8db;}</style></defs><g transform="translate(-87.434 -554.236)"><path class="a" d="M178.167,695.475c-21.138,13.851-26.264,42.3-8.767,59.793v.016l48.835,48.834c13.877,12.36,20.416,39.351,20.416,39.351v.005l81.658-81.663c71.258-71.253,73.881-141.462,61.706-175.17-.869-2.376-7.866-18.624-10.426-18.366-.727.084-1.275,1.043-1.259,3.172a14.412,14.412,0,0,0,.279,3.029c10.19,46.685-17.5,107.885-52.5,147.257h.011L243.04,796.8c-2.908-10.206-13.119-21.876-13.119-21.876v.005l-43.013-43.013c-11.659-11.665-13.851-21.111-8.741-36.443" transform="translate(304.769 166.759)"/><path class="a" d="M178.149,681.941c-21.1-13.867-26.253-42.312-8.756-59.809l48.84-48.829c13.888-12.36,20.421-39.346,20.421-39.346l81.653,81.658c71.237,71.232,73.881,141.451,61.7,175.17-.864,2.366-7.871,18.614-10.4,18.329-.769-.063-1.3-1.043-1.285-3.145a15.447,15.447,0,0,1,.295-3.014c10.168-46.7-17.5-107.9-52.517-147.267l-75.072-75.072c-2.9,10.205-13.1,21.891-13.1,21.891h.005L186.931,645.5c-11.665,11.664-13.883,21.111-8.777,36.443Z" transform="translate(304.772 20.28)"/><path class="a" d="M355.133,681.957c21.132-13.856,26.259-42.307,8.767-59.8v-.011l-48.845-48.834c-13.867-12.365-20.416-39.357-20.416-39.357l-81.647,81.658c-71.258,71.252-73.892,141.467-61.7,175.17.859,2.382,7.861,18.63,10.421,18.372.727-.079,1.265-1.048,1.254-3.177a14.421,14.421,0,0,0-.285-3.024c-10.174-46.685,17.5-107.885,52.5-147.257l75.078-75.072c2.9,10.211,13.119,21.881,13.119,21.881V602.5l43,43.008c11.67,11.675,13.856,21.122,8.746,36.453Z" transform="translate(248.781 20.28)"/><path class="a" d="M355.138,695.457c21.09,13.867,26.253,42.306,8.756,59.8v-.005L315.06,804.1c-13.888,12.355-20.426,39.341-20.426,39.341l-81.653-81.658c-71.237-71.231-73.876-141.456-61.7-175.17.869-2.371,7.871-18.614,10.395-18.329.769.069,1.3,1.043,1.3,3.14a15.706,15.706,0,0,1-.311,3.019c-10.163,46.7,17.508,107.9,52.517,147.268l75.083,75.067c2.908-10.2,13.1-21.886,13.1-21.886l42.986-42.981c11.67-11.68,13.888-21.122,8.783-36.453" transform="translate(248.787 166.792)"/><path class="a" d="M321.978,624.693c-13.851-21.143-42.3-26.264-59.793-8.767h-.011l-48.84,48.834c-12.355,13.872-39.346,20.416-39.346,20.416h-.005l81.663,81.658c71.247,71.258,141.456,73.882,175.165,61.706,2.381-.869,18.624-7.871,18.372-10.432-.089-.722-1.048-1.27-3.172-1.259a14.783,14.783,0,0,0-3.03.284c-46.685,10.184-107.89-17.5-147.257-52.5v.006L220.657,689.56c10.2-2.908,21.875-13.114,21.875-13.114h-.01l43.013-43.013c11.67-11.664,21.111-13.856,36.443-8.741" transform="translate(369.442 325.052)"/><path class="a" d="M335.478,624.668c13.872-21.09,42.312-26.248,59.809-8.751l48.835,48.834c12.36,13.893,39.346,20.421,39.346,20.421L401.81,766.83c-71.237,71.237-141.451,73.882-175.17,61.7-2.371-.87-18.619-7.877-18.329-10.406.058-.764,1.043-1.291,3.14-1.286a15.485,15.485,0,0,1,3.014.3c46.7,10.169,107.906-17.508,147.273-52.517L436.8,689.545c-10.205-2.908-21.891-13.108-21.891-13.108v.005l-42.986-42.986c-11.67-11.67-21.117-13.888-36.448-8.783Z" transform="translate(515.955 325.056)"/><path class="a" d="M335.5,801.652c13.851,21.138,42.3,26.259,59.8,8.767h.011l48.835-48.84c12.365-13.872,39.356-20.416,39.356-20.416l-81.658-81.653c-71.253-71.252-141.467-73.887-175.175-61.7-2.376.859-18.624,7.856-18.366,10.416.074.732,1.043,1.269,3.177,1.254a13.983,13.983,0,0,0,3.019-.279c46.685-10.179,107.89,17.5,147.257,52.5l75.072,75.077c-10.205,2.9-21.88,13.114-21.88,13.114h.01l-43,43.008c-11.675,11.67-21.122,13.851-36.459,8.741Z" transform="translate(515.921 269.065)"/><path class="a" d="M321.967,801.664c-13.867,21.085-42.312,26.253-59.809,8.751h.011l-48.845-48.83c-12.355-13.893-39.341-20.426-39.341-20.426l81.653-81.653c71.231-71.237,141.462-73.882,175.17-61.7,2.371.87,18.619,7.871,18.329,10.4-.063.764-1.043,1.3-3.14,1.3a15.577,15.577,0,0,1-3.014-.306c-46.7-10.168-107.9,17.5-147.273,52.518l-75.067,75.078c10.205,2.913,21.891,13.1,21.891,13.1l42.981,42.982c11.675,11.675,21.122,13.893,36.453,8.788" transform="translate(369.442 269.069)"/><path class="a" d="M355.131,768.506c21.137-13.851,26.264-42.3,8.767-59.793V708.7l-48.835-48.835c-13.877-12.355-20.416-39.351-20.416-39.351v-.006l-81.663,81.668c-71.252,71.247-73.876,141.457-61.7,175.165.864,2.376,7.866,18.624,10.432,18.366.722-.084,1.27-1.048,1.254-3.172a14.773,14.773,0,0,0-.279-3.03c-10.189-46.685,17.5-107.885,52.5-147.252h-.01l75.078-75.072c2.908,10.205,13.119,21.875,13.119,21.875v-.005l43.013,43.013c11.659,11.665,13.851,21.111,8.741,36.443" transform="translate(248.783 389.722)"/><path class="a" d="M355.141,782.006c21.1,13.867,26.253,42.312,8.756,59.809l-48.84,48.829c-13.888,12.361-20.421,39.346-20.421,39.346l-81.658-81.653c-71.231-71.237-73.876-141.457-61.69-175.17.864-2.371,7.871-18.619,10.4-18.334.769.063,1.3,1.043,1.286,3.145a15.127,15.127,0,0,1-.3,3.014c-10.163,46.7,17.507,107.9,52.523,147.268l75.072,75.072c2.9-10.206,13.1-21.891,13.1-21.891h-.005l42.992-42.991c11.665-11.665,13.883-21.112,8.777-36.443Z" transform="translate(248.789 536.235)"/><path class="a" d="M178.165,782.029c-21.138,13.851-26.259,42.3-8.767,59.8v.005l48.845,48.839c13.867,12.366,20.416,39.352,20.416,39.352l81.648-81.653c71.258-71.258,73.892-141.467,61.7-175.181-.859-2.376-7.855-18.624-10.421-18.366-.727.078-1.264,1.048-1.254,3.177a14.733,14.733,0,0,0,.279,3.024c10.179,46.685-17.5,107.89-52.5,147.257l-75.078,75.072c-2.9-10.21-13.119-21.881-13.119-21.881v.011l-43-43.008c-11.675-11.675-13.856-21.122-8.746-36.453Z" transform="translate(304.771 536.201)"/><path class="a" d="M178.15,768.49c-21.09-13.861-26.259-42.307-8.756-59.8v.006l48.835-48.845c13.888-12.355,20.426-39.341,20.426-39.341l81.653,81.658c71.237,71.232,73.876,141.457,61.7,175.17-.869,2.371-7.871,18.614-10.395,18.33-.769-.069-1.3-1.043-1.3-3.14a15.716,15.716,0,0,1,.311-3.019c10.163-46.7-17.508-107.9-52.523-147.267L243.017,667.17c-2.908,10.205-13.1,21.886-13.1,21.886l-42.987,42.981c-11.67,11.681-13.888,21.127-8.783,36.454" transform="translate(304.776 389.722)"/><path class="a" d="M248.956,801.652c13.851,21.143,42.3,26.264,59.793,8.767h.01l48.84-48.83c12.355-13.877,39.351-20.421,39.351-20.421h0L315.288,659.51c-71.247-71.252-141.456-73.881-175.165-61.7-2.376.864-18.63,7.866-18.372,10.427.09.727,1.048,1.27,3.172,1.259a15.141,15.141,0,0,0,3.029-.279c46.685-10.2,107.89,17.5,147.257,52.5v-.01l75.067,75.083C340.071,739.693,328.4,749.9,328.4,749.9h.011L285.4,792.912c-11.67,11.664-21.111,13.856-36.443,8.74" transform="translate(146.474 269.065)"/><path class="a" d="M235.413,801.669c-13.862,21.09-42.307,26.248-59.8,8.751l-48.835-48.835c-12.36-13.893-39.341-20.426-39.341-20.426l81.653-81.653c71.237-71.237,141.451-73.882,175.17-61.7,2.371.87,18.619,7.877,18.335,10.4-.069.77-1.049,1.3-3.145,1.291a15.431,15.431,0,0,1-3.014-.3c-46.7-10.168-107.9,17.508-147.273,52.517l-75.067,75.073c10.2,2.908,21.891,13.108,21.891,13.108v-.006l42.986,42.987c11.67,11.67,21.116,13.888,36.443,8.783Z" transform="translate(0 269.069)"/><path class="a" d="M235.429,624.69c-13.851-21.138-42.307-26.259-59.8-8.767h-.011l-48.835,48.84c-12.365,13.873-39.351,20.416-39.351,20.416l81.653,81.652c71.252,71.252,141.467,73.887,175.175,61.7,2.376-.859,18.624-7.86,18.366-10.421-.074-.733-1.043-1.27-3.172-1.254a14.362,14.362,0,0,0-3.024.279c-46.685,10.179-107.89-17.5-147.257-52.5L134.1,689.557c10.21-2.9,21.886-13.119,21.886-13.119h-.01l43-43c11.675-11.67,21.127-13.851,36.459-8.741Z" transform="translate(0 325.055)"/><path class="a" d="M248.929,624.669c13.867-21.085,42.312-26.253,59.809-8.751h-.01l48.845,48.829c12.355,13.893,39.341,20.427,39.341,20.427l-81.653,81.652c-71.231,71.242-141.462,73.882-175.17,61.7-2.371-.875-18.619-7.871-18.329-10.4.063-.764,1.038-1.3,3.14-1.3a15.6,15.6,0,0,1,3.014.306c46.7,10.169,107.9-17.508,147.268-52.517l75.072-75.077c-10.205-2.913-21.891-13.1-21.891-13.1l-42.981-42.986c-11.675-11.675-21.122-13.893-36.453-8.788" transform="translate(146.512 325.059)"/></g></svg>