<svg xmlns="http://www.w3.org/2000/svg" xmlns:xlink="http://www.w3.org/1999/xlink" width="912" height="16" viewBox="0 0 912 16">
  <defs>
    <clipPath id="clip-_16x16_icons">
      <rect width="912" height="16"/>
    </clipPath>
  </defs>
  <g id="_16x16_icons" data-name="16x16 icons" clip-path="url(#clip-_16x16_icons)">
    <rect id="Rectangle_2954" data-name="Rectangle 2954" width="16" height="16" transform="translate(224)" fill="none"/>
    <rect id="Rectangle_2960" data-name="Rectangle 2960" width="16" height="16" transform="translate(208)" fill="none"/>
    <rect id="Rectangle_2961" data-name="Rectangle 2961" width="16" height="16" transform="translate(273)" fill="none"/>
    <path id="Path_2549" data-name="Path 2549" d="M0,0H16V16H0Z" transform="translate(337)" fill="none"/>
    <path id="Path_2550" data-name="Path 2550" d="M0,0H16V16H0Z" transform="translate(305)" fill="none"/>
    <rect id="Rectangle_2962" data-name="Rectangle 2962" width="16" height="16" transform="translate(321)" fill="none"/>
    <rect id="Rectangle_2963" data-name="Rectangle 2963" width="16" height="16" transform="translate(385)" fill="none"/>
    <path id="Path_2551" data-name="Path 2551" d="M0,0H16V16H0Z" transform="translate(417)" fill="none"/>
    <rect id="Rectangle_2964" data-name="Rectangle 2964" width="16" height="16" transform="translate(401)" fill="none"/>
    <rect id="Rectangle_2965" data-name="Rectangle 2965" width="16" height="16" transform="translate(433)" fill="none"/>
    <rect id="Rectangle_2968" data-name="Rectangle 2968" width="15.932" height="15.932" transform="translate(369 -0.432)" fill="none"/>
    <rect id="Rectangle_2972" data-name="Rectangle 2972" width="16" height="16" transform="translate(208)" fill="none"/>
    <g id="Group_6090" data-name="Group 6090" transform="translate(-23 -63.605)">
      <g id="Group_612" data-name="Group 612" transform="translate(230.999 69.606)">
        <path id="Path_160" data-name="Path 160" d="M-16369.372,1556.113s6.422,10.065,13.3,0" transform="translate(16370.797 -1556.113)" fill="none" stroke="#ddaa4a" stroke-linecap="round" stroke-width="2.5"/>
      </g>
    </g>
    <g id="Group_6091" data-name="Group 6091" transform="translate(-145.225 -120.758)">
      <path id="Union_4" data-name="Union 4" d="M0,12.812A3.189,3.189,0,1,1,3.19,16,3.19,3.19,0,0,1,0,12.812ZM5.091,5.837a.5.5,0,0,1-.436-.746L7.411.228a.5.5,0,0,1,.869,0l2.755,4.864a.5.5,0,0,1-.435.746Z" transform="translate(371.002 120.758)" fill="#ddaa4a"/>
      <g id="Group_2185" data-name="Group 2185" transform="translate(384.032 131.6)">
        <path id="Path_161" data-name="Path 161" d="M-16346.22,1562.186v-3.58" transform="translate(16346.22 -1558.606)" fill="none" stroke="#ddaa4a" stroke-linecap="round" stroke-width="2.5"/>
      </g>
      <rect id="Rectangle_487" data-name="Rectangle 487" width="16" height="16" transform="translate(370.225 120.758)" fill="none"/>
    </g>
    <g id="noun_exclamation_2492166" transform="translate(306 1)">
      <g id="Group_214" data-name="Group 214">
        <path id="Path_48" data-name="Path 48" d="M9.218,11.55h1.554V6.886H9.218ZM10,13.881a.777.777,0,1,1,.777-.777.777.777,0,0,1-.777.777ZM14.659,3H5.332A2.332,2.332,0,0,0,3,5.332v9.327A2.332,2.332,0,0,0,5.332,16.99h9.327a2.332,2.332,0,0,0,2.332-2.332V5.332A2.332,2.332,0,0,0,14.659,3Z" transform="translate(-3 -3)" fill="#e0534e" fill-rule="evenodd"/>
      </g>
    </g>
    <rect id="Rectangle_2973" data-name="Rectangle 2973" width="16" height="16" transform="translate(305)" fill="none"/>
    <g id="noun_tick_2000994_1_" data-name="noun_tick_2000994 (1)" transform="translate(205 -149.117)">
      <g id="Group_195" data-name="Group 195" transform="translate(117.665 151.95)">
        <path id="Path_47" data-name="Path 47" d="M12.72,2.162,4.626,10.257,0,5.681,2.162,3.469,4.626,5.933,10.559,0Z" fill="#1eb496"/>
      </g>
    </g>
    <rect id="Rectangle_2974" data-name="Rectangle 2974" width="16" height="16" transform="translate(321 -0.117)" fill="none"/>
    <g id="Group_6092" data-name="Group 6092" transform="translate(-981 -777)">
      <rect id="Rectangle_195" data-name="Rectangle 195" width="16" height="16" rx="5" transform="translate(1318 777)" fill="none"/>
      <path id="Path_382" data-name="Path 382" d="M28.456,322.865,24.3,327.022a3.045,3.045,0,1,0,4.307,4.307l7.281-7.213A2.2,2.2,0,0,0,32.775,321l-6.884,6.829a1.346,1.346,0,1,0,1.9,1.9l4.71-4.71" transform="translate(1296.076 458.66)" fill="none" stroke="#000" stroke-linecap="round" stroke-miterlimit="10" stroke-width="1"/>
    </g>
    <g id="Group_6093" data-name="Group 6093" transform="translate(-1017 -776)">
      <rect id="Rectangle_196" data-name="Rectangle 196" width="16" height="16" transform="translate(1370 776)" fill="none"/>
      <g id="Group_738" data-name="Group 738" transform="translate(1371.087 778.349)">
        <g id="Group_737" data-name="Group 737">
          <path id="Path_384" data-name="Path 384" d="M802.224,304.41h-1.047a1.88,1.88,0,0,0-1.88,1.881v.013a.149.149,0,0,1-.112.143c-.376.089-1.584.38-2.006.515s-1.457.521-1.773.653a.155.155,0,0,0-.1.143l.03,4.659a3.146,3.146,0,0,0,3.146,3.146h.294" transform="translate(-795.31 -304.41)" fill="none" stroke="#000" stroke-linecap="round" stroke-miterlimit="10" stroke-width="1"/>
          <path id="Path_385" data-name="Path 385" d="M852.72,304.41h1.047a1.88,1.88,0,0,1,1.881,1.881v.013a.149.149,0,0,0,.112.143c.375.089,1.584.38,2.006.515s1.457.521,1.773.653a.155.155,0,0,1,.1.143l-.03,4.659a3.146,3.146,0,0,1-3.146,3.146h-.294" transform="translate(-845.808 -304.41)" fill="none" stroke="#000" stroke-linecap="round" stroke-miterlimit="10" stroke-width="1"/>
        </g>
        <circle id="Ellipse_36" data-name="Ellipse 36" cx="4.243" cy="4.243" r="4.243" transform="translate(2.67 2.816)" fill="none" stroke="#000" stroke-linecap="round" stroke-miterlimit="10" stroke-width="1"/>
        <path id="Path_386" data-name="Path 386" d="M799.96,314.7s.333-.114.771-.275a7.655,7.655,0,0,1,.786-.212" transform="translate(-799.129 -313.264)" fill="none" stroke="#000" stroke-linecap="round" stroke-miterlimit="10" stroke-width="1"/>
      </g>
    </g>
    <g id="Group_6094" data-name="Group 6094" transform="translate(-39 -144.75)">
      <path id="Path_98" data-name="Path 98" d="M23.9,10H11.985A1.985,1.985,0,0,0,10,11.985V23.9a1.985,1.985,0,0,0,1.985,1.985H23.9A1.985,1.985,0,0,0,25.882,23.9V11.985A1.985,1.985,0,0,0,23.9,10Zm0,13.9H11.985V11.985H23.9Z" transform="translate(414 134.75)" fill="#1eb496"/>
      <g id="noun_tick_2000994_1_2" data-name="noun_tick_2000994 (1)" transform="translate(427.572 149.268)">
        <g id="Group_195-2" data-name="Group 195">
          <path id="Path_47-2" data-name="Path 47" d="M8.834,1.5,3.212,7.123,0,3.945,1.5,2.409,3.212,4.12,7.332,0Z" fill="#1eb496"/>
        </g>
      </g>
    </g>
    <g id="Group_6095" data-name="Group 6095" transform="translate(-7 -144.75)">
      <path id="Path_98-2" data-name="Path 98" d="M23.9,10H11.985A1.985,1.985,0,0,0,10,11.985V23.9a1.985,1.985,0,0,0,1.985,1.985H23.9A1.985,1.985,0,0,0,25.882,23.9V11.985A1.985,1.985,0,0,0,23.9,10Zm0,13.9H11.985V11.985H23.9Z" transform="translate(414 134.75)" fill="#1eb496"/>
    </g>
    <g id="Group_6096" data-name="Group 6096" transform="translate(-23 -144.75)">
      <path id="Path_98-3" data-name="Path 98" d="M23.9,10H11.985A1.985,1.985,0,0,0,10,11.985V23.9a1.985,1.985,0,0,0,1.985,1.985H23.9A1.985,1.985,0,0,0,25.882,23.9V11.985A1.985,1.985,0,0,0,23.9,10Zm0,13.9H11.985V11.985H23.9Z" transform="translate(414 134.75)"/>
      <g id="noun_tick_2000994_1_3" data-name="noun_tick_2000994 (1)" transform="translate(427.572 149.268)">
        <g id="Group_195-3" data-name="Group 195">
          <path id="Path_47-3" data-name="Path 47" d="M8.834,1.5,3.212,7.123,0,3.945,1.5,2.409,3.212,4.12,7.332,0Z"/>
        </g>
      </g>
    </g>
    <g id="Group_6097" data-name="Group 6097" transform="translate(9 -144.75)">
      <path id="Path_98-4" data-name="Path 98" d="M23.9,10H11.985A1.985,1.985,0,0,0,10,11.985V23.9a1.985,1.985,0,0,0,1.985,1.985H23.9A1.985,1.985,0,0,0,25.882,23.9V11.985A1.985,1.985,0,0,0,23.9,10Zm0,13.9H11.985V11.985H23.9Z" transform="translate(414 134.75)"/>
    </g>
    <g id="Group_6098" data-name="Group 6098" transform="translate(420 -16)">
      <g id="Group_3402" data-name="Group 3402">
        <g id="Group_3403" data-name="Group 3403">
          <rect id="Rectangle_479" data-name="Rectangle 479" width="16" height="16" transform="translate(45.001 16.001)" fill="none"/>
          <g id="Group_3404" data-name="Group 3404" transform="translate(-689.4 -488.986)">
            <path id="Path_516" data-name="Path 516" d="M746.834,509.653h-.917l0-1.074a3.157,3.157,0,0,0,0-.658A3.263,3.263,0,0,0,742.392,505a3.328,3.328,0,0,0-.607,0,3.245,3.245,0,0,0-2.2,1.184,3.2,3.2,0,0,0-.721,2.341v1.125h-.89A1.984,1.984,0,0,0,736,511.628v7.383a1.984,1.984,0,0,0,1.975,1.974h8.859a1.983,1.983,0,0,0,1.974-1.975v-7.383A1.983,1.983,0,0,0,746.834,509.653Zm-6.974-1.175A2.265,2.265,0,0,1,741.885,506a2.057,2.057,0,0,1,.457,0l.051,0,.05,0a2.264,2.264,0,0,1,2.48,2.025,2.529,2.529,0,0,1,0,.507v1.125h-5.06Zm7.951,10.532a.984.984,0,0,1-.978.979h-8.857a.983.983,0,0,1-.979-.978V511.63a.984.984,0,0,1,.978-.98h8.857a.984.984,0,0,1,.979.978Z" transform="translate(0 0)" fill="#131313"/>
            <path id="Path_517" data-name="Path 517" d="M742.42,513.363a1.98,1.98,0,0,0,0,3.96h0a1.98,1.98,0,0,0,0-3.96Zm0,2.96a.98.98,0,1,1,.982-.981A.981.981,0,0,1,742.418,516.323Z" transform="translate(-0.015 -0.026)" fill="#131313"/>
          </g>
        </g>
      </g>
    </g>
    <g id="Group_6099" data-name="Group 6099" transform="translate(403.999 -16.002)">
      <rect id="Rectangle_479-2" data-name="Rectangle 479" width="16" height="16" transform="translate(45.001 16.001)" fill="none"/>
      <g id="ic_perm_contact_calendar_24px" data-name="ic perm contact calendar 24px" transform="translate(-708.015 -499.013)">
        <path id="Path_515" data-name="Path 515" d="M769.015,531.015h-16v-1.752c0-2.873,5.208-4.375,8-4.375s8,1.5,8,4.375Zm-15-1h13.995v-.749c0-2.059-4.594-3.373-7-3.373s-7,1.313-7,3.373Zm7-6.5a4.251,4.251,0,0,1-.011-8.5h.011a4.251,4.251,0,0,1,0,8.5Zm-.01-7.5a3.249,3.249,0,0,0,.01,6.5h0a3.249,3.249,0,1,0,0-6.5h-.01Z" fill="#131313"/>
      </g>
    </g>
    <g id="Group_6100" data-name="Group 6100" transform="translate(8 -37)">
      <rect id="Rectangle_369" data-name="Rectangle 369" width="16" height="16" transform="translate(233 37)" fill="none"/>
      <g id="Group_3344" data-name="Group 3344" transform="translate(-0.862 -2.687)">
        <path id="Path_488" data-name="Path 488" d="M1.437,0A7.358,7.358,0,0,1,2.853,2.972C3.2,4.679,2.219,5.944,1.437,5.944S-.315,4.564.02,2.972A8.308,8.308,0,0,1,1.437,0Z" transform="translate(240.428 47.528)" fill="#ddaa4a" stroke="#ddaa4a" stroke-width="2"/>
        <path id="Path_489" data-name="Path 489" d="M1.213,0A6.01,6.01,0,0,1,2.37,2.428c.28,1.394-.519,2.428-1.158,2.428S-.218,3.729.056,2.428A6.791,6.791,0,0,1,1.213,0Z" transform="translate(242.053 45.752) rotate(-45)" fill="#ddaa4a"/>
        <path id="Path_490" data-name="Path 490" d="M1.214,4.856A6.007,6.007,0,0,0,2.369,2.428C2.649,1.034,1.851,0,1.212,0S-.218,1.127.056,2.428A6.8,6.8,0,0,0,1.214,4.856Z" transform="translate(238.233 49.186) rotate(-135)" fill="#ddaa4a"/>
        <ellipse id="Ellipse_46" data-name="Ellipse 46" cx="1.355" cy="1.355" rx="1.355" ry="1.355" transform="translate(235.091 42.723)" fill="#ddaa4a" stroke="#ddaa4a" stroke-width="1"/>
        <ellipse id="Ellipse_47" data-name="Ellipse 47" cx="1.355" cy="1.355" rx="1.355" ry="1.355" transform="translate(245.931 42.723)" fill="#ddaa4a" stroke="#ddaa4a" stroke-width="1"/>
      </g>
    </g>
    <g id="Group_6101" data-name="Group 6101" transform="translate(24 -37)">
      <rect id="Rectangle_369-2" data-name="Rectangle 369" width="16" height="16" transform="translate(233 37)" fill="none"/>
      <g id="Group_3344-2" data-name="Group 3344" transform="translate(-0.862 -2.687)">
        <path id="Path_488-2" data-name="Path 488" d="M1.437,0A7.358,7.358,0,0,1,2.853,2.972C3.2,4.679,2.219,5.944,1.437,5.944S-.315,4.564.02,2.972A8.308,8.308,0,0,1,1.437,0Z" transform="translate(240.428 47.528)" fill="none" stroke="#ddaa4a" stroke-width="2"/>
        <path id="Path_489-2" data-name="Path 489" d="M1.213,0A6.01,6.01,0,0,1,2.37,2.428c.28,1.394-.519,2.428-1.158,2.428S-.218,3.729.056,2.428A6.791,6.791,0,0,1,1.213,0Z" transform="translate(242.053 45.752) rotate(-45)" fill="#ddaa4a"/>
        <path id="Path_490-2" data-name="Path 490" d="M1.214,4.856A6.007,6.007,0,0,0,2.369,2.428C2.649,1.034,1.851,0,1.212,0S-.218,1.127.056,2.428A6.8,6.8,0,0,0,1.214,4.856Z" transform="translate(238.233 49.186) rotate(-135)" fill="#ddaa4a"/>
        <ellipse id="Ellipse_46-2" data-name="Ellipse 46" cx="1.355" cy="1.355" rx="1.355" ry="1.355" transform="translate(235.091 42.723)" fill="none" stroke="#ddaa4a" stroke-width="1"/>
        <ellipse id="Ellipse_47-2" data-name="Ellipse 47" cx="1.355" cy="1.355" rx="1.355" ry="1.355" transform="translate(245.931 42.723)" fill="none" stroke="#ddaa4a" stroke-width="1"/>
      </g>
    </g>
    <g id="Group_6102" data-name="Group 6102" transform="translate(403.999 -16.002)">
      <rect id="Rectangle_479-3" data-name="Rectangle 479" width="16" height="16" transform="translate(45.001 16.001)" fill="none"/>
      <g id="ic_perm_contact_calendar_24px-2" data-name="ic perm contact calendar 24px" transform="translate(-708.015 -499.013)">
        <path id="Path_515-2" data-name="Path 515" d="M769.015,531.015h-16v-1.752c0-2.873,5.208-4.375,8-4.375s8,1.5,8,4.375Zm-15-1h13.995v-.749c0-2.059-4.594-3.373-7-3.373s-7,1.313-7,3.373Zm7-6.5a4.251,4.251,0,0,1-.011-8.5h.011a4.251,4.251,0,0,1,0,8.5Zm-.01-7.5a3.249,3.249,0,0,0,.01,6.5h0a3.249,3.249,0,1,0,0-6.5h-.01Z" fill="#131313"/>
      </g>
    </g>
    <g id="Group_6103" data-name="Group 6103" transform="translate(-4)">
      <g id="Group_3359" data-name="Group 3359" transform="translate(-605 -668)">
        <g id="Ellipse_48" data-name="Ellipse 48" transform="translate(1091 669)" fill="none" stroke="#26b69a" stroke-linecap="round" stroke-width="1.5">
          <circle cx="7" cy="7" r="7" stroke="none"/>
          <circle cx="7" cy="7" r="6.25" fill="none"/>
        </g>
        <g id="Group_3356" data-name="Group 3356" transform="translate(1095.599 673.242)">
          <line id="Line_21" data-name="Line 21" y2="5.05" transform="translate(2.401)" fill="none" stroke="#26b69a" stroke-linecap="round" stroke-width="1.5"/>
          <path id="Path_504" data-name="Path 504" d="M1098.249,683l2.4,2.4,2.4-2.4" transform="translate(-1098.249 -679.937)" fill="none" stroke="#26b69a" stroke-linecap="round" stroke-linejoin="round" stroke-width="1.5"/>
        </g>
      </g>
      <rect id="Rectangle_488" data-name="Rectangle 488" width="16" height="16" transform="translate(485)" fill="none"/>
    </g>
    <g id="Group_6104" data-name="Group 6104" transform="translate(497)">
      <rect id="Rectangle_215" data-name="Rectangle 215" width="16" height="16" fill="none"/>
      <g id="Group_2185-2" data-name="Group 2185" transform="translate(0.489 0.867)">
        <path id="Path_436" data-name="Path 436" d="M-5.85,0H3.143L5.1,5.727H-8Z" transform="translate(8.782 0.338)" fill="#b0a16e"/>
        <g id="Group_753" data-name="Group 753">
          <path id="Path_405" data-name="Path 405" d="M-383.749,289.247l-.011-.031-1.6-4.084a1.817,1.817,0,0,0-1.69-1.133l-8.116,0h0a1.8,1.8,0,0,0-1.672,1.087l-1.746,4.12-.01.026a1.552,1.552,0,0,0,.128,1.356,1.386,1.386,0,0,0,1.2.525,3.207,3.207,0,0,0,1.782-.606,1.423,1.423,0,0,1,.61-.281c.1,0,.144.025.338.206a1.814,1.814,0,0,0,1.337.587,2.7,2.7,0,0,0,1.469-.5,1.306,1.306,0,0,1,.541-.242,1.51,1.51,0,0,1,.6.277,2.643,2.643,0,0,0,1.409.507h.007a1.993,1.993,0,0,0,1.326-.587c.218-.183.328-.261.433-.263a.736.736,0,0,1,.313.117c0,.014,0,.026,0,.04v6.151a.541.541,0,0,1-.167.39.574.574,0,0,1-.4.162h-6.888a.559.559,0,0,1-.566-.55.611.611,0,0,0-.62-.6.611.611,0,0,0-.62.6,1.782,1.782,0,0,0,1.805,1.753h6.888a1.825,1.825,0,0,0,1.279-.514,1.719,1.719,0,0,0,.53-1.242V291a2.349,2.349,0,0,0,.725.115,1.43,1.43,0,0,0,1.218-.523A1.566,1.566,0,0,0-383.749,289.247Zm-1.169.626a.447.447,0,0,1-.223.035,1.851,1.851,0,0,1-.993-.4,2.371,2.371,0,0,0-1.269-.491h-.014a1.875,1.875,0,0,0-1.242.556c-.247.208-.363.293-.519.293h0a1.6,1.6,0,0,1-.744-.32,2.378,2.378,0,0,0-1.262-.465,2.25,2.25,0,0,0-1.2.423,1.54,1.54,0,0,1-.813.314c-.2,0-.274-.06-.478-.251a1.652,1.652,0,0,0-1.2-.542,2.376,2.376,0,0,0-1.28.472,2,2,0,0,1-1.112.415.6.6,0,0,1-.188-.023.588.588,0,0,1,.024-.241l1.738-4.1a.567.567,0,0,1,.526-.342h0l8.116,0a.572.572,0,0,1,.532.356l1.587,4.063A.559.559,0,0,1-384.918,289.873Z" transform="translate(398.693 -283.997)" stroke="rgba(0,0,0,0)" stroke-width="1"/>
        </g>
        <path id="Path_435" data-name="Path 435" d="M-393.585,323.029a.586.586,0,0,0,0,.829.585.585,0,0,0,.415.172.584.584,0,0,0,.415-.172l1.6-1.6a.586.586,0,0,0,.172-.415.587.587,0,0,0-.172-.415l-1.6-1.6a.586.586,0,0,0-.829,0,.586.586,0,0,0,0,.83l.6.6h-2.881a.587.587,0,0,0-.587.587.587.587,0,0,0,.587.586h2.881Z" transform="translate(397.083 -312.415)" fill="#b0a16e" stroke="rgba(0,0,0,0)" stroke-width="1"/>
      </g>
    </g>
    <g id="Group_6105" data-name="Group 6105" transform="translate(-268 -285)">
      <rect id="Rectangle_217" data-name="Rectangle 217" width="16" height="16" transform="translate(797 285)" fill="none"/>
      <g id="Group_2976" data-name="Group 2976" transform="translate(797.25 285.781)">
        <path id="Path_441" data-name="Path 441" d="M829.423,472.726l1.808,4.191s.411,1.095-.772,1.095-1.689-.9-2.478-.9-.818.807-1.735.807-1.375-.75-2.081-.75-1.265.8-2.082.8-1.084-.87-1.83-.864-1.3.911-2.349.911a.788.788,0,0,1-.83-1.1l1.652-4.154a1.231,1.231,0,0,1,1.151-.758l8.406,0A1.233,1.233,0,0,1,829.423,472.726Z" transform="translate(-816.411 -471.386)" fill="#b0a16e"/>
        <path id="Path_442" data-name="Path 442" d="M829.421,474.313l-.011-.027L827.6,470.1l0-.008A1.838,1.838,0,0,0,825.9,469l-8.4,0h-.022a1.838,1.838,0,0,0-1.7,1.144l-1.652,4.154-.012.033a1.606,1.606,0,0,0,.16,1.355,1.439,1.439,0,0,0,1.251.55,2.4,2.4,0,0,0,.674-.1v5.6c0,.008,0,.015,0,.022a1.834,1.834,0,0,0,1.829,1.764h7.329a1.829,1.829,0,0,0,1.877-1.761.612.612,0,0,0-1.223-.044.6.6,0,0,1-.624.582.083.083,0,0,1-.021,0h-7.317a.612.612,0,0,1-.627-.575V475.51a1.033,1.033,0,0,1,.456-.186c.123,0,.24.079.479.276a2.044,2.044,0,0,0,1.344.588h.007a2.727,2.727,0,0,0,1.433-.51,1.586,1.586,0,0,1,.644-.288,1.325,1.325,0,0,1,.586.252,2.79,2.79,0,0,0,1.494.5,1.856,1.856,0,0,0,1.354-.587c.2-.181.252-.22.381-.22a1.466,1.466,0,0,1,.66.293,3.319,3.319,0,0,0,1.819.609,1.394,1.394,0,0,0,1.232-.551A1.592,1.592,0,0,0,829.421,474.313Zm-1.119.667a.621.621,0,0,1-.226.031,2.133,2.133,0,0,1-1.179-.429,2.45,2.45,0,0,0-1.3-.473,1.688,1.688,0,0,0-1.208.542c-.2.182-.289.265-.527.265a1.693,1.693,0,0,1-.869-.326,2.314,2.314,0,0,0-1.211-.424,2.449,2.449,0,0,0-1.278.466,1.7,1.7,0,0,1-.8.332h0c-.188,0-.325-.106-.569-.308a1.92,1.92,0,0,0-1.255-.556h-.013a2.444,2.444,0,0,0-1.287.493,1.969,1.969,0,0,1-1.056.419.544.544,0,0,1-.257-.041.466.466,0,0,1,.005-.244l1.639-4.121a.614.614,0,0,1,.586-.381l8.413,0a.6.6,0,0,1,.572.363l1.8,4.167A.606.606,0,0,1,828.3,474.98Z" transform="translate(-814.027 -468.998)"/>
        <path id="Path_443" data-name="Path 443" d="M864.606,506.5l-1.674-1.674a.612.612,0,0,0-.865.865l.63.629h-3.188a.612.612,0,0,0,0,1.224H862.7l-.63.629a.612.612,0,1,0,.865.865l1.674-1.674A.612.612,0,0,0,864.606,506.5Z" transform="translate(-849.743 -497.378)" fill="#b0a16e"/>
      </g>
    </g>
    <g id="Group_6106" data-name="Group 6106" transform="translate(58 -285)">
      <rect id="Rectangle_216" data-name="Rectangle 216" width="16" height="16" transform="translate(455 285)" fill="none"/>
      <g id="Group_2974" data-name="Group 2974" transform="translate(455.25 285.731)">
        <path id="Path_439" data-name="Path 439" d="M711.032,481l8.407,0a1.231,1.231,0,0,1,1.151.758l1.652,4.154a.788.788,0,0,1-.83,1.1c-1.049,0-1.6-.9-2.349-.911s-1.014.861-1.83.864-1.376-.8-2.082-.8-1.165.75-2.081.75-.946-.807-1.735-.807-1.295.9-2.478.9-.772-1.095-.772-1.095l1.809-4.191A1.232,1.232,0,0,1,711.032,481Z" transform="translate(-707.405 -480.387)" fill="#b0a16e"/>
        <path id="Path_440" data-name="Path 440" d="M720.439,483.331l-.012-.033-1.656-4.163A1.833,1.833,0,0,0,717.055,478l-8.4,0h-.017a1.847,1.847,0,0,0-1.686,1.1l-1.809,4.191c0,.009-.008.018-.011.027a1.591,1.591,0,0,0,.113,1.371,1.393,1.393,0,0,0,1.232.551,2.766,2.766,0,0,0,.843-.131v5.636s0,.007,0,.011,0,.007,0,.011a1.833,1.833,0,0,0,1.877,1.761h7.329a1.834,1.834,0,0,0,1.829-1.765c0-.007,0-.015,0-.022v-5.6a2.4,2.4,0,0,0,.675.1,1.439,1.439,0,0,0,1.251-.549A1.607,1.607,0,0,0,720.439,483.331Zm-3.31,7.4a.608.608,0,0,1-.605.575h-7.359a.606.606,0,0,1-.624-.579V484.48a.9.9,0,0,1,.411-.146c.13,0,.184.039.382.22a1.856,1.856,0,0,0,1.353.587,2.789,2.789,0,0,0,1.493-.5,1.328,1.328,0,0,1,.587-.253,1.585,1.585,0,0,1,.645.289,2.728,2.728,0,0,0,1.432.509h.007a2.045,2.045,0,0,0,1.343-.588c.239-.2.351-.268.479-.276a1.029,1.029,0,0,1,.455.186Zm2.16-6.76a.473.473,0,0,1-.261.045,1.97,1.97,0,0,1-1.056-.419,2.442,2.442,0,0,0-1.287-.493h-.013a1.921,1.921,0,0,0-1.255.556c-.244.2-.38.307-.569.308h0a1.7,1.7,0,0,1-.8-.332,2.452,2.452,0,0,0-1.28-.466,2.317,2.317,0,0,0-1.212.424,1.692,1.692,0,0,1-.868.326c-.237,0-.328-.083-.526-.265a1.689,1.689,0,0,0-1.209-.542,2.45,2.45,0,0,0-1.3.473,2.133,2.133,0,0,1-1.179.429.622.622,0,0,1-.226-.031.568.568,0,0,1,.024-.229l1.8-4.163a.62.62,0,0,1,.566-.366h.014l8.414,0h.007a.613.613,0,0,1,.568.372l1.642,4.128A.5.5,0,0,1,719.289,483.967Z" transform="translate(-705.022 -477.999)"/>
        <g id="noun_Refresh_2072320" data-name="noun Refresh 2072320" transform="translate(5.568 7.76)">
          <g id="Group_260" data-name="Group 260">
            <path id="Path_62" data-name="Path 62" d="M736.534,516.641h0a.089.089,0,0,1,.02.061l-.005,1.124a.071.071,0,0,1-.075.066h-.006l-1.1-.242a.1.1,0,0,1-.055-.035h0a.1.1,0,0,1,.015-.131l.232-.186a1.445,1.445,0,0,0-2.478.623.394.394,0,0,1-.388.3h0a.388.388,0,0,1-.367-.479,2.224,2.224,0,0,1,3.844-.926l.232-.186A.1.1,0,0,1,736.534,516.641Z" transform="translate(-732.316 -516.041)" fill="#b0a16e"/>
            <path id="Path_63" data-name="Path 63" d="M732.953,529.159h0a.087.087,0,0,1-.02-.061l.005-1.124a.071.071,0,0,1,.075-.066h.007l1.1.242a.1.1,0,0,1,.055.035h0a.1.1,0,0,1-.015.131l-.232.181a1.445,1.445,0,0,0,2.479-.625.394.394,0,0,1,.388-.3h0a.387.387,0,0,1,.378.4.4.4,0,0,1-.011.082,2.224,2.224,0,0,1-3.845.932l-.232.186A.1.1,0,0,1,732.953,529.159Z" transform="translate(-732.807 -525.223)" fill="#b0a16e"/>
          </g>
        </g>
      </g>
    </g>
    <g id="Group_6107" data-name="Group 6107" transform="translate(-1191.979 -22)">
      <rect id="Rectangle_489" data-name="Rectangle 489" width="16" height="16" transform="translate(1736.979 22)" fill="none"/>
      <g id="Group_2184" data-name="Group 2184" transform="translate(1739.034 25)">
        <path id="Path_379" data-name="Path 379" d="M375.133,140.24h10.982" transform="translate(-374.678 -139.24)" fill="none" stroke="#000" stroke-linecap="round" stroke-width="1"/>
        <path id="Path_380" data-name="Path 380" d="M375.132,141.381h6.982" transform="translate(-372.679 -136.173)" fill="none" stroke="#000" stroke-linecap="round" stroke-width="1"/>
        <path id="Path_381" data-name="Path 381" d="M375,141.986h2" transform="translate(-370.055 -132.569)" fill="none" stroke="#000" stroke-linecap="round" stroke-width="1"/>
      </g>
    </g>
    <g id="Group_6108" data-name="Group 6108" transform="translate(-1198.979 -22)">
      <g id="noun_options_2091331" transform="translate(1769.481 24.499) rotate(90)">
        <path id="Path_374" data-name="Path 374" d="M1.5,3A1.5,1.5,0,1,1,3,1.5,1.5,1.5,0,0,1,1.5,3Z" fill="#b7b7b7"/>
        <path id="Path_375" data-name="Path 375" d="M1.5,3A1.5,1.5,0,1,1,3,1.5,1.5,1.5,0,0,1,1.5,3Z" transform="translate(4.018)" fill="#b7b7b7"/>
        <path id="Path_376" data-name="Path 376" d="M1.5,3A1.5,1.5,0,1,1,3,1.5,1.5,1.5,0,0,1,1.5,3Z" transform="translate(8.035)" fill="#b7b7b7"/>
      </g>
      <rect id="Rectangle_490" data-name="Rectangle 490" width="16" height="16" transform="translate(1759.979 22)" fill="none"/>
    </g>
    <g id="Group_6109" data-name="Group 6109" transform="translate(577)">
      <g id="Group_3057" data-name="Group 3057">
        <g id="Group_3056" data-name="Group 3056">
          <g id="Group_3481" data-name="Group 3481">
            <path id="Path_447" data-name="Path 447" d="M-19781.428-13936.611l-2.92,2.921,2.92,2.92" transform="translate(19789.637 13941.691)" fill="none" stroke="#afafaf" stroke-linecap="round" stroke-linejoin="round" stroke-width="2"/>
            <rect id="Rectangle_264" data-name="Rectangle 264" width="16" height="16" fill="none"/>
            <line id="Line_35" data-name="Line 35" x2="5.5" transform="translate(6 7.999)" fill="none" stroke="#afafaf" stroke-linecap="round" stroke-width="2"/>
          </g>
        </g>
      </g>
    </g>
    <g id="Group_6110" data-name="Group 6110" transform="translate(145 -285)">
      <rect id="Rectangle_215-2" data-name="Rectangle 215" width="16" height="16" transform="translate(128 285)" fill="none"/>
      <g id="Group_3905" data-name="Group 3905" transform="translate(129.5 286.5)">
        <g id="Ellipse_89" data-name="Ellipse 89" fill="none" stroke="#000" stroke-width="1.5">
          <circle cx="6.133" cy="6.133" r="6.133" stroke="none"/>
          <circle cx="6.133" cy="6.133" r="5.383" fill="none"/>
        </g>
        <path id="Path_623" data-name="Path 623" d="M.487.5l2.7,2.7" transform="translate(9.81 9.8)" fill="none" stroke="#000" stroke-linecap="round" stroke-width="1.5"/>
      </g>
    </g>
    <g id="Group_6111" data-name="Group 6111" transform="translate(161 -285)">
      <rect id="Rectangle_215-3" data-name="Rectangle 215" width="16" height="16" transform="translate(128 285)" fill="none"/>
      <g id="Group_3905-2" data-name="Group 3905" transform="translate(129.5 286.5)">
        <g id="Ellipse_89-2" data-name="Ellipse 89" fill="none" stroke="#fff" stroke-width="1.5">
          <circle cx="6.133" cy="6.133" r="6.133" stroke="none"/>
          <circle cx="6.133" cy="6.133" r="5.383" fill="none"/>
        </g>
        <path id="Path_623-2" data-name="Path 623" d="M.487.5l2.7,2.7" transform="translate(9.81 9.8)" fill="none" stroke="#fff" stroke-linecap="round" stroke-width="1.5"/>
      </g>
    </g>
    <g id="Group_6112" data-name="Group 6112" transform="translate(-12196 16259)">
      <g id="Group_3899" data-name="Group 3899" transform="translate(0 3)">
        <rect id="Rectangle_643" data-name="Rectangle 643" width="16" height="16" transform="translate(12565 -16262)" fill="none"/>
        <path id="Path_1641" data-name="Path 1641" d="M-21650.016-14992.5h11.1l-4.762,5.941v2.9l-2.16,2.16v-5.056Z" transform="translate(34217.563 -1266.883)" fill="none" stroke="#000" stroke-linejoin="round" stroke-width="1"/>
      </g>
    </g>
    <g id="Group_6113" data-name="Group 6113" transform="translate(-11973 16262)">
      <g id="Group_3899-2" data-name="Group 3899">
        <g id="Group_3898" data-name="Group 3898" transform="translate(-446.307 117.937)">
          <line id="Line_69" data-name="Line 69" x2="4.896" transform="translate(13019.311 -16375.553)" fill="none" stroke="#000" stroke-linecap="round" stroke-width="1"/>
          <line id="Line_70" data-name="Line 70" x2="4.896" transform="translate(13016.863 -16371.88)" fill="none" stroke="#000" stroke-linecap="round" stroke-width="1"/>
          <line id="Line_72" data-name="Line 72" x2="4.896" transform="translate(13014.414 -16368.21)" fill="none" stroke="#000" stroke-linecap="round" stroke-width="1"/>
          <g id="Group_3896" data-name="Group 3896" transform="translate(13021.937 -16371.88)">
            <line id="Line_71" data-name="Line 71" y2="6.119" transform="translate(2.268)" fill="none" stroke="#000" stroke-linecap="round" stroke-width="1"/>
            <path id="Path_621" data-name="Path 621" d="M12974.9-16370.325l2.267,2.264,2.262-2.264" transform="translate(-12974.896 16374.179)" fill="none" stroke="#000" stroke-linecap="round" stroke-linejoin="round" stroke-width="1"/>
          </g>
          <g id="Group_3897" data-name="Group 3897" transform="translate(13016.675 -16371.88) rotate(180)">
            <line id="Line_71-2" data-name="Line 71" y2="6.119" transform="translate(2.269)" fill="none" stroke="#000" stroke-linecap="round" stroke-width="1"/>
            <path id="Path_621-2" data-name="Path 621" d="M0,0,2.267,2.265,4.528,0" transform="translate(0 3.852)" fill="none" stroke="#000" stroke-linecap="round" stroke-linejoin="round" stroke-width="1"/>
          </g>
        </g>
        <rect id="Rectangle_643-2" data-name="Rectangle 643" width="16" height="16" transform="translate(12565 -16262)" fill="none"/>
      </g>
    </g>
    <g id="Group_6114" data-name="Group 6114" transform="translate(369.001 -511.23)">
      <g id="Group_3729" data-name="Group 3729" transform="translate(239.463 513.029)">
        <g id="Group_3651" data-name="Group 3651" transform="translate(0 0)">
          <path id="Path_567" data-name="Path 567" d="M-344.891,573.069h-10.947A2.166,2.166,0,0,1-358,570.906v-9.417a.633.633,0,0,1,.633-.633.633.633,0,0,1,.633.633v9.417a.9.9,0,0,0,.9.9h10.947a.9.9,0,0,0,.9-.9v-9.417a.633.633,0,0,1,.633-.633.633.633,0,0,1,.633.633v9.417A2.166,2.166,0,0,1-344.891,573.069Z" transform="translate(358.001 -560.856)" fill="#fff"/>
        </g>
        <g id="Group_3653" data-name="Group 3653" transform="translate(4.081 3.572)">
          <ellipse id="Ellipse_71" data-name="Ellipse 71" cx="0.982" cy="0.982" rx="0.982" ry="0.982" transform="translate(2.618)" fill="#fff"/>
          <ellipse id="Ellipse_72" data-name="Ellipse 72" cx="0.982" cy="0.982" rx="0.982" ry="0.982" transform="translate(3.927 3.273)" fill="#fff"/>
          <ellipse id="Ellipse_73" data-name="Ellipse 73" cx="0.982" cy="0.982" rx="0.982" ry="0.982" fill="#fff"/>
          <ellipse id="Ellipse_74" data-name="Ellipse 74" cx="0.982" cy="0.982" rx="0.982" ry="0.982" transform="translate(1.308 3.273)" fill="#fff"/>
          <ellipse id="Ellipse_75" data-name="Ellipse 75" cx="0.982" cy="0.982" rx="0.982" ry="0.982" transform="translate(5.236)" fill="#fff"/>
        </g>
      </g>
      <rect id="Rectangle_596" data-name="Rectangle 596" width="16" height="16" transform="translate(238.999 511.23)" fill="none"/>
    </g>
    <g id="Group_4464" data-name="Group 4464" transform="translate(3294 5325)">
      <circle id="Ellipse_108" data-name="Ellipse 108" cx="8" cy="8" r="8" transform="translate(-2670 -5325)" fill="#fff"/>
      <g id="Group_4462" data-name="Group 4462" transform="translate(-2665 -5320)">
        <line id="Line_114" data-name="Line 114" x2="6" y2="6" fill="none" stroke="#707070" stroke-linecap="round" stroke-width="1"/>
        <line id="Line_115" data-name="Line 115" x1="6" y2="6" fill="none" stroke="#707070" stroke-linecap="round" stroke-width="1"/>
      </g>
    </g>
    <g id="Group_4466" data-name="Group 4466" transform="translate(94 -408.5)">
      <g id="Group_4465" data-name="Group 4465" transform="translate(3216 5733.5)">
        <circle id="Ellipse_108-2" data-name="Ellipse 108" cx="8" cy="8" r="8" transform="translate(-2670 -5325)" fill="#fff"/>
      </g>
      <path id="Path_1740" data-name="Path 1740" d="M666.015-8346.06c.345-.52,1.485-2.451.371-3.95-.777-1.173-2.487-.977-4.4-.977" transform="translate(-110 8766)" fill="none" stroke="#707070" stroke-linecap="round" stroke-linejoin="round" stroke-width="1"/>
      <path id="Path_1741" data-name="Path 1741" d="M661.095-8354.35l-2.066,2.066,2.066,2.065" transform="translate(-107.868 8767.273)" fill="none" stroke="#707070" stroke-linecap="round" stroke-linejoin="round" stroke-width="1"/>
    </g>
    <g id="Group_4476" data-name="Group 4476" transform="translate(-544 -121)">
      <g id="Group_4475" data-name="Group 4475" transform="translate(1200.001 121)">
        <g id="Group_4474" data-name="Group 4474" transform="translate(2.686 0.738)">
          <path id="ic_location_on_24px" d="M10.313,2A5.313,5.313,0,0,0,5,7.313c0,3.985,5.313,9.263,5.313,9.263s5.313-5.278,5.313-9.263A5.313,5.313,0,0,0,10.313,2Z" transform="translate(-5 -2)" fill="none" stroke="#fff" stroke-linecap="round" stroke-linejoin="round" stroke-width="1.3"/>
          <path id="ic_location_on_24px-2" data-name="ic_location_on_24px" d="M13.17,12.693a2.523,2.523,0,1,1,2.523-2.523A2.523,2.523,0,0,1,13.17,12.693Z" transform="translate(-7.857 -4.891)" fill="none" stroke="#fff" stroke-linecap="round" stroke-linejoin="round" stroke-width="1.3"/>
        </g>
        <rect id="Rectangle_575" data-name="Rectangle 575" width="16" height="16" transform="translate(-0.001)" fill="none"/>
      </g>
    </g>
    <g id="Group_6115" data-name="Group 6115" transform="translate(168)">
      <path id="Icon_ionic-md-key" data-name="Icon ionic-md-key" d="M8.776,12.62a2.943,2.943,0,0,0-2.69-1.933,2.732,2.732,0,0,0-2.711,2.792A2.777,2.777,0,0,0,6.14,16.271a2.869,2.869,0,0,0,2.636-1.933h2.759v1.718H13.39V14.338h1.152V12.62Zm-2.62,1.785a.926.926,0,1,1,.926-.926A.928.928,0,0,1,6.156,14.405Z" transform="translate(502.958 -5.688)" fill="none" stroke="#000" stroke-width="0.7"/>
      <g id="Group_4809" data-name="Group 4809" transform="translate(504)">
        <g id="Group_4807" data-name="Group 4807">
          <rect id="Rectangle_381" data-name="Rectangle 381" width="16" height="16" fill="none"/>
        </g>
      </g>
    </g>
    <path id="Path_2548" data-name="Path 2548" d="M0,0H16V16H0Z" fill="none"/>
    <rect id="Rectangle_2948" data-name="Rectangle 2948" width="16" height="16" transform="translate(32)" fill="none"/>
    <rect id="Rectangle_2949" data-name="Rectangle 2949" width="16" height="16" transform="translate(64)" fill="none"/>
    <rect id="Rectangle_2950" data-name="Rectangle 2950" width="16" height="16" transform="translate(96)" fill="none"/>
    <rect id="Rectangle_2951" data-name="Rectangle 2951" width="16" height="16" transform="translate(128)" fill="none"/>
    <rect id="Rectangle_2952" data-name="Rectangle 2952" width="16" height="16" transform="translate(192)" fill="none"/>
    <rect id="Rectangle_2953" data-name="Rectangle 2953" width="16" height="16" transform="translate(160)" fill="none"/>
    <rect id="Rectangle_2955" data-name="Rectangle 2955" width="16" height="16" transform="translate(16)" fill="none"/>
    <rect id="Rectangle_2956" data-name="Rectangle 2956" width="16" height="16" transform="translate(48)" fill="none"/>
    <rect id="Rectangle_2957" data-name="Rectangle 2957" width="16" height="16" transform="translate(80)" fill="none"/>
    <rect id="Rectangle_2958" data-name="Rectangle 2958" width="16" height="16" transform="translate(112)" fill="none"/>
    <rect id="Rectangle_2959" data-name="Rectangle 2959" width="16" height="16" transform="translate(176)" fill="none"/>
    <g id="Group_6079" data-name="Group 6079" transform="translate(-233 -38)">
      <g id="Group_3202" data-name="Group 3202">
        <g id="Group_3006" data-name="Group 3006" transform="translate(4267 14050)">
          <g id="Ellipse_42" data-name="Ellipse 42" transform="translate(-4028.5 -14009)" fill="none" stroke="#ddaa4a" stroke-width="2">
            <circle cx="5.25" cy="5.25" r="5.25" stroke="none"/>
            <circle cx="5.25" cy="5.25" r="4.25" fill="none"/>
          </g>
          <g id="Ellipse_43" data-name="Ellipse 43" transform="translate(-4034 -14009)" fill="none" stroke="#ddaa4a" stroke-width="2">
            <circle cx="5.25" cy="5.25" r="5.25" stroke="none"/>
            <circle cx="5.25" cy="5.25" r="4.25" fill="none"/>
          </g>
        </g>
        <rect id="Rectangle_367" data-name="Rectangle 367" width="16" height="16" transform="translate(233 38)" fill="none"/>
      </g>
    </g>
    <g id="Group_6080" data-name="Group 6080" transform="translate(-218 -38.703)">
      <g id="Path_170" data-name="Path 170" transform="translate(244.07 42.397) rotate(180)" fill="none">
        <path d="M3.657,0,5.2,2.783a.614.614,0,0,1-.537.912H.615a.614.614,0,0,1-.537-.912L1.616.015Z" stroke="none"/>
        <path d="M 3.65681529045105 7.152557373046875e-07 L 5.202905178070068 2.782950878143311 C 5.430195331573486 3.192070722579956 5.134365081787109 3.694840908050537 4.666345119476318 3.694840908050537 L 0.6146855354309082 3.694840908050537 C 0.146665096282959 3.694840908050537 -0.1491646766662598 3.192070722579956 0.0781254768371582 2.782950878143311 L 1.615965366363525 0.01484084129333496 L 3.65681529045105 7.152557373046875e-07 Z" stroke="none" fill="#ddaa4a"/>
      </g>
      <g id="Ellipse_44" data-name="Ellipse 44" transform="translate(235 41.745)" fill="none" stroke="#ddaa4a" stroke-width="2">
        <circle cx="6.479" cy="6.479" r="6.479" stroke="none"/>
        <circle cx="6.479" cy="6.479" r="5.479" fill="none"/>
      </g>
    </g>
    <rect id="Rectangle_2966" data-name="Rectangle 2966" width="16" height="16" transform="translate(16)" fill="none"/>
    <g id="Group_6081" data-name="Group 6081" transform="translate(-200.5 -65.605)">
      <g id="Group_612-2" data-name="Group 612" transform="translate(233.499 69.606)">
        <path id="Path_160-2" data-name="Path 160" d="M-16369.372,1556.113s6.758,10.589,13.986,0" transform="translate(16369.372 -1556.113)" fill="none" stroke="#ddaa4a" stroke-linecap="round" stroke-width="2"/>
        <circle id="Ellipse_29" data-name="Ellipse 29" cx="2.397" cy="2.397" r="2.397" transform="translate(4.497 5.34)" fill="#ddaa4a"/>
      </g>
    </g>
    <g id="Group_6082" data-name="Group 6082" transform="translate(-185.107 -35.785)">
      <g id="Group_616" data-name="Group 616" transform="translate(235 38.784)">
        <path id="Path_161-2" data-name="Path 161" d="M-16346.271,1564.683v-6.078" transform="translate(16348.979 -1558.606)" fill="none" stroke="#ddaa4a" stroke-linecap="round" stroke-width="2"/>
        <ellipse id="Ellipse_30" data-name="Ellipse 30" cx="2.71" cy="2.709" rx="2.71" ry="2.709" transform="translate(0 5.635)" fill="#ddaa4a"/>
      </g>
      <g id="Group_617" data-name="Group 617" transform="translate(241.843 38.784)">
        <path id="Path_161-3" data-name="Path 161" d="M-16346.271,1564.683v-6.078" transform="translate(16348.979 -1558.606)" fill="none" stroke="#ddaa4a" stroke-linecap="round" stroke-width="2"/>
        <ellipse id="Ellipse_30-2" data-name="Ellipse 30" cx="2.71" cy="2.709" rx="2.71" ry="2.709" transform="translate(0 5.635)" fill="#ddaa4a"/>
      </g>
    </g>
    <rect id="Rectangle_2967" data-name="Rectangle 2967" width="16" height="16" transform="translate(48)" fill="none"/>
    <g id="Group_6083" data-name="Group 6083" transform="translate(-302.996 -117.871)">
      <g id="noun_Diamond_539123" transform="translate(367 119)">
        <path id="Path_383" data-name="Path 383" d="M7.989,14.98a1,1,0,0,1-.767-.358L.232,6.234a1,1,0,0,1,0-1.278l3-3.595A1,1,0,0,1,3.994,1h7.989a1,1,0,0,1,.768.359l3,3.595a1,1,0,0,1,0,1.278l-6.99,8.388A1,1,0,0,1,7.989,14.98ZM2.3,5.594l5.69,6.828,5.69-6.828L11.515,3H4.462L2.3,5.594Z" transform="translate(0 -1)" fill="#ddaa4a"/>
      </g>
      <path id="Path_384-2" data-name="Path 384" d="M-16294.015,1614.861h10.816" transform="translate(16663.668 -1491.293)" fill="none" stroke="#ddaa4a" stroke-linecap="round" stroke-width="2"/>
    </g>
    <rect id="Rectangle_2969" data-name="Rectangle 2969" width="16" height="16" transform="translate(64)" fill="none"/>
    <g id="Group_6084" data-name="Group 6084" transform="translate(-167.701 -31)">
      <g id="Group_3221" data-name="Group 3221" transform="translate(258.247 36.706) rotate(180)">
        <circle id="Ellipse_37" data-name="Ellipse 37" cx="2.862" cy="2.862" r="2.862" transform="translate(0 0)" fill="#ddaa4a"/>
      </g>
      <g id="Path_168" data-name="Path 168" transform="translate(262.065 47) rotate(180)" fill="none">
        <path d="M6.682,0A6.682,6.682,0,1,1,0,6.682,6.682,6.682,0,0,1,6.682,0Z" stroke="none"/>
        <path d="M 6.681687831878662 1.999998092651367 C 4.100197792053223 1.999998092651367 1.999998092651367 4.100197792053223 1.999998092651367 6.681687831878662 C 1.999998092651367 9.263177871704102 4.100197792053223 11.36337757110596 6.681687831878662 11.36337757110596 C 9.263177871704102 11.36337757110596 11.36337757110596 9.263177871704102 11.36337757110596 6.681687831878662 C 11.36337757110596 4.100197792053223 9.263177871704102 1.999998092651367 6.681687831878662 1.999998092651367 M 6.681687831878662 -1.9073486328125e-06 C 10.37187767028809 -1.9073486328125e-06 13.36337757110596 2.991497993469238 13.36337757110596 6.681687831878662 C 13.36337757110596 10.37187767028809 10.37187767028809 13.36337757110596 6.681687831878662 13.36337757110596 C 2.991497993469238 13.36337757110596 -1.9073486328125e-06 10.37187767028809 -1.9073486328125e-06 6.681687831878662 C -1.9073486328125e-06 2.991497993469238 2.991497993469238 -1.9073486328125e-06 6.681687831878662 -1.9073486328125e-06 Z" stroke="none" fill="#ddaa4a"/>
      </g>
    </g>
    <rect id="Rectangle_2970" data-name="Rectangle 2970" width="16" height="16" transform="translate(80)" fill="none"/>
    <rect id="Rectangle_2971" data-name="Rectangle 2971" width="16" height="16" transform="translate(176)" fill="none"/>
    <path id="Union_18" data-name="Union 18" d="M16674.154-1477.94a3.433,3.433,0,0,1,3.434-3.433,3.431,3.431,0,0,1,3.432,3.433,3.431,3.431,0,0,1-3.432,3.433A3.433,3.433,0,0,1,16674.154-1477.94Zm-9.156,0a3.435,3.435,0,0,1,3.434-3.433,3.431,3.431,0,0,1,3.432,3.433,3.431,3.431,0,0,1-3.432,3.433A3.435,3.435,0,0,1,16665-1477.94Zm4.576-7.628a3.435,3.435,0,0,1,3.434-3.433,3.431,3.431,0,0,1,3.432,3.433,3.431,3.431,0,0,1-3.432,3.433A3.435,3.435,0,0,1,16669.574-1485.568Z" transform="translate(-16569.016 1490)" fill="#ddaa4a"/>
    <circle id="Ellipse_221" data-name="Ellipse 221" cx="8" cy="8" r="8" transform="translate(112)" fill="#ddaa4a"/>
    <g id="Group_6085" data-name="Group 6085" transform="translate(-414 -64)">
      <g id="Path_167" data-name="Path 167" transform="translate(542.84 64)" fill="none" stroke-linejoin="round">
        <path d="M7.3,0A7.3,7.3,0,1,1,0,7.3,7.3,7.3,0,0,1,7.3,0Z" stroke="none"/>
        <path d="M 7.304348468780518 2.499998092651367 C 4.655218124389648 2.499998092651367 2.499998092651367 4.655218124389648 2.499998092651367 7.304348468780518 C 2.499998092651367 9.95347785949707 4.655218124389648 12.10869789123535 7.304348468780518 12.10869789123535 C 9.95347785949707 12.10869789123535 12.10869789123535 9.95347785949707 12.10869789123535 7.304348468780518 C 12.10869789123535 4.655218124389648 9.95347785949707 2.499998092651367 7.304348468780518 2.499998092651367 M 7.304348468780518 -1.9073486328125e-06 C 11.33842849731445 -1.9073486328125e-06 14.60869884490967 3.270268440246582 14.60869884490967 7.304348468780518 C 14.60869884490967 11.33842849731445 11.33842849731445 14.60869884490967 7.304348468780518 14.60869884490967 C 3.270268440246582 14.60869884490967 -1.9073486328125e-06 11.33842849731445 -1.9073486328125e-06 7.304348468780518 C -1.9073486328125e-06 3.270268440246582 3.270268440246582 -1.9073486328125e-06 7.304348468780518 -1.9073486328125e-06 Z" stroke="none" fill="#ddaa4a"/>
      </g>
      <circle id="Ellipse_35" data-name="Ellipse 35" cx="3.13" cy="3.13" r="3.13" transform="translate(544.232 73.739)" fill="#ddaa4a"/>
    </g>
    <g id="Group_6086" data-name="Group 6086">
      <rect id="Rectangle_397" data-name="Rectangle 397" width="16" height="16" transform="translate(144)" fill="none"/>
      <g id="Group_3281" data-name="Group 3281" transform="translate(-87.83 -64.605)">
        <g id="Group_612-3" data-name="Group 612" transform="translate(233.499 69.606)">
          <path id="Path_160-3" data-name="Path 160" d="M-16369.373,1556.113s6.045,9.474,12.514,0" transform="translate(16369.373 -1556.113)" fill="none" stroke="#ddaa4a" stroke-linecap="round" stroke-width="2.5"/>
          <path id="Polygon_1" data-name="Polygon 1" d="M1.808,1.573a1,1,0,0,1,1.748,0l.983,1.769a1,1,0,0,1-.874,1.486H1.7A1,1,0,0,1,.825,3.342Z" transform="translate(3.487 3.554)" fill="#ddaa4a"/>
        </g>
      </g>
    </g>
    <g id="Group_6087" data-name="Group 6087" transform="translate(-7.4 -263.75) rotate(45)">
      <path id="Path_161-4" data-name="Path 161" d="M-16346.271,1564.981v-6.376" transform="translate(16662.744 -1494.4)" fill="none" stroke="#ddaa4a" stroke-linecap="round" stroke-width="2.5"/>
      <circle id="Ellipse_30-3" data-name="Ellipse 30" cx="3.232" cy="3.232" r="3.232" transform="translate(313 69.486)" fill="#ddaa4a"/>
      <circle id="Ellipse_38" data-name="Ellipse 38" cx="2.211" cy="2.211" r="2.211" transform="translate(314.263 60.029)" fill="#ddaa4a"/>
    </g>
    <g id="Group_6088" data-name="Group 6088" transform="translate(-55 -65.605)">
      <g id="Group_612-4" data-name="Group 612" transform="translate(230.999 69.606)">
        <path id="Path_160-4" data-name="Path 160" d="M-16369.372,1556.113s6.422,10.065,13.3,0" transform="translate(16370.797 -1556.113)" fill="none" stroke="#ddaa4a" stroke-linecap="round" stroke-width="2.5"/>
        <circle id="Ellipse_29-2" data-name="Ellipse 29" cx="2.278" cy="2.278" r="2.278" transform="translate(5.699 5.076)" fill="#ddaa4a"/>
        <circle id="Ellipse_39" data-name="Ellipse 39" cx="1.708" cy="1.708" r="1.708" transform="translate(12.537 5.076)" fill="#ddaa4a"/>
        <circle id="Ellipse_40" data-name="Ellipse 40" cx="1.708" cy="1.708" r="1.708" transform="translate(0 5.076)" fill="#ddaa4a"/>
      </g>
    </g>
    <g id="Group_6089" data-name="Group 6089" transform="translate(-39.666 -65.041)">
      <g id="Group_612-5" data-name="Group 612" transform="translate(233.095 69.606)">
        <path id="Path_160-5" data-name="Path 160" d="M-16369.372,1556.113s6.148,9.64,12.732,0" transform="translate(16369.593 -1556.113)" fill="none" stroke="#ddaa4a" stroke-linecap="round" stroke-width="2.5"/>
        <path id="Polygon_1-2" data-name="Polygon 1" d="M2.292.787a.5.5,0,0,1,.874,0L5.045,4.17a.5.5,0,0,1-.437.743H.85A.5.5,0,0,1,.413,4.17Z" transform="translate(3.769 4.582)" fill="#ddaa4a"/>
        <g id="Group_653" data-name="Group 653" transform="translate(13.1 5.922)">
          <path id="Path_161-5" data-name="Path 161" d="M-16346.271,1561.17v-2.564" transform="translate(16346.271 -1558.606)" fill="none" stroke="#ddaa4a" stroke-linecap="round" stroke-width="2.5"/>
        </g>
        <g id="Group_654" data-name="Group 654" transform="translate(0 5.922)">
          <path id="Path_161-6" data-name="Path 161" d="M-16346.271,1561.17v-2.564" transform="translate(16346.271 -1558.606)" fill="none" stroke="#ddaa4a" stroke-linecap="round" stroke-width="2.5"/>
        </g>
      </g>
    </g>
    <rect id="Rectangle_10" data-name="Rectangle 10" width="16" height="16" transform="translate(688)" fill="none"/>
    <rect id="Rectangle_115" data-name="Rectangle 115" width="16" height="16" transform="translate(704)" fill="none"/>
    <rect id="Rectangle_116" data-name="Rectangle 116" width="16" height="16" transform="translate(720)" fill="none"/>
    <rect id="Rectangle_117" data-name="Rectangle 117" width="16" height="16" transform="translate(736)" fill="none"/>
    <g id="Component_37_1" data-name="Component 37 – 1" transform="translate(688)">
      <g id="Group_4090" data-name="Group 4090" transform="translate(-162 -47)">
        <g id="Group_4091" data-name="Group 4091" transform="translate(162 47)">
          <circle id="Ellipse_93" data-name="Ellipse 93" cx="8" cy="8" r="8" transform="translate(0)" fill="#7e6e38"/>
        </g>
      </g>
      <g id="Group_5503" data-name="Group 5503" transform="translate(-175.245 -247.367)">
        <path id="Union_6" data-name="Union 6" d="M.12,3.52H.2c.856,0,1.712,0,2.568,0,.054,0,.076.016.1.077q.821,2.625,1.645,5.248s0,.009,0,.026ZM5.412,8.858c.069-.224.138-.45.207-.676l1.414-4.6c.011-.036.018-.067.065-.067.891,0,1.783,0,2.673,0h.035L5.423,8.865ZM3.39,3.522H6.5C5.991,5.193,5.479,6.856,4.962,8.539,4.435,6.856,3.914,5.192,3.39,3.522Zm3.965-.6c.5-.87,1-1.733,1.5-2.6l1.075,2.6Zm-3.836,0L4.961.524l1.418,2.39ZM0,2.913c.356-.863.713-1.727,1.072-2.6l1.467,2.6ZM1.516,0H4.645L3.029,2.683C2.523,1.787,2.023.9,1.516,0ZM6.818,2.6,5.314.062A.109.109,0,0,1,5.287,0H8.4c.008.025-.01.036-.019.051L6.917,2.6c-.024.041-.036.062-.048.062S6.844,2.641,6.818,2.6Z" transform="translate(178.245 251.367)" fill="#fff" stroke="rgba(0,0,0,0)" stroke-miterlimit="10" stroke-width="1"/>
      </g>
    </g>
    <g id="Component_36_1" data-name="Component 36 – 1" transform="translate(704)">
      <g id="Group_5737" data-name="Group 5737" transform="translate(-162 -47)">
        <g id="Group_4091-2" data-name="Group 4091" transform="translate(162 47)">
          <circle id="Ellipse_93-2" data-name="Ellipse 93" cx="8" cy="8" r="8" transform="translate(0)" fill="#c54b46"/>
        </g>
      </g>
      <g id="Component_1_1" data-name="Component 1 – 1" transform="translate(5 1)">
        <text id="P" transform="translate(0 11)" fill="#fff" font-size="11" font-family="IBMPlexSans-SemiBold, IBM Plex Sans" font-weight="600"><tspan x="0" y="0">P</tspan></text>
      </g>
    </g>
    <g id="Component_34_1" data-name="Component 34 – 1" transform="translate(720)">
      <g id="Group_5738" data-name="Group 5738" transform="translate(-162 -47)">
        <g id="Group_4091-3" data-name="Group 4091" transform="translate(162 47)">
          <circle id="Ellipse_93-3" data-name="Ellipse 93" cx="8" cy="8" r="8" transform="translate(0)" fill="#b0a16e"/>
        </g>
      </g>
      <g id="Component_33_1" data-name="Component 33 – 1" transform="translate(5 1)">
        <text id="R" transform="translate(0 11)" fill="#fff" font-size="11" font-family="IBMPlexSans-SemiBold, IBM Plex Sans" font-weight="600"><tspan x="0" y="0">R</tspan></text>
      </g>
    </g>
    <g id="Component_35_1" data-name="Component 35 – 1" transform="translate(736)">
      <g id="Group_5739" data-name="Group 5739" transform="translate(-162 -47)">
        <g id="Group_4091-4" data-name="Group 4091" transform="translate(162 47)">
          <circle id="Ellipse_93-4" data-name="Ellipse 93" cx="8" cy="8" r="8" transform="translate(0)" fill="gray"/>
        </g>
      </g>
      <text id="S" transform="translate(5 12)" fill="#fff" font-size="11" font-family="IBMPlexSans-SemiBold, IBM Plex Sans" font-weight="600"><tspan x="0" y="0">S</tspan></text>
    </g>
    <g id="Group_5938" data-name="Group 5938" transform="translate(-959 -252)">
      <rect id="Rectangle_2796" data-name="Rectangle 2796" width="16" height="16" transform="translate(1711 252)" fill="#fff" opacity="0"/>
      <g id="mobile_icon" data-name="mobile icon" transform="translate(1714.38 252)">
        <g id="Group_2" data-name="Group 2" transform="translate(0)">
          <g id="Group_1" data-name="Group 1" transform="translate(0)">
            <path id="Subtraction_2" data-name="Subtraction 2" d="M1.054,15.642a.905.905,0,0,1-.369-.083,1.23,1.23,0,0,1-.577-.544A.94.94,0,0,1,0,14.636V1.016A1.2,1.2,0,0,1,.075.7,1.018,1.018,0,0,1,.224.438,1.129,1.129,0,0,1,.44.231,1.534,1.534,0,0,1,.717.072.835.835,0,0,1,1.069,0h6.87a1.031,1.031,0,0,1,.418.089A1.127,1.127,0,0,1,8.7.331a1.153,1.153,0,0,1,.239.352,1.086,1.086,0,0,1,.091.423c0,.033,0,.068,0,.1v0c0,.013,0,.025,0,.038q0,1.645,0,3.29t0,3.29q0,3.29,0,6.579a1.3,1.3,0,0,1-.03.379,1.038,1.038,0,0,1-.133.316,1.149,1.149,0,0,1-.226.258,1.636,1.636,0,0,1-.311.205.86.86,0,0,1-.408.071H1.167A.73.73,0,0,1,1.054,15.642ZM1.31.745A.591.591,0,0,0,.871.9a.68.68,0,0,0-.161.5C.719,2.979.717,4.582.716,6.133v.011c0,.517,0,1.1,0,1.678,0,.54,0,1.083,0,1.609v.086c0,1.561,0,3.176-.006,4.765a.64.64,0,0,0,.159.47.507.507,0,0,0,.2.122.75.75,0,0,0,.25.039H1.33c.268,0,.557-.006.911-.006h5.48a.527.527,0,0,0,.554-.33.8.8,0,0,0,.034-.29h0v-.009h0c0-.009,0-.019,0-.028,0-3.4,0-6.808,0-9.7,0-.223,0-.447,0-.667v-.2c0-.762,0-1.55,0-2.334A.615.615,0,0,0,8.163.9.608.608,0,0,0,7.716.75H7.622l-.283,0c-.112,0-.207,0-.3,0H7.029A1.266,1.266,0,0,1,6.887.74h0A1.273,1.273,0,0,0,6.746.729a.215.215,0,0,0-.167.056c-.053.056-.044.174-.035.288a1.427,1.427,0,0,1,.007.151c0,.028,0,.058-.006.087a.824.824,0,0,1-.228.5A.686.686,0,0,1,5.832,2C5.411,2,4.986,2,4.568,2,4.1,2,3.634,2,3.172,2a.692.692,0,0,1-.258-.051A.672.672,0,0,1,2.7,1.809a.74.74,0,0,1-.219-.464A2.538,2.538,0,0,1,2.477.908.167.167,0,0,0,2.45.781.156.156,0,0,0,2.329.746H2.31c-.158,0-.344.009-.531.009-.152,0-.289,0-.419-.009Zm2.231,0c-.354,0-.354,0-.361.342V1.11a.189.189,0,0,0,.033.14.176.176,0,0,0,.133.036h.007c.294,0,.606,0,1.013,0h1.09c.2,0,.293,0,.341-.05s.047-.15.044-.349V.872c0-.1-.029-.125-.122-.125H5.713c-.162,0-.341,0-.561,0H3.542Z" fill="#060606" stroke="rgba(0,0,0,0)" stroke-miterlimit="10" stroke-width="1"/>
            <path id="Path_3" data-name="Path 3" d="M429.09,233.9h0Z" transform="translate(-420.233 -218.139)" fill="#c6c3c4"/>
            <path id="Path_6" data-name="Path 6" d="M199.9,645.446v0Z" transform="translate(-190.66 -629.68)" fill="#888484"/>
          </g>
        </g>
      </g>
    </g>
    <g id="Group_6122" data-name="Group 6122">
      <rect id="Rectangle_2978" data-name="Rectangle 2978" width="16" height="16" transform="translate(768)" fill="#fff" opacity="0"/>
      <g id="Icon_feather-settings" data-name="Icon feather-settings" transform="translate(761 -7.176)">
        <path id="Path_2744" data-name="Path 2744" d="M17.751,15.626A2.126,2.126,0,1,1,15.626,13.5,2.126,2.126,0,0,1,17.751,15.626Z" transform="translate(-0.298 -0.293)" fill="none" stroke="#b0a16e" stroke-linecap="round" stroke-linejoin="round" stroke-width="1"/>
        <path id="Path_2745" data-name="Path 2745" d="M13.28,10.463a1.056,1.056,0,0,0,.211,1.165l.038.038a1.281,1.281,0,1,1-1.812,1.812l-.038-.038a1.065,1.065,0,0,0-1.805.755V14.3a1.28,1.28,0,0,1-2.561,0v-.058a1.108,1.108,0,0,0-1.857-.755l-.038.038a1.281,1.281,0,1,1-1.812-1.812l.038-.038a1.065,1.065,0,0,0-.755-1.805H2.78a1.28,1.28,0,0,1,0-2.561h.058a1.108,1.108,0,0,0,.755-1.857l-.038-.038A1.281,1.281,0,1,1,5.367,3.606l.038.038a1.056,1.056,0,0,0,1.165.211h.051a1.056,1.056,0,0,0,.64-.967V2.78a1.28,1.28,0,1,1,2.561,0v.058a1.065,1.065,0,0,0,1.805.755l.038-.038a1.281,1.281,0,1,1,1.812,1.812l-.038.038a1.056,1.056,0,0,0-.211,1.165v.051a1.056,1.056,0,0,0,.967.64H14.3a1.28,1.28,0,1,1,0,2.561h-.058a1.056,1.056,0,0,0-.967.64Z" transform="translate(6.602 6.694)" fill="none" stroke="#000" stroke-linecap="round" stroke-linejoin="round" stroke-width="1"/>
      </g>
    </g>
    <g id="Group_6123" data-name="Group 6123">
      <rect id="Rectangle_2979" data-name="Rectangle 2979" width="16" height="16" transform="translate(784)" fill="#fff" opacity="0"/>
      <g id="Icon_feather-log-out" data-name="Icon feather-log-out" transform="translate(779.8 -9.981)">
        <path id="Path_2741" data-name="Path 2741" d="M8.863,17.589H5.954A1.454,1.454,0,0,1,4.5,16.135V5.954A1.454,1.454,0,0,1,5.954,4.5H8.863" transform="translate(2.358 7.075)" fill="none" stroke="#000" stroke-linecap="round" stroke-linejoin="round" stroke-width="1.5"/>
        <path id="Path_2742" data-name="Path 2742" d="M24,16.93l3.215-3.215L24,10.5" transform="translate(-8.673 4.405)" fill="none" stroke="#b0a16e" stroke-linecap="round" stroke-linejoin="round" stroke-width="1.5"/>
        <path id="Path_2743" data-name="Path 2743" d="M18.883,18H13.5" transform="translate(-1.914 0.119)" fill="none" stroke="#b0a16e" stroke-linecap="round" stroke-linejoin="round" stroke-width="1.5"/>
      </g>
    </g>
    <g id="Group_6174" data-name="Group 6174" transform="translate(16)">
      <rect id="Rectangle_2979-2" data-name="Rectangle 2979" width="16" height="16" transform="translate(784)" fill="#fff" opacity="0"/>
      <g id="Group_6175" data-name="Group 6175" transform="translate(784)">
        <path id="Path_1638" data-name="Path 1638" d="M3478.4,2049.975l6.669-6.655,4.391,4.4c-.031.033-.079.087-.129.138l-6.359,6.356c-.17.17-.172.172-.341,0q-2.076-2.073-4.148-4.147C3478.449,2050.036,3478.42,2050,3478.4,2049.975Z" transform="translate(-3476.455 -2040.662)" fill="#b9aa79"/>
        <path id="Path_1639" data-name="Path 1639" d="M3564.248,2021.565l-4.425-4.429a3.742,3.742,0,0,1,2.064-1.388,3.1,3.1,0,0,1,3.743,2.449,3.011,3.011,0,0,1-.8,2.777C3564.643,2021.176,3564.445,2021.366,3564.248,2021.565Z" transform="translate(-3550.05 -2015.68)" fill="#b9aa79"/>
        <path id="Path_1640" data-name="Path 1640" d="M3463.08,2131.23l-1.919.479c-.682.17-1.362.344-2.045.507a.751.751,0,0,1-.915-.929q.478-1.93.964-3.858c.009-.033.024-.064.033-.087Z" transform="translate(-3458.176 -2116.604)" fill="#b9aa79"/>
      </g>
    </g>
    <g id="edit" transform="translate(817.074 0.985)">
      <path id="Path_2083" data-name="Path 2083" d="M15.7,1.866a2.094,2.094,0,1,1,2.962,2.962L9.282,14.206l-3.949.987.987-3.949Z" transform="translate(-5.333 -1.252)" fill="none" stroke="#b0a16e" stroke-linecap="round" stroke-linejoin="round" stroke-width="1.333"/>
    </g>
    <g id="Group_6178" data-name="Group 6178" transform="translate(36)">
      <rect id="Rectangle_2979-3" data-name="Rectangle 2979" width="16" height="16" transform="translate(780)" fill="#fff" opacity="0"/>
    </g>
    <g id="Group_6187" data-name="Group 6187" transform="translate(52)">
      <rect id="Rectangle_2979-4" data-name="Rectangle 2979" width="16" height="16" transform="translate(780)" fill="#fff" opacity="0"/>
    </g>
    <g id="Group_6188" data-name="Group 6188" transform="translate(68)">
      <rect id="Rectangle_2979-5" data-name="Rectangle 2979" width="16" height="16" transform="translate(780)" fill="#fff" opacity="0"/>
    </g>
    <g id="Group_6194" data-name="Group 6194" transform="translate(84)">
      <rect id="Rectangle_2979-6" data-name="Rectangle 2979" width="16" height="16" transform="translate(780)" fill="#fff" opacity="0"/>
    </g>
    <g id="Group_6195" data-name="Group 6195" transform="translate(100)">
      <rect id="Rectangle_2979-7" data-name="Rectangle 2979" width="16" height="16" transform="translate(780)" fill="#fff" opacity="0"/>
    </g>
    <g id="Group_6196" data-name="Group 6196" transform="translate(116)">
      <rect id="Rectangle_2979-8" data-name="Rectangle 2979" width="16" height="16" transform="translate(780)" fill="#fff" opacity="0"/>
    </g>
    <line id="Line_312" data-name="Line 312" x1="5.984" y2="9.974" transform="translate(853.029 2.5)" fill="none" stroke="#000" stroke-linecap="round" stroke-width="1.2"/>
    <g id="Ellipse_223" data-name="Ellipse 223" transform="translate(839 6)" fill="none" stroke="#000" stroke-width="1">
      <ellipse cx="1" cy="1.5" rx="1" ry="1.5" stroke="none"/>
      <ellipse cx="1" cy="1.5" rx="0.5" ry="1" fill="none"/>
    </g>
    <g id="Ellipse_225" data-name="Ellipse 225" transform="translate(855 6)" fill="none" stroke="#000" stroke-width="1">
      <ellipse cx="1" cy="1.5" rx="1" ry="1.5" stroke="none"/>
      <ellipse cx="1" cy="1.5" rx="0.5" ry="1" fill="none"/>
    </g>
    <path id="Path_2747" data-name="Path 2747" d="M103.392,229.381c-.08-.1-.16-.2-.244-.293a14.552,14.552,0,0,0-3.331-2.8,8.676,8.676,0,0,0-3.839-1.328,7.093,7.093,0,0,0-2.9.4,12.273,12.273,0,0,0-4.234,2.654,12.136,12.136,0,0,0-1.253,1.313.423.423,0,0,0,0,.57c.066.083.132.165.2.243a14.624,14.624,0,0,0,3.272,2.761,8.433,8.433,0,0,0,4.4,1.377,7.5,7.5,0,0,0,2.714-.531,12.791,12.791,0,0,0,4.075-2.692,11.662,11.662,0,0,0,1.136-1.218A.326.326,0,0,0,103.392,229.381Zm-1,.295a13.974,13.974,0,0,1-2.779,2.29h0a7.267,7.267,0,0,1-7.726.332h0q-.158-.085-.313-.176a13.817,13.817,0,0,1-3.026-2.436c-.042-.044-.089-.07-.015-.148a13.777,13.777,0,0,1,3.073-2.464h0a7.2,7.2,0,0,1,6.639-.541l.1.04.125.055.025.011a9.1,9.1,0,0,1,1.325.736h0a14.053,14.053,0,0,1,2.569,2.156C102.441,229.584,102.463,229.6,102.4,229.675Z" transform="translate(744.518 -221.935)" fill="#050605"/>
    <path id="Path_2748" data-name="Path 2748" d="M103.392,229.381c-.08-.1-.16-.2-.244-.293a14.552,14.552,0,0,0-3.331-2.8,8.676,8.676,0,0,0-3.839-1.328,7.093,7.093,0,0,0-2.9.4,12.273,12.273,0,0,0-4.234,2.654,12.136,12.136,0,0,0-1.253,1.313.423.423,0,0,0,0,.57c.066.083.132.165.2.243a14.624,14.624,0,0,0,3.272,2.761,8.433,8.433,0,0,0,4.4,1.377,7.5,7.5,0,0,0,2.714-.531,12.791,12.791,0,0,0,4.075-2.692,11.662,11.662,0,0,0,1.136-1.218A.326.326,0,0,0,103.392,229.381Zm-1,.295a13.974,13.974,0,0,1-2.779,2.29h0a7.267,7.267,0,0,1-7.726.332h0q-.158-.085-.313-.176a13.817,13.817,0,0,1-3.026-2.436c-.042-.044-.089-.07-.015-.148a13.777,13.777,0,0,1,3.073-2.464h0a7.2,7.2,0,0,1,6.639-.541l.1.04.125.055.025.011a9.1,9.1,0,0,1,1.325.736h0a14.053,14.053,0,0,1,2.569,2.156C102.441,229.584,102.463,229.6,102.4,229.675Z" transform="translate(760.518 -221.935)" fill="#050605"/>
    <g id="Ellipse_224" data-name="Ellipse 224" transform="translate(836 3)" fill="none" stroke="#000" stroke-width="1">
      <ellipse cx="4" cy="4.5" rx="4" ry="4.5" stroke="none"/>
      <ellipse cx="4" cy="4.5" rx="3.5" ry="4" fill="none"/>
    </g>
    <g id="Ellipse_226" data-name="Ellipse 226" transform="translate(852 3)" fill="none" stroke="#000" stroke-width="1">
      <ellipse cx="4" cy="4.5" rx="4" ry="4.5" stroke="none"/>
      <ellipse cx="4" cy="4.5" rx="3.5" ry="4" fill="none"/>
    </g>
    <g id="icons" transform="translate(259 -1053)">
      <path id="check" d="M10,2a8,8,0,1,0,8,8A8,8,0,0,0,10,2Zm4.566,6.166-5.6,5.6a.8.8,0,0,1-1.131,0l-2.4-2.4a.8.8,0,1,1,1.131-1.131L8.4,12.069l5.034-5.034a.8.8,0,1,1,1.131,1.131Z" transform="translate(603 1051)" fill="#3eb200"/>
    </g>
    <path id="rejected" d="M10.2,13.4h1.6V15H10.2Zm0-6.4h1.6v4.8H10.2Zm.792-4A8,8,0,1,0,19,11,8,8,0,0,0,10.992,3ZM11,17.4A6.4,6.4,0,1,1,17.4,11,6.4,6.4,0,0,1,11,17.4Z" transform="translate(877 -3)" fill="#c40808"/>
    <path id="pending" d="M11.25,0H.75A.75.75,0,0,0,0,.75v.5A.75.75,0,0,0,.75,2,6.2,6.2,0,0,0,4.526,8,6.2,6.2,0,0,0,.75,14a.75.75,0,0,0-.75.75v.5A.75.75,0,0,0,.75,16h10.5a.75.75,0,0,0,.75-.75v-.5a.75.75,0,0,0-.75-.75A6.2,6.2,0,0,0,7.474,8,6.2,6.2,0,0,0,11.25,2,.75.75,0,0,0,12,1.25V.75A.75.75,0,0,0,11.25,0ZM8.9,12H3.1A3.356,3.356,0,0,1,6,9.5,3.356,3.356,0,0,1,8.9,12Zm0-8H3.1A5.863,5.863,0,0,1,2.75,2h6.5A5.864,5.864,0,0,1,8.9,4Z" transform="translate(898)" fill="#d07000"/>
  </g>
</svg>
