<svg xmlns="http://www.w3.org/2000/svg" xmlns:xlink="http://www.w3.org/1999/xlink" width="238" height="14" viewBox="0 0 238 14"><defs><clipPath id="b"><rect width="238" height="14"/></clipPath></defs><g id="a" clip-path="url(#b)"><g transform="translate(91 -12)"><g transform="translate(-90.557 12.437)"><path d="M22.374,19.468A1.769,1.769,0,0,0,20.607,17.7H11.078A1.769,1.769,0,0,0,9.31,19.468V26.66a1.769,1.769,0,0,0,1.768,1.768h1.788v2.032a.35.35,0,0,0,.61.244l2.276-2.255a.02.02,0,0,1,.02-.02h4.856a1.769,1.769,0,0,0,1.768-1.768V19.468Zm-7.01.691H16.3a.2.2,0,0,1,.2.2l-.1,3.82a.16.16,0,0,1-.163.163h-.772a.16.16,0,0,1-.163-.163l-.1-3.82A.164.164,0,0,1,15.365,20.158ZM16.5,25.685a.278.278,0,0,1-.284.284h-.752a.278.278,0,0,1-.284-.284V25.2a.278.278,0,0,1,.284-.284h.752a.278.278,0,0,1,.284.284Z" transform="translate(-9.31 -17.7)" fill="#fff"/></g><rect width="13.997" height="13.997" transform="translate(-91 12)" fill="none"/></g><g transform="translate(14)"><rect width="14" height="14" fill="none"/><g transform="translate(-1085.9 -425.079)"><path d="M1091.724,427H1088.4a1.454,1.454,0,0,0-1.4,1.5v7.106a1.454,1.454,0,0,0,1.4,1.5h3.321" transform="translate(0.5 0)" fill="none" stroke="#000" stroke-linecap="round" stroke-miterlimit="10" stroke-width="1"/><path d="M1094.63,429.357h3.63a.13.13,0,0,0,.13-.13v-1.891a.13.13,0,0,1,.221-.092l3.706,3.706a.129.129,0,0,1,0,.184l-3.835,3.835a.13.13,0,0,1-.221-.092v-2.021a.13.13,0,0,0-.13-.13h-3.5a.13.13,0,0,1-.13-.13v-3.111A.13.13,0,0,1,1094.63,429.357Z" transform="translate(-3.83 0.951)" fill="none" stroke="#000" stroke-width="1"/></g></g><g transform="translate(28 -361)"><rect width="14" height="14" transform="translate(0 361)" fill="#fff" opacity="0"/><path d="M4.566,0,0,4.566,4.566,9.129" transform="translate(2.5 370.066) rotate(-90)" fill="none" stroke="#b0a16e" stroke-linecap="round" stroke-linejoin="round" stroke-width="2"/></g><g transform="translate(28 -361)"><rect width="14" height="14" transform="translate(28 361)" fill="#fff" opacity="0"/><path d="M4.566,0,0,4.566,4.566,9.129" transform="translate(30.5 370.066) rotate(-90)" fill="none" stroke="#070707" stroke-linecap="round" stroke-linejoin="round" stroke-width="2"/></g><g transform="translate(56 -361)"><rect width="14" height="14" transform="translate(28 361)" fill="#fff" opacity="0"/><path d="M4.566,0,0,4.566,4.566,9.129" transform="translate(30.5 370.066) rotate(-90)" fill="none" stroke="#707070" stroke-linecap="round" stroke-linejoin="round" stroke-width="2"/></g><g transform="translate(28 -361)"><rect width="14" height="14" transform="translate(14 361)" fill="#fff" opacity="0"/><path d="M4.566,9.129,0,4.563,4.566,0" transform="translate(25.629 365.5) rotate(90)" fill="none" stroke="#b0a16e" stroke-linecap="round" stroke-linejoin="round" stroke-width="2"/></g><g transform="translate(28 -361)"><rect width="14" height="14" transform="translate(42 361)" fill="#fff" opacity="0"/><path d="M4.566,9.129,0,4.563,4.566,0" transform="translate(53.629 365.5) rotate(90)" fill="none" stroke="#070707" stroke-linecap="round" stroke-linejoin="round" stroke-width="2"/></g><g transform="translate(56 -361)"><rect width="14" height="14" transform="translate(42 361)" fill="#fff" opacity="0"/><path d="M4.566,9.129,0,4.563,4.566,0" transform="translate(53.629 365.5) rotate(90)" fill="none" stroke="#707070" stroke-linecap="round" stroke-linejoin="round" stroke-width="2"/></g><g transform="translate(70 -361)"><rect width="14" height="14" transform="translate(42 361)" fill="#fff" opacity="0"/><path d="M4.566,9.129,0,4.563,4.566,0" transform="translate(51.347 372.347) rotate(180)" fill="none" stroke="#707070" stroke-linecap="round" stroke-linejoin="round" stroke-width="2"/></g><g transform="translate(70 -361)"><rect width="14" height="14" transform="translate(56 361)" fill="#fff" opacity="0"/><path d="M3.866,3.241l.451-.451A.485.485,0,0,1,5,2.79L8.95,6.734a.485.485,0,0,1,0,.688L5,11.367a.485.485,0,0,1-.688,0l-.451-.451a.488.488,0,0,1,.008-.7L6.32,7.891H.487A.486.486,0,0,1,0,7.4V6.754a.486.486,0,0,1,.487-.487H6.32L3.874,3.937A.484.484,0,0,1,3.866,3.241Z" transform="translate(58 360.353)" fill="#b0a16e"/></g><g transform="translate(84 -361)"><rect width="14" height="14" transform="translate(56 361)" fill="#fff" opacity="0"/><path d="M3.866,3.241l.451-.451A.485.485,0,0,1,5,2.79L8.95,6.734a.485.485,0,0,1,0,.688L5,11.367a.485.485,0,0,1-.688,0l-.451-.451a.488.488,0,0,1,.008-.7L6.32,7.891H.487A.486.486,0,0,1,0,7.4V6.754a.486.486,0,0,1,.487-.487H6.32L3.874,3.937A.484.484,0,0,1,3.866,3.241Z" transform="translate(70.51 363) rotate(90)" fill="#b0a16e"/></g><g transform="translate(98 -361)"><rect width="14" height="14" transform="translate(56 361)" fill="#fff" opacity="0"/><path d="M3.866,8.269l.451.451A.485.485,0,0,0,5,8.72L8.95,4.777a.485.485,0,0,0,0-.688L5,.143a.485.485,0,0,0-.688,0L3.866.594a.488.488,0,0,0,.008.7L6.32,3.62H.487A.486.486,0,0,0,0,4.107v.649a.486.486,0,0,0,.487.487H6.32L3.874,7.573A.484.484,0,0,0,3.866,8.269Z" transform="translate(59 372.093) rotate(-90)" fill="#b0a16e"/></g><g transform="translate(98 -361)"><rect width="14" height="14" transform="translate(70 361)" fill="#fff" opacity="0"/><g transform="translate(71 362)"><path d="M6,0a6,6,0,1,0,6,6A6,6,0,0,0,6,0ZM6,1.2A4.8,4.8,0,1,0,10.8,6,4.8,4.8,0,0,0,6,1.2Z" transform="translate(0 0)" fill="#fff" fill-rule="evenodd"/><path d="M9,5.583a.583.583,0,1,1,.583.583A.583.583,0,0,1,9,5.583Z" transform="translate(-3.583 -1.991)" fill="#fff"/><path d="M9,8.583a.583.583,0,1,1,1.166,0V11.5A.583.583,0,1,1,9,11.5Z" transform="translate(-3.583 -3.127)" fill="#fff"/></g></g><g transform="translate(112 -361)"><rect width="14" height="14" transform="translate(70 361)" fill="#fff" opacity="0"/><path d="M3.057,7.557a1.791,1.791,0,1,0-2.533,0A1.791,1.791,0,0,0,3.057,7.557Zm7.164,4.631a1.791,1.791,0,1,0,0,2.533A1.791,1.791,0,0,0,10.22,12.188Zm-.054-6.476-.633-.633a.9.9,0,0,0-1.266,0L.579,12.767a.9.9,0,0,0,0,1.266l.633.633a.9.9,0,0,0,1.266,0l7.688-7.688A.9.9,0,0,0,10.166,5.712Z" transform="translate(72 358.5)" fill="#fff"/></g><g transform="translate(126 -361)"><rect width="14" height="14" transform="translate(70 361)" fill="#fff" opacity="0"/><path d="M3.057,7.557a1.791,1.791,0,1,0-2.533,0A1.791,1.791,0,0,0,3.057,7.557Zm7.164,4.631a1.791,1.791,0,1,0,0,2.533A1.791,1.791,0,0,0,10.22,12.188Zm-.054-6.476-.633-.633a.9.9,0,0,0-1.266,0L.579,12.767a.9.9,0,0,0,0,1.266l.633.633a.9.9,0,0,0,1.266,0l7.688-7.688A.9.9,0,0,0,10.166,5.712Z" transform="translate(72 358.5)" fill="#b0a16e"/></g><g transform="translate(140 -361)"><rect width="14" height="14" transform="translate(70 361)" fill="#fff" opacity="0"/><g transform="translate(73 362)"><path d="M138.208,229.982h-7a.65.65,0,1,0,0,1.292h7a.65.65,0,1,0,0-1.292Z" transform="translate(-130.489 -227.283)" fill="#b0a16e"/><path d="M131.209,23.436h7a.65.65,0,1,0,0-1.292h-7a.65.65,0,1,0,0,1.292Z" transform="translate(-130.491 -22.144)" fill="#b0a16e"/><path d="M131.227,23.581h1.962a7.784,7.784,0,0,1,.952.022l-.2-.026a2.765,2.765,0,0,1,.685.181l-.176-.072a2.737,2.737,0,0,1,.584.331l-.15-.112a2.7,2.7,0,0,1,.487.473l-.116-.145a2.622,2.622,0,0,1,.341.567l-.075-.171a2.564,2.564,0,0,1,.186.665l-.026-.191a2.593,2.593,0,0,1,0,.676l.026-.191a2.564,2.564,0,0,1-.186.665l.075-.171a2.622,2.622,0,0,1-.341.567l.116-.145a2.7,2.7,0,0,1-.487.473l.15-.112a2.737,2.737,0,0,1-.584.331l.176-.072a2.764,2.764,0,0,1-.685.181l.2-.026a6.779,6.779,0,0,1-.831.022h-2.083a.735.735,0,0,0-.739.718v.237a.757.757,0,0,0,.217.527l.006.007.085.1.427.48,1.5,1.685,1.637,1.841.91,1.023.02.023a.729.729,0,0,0,.522.21.753.753,0,0,0,.522-.21.71.71,0,0,0,.216-.507.741.741,0,0,0-.216-.507l-.719-.809-1.581-1.778-1.576-1.773-.706-.794.216.507v-.256l-.739.718h1.962c.25,0,.5.009.752,0a3.347,3.347,0,0,0,1.049-.211,3.236,3.236,0,0,0,1.037-.6,3.23,3.23,0,0,0,.666-.766,3.188,3.188,0,0,0,.477-2A3.036,3.036,0,0,0,136.84,24a3.185,3.185,0,0,0-.589-.826,3.291,3.291,0,0,0-.817-.614,3.578,3.578,0,0,0-1.691-.411h-2.516a.718.718,0,1,0,0,1.435Z" transform="translate(-130.488 -22.146)" fill="#b0a16e"/></g></g><g transform="translate(154 -361)"><rect width="14" height="14" transform="translate(70 361)" fill="#fff" opacity="0"/><g transform="translate(73 362)"><path d="M138.208,229.982h-7a.65.65,0,1,0,0,1.292h7a.65.65,0,1,0,0-1.292Z" transform="translate(-130.489 -227.283)" fill="#707070"/><path d="M131.209,23.436h7a.65.65,0,1,0,0-1.292h-7a.65.65,0,1,0,0,1.292Z" transform="translate(-130.491 -22.144)" fill="#707070"/><path d="M131.227,23.581h1.962a7.784,7.784,0,0,1,.952.022l-.2-.026a2.765,2.765,0,0,1,.685.181l-.176-.072a2.737,2.737,0,0,1,.584.331l-.15-.112a2.7,2.7,0,0,1,.487.473l-.116-.145a2.622,2.622,0,0,1,.341.567l-.075-.171a2.564,2.564,0,0,1,.186.665l-.026-.191a2.593,2.593,0,0,1,0,.676l.026-.191a2.564,2.564,0,0,1-.186.665l.075-.171a2.622,2.622,0,0,1-.341.567l.116-.145a2.7,2.7,0,0,1-.487.473l.15-.112a2.737,2.737,0,0,1-.584.331l.176-.072a2.764,2.764,0,0,1-.685.181l.2-.026a6.779,6.779,0,0,1-.831.022h-2.083a.735.735,0,0,0-.739.718v.237a.757.757,0,0,0,.217.527l.006.007.085.1.427.48,1.5,1.685,1.637,1.841.91,1.023.02.023a.729.729,0,0,0,.522.21.753.753,0,0,0,.522-.21.71.71,0,0,0,.216-.507.741.741,0,0,0-.216-.507l-.719-.809-1.581-1.778-1.576-1.773-.706-.794.216.507v-.256l-.739.718h1.962c.25,0,.5.009.752,0a3.347,3.347,0,0,0,1.049-.211,3.236,3.236,0,0,0,1.037-.6,3.23,3.23,0,0,0,.666-.766,3.188,3.188,0,0,0,.477-2A3.036,3.036,0,0,0,136.84,24a3.185,3.185,0,0,0-.589-.826,3.291,3.291,0,0,0-.817-.614,3.578,3.578,0,0,0-1.691-.411h-2.516a.718.718,0,1,0,0,1.435Z" transform="translate(-130.488 -22.146)" fill="#707070"/></g></g></g></svg>