<svg xmlns="http://www.w3.org/2000/svg" xmlns:xlink="http://www.w3.org/1999/xlink" width="34" height="6" viewBox="0 0 34 6">
  <defs>
    <clipPath id="clip-icons_6x6">
      <rect width="34" height="6"/>
    </clipPath>
  </defs>
  <g id="icons_6x6" clip-path="url(#clip-icons_6x6)">
    <g id="Group_3627" data-name="Group 3627" transform="translate(15039 21975)">
      <g id="Group_3462" data-name="Group 3462" transform="translate(-15029.243 -21975)">
        <rect id="Rectangle_216" data-name="Rectangle 216" width="6" height="6" transform="translate(0.243)" fill="none"/>
        <g id="Group_2974" data-name="Group 2974" transform="translate(0.101 0.295)">
          <path id="Path_439" data-name="Path 439" d="M709.137,481h3.125a.458.458,0,0,1,.428.305l.614,1.674s.136.443-.309.443c-.39,0-.6-.365-.873-.367s-.377.347-.68.348-.511-.322-.774-.322-.433.3-.773.3-.352-.325-.645-.325-.481.363-.921.363-.287-.441-.287-.441l.672-1.689A.457.457,0,0,1,709.137,481Z" transform="translate(-707.77 -480.752)" fill="#b0a16e"/>
          <path id="Path_440" data-name="Path 440" d="M710.79,479.984l0-.012-.62-1.549a.686.686,0,0,0-.642-.422h-3.151a.691.691,0,0,0-.631.408l-.677,1.56,0,.01a.589.589,0,0,0,.042.51.522.522,0,0,0,.461.205,1.041,1.041,0,0,0,.315-.049v2.1s0,0,0,0,0,0,0,0a.684.684,0,0,0,.7.655h2.742a.685.685,0,0,0,.684-.657s0-.005,0-.008v-2.085a.9.9,0,0,0,.253.037.54.54,0,0,0,.468-.2A.6.6,0,0,0,710.79,479.984Zm-1.239,2.753a.227.227,0,0,1-.226.214h-2.753a.226.226,0,0,1-.233-.215v-2.323a.336.336,0,0,1,.154-.055c.048,0,.069.014.143.082a.7.7,0,0,0,.506.218,1.047,1.047,0,0,0,.559-.185.5.5,0,0,1,.22-.094.6.6,0,0,1,.241.107,1.023,1.023,0,0,0,.536.19h0a.767.767,0,0,0,.5-.219c.089-.073.131-.1.179-.1a.385.385,0,0,1,.17.069Zm.808-2.516a.176.176,0,0,1-.1.017.74.74,0,0,1-.4-.156.916.916,0,0,0-.482-.183h0a.721.721,0,0,0-.47.207c-.091.075-.142.114-.213.115h0a.637.637,0,0,1-.3-.123.92.92,0,0,0-.479-.174.868.868,0,0,0-.453.158.636.636,0,0,1-.325.121c-.089,0-.123-.031-.2-.1a.633.633,0,0,0-.452-.2.92.92,0,0,0-.486.176.8.8,0,0,1-.441.16.232.232,0,0,1-.085-.012.209.209,0,0,1,.009-.085l.672-1.55a.232.232,0,0,1,.212-.136h3.156a.229.229,0,0,1,.212.139l.615,1.536A.186.186,0,0,1,710.36,480.22Z" transform="translate(-705.022 -477.999)"/>
        </g>
      </g>
      <g id="Group_3477" data-name="Group 3477" transform="translate(-15039 -21975)">
        <rect id="Rectangle_216-2" data-name="Rectangle 216" width="6" height="6" fill="none"/>
        <g id="Group_2974-2" data-name="Group 2974" transform="translate(0.101 0.295)">
          <path id="Path_439-2" data-name="Path 439" d="M709.137,481h3.125a.458.458,0,0,1,.428.305l.614,1.674s.136.443-.309.443c-.39,0-.6-.365-.873-.367s-.377.347-.68.348-.511-.322-.774-.322-.433.3-.773.3-.352-.325-.645-.325-.481.363-.921.363-.287-.441-.287-.441l.672-1.689A.457.457,0,0,1,709.137,481Z" transform="translate(-707.77 -480.752)" fill="#b0a16e"/>
          <path id="Path_440-2" data-name="Path 440" d="M710.79,479.984l0-.012-.62-1.549a.686.686,0,0,0-.642-.422h-3.151a.691.691,0,0,0-.631.408l-.677,1.56,0,.01a.589.589,0,0,0,.042.51.522.522,0,0,0,.461.205,1.041,1.041,0,0,0,.315-.049v2.1s0,0,0,0,0,0,0,0a.684.684,0,0,0,.7.655h2.742a.685.685,0,0,0,.684-.657s0-.005,0-.008v-2.085a.9.9,0,0,0,.253.037.54.54,0,0,0,.468-.2A.6.6,0,0,0,710.79,479.984Zm-1.239,2.753a.227.227,0,0,1-.226.214h-2.753a.226.226,0,0,1-.233-.215v-2.323a.336.336,0,0,1,.154-.055c.048,0,.069.014.143.082a.7.7,0,0,0,.506.218,1.047,1.047,0,0,0,.559-.185.5.5,0,0,1,.22-.094.6.6,0,0,1,.241.107,1.023,1.023,0,0,0,.536.19h0a.767.767,0,0,0,.5-.219c.089-.073.131-.1.179-.1a.385.385,0,0,1,.17.069Zm.808-2.516a.176.176,0,0,1-.1.017.74.74,0,0,1-.4-.156.916.916,0,0,0-.482-.183h0a.721.721,0,0,0-.47.207c-.091.075-.142.114-.213.115h0a.637.637,0,0,1-.3-.123.92.92,0,0,0-.479-.174.868.868,0,0,0-.453.158.636.636,0,0,1-.325.121c-.089,0-.123-.031-.2-.1a.633.633,0,0,0-.452-.2.92.92,0,0,0-.486.176.8.8,0,0,1-.441.16.232.232,0,0,1-.085-.012.209.209,0,0,1,.009-.085l.672-1.55a.232.232,0,0,1,.212-.136h3.156a.229.229,0,0,1,.212.139l.615,1.536A.186.186,0,0,1,710.36,480.22Z" transform="translate(-705.022 -477.999)"/>
        </g>
      </g>
      <g id="noun_Arrow_1953010" transform="translate(-15032.122 -21972.551)">
        <g id="Group_256" data-name="Group 256" transform="translate(0 0)">
          <path id="Path_61" data-name="Path 61" d="M26.093,29.451a.081.081,0,0,0-.119,0l-.18.18a.081.081,0,0,0,0,.119l.249.249H24.984a.085.085,0,0,0-.084.084v.257a.085.085,0,0,0,.084.084h1.055l-.245.249a.081.081,0,0,0,0,.119l.18.18a.081.081,0,0,0,.119,0l.7-.7a.081.081,0,0,0,0-.119Z" transform="translate(-24.9 -29.425)" fill="#050505"/>
        </g>
      </g>
    </g>
    <g id="Group_3626" data-name="Group 3626" transform="translate(15076 21926)">
      <g id="Group_3459" data-name="Group 3459" transform="translate(-15060.001 -21926)">
        <rect id="Rectangle_506" data-name="Rectangle 506" width="6" height="6" transform="translate(0.001)" fill="none"/>
        <g id="Group_3603" data-name="Group 3603" transform="translate(0 0.538)">
          <g id="noun_Arrow_1953010-2" data-name="noun Arrow 1953010" transform="translate(2.132 2.892)">
            <g id="Group_256-2" data-name="Group 256">
              <path id="Path_61-2" data-name="Path 61" d="M-907.415,1210.082a.088.088,0,0,0,0,.124l0,0,.194.195a.088.088,0,0,0,.124,0l0,0,.269-.27v1.144a.094.094,0,0,0,.091.091h.278a.093.093,0,0,0,.09-.091v-1.14l.269.265a.088.088,0,0,0,.124,0l0,0,.194-.195a.088.088,0,0,0,0-.124l0,0-.76-.761a.088.088,0,0,0-.124,0l0,0Z" transform="translate(907.443 -1209.293)" fill="#b0a16e"/>
            </g>
          </g>
          <g id="noun_Arrow_1953010-2-2" data-name="noun Arrow 1953010-2" transform="translate(0 0.001)">
            <g id="Group_256-2-2" data-name="Group 256-2">
              <path id="Path_61-2-2" data-name="Path 61-2" d="M-909.436,1208.179a.13.13,0,0,0,.086.162l.009,0,.392.11a.128.128,0,0,0,.161-.086l0-.009.146-.54.837,1.45a.135.135,0,0,0,.184.049l.353-.2a.137.137,0,0,0,.049-.184l-.837-1.448.54.143a.128.128,0,0,0,.162-.084l0-.012.1-.39a.13.13,0,0,0-.086-.162l-.009,0-1.526-.41a.128.128,0,0,0-.161.086l0,.009Z" transform="translate(909.441 -1206.56)" fill="#050505"/>
            </g>
          </g>
          <g id="noun_Arrow_1953010-3" data-name="noun Arrow 1953010-3" transform="translate(3.722)">
            <g id="Group_256-3" data-name="Group 256-3">
              <path id="Path_61-3" data-name="Path 61-3" d="M-905.8,1206.971a.129.129,0,0,0-.1.156l0,.009.1.395a.13.13,0,0,0,.155.1l.008,0,.541-.145-.838,1.45a.136.136,0,0,0,.05.184l.353.2a.133.133,0,0,0,.182-.049l.837-1.449.146.539a.129.129,0,0,0,.153.1l.012,0,.39-.1a.13.13,0,0,0,.1-.156l0-.008-.407-1.526a.13.13,0,0,0-.154-.1l-.009,0Z" transform="translate(905.942 -1206.558)" fill="#050505"/>
            </g>
          </g>
        </g>
      </g>
    </g>
    <g id="Group_4084" data-name="Group 4084">
      <g id="Group_4083" data-name="Group 4083">
        <g id="Group_4082" data-name="Group 4082" transform="translate(-159.381 -46.883)">
          <path id="Path_1502" data-name="Path 1502" d="M0,4.285l1.287-.07L4.3,1.2,3.118,0,.066,3.052Z" transform="translate(182.282 47.732)" fill="none" stroke="#fff" stroke-linejoin="round" stroke-width="0.5"/>
          <line id="Line_83" data-name="Line 83" x2="1.063" y2="1.063" transform="translate(182.523 50.672)" fill="none" stroke="#fff" stroke-width="0.5"/>
          <line id="Line_87" data-name="Line 87" x2="1" y2="1" transform="translate(184.881 48.532)" fill="none" stroke="#fff" stroke-width="0.5"/>
        </g>
        <rect id="Rectangle_651" data-name="Rectangle 651" width="6" height="6" transform="translate(22)" fill="none"/>
      </g>
    </g>
    <g id="Group_4085" data-name="Group 4085" transform="translate(6)">
      <g id="Group_4083-2" data-name="Group 4083">
        <rect id="Rectangle_651-2" data-name="Rectangle 651" width="6" height="6" transform="translate(22)" fill="none"/>
        <path id="Path_632" data-name="Path 632" d="M-21614.02-16430.279l1.584,1.586,3.031-3.029" transform="translate(21636.719 16433.223)" fill="none" stroke="#fff" stroke-linecap="round" stroke-linejoin="round" stroke-width="1"/>
      </g>
    </g>
  </g>
</svg>
