<svg xmlns="http://www.w3.org/2000/svg" xmlns:xlink="http://www.w3.org/1999/xlink" width="612" height="36" viewBox="0 0 612 36">
  <defs>
    <clipPath id="clip-path">
      <path id="ic_account_circle_24px" d="M20,2A18,18,0,1,0,38,20,18.007,18.007,0,0,0,20,2Z" transform="translate(-2 -2)" fill="#fff"/>
    </clipPath>
    <clipPath id="clip-_36x36_icons">
      <rect width="612" height="36"/>
    </clipPath>
  </defs>
  <g id="_36x36_icons" data-name="36x36 icons" clip-path="url(#clip-_36x36_icons)">
    <g id="Group_3410" data-name="Group 3410" transform="translate(-30 -130)">
      <rect id="Rectangle_166" data-name="Rectangle 166" width="36" height="36" transform="translate(30 130)" fill="none"/>
      <rect id="Rectangle_215" data-name="Rectangle 215" width="18" height="18" transform="translate(35.633 135.633)" fill="none"/>
      <path id="Path_444" data-name="Path 444" d="M821.094,485.693l-4.011-4.01a9.347,9.347,0,1,0-1.4,1.4l4.01,4.011Zm-11.265-2.516a7.348,7.348,0,1,1,7.348-7.348A7.356,7.356,0,0,1,809.829,483.177Z" transform="translate(-762.5 -328.5)"/>
    </g>
    <g id="Group_3409" data-name="Group 3409" transform="translate(-30 -130)">
      <path id="Path_481" data-name="Path 481" d="M0,0H36V36H0Z" transform="translate(66 130)" fill="none"/>
      <line id="Line_75" data-name="Line 75" x2="15" y2="15" transform="translate(76.5 140.5)" fill="none" stroke="#333" stroke-linecap="round" stroke-width="1.5"/>
      <line id="Line_76" data-name="Line 76" x1="15" y2="15" transform="translate(76.5 140.5)" fill="none" stroke="#333" stroke-linecap="round" stroke-width="1.5"/>
    </g>
    <g id="Group_3408" data-name="Group 3408" transform="translate(-30 -130)">
      <path id="Path_482" data-name="Path 482" d="M0,0H36V36H0Z" transform="translate(102 130)" fill="#c7c7c7" opacity="0.001"/>
      <g id="Group_2185" data-name="Group 2185" transform="translate(105 133.773)">
        <path id="Path_436" data-name="Path 436" d="M-3.6,0H14.8l4,10H-8Z" transform="translate(9.599 2)" fill="#b0a16e"/>
        <g id="Group_753" data-name="Group 753">
          <path id="Path_405" data-name="Path 405" d="M-368.85,294.468c-.007-.021-.014-.042-.022-.063l-3.186-8.145a3.629,3.629,0,0,0-3.376-2.26l-16.208,0h0a3.6,3.6,0,0,0-3.339,2.169l-3.487,8.218c-.007.017-.014.034-.021.052a3.092,3.092,0,0,0,.255,2.7,2.768,2.768,0,0,0,2.4,1.047,6.408,6.408,0,0,0,3.559-1.209,2.844,2.844,0,0,1,1.219-.56c.205,0,.287.05.674.411A3.626,3.626,0,0,0-387.712,298a5.4,5.4,0,0,0,2.933-.988,2.611,2.611,0,0,1,1.08-.482,3.019,3.019,0,0,1,1.191.553,5.282,5.282,0,0,0,2.813,1.012h.014a3.983,3.983,0,0,0,2.648-1.171c.435-.366.655-.52.865-.524a1.471,1.471,0,0,1,.624.232c0,.027-.008.053-.008.08V308.98a1.078,1.078,0,0,1-.333.779,1.147,1.147,0,0,1-.8.323h0l-13.755,0a1.115,1.115,0,0,1-1.131-1.1,1.219,1.219,0,0,0-1.237-1.2,1.219,1.219,0,0,0-1.237,1.2,3.556,3.556,0,0,0,3.605,3.5l13.755,0h0a3.647,3.647,0,0,0,2.553-1.025,3.427,3.427,0,0,0,1.058-2.476V297.958a4.694,4.694,0,0,0,1.448.229,2.857,2.857,0,0,0,2.432-1.043A3.12,3.12,0,0,0-368.85,294.468Zm-2.334,1.249a.893.893,0,0,1-.445.071,3.7,3.7,0,0,1-1.983-.807,4.737,4.737,0,0,0-2.534-.98h-.027a3.746,3.746,0,0,0-2.479,1.11c-.494.414-.726.584-1.037.585h0a3.2,3.2,0,0,1-1.485-.637,4.754,4.754,0,0,0-2.52-.928,4.5,4.5,0,0,0-2.389.844,3.078,3.078,0,0,1-1.624.626c-.4,0-.547-.12-.955-.5a3.3,3.3,0,0,0-2.39-1.082,4.75,4.75,0,0,0-2.557.941,4,4,0,0,1-2.221.828,1.2,1.2,0,0,1-.376-.046,1.172,1.172,0,0,1,.047-.481l3.472-8.181a1.132,1.132,0,0,1,1.051-.682h0l16.208,0a1.141,1.141,0,0,1,1.062.711l3.17,8.1A1.114,1.114,0,0,1-371.184,295.717Z" transform="translate(398.693 -283.997)" stroke="rgba(0,0,0,0)" stroke-width="1"/>
        </g>
        <path id="Path_435" data-name="Path 435" d="M-390.589,326.565a1.2,1.2,0,0,0,0,1.7,1.2,1.2,0,0,0,.848.352,1.2,1.2,0,0,0,.848-.352l3.283-3.283a1.2,1.2,0,0,0,.352-.848,1.2,1.2,0,0,0-.352-.849L-388.892,320a1.2,1.2,0,0,0-1.7,0,1.2,1.2,0,0,0,0,1.7l1.234,1.234h-5.895a1.2,1.2,0,0,0-1.2,1.2,1.2,1.2,0,0,0,1.2,1.2h5.895Z" transform="translate(397.747 -305.387)" fill="#b0a16e" stroke="rgba(0,0,0,0)" stroke-width="1"/>
      </g>
    </g>
    <g id="Group_3407" data-name="Group 3407" transform="translate(-30 -130)">
      <path id="Path_483" data-name="Path 483" d="M0,0H36V36H0Z" transform="translate(138 130)" fill="none"/>
      <g id="Group_3283" data-name="Group 3283" transform="translate(-564.021 -343.998)">
        <path id="Path_439" data-name="Path 439" d="M713.9,481l16.4,0a2.4,2.4,0,0,1,2.245,1.478l3.223,8.1a1.536,1.536,0,0,1-1.619,2.145c-2.047,0-3.125-1.765-4.58-1.777s-1.977,1.679-3.569,1.685-2.683-1.556-4.06-1.556-2.271,1.462-4.058,1.462-1.845-1.573-3.384-1.573-2.525,1.759-4.833,1.759-1.506-2.135-1.506-2.135l3.528-8.173A2.4,2.4,0,0,1,713.9,481Z" transform="translate(-1.803 -1.806)" fill="#b0a16e"/>
        <path id="Path_440" data-name="Path 440" d="M735.09,488.4c-.007-.021-.015-.043-.023-.064l-3.23-8.118A3.574,3.574,0,0,0,728.491,478l-16.39,0h-.033a3.6,3.6,0,0,0-3.287,2.139l-3.528,8.173c-.008.018-.015.035-.021.053a3.1,3.1,0,0,0,.22,2.673,2.717,2.717,0,0,0,2.4,1.075,5.4,5.4,0,0,0,1.644-.255V502.85c0,.007,0,.014,0,.021s0,.014,0,.022a3.575,3.575,0,0,0,3.661,3.434l14.194,0,.1,0a3.577,3.577,0,0,0,3.566-3.441c0-.014,0-.029,0-.043V491.921a4.674,4.674,0,0,0,1.317.192,2.808,2.808,0,0,0,2.439-1.071A3.133,3.133,0,0,0,735.09,488.4Zm-6.455,14.425a1.185,1.185,0,0,1-1.181,1.122l-.081,0-14.231,0H713.1a1.182,1.182,0,0,1-1.216-1.129V490.639a1.746,1.746,0,0,1,.8-.286c.253,0,.359.076.744.429a3.619,3.619,0,0,0,2.639,1.145,5.44,5.44,0,0,0,2.912-.97,2.589,2.589,0,0,1,1.146-.492,3.093,3.093,0,0,1,1.258.563,5.321,5.321,0,0,0,2.793.993h.013a3.989,3.989,0,0,0,2.62-1.147c.466-.385.685-.523.934-.539a2.009,2.009,0,0,1,.886.362Zm4.213-13.184a.924.924,0,0,1-.509.088,3.844,3.844,0,0,1-2.061-.816,4.763,4.763,0,0,0-2.51-.961h-.026a3.748,3.748,0,0,0-2.449,1.085c-.476.393-.742.6-1.109.6h0a3.311,3.311,0,0,1-1.556-.647,4.781,4.781,0,0,0-2.5-.909,4.518,4.518,0,0,0-2.364.827,3.3,3.3,0,0,1-1.694.635c-.463,0-.639-.162-1.026-.517a3.293,3.293,0,0,0-2.357-1.056,4.778,4.778,0,0,0-2.534.923,4.159,4.159,0,0,1-2.3.837,1.21,1.21,0,0,1-.441-.06,1.107,1.107,0,0,1,.047-.446l3.5-8.12a1.21,1.21,0,0,1,1.1-.714h.027l16.41,0h.015a1.2,1.2,0,0,1,1.107.726l3.2,8.05A.977.977,0,0,1,732.848,489.638Z" transform="translate(0 0)"/>
        <g id="noun_Refresh_2072320" data-name="noun Refresh 2072320" transform="translate(715.881 493.134)">
          <g id="Group_260" data-name="Group 260">
            <path id="Path_62" data-name="Path 62" d="M740.542,517.211h0a.173.173,0,0,1,.04.119l-.01,2.192a.138.138,0,0,1-.147.129h-.012l-2.142-.472a.186.186,0,0,1-.108-.069h0a.184.184,0,0,1,.029-.255l.452-.364a2.819,2.819,0,0,0-4.833,1.215.768.768,0,0,1-.756.58h0a.756.756,0,0,1-.737-.774.748.748,0,0,1,.021-.16,4.336,4.336,0,0,1,7.5-1.807l.452-.364A.186.186,0,0,1,740.542,517.211Z" transform="translate(-732.316 -516.041)" fill="#b0a16e"/>
            <path id="Path_63" data-name="Path 63" d="M732.972,530.664h0a.17.17,0,0,1-.04-.119l.01-2.192a.137.137,0,0,1,.146-.129h.013l2.142.472a.188.188,0,0,1,.108.069h0a.185.185,0,0,1-.029.255l-.452.354a2.819,2.819,0,0,0,4.835-1.219.767.767,0,0,1,.756-.58h0a.756.756,0,0,1,.737.774.771.771,0,0,1-.021.16,4.336,4.336,0,0,1-7.5,1.818l-.452.364A.185.185,0,0,1,732.972,530.664Z" transform="translate(-732.687 -522.987)" fill="#b0a16e"/>
          </g>
        </g>
      </g>
    </g>
    <g id="Group_3406" data-name="Group 3406" transform="translate(-30 -130)">
      <path id="Path_484" data-name="Path 484" d="M0,0H36V36H0Z" transform="translate(174 130)" fill="none"/>
      <g id="Group_3284" data-name="Group 3284" transform="translate(-637.027 -334.998)">
        <path id="Path_441" data-name="Path 441" d="M841.143,473.414l3.518,8.152s.8,2.13-1.5,2.13-3.286-1.755-4.821-1.755-1.591,1.569-3.375,1.569-2.676-1.459-4.047-1.459-2.46,1.558-4.049,1.552-2.108-1.693-3.56-1.681-2.528,1.772-4.568,1.772a1.532,1.532,0,0,1-1.615-2.14l3.214-8.079A2.4,2.4,0,0,1,822.578,472l16.351,0A2.4,2.4,0,0,1,841.143,473.414Z" transform="translate(-1.807 -1.81)" fill="#b0a16e"/>
        <path id="Path_442" data-name="Path 442" d="M843.969,479.337c-.007-.018-.014-.036-.021-.053l-3.518-8.152-.007-.016a3.574,3.574,0,0,0-3.3-2.117l-16.336,0h-.043a3.576,3.576,0,0,0-3.316,2.224l-3.214,8.079c-.008.021-.016.043-.023.064a3.124,3.124,0,0,0,.312,2.637,2.8,2.8,0,0,0,2.433,1.069,4.664,4.664,0,0,0,1.311-.191v10.9c0,.015,0,.029,0,.043a3.568,3.568,0,0,0,3.558,3.431h.1l14.157,0a3.557,3.557,0,0,0,3.651-3.425,1.19,1.19,0,0,0-2.379-.086,1.176,1.176,0,0,1-1.213,1.132.153.153,0,0,1-.04,0l-14.193,0h-.041a1.191,1.191,0,0,1-1.219-1.119V481.665a2.009,2.009,0,0,1,.886-.362c.238,0,.467.154.931.537a3.976,3.976,0,0,0,2.614,1.144h.014a5.305,5.305,0,0,0,2.788-.991,3.082,3.082,0,0,1,1.252-.561,2.579,2.579,0,0,1,1.141.491,5.427,5.427,0,0,0,2.906.968,3.611,3.611,0,0,0,2.633-1.142c.384-.352.49-.427.741-.427a2.851,2.851,0,0,1,1.283.569,6.455,6.455,0,0,0,3.537,1.185,2.711,2.711,0,0,0,2.4-1.072A3.1,3.1,0,0,0,843.969,479.337Zm-2.177,1.3a1.209,1.209,0,0,1-.44.06,4.15,4.15,0,0,1-2.294-.834,4.767,4.767,0,0,0-2.527-.92,3.283,3.283,0,0,0-2.35,1.054c-.386.354-.563.516-1.024.516a3.292,3.292,0,0,1-1.691-.634,4.5,4.5,0,0,0-2.356-.825,4.765,4.765,0,0,0-2.487.906,3.3,3.3,0,0,1-1.553.646h0c-.367,0-.632-.206-1.106-.6a3.736,3.736,0,0,0-2.442-1.082h-.026a4.754,4.754,0,0,0-2.5.958,3.831,3.831,0,0,1-2.054.814,1.057,1.057,0,0,1-.5-.079.9.9,0,0,1,.01-.475l3.189-8.017a1.194,1.194,0,0,1,1.14-.741l16.364,0a1.174,1.174,0,0,1,1.113.706l3.5,8.106A1.175,1.175,0,0,1,841.792,480.634Z" transform="translate(0 0)"/>
        <path id="Path_443" data-name="Path 443" d="M870,508.256,866.747,505a1.19,1.19,0,0,0-1.683,1.683l1.225,1.224h-6.2a1.19,1.19,0,0,0,0,2.381h6.2l-1.225,1.224a1.19,1.19,0,1,0,1.683,1.683L870,509.939A1.19,1.19,0,0,0,870,508.256Z" transform="translate(-27.065 -21.506)" fill="#b0a16e"/>
      </g>
    </g>
    <g id="Group_4281" data-name="Group 4281" transform="translate(180)">
      <rect id="Rectangle_791" data-name="Rectangle 791" width="36" height="36" fill="none"/>
      <g id="Group_4265" data-name="Group 4265" transform="translate(8.444 3.956)">
        <g id="Path_629" data-name="Path 629" transform="translate(0 0)" fill="#b9aa79">
          <path d="M 9.452485084533691 27.00414085388184 C 9.200249671936035 26.80337524414062 8.633388519287109 26.25792121887207 7.660234928131104 24.85420417785645 C 6.711735248565674 23.48605346679688 5.647425174713135 21.69055366516113 4.663364887237549 19.7984447479248 C 2.403725147247314 15.45368480682373 1.000005125999451 11.48934459686279 1.000005125999451 9.452484130859375 C 1.000005125999451 4.791774272918701 4.791775226593018 1.000004410743713 9.452485084533691 1.000004410743713 C 14.11320495605469 1.000004410743713 17.90497589111328 4.791774272918701 17.90497589111328 9.452484130859375 C 17.90497589111328 11.48934459686279 16.50125503540039 15.45368480682373 14.24160480499268 19.7984447479248 C 13.25754547119141 21.69055366516113 12.19324493408203 23.48606491088867 11.2447452545166 24.85420417785645 C 10.27158546447754 26.25792121887207 9.704721450805664 26.80337524414062 9.452485084533691 27.00414085388184 Z" stroke="none"/>
          <path d="M 9.452485084533691 2.000003814697266 C 5.343165397644043 2.000003814697266 1.999994277954102 5.343173980712891 1.999994277954102 9.452484130859375 C 1.999994277954102 11.2430248260498 3.323354721069336 14.9866247177124 5.371404647827148 18.98974418640137 C 7.058842658996582 22.28800964355469 8.573182106018066 24.51721000671387 9.452487945556641 25.57721900939941 C 10.33179473876953 24.5172119140625 11.84612846374512 22.28801727294922 13.53356552124023 18.98974418640137 C 15.58161544799805 14.9866247177124 16.90496444702148 11.2430248260498 16.90496444702148 9.452484130859375 C 16.90496444702148 5.343173980712891 13.56179523468018 2.000003814697266 9.452485084533691 2.000003814697266 M 9.452485084533691 3.814697265625e-06 C 14.67295455932617 3.814697265625e-06 18.90496444702148 4.232025146484375 18.90496444702148 9.452484130859375 C 18.90496444702148 14.67295455932617 11.32995510101318 28.0878849029541 9.452485084533691 28.0878849029541 C 7.57502555847168 28.0878849029541 -5.7220458984375e-06 14.67295455932617 -5.7220458984375e-06 9.452484130859375 C -5.7220458984375e-06 4.232025146484375 4.232025146484375 3.814697265625e-06 9.452485084533691 3.814697265625e-06 Z" stroke="none" fill="#0d0c09"/>
        </g>
        <g id="Path_703" data-name="Path 703" transform="translate(4.979 4.033)" fill="#fff">
          <path d="M 4.473250865936279 7.946501731872559 C 2.558090925216675 7.946501731872559 1.000000834465027 6.388411998748779 1.000000834465027 4.473251819610596 C 1.000000834465027 2.558091878890991 2.558090925216675 1.000001788139343 4.473250865936279 1.000001788139343 C 6.388411045074463 1.000001788139343 7.946500778198242 2.558091878890991 7.946500778198242 4.473251819610596 C 7.946500778198242 6.388411998748779 6.388411045074463 7.946501731872559 4.473250865936279 7.946501731872559 Z" stroke="none"/>
          <path d="M 4.473250865936279 2.000001907348633 C 3.109500885009766 2.000001907348633 2.000000953674316 3.109501838684082 2.000000953674316 4.473251819610596 C 2.000000953674316 5.837001800537109 3.109500885009766 6.946501731872559 4.473250865936279 6.946501731872559 C 5.837000846862793 6.946501731872559 6.946500778198242 5.837001800537109 6.946500778198242 4.473251819610596 C 6.946500778198242 3.109501838684082 5.837000846862793 2.000001907348633 4.473250865936279 2.000001907348633 M 4.473250865936279 1.9073486328125e-06 C 6.943760871887207 1.9073486328125e-06 8.946500778198242 2.002741813659668 8.946500778198242 4.473251819610596 C 8.946500778198242 6.943761825561523 6.943760871887207 8.946501731872559 4.473250865936279 8.946501731872559 C 2.002740859985352 8.946501731872559 9.5367431640625e-07 6.943761825561523 9.5367431640625e-07 4.473251819610596 C 9.5367431640625e-07 2.002741813659668 2.002740859985352 1.9073486328125e-06 4.473250865936279 1.9073486328125e-06 Z" stroke="none" fill="#0d0c09"/>
        </g>
      </g>
    </g>
    <g id="Group_4550" data-name="Group 4550" transform="translate(216)">
      <rect id="Rectangle_791-2" data-name="Rectangle 791" width="36" height="36" fill="none"/>
      <path id="Path_2109" data-name="Path 2109" d="M14.474,297.324a5.155,5.155,0,1,1-5.155,5.155,5.155,5.155,0,0,1,5.155-5.155Zm0-7.732A12.887,12.887,0,0,0,1.588,302.478c0,7.117,10.309,18.041,12.887,18.041S27.361,309.6,27.361,302.478A12.887,12.887,0,0,0,14.474,289.592Z" transform="translate(3.917 -286.556)" fill="#b9aa79" stroke="#000" stroke-width="2.5"/>
    </g>
    <g id="Group_4556" data-name="Group 4556" transform="translate(252)">
      <rect id="Rectangle_791-3" data-name="Rectangle 791" width="36" height="36" fill="none"/>
      <g id="Group_4557" data-name="Group 4557" transform="translate(-1039.706 -262.576)">
        <path id="Path_645" data-name="Path 645" d="M102.326,629.7l-19.926-4.9a2.075,2.075,0,0,0-.417-.042,2.143,2.143,0,0,0-2.142,2.142v32.766h24.2V631.8A2.144,2.144,0,0,0,102.326,629.7Zm-.007,28.238H81.572V626.892a.417.417,0,0,1,.41-.417c.014,0,.035.007.056.007l19.878,4.9.07.014a.416.416,0,0,1,.334.4Z" transform="translate(966.16 -361.75)"/>
        <path id="Path_646" data-name="Path 646" d="M103.077,632.551v26.137H82.33V627.647a.417.417,0,0,1,.41-.417c.014,0,.035.007.056.007l19.878,4.9.07.014A.416.416,0,0,1,103.077,632.551Z" transform="translate(965.402 -362.505)" fill="#b9aa79"/>
        <rect id="Rectangle_631" data-name="Rectangle 631" width="4.039" height="4.039" rx="0.5" transform="translate(1050.04 271.077)" fill="#fff"/>
        <rect id="Rectangle_632" data-name="Rectangle 632" width="4.039" height="4.039" rx="0.5" transform="translate(1056.099 271.077)" fill="#fff"/>
        <rect id="Rectangle_633" data-name="Rectangle 633" width="4.039" height="4.039" rx="0.5" transform="translate(1062.158 271.077)" fill="#fff"/>
        <rect id="Rectangle_631-2" data-name="Rectangle 631-2" width="4.039" height="4.039" rx="0.5" transform="translate(1050.04 277.136)" fill="#fff"/>
        <rect id="Rectangle_632-2" data-name="Rectangle 632-2" width="4.039" height="4.039" rx="0.5" transform="translate(1056.099 277.136)" fill="#fff"/>
        <rect id="Rectangle_633-2" data-name="Rectangle 633-2" width="4.039" height="4.039" rx="0.5" transform="translate(1062.158 277.136)" fill="#fff"/>
        <rect id="Rectangle_631-3" data-name="Rectangle 631-3" width="4.039" height="4.039" rx="0.5" transform="translate(1050.04 283.195)" fill="#fff"/>
        <rect id="Rectangle_632-3" data-name="Rectangle 632-3" width="4.039" height="4.039" rx="0.5" transform="translate(1056.099 283.195)" fill="#fff"/>
        <rect id="Rectangle_633-3" data-name="Rectangle 633-3" width="4.039" height="4.039" rx="0.5" transform="translate(1062.158 283.195)" fill="#fff"/>
        <path id="Rectangle_634" data-name="Rectangle 634" d="M91.8,662.5h2.333a.33.33,0,0,1,.348.307v4.734a.329.329,0,0,1-.348.307H91.8a.329.329,0,0,1-.348-.307V662.8A.33.33,0,0,1,91.8,662.5Z" transform="translate(962.623 -373.243)" fill="#fff"/>
        <path id="Rectangle_635" data-name="Rectangle 635" d="M97.612,662.5h2.333a.33.33,0,0,1,.348.307v4.734a.33.33,0,0,1-.348.307H97.612a.329.329,0,0,1-.348-.307V662.8A.33.33,0,0,1,97.612,662.5Z" transform="translate(960.855 -373.243)" fill="#fff"/>
      </g>
    </g>
    <g id="Group_4782" data-name="Group 4782" transform="translate(324)">
      <rect id="Rectangle_794" data-name="Rectangle 794" width="36" height="36" fill="none"/>
      <g id="Group_4781" data-name="Group 4781" transform="translate(5.854 2.994)">
        <path id="Path_767" data-name="Path 767" d="M31.065,11.42V34a3.42,3.42,0,0,1-3.41,3.29H11.42A3.423,3.423,0,0,1,8,33.871V11.42A3.422,3.422,0,0,1,11.29,8H27.654A3.421,3.421,0,0,1,31.065,11.42Z" transform="translate(-7.257 -7.257)" fill="#b9aa79"/>
        <path id="Path_768" data-name="Path 768" d="M20.389,30.778H4.163A4.168,4.168,0,0,1,0,26.615V4.163A4.154,4.154,0,0,1,4,0H20.389a4.168,4.168,0,0,1,4.163,4.163v22.61A4.155,4.155,0,0,1,20.389,30.778ZM4.163,1.487h-.1A2.669,2.669,0,0,0,1.487,4.163V26.615a2.677,2.677,0,0,0,2.676,2.676H20.4a2.661,2.661,0,0,0,2.667-2.574V4.163a2.677,2.677,0,0,0-2.676-2.676Z"/>
        <g id="Group_4774" data-name="Group 4774" transform="translate(4.038 5.98)">
          <path id="Path_769" data-name="Path 769" d="M44.906,68.492l-1.3-1.71a.743.743,0,1,1,1.18-.9l.4.52,2.509-1.9a.743.743,0,0,1,.9,1.18Z" transform="translate(-43.452 -64.352)" fill="#f8f8f7"/>
        </g>
        <g id="Group_4775" data-name="Group 4775" transform="translate(4.038 20.598)">
          <path id="Path_770" data-name="Path 770" d="M44.906,225.8l-1.3-1.71a.743.743,0,0,1,1.18-.9l.4.52,2.5-1.905a.743.743,0,1,1,.9,1.18Z" transform="translate(-43.452 -221.652)" fill="#f8f8f7"/>
        </g>
        <g id="Group_4776" data-name="Group 4776" transform="translate(11.124 7.156)">
          <path id="Path_771" data-name="Path 771" d="M128.082,78.487h-7.639a.743.743,0,0,1,0-1.487h7.639a.743.743,0,0,1,0,1.487Z" transform="translate(-119.7 -77)" fill="#f8f8f7"/>
        </g>
        <g id="Group_4777" data-name="Group 4777" transform="translate(11.124 21.783)">
          <path id="Path_772" data-name="Path 772" d="M128.082,235.887h-7.639a.743.743,0,1,1,0-1.487h7.639a.743.743,0,1,1,0,1.487Z" transform="translate(-119.7 -234.4)" fill="#f8f8f7"/>
        </g>
        <g id="Group_4778" data-name="Group 4778" transform="translate(4.038 13.284)">
          <path id="Path_773" data-name="Path 773" d="M44.906,147.1l-1.3-1.71a.743.743,0,1,1,1.18-.9l.4.52,2.5-1.905a.743.743,0,1,1,.9,1.18Z" transform="translate(-43.452 -142.952)" fill="#f8f8f7"/>
        </g>
        <g id="Group_4779" data-name="Group 4779" transform="translate(11.124 14.469)">
          <path id="Path_774" data-name="Path 774" d="M128.082,157.187h-7.639a.743.743,0,0,1,0-1.487h7.639a.743.743,0,0,1,0,1.487Z" transform="translate(-119.7 -155.7)" fill="#f8f8f7"/>
        </g>
      </g>
    </g>
    <g id="Group_4783" data-name="Group 4783" transform="translate(288)">
      <rect id="Rectangle_794-2" data-name="Rectangle 794" width="36" height="36" fill="none"/>
      <g id="Group_4268" data-name="Group 4268" transform="translate(3.007 3.584)">
        <path id="Path_712" data-name="Path 712" d="M26.483,11.191a5.512,5.512,0,0,1-1.155-1.74,5.75,5.75,0,0,1-.1-2.159,3.505,3.505,0,0,0-.249-2.214,3.519,3.519,0,0,0-2.046-.929A5.663,5.663,0,0,1,20.924,3.4a5.649,5.649,0,0,1-1.319-1.661c-.463-.756-.9-1.47-1.531-1.675A3.478,3.478,0,0,0,15.926.5a5.833,5.833,0,0,1-2.119.579A5.834,5.834,0,0,1,11.687.5,5.078,5.078,0,0,0,9.94,0a1.282,1.282,0,0,0-.4.059c-.631.2-1.068.919-1.532,1.675l0,0L8.444,2C8.856,1.324,9.244.69,9.7.543A.781.781,0,0,1,9.94.509,4.868,4.868,0,0,1,11.5.979a6.2,6.2,0,0,0,2.306.613A6.2,6.2,0,0,0,16.119.976,4.8,4.8,0,0,1,17.673.509a.773.773,0,0,1,.244.035c.451.146.84.781,1.254,1.456a6,6,0,0,0,1.454,1.807,6.124,6.124,0,0,0,2.189.837,3.3,3.3,0,0,1,1.752.733,3.3,3.3,0,0,1,.154,1.876,6.205,6.205,0,0,0,.124,2.355A5.956,5.956,0,0,0,26.1,11.524C26.615,12.13,27.1,12.7,27.1,13.2s-.489,1.066-1.009,1.672a5.9,5.9,0,0,0-1.253,1.915,6.105,6.105,0,0,0-.125,2.349v.014a3.277,3.277,0,0,1-.154,1.868,3.315,3.315,0,0,1-1.759.735,6.039,6.039,0,0,0-2.181.836A6.011,6.011,0,0,0,19.168,24.4c-.411.671-.8,1.306-1.252,1.453a.79.79,0,0,1-.244.034,4.815,4.815,0,0,1-1.555-.467,6.2,6.2,0,0,0-2.311-.616,6.193,6.193,0,0,0-2.317.619,4.818,4.818,0,0,1-1.549.464.775.775,0,0,1-.245-.035c-.452-.146-.84-.781-1.252-1.452l-.434.266c.462.754.9,1.466,1.529,1.671a3.476,3.476,0,0,0,2.148-.445,5.82,5.82,0,0,1,2.12-.58,5.834,5.834,0,0,1,2.119.579,3.471,3.471,0,0,0,2.148.445c.631-.2,1.068-.919,1.531-1.675A5.65,5.65,0,0,1,20.924,23a5.68,5.68,0,0,1,2.007-.753,3.519,3.519,0,0,0,2.046-.929,3.5,3.5,0,0,0,.249-2.214,5.768,5.768,0,0,1,.1-2.159,5.512,5.512,0,0,1,1.155-1.74,3.544,3.544,0,0,0,1.131-2A3.544,3.544,0,0,0,26.483,11.191ZM6.988,22.584A6.054,6.054,0,0,0,4.8,21.747a3.3,3.3,0,0,1-1.753-.733,3.305,3.305,0,0,1-.154-1.876,6.211,6.211,0,0,0-.124-2.355,5.892,5.892,0,0,0-1.252-1.914C1,14.263.509,13.691.509,13.2S1,12.129,1.518,11.522A5.882,5.882,0,0,0,2.77,9.608a6.218,6.218,0,0,0,.124-2.356,3.3,3.3,0,0,1,.154-1.874A3.3,3.3,0,0,1,4.8,4.644a6.113,6.113,0,0,0,2.187-.837A5.991,5.991,0,0,0,8.439,2l-.434-.266A5.612,5.612,0,0,1,6.688,3.4a5.664,5.664,0,0,1-2.006.753,3.522,3.522,0,0,0-2.047.929,3.515,3.515,0,0,0-.249,2.214,5.756,5.756,0,0,1-.1,2.159,5.529,5.529,0,0,1-1.155,1.74A3.543,3.543,0,0,0,0,13.2a3.541,3.541,0,0,0,1.131,2,5.529,5.529,0,0,1,1.155,1.74,5.756,5.756,0,0,1,.1,2.159,3.514,3.514,0,0,0,.249,2.214,3.522,3.522,0,0,0,2.047.929A5.681,5.681,0,0,1,6.688,23a5.623,5.623,0,0,1,1.319,1.661l0,0,.429-.275A5.983,5.983,0,0,0,6.988,22.584Z" transform="translate(1.221 1.221)" fill="#b9aa79"/>
        <path id="Path_713" data-name="Path 713" d="M3.635,1.817A1.817,1.817,0,1,1,1.817,0,1.819,1.819,0,0,1,3.635,1.817Z" transform="translate(9.059 9.952)" fill="#b9aa79"/>
        <path id="Path_714" data-name="Path 714" d="M6.984.5A.8.8,0,0,0,6.562.061.722.722,0,0,0,6.272,0a.772.772,0,0,0-.716.517L.056,15.061a.85.85,0,0,0,.425,1.077.716.716,0,0,0,.292.062.771.771,0,0,0,.716-.517l5.5-14.543A.876.876,0,0,0,6.984.5Z" transform="translate(11.505 6.316)" fill="#fff"/>
        <path id="Path_715" data-name="Path 715" d="M28.623,17.237a4.515,4.515,0,0,0,1.432-2.82,4.523,4.523,0,0,0-1.437-2.826,4.668,4.668,0,0,1-.9-1.3,4.937,4.937,0,0,1-.043-1.663,4.447,4.447,0,0,0-.487-3.048A4.475,4.475,0,0,0,24.418,4.17a4.788,4.788,0,0,1-1.552-.544,4.756,4.756,0,0,1-.978-1.291A4.485,4.485,0,0,0,19.671.121,2.543,2.543,0,0,0,18.883,0a6.009,6.009,0,0,0-2.228.6,4.987,4.987,0,0,1-1.628.481A4.982,4.982,0,0,1,13.4.6l-.008,0A6.009,6.009,0,0,0,11.171,0a2.548,2.548,0,0,0-.789.121A4.487,4.487,0,0,0,8.166,2.334a4.756,4.756,0,0,1-.978,1.292,4.8,4.8,0,0,1-1.556.544A4.475,4.475,0,0,0,2.869,5.581,4.45,4.45,0,0,0,2.382,8.63a4.919,4.919,0,0,1-.043,1.664,4.659,4.659,0,0,1-.908,1.3A4.512,4.512,0,0,0,0,14.416a4.523,4.523,0,0,0,1.436,2.827,4.66,4.66,0,0,1,.9,1.3A4.937,4.937,0,0,1,2.382,20.2a4.45,4.45,0,0,0,.487,3.049,4.48,4.48,0,0,0,2.767,1.412,4.787,4.787,0,0,1,1.551.544A4.757,4.757,0,0,1,8.166,26.5a4.492,4.492,0,0,0,2.217,2.214,2.557,2.557,0,0,0,.789.121,6,6,0,0,0,2.229-.6,5.006,5.006,0,0,1,1.627-.48,5.008,5.008,0,0,1,1.63.482,6,6,0,0,0,2.225.6,2.587,2.587,0,0,0,.79-.12A4.494,4.494,0,0,0,21.888,26.5a4.768,4.768,0,0,1,.978-1.292,4.8,4.8,0,0,1,1.557-.544,4.476,4.476,0,0,0,2.762-1.411,4.447,4.447,0,0,0,.487-3.047v-.016a4.9,4.9,0,0,1,.044-1.649A4.679,4.679,0,0,1,28.623,17.237ZM8.232,23.771a6.034,6.034,0,0,0-2.18-.834,3.287,3.287,0,0,1-1.746-.73,3.292,3.292,0,0,1-.153-1.869,6.184,6.184,0,0,0-.123-2.346,5.874,5.874,0,0,0-1.248-1.907c-.518-.6-1.006-1.173-1.006-1.667s.488-1.063,1.006-1.668a5.864,5.864,0,0,0,1.247-1.906,6.191,6.191,0,0,0,.123-2.348,3.289,3.289,0,0,1,.153-1.868A3.3,3.3,0,0,1,6.052,5.9a6.09,6.09,0,0,0,2.179-.834,5.967,5.967,0,0,0,1.447-1.8l0-.008c.41-.67.8-1.3,1.248-1.448a.78.78,0,0,1,.243-.034,4.853,4.853,0,0,1,1.556.468,6.174,6.174,0,0,0,2.3.611,6.178,6.178,0,0,0,2.3-.615,4.779,4.779,0,0,1,1.548-.465.769.769,0,0,1,.243.035c.45.145.837.778,1.249,1.451a5.987,5.987,0,0,0,1.449,1.8A6.109,6.109,0,0,0,24,5.9a3.289,3.289,0,0,1,1.746.73A3.28,3.28,0,0,1,25.9,8.5a6.2,6.2,0,0,0,.123,2.346,5.945,5.945,0,0,0,1.251,1.909c.515.6,1,1.173,1,1.666s-.488,1.062-1,1.666a5.881,5.881,0,0,0-1.249,1.908,6.1,6.1,0,0,0-.124,2.34v.014a3.26,3.26,0,0,1-.153,1.862A3.3,3.3,0,0,1,24,22.938a6.019,6.019,0,0,0-2.174.833,6,6,0,0,0-1.452,1.805c-.41.669-.8,1.3-1.248,1.447a.789.789,0,0,1-.243.034,4.794,4.794,0,0,1-1.549-.466,6.177,6.177,0,0,0-2.3-.614,6.169,6.169,0,0,0-2.309.617,4.808,4.808,0,0,1-1.544.462.777.777,0,0,1-.245-.035c-.45-.145-.837-.778-1.247-1.447l-.006-.009A5.96,5.96,0,0,0,8.232,23.771Z" transform="translate(0 0)"/>
        <path id="Path_716" data-name="Path 716" d="M25.629,11.033a5.972,5.972,0,0,1-1.257-1.919,6.225,6.225,0,0,1-.124-2.358,3.3,3.3,0,0,0-.154-1.879,3.3,3.3,0,0,0-1.755-.734A6.136,6.136,0,0,1,20.147,3.3a6.009,6.009,0,0,1-1.456-1.81c-.415-.677-.8-1.312-1.256-1.458A.776.776,0,0,0,17.19,0a4.8,4.8,0,0,0-1.555.467,6.209,6.209,0,0,1-2.316.618A6.2,6.2,0,0,1,11.01.471,4.878,4.878,0,0,0,9.446,0,.782.782,0,0,0,9.2.034C8.749.181,8.36.817,7.948,1.49l-.44-.258.435.266A6,6,0,0,1,6.489,3.3a6.121,6.121,0,0,1-2.19.838,3.313,3.313,0,0,0-1.756.735,3.307,3.307,0,0,0-.154,1.877,6.221,6.221,0,0,1-.124,2.36,5.884,5.884,0,0,1-1.253,1.916C.491,11.639,0,12.213,0,12.707s.491,1.069,1.011,1.676A5.9,5.9,0,0,1,2.264,16.3a6.214,6.214,0,0,1,.124,2.358,3.311,3.311,0,0,0,.154,1.879,3.307,3.307,0,0,0,1.755.734,6.064,6.064,0,0,1,2.191.839,5.994,5.994,0,0,1,1.453,1.805l-.429.275.435-.266c.412.672.8,1.308,1.253,1.454a.778.778,0,0,0,.246.035A4.831,4.831,0,0,0,11,24.95a6.2,6.2,0,0,1,2.321-.62,6.206,6.206,0,0,1,2.315.617,4.819,4.819,0,0,0,1.556.468.791.791,0,0,0,.245-.034c.453-.147.842-.783,1.254-1.455a6.026,6.026,0,0,1,1.459-1.814,6.046,6.046,0,0,1,2.185-.837,3.32,3.32,0,0,0,1.762-.736,3.283,3.283,0,0,0,.154-1.871v-.014a6.136,6.136,0,0,1,.125-2.352,5.91,5.91,0,0,1,1.255-1.918c.52-.608,1.01-1.18,1.01-1.675S26.147,11.64,25.629,11.033ZM9.169,13.063a3,3,0,1,1,3-3A3.006,3.006,0,0,1,9.169,13.063ZM10.959,20a.552.552,0,0,1-.512.345.539.539,0,0,1-.207-.041.553.553,0,0,1-.305-.719L15.677,5.412a.552.552,0,0,1,1.024.415Zm6.508-1.645a3,3,0,1,1,3-3A3.006,3.006,0,0,1,17.468,18.357Z" transform="translate(1.709 1.708)" fill="#b9aa79"/>
        <path id="Path_717" data-name="Path 717" d="M3.363,0A3.363,3.363,0,1,0,6.727,3.363,3.367,3.367,0,0,0,3.363,0Zm0,5.18A1.817,1.817,0,1,1,5.181,3.363,1.819,1.819,0,0,1,3.363,5.18Z" transform="translate(7.488 8.389)" fill="#fff"/>
        <path id="Path_718" data-name="Path 718" d="M3.363,6.726A3.363,3.363,0,1,1,6.727,3.363,3.367,3.367,0,0,1,3.363,6.726Zm0-4.692a1.329,1.329,0,1,0,1.33,1.329A1.33,1.33,0,0,0,3.363,2.034Z" transform="translate(15.839 13.718)" fill="#fff"/>
        <circle id="Ellipse_95" data-name="Ellipse 95" cx="1.817" cy="1.817" r="1.817" transform="translate(17.361 15.247)" fill="#b9aa79"/>
      </g>
    </g>
    <g id="Group_4805" data-name="Group 4805">
      <g id="Group_4800" data-name="Group 4800" transform="translate(360)">
        <rect id="Rectangle_794-3" data-name="Rectangle 794" width="36" height="36" fill="none"/>
      </g>
      <g id="Group_2980" data-name="Group 2980" transform="translate(234.701 -282.299)">
        <rect id="Rectangle_215-2" data-name="Rectangle 215" width="30" height="30" transform="translate(128.299 285.299)" fill="none"/>
        <g id="Group_2185-2" data-name="Group 2185" transform="translate(128.479 286.246)">
          <path id="Path_436-2" data-name="Path 436" d="M-3.641,0H14.588l3.963,9.907H-8Z" transform="translate(9.584 1.981)" fill="#b0a16e"/>
          <g id="Group_753-2" data-name="Group 753">
            <path id="Path_405-2" data-name="Path 405" d="M-369.127,294.371c-.007-.021-.014-.042-.022-.062l-3.156-8.07A3.6,3.6,0,0,0-375.65,284l-16.057,0h0a3.568,3.568,0,0,0-3.308,2.149l-3.455,8.142-.02.052a3.063,3.063,0,0,0,.253,2.68,2.743,2.743,0,0,0,2.376,1.037,6.349,6.349,0,0,0,3.526-1.2,2.818,2.818,0,0,1,1.208-.555c.2,0,.284.05.668.407a3.592,3.592,0,0,0,2.646,1.16,5.352,5.352,0,0,0,2.906-.979,2.588,2.588,0,0,1,1.07-.478,2.991,2.991,0,0,1,1.18.548,5.233,5.233,0,0,0,2.787,1h.014a3.946,3.946,0,0,0,2.623-1.16c.431-.362.649-.515.857-.519a1.456,1.456,0,0,1,.618.23c0,.027-.008.052-.008.079v12.153a1.068,1.068,0,0,1-.33.772,1.137,1.137,0,0,1-.8.32h0l-13.627,0a1.1,1.1,0,0,1-1.12-1.086,1.208,1.208,0,0,0-1.226-1.189,1.208,1.208,0,0,0-1.226,1.189,3.523,3.523,0,0,0,3.572,3.464l13.627,0h0a3.613,3.613,0,0,0,2.53-1.016,3.4,3.4,0,0,0,1.048-2.453V297.829a4.652,4.652,0,0,0,1.435.227,2.83,2.83,0,0,0,2.41-1.033A3.091,3.091,0,0,0-369.127,294.371Zm-2.313,1.237a.886.886,0,0,1-.441.07,3.666,3.666,0,0,1-1.965-.8,4.694,4.694,0,0,0-2.51-.971h-.027a3.711,3.711,0,0,0-2.456,1.1c-.489.411-.719.578-1.027.579h0a3.166,3.166,0,0,1-1.472-.631,4.709,4.709,0,0,0-2.5-.919,4.454,4.454,0,0,0-2.367.837,3.049,3.049,0,0,1-1.609.62c-.4,0-.542-.119-.946-.5a3.269,3.269,0,0,0-2.368-1.072,4.7,4.7,0,0,0-2.533.932,3.96,3.96,0,0,1-2.2.82,1.185,1.185,0,0,1-.373-.046,1.16,1.16,0,0,1,.047-.477l3.439-8.1a1.122,1.122,0,0,1,1.041-.676h0l16.057,0a1.131,1.131,0,0,1,1.052.7l3.14,8.028A1.105,1.105,0,0,1-371.44,295.608Z" transform="translate(398.693 -283.997)" stroke="rgba(0,0,0,0)" stroke-width="1"/>
          </g>
          <path id="Path_435-2" data-name="Path 435" d="M3.409,6.853A1.189,1.189,0,1,0,5.09,8.534L8.343,5.282a1.189,1.189,0,0,0,0-1.681L5.09.348A1.189,1.189,0,0,0,3.409,2.03L4.632,3.252H1.189a1.189,1.189,0,1,0,0,2.378H4.632Z" transform="translate(2.388 22.675) rotate(-90)" fill="#b0a16e" stroke="rgba(0,0,0,0)" stroke-width="1"/>
        </g>
      </g>
    </g>
    <g id="Group_4804" data-name="Group 4804" transform="translate(396)">
      <rect id="Rectangle_786" data-name="Rectangle 786" width="36" height="36" fill="none"/>
      <g id="Group_4264" data-name="Group 4264" transform="translate(1.386 6.134)">
        <path id="Path_683" data-name="Path 683" d="M274.135,652.882h-7.649a1.076,1.076,0,0,1-1.134-.931l.793-3.572.011-.051v-.052a1.067,1.067,0,0,1,1.135-.977h6.039a1.067,1.067,0,0,1,1.136.977v.052l.011.051.793,3.572A1.076,1.076,0,0,1,274.135,652.882Z" transform="translate(-259.17 -636.423)" fill="#b9aa79"/>
        <g id="Group_3962" data-name="Group 3962">
          <path id="Path_684" data-name="Path 684" d="M285.86,638.584h-6.908a.972.972,0,0,1-1.024-.841l.716-3.226.01-.046v-.047a.964.964,0,0,1,1.026-.882h5.453a.963.963,0,0,1,1.026.882v.047l.01.046.716,3.226A.973.973,0,0,1,285.86,638.584Z" transform="translate(-265.793 -629.196)" fill="#b9aa79"/>
          <path id="Path_685" data-name="Path 685" d="M274.05,652.911h-6.908a.972.972,0,0,1-1.024-.841l.716-3.226.01-.046v-.047a.964.964,0,0,1,1.026-.882h5.454a.963.963,0,0,1,1.026.882v.047l.01.046.716,3.226A.973.973,0,0,1,274.05,652.911Z" transform="translate(-259.573 -636.723)" fill="#b9aa79"/>
          <path id="Path_686" data-name="Path 686" d="M297.67,652.911h-6.908a.972.972,0,0,1-1.024-.841l.716-3.226.01-.046v-.047a.964.964,0,0,1,1.026-.882h5.454a.963.963,0,0,1,1.026.882v.047l.01.046.716,3.226A.973.973,0,0,1,297.67,652.911Z" transform="translate(-272.012 -636.723)" fill="#b9aa79"/>
          <path id="Path_687" data-name="Path 687" d="M285.86,667.238h-6.908a.972.972,0,0,1-1.025-.841l.716-3.226.01-.046v-.047a.963.963,0,0,1,1.025-.882h5.454a.964.964,0,0,1,1.026.882v.047l.01.046.716,3.226A.972.972,0,0,1,285.86,667.238Z" transform="translate(-265.792 -644.249)" fill="#b9aa79"/>
          <path id="Path_688" data-name="Path 688" d="M262.24,667.238h-6.908a.972.972,0,0,1-1.024-.841l.716-3.226.01-.046v-.047a.964.964,0,0,1,1.026-.882h5.454a.963.963,0,0,1,1.026.882v.047l.01.046.716,3.226A.973.973,0,0,1,262.24,667.238Z" transform="translate(-253.352 -644.249)" fill="#b9aa79"/>
          <path id="Path_689" data-name="Path 689" d="M309.48,667.238h-6.908a.972.972,0,0,1-1.024-.841l.716-3.226.01-.046v-.047a.964.964,0,0,1,1.026-.882h5.454a.963.963,0,0,1,1.026.882v.047l.01.046.716,3.226A.973.973,0,0,1,309.48,667.238Z" transform="translate(-278.234 -644.249)" fill="#b9aa79"/>
          <path id="Path_690" data-name="Path 690" d="M254.709,661.575c-.358,0-.661.23-.661.5v.1l-.022.1-.776,3.5a.64.64,0,0,0,.654.431h7.649a.641.641,0,0,0,.654-.431l-.776-3.5-.023-.1v-.1c0-.272-.3-.5-.661-.5h-6.039m0-.949h6.039a1.537,1.537,0,0,1,1.61,1.452l.806,3.629a1.537,1.537,0,0,1-1.611,1.452H253.9a1.537,1.537,0,0,1-1.61-1.452l.805-3.629A1.537,1.537,0,0,1,254.709,660.626Z" transform="translate(-252.293 -643.424)"/>
          <path id="Path_691" data-name="Path 691" d="M274.753,653.071h-3.679c-.293,0-.532-.151-.546-.34l.381-1.3.006-.018v-.019c0-.2.245-.357.546-.357h2.9c.3,0,.546.16.546.357v.019l.005.018.381,1.3C275.285,652.92,275.045,653.071,274.753,653.071Z" transform="translate(-261.892 -638.385)" fill="#fff"/>
          <path id="Path_692" data-name="Path 692" d="M286.563,638.744h-3.679c-.293,0-.532-.151-.546-.34l.381-1.3.006-.018v-.019c0-.2.245-.357.546-.357h2.9c.3,0,.546.16.546.357v.019l.005.018.381,1.3C287.095,638.593,286.855,638.744,286.563,638.744Z" transform="translate(-268.109 -630.859)" fill="#fff"/>
          <path id="Path_693" data-name="Path 693" d="M298.732,653.071h-3.679c-.293,0-.532-.151-.546-.34l.381-1.3.006-.018v-.019c0-.2.245-.357.546-.357h2.9c.3,0,.546.16.546.357v.019l.005.018.381,1.3C299.264,652.92,299.024,653.071,298.732,653.071Z" transform="translate(-274.515 -638.385)" fill="#fff"/>
          <path id="Path_694" data-name="Path 694" d="M310.7,667.4h-3.679c-.293,0-.532-.151-.546-.34l.381-1.3.006-.018v-.019c0-.2.245-.357.546-.357h2.9c.3,0,.546.16.546.357v.019l.005.018.381,1.3C311.228,667.247,310.988,667.4,310.7,667.4Z" transform="translate(-280.82 -645.911)" fill="#fff"/>
          <path id="Path_695" data-name="Path 695" d="M286.923,667.4h-3.679c-.293,0-.532-.151-.546-.34l.381-1.3.006-.018v-.019c0-.2.245-.357.546-.357h2.9c.3,0,.546.16.546.357v.019l.005.018.381,1.3C287.455,667.247,287.215,667.4,286.923,667.4Z" transform="translate(-268.299 -645.911)" fill="#fff"/>
          <path id="Path_696" data-name="Path 696" d="M262.943,667.4h-3.679c-.293,0-.532-.151-.546-.34l.381-1.3.006-.018v-.019c0-.2.245-.357.546-.357h2.9c.3,0,.546.16.546.357v.019l.005.018.381,1.3C263.475,667.247,263.235,667.4,262.943,667.4Z" transform="translate(-255.668 -645.911)" fill="#fff"/>
          <path id="Path_697" data-name="Path 697" d="M266.519,647.248c-.358,0-.661.23-.661.5v.1l-.022.1-.776,3.495a.64.64,0,0,0,.654.431h7.649a.64.64,0,0,0,.654-.431l-.776-3.495-.023-.1v-.1c0-.272-.3-.5-.661-.5h-6.039m0-.949h6.039a1.537,1.537,0,0,1,1.61,1.452l.806,3.629a1.537,1.537,0,0,1-1.611,1.451h-7.649a1.537,1.537,0,0,1-1.61-1.451l.805-3.629A1.537,1.537,0,0,1,266.519,646.3Z" transform="translate(-258.514 -635.898)"/>
          <path id="Path_698" data-name="Path 698" d="M278.329,632.921c-.358,0-.661.23-.661.5v.1l-.022.1-.776,3.495a.64.64,0,0,0,.654.431h7.649a.64.64,0,0,0,.654-.431l-.776-3.495-.023-.1v-.1c0-.272-.3-.5-.661-.5h-6.039m0-.949h6.039a1.537,1.537,0,0,1,1.61,1.452l.806,3.629a1.537,1.537,0,0,1-1.611,1.452h-7.649a1.537,1.537,0,0,1-1.61-1.452l.805-3.629A1.537,1.537,0,0,1,278.329,631.972Z" transform="translate(-264.734 -628.372)"/>
          <path id="Path_699" data-name="Path 699" d="M290.139,647.248c-.358,0-.661.23-.661.5v.1l-.022.1-.776,3.495a.64.64,0,0,0,.654.431h7.649a.641.641,0,0,0,.654-.431l-.776-3.495-.023-.1v-.1c0-.272-.3-.5-.661-.5h-6.039m0-.949h6.039a1.537,1.537,0,0,1,1.61,1.452l.806,3.629a1.537,1.537,0,0,1-1.611,1.451h-7.649a1.537,1.537,0,0,1-1.61-1.451l.805-3.629A1.537,1.537,0,0,1,290.139,646.3Z" transform="translate(-270.955 -635.898)"/>
          <path id="Path_700" data-name="Path 700" d="M278.329,661.575c-.358,0-.661.23-.661.5v.1l-.022.1-.776,3.5a.64.64,0,0,0,.654.431h7.649a.64.64,0,0,0,.654-.431l-.776-3.5-.023-.1v-.1c0-.272-.3-.5-.661-.5h-6.039m0-.949h6.039a1.537,1.537,0,0,1,1.61,1.452l.806,3.629a1.537,1.537,0,0,1-1.611,1.452h-7.649a1.537,1.537,0,0,1-1.61-1.452l.805-3.629A1.537,1.537,0,0,1,278.329,660.626Z" transform="translate(-264.734 -643.424)"/>
          <path id="Path_701" data-name="Path 701" d="M301.948,661.575c-.358,0-.661.23-.661.5v.1l-.022.1-.776,3.5a.64.64,0,0,0,.654.431h7.649a.641.641,0,0,0,.654-.431l-.776-3.5-.023-.1v-.1c0-.272-.3-.5-.661-.5h-6.039m0-.949h6.039a1.537,1.537,0,0,1,1.61,1.452l.806,3.629a1.537,1.537,0,0,1-1.611,1.452h-7.649a1.537,1.537,0,0,1-1.61-1.452l.805-3.629A1.537,1.537,0,0,1,301.948,660.626Z" transform="translate(-277.175 -643.424)"/>
          <line id="Line_5" data-name="Line 5" x1="1.759" y1="1.172" transform="translate(9.615 2.345)" fill="none" stroke="#0d0c09" stroke-linecap="round" stroke-width="1"/>
          <line id="Line_75-2" data-name="Line 75" y1="1.173" x2="0.782" transform="translate(27.254 8.381)" fill="none" stroke="#0d0c09" stroke-linecap="round" stroke-width="1"/>
          <line id="Line_6" data-name="Line 6" y1="2.345" transform="translate(12.533)" fill="none" stroke="#0d0c09" stroke-linecap="round" stroke-width="1"/>
          <line id="Line_76-2" data-name="Line 76" x2="1.564" transform="translate(28.036 11.281)" fill="none" stroke="#0d0c09" stroke-linecap="round" stroke-width="1"/>
          <line id="Line_7" data-name="Line 7" x1="2.931" transform="translate(7.865 5.257)" fill="none" stroke="#0d0c09" stroke-linecap="round" stroke-width="1"/>
          <line id="Line_77" data-name="Line 77" y1="1.955" transform="translate(25.176 7.212)" fill="none" stroke="#0d0c09" stroke-linecap="round" stroke-width="1"/>
        </g>
      </g>
    </g>
    <g id="Group_4806" data-name="Group 4806" transform="translate(432)">
      <rect id="Rectangle_792" data-name="Rectangle 792" width="36" height="36" fill="none"/>
      <g id="Group_4266" data-name="Group 4266" transform="translate(6.614 6.133)">
        <path id="Path_660" data-name="Path 660" d="M271.978,874.013c-.486-.035-.971-.076-1.458-.1a67.229,67.229,0,0,1-7.425-.838,1.8,1.8,0,0,1-1.565-1.838c0-.353,0-.708,0-1.061a1.626,1.626,0,0,1,.787-1.465c2.19-1.271,4.4-2.511,6.6-3.767.158-.09.236-.025.34.088A5.117,5.117,0,0,0,272.4,866.7a4.753,4.753,0,0,0,3.6-1.085,2.99,2.99,0,0,0,.577-.541c.16-.208.295-.186.487-.077,2.15,1.224,4.307,2.435,6.451,3.67a1.685,1.685,0,0,1,.842,1.5c.01.364,0,.728,0,1.091a1.8,1.8,0,0,1-1.535,1.808,67.436,67.436,0,0,1-8.567.9,3.363,3.363,0,0,0-.345.047Z" transform="translate(-261.527 -850.278)" fill="#b9aa79" stroke="#000" stroke-miterlimit="10" stroke-width="1"/>
        <path id="Path_661" data-name="Path 661" d="M274.984,838.023a7.827,7.827,0,0,1,.577-3.066,4.641,4.641,0,0,1,3.831-2.851,6.489,6.489,0,0,1,3.115.249,4.535,4.535,0,0,1,3.083,3.544,10.334,10.334,0,0,1-2.155,9.065,4.3,4.3,0,0,1-1.98,1.388,3.408,3.408,0,0,1-3.421-.788,8.149,8.149,0,0,1-2.356-3.574A11.684,11.684,0,0,1,274.984,838.023Z" transform="translate(-269.006 -832.024)" fill="none" stroke="#000" stroke-miterlimit="10" stroke-width="1"/>
        <path id="Path_662" data-name="Path 662" d="M277.958,841.684a7.431,7.431,0,0,1,.547-2.908,4.4,4.4,0,0,1,3.634-2.705,6.16,6.16,0,0,1,2.955.237,4.3,4.3,0,0,1,2.925,3.362,9.8,9.8,0,0,1-2.045,8.6,4.082,4.082,0,0,1-1.879,1.317,3.236,3.236,0,0,1-3.246-.748,7.733,7.733,0,0,1-2.235-3.391A11.078,11.078,0,0,1,277.958,841.684Z" transform="translate(-271.701 -835.621)" fill="#b9aa79"/>
        <path id="Path_702" data-name="Path 702" d="M277.958,839.9a5.106,5.106,0,0,1,.376-2,3.027,3.027,0,0,1,2.5-1.859,4.232,4.232,0,0,1,2.031.163,2.957,2.957,0,0,1,2.01,2.31,6.737,6.737,0,0,1-1.405,5.91,2.8,2.8,0,0,1-1.291.9,2.223,2.223,0,0,1-2.231-.514,5.313,5.313,0,0,1-1.536-2.33A7.611,7.611,0,0,1,277.958,839.9Z" transform="translate(-270.088 -833.468)" fill="#fff"/>
      </g>
    </g>
    <g id="Group_3751" data-name="Group 3751" transform="translate(417 -76)">
      <path id="ic_account_circle_24px-2" data-name="ic_account_circle_24px" d="M20,2A18,18,0,1,0,38,20,18.007,18.007,0,0,0,20,2Z" transform="translate(48.999 74)" fill="#fff"/>
      <g id="Mask_Group_6" data-name="Mask Group 6" transform="translate(50.999 76)" clip-path="url(#clip-path)">
        <path id="ic_account_circle_24px-3" data-name="ic_account_circle_24px" d="M22.294,9.1a6.747,6.747,0,1,1-6.747,6.747A6.738,6.738,0,0,1,22.294,9.1Zm0,30.129c-4,0-13.587-1.516-13.494-7.666.067-4.476,9-6.927,13.494-6.927,4.476,0,13.427,2.451,13.494,6.927C35.886,38.031,26.29,39.229,22.294,39.229Z" transform="translate(-4.259 -1.688)" fill="#b0a16e"/>
      </g>
    </g>
    <g id="Group_5321" data-name="Group 5321" transform="translate(504 -207)">
      <rect id="Rectangle_596" data-name="Rectangle 596" width="36" height="36" transform="translate(0 207)" fill="#fff" opacity="0"/>
      <g id="noun_receipt_561599_1_" data-name="noun_receipt_561599 (1)" transform="translate(4.5 207)">
        <path id="Path_1" data-name="Path 1" d="M10.981,2.946V36.2H28.828V28.593H36.5V2.946Z" transform="translate(-9.995 -1.729)" fill="#b0a16e"/>
        <g id="Group_1" data-name="Group 1" transform="translate(0 0)">
          <path id="Path_2" data-name="Path 2" d="M24.494,18.878C24.594,18.878,24.444,18.828,24.494,18.878Z" transform="translate(-16.778 -9.721)"/>
          <path id="Path_3" data-name="Path 3" d="M24.065,22.8C23.965,22.8,24.115,22.85,24.065,22.8Z" transform="translate(-16.55 -11.702)"/>
          <path id="Path_4" data-name="Path 4" d="M35.375.5H10a1,1,0,0,0-1,1V35.335a1,1,0,0,0,1,1H27.51a.982.982,0,0,0,.7-.3l7.863-7.862a.982.982,0,0,0,.3-.7V1.5a1,1,0,0,0-1-1ZM28.507,32.946V28.467h4.479Zm5.872-6.472H27.51a1,1,0,0,0-1,1v6.87H10.991V2.491H34.38Z" transform="translate(-9 -0.5)"/>
          <path id="Path_5" data-name="Path 5" d="M35.417,10.791h8.069a1,1,0,0,0,0-1.991H35.417a1,1,0,0,0,0,1.991Z" transform="translate(-20.964 -4.67)"/>
          <path id="Path_6" data-name="Path 6" d="M35.417,21.091h8.069a1,1,0,0,0,0-1.991H35.417a1,1,0,0,0,0,1.991Z" transform="translate(-20.964 -9.844)"/>
          <path id="Path_7" data-name="Path 7" d="M35.417,31.391h8.069a1,1,0,0,0,0-1.991H35.417a1,1,0,0,0,0,1.991Z" transform="translate(-20.964 -15.018)"/>
          <path id="Path_8" data-name="Path 8" d="M17.3,41.591H35.111a1,1,0,0,0,0-1.991H17.3a1,1,0,0,0,0,1.991Z" transform="translate(-12.667 -20.142)"/>
          <path id="Path_9" data-name="Path 9" d="M17.3,51.891h8.759a1,1,0,1,0,0-1.991H17.3a1,1,0,1,0,0,1.991Z" transform="translate(-12.667 -25.317)"/>
          <path id="Path_10" data-name="Path 10" d="M17.3,62.191h8.759a1,1,0,1,0,0-1.991H17.3a1,1,0,1,0,0,1.991Z" transform="translate(-12.667 -30.491)"/>
        </g>
        <path id="Path_2751" data-name="Path 2751" d="M83.845,146.013a8.2,8.2,0,0,0-.258-1.026,7.8,7.8,0,0,0-1.593-2.875,4.617,4.617,0,0,0-.631-.571,3.839,3.839,0,0,0-.393-.253c-.03-.017-.042-.031-.02-.067.065-.108.125-.219.187-.329.241-.427.491-.849.729-1.278h0l-.081.163c.026-.048.133-.259.159-.307a.477.477,0,0,0,.083-.3c-.079-.039-.159-.075-.24-.108h0a6.707,6.707,0,0,0-4.166-.027.348.348,0,0,0-.02.414q.488.861.978,1.72c.057.1.059.1-.043.157a3.442,3.442,0,0,0-.7.512,5.776,5.776,0,0,0-.828.988,8.517,8.517,0,0,0-1.074,2.268,8.394,8.394,0,0,0-.282,1.278,5.1,5.1,0,0,0-.039.74,3.677,3.677,0,0,0,.1.919,2.153,2.153,0,0,0,1.06,1.414,4.5,4.5,0,0,0,1.748.47,5.537,5.537,0,0,0,.6.026c.074.013.15-.006.225.01h.849c.02-.012.042,0,.063-.006a1.839,1.839,0,0,0,.186,0,6.891,6.891,0,0,0,.879-.059,5.776,5.776,0,0,0,.827-.168,2.341,2.341,0,0,0,1.783-2.128,4.472,4.472,0,0,0,.013-.477A5.321,5.321,0,0,0,83.845,146.013Zm-5.459-6.236-.209-.395v-.033l.211-.034h0l.224-.031c.189-.025.378-.047.564-.082a5.878,5.878,0,0,1,2.216.225l-.1.177-.818,1.519a2.531,2.531,0,0,0-1.454,0Zm4.9,8.331a1.775,1.775,0,0,1-1.055,1.036,4,4,0,0,1-.949.227,10.232,10.232,0,0,1-1.168.068c-.389.005-.778.006-1.167-.011a5.233,5.233,0,0,1-1.6-.271,1.847,1.847,0,0,1-.983-.816,1.828,1.828,0,0,1-.215-.648,4.172,4.172,0,0,1-.033-.839,5.686,5.686,0,0,1,.129-.974,8.113,8.113,0,0,1,.844-2.238,6.543,6.543,0,0,1,.681-1,3.767,3.767,0,0,1,1.02-.877h0a1.855,1.855,0,0,1,1.8-.09c.022.01.042.021.061.033a3.637,3.637,0,0,1,.973.766,6.518,6.518,0,0,1,.951,1.412,8.062,8.062,0,0,1,.666,1.773q.088.36.14.727a5.118,5.118,0,0,1,.051.715A2.731,2.731,0,0,1,83.29,148.108Z" transform="translate(-72.159 -133.811)" fill="#040505" stroke="#000" stroke-width="0.7"/>
      </g>
    </g>
    <g id="Group_7712" data-name="Group 7712" transform="translate(540 -207)">
      <rect id="Rectangle_596-2" data-name="Rectangle 596" width="36" height="36" transform="translate(0 207)" fill="#fff" opacity="0"/>
    </g>
    <g id="Group_7739" data-name="Group 7739" transform="translate(576 -207)">
      <rect id="Rectangle_596-3" data-name="Rectangle 596" width="36" height="36" transform="translate(0 207)" fill="#fff" opacity="0"/>
    </g>
    <g id="Group_7711" data-name="Group 7711" transform="translate(354 -63.405)">
      <g id="Group_6691" data-name="Group 6691" transform="translate(189 63.405)">
        <path id="Subtraction_7" data-name="Subtraction 7" d="M12.96,34.2H0V0H26.7V16.548a11.663,11.663,0,0,0-13.333,2.091,11.164,11.164,0,0,0-.41,15.562Z" fill="#b0a16e"/>
        <g id="Group_4085" data-name="Group 4085" transform="translate(2.77 3.048)">
          <path id="Path_631" data-name="Path 631" d="M24.49,18.879c.1,0-.052-.052,0,0Z" transform="translate(-20.22 -13.62)"/>
          <path id="Path_632" data-name="Path 632" d="M24.066,22.8c-.1,0,.052.052,0,0Z" transform="translate(-20.005 -15.661)"/>
          <path id="Path_635" data-name="Path 635" d="M35.541,10.883H53.706a1.041,1.041,0,1,0,0-2.083H35.541a1.041,1.041,0,1,0,0,2.083Z" transform="translate(-34.27 -8.8)"/>
          <path id="Path_636" data-name="Path 636" d="M35.541,21.183H53.706a1.041,1.041,0,1,0,0-2.083H35.541a1.041,1.041,0,0,0,0,2.083Z" transform="translate(-34.27 -13.856)"/>
          <path id="Path_637" data-name="Path 637" d="M35.541,31.483h9.164a1.041,1.041,0,0,0,0-2.083H35.541a1.041,1.041,0,0,0,0,2.083Z" transform="translate(-34.27 -18.912)"/>
          <path id="Path_638" data-name="Path 638" d="M16.645,41.683h6.178c.19,0,.345-.469.345-1.041s-.155-1.041-.345-1.041H16.645c-.19,0-.345.469-.345,1.041S16.455,41.683,16.645,41.683Z" transform="translate(-16.07 -23.92)"/>
          <path id="Path_639" data-name="Path 639" d="M16.7,51.983h3.509c.219,0,.4-.469.4-1.041s-.179-1.041-.4-1.041H16.7c-.219,0-.4.469-.4,1.041S16.479,51.983,16.7,51.983Z" transform="translate(-16.3 -28.976)"/>
          <path id="Path_640" data-name="Path 640" d="M16.888,62.283h5.177c.324,0,.588-.469.588-1.041s-.265-1.041-.588-1.041H16.888c-.324,0-.588.469-.588,1.041S16.565,62.283,16.888,62.283Z" transform="translate(-16.3 -34.032)"/>
        </g>
      </g>
      <circle id="Ellipse_225" data-name="Ellipse 225" cx="9.5" cy="9.5" r="9.5" transform="translate(201 80.405)"/>
      <path id="Path_3159" data-name="Path 3159" d="M-2696.868,1637.684l3.038,2.413,5.681-7.576" transform="translate(2903 -1546.474)" fill="none" stroke="#fff" stroke-linecap="round" stroke-width="2"/>
    </g>
    <g id="Group_7741" data-name="Group 7741" transform="translate(-3.342)">
      <g id="Rectangle_929" data-name="Rectangle 929" transform="translate(583.167 20.663)" fill="#b9aa79" stroke="#000" stroke-width="2">
        <rect width="7.668" height="15.337" stroke="none"/>
        <rect x="1" y="1" width="5.668" height="13.337" fill="none"/>
      </g>
      <g id="Rectangle_930" data-name="Rectangle 930" transform="translate(594.03 14.912)" fill="#b9aa79" stroke="#000" stroke-width="2">
        <rect width="7.668" height="21.088" stroke="none"/>
        <rect x="1" y="1" width="5.668" height="19.088" fill="none"/>
      </g>
      <g id="Rectangle_931" data-name="Rectangle 931" transform="translate(604.894 10.439)" fill="#b9aa79" stroke="#000" stroke-width="2">
        <rect width="7.668" height="25.561" stroke="none"/>
        <rect x="1" y="1" width="5.668" height="23.561" fill="none"/>
      </g>
      <g id="Group_7740" data-name="Group 7740">
        <path id="Path_841" data-name="Path 841" d="M-21032.293,13673.668l13.375-9.275,2.395,3.5,10.373-7.2" transform="translate(21614.635 -13658.758)" fill="none" stroke="#000" stroke-width="2"/>
        <g id="Polygon_1" data-name="Polygon 1" transform="translate(608.392 -3.58) rotate(56)" fill="#b9aa79">
          <path d="M 7.272101402282715 7.307295322418213 L 1.674213290214539 7.307295322418213 L 4.473157405853271 2.109254598617554 L 7.272101402282715 7.307295322418213 Z" stroke="none"/>
          <path d="M 4.473157405853271 4.218513965606689 L 3.348429203033447 6.307295799255371 L 5.597885608673096 6.307295799255371 L 4.473157405853271 4.218513965606689 M 4.473157405853271 -4.76837158203125e-06 L 8.946317672729492 8.307295799255371 L -2.86102294921875e-06 8.307295799255371 L 4.473157405853271 -4.76837158203125e-06 Z" stroke="none"/>
        </g>
      </g>
    </g>
  </g>
</svg>
