<svg xmlns="http://www.w3.org/2000/svg" xmlns:xlink="http://www.w3.org/1999/xlink" width="45" height="8" viewBox="0 0 45 8">
  <defs>
    <clipPath id="clip-icons_8x8">
      <rect width="45" height="8"/>
    </clipPath>
  </defs>
  <g id="icons_8x8" clip-path="url(#clip-icons_8x8)">
    <g id="Group_3627" data-name="Group 3627" transform="translate(15039 21975)">
      <g id="Group_3462" data-name="Group 3462" transform="translate(-15025.997 -21975)">
        <rect id="Rectangle_216" data-name="Rectangle 216" width="7.997" height="7.997" fill="none"/>
        <g id="Group_2974" data-name="Group 2974" transform="translate(0.134 0.393)">
          <path id="Path_439" data-name="Path 439" d="M709.51,481h4.164a.611.611,0,0,1,.57.407l.818,2.231s.181.591-.411.591c-.52,0-.794-.486-1.163-.489s-.5.462-.906.464-.681-.429-1.031-.429-.577.4-1.031.4-.469-.433-.859-.433-.641.484-1.228.484-.383-.588-.383-.588l.9-2.25A.61.61,0,0,1,709.51,481Z" transform="translate(-707.688 -480.67)" fill="#b0a16e"/>
          <path id="Path_440" data-name="Path 440" d="M712.709,480.644l-.006-.016-.826-2.065a.914.914,0,0,0-.855-.563h-4.2a.921.921,0,0,0-.841.544l-.9,2.079-.005.014a.785.785,0,0,0,.056.68.7.7,0,0,0,.614.274,1.386,1.386,0,0,0,.42-.065v2.8s0,0,0,.005,0,0,0,.006a.912.912,0,0,0,.936.874h3.654a.912.912,0,0,0,.912-.875s0-.007,0-.011V481.54a1.2,1.2,0,0,0,.337.049.719.719,0,0,0,.624-.273A.794.794,0,0,0,712.709,480.644Zm-1.65,3.669a.3.3,0,0,1-.3.285h-3.669a.3.3,0,0,1-.311-.287v-3.1a.448.448,0,0,1,.205-.073c.065,0,.092.019.19.109a.928.928,0,0,0,.675.291,1.4,1.4,0,0,0,.744-.247.664.664,0,0,1,.293-.125.793.793,0,0,1,.322.143,1.364,1.364,0,0,0,.714.253h0a1.023,1.023,0,0,0,.67-.292c.119-.1.175-.133.239-.137a.513.513,0,0,1,.227.092Zm1.077-3.353a.236.236,0,0,1-.13.022.985.985,0,0,1-.527-.208,1.221,1.221,0,0,0-.642-.244h-.006a.961.961,0,0,0-.626.276c-.122.1-.19.152-.284.153h0a.849.849,0,0,1-.4-.165,1.226,1.226,0,0,0-.638-.231,1.158,1.158,0,0,0-.6.21.847.847,0,0,1-.433.161c-.118,0-.164-.041-.262-.132a.844.844,0,0,0-.6-.269,1.226,1.226,0,0,0-.648.235,1.068,1.068,0,0,1-.588.213.31.31,0,0,1-.113-.015.28.28,0,0,1,.012-.113l.9-2.065a.309.309,0,0,1,.282-.181h4.206a.306.306,0,0,1,.283.185l.819,2.048A.249.249,0,0,1,712.136,480.959Z" transform="translate(-705.022 -477.999)"/>
        </g>
      </g>
      <g id="Group_3477" data-name="Group 3477" transform="translate(-15039 -21975)">
        <rect id="Rectangle_216-2" data-name="Rectangle 216" width="7.997" height="7.997" fill="none"/>
        <g id="Group_2974-2" data-name="Group 2974" transform="translate(0.134 0.393)">
          <path id="Path_439-2" data-name="Path 439" d="M709.51,481h4.164a.611.611,0,0,1,.57.407l.818,2.231s.181.591-.411.591c-.52,0-.794-.486-1.163-.489s-.5.462-.906.464-.681-.429-1.031-.429-.577.4-1.031.4-.469-.433-.859-.433-.641.484-1.228.484-.383-.588-.383-.588l.9-2.25A.61.61,0,0,1,709.51,481Z" transform="translate(-707.688 -480.67)" fill="#b0a16e"/>
          <path id="Path_440-2" data-name="Path 440" d="M712.709,480.644l-.006-.016-.826-2.065a.914.914,0,0,0-.855-.563h-4.2a.921.921,0,0,0-.841.544l-.9,2.079-.005.014a.785.785,0,0,0,.056.68.7.7,0,0,0,.614.274,1.386,1.386,0,0,0,.42-.065v2.8s0,0,0,.005,0,0,0,.006a.912.912,0,0,0,.936.874h3.654a.912.912,0,0,0,.912-.875s0-.007,0-.011V481.54a1.2,1.2,0,0,0,.337.049.719.719,0,0,0,.624-.273A.794.794,0,0,0,712.709,480.644Zm-1.65,3.669a.3.3,0,0,1-.3.285h-3.669a.3.3,0,0,1-.311-.287v-3.1a.448.448,0,0,1,.205-.073c.065,0,.092.019.19.109a.928.928,0,0,0,.675.291,1.4,1.4,0,0,0,.744-.247.664.664,0,0,1,.293-.125.793.793,0,0,1,.322.143,1.364,1.364,0,0,0,.714.253h0a1.023,1.023,0,0,0,.67-.292c.119-.1.175-.133.239-.137a.513.513,0,0,1,.227.092Zm1.077-3.353a.236.236,0,0,1-.13.022.985.985,0,0,1-.527-.208,1.221,1.221,0,0,0-.642-.244h-.006a.961.961,0,0,0-.626.276c-.122.1-.19.152-.284.153h0a.849.849,0,0,1-.4-.165,1.226,1.226,0,0,0-.638-.231,1.158,1.158,0,0,0-.6.21.847.847,0,0,1-.433.161c-.118,0-.164-.041-.262-.132a.844.844,0,0,0-.6-.269,1.226,1.226,0,0,0-.648.235,1.068,1.068,0,0,1-.588.213.31.31,0,0,1-.113-.015.28.28,0,0,1,.012-.113l.9-2.065a.309.309,0,0,1,.282-.181h4.206a.306.306,0,0,1,.283.185l.819,2.048A.249.249,0,0,1,712.136,480.959Z" transform="translate(-705.022 -477.999)"/>
        </g>
      </g>
      <g id="noun_Arrow_1953010" transform="translate(-15029.834 -21971.736)">
        <g id="Group_256" data-name="Group 256" transform="translate(0 0)">
          <path id="Path_61" data-name="Path 61" d="M26.49,29.46a.108.108,0,0,0-.158,0l-.24.24a.108.108,0,0,0,0,.158l.332.332H25.012a.113.113,0,0,0-.112.112v.343a.113.113,0,0,0,.112.112h1.406l-.327.332a.108.108,0,0,0,0,.158l.24.24a.108.108,0,0,0,.158,0l.935-.935a.108.108,0,0,0,0-.158Z" transform="translate(-24.9 -29.425)" fill="#050505"/>
        </g>
      </g>
    </g>
    <g id="Group_3626" data-name="Group 3626" transform="translate(15081 21926)">
      <g id="Group_3459" data-name="Group 3459" transform="translate(-15060 -21926)">
        <rect id="Rectangle_506" data-name="Rectangle 506" width="8" height="8" fill="none"/>
        <g id="Group_3603" data-name="Group 3603" transform="translate(-0.001 0.717)">
          <g id="noun_Arrow_1953010-2" data-name="noun Arrow 1953010" transform="translate(2.842 3.856)">
            <g id="Group_256-2" data-name="Group 256">
              <path id="Path_61-2" data-name="Path 61" d="M-907.405,1210.345a.117.117,0,0,0-.006.165l.006.006.259.259a.117.117,0,0,0,.165.006l.006-.006.359-.359v1.526a.125.125,0,0,0,.122.122h.371a.123.123,0,0,0,.12-.122v-1.52l.359.354a.117.117,0,0,0,.165.006l.006-.006.259-.259a.117.117,0,0,0,.006-.165l-.006-.006-1.014-1.014a.117.117,0,0,0-.165-.006l-.006.006Z" transform="translate(907.443 -1209.293)" fill="#b0a16e"/>
            </g>
          </g>
          <g id="noun_Arrow_1953010-2-2" data-name="noun Arrow 1953010-2" transform="translate(0 0.002)">
            <g id="Group_256-2-2" data-name="Group 256-2">
              <path id="Path_61-2-2" data-name="Path 61-2" d="M-909.434,1208.719a.173.173,0,0,0,.114.216l.012,0,.523.146a.171.171,0,0,0,.214-.114l0-.012.194-.72,1.116,1.933a.18.18,0,0,0,.245.065l.471-.271a.182.182,0,0,0,.065-.245l-1.116-1.931.72.191a.171.171,0,0,0,.216-.112l0-.016.139-.52a.173.173,0,0,0-.115-.216l-.012,0-2.034-.546a.171.171,0,0,0-.214.115l0,.011Z" transform="translate(909.441 -1206.56)" fill="#050505"/>
            </g>
          </g>
          <g id="noun_Arrow_1953010-3" data-name="noun Arrow 1953010-3" transform="translate(4.963)">
            <g id="Group_256-3" data-name="Group 256-3">
              <path id="Path_61-3" data-name="Path 61-3" d="M-905.749,1207.109a.173.173,0,0,0-.129.207l0,.011.135.526a.173.173,0,0,0,.207.129l.01,0,.721-.193-1.117,1.933a.181.181,0,0,0,.067.245l.471.271a.178.178,0,0,0,.243-.065l1.116-1.932.194.719a.172.172,0,0,0,.2.132l.016,0,.52-.139a.173.173,0,0,0,.129-.207l0-.011-.543-2.034a.172.172,0,0,0-.206-.13l-.012,0Z" transform="translate(905.942 -1206.558)" fill="#050505"/>
            </g>
          </g>
        </g>
      </g>
    </g>
    <g id="Group_3663" data-name="Group 3663">
      <g id="Group_3662" data-name="Group 3662">
        <g id="Group_3664" data-name="Group 3664">
          <rect id="Rectangle_578" data-name="Rectangle 578" width="7.997" height="7.997" transform="translate(37.003)" fill="none"/>
          <path id="Path_574" data-name="Path 574" d="M-547.507,482.416l-1.768-1.768,1.759-1.759a.75.75,0,0,0,0-1.062.751.751,0,0,0-1.062,0l-1.759,1.759-1.768-1.768a.751.751,0,0,0-1.062,0,.75.75,0,0,0,0,1.061v0l1.768,1.767-1.775,1.775a.751.751,0,0,0,0,1.062.751.751,0,0,0,1.062,0l1.775-1.775,1.768,1.768a.749.749,0,0,0,1.06,0h0A.751.751,0,0,0-547.507,482.416Z" transform="translate(591.394 -476.598)"/>
        </g>
      </g>
    </g>
    <g id="Group_3661" data-name="Group 3661">
      <path id="Path_573" data-name="Path 573" d="M-543.051,494.733h-2.5v-2.488a.751.751,0,0,0-.751-.751.751.751,0,0,0-.751.751v2.488h-2.5a.751.751,0,0,0-.751.751.75.75,0,0,0,.751.751h2.5v2.51a.751.751,0,0,0,.751.751.751.751,0,0,0,.751-.751v-2.51h2.5a.75.75,0,0,0,.751-.751A.751.751,0,0,0-543.051,494.733Z" transform="translate(579.3 -491.494)"/>
      <rect id="Rectangle_579" data-name="Rectangle 579" width="7.997" height="7.997" transform="translate(29.003)" fill="none"/>
    </g>
  </g>
</svg>
