<svg xmlns="http://www.w3.org/2000/svg" xmlns:xlink="http://www.w3.org/1999/xlink" width="873" height="32" viewBox="0 0 873 32">
  <defs>
    <clipPath id="clip-_32x32_icons">
      <rect width="873" height="32"/>
    </clipPath>
  </defs>
  <g id="_32x32_icons" data-name="32x32 icons" clip-path="url(#clip-_32x32_icons)">
    <g id="Group_3657" data-name="Group 3657" transform="translate(-146 -247)">
      <rect id="Rectangle_575" data-name="Rectangle 575" width="90" height="32" transform="translate(178 247)" fill="none"/>
      <path id="Path_568" data-name="Path 568" d="M-390.589,326.565a1.2,1.2,0,0,0,0,1.7,1.2,1.2,0,0,0,.848.352,1.2,1.2,0,0,0,.848-.352l3.283-3.283a1.2,1.2,0,0,0,.352-.848,1.2,1.2,0,0,0-.352-.849L-388.892,320a1.2,1.2,0,0,0-1.7,0,1.2,1.2,0,0,0,0,1.7l1.234,1.234h-5.895a1.2,1.2,0,0,0-1.2,1.2,1.2,1.2,0,0,0,1.2,1.2h5.895Z" transform="translate(613.848 -62.647)" fill="#b0a16e" stroke="rgba(0,0,0,0)" stroke-width="1"/>
      <g id="Group_3656" data-name="Group 3656" transform="translate(0 -2)">
        <g id="Group_3651" data-name="Group 3651" transform="translate(537.002 -307.856)">
          <path id="Path_567" data-name="Path 567" d="M-332.3,584.793h-21.456a4.245,4.245,0,0,1-4.24-4.24V562.1a1.241,1.241,0,0,1,1.24-1.241,1.241,1.241,0,0,1,1.24,1.241v18.456a1.762,1.762,0,0,0,1.76,1.76H-332.3a1.762,1.762,0,0,0,1.76-1.76V562.1a1.241,1.241,0,0,1,1.24-1.241,1.241,1.241,0,0,1,1.24,1.241v18.456A4.245,4.245,0,0,1-332.3,584.793Z"/>
        </g>
        <g id="Group_3653" data-name="Group 3653" transform="translate(2.633 0.969)">
          <ellipse id="Ellipse_71" data-name="Ellipse 71" cx="1.924" cy="1.924" rx="1.924" ry="1.924" transform="translate(189.498 259.031)" fill="#b0a16e"/>
          <ellipse id="Ellipse_72" data-name="Ellipse 72" cx="1.924" cy="1.924" rx="1.924" ry="1.924" transform="translate(192.064 265.445)" fill="#b0a16e"/>
          <ellipse id="Ellipse_73" data-name="Ellipse 73" cx="1.924" cy="1.924" rx="1.924" ry="1.924" transform="translate(184.367 259.031)" fill="#b0a16e"/>
          <ellipse id="Ellipse_74" data-name="Ellipse 74" cx="1.924" cy="1.924" rx="1.924" ry="1.924" transform="translate(186.932 265.445)" fill="#b0a16e"/>
          <ellipse id="Ellipse_75" data-name="Ellipse 75" cx="1.924" cy="1.924" rx="1.924" ry="1.924" transform="translate(194.629 259.031)" fill="#b0a16e"/>
        </g>
      </g>
      <g id="Group_3655" data-name="Group 3655" transform="translate(0 -2)">
        <g id="Group_3652" data-name="Group 3652" transform="translate(595.002 -307.856)">
          <path id="Path_567-2" data-name="Path 567" d="M-332.3,584.793h-21.456a4.245,4.245,0,0,1-4.24-4.24V562.1a1.241,1.241,0,0,1,1.24-1.241,1.241,1.241,0,0,1,1.24,1.241v18.456a1.762,1.762,0,0,0,1.76,1.76H-332.3a1.762,1.762,0,0,0,1.76-1.76V562.1a1.241,1.241,0,0,1,1.24-1.241,1.241,1.241,0,0,1,1.24,1.241v18.456A4.245,4.245,0,0,1-332.3,584.793Z"/>
        </g>
        <g id="Group_3654" data-name="Group 3654" transform="translate(60.633 0.969)">
          <ellipse id="Ellipse_71-2" data-name="Ellipse 71" cx="1.924" cy="1.924" rx="1.924" ry="1.924" transform="translate(189.498 259.031)" fill="#b0a16e"/>
          <ellipse id="Ellipse_72-2" data-name="Ellipse 72" cx="1.924" cy="1.924" rx="1.924" ry="1.924" transform="translate(192.064 265.445)" fill="#b0a16e"/>
          <ellipse id="Ellipse_73-2" data-name="Ellipse 73" cx="1.924" cy="1.924" rx="1.924" ry="1.924" transform="translate(184.367 259.031)" fill="#b0a16e"/>
          <ellipse id="Ellipse_74-2" data-name="Ellipse 74" cx="1.924" cy="1.924" rx="1.924" ry="1.924" transform="translate(186.932 265.445)" fill="#b0a16e"/>
          <ellipse id="Ellipse_75-2" data-name="Ellipse 75" cx="1.924" cy="1.924" rx="1.924" ry="1.924" transform="translate(194.629 259.031)" fill="#b0a16e"/>
        </g>
      </g>
    </g>
    <g id="Group_3658" data-name="Group 3658" transform="translate(-56 -247)">
      <rect id="Rectangle_575-2" data-name="Rectangle 575" width="90" height="32" transform="translate(178 247)" fill="none"/>
      <path id="Path_568-2" data-name="Path 568" d="M-390.589,326.565a1.2,1.2,0,0,0,0,1.7,1.2,1.2,0,0,0,.848.352,1.2,1.2,0,0,0,.848-.352l3.283-3.283a1.2,1.2,0,0,0,.352-.848,1.2,1.2,0,0,0-.352-.849L-388.892,320a1.2,1.2,0,0,0-1.7,0,1.2,1.2,0,0,0,0,1.7l1.234,1.234h-5.895a1.2,1.2,0,0,0-1.2,1.2,1.2,1.2,0,0,0,1.2,1.2h5.895Z" transform="translate(613.848 -62.647)" fill="#fff" stroke="rgba(0,0,0,0)" stroke-width="1"/>
      <g id="Group_3656-2" data-name="Group 3656" transform="translate(0 -2)">
        <g id="Group_3651-2" data-name="Group 3651" transform="translate(537.002 -307.856)">
          <path id="Path_567-3" data-name="Path 567" d="M-332.3,584.793h-21.456a4.245,4.245,0,0,1-4.24-4.24V562.1a1.241,1.241,0,0,1,1.24-1.241,1.241,1.241,0,0,1,1.24,1.241v18.456a1.762,1.762,0,0,0,1.76,1.76H-332.3a1.762,1.762,0,0,0,1.76-1.76V562.1a1.241,1.241,0,0,1,1.24-1.241,1.241,1.241,0,0,1,1.24,1.241v18.456A4.245,4.245,0,0,1-332.3,584.793Z" fill="#fff"/>
        </g>
        <g id="Group_3653-2" data-name="Group 3653" transform="translate(2.633 0.969)">
          <ellipse id="Ellipse_71-3" data-name="Ellipse 71" cx="1.924" cy="1.924" rx="1.924" ry="1.924" transform="translate(189.498 259.031)" fill="#fff"/>
          <ellipse id="Ellipse_72-3" data-name="Ellipse 72" cx="1.924" cy="1.924" rx="1.924" ry="1.924" transform="translate(192.064 265.445)" fill="#fff"/>
          <ellipse id="Ellipse_73-3" data-name="Ellipse 73" cx="1.924" cy="1.924" rx="1.924" ry="1.924" transform="translate(184.367 259.031)" fill="#fff"/>
          <ellipse id="Ellipse_74-3" data-name="Ellipse 74" cx="1.924" cy="1.924" rx="1.924" ry="1.924" transform="translate(186.932 265.445)" fill="#fff"/>
          <ellipse id="Ellipse_75-3" data-name="Ellipse 75" cx="1.924" cy="1.924" rx="1.924" ry="1.924" transform="translate(194.629 259.031)" fill="#fff"/>
        </g>
      </g>
      <g id="Group_3655-2" data-name="Group 3655" transform="translate(0 -2)">
        <g id="Group_3652-2" data-name="Group 3652" transform="translate(595.002 -307.856)">
          <path id="Path_567-4" data-name="Path 567" d="M-332.3,584.793h-21.456a4.245,4.245,0,0,1-4.24-4.24V562.1a1.241,1.241,0,0,1,1.24-1.241,1.241,1.241,0,0,1,1.24,1.241v18.456a1.762,1.762,0,0,0,1.76,1.76H-332.3a1.762,1.762,0,0,0,1.76-1.76V562.1a1.241,1.241,0,0,1,1.24-1.241,1.241,1.241,0,0,1,1.24,1.241v18.456A4.245,4.245,0,0,1-332.3,584.793Z" fill="#fff"/>
        </g>
        <g id="Group_3654-2" data-name="Group 3654" transform="translate(60.633 0.969)">
          <ellipse id="Ellipse_71-4" data-name="Ellipse 71" cx="1.924" cy="1.924" rx="1.924" ry="1.924" transform="translate(189.498 259.031)" fill="#fff"/>
          <ellipse id="Ellipse_72-4" data-name="Ellipse 72" cx="1.924" cy="1.924" rx="1.924" ry="1.924" transform="translate(192.064 265.445)" fill="#fff"/>
          <ellipse id="Ellipse_73-4" data-name="Ellipse 73" cx="1.924" cy="1.924" rx="1.924" ry="1.924" transform="translate(184.367 259.031)" fill="#fff"/>
          <ellipse id="Ellipse_74-4" data-name="Ellipse 74" cx="1.924" cy="1.924" rx="1.924" ry="1.924" transform="translate(186.932 265.445)" fill="#fff"/>
          <ellipse id="Ellipse_75-4" data-name="Ellipse 75" cx="1.924" cy="1.924" rx="1.924" ry="1.924" transform="translate(194.629 259.031)" fill="#fff"/>
        </g>
      </g>
    </g>
    <g id="Group_3648" data-name="Group 3648" transform="translate(177 -37)">
      <g id="Group_3430" data-name="Group 3430" transform="translate(-93 -248)">
        <rect id="Rectangle_215" data-name="Rectangle 215" width="32" height="32" transform="translate(128 285)" fill="none"/>
        <g id="Group_2185" data-name="Group 2185" transform="translate(129.002 286.775)">
          <g id="Group_3431" data-name="Group 3431" transform="translate(-34.012 41.167)">
            <path id="Path_519" data-name="Path 519" d="M-3.6,0H14.8l4,10H-8Z" transform="translate(43.61 -39.167)" fill="#b0a16e"/>
            <g id="Group_3431-2" data-name="Group 3431" transform="translate(302.443 -324.938)">
              <path id="Path_518" data-name="Path 518" d="M-238.59,294.4c-.007-.021-.014-.042-.022-.062l-3.186-8.092A3.629,3.629,0,0,0-245.174,284l-16.208,0h0a3.6,3.6,0,0,0-3.34,2.155l-3.487,8.164c-.007.017-.014.034-.02.052a3.053,3.053,0,0,0,.255,2.687,2.775,2.775,0,0,0,2.4,1.04,5.38,5.38,0,0,0,1.786-.305v11.029a3.546,3.546,0,0,0,3.605,3.473l13.755,0h0a3.659,3.659,0,0,0,2.553-1.019,3.393,3.393,0,0,0,1.058-2.46V297.866a4.722,4.722,0,0,0,1.448.228,2.862,2.862,0,0,0,2.432-1.036A3.08,3.08,0,0,0-238.59,294.4Zm-6.7,14.417a1.068,1.068,0,0,1-.333.774,1.151,1.151,0,0,1-.8.321h0l-13.755,0a1.112,1.112,0,0,1-1.131-1.089V296.487a1.24,1.24,0,0,1,.517-.151c.205,0,.287.05.674.409a3.634,3.634,0,0,0,2.671,1.163,5.426,5.426,0,0,0,2.932-.982,2.619,2.619,0,0,1,1.081-.479,3.034,3.034,0,0,1,1.191.549A5.361,5.361,0,0,0-249.421,298a3.994,3.994,0,0,0,2.648-1.164c.435-.363.644-.534.864-.52a1.474,1.474,0,0,1,.624.231c0,.027-.008.052-.008.079Zm4.369-13.176a.894.894,0,0,1-.445.07,3.711,3.711,0,0,1-1.983-.8,4.757,4.757,0,0,0-2.534-.974h-.028a3.757,3.757,0,0,0-2.479,1.1c-.494.412-.726.58-1.037.581h0a3.207,3.207,0,0,1-1.485-.633,4.774,4.774,0,0,0-2.52-.921,4.517,4.517,0,0,0-2.389.839,3.086,3.086,0,0,1-1.624.622c-.4,0-.548-.12-.955-.5a3.31,3.31,0,0,0-2.39-1.074,4.771,4.771,0,0,0-2.557.935,4.012,4.012,0,0,1-2.22.822,1.2,1.2,0,0,1-.377-.046,1.158,1.158,0,0,1,.047-.478l3.472-8.127a1.134,1.134,0,0,1,1.051-.678h0l16.208,0a1.141,1.141,0,0,1,1.062.706l3.17,8.05A1.1,1.1,0,0,1-240.924,295.639Z" transform="translate(0 0)"/>
            </g>
          </g>
        </g>
      </g>
      <g id="Group_3432" data-name="Group 3432" transform="translate(-35 -248)">
        <rect id="Rectangle_215-2" data-name="Rectangle 215" width="32" height="32" transform="translate(128 285)" fill="none"/>
        <g id="Group_2185-2" data-name="Group 2185" transform="translate(129.002 286.775)">
          <g id="Group_3431-3" data-name="Group 3431" transform="translate(-34.012 41.167)">
            <path id="Path_519-2" data-name="Path 519" d="M-3.6,0H14.8l4,10H-8Z" transform="translate(43.61 -39.167)" fill="#b0a16e"/>
            <g id="Group_3431-4" data-name="Group 3431" transform="translate(302.443 -324.938)">
              <path id="Path_518-2" data-name="Path 518" d="M-238.59,294.4c-.007-.021-.014-.042-.022-.062l-3.186-8.092A3.629,3.629,0,0,0-245.174,284l-16.208,0h0a3.6,3.6,0,0,0-3.34,2.155l-3.487,8.164c-.007.017-.014.034-.02.052a3.053,3.053,0,0,0,.255,2.687,2.775,2.775,0,0,0,2.4,1.04,5.38,5.38,0,0,0,1.786-.305v11.029a3.546,3.546,0,0,0,3.605,3.473l13.755,0h0a3.659,3.659,0,0,0,2.553-1.019,3.393,3.393,0,0,0,1.058-2.46V297.866a4.722,4.722,0,0,0,1.448.228,2.862,2.862,0,0,0,2.432-1.036A3.08,3.08,0,0,0-238.59,294.4Zm-6.7,14.417a1.068,1.068,0,0,1-.333.774,1.151,1.151,0,0,1-.8.321h0l-13.755,0a1.112,1.112,0,0,1-1.131-1.089V296.487a1.24,1.24,0,0,1,.517-.151c.205,0,.287.05.674.409a3.634,3.634,0,0,0,2.671,1.163,5.426,5.426,0,0,0,2.932-.982,2.619,2.619,0,0,1,1.081-.479,3.034,3.034,0,0,1,1.191.549A5.361,5.361,0,0,0-249.421,298a3.994,3.994,0,0,0,2.648-1.164c.435-.363.644-.534.864-.52a1.474,1.474,0,0,1,.624.231c0,.027-.008.052-.008.079Zm4.369-13.176a.894.894,0,0,1-.445.07,3.711,3.711,0,0,1-1.983-.8,4.757,4.757,0,0,0-2.534-.974h-.028a3.757,3.757,0,0,0-2.479,1.1c-.494.412-.726.58-1.037.581h0a3.207,3.207,0,0,1-1.485-.633,4.774,4.774,0,0,0-2.52-.921,4.517,4.517,0,0,0-2.389.839,3.086,3.086,0,0,1-1.624.622c-.4,0-.548-.12-.955-.5a3.31,3.31,0,0,0-2.39-1.074,4.771,4.771,0,0,0-2.557.935,4.012,4.012,0,0,1-2.22.822,1.2,1.2,0,0,1-.377-.046,1.158,1.158,0,0,1,.047-.478l3.472-8.127a1.134,1.134,0,0,1,1.051-.678h0l16.208,0a1.141,1.141,0,0,1,1.062.706l3.17,8.05A1.1,1.1,0,0,1-240.924,295.639Z" transform="translate(0 0)"/>
            </g>
          </g>
        </g>
      </g>
      <path id="Path_523" data-name="Path 523" d="M-390.589,326.565a1.2,1.2,0,0,0,0,1.7,1.2,1.2,0,0,0,.848.352,1.2,1.2,0,0,0,.848-.352l3.283-3.283a1.2,1.2,0,0,0,.352-.848,1.2,1.2,0,0,0-.352-.849L-388.892,320a1.2,1.2,0,0,0-1.7,0,1.2,1.2,0,0,0,0,1.7l1.234,1.234h-5.895a1.2,1.2,0,0,0-1.2,1.2,1.2,1.2,0,0,0,1.2,1.2h5.895Z" transform="translate(474.449 -272.647)" fill="#b0a16e" stroke="rgba(0,0,0,0)" stroke-width="1"/>
      <path id="Path_569" data-name="Path 569" d="M-391.118,326.566a1.2,1.2,0,0,1,0,1.7,1.2,1.2,0,0,1-.848.352,1.2,1.2,0,0,1-.848-.352l-3.283-3.283a1.2,1.2,0,0,1-.352-.848,1.2,1.2,0,0,1,.352-.849l3.283-3.283a1.2,1.2,0,0,1,1.7,0,1.2,1.2,0,0,1,0,1.7l-1.234,1.234h5.895a1.2,1.2,0,0,1,1.2,1.2,1.2,1.2,0,0,1-1.2,1.2h-5.895Z" transform="translate(467.449 -267.647)" stroke="rgba(0,0,0,0)" stroke-width="1"/>
      <rect id="Rectangle_576" data-name="Rectangle 576" width="90" height="32" transform="translate(35 37)" fill="none"/>
    </g>
    <g id="Group_3659" data-name="Group 3659" transform="translate(267 -37)">
      <g id="Group_3430-2" data-name="Group 3430" transform="translate(-93 -248)">
        <rect id="Rectangle_215-3" data-name="Rectangle 215" width="32" height="32" transform="translate(128 285)" fill="none"/>
        <g id="Group_2185-3" data-name="Group 2185" transform="translate(129.002 286.775)">
          <g id="Group_3431-5" data-name="Group 3431" transform="translate(-34.012 41.167)">
            <g id="Group_3431-6" data-name="Group 3431" transform="translate(302.443 -324.938)">
              <path id="Path_518-3" data-name="Path 518" d="M-238.59,294.4c-.007-.021-.014-.042-.022-.062l-3.186-8.092A3.629,3.629,0,0,0-245.174,284l-16.208,0h0a3.6,3.6,0,0,0-3.34,2.155l-3.487,8.164c-.007.017-.014.034-.02.052a3.053,3.053,0,0,0,.255,2.687,2.775,2.775,0,0,0,2.4,1.04,5.38,5.38,0,0,0,1.786-.305v11.029a3.546,3.546,0,0,0,3.605,3.473l13.755,0h0a3.659,3.659,0,0,0,2.553-1.019,3.393,3.393,0,0,0,1.058-2.46V297.866a4.722,4.722,0,0,0,1.448.228,2.862,2.862,0,0,0,2.432-1.036A3.08,3.08,0,0,0-238.59,294.4Zm-6.7,14.417a1.068,1.068,0,0,1-.333.774,1.151,1.151,0,0,1-.8.321h0l-13.755,0a1.112,1.112,0,0,1-1.131-1.089V296.487a1.24,1.24,0,0,1,.517-.151c.205,0,.287.05.674.409a3.634,3.634,0,0,0,2.671,1.163,5.426,5.426,0,0,0,2.932-.982,2.619,2.619,0,0,1,1.081-.479,3.034,3.034,0,0,1,1.191.549A5.361,5.361,0,0,0-249.421,298a3.994,3.994,0,0,0,2.648-1.164c.435-.363.644-.534.864-.52a1.474,1.474,0,0,1,.624.231c0,.027-.008.052-.008.079Zm4.369-13.176a.894.894,0,0,1-.445.07,3.711,3.711,0,0,1-1.983-.8,4.757,4.757,0,0,0-2.534-.974h-.028a3.757,3.757,0,0,0-2.479,1.1c-.494.412-.726.58-1.037.581h0a3.207,3.207,0,0,1-1.485-.633,4.774,4.774,0,0,0-2.52-.921,4.517,4.517,0,0,0-2.389.839,3.086,3.086,0,0,1-1.624.622c-.4,0-.548-.12-.955-.5a3.31,3.31,0,0,0-2.39-1.074,4.771,4.771,0,0,0-2.557.935,4.012,4.012,0,0,1-2.22.822,1.2,1.2,0,0,1-.377-.046,1.158,1.158,0,0,1,.047-.478l3.472-8.127a1.134,1.134,0,0,1,1.051-.678h0l16.208,0a1.141,1.141,0,0,1,1.062.706l3.17,8.05A1.1,1.1,0,0,1-240.924,295.639Z" transform="translate(0 0)" fill="#fff"/>
            </g>
          </g>
        </g>
      </g>
      <g id="Group_3432-2" data-name="Group 3432" transform="translate(-35 -248)">
        <rect id="Rectangle_215-4" data-name="Rectangle 215" width="32" height="32" transform="translate(128 285)" fill="none"/>
        <g id="Group_2185-4" data-name="Group 2185" transform="translate(129.002 286.775)">
          <g id="Group_3431-7" data-name="Group 3431" transform="translate(-34.012 41.167)">
            <g id="Group_3431-8" data-name="Group 3431" transform="translate(302.443 -324.938)">
              <path id="Path_518-4" data-name="Path 518" d="M-238.59,294.4c-.007-.021-.014-.042-.022-.062l-3.186-8.092A3.629,3.629,0,0,0-245.174,284l-16.208,0h0a3.6,3.6,0,0,0-3.34,2.155l-3.487,8.164c-.007.017-.014.034-.02.052a3.053,3.053,0,0,0,.255,2.687,2.775,2.775,0,0,0,2.4,1.04,5.38,5.38,0,0,0,1.786-.305v11.029a3.546,3.546,0,0,0,3.605,3.473l13.755,0h0a3.659,3.659,0,0,0,2.553-1.019,3.393,3.393,0,0,0,1.058-2.46V297.866a4.722,4.722,0,0,0,1.448.228,2.862,2.862,0,0,0,2.432-1.036A3.08,3.08,0,0,0-238.59,294.4Zm-6.7,14.417a1.068,1.068,0,0,1-.333.774,1.151,1.151,0,0,1-.8.321h0l-13.755,0a1.112,1.112,0,0,1-1.131-1.089V296.487a1.24,1.24,0,0,1,.517-.151c.205,0,.287.05.674.409a3.634,3.634,0,0,0,2.671,1.163,5.426,5.426,0,0,0,2.932-.982,2.619,2.619,0,0,1,1.081-.479,3.034,3.034,0,0,1,1.191.549A5.361,5.361,0,0,0-249.421,298a3.994,3.994,0,0,0,2.648-1.164c.435-.363.644-.534.864-.52a1.474,1.474,0,0,1,.624.231c0,.027-.008.052-.008.079Zm4.369-13.176a.894.894,0,0,1-.445.07,3.711,3.711,0,0,1-1.983-.8,4.757,4.757,0,0,0-2.534-.974h-.028a3.757,3.757,0,0,0-2.479,1.1c-.494.412-.726.58-1.037.581h0a3.207,3.207,0,0,1-1.485-.633,4.774,4.774,0,0,0-2.52-.921,4.517,4.517,0,0,0-2.389.839,3.086,3.086,0,0,1-1.624.622c-.4,0-.548-.12-.955-.5a3.31,3.31,0,0,0-2.39-1.074,4.771,4.771,0,0,0-2.557.935,4.012,4.012,0,0,1-2.22.822,1.2,1.2,0,0,1-.377-.046,1.158,1.158,0,0,1,.047-.478l3.472-8.127a1.134,1.134,0,0,1,1.051-.678h0l16.208,0a1.141,1.141,0,0,1,1.062.706l3.17,8.05A1.1,1.1,0,0,1-240.924,295.639Z" transform="translate(0 0)" fill="#fff"/>
            </g>
          </g>
        </g>
      </g>
      <path id="Path_523-2" data-name="Path 523" d="M-390.589,326.565a1.2,1.2,0,0,0,0,1.7,1.2,1.2,0,0,0,.848.352,1.2,1.2,0,0,0,.848-.352l3.283-3.283a1.2,1.2,0,0,0,.352-.848,1.2,1.2,0,0,0-.352-.849L-388.892,320a1.2,1.2,0,0,0-1.7,0,1.2,1.2,0,0,0,0,1.7l1.234,1.234h-5.895a1.2,1.2,0,0,0-1.2,1.2,1.2,1.2,0,0,0,1.2,1.2h5.895Z" transform="translate(474.449 -272.647)" fill="#fff" stroke="rgba(0,0,0,0)" stroke-width="1"/>
      <path id="Path_569-2" data-name="Path 569" d="M-391.118,326.566a1.2,1.2,0,0,1,0,1.7,1.2,1.2,0,0,1-.848.352,1.2,1.2,0,0,1-.848-.352l-3.283-3.283a1.2,1.2,0,0,1-.352-.848,1.2,1.2,0,0,1,.352-.849l3.283-3.283a1.2,1.2,0,0,1,1.7,0,1.2,1.2,0,0,1,0,1.7l-1.234,1.234h5.895a1.2,1.2,0,0,1,1.2,1.2,1.2,1.2,0,0,1-1.2,1.2h-5.895Z" transform="translate(467.449 -267.647)" fill="#fff" stroke="rgba(0,0,0,0)" stroke-width="1"/>
      <rect id="Rectangle_576-2" data-name="Rectangle 576" width="90" height="32" transform="translate(35 37)" fill="none"/>
    </g>
    <g id="Group_3659-2" data-name="Group 3659" transform="translate(329 -28)">
      <g id="Group_3658-2" data-name="Group 3658">
        <rect id="Rectangle_577" data-name="Rectangle 577" width="32" height="32" transform="translate(63 28)" fill="none"/>
        <g id="Group_319" data-name="Group 319" transform="translate(477.536 -467.485)">
          <g id="noun_Arrow_1953010" data-name="noun Arrow 1953010" transform="translate(-404.577 512.484)">
            <g id="Group_256" data-name="Group 256">
              <path id="Path_61" data-name="Path 61" d="M-399.243,521.3a.624.624,0,0,0-.033.882l.033.033,1.386,1.386a.624.624,0,0,0,.882.033l.033-.033,1.917-1.917v8.14a.655.655,0,0,0,.648.649h1.976a.656.656,0,0,0,.654-.649v-8.11l1.912,1.887a.624.624,0,0,0,.882.033l.033-.033,1.386-1.386a.624.624,0,0,0,.033-.882c-.011-.011-.021-.022-.033-.033l-5.4-5.4a.624.624,0,0,0-.882-.033c-.011.011-.022.021-.033.033Z" transform="translate(399.442 -515.703)"/>
            </g>
          </g>
          <g id="noun_Arrow_1953010-2" data-name="noun Arrow 1953010-2" transform="translate(-414.512 495.484)">
            <g id="Group_256-2" data-name="Group 256-2">
              <path id="Path_61-2" data-name="Path 61-2" d="M-415.479,504.64a.727.727,0,0,0,.478.91c.018.005.037.011.056.015l2.2.586a.727.727,0,0,0,.91-.478c.006-.018.011-.037.015-.056l.817-3.048,4.738,8.207a.763.763,0,0,0,1.032.276l1.992-1.15a.763.763,0,0,0,.276-1.031l-4.721-8.177,3.031.787a.727.727,0,0,0,.91-.478c.006-.018.011-.037.015-.056l.59-2.2a.726.726,0,0,0-.478-.91c-.018-.006-.037-.011-.056-.015l-8.582-2.3a.727.727,0,0,0-.91.478c-.005.018-.011.037-.014.056Z" transform="translate(415.512 -495.484)" fill="#b0a16e"/>
            </g>
          </g>
          <g id="noun_Arrow_1953010-3" data-name="noun Arrow 1953010-3" transform="translate(-395.178 495.489)">
            <g id="Group_256-3" data-name="Group 256-3">
              <path id="Path_61-3" data-name="Path 61-3" d="M-386.562,497.823a.726.726,0,0,0-.549.869c0,.019.009.037.015.056l.595,2.2a.727.727,0,0,0,.869.549c.018,0,.037-.009.056-.015l3.048-.817-4.739,8.207a.763.763,0,0,0,.277,1.031l1.992,1.15a.762.762,0,0,0,1.031-.276l4.721-8.177.834,3.019a.727.727,0,0,0,.87.549c.018,0,.037-.009.056-.015l2.2-.59a.727.727,0,0,0,.548-.869c0-.018-.009-.037-.014-.055l-2.3-8.583a.727.727,0,0,0-.87-.548c-.019,0-.037.009-.056.015Z" transform="translate(387.364 -495.49)" fill="#b0a16e"/>
            </g>
          </g>
        </g>
      </g>
    </g>
    <g id="Group_3660" data-name="Group 3660" transform="translate(361 -28)">
      <g id="Group_3658-3" data-name="Group 3658">
        <rect id="Rectangle_577-2" data-name="Rectangle 577" width="32" height="32" transform="translate(63 28)" fill="none"/>
        <g id="Group_319-2" data-name="Group 319" transform="translate(477.536 -467.485)">
          <g id="noun_Arrow_1953010-2-2" data-name="noun Arrow 1953010" transform="translate(-404.577 512.484)">
            <g id="Group_256-2-2" data-name="Group 256">
              <path id="Path_61-2-2" data-name="Path 61" d="M-399.243,521.3a.624.624,0,0,0-.033.882l.033.033,1.386,1.386a.624.624,0,0,0,.882.033l.033-.033,1.917-1.917v8.14a.655.655,0,0,0,.648.649h1.976a.656.656,0,0,0,.654-.649v-8.11l1.912,1.887a.624.624,0,0,0,.882.033l.033-.033,1.386-1.386a.624.624,0,0,0,.033-.882c-.011-.011-.021-.022-.033-.033l-5.4-5.4a.624.624,0,0,0-.882-.033c-.011.011-.022.021-.033.033Z" transform="translate(399.442 -515.703)" fill="#fff"/>
            </g>
          </g>
          <g id="noun_Arrow_1953010-2-3" data-name="noun Arrow 1953010-2" transform="translate(-414.512 495.484)">
            <g id="Group_256-2-3" data-name="Group 256-2">
              <path id="Path_61-2-3" data-name="Path 61-2" d="M-415.479,504.64a.727.727,0,0,0,.478.91c.018.005.037.011.056.015l2.2.586a.727.727,0,0,0,.91-.478c.006-.018.011-.037.015-.056l.817-3.048,4.738,8.207a.763.763,0,0,0,1.032.276l1.992-1.15a.763.763,0,0,0,.276-1.031l-4.721-8.177,3.031.787a.727.727,0,0,0,.91-.478c.006-.018.011-.037.015-.056l.59-2.2a.726.726,0,0,0-.478-.91c-.018-.006-.037-.011-.056-.015l-8.582-2.3a.727.727,0,0,0-.91.478c-.005.018-.011.037-.014.056Z" transform="translate(415.512 -495.484)" fill="#fff"/>
            </g>
          </g>
          <g id="noun_Arrow_1953010-3-2" data-name="noun Arrow 1953010-3" transform="translate(-395.178 495.489)">
            <g id="Group_256-3-2" data-name="Group 256-3">
              <path id="Path_61-3-2" data-name="Path 61-3" d="M-386.562,497.823a.726.726,0,0,0-.549.869c0,.019.009.037.015.056l.595,2.2a.727.727,0,0,0,.869.549c.018,0,.037-.009.056-.015l3.048-.817-4.739,8.207a.763.763,0,0,0,.277,1.031l1.992,1.15a.762.762,0,0,0,1.031-.276l4.721-8.177.834,3.019a.727.727,0,0,0,.87.549c.018,0,.037-.009.056-.015l2.2-.59a.727.727,0,0,0,.548-.869c0-.018-.009-.037-.014-.055l-2.3-8.583a.727.727,0,0,0-.87-.548c-.019,0-.037.009-.056.015Z" transform="translate(387.364 -495.49)" fill="#fff"/>
            </g>
          </g>
        </g>
      </g>
    </g>
    <g id="Component_4_1" data-name="Component 4 – 1">
      <rect id="Rectangle_579" data-name="Rectangle 579" width="32" height="32" fill="none"/>
      <g id="Group_3674" data-name="Group 3674" transform="translate(0.992 3.41)">
        <path id="Path_574" data-name="Path 574" d="M247.35,355.755v-1.465h-.582v-.626h1.969v.638H248.2v1.454Z" transform="translate(-240.1 -331.639)" fill="#040505"/>
        <path id="Path_575" data-name="Path 575" d="M272.062,355.755V354.3h-.57v-.638h1.98v.649h-.548v1.443Z" transform="translate(-260.774 -331.639)" fill="#040505"/>
        <path id="Path_576" data-name="Path 576" d="M257.559,355.755l.783-2.092h.917l.772,2.092H259.2l-.4-1.208-.4,1.208Z" transform="translate(-249.124 -331.639)" fill="#040505"/>
        <path id="Path_577" data-name="Path 577" d="M282.214,355.755l.783-2.092h.906l.772,2.092h-.817l-.4-1.208-.425,1.208Z" transform="translate(-269.741 -331.639)" fill="#040505"/>
        <path id="Path_578" data-name="Path 578" d="M229.86,353.63h.5l.814,2.105h-.448l-.175-.5h-.917l-.183.5h-.412Zm.243.351-.353.947h.693Z" transform="translate(-225.277 -331.612)" fill="#040505"/>
        <path id="Path_579" data-name="Path 579" d="M313.829,353.412h1.526v.323H314.8v1.774h-.415v-1.774h-.552Zm-.136.067-.027.332-.031-.012a1.405,1.405,0,0,0-.456-.109.733.733,0,0,0-.552.214.787.787,0,0,0-.207.569.731.731,0,0,0,.213.546.771.771,0,0,0,.563.21,1.211,1.211,0,0,0,.352-.081c.055-.018.1-.032.124-.04l.035.332-.114.031a1.747,1.747,0,0,1-.432.081,1.207,1.207,0,0,1-.855-.291,1.024,1.024,0,0,1-.313-.788,1.067,1.067,0,0,1,.314-.8,1.143,1.143,0,0,1,.832-.3,1.675,1.675,0,0,1,.435.08Zm-3.751-.067h.413v1.229a.774.774,0,0,0,.1.448.368.368,0,0,0,.321.143.386.386,0,0,0,.332-.152.758.758,0,0,0,.113-.452v-1.215h.389v1.217a1,1,0,0,1-.21.691.81.81,0,0,1-.63.231.8.8,0,0,1-.621-.229.97.97,0,0,1-.21-.676Zm-2.165,0h.6a2.437,2.437,0,0,1,.457.037.9.9,0,0,1,.311.114.925.925,0,0,1,.339.367,1.164,1.164,0,0,1,.113.527,1.145,1.145,0,0,1-.114.526.936.936,0,0,1-.666.487,2.413,2.413,0,0,1-.471.039h-.568Zm.416.311v1.462h.239a.672.672,0,0,0,.735-.735.718.718,0,0,0-.192-.541.767.767,0,0,0-.554-.187Zm-1.786-.357a.935.935,0,0,1,.728.292,1.342,1.342,0,0,1,0,1.6,1.058,1.058,0,0,1-1.457,0,1.348,1.348,0,0,1,0-1.6A.932.932,0,0,1,306.408,353.366Zm0,.311a.491.491,0,0,0-.414.212.926.926,0,0,0-.157.565.94.94,0,0,0,.156.568.511.511,0,0,0,.831,0,1.091,1.091,0,0,0,0-1.13A.494.494,0,0,0,306.408,353.677Zm-2.743-.265h.687a1,1,0,0,1,.575.135.463.463,0,0,1,.192.405.493.493,0,0,1-.114.334.565.565,0,0,1-.324.176.341.341,0,0,1,.146.089.788.788,0,0,1,.123.229l.291.729H304.8l-.236-.635a.38.38,0,0,0-.13-.191.426.426,0,0,0-.236-.054h-.13v.88h-.407Zm.407.292v.632h.213a.505.505,0,0,0,.31-.082.277.277,0,0,0,.109-.235.271.271,0,0,0-.108-.238.6.6,0,0,0-.342-.076Zm-2.133-.292h.623a.943.943,0,0,1,.6.16.6.6,0,0,1,.2.492.584.584,0,0,1-.2.476.887.887,0,0,1-.58.17h-.224v.8h-.413Zm.413.3v.708h.17a.468.468,0,0,0,.31-.091.321.321,0,0,0,.108-.26.338.338,0,0,0-.1-.264.419.419,0,0,0-.291-.093Z" transform="translate(-286.235 -331.391)" fill="#040505"/>
        <path id="Path_580" data-name="Path 580" d="M233.242,294.162a1.457,1.457,0,0,0-.076,1.2h-.852a2.291,2.291,0,0,1-.075-.372v-.264a3.337,3.337,0,0,1,1.1-1.93c.388-.4.722-.7,1.046-1a7.571,7.571,0,0,0,1.224-1.52.328.328,0,0,1,.286-.173v5.262h-.534v-1.2Zm2.119-.361v-2.259a4.17,4.17,0,0,1-.976,1.111,3.131,3.131,0,0,0-.981,1.148Z" transform="translate(-227.951 -278.484)" fill="#040505"/>
        <path id="Path_581" data-name="Path 581" d="M209.187,292.554l.436-3.682a1.965,1.965,0,0,1,.814-1.294c-.437-.037-.636.221-1,.183H206.7a.536.536,0,0,0-.615.663c.086-.178.178-.178.34-.2h2.593a1.912,1.912,0,0,0-.388.895s-.286,3.2-.237,4.195c.049,2.005,1.51,3.083,2.184,3a4.381,4.381,0,0,1-1.386-3.763" transform="translate(-206.059 -276.375)" fill="#040505"/>
        <path id="Path_582" data-name="Path 582" d="M300.661,228.11c.162.065.275.016.075-.145a5.753,5.753,0,0,1-2.005-4.37v-3.278a1.961,1.961,0,0,0,.749.188h1.828a.881.881,0,0,1,.938.624,1.177,1.177,0,0,0-1.084-1.507h-2.092a2.739,2.739,0,0,1-1.261-.425v3.584c0,3.638,1.952,5.183,2.852,5.328" transform="translate(-282.782 -219.197)" fill="#040505"/>
        <path id="Path_583" data-name="Path 583" d="M266.354,293.913a4.889,4.889,0,0,0-1.251-1.5,4.894,4.894,0,0,1-1.4-2.081l-.3-.1v5.24h.447v-3.553a5.26,5.26,0,0,0,1.386,1.6,5.336,5.336,0,0,1,1.294,1.822l.275.135V290.3h-.458Z" transform="translate(-254.017 -278.597)" fill="#040505"/>
        <path id="Path_584" data-name="Path 584" d="M293.128,277.3a.653.653,0,0,0-.652.674.667.667,0,0,0,.652.663.679.679,0,0,0,.62-.663.662.662,0,0,0-.62-.674" transform="translate(-278.322 -267.779)" fill="#040505"/>
        <path id="Path_585" data-name="Path 585" d="M366.685,293.255l-.011-.016a7.431,7.431,0,0,1-1.634-2.13,2.942,2.942,0,0,1-.28-1.229h0v-.119a3.132,3.132,0,0,1,.28-1.272,4.888,4.888,0,0,1,1.531-1.747.687.687,0,0,0,.113.189,9.972,9.972,0,0,1,1.784,1.881,2.445,2.445,0,0,1,.3,1.127v.076a2.465,2.465,0,0,1-.448,1.369,6.859,6.859,0,0,1-1.084,1.218,6.309,6.309,0,0,1,.76.911,1.737,1.737,0,0,1,.2,1.386c-.038.189-.312.722-.523.722.275-.874-.55-1.86-.986-2.367m0-1.164c.065.054.113.1.178.151a2.342,2.342,0,0,0,.895-1.17,2.524,2.524,0,0,0-.189-2.5,4.142,4.142,0,0,0-.884-1.008c-.1-.076-.2-.162-.286-.227a2.646,2.646,0,0,0-.932,1.337,3,3,0,0,0,.21,1.995A3.823,3.823,0,0,0,366.685,292.09Z" transform="translate(-338.767 -275.679)" fill="#040505"/>
        <path id="Path_586" data-name="Path 586" d="M340.341,293.845h-1.833v-3.219h-.674v5.041h.674v-1.423h1.833v1.483h.7v-5.1h-.7Z" transform="translate(-316.251 -278.927)" fill="#040505"/>
        <path id="Path_587" data-name="Path 587" d="M272.012,219.2a2.561,2.561,0,0,1-1.261.426h-2.081a1.193,1.193,0,0,0-1.1,1.51.932.932,0,0,1,.965-.626h1.833a1.956,1.956,0,0,0,.744-.189V223.6a5.753,5.753,0,0,1-2.032,4.378c-.21.162-.087.21.065.145.922-.145,2.868-1.693,2.868-5.337Z" transform="translate(-257.469 -219.197)" fill="#040505"/>
        <path id="Path_588" data-name="Path 588" d="M308.545,292.53a9.637,9.637,0,0,1-1.8-1.008.593.593,0,0,1-.022-.862,1.1,1.1,0,0,1,1.073-.027c.3.189.383.4.62.625a.561.561,0,0,0,.5.162,1.773,1.773,0,0,0-.561-.9,1.734,1.734,0,0,0-2.184.011,1.043,1.043,0,0,0,.135,1.547c.539.561,1.488.76,2.248,1.51a.742.742,0,0,1-.065,1.235,1.859,1.859,0,0,1-1.5.075,1.763,1.763,0,0,1-.771-.674.719.719,0,0,0-.717-.453,1.834,1.834,0,0,0,1.181,1.423,2.581,2.581,0,0,0,2.431-.237c.857-.6.658-1.758-.577-2.432" transform="translate(-289.221 -278.524)" fill="#040505"/>
        <rect id="Rectangle_580" data-name="Rectangle 580" width="0.647" height="5.176" transform="translate(14.456 11.699)" fill="#040505"/>
      </g>
    </g>
    <g id="Group_3675" data-name="Group 3675" transform="translate(430 -26)">
      <g id="Group_264" data-name="Group 264" transform="translate(8.165 27)">
        <path id="Path_64" data-name="Path 64" d="M601.041,2163.435a16.972,16.972,0,0,0,3.865,7.723,8.771,8.771,0,0,0,4.467,2.9c.214.05.533.281.645.033s-.241-.406-.44-.54a10.008,10.008,0,0,1-2.28-2.127,19.4,19.4,0,0,1-4-11.617c-.1-3.195-.019-6.4-.019-9.593v-.388a7.463,7.463,0,0,0,3.362.577q2.629-.02,5.258.006a2.584,2.584,0,0,1,2.447,1.518l.161.322a2.262,2.262,0,0,0,.086-.31,3.643,3.643,0,0,0-3.674-4.289c-2.193.047-4.388.034-6.582,0a7.172,7.172,0,0,1-3.86-1.337h-.08c0,3.92-.01,7.84,0,11.76A23.626,23.626,0,0,0,601.041,2163.435Z" transform="translate(-565.784 -2146.312)" fill="#050505"/>
        <path id="Path_65" data-name="Path 65" d="M505.641,2146.745c0-.051-.009-.1-.021-.218-.247.134-.444.243-.644.346a7.983,7.983,0,0,1-3.956.979c-1.939-.051-3.88-.013-5.82-.011a4.332,4.332,0,0,0-.919.062,3.725,3.725,0,0,0-2.761,4.584c.037-.1.05-.133.066-.169a2.981,2.981,0,0,1,3.06-1.748c1.765.035,3.532.007,5.3.011a9.009,9.009,0,0,0,1.435-.135,8.346,8.346,0,0,0,1.372-.417c0,3.122-.006,6.2,0,9.277a21.057,21.057,0,0,1-1.777,8.526,13.162,13.162,0,0,1-4.661,5.99,1.173,1.173,0,0,0-.209.187c-.071.076-.183.156-.129.27.066.14.216.091.32.062a8.864,8.864,0,0,0,1.6-.516,11.414,11.414,0,0,0,4.372-3.918,19.582,19.582,0,0,0,3.313-10.6C505.75,2155.122,505.617,2150.932,505.641,2146.745Z" transform="translate(-472.588 -2146.496)" fill="#050505"/>
        <path id="Path_71" data-name="Path 71" d="M583.037,2350.947a2.01,2.01,0,0,0-2.065,2.042,2.064,2.064,0,0,0,2.024,2.1,2.116,2.116,0,0,0,2.041-2.063A2.056,2.056,0,0,0,583.037,2350.947Z" transform="translate(-549.172 -2325.235)" fill="#050505"/>
      </g>
      <rect id="Rectangle_579-2" data-name="Rectangle 579" width="32" height="32" transform="translate(26 26)" fill="none"/>
    </g>
    <g id="Group_3743" data-name="Group 3743" transform="translate(249.001 -511)">
      <g id="Group_3729" data-name="Group 3729" transform="translate(239.912 515.001)">
        <g id="Group_3651-3" data-name="Group 3651" transform="translate(0 0)">
          <path id="Path_567-5" data-name="Path 567" d="M-332.151,584.937h-21.585A4.27,4.27,0,0,1-358,580.671V562.1a1.248,1.248,0,0,1,1.247-1.248,1.248,1.248,0,0,1,1.247,1.248v18.567a1.772,1.772,0,0,0,1.771,1.771h21.585a1.772,1.772,0,0,0,1.771-1.771V562.1a1.248,1.248,0,0,1,1.247-1.248,1.248,1.248,0,0,1,1.247,1.248v18.567A4.27,4.27,0,0,1-332.151,584.937Z" transform="translate(358.001 -560.856)" fill="#fff"/>
        </g>
        <g id="Group_3653-3" data-name="Group 3653" transform="translate(8.047 7.042)">
          <ellipse id="Ellipse_71-5" data-name="Ellipse 71" cx="1.936" cy="1.936" rx="1.936" ry="1.936" transform="translate(5.162)" fill="#fff"/>
          <ellipse id="Ellipse_72-5" data-name="Ellipse 72" cx="1.936" cy="1.936" rx="1.936" ry="1.936" transform="translate(7.743 6.453)" fill="#fff"/>
          <ellipse id="Ellipse_73-5" data-name="Ellipse 73" cx="1.936" cy="1.936" rx="1.936" ry="1.936" fill="#fff"/>
          <ellipse id="Ellipse_74-5" data-name="Ellipse 74" cx="1.936" cy="1.936" rx="1.936" ry="1.936" transform="translate(2.58 6.453)" fill="#fff"/>
          <ellipse id="Ellipse_75-5" data-name="Ellipse 75" cx="1.936" cy="1.936" rx="1.936" ry="1.936" transform="translate(10.323)" fill="#fff"/>
        </g>
      </g>
      <rect id="Rectangle_596" data-name="Rectangle 596" width="31.998" height="31.998" transform="translate(239 511)" fill="none"/>
    </g>
    <g id="Group_2986" data-name="Group 2986" transform="translate(392 -285)">
      <rect id="Rectangle_215-5" data-name="Rectangle 215" width="32" height="32" transform="translate(128 285)" fill="none"/>
      <g id="Group_3905" data-name="Group 3905" transform="translate(-286 175)">
        <g id="Ellipse_89" data-name="Ellipse 89" transform="translate(417 113)" fill="none" stroke="#000" stroke-width="1.5">
          <circle cx="12.266" cy="12.266" r="12.266" stroke="none"/>
          <circle cx="12.266" cy="12.266" r="11.516" fill="none"/>
        </g>
        <path id="Path_623" data-name="Path 623" d="M.487.5,5.9,5.9" transform="translate(437.107 133.105)" fill="none" stroke="#000" stroke-linecap="round" stroke-width="1.5"/>
      </g>
    </g>
    <g id="Group_4119" data-name="Group 4119" transform="translate(489 -37)">
      <g id="Group_4259" data-name="Group 4259" transform="translate(-247.399 16.35)">
        <g id="Group_4260" data-name="Group 4260" transform="translate(326.507 38.634)">
          <circle id="Ellipse_97" data-name="Ellipse 97" cx="6.5" cy="6.5" r="6.5" transform="translate(-0.325 -0.233)" fill="none" stroke="#000" stroke-width="2.5"/>
          <line id="Line_104" data-name="Line 104" y2="2" transform="translate(6.192 3.767)" fill="none" stroke="#000" stroke-linecap="round" stroke-width="2.5"/>
          <circle id="Ellipse_98" data-name="Ellipse 98" cx="1.25" cy="1.25" r="1.25" transform="translate(4.991 7.666)"/>
        </g>
        <g id="Group_4261" data-name="Group 4261" transform="translate(311.939 21.9)">
          <path id="Line_100" data-name="Line 100" d="M-1,0H5.383" transform="translate(7.482 15.916)" fill="none" stroke="#000" stroke-linecap="round" stroke-width="2.5"/>
          <path id="Line_100-2" data-name="Line 100" d="M-1,0H10.156" transform="translate(7.482 10.675)" fill="none" stroke="#000" stroke-linecap="round" stroke-width="2.5"/>
          <path id="Line_101" data-name="Line 101" d="M-1,0H2.787" transform="translate(7.482 21.153)" fill="none" stroke="#000" stroke-linecap="round" stroke-width="2.5"/>
          <path id="Rectangle_784" data-name="Rectangle 784" d="M3,0H21.081a3,3,0,0,1,3,3V5.318a0,0,0,0,1,0,0H0a0,0,0,0,1,0,0V3A3,3,0,0,1,3,0Z" transform="translate(0 0)" fill="#b0a16e" stroke="#000" stroke-linecap="round" stroke-linejoin="round" stroke-width="2.5"/>
        </g>
        <g id="Layer_2" data-name="Layer 2" transform="translate(311.907 27.236)">
          <g id="Layer_4" data-name="Layer 4" transform="translate(0 0)">
            <path id="Rectangle_782" data-name="Rectangle 782" d="M13.642,25.429H4.659a3.238,3.238,0,0,1-3.442-2.973L1.25,1.25H25.331V8.961" transform="translate(-1.218 -1.25)" fill="none" stroke="#000" stroke-linecap="round" stroke-linejoin="round" stroke-width="2.5"/>
          </g>
        </g>
      </g>
      <rect id="Rectangle_785" data-name="Rectangle 785" width="32" height="32" transform="translate(62 37)" fill="none"/>
    </g>
    <g id="Group_4262" data-name="Group 4262" transform="translate(15916 20993)">
      <rect id="Rectangle_577-3" data-name="Rectangle 577" width="32" height="32" transform="translate(-15333 -20993)" fill="none"/>
      <g id="Group_4108" data-name="Group 4108" transform="translate(-15625.73 -21165.059)">
        <g id="Path_1514" data-name="Path 1514" transform="translate(310.303 173.166)">
          <path id="Path_1627" data-name="Path 1627" d="M310.181,178.439l4.791-5.281,11.4,6.864L321.5,185.1" transform="translate(-310.181 -173.158)" fill="none"/>
        </g>
        <g id="Path_1515" data-name="Path 1515" transform="translate(293.511 173.17)">
          <path id="Path_1628" data-name="Path 1628" d="M309.7,178.442l-4.791-5.28-11.4,6.863,4.878,5.074" transform="translate(-293.506 -173.162)" fill="none"/>
        </g>
        <g id="Path_1516" data-name="Path 1516" transform="translate(293.834 185.113)">
          <path id="Path_1629" data-name="Path 1629" d="M293.826,185.022l11.55,6.654,4.667-.518-11.063-6.137Z" transform="translate(-293.826 -185.022)" fill="none"/>
        </g>
        <g id="Path_1517" data-name="Path 1517" transform="translate(310.57 185.113)">
          <path id="Path_1630" data-name="Path 1630" d="M326.664,185.022l-11.55,6.654-4.667-.518,11.063-6.137Z" transform="translate(-310.446 -185.022)" fill="none"/>
        </g>
        <g id="Path_1717" data-name="Path 1717" transform="translate(310.377 174.4)">
          <path id="Path_1631" data-name="Path 1631" d="M310.26,177.841l4.389-4.633,10.313,6.3-4.482,4.523Z" transform="translate(-310.26 -173.208)" fill="#b0a16e"/>
        </g>
        <g id="Path_1718" data-name="Path 1718" transform="translate(296.902 174.4)">
          <path id="Path_1632" data-name="Path 1632" d="M310.419,177.841l-4.389-4.633-10.312,6.3,4.482,4.523Z" transform="translate(-295.718 -173.208)" fill="#b0a16e"/>
        </g>
        <g id="Path_1719" data-name="Path 1719" transform="translate(310.935 185.208)">
          <path id="Path_1633" data-name="Path 1633" d="M310.808,191.159l10.674-6.042,4.18.175-10.748,6.261Z" transform="translate(-310.808 -185.117)" fill="#b0a16e"/>
        </g>
        <g id="Path_1720" data-name="Path 1720" transform="translate(296.446 185.436)">
          <path id="Path_1634" data-name="Path 1634" d="M308.895,190.677l-9.822-5.56-3.846.161,9.89,5.761Z" transform="translate(-295.226 -185.117)" fill="#b0a16e"/>
        </g>
        <path id="Path_1635" data-name="Path 1635" d="M325.06,183.845a1.018,1.018,0,0,0-.979-.761l-2.4-.017,2.854-2.968a1.018,1.018,0,0,0-.209-1.58L313.835,172.2a1.018,1.018,0,0,0-1.281.188l-3.606,3.974-3.6-3.972a1.02,1.02,0,0,0-1.281-.188l-10.492,6.315a1.02,1.02,0,0,0-.209,1.58l2.85,2.965-2.469.017a1.019,1.019,0,0,0-.5,1.9l4.371,2.491v7.272a1.019,1.019,0,0,0,.523.89l10.3,5.733a1.013,1.013,0,0,0,.987,0l10.415-5.734a1.018,1.018,0,0,0,.527-.892V187.39l4.215-2.4A1.02,1.02,0,0,0,325.06,183.845Zm-12.049,5.389-.629-.038,7.23-4.1.659,0Zm-4.1-10.121,8.393,4.946-8.393,4.766-8.26-4.766Zm4.594-4.73,8.681,5.224-3.046,3.168-8.633-5.087Zm-9.1,0,2.97,3.273-8.585,5.141-3.066-3.189Zm-6.043,10.706,7.112,4.1-.655.039-7.259-4.137Zm1.3,3.548,4.413,2.515a1.031,1.031,0,0,0,.505.133l.061,0,3.247-.193v7.639l-8.226-4.581Zm18.673,5.509-8.409,4.629v-7.686l3.276.195.06,0a1.029,1.029,0,0,0,.505-.133l4.568-2.6Z" transform="translate(1.403 1.277)"/>
      </g>
    </g>
    <g id="Group_4608" data-name="Group 4608" transform="translate(15950 20993)">
      <rect id="Rectangle_577-4" data-name="Rectangle 577" width="32" height="32" transform="translate(-15333 -20993)" fill="none"/>
      <g id="Group_4609" data-name="Group 4609" transform="translate(-15332 -20984)">
        <g id="Rectangle_682" data-name="Rectangle 682" fill="none" stroke="#0d0c09" stroke-width="1">
          <rect width="30" height="15" rx="7.5" stroke="none"/>
          <rect x="0.5" y="0.5" width="29" height="14" rx="7" fill="none"/>
        </g>
        <circle id="Ellipse_99" data-name="Ellipse 99" cx="5.5" cy="5.5" r="5.5" transform="translate(17 2)" fill="#b0a16e"/>
      </g>
    </g>
    <g id="Group_4615" data-name="Group 4615" transform="translate(15982 20993)">
      <rect id="Rectangle_577-5" data-name="Rectangle 577" width="32" height="32" transform="translate(-15333 -20993)" fill="none"/>
      <g id="Group_4609-2" data-name="Group 4609" transform="translate(-15332 -20984)">
        <g id="Rectangle_682-2" data-name="Rectangle 682" fill="none" stroke="#0d0c09" stroke-width="1">
          <rect width="30" height="15" rx="7.5" stroke="none"/>
          <rect x="0.5" y="0.5" width="29" height="14" rx="7" fill="none"/>
        </g>
        <circle id="Ellipse_99-2" data-name="Ellipse 99" cx="5.5" cy="5.5" r="5.5" transform="translate(2 2)" fill="#b7b7b7"/>
      </g>
    </g>
    <g id="Group_4610" data-name="Group 4610" transform="translate(16046 20993)">
      <rect id="Rectangle_577-6" data-name="Rectangle 577" width="32" height="32" transform="translate(-15333 -20993)" fill="none"/>
      <g id="Group_4617" data-name="Group 4617" transform="translate(-15662.613 -25075.686)">
        <g id="Group_4617-2" data-name="Group 4617" transform="translate(338.861 4086.685)">
          <path id="Path_2110" data-name="Path 2110" d="M384.271,4096.885a.894.894,0,0,1-.894-.894v-4.115c0-1.877-2.007-3.4-4.473-3.4s-4.474,1.527-4.474,3.4v4.115a.894.894,0,0,1-1.787,0v-4.115c0-2.863,2.808-5.191,6.26-5.191s6.261,2.329,6.261,5.191v4.115A.894.894,0,0,1,384.271,4096.885Z" transform="translate(-372.643 -4086.685)" fill="#b9aa79"/>
        </g>
        <path id="Path_2111" data-name="Path 2111" d="M422.05,4228.707l.42,2.937h-1.69l.419-2.937a1.126,1.126,0,1,1,.851,0Z" transform="translate(-76.291 -124.229)" fill="#b9aa79"/>
        <path id="Path_2112" data-name="Path 2112" d="M352.719,4163.732h-14.77a3.34,3.34,0,0,0-3.336,3.336v8.72a3.34,3.34,0,0,0,3.336,3.336h14.77a3.34,3.34,0,0,0,3.336-3.336v-8.72A3.34,3.34,0,0,0,352.719,4163.732Zm-16.542,3.336a1.774,1.774,0,0,1,1.772-1.772h14.77a1.774,1.774,0,0,1,1.772,1.772v8.72a1.774,1.774,0,0,1-1.772,1.772h-14.77a1.774,1.774,0,0,1-1.772-1.772Z" transform="translate(0 -68.44)"/>
      </g>
    </g>
    <g id="Group_4616" data-name="Group 4616" transform="translate(16014 20993)">
      <rect id="Rectangle_577-7" data-name="Rectangle 577" width="32" height="32" transform="translate(-15333 -20993)" fill="none"/>
      <g id="Group_4611" data-name="Group 4611" transform="translate(-15934.051 -25075.686)">
        <g id="Group_4478" data-name="Group 4478" transform="translate(618.036 4086.685)">
          <path id="Path_1387" data-name="Path 1387" d="M748.8,4096.887a.894.894,0,0,1-.894-.894v-4.115c0-1.877-2.007-3.4-4.474-3.4s-4.475,1.527-4.475,3.4v4.115a.894.894,0,1,1-1.788,0v-4.115c0-2.863,2.809-5.192,6.261-5.192s6.262,2.329,6.262,5.192v4.115A.894.894,0,0,1,748.8,4096.887Z" transform="translate(-737.171 -4086.685)" fill="#b9aa79"/>
        </g>
        <g id="Group_4479" data-name="Group 4479" transform="translate(612.647 4102.311)">
          <path id="Path_1388" data-name="Path 1388" d="M690.489,4228.708l.42,2.937h-1.69l.419-2.937a1.127,1.127,0,1,1,.851,0Z" transform="translate(-688.937 -4226.538)" fill="#b9aa79"/>
        </g>
        <g id="Group_4480" data-name="Group 4480" transform="translate(603.051 4095.293)">
          <path id="Path_1389" data-name="Path 1389" d="M621.16,4163.732H606.388a3.341,3.341,0,0,0-3.337,3.337v8.721a3.341,3.341,0,0,0,3.337,3.337H621.16a3.341,3.341,0,0,0,3.337-3.337v-8.721A3.341,3.341,0,0,0,621.16,4163.732Zm-16.544,3.337a1.775,1.775,0,0,1,1.773-1.773H621.16a1.775,1.775,0,0,1,1.773,1.773v8.721a1.774,1.774,0,0,1-1.773,1.772H606.388a1.774,1.774,0,0,1-1.773-1.772Z" transform="translate(-603.051 -4163.732)"/>
        </g>
      </g>
    </g>
    <g id="Group_4795" data-name="Group 4795" transform="translate(16076 21027)">
      <rect id="Rectangle_577-8" data-name="Rectangle 577" width="64" height="32" transform="translate(-15331 -21027)" fill="none"/>
      <g id="Group_4798" data-name="Group 4798" transform="translate(1 -34)">
        <g id="Group_4796" data-name="Group 4796" transform="translate(-15459 -21278)">
          <rect id="Rectangle_215-6" data-name="Rectangle 215" width="32" height="32" transform="translate(128 285)" fill="none"/>
          <g id="Group_2185-5" data-name="Group 2185" transform="translate(129.002 286.775)">
            <g id="Group_3431-9" data-name="Group 3431" transform="translate(-34.012 41.167)">
              <path id="Path_519-3" data-name="Path 519" d="M-3.6,0H14.8l4,10H-8Z" transform="translate(43.61 -39.167)" fill="#b0a16e"/>
              <g id="Group_3431-10" data-name="Group 3431" transform="translate(302.443 -324.938)">
                <path id="Subtraction_6" data-name="Subtraction 6" d="M6998.571,16281.295l-13.754,0a3.584,3.584,0,0,1-3.539-2.795h2.653a1.144,1.144,0,0,0,.886.412h13.754a1.171,1.171,0,0,0,.8-.318,1.08,1.08,0,0,0,.331-.772v-12.188a.252.252,0,0,1,0-.039.329.329,0,0,0,0-.039,1.49,1.49,0,0,0-.625-.232h-.023c-.213,0-.422.174-.839.52l0,0a4,4,0,0,1-2.644,1.161,5.314,5.314,0,0,1-2.828-1.006,3.039,3.039,0,0,0-1.193-.547,2.594,2.594,0,0,0-1.074.475l-.005,0a5.443,5.443,0,0,1-2.934.98,3.631,3.631,0,0,1-2.672-1.164c-.383-.355-.464-.4-.67-.4a1.273,1.273,0,0,0-.519.146v3.012h-2.476v-1.708a5.374,5.374,0,0,1-1.786.307,2.777,2.777,0,0,1-2.4-1.042,3.081,3.081,0,0,1-.253-2.685.185.185,0,0,1,.021-.053l3.485-8.164a3.6,3.6,0,0,1,3.338-2.153h16.209a3.633,3.633,0,0,1,3.375,2.247l3.187,8.09a.314.314,0,0,1,.021.062,3.07,3.07,0,0,1-.347,2.66,2.844,2.844,0,0,1-2.431,1.038,4.7,4.7,0,0,1-1.447-.229v10.95a3.4,3.4,0,0,1-1.058,2.46A3.673,3.673,0,0,1,6998.571,16281.295Zm.515-18.359h.029a4.757,4.757,0,0,1,2.53.971l.009.006a3.7,3.7,0,0,0,1.976.8.924.924,0,0,0,.445-.069,1.151,1.151,0,0,0-.017-.5l-3.171-8.05a1.142,1.142,0,0,0-1.062-.707l-16.206,0a1.135,1.135,0,0,0-1.054.679l-3.469,8.127a1.137,1.137,0,0,0-.049.478,1.082,1.082,0,0,0,.376.045,4,4,0,0,0,2.217-.818l.006,0,.015-.01a4.752,4.752,0,0,1,2.543-.926,3.3,3.3,0,0,1,2.386,1.075c.412.378.561.5.956.5a3.1,3.1,0,0,0,1.626-.621,4.452,4.452,0,0,1,2.386-.842,4.758,4.758,0,0,1,2.515.921l.006,0,.015.009a3.179,3.179,0,0,0,1.469.624c.317,0,.549-.172,1.042-.584A3.769,3.769,0,0,1,6999.086,16262.936Z" transform="translate(-7245 -15969)" stroke="rgba(0,0,0,0)" stroke-miterlimit="10" stroke-width="1"/>
              </g>
            </g>
          </g>
        </g>
        <g id="Group_4797" data-name="Group 4797" transform="translate(-15428 -21278)">
          <rect id="Rectangle_215-7" data-name="Rectangle 215" width="32" height="32" transform="translate(128 285)" fill="none"/>
          <g id="Group_2185-6" data-name="Group 2185" transform="translate(129.002 286.775)">
            <g id="Group_3431-11" data-name="Group 3431" transform="translate(-34.012 41.167)">
              <path id="Path_519-4" data-name="Path 519" d="M-3.6,0H14.8l4,10H-8Z" transform="translate(43.61 -39.167)" fill="#b0a16e"/>
              <g id="Group_3431-12" data-name="Group 3431" transform="translate(302.443 -324.938)">
                <path id="Subtraction_6-2" data-name="Subtraction 6" d="M6998.571,16281.295l-13.754,0a3.547,3.547,0,0,1-3.608-3.474v-11.028a5.374,5.374,0,0,1-1.786.307,2.777,2.777,0,0,1-2.4-1.042,3.081,3.081,0,0,1-.253-2.685.185.185,0,0,1,.021-.053l3.485-8.164a3.6,3.6,0,0,1,3.338-2.153h16.209a3.633,3.633,0,0,1,3.375,2.247l3.187,8.09a.314.314,0,0,1,.021.062,3.07,3.07,0,0,1-.347,2.66,2.844,2.844,0,0,1-2.431,1.038,4.7,4.7,0,0,1-1.447-.229v1.63h-2.476v-2.868a.252.252,0,0,1,0-.039.329.329,0,0,0,0-.039,1.49,1.49,0,0,0-.625-.232h-.023c-.213,0-.422.174-.839.52l0,0a4,4,0,0,1-2.644,1.161,5.314,5.314,0,0,1-2.828-1.006,3.039,3.039,0,0,0-1.193-.547,2.594,2.594,0,0,0-1.074.475l-.005,0a5.443,5.443,0,0,1-2.934.98,3.631,3.631,0,0,1-2.672-1.164c-.383-.355-.464-.4-.67-.4a1.273,1.273,0,0,0-.519.146v12.332a1.113,1.113,0,0,0,1.132,1.091h13.754a1.171,1.171,0,0,0,.8-.318c.026-.025.053-.056.085-.094h2.653a3.428,3.428,0,0,1-.99,1.781A3.673,3.673,0,0,1,6998.571,16281.295Zm.515-18.359h.029a4.757,4.757,0,0,1,2.53.971l.009.006a3.7,3.7,0,0,0,1.976.8.924.924,0,0,0,.445-.069,1.151,1.151,0,0,0-.017-.5l-3.171-8.05a1.142,1.142,0,0,0-1.062-.707l-16.206,0a1.135,1.135,0,0,0-1.054.679l-3.469,8.127a1.137,1.137,0,0,0-.049.478,1.082,1.082,0,0,0,.376.045,4,4,0,0,0,2.217-.818l.006,0,.015-.01a4.752,4.752,0,0,1,2.543-.926,3.3,3.3,0,0,1,2.386,1.075c.412.378.561.5.956.5a3.1,3.1,0,0,0,1.626-.621,4.452,4.452,0,0,1,2.386-.842,4.758,4.758,0,0,1,2.515.921l.006,0,.015.009a3.179,3.179,0,0,0,1.469.624c.317,0,.549-.172,1.042-.584A3.769,3.769,0,0,1,6999.086,16262.936Z" transform="translate(-7245 -15969)" stroke="rgba(0,0,0,0)" stroke-miterlimit="10" stroke-width="1"/>
              </g>
            </g>
          </g>
        </g>
        <path id="Path_2115" data-name="Path 2115" d="M-391.118,326.566a1.2,1.2,0,0,1,0,1.7,1.2,1.2,0,0,1-.848.352,1.2,1.2,0,0,1-.848-.352l-3.283-3.283a1.2,1.2,0,0,1-.352-.848,1.2,1.2,0,0,1,.352-.849l3.283-3.283a1.2,1.2,0,0,1,1.7,0,1.2,1.2,0,0,1,0,1.7l-1.234,1.234h10.895a1.2,1.2,0,0,1,1.2,1.2,1.2,1.2,0,0,1-1.2,1.2h-10.895Z" transform="translate(-14934.551 -21294.648)" stroke="rgba(0,0,0,0)" stroke-width="1"/>
        <path id="Path_2116" data-name="Path 2116" d="M-391.118,326.566a1.2,1.2,0,0,1,0,1.7,1.2,1.2,0,0,1-.848.352,1.2,1.2,0,0,1-.848-.352l-3.283-3.283a1.2,1.2,0,0,1-.352-.848,1.2,1.2,0,0,1,.352-.849l3.283-3.283a1.2,1.2,0,0,1,1.7,0,1.2,1.2,0,0,1,0,1.7l-1.234,1.234h10.895a1.2,1.2,0,0,1,1.2,1.2,1.2,1.2,0,0,1-1.2,1.2h-10.895Z" transform="translate(-15665.258 -20646.387) rotate(180)" fill="#b0a16e" stroke="rgba(0,0,0,0)" stroke-width="1"/>
      </g>
    </g>
    <g id="Group_6121" data-name="Group 6121" transform="translate(809 -207)">
      <rect id="Rectangle_596-2" data-name="Rectangle 596" width="32" height="32" transform="translate(0 207)" fill="#fff" opacity="0"/>
      <g id="noun_receipt_561599_1_" data-name="noun_receipt_561599 (1)" transform="translate(4 207)">
        <path id="Path_1" data-name="Path 1" d="M10.981,2.946V32.507H26.845V25.743h6.819V2.946Z" transform="translate(-10.105 -1.864)" fill="#b0a16e"/>
        <g id="Group_1" data-name="Group 1" transform="translate(0 0)">
          <path id="Path_2" data-name="Path 2" d="M24.493,18.875C24.582,18.875,24.449,18.831,24.493,18.875Z" transform="translate(-17.634 -10.736)"/>
          <path id="Path_3" data-name="Path 3" d="M24.061,22.8C23.972,22.8,24.105,22.844,24.061,22.8Z" transform="translate(-17.381 -12.936)"/>
          <path id="Path_4" data-name="Path 4" d="M32.444.5H9.885A.887.887,0,0,0,9,1.385V31.464a.887.887,0,0,0,.885.885H25.453a.873.873,0,0,0,.621-.266l6.989-6.989a.873.873,0,0,0,.265-.619V1.385A.887.887,0,0,0,32.444.5Zm-6.1,28.841V25.36h3.981Zm5.22-5.753H25.453a.887.887,0,0,0-.885.885v6.107H10.77V2.27H31.56Z" transform="translate(-9 -0.5)"/>
          <path id="Path_5" data-name="Path 5" d="M35.315,10.57h7.172a.888.888,0,0,0,0-1.77H35.315a.888.888,0,0,0,0,1.77Z" transform="translate(-22.468 -5.129)"/>
          <path id="Path_6" data-name="Path 6" d="M35.315,20.87h7.172a.888.888,0,0,0,0-1.77H35.315a.888.888,0,0,0,0,1.77Z" transform="translate(-22.468 -10.872)"/>
          <path id="Path_7" data-name="Path 7" d="M35.315,31.17h7.172a.888.888,0,0,0,0-1.77H35.315a.888.888,0,0,0,0,1.77Z" transform="translate(-22.468 -16.616)"/>
          <path id="Path_8" data-name="Path 8" d="M17.185,41.37H33.021a.885.885,0,0,0,0-1.77H17.185a.885.885,0,0,0,0,1.77Z" transform="translate(-13.071 -22.304)"/>
          <path id="Path_9" data-name="Path 9" d="M17.185,51.67H24.97a.885.885,0,1,0,0-1.77H17.185a.885.885,0,1,0,0,1.77Z" transform="translate(-13.071 -28.048)"/>
          <path id="Path_10" data-name="Path 10" d="M17.185,61.97H24.97a.885.885,0,1,0,0-1.77H17.185a.885.885,0,1,0,0,1.77Z" transform="translate(-13.071 -33.792)"/>
        </g>
        <path id="Path_2751" data-name="Path 2751" d="M82.93,145.2a7.289,7.289,0,0,0-.23-.912,6.933,6.933,0,0,0-1.416-2.555,4.1,4.1,0,0,0-.561-.508,3.41,3.41,0,0,0-.349-.225c-.026-.015-.037-.028-.018-.06.058-.1.111-.195.166-.293.214-.38.437-.755.648-1.136h0l-.072.145c.023-.042.118-.23.142-.273a.424.424,0,0,0,.074-.27c-.07-.035-.141-.066-.213-.1h0a5.961,5.961,0,0,0-3.7-.024.309.309,0,0,0-.018.368q.433.765.869,1.529c.051.089.052.09-.039.14a3.06,3.06,0,0,0-.618.455,5.136,5.136,0,0,0-.736.878,7.571,7.571,0,0,0-.955,2.016,7.463,7.463,0,0,0-.251,1.136,4.536,4.536,0,0,0-.034.658,3.269,3.269,0,0,0,.085.817,1.914,1.914,0,0,0,.942,1.257,4,4,0,0,0,1.554.418,4.922,4.922,0,0,0,.533.023c.066.012.134-.005.2.009h.755c.018-.01.037,0,.056-.005a1.632,1.632,0,0,0,.165,0,6.125,6.125,0,0,0,.781-.052,5.136,5.136,0,0,0,.735-.149A2.081,2.081,0,0,0,83,146.6a3.973,3.973,0,0,0,.012-.424A4.73,4.73,0,0,0,82.93,145.2Zm-4.852-5.543-.185-.351v-.029l.188-.03h0l.2-.027c.168-.022.336-.041.5-.073a5.225,5.225,0,0,1,1.97.2l-.091.157-.727,1.35a2.25,2.25,0,0,0-1.292,0Zm4.359,7.405a1.578,1.578,0,0,1-.938.921,3.553,3.553,0,0,1-.844.2,9.1,9.1,0,0,1-1.038.06c-.346,0-.692.005-1.037-.01A4.652,4.652,0,0,1,77.162,148a1.642,1.642,0,0,1-.874-.725,1.625,1.625,0,0,1-.191-.576,3.708,3.708,0,0,1-.03-.746,5.053,5.053,0,0,1,.115-.866,7.211,7.211,0,0,1,.751-1.99,5.816,5.816,0,0,1,.605-.893,3.349,3.349,0,0,1,.906-.78h0a1.649,1.649,0,0,1,1.6-.08c.019.009.037.019.055.029a3.233,3.233,0,0,1,.865.681,5.794,5.794,0,0,1,.846,1.255,7.167,7.167,0,0,1,.592,1.576q.078.32.124.646a4.55,4.55,0,0,1,.046.635A2.427,2.427,0,0,1,82.437,147.063Z" transform="translate(-72.543 -134.354)" fill="#040505" stroke="#000" stroke-width="0.7"/>
      </g>
    </g>
    <g id="Group_7713" data-name="Group 7713" transform="translate(841 -207)">
      <rect id="Rectangle_596-3" data-name="Rectangle 596" width="32" height="32" transform="translate(0 207)" fill="#fff" opacity="0"/>
      <g id="Group_7711" data-name="Group 7711" transform="translate(-187 143.595)">
        <g id="Group_6691" data-name="Group 6691" transform="translate(189 63.405)">
          <path id="Subtraction_7" data-name="Subtraction 7" d="M11.52,30.4H0V0H23.734V14.709a10.368,10.368,0,0,0-11.851,1.859A9.923,9.923,0,0,0,11.519,30.4Z" fill="#b0a16e"/>
          <g id="Group_4085" data-name="Group 4085" transform="translate(2.462 2.71)">
            <path id="Path_631" data-name="Path 631" d="M24.489,18.876c.093,0-.046-.046,0,0Z" transform="translate(-20.693 -14.201)"/>
            <path id="Path_632" data-name="Path 632" d="M24.062,22.8c-.093,0,.046.046,0,0Z" transform="translate(-20.452 -16.454)"/>
            <path id="Path_635" data-name="Path 635" d="M35.426,10.651H51.572a.926.926,0,1,0,0-1.851H35.426a.926.926,0,1,0,0,1.851Z" transform="translate(-34.296 -8.8)"/>
            <path id="Path_636" data-name="Path 636" d="M35.426,20.951H51.572a.926.926,0,1,0,0-1.851H35.426a.926.926,0,1,0,0,1.851Z" transform="translate(-34.296 -14.439)"/>
            <path id="Path_637" data-name="Path 637" d="M35.426,31.251h8.146a.926.926,0,0,0,0-1.851H35.426a.926.926,0,0,0,0,1.851Z" transform="translate(-34.296 -20.078)"/>
            <path id="Path_638" data-name="Path 638" d="M16.607,41.451H22.1c.169,0,.307-.417.307-.926s-.138-.926-.307-.926H16.607c-.169,0-.307.417-.307.926S16.438,41.451,16.607,41.451Z" transform="translate(-16.096 -25.662)"/>
            <path id="Path_639" data-name="Path 639" d="M16.654,51.751h3.119c.195,0,.354-.417.354-.926s-.159-.926-.354-.926H16.654c-.195,0-.354.417-.354.926S16.459,51.751,16.654,51.751Z" transform="translate(-16.3 -31.301)"/>
            <path id="Path_640" data-name="Path 640" d="M16.823,62.051h4.6c.288,0,.523-.417.523-.926s-.235-.926-.523-.926h-4.6c-.288,0-.523.417-.523.926S16.535,62.051,16.823,62.051Z" transform="translate(-16.3 -36.939)"/>
          </g>
        </g>
        <circle id="Ellipse_225" data-name="Ellipse 225" cx="8.5" cy="8.5" r="8.5" transform="translate(200 78.405)"/>
        <path id="Path_3159" data-name="Path 3159" d="M-2696.868,1637.111l2.7,2.145,5.05-6.734" transform="translate(2901.096 -1548.99)" fill="none" stroke="#fff" stroke-linecap="round" stroke-width="2"/>
      </g>
    </g>
  </g>
</svg>
