<svg xmlns="http://www.w3.org/2000/svg" xmlns:xlink="http://www.w3.org/1999/xlink" width="530" height="397" viewBox="0 0 530 397">
  <defs>
    <clipPath id="clip-path">
      <path id="Path_1617" data-name="Path 1617" d="M922.722,405.814l-56.346,5.613a10.481,10.481,0,0,0-7.621,4.5l-25.345-3.605a6.249,6.249,0,0,1,4.911-3.077l67.443-6.044Z" fill="none"/>
    </clipPath>
    <clipPath id="clip-path-2">
      <path id="Path_1619" data-name="Path 1619" d="M856.013,577.458a10.375,10.375,0,0,0,3.542,7.921l-21.267-2.656a5.64,5.64,0,0,1-4.306-5.526l-1.436-161.784a6.219,6.219,0,0,1,.38-2.073l25.226,3.575a10.544,10.544,0,0,0-1.248,4.914Z" fill="none"/>
    </clipPath>
    <clipPath id="clip-path-3">
      <path id="Path_1622" data-name="Path 1622" d="M913.168,449.742l3.947-8.138.1-.081L934.834,427.7l.109-11.517a9.406,9.406,0,0,0-5.813-8.79l-2.727-.671a9.085,9.085,0,0,0-1.806,0l-58.117,5.791a9.382,9.382,0,0,0-8.475,9.309l-.892,155.637a9.409,9.409,0,0,0,12.241,9.032l57.619-18.163a9.4,9.4,0,0,0,6.58-8.892l.812-83.657c-1.446,1.265-2.807,2.411-3.949,3.323a9.774,9.774,0,0,1-3.362,1.8l.005,23.1-24.041,4.494.157,23.2,7.075-1.36.794,15.139L882.8,552.147l-.975-16.1,7.982-1.627.49-.1-.463-23.049-27.044,5.4-.041-58.64Zm9.152-26.7.894-.061.06-1.743,2.145-.1-.069,1.712,1.393-.085-.069,1.7-1.392.108-.094,2.179c-.024.492.225.734.605.7a1.355,1.355,0,0,0,.661-.271l.451,1.537a3.1,3.1,0,0,1-1.489.538c-1.549.182-2.423-.549-2.355-2.269l.085-2.242-.886.068Zm-7.173.205,2.042-.126-.021.7a2.275,2.275,0,0,1,1.823-.931c1.654-.1,2.948,1.159,2.87,3.306a3.761,3.761,0,0,1-3.093,3.834,1.823,1.823,0,0,1-1.664-.537l-.087,3.122-2.11.293Zm-2.371-3.338a1.147,1.147,0,0,1,1.278,1.24,1.422,1.422,0,0,1-1.34,1.462,1.175,1.175,0,0,1-1.279-1.287A1.379,1.379,0,0,1,912.776,419.913Zm-1.15,3.574,2.136-.144-.167,7.186-2.11.255Zm-4.96.337,2.041-.142-.018.895a2.536,2.536,0,0,1,2.065-1.156l-.044,2.321a3.531,3.531,0,0,0-.483,0c-.862.068-1.463.656-1.49,1.963l-.051,3.414-2.119.255Zm-3.665.128a2.592,2.592,0,0,1,2.832,1.889l-1.661,1.2c-.279-.692-.7-.971-1.2-.932-.736.067-1.326.781-1.332,1.961-.013,1.212.566,1.805,1.3,1.73.489-.055.92-.418,1.217-1.167l1.63.887a3.387,3.387,0,0,1-2.854,2.435c-2.032.253-3.457-1.262-3.446-3.678C899.5,425.89,900.959,424.094,903,423.952Zm-10.7,1.739a3.466,3.466,0,0,1,3.484-3.681,4.658,4.658,0,0,1,2.863.741l-.7,2.212a3.645,3.645,0,0,0-2.18-.64c-.933.062-1.267.511-1.267,1.041,0,1.616,4.452.059,4.439,3.845a3.707,3.707,0,0,1-3.467,3.752,4.444,4.444,0,0,1-3.283-.758l.717-2.316a3.636,3.636,0,0,0,2.577.761c.918-.1,1.276-.487,1.277-.986C896.774,428.007,892.317,429.675,892.3,425.691Zm-4.145-.673c1.978-.149,3.12.974,3.129,3.619l.024,4.641-1.977.252v-1.085a2.069,2.069,0,0,1-1.776,1.461c-1.447.188-2.263-.877-2.278-2.381a2.6,2.6,0,0,1,2.673-2.853l1.2-.121c-.037-.855-.455-1.3-1.294-1.224a2.521,2.521,0,0,0-1.641.889l-.736-1.993A4.273,4.273,0,0,1,888.158,425.018Zm-7.963.755,1.538,5.291,1.46-5.527,2.033-.157-2.4,8.994-2.182.287L878,425.941Zm-5.993,2.8a2.431,2.431,0,0,0-1.624.967l-.77-2.166a4.124,4.124,0,0,1,2.657-1.3c1.977-.157,3.137,1.061,3.189,3.935l.092,5.036-1.967.267-.027-1.187A2.055,2.055,0,0,1,874,435.7c-1.447.2-2.281-.963-2.313-2.587a2.678,2.678,0,0,1,2.622-3.081l1.21-.129C875.468,428.982,875.049,428.5,874.2,428.574Zm-5.93-1.929-2.713.223-.074-2.739,4.921-.329.19,7.7c.08,3.166-.932,4.877-2.884,5.145a2.632,2.632,0,0,1-2.755-1.471l1.135-2.441c.44.809.89,1.2,1.388,1.135.632-.073.963-.736.937-1.915Z" fill="none"/>
    </clipPath>
    <clipPath id="clip-path-4">
      <path id="Path_1624" data-name="Path 1624" d="M919.639,479.257c-7.668,4.077-13.555,4.92-17.513,2.5a7.845,7.845,0,0,1-1.065-.775L863.865,487l.02,21.5,29.217-5.159.527,30.295,7.13-1.44.05-30.873,23.489-4.359.147-15.756A8.7,8.7,0,0,1,919.639,479.257Zm-37.984,18.71-1.47.237.173,3.537-2.386.409-.7-13.62,3.889-.543c2.323-.32,3.87,1.375,4.019,4.438C885.323,495.472,883.962,497.6,881.655,497.967Zm10.107,2.15c-2.5.411-4.064-1.577-4.251-5.558l-.343-7.4,2.411-.33.324,7.25c.106,2.279.745,3.093,1.748,2.935s1.559-1.156,1.469-3.412l-.316-7.21,2.379-.314.3,7.282C895.647,497.278,894.266,499.707,891.762,500.117Zm6.791-1.363-.525-13.06,2.419-.314.384,10.076,4.045-.616.1,2.881Zm8.572-1.366-.441-12.824,2.418-.307.326,9.9,4.046-.609.091,2.834Z" fill="none"/>
    </clipPath>
    <clipPath id="clip-javascript-error">
      <rect width="530" height="397"/>
    </clipPath>
  </defs>
  <g id="javascript-error" clip-path="url(#clip-javascript-error)">
    <g id="Group_4554" data-name="Group 4554" transform="translate(-695.331 -271.774)">
      <path id="Path_1578" data-name="Path 1578" d="M840.753,586.776l-14.528,5.616c-4.4,1.7-8.66-3.486-8.66-10.549,6.757-39.309,5.54-86.583,0-138.174,0-6.885-1.6-24.605,3.3-24.9l19.613-9.592c3.244,1.04,5.571,3.9,5.571,9.062V576.226C846.051,581.221,843.865,585.572,840.753,586.776Z" fill="#ccc" opacity="0.63"/>
      <line id="Line_95" data-name="Line 95" y2="34.759" transform="translate(859.555 343.288)" fill="none" stroke="#184c3d" stroke-linecap="round" stroke-linejoin="round" stroke-width="2"/>
      <line id="Line_96" data-name="Line 96" y2="6.737" transform="translate(859.555 320.776)" fill="none" stroke="#184c3d" stroke-linecap="round" stroke-linejoin="round" stroke-width="2"/>
      <line id="Line_97" data-name="Line 97" y2="4.675" transform="translate(859.555 332.639)" fill="none" stroke="#184c3d" stroke-linecap="round" stroke-linejoin="round" stroke-width="2"/>
      <line id="Line_98" data-name="Line 98" y2="73.298" transform="translate(971.641 371.922)" fill="none" stroke="#184c3d" stroke-linecap="round" stroke-linejoin="round" stroke-width="2"/>
      <line id="Line_99" data-name="Line 99" y2="69.703" transform="translate(699.33 550.786)" fill="none" stroke="#184c3d" stroke-linecap="round" stroke-linejoin="round" stroke-width="2"/>
      <line id="Line_100" data-name="Line 100" y2="69.703" transform="translate(790.446 446.4)" fill="none" stroke="#184c3d" stroke-linecap="round" stroke-linejoin="round" stroke-width="2"/>
      <path id="Path_1579" data-name="Path 1579" d="M1220.344,522.236l-37.224-4.626-1.141-74.591,24.582-2.752C1204.476,470.184,1210.077,497.116,1220.344,522.236Z" fill="#2c7f69"/>
      <path id="Path_1580" data-name="Path 1580" d="M988.972,539.864l-3.356-15.948a2.925,2.925,0,0,0-.589-1.234,10.5,10.5,0,0,0-11.164-3.362c-3.187.849-5.78,3.241-7.5,6.918a20.448,20.448,0,0,0-1.629,5.308l-.007.039c-.53,7.842,7.537,11.758,7.617,11.8l.072.031a23.593,23.593,0,0,0,7.208,1.077,16.938,16.938,0,0,0,8.212-2.121A2.329,2.329,0,0,0,988.972,539.864Zm-1.679,1.554c-2.285,1.31-7.2,3.159-14.511.958-.543-.268-7.409-3.862-6.959-10.7.064-.453,1.5-9.488,8.325-11.3a9.281,9.281,0,0,1,10.026,3,1.84,1.84,0,0,1,.368.771l3.356,15.947A1.233,1.233,0,0,1,987.293,541.418Z" fill="#184c3d"/>
      <path id="Path_1581" data-name="Path 1581" d="M1220.343,522.235l-36.124-4.488a1.274,1.274,0,0,1-1.116-1.243L1182,444.076v-.016a1.176,1.176,0,0,1,1.031-1.159h.008l23.529-2.631-.017-1.107-24.619,2.657a1.172,1.172,0,0,0-1.039,1.175l.034,2.571-45.193-2.017-67.71-10.875-45.7-7.937c-1.337-.417-37.887-11.922-46.616-15.175-1.448-.545-2.81-.971-4.062-1.312-6.54-1.771-10.347-1.107-10.543-1.073l-.136.026-25.02,19.637.1-10.644a10.5,10.5,0,0,0-9.453-10.552l-20.651-3.534-.085-.025-67.616,6.063a7.348,7.348,0,0,0-6.5,5.3,7.058,7.058,0,0,0-.289,1.95l1.439,161.784a6.722,6.722,0,0,0,5.135,6.6l5.527.784,18.948,2.665a10.529,10.529,0,0,0,4.155.8,10.749,10.749,0,0,0,3.032-.494l57.61-18.165a10.487,10.487,0,0,0,7.358-9.92l.817-84.639c5.22-4.616,11.088-10.194,11.829-10.892l14.528-5.255,5.526,1.218c-3.959,5.468-11.036,15.065-12.424,16.257-1.158.979-1.15,3.722.008,5.859a7.163,7.163,0,0,0,6.762,3.645,14.11,14.11,0,0,0,3.738-.622c4.335-1.277,9.717-5.135,15.985-11.454a118.334,118.334,0,0,0,7.9-8.822l3.849.852,32.531,14.17,16.538,23.776a61.262,61.262,0,0,1-16.9,4.454c-16.112,1.677-35.537,4.181-45.679,5.527a23.14,23.14,0,0,0-15.261,8.524c-4.1,5.2-4.76,10.756-1.9,16.053,3.091,5.714,10.627,9.069,22.387,9.963,2.691.2,5.306.247,7.631.213a88.911,88.911,0,0,0,9.009-.562l35.128-4.624,50.908-1.15c.315-.008,32.122-1.533,55.276-22.014l.1-.084.052-.128c.059-.153,5.961-15.005,38.815-16.5l.213,14.256a1.263,1.263,0,0,0,1.115,1.234l37.4,4.65.128-1.082Zm-382.021-113,67.446-6.038,16.955,2.615-56.35,5.612a10.5,10.5,0,0,0-7.621,4.5l-13.353-1.9-11.5-1.635-.494-.068A6.268,6.268,0,0,1,838.322,409.238Zm5.961,174.234-5.995-.749a5.642,5.642,0,0,1-4.309-5.527l-1.43-161.784a6.184,6.184,0,0,1,.374-2.069l12.8,1.805,12.434,1.763a10.544,10.544,0,0,0-1.252,4.913L856.01,577.46a10.394,10.394,0,0,0,3.542,7.92Zm89.272-24.031a9.4,9.4,0,0,1-6.583,8.89l-57.618,18.164a9.4,9.4,0,0,1-12.237-9.026L858,421.824a9.391,9.391,0,0,1,8.482-9.307l58.112-5.791a9.078,9.078,0,0,1,1.806,0l2.725.673a9.408,9.408,0,0,1,5.816,8.788l-.111,11.514-17.619,13.82-.1.086-3.943,8.133-50.422,8.294.042,58.64,27.047-5.407.46,23.052-.486.1-7.988,1.626.979,16.1,28.247-6.659-.8-15.142-7.077,1.363-.153-23.206,24.04-4.5v-23.1a9.616,9.616,0,0,0,3.356-1.8c1.149-.912,2.5-2.061,3.951-3.33Zm-35.843-84.214a11.81,11.81,0,0,0,2.393,4.8l-36.244,5.867-.025-26.927,48.753-8.013-4.343,8.924-11.079,11.012v.221A16.647,16.647,0,0,0,897.712,475.227Zm-5.927,68.119-.145.059-.034-1.081-8.184,2.069-.443-7.46,7.665-1.567A8.05,8.05,0,0,1,891.785,543.346Zm-27.9-28.009v-5.722l28.145-4.965.511,29.209-1.159.23-.485-24.151Zm26.663,28.392.034,1.2,1.763-.622,11.036-2.742.358-.3c.077-.162.153-.332.221-.5l5.68-1.056.264,4.922-26.092,6.157-.315-5.279Zm13.83-4.156a8.377,8.377,0,0,0-.8-6.821l5.638-1.09.366,6.94Zm-1.524,1-9.794,2.436a9.065,9.065,0,0,0-1.243-7.877l10.593-2.146A7.546,7.546,0,0,1,902.856,540.569Zm-.767-8.643-.239.051.052-29.737,23.478-4.361.153-16.682c.145-.009.29-.034.434-.051V503.1l-24.057,4.5ZM924.3,496.968l-23.487,4.361-.05,30.87-7.128,1.439-.528-30.291-29.218,5.16L863.861,487l37.2-6.012a7.646,7.646,0,0,0,1.065.775c3.96,2.419,9.844,1.575,17.517-2.5a8.673,8.673,0,0,0,4.8,1.959Zm5.442-18.717c-4.283,3.389-7.826,1.379-9.112.408L937.14,467.6l7.579-2.733C941.27,468.1,933.981,474.878,929.74,478.251Zm35.383,5.731c-5.893,1.737-8.311-.826-9.222-2.5-1.056-1.942-.852-3.994-.256-4.505,1.78-1.524,11.292-14.63,12.867-16.819l19.613,4.335C985.5,467.708,973.937,481.384,965.123,483.982ZM1149.3,511.156c-5.246,3.73-6.966,7.306-7.281,8.047-22.848,20.132-54.195,21.647-54.493,21.656L1036.6,542l-35.205,4.633c-.315.051-30.964,3.841-37.929-9.053-2.674-4.947-2.07-9.946,1.8-14.851a22.033,22.033,0,0,1,14.537-8.116c10.142-1.346,29.541-3.849,45.645-5.518,22.4-2.316,41.727-19.6,41.923-19.774l-.741-.809a95.141,95.141,0,0,1-23.359,14.605l-16.759-24.1-.085-.128-32.863-14.307-31.338-6.948-3.534-12.093-1.056.307,3.483,11.913-24.1,8.72c-2.172-2.094-7.128-7.221-7.553-9.29l-1.074.221c.528,2.547,5.859,7.9,7.63,9.623L919.436,478.14c-7.452,4.011-13.081,4.922-16.734,2.691-4.079-2.495-4.42-8.294-4.445-9.495l23.878-23.7,34.583-17.747,14.92.673,42.613,1.916c.068,0,6.975-.128,14.392.46,9.682.757,15.8,2.35,17.67,4.581l.835-.7c-2.095-2.5-8.295-4.173-18.42-4.982-7.46-.579-14.434-.46-14.46-.46l-42.63-1.916-15.014-.672-.144-.009L921.556,446.7l-.077.043L910.6,457.54l7.392-15.226,43.431-34.081c.715-.1,4.386-.468,10.219,1.141q1.723.473,3.687,1.2c8.873,3.321,46.327,15.1,46.692,15.226l.043.009,45.773,7.945,67.76,10.883.035.009,45.312,2.018.852,55.464C1172.033,502.563,1158.68,504.513,1149.3,511.156Z" fill="#184c3d"/>
      <path id="Path_1582" data-name="Path 1582" d="M909.906,544.631l-26.092,6.157-.315-5.279,7.051-1.78.034,1.2,1.763-.622,11.036-2.742.358-.3c.077-.162.153-.332.221-.5l5.68-1.056Z" fill="#b29267"/>
      <path id="Path_1583" data-name="Path 1583" d="M904.38,539.573a8.375,8.375,0,0,0-.8-6.823l5.638-1.084.368,6.94Z" fill="#ffa900"/>
      <path id="Path_1584" data-name="Path 1584" d="M902.851,540.57l-9.792,2.439a9.1,9.1,0,0,0-1.237-7.885l10.588-2.142A7.518,7.518,0,0,1,902.851,540.57Z" fill="#ffa900"/>
      <path id="Path_1585" data-name="Path 1585" d="M891.781,543.345l-.142.058-.031-1.077-8.182,2.066-.447-7.462,7.667-1.567A8.062,8.062,0,0,1,891.781,543.345Z" fill="#ffa900"/>
      <path id="Path_1586" data-name="Path 1586" d="M925.964,481.148l0,21.955L901.911,507.6l.174,24.329-.237.05.052-29.741,23.481-4.358.156-16.682C925.68,481.184,925.822,481.166,925.964,481.148Z" fill="#635039"/>
      <path id="Path_1587" data-name="Path 1587" d="M892.539,533.861l-1.153.231-.488-24.157-27.013,5.4v-5.726l28.144-4.961Z" fill="#635039"/>
      <path id="Path_1588" data-name="Path 1588" d="M919.639,479.257c-7.668,4.077-13.555,4.92-17.513,2.5a7.845,7.845,0,0,1-1.065-.775L863.865,487l.02,21.5,29.217-5.159.527,30.295,7.13-1.44.05-30.873,23.489-4.359.147-15.756A8.7,8.7,0,0,1,919.639,479.257Zm-37.984,18.71-1.47.237.173,3.537-2.386.409-.7-13.62,3.889-.543c2.323-.32,3.87,1.375,4.019,4.438C885.323,495.472,883.962,497.6,881.655,497.967Zm10.107,2.15c-2.5.411-4.064-1.577-4.251-5.558l-.343-7.4,2.411-.33.324,7.25c.106,2.279.745,3.093,1.748,2.935s1.559-1.156,1.469-3.412l-.316-7.21,2.379-.314.3,7.282C895.647,497.278,894.266,499.707,891.762,500.117Zm6.791-1.363-.525-13.06,2.419-.314.384,10.076,4.045-.616.1,2.881Zm8.572-1.366-.441-12.824,2.418-.307.326,9.9,4.046-.609.091,2.834Z" fill="#ffa900"/>
      <path id="Path_1589" data-name="Path 1589" d="M897.163,471.1a16.734,16.734,0,0,0,.547,4.127,11.837,11.837,0,0,0,2.394,4.794l-36.241,5.868-.023-26.928,48.745-8.016-4.339,8.929-11.078,11.005Z" fill="#635039"/>
      <path id="Path_1590" data-name="Path 1590" d="M944.716,464.863c-3.444,3.237-10.737,10.017-14.978,13.384-4.281,3.392-7.828,1.387-9.11.409l16.51-11.056Z" fill="#fff"/>
      <path id="Path_1591" data-name="Path 1591" d="M988.128,464.492c-2.627,3.216-14.188,16.889-23,19.487-5.9,1.738-8.313-.823-9.225-2.5-1.052-1.941-.854-3.995-.259-4.5,1.782-1.524,11.292-14.627,12.874-16.821Z" fill="#fff"/>
      <path id="Path_1592" data-name="Path 1592" d="M1135.624,444.646l-.032-.007-67.758-10.884-45.773-7.949-.04-.007c-.373-.121-37.826-11.9-46.7-15.222-7.95-2.967-13.051-2.461-13.9-2.345l-43.428,34.079-7.394,15.233,10.883-10.8.079-.04,34.923-17.919.143.006,57.643,2.6c.032,0,7-.123,14.461.461,10.127.8,16.322,2.475,18.42,4.977l-.837.7c-1.872-2.237-7.987-3.822-17.669-4.585-7.414-.584-14.319-.463-14.39-.462l-57.532-2.589-34.586,17.747L898.26,471.339c.026,1.2.361,7,4.446,9.492,3.653,2.233,9.279,1.323,16.734-2.7l16.581-11.1c-1.768-1.715-7.1-7.075-7.624-9.617l1.066-.222c.428,2.069,5.385,7.2,7.555,9.286l24.1-8.717-3.485-11.914,1.057-.309,3.535,12.1,31.335,6.95,32.866,14.309.089.125,16.755,24.1a95.1,95.1,0,0,0,23.363-14.6l.734.812c-.2.17-19.526,17.454-41.921,19.776-16.1,1.664-35.506,4.171-45.647,5.514a22.05,22.05,0,0,0-14.536,8.118c-3.877,4.907-4.482,9.906-1.8,14.855,6.961,12.89,37.609,9.095,37.925,9.051L1036.6,542l50.933-1.143c.3-.013,31.642-1.522,54.492-21.656.314-.741,2.033-4.316,7.283-8.047,9.371-6.646,22.726-8.592,32.485-9.027l-.848-55.467ZM987.838,542.368a16.938,16.938,0,0,1-8.212,2.121,23.593,23.593,0,0,1-7.208-1.077l-.072-.031c-.08-.038-8.147-3.954-7.617-11.8l.007-.039a20.448,20.448,0,0,1,1.629-5.308c1.718-3.677,4.311-6.069,7.5-6.918a10.5,10.5,0,0,1,11.164,3.362,2.925,2.925,0,0,1,.589,1.234l3.356,15.948A2.329,2.329,0,0,1,987.838,542.368Z" fill="#fff"/>
      <path id="Path_1593" data-name="Path 1593" d="M987.293,541.418c-2.285,1.31-7.2,3.159-14.511.958-.543-.268-7.409-3.862-6.959-10.7.064-.453,1.5-9.488,8.325-11.3a9.281,9.281,0,0,1,10.026,3,1.84,1.84,0,0,1,.368.771l3.356,15.947A1.233,1.233,0,0,1,987.293,541.418Z" fill="#e6e6e6"/>
      <path id="Path_1594" data-name="Path 1594" d="M922.722,405.814l-56.346,5.613a10.481,10.481,0,0,0-7.621,4.5l-25.345-3.605a6.249,6.249,0,0,1,4.911-3.077l67.443-6.044Z" fill="#b29267"/>
      <path id="Path_1595" data-name="Path 1595" d="M856.013,577.458a10.375,10.375,0,0,0,3.542,7.921l-21.267-2.656a5.64,5.64,0,0,1-4.306-5.526l-1.436-161.784a6.219,6.219,0,0,1,.38-2.073l25.226,3.575a10.544,10.544,0,0,0-1.248,4.914Z" fill="#dab67f"/>
      <path id="Path_1596" data-name="Path 1596" d="M913.168,449.742l3.947-8.138.1-.081L934.834,427.7l.109-11.517a9.406,9.406,0,0,0-5.813-8.79l-2.727-.671a9.085,9.085,0,0,0-1.806,0l-58.117,5.791a9.382,9.382,0,0,0-8.475,9.309l-.892,155.637a9.409,9.409,0,0,0,12.241,9.032l57.619-18.163a9.4,9.4,0,0,0,6.58-8.892l.812-83.657c-1.446,1.265-2.807,2.411-3.949,3.323a9.774,9.774,0,0,1-3.362,1.8l.005,23.1-24.041,4.494.157,23.2,7.075-1.36.794,15.139L882.8,552.147l-.975-16.1,7.982-1.627.49-.1-.463-23.049-27.044,5.4-.041-58.64Zm9.152-26.7.894-.061.06-1.743,2.145-.1-.069,1.712,1.393-.085-.069,1.7-1.392.108-.094,2.179c-.024.492.225.734.605.7a1.355,1.355,0,0,0,.661-.271l.451,1.537a3.1,3.1,0,0,1-1.489.538c-1.549.182-2.423-.549-2.355-2.269l.085-2.242-.886.068Zm-7.173.205,2.042-.126-.021.7a2.275,2.275,0,0,1,1.823-.931c1.654-.1,2.948,1.159,2.87,3.306a3.761,3.761,0,0,1-3.093,3.834,1.823,1.823,0,0,1-1.664-.537l-.087,3.122-2.11.293Zm-2.371-3.338a1.147,1.147,0,0,1,1.278,1.24,1.422,1.422,0,0,1-1.34,1.462,1.175,1.175,0,0,1-1.279-1.287A1.379,1.379,0,0,1,912.776,419.913Zm-1.15,3.574,2.136-.144-.167,7.186-2.11.255Zm-4.96.337,2.041-.142-.018.895a2.536,2.536,0,0,1,2.065-1.156l-.044,2.321a3.531,3.531,0,0,0-.483,0c-.862.068-1.463.656-1.49,1.963l-.051,3.414-2.119.255Zm-3.665.128a2.592,2.592,0,0,1,2.832,1.889l-1.661,1.2c-.279-.692-.7-.971-1.2-.932-.736.067-1.326.781-1.332,1.961-.013,1.212.566,1.805,1.3,1.73.489-.055.92-.418,1.217-1.167l1.63.887a3.387,3.387,0,0,1-2.854,2.435c-2.032.253-3.457-1.262-3.446-3.678C899.5,425.89,900.959,424.094,903,423.952Zm-10.7,1.739a3.466,3.466,0,0,1,3.484-3.681,4.658,4.658,0,0,1,2.863.741l-.7,2.212a3.645,3.645,0,0,0-2.18-.64c-.933.062-1.267.511-1.267,1.041,0,1.616,4.452.059,4.439,3.845a3.707,3.707,0,0,1-3.467,3.752,4.444,4.444,0,0,1-3.283-.758l.717-2.316a3.636,3.636,0,0,0,2.577.761c.918-.1,1.276-.487,1.277-.986C896.774,428.007,892.317,429.675,892.3,425.691Zm-4.145-.673c1.978-.149,3.12.974,3.129,3.619l.024,4.641-1.977.252v-1.085a2.069,2.069,0,0,1-1.776,1.461c-1.447.188-2.263-.877-2.278-2.381a2.6,2.6,0,0,1,2.673-2.853l1.2-.121c-.037-.855-.455-1.3-1.294-1.224a2.521,2.521,0,0,0-1.641.889l-.736-1.993A4.273,4.273,0,0,1,888.158,425.018Zm-7.963.755,1.538,5.291,1.46-5.527,2.033-.157-2.4,8.994-2.182.287L878,425.941Zm-5.993,2.8a2.431,2.431,0,0,0-1.624.967l-.77-2.166a4.124,4.124,0,0,1,2.657-1.3c1.977-.157,3.137,1.061,3.189,3.935l.092,5.036-1.967.267-.027-1.187A2.055,2.055,0,0,1,874,435.7c-1.447.2-2.281-.963-2.313-2.587a2.678,2.678,0,0,1,2.622-3.081l1.21-.129C875.468,428.982,875.049,428.5,874.2,428.574Zm-5.93-1.929-2.713.223-.074-2.739,4.921-.329.19,7.7c.08,3.166-.932,4.877-2.884,5.145a2.632,2.632,0,0,1-2.755-1.471l1.135-2.441c.44.809.89,1.2,1.388,1.135.632-.073.963-.736.937-1.915Z" fill="#dab67f"/>
      <path id="Path_1597" data-name="Path 1597" d="M875.575,432.386c-.155.747-.561,1.133-1.027,1.2-.506.063-.8-.3-.813-.843a.919.919,0,0,1,.9-1.052l.917-.1Z" fill="#dab67f"/>
      <path id="Path_1598" data-name="Path 1598" d="M889.171,430.1l0,.729a1.277,1.277,0,0,1-1.044,1.109c-.5.062-.788-.266-.8-.772a.888.888,0,0,1,.92-.973Z" fill="#dab67f"/>
      <path id="Path_1599" data-name="Path 1599" d="M919.71,426.389a1.65,1.65,0,0,1-1.328,1.771c-.719.066-1.258-.48-1.227-1.542s.608-1.712,1.327-1.763S919.741,425.351,919.71,426.389Z" fill="#dab67f"/>
      <g id="Group_4108" data-name="Group 4108">
        <path id="Path_1600" data-name="Path 1600" d="M870.6,431.5c.08,3.166-.932,4.877-2.884,5.145a2.632,2.632,0,0,1-2.755-1.471l1.135-2.441c.44.809.89,1.2,1.388,1.135.632-.073.963-.736.937-1.915l-.145-5.312-2.713.223-.074-2.739,4.921-.329Z" fill="#fff"/>
        <path id="Path_1601" data-name="Path 1601" d="M877.654,430.01c-.052-2.874-1.212-4.092-3.189-3.935a4.124,4.124,0,0,0-2.657,1.3l.77,2.166a2.431,2.431,0,0,1,1.624-.967c.847-.077,1.266.408,1.32,1.334l-1.21.129a2.678,2.678,0,0,0-2.622,3.081c.032,1.624.866,2.783,2.313,2.587a2.055,2.055,0,0,0,1.749-1.579l.027,1.187,1.967-.267Zm-3.106,3.572c-.506.063-.8-.3-.813-.843a.919.919,0,0,1,.9-1.052l.917-.1.02.8C875.42,433.133,875.014,433.519,874.548,433.582Z" fill="#fff"/>
        <path id="Path_1602" data-name="Path 1602" d="M885.226,425.38l-2.4,8.994-2.182.287L878,425.941l2.191-.168,1.538,5.291,1.46-5.527Z" fill="#fff"/>
        <path id="Path_1603" data-name="Path 1603" d="M888.158,425.018a4.273,4.273,0,0,0-2.674,1.2l.736,1.993a2.521,2.521,0,0,1,1.641-.889c.839-.076,1.257.369,1.294,1.224l-1.2.121a2.6,2.6,0,0,0-2.673,2.853c.015,1.5.831,2.569,2.278,2.381a2.069,2.069,0,0,0,1.776-1.461v1.085l1.977-.252-.024-4.641C891.278,425.992,890.136,424.869,888.158,425.018Zm1.016,5.814a1.277,1.277,0,0,1-1.044,1.109c-.5.062-.788-.266-.8-.772a.888.888,0,0,1,.92-.973l.917-.093Z" fill="#fff"/>
        <path id="Path_1604" data-name="Path 1604" d="M898.947,429.209a3.707,3.707,0,0,1-3.467,3.752,4.444,4.444,0,0,1-3.283-.758l.717-2.316a3.636,3.636,0,0,0,2.577.761c.918-.1,1.276-.487,1.277-.986.006-1.655-4.451.013-4.465-3.971a3.466,3.466,0,0,1,3.484-3.681,4.658,4.658,0,0,1,2.863.741l-.7,2.212a3.645,3.645,0,0,0-2.18-.64c-.933.062-1.267.511-1.267,1.041C894.509,426.98,898.96,425.423,898.947,429.209Z" fill="#fff"/>
        <path id="Path_1605" data-name="Path 1605" d="M904.157,428.63l1.63.887a3.387,3.387,0,0,1-2.854,2.435c-2.032.253-3.457-1.262-3.446-3.678.011-2.384,1.472-4.18,3.514-4.322a2.592,2.592,0,0,1,2.832,1.889l-1.661,1.2c-.279-.692-.7-.971-1.2-.932-.736.067-1.326.781-1.332,1.961-.013,1.212.566,1.805,1.3,1.73C903.429,429.742,903.86,429.379,904.157,428.63Z" fill="#fff"/>
        <path id="Path_1606" data-name="Path 1606" d="M910.754,423.421l-.044,2.321a3.531,3.531,0,0,0-.483,0c-.862.068-1.463.656-1.49,1.963l-.051,3.414-2.119.255.1-7.55,2.041-.142-.018.895A2.536,2.536,0,0,1,910.754,423.421Z" fill="#fff"/>
        <path id="Path_1607" data-name="Path 1607" d="M913.762,423.343l-.167,7.186-2.111.254.142-7.3Z" fill="#fff"/>
        <path id="Path_1608" data-name="Path 1608" d="M914.054,421.153a1.422,1.422,0,0,1-1.34,1.462,1.175,1.175,0,0,1-1.279-1.287,1.379,1.379,0,0,1,1.341-1.415A1.147,1.147,0,0,1,914.054,421.153Z" fill="#fff"/>
        <path id="Path_1609" data-name="Path 1609" d="M918.991,422.891a2.275,2.275,0,0,0-1.823.931l.021-.7-2.042.126-.24,9.658,2.11-.293.087-3.122a1.823,1.823,0,0,0,1.664.537,3.761,3.761,0,0,0,3.093-3.834C921.939,424.05,920.645,422.787,918.991,422.891Zm-.609,5.269c-.719.066-1.258-.48-1.227-1.542s.608-1.712,1.327-1.763,1.259.5,1.228,1.534A1.65,1.65,0,0,1,918.382,428.16Z" fill="#fff"/>
        <path id="Path_1610" data-name="Path 1610" d="M926.905,428.718a3.1,3.1,0,0,1-1.489.538c-1.549.182-2.423-.549-2.355-2.269l.085-2.242-.886.068.06-1.767.894-.061.06-1.743,2.145-.1-.069,1.712,1.393-.085-.069,1.7-1.392.108-.094,2.179c-.024.492.225.734.605.7a1.355,1.355,0,0,0,.661-.271Z" fill="#fff"/>
      </g>
      <path id="Path_1611" data-name="Path 1611" d="M881.162,487.987l-3.889.543.7,13.62,2.386-.409-.173-3.537,1.47-.237c2.307-.368,3.668-2.5,3.526-5.542C885.032,489.362,883.485,487.667,881.162,487.987Zm.2,6.991-1.336.21-.2-3.973,1.335-.194c1-.142,1.529.515,1.588,1.765C882.814,494.021,882.351,494.828,881.364,494.978Z" fill="#fff"/>
      <path id="Path_1612" data-name="Path 1612" d="M882.756,492.786c.058,1.235-.4,2.042-1.392,2.192l-1.336.21-.2-3.973,1.335-.194C882.164,490.879,882.7,491.536,882.756,492.786Z" fill="#ffa900"/>
      <path id="Path_1613" data-name="Path 1613" d="M891.762,500.117c-2.5.411-4.064-1.577-4.251-5.558l-.343-7.4,2.411-.33.324,7.25c.106,2.279.745,3.093,1.748,2.935s1.559-1.156,1.469-3.412l-.316-7.21,2.379-.314.3,7.282C895.647,497.278,894.266,499.707,891.762,500.117Z" fill="#fff"/>
      <path id="Path_1614" data-name="Path 1614" d="M904.976,497.721l-6.423,1.033-.525-13.06,2.419-.314.384,10.077,4.046-.616Z" fill="#fff"/>
      <path id="Path_1615" data-name="Path 1615" d="M913.565,496.378l-6.439,1.009-.442-12.824,2.419-.307.325,9.9,4.046-.608Z" fill="#fff"/>
      <line id="Line_101" data-name="Line 101" x1="0.191" y1="1.122" transform="translate(1220.344 522.236)" fill="none"/>
      <g id="Group_4110" data-name="Group 4110">
        <g id="Group_4109" data-name="Group 4109" clip-path="url(#clip-path)">
          <path id="Path_1616" data-name="Path 1616" d="M841.2,408.984l25.173,2.444-4.814,8.484-36.4-2.4,6.445-13.315Z" opacity="0.12"/>
        </g>
      </g>
      <g id="Group_4112" data-name="Group 4112">
        <g id="Group_4111" data-name="Group 4111" clip-path="url(#clip-path-2)">
          <path id="Path_1618" data-name="Path 1618" d="M841.942,414.961l.646,170.8-20.071-2.422L823.6,402.088Z" opacity="0.12"/>
        </g>
      </g>
      <g id="Group_4114" data-name="Group 4114">
        <g id="Group_4113" data-name="Group 4113" clip-path="url(#clip-path-3)">
          <path id="Path_1620" data-name="Path 1620" d="M866.376,411.427l.276,176.608-14.442,1.617V411.427Z" opacity="0.12"/>
          <path id="Path_1621" data-name="Path 1621" d="M900.1,480.023,893.35,580.082l45.666-12.327,1.138-95.4Z" opacity="0.12"/>
        </g>
      </g>
      <g id="Group_4116" data-name="Group 4116" opacity="0.15">
        <g id="Group_4115" data-name="Group 4115" clip-path="url(#clip-path-4)">
          <path id="Path_1623" data-name="Path 1623" d="M900.1,480.023,893.35,580.082l45.666-12.327,1.138-95.4Z"/>
        </g>
      </g>
      <line id="Line_102" data-name="Line 102" y2="216.114" transform="translate(744.888 371.922)" fill="none" stroke="#184c3d" stroke-linecap="round" stroke-linejoin="round" stroke-width="2"/>
      <line id="Line_103" data-name="Line 103" y2="6.737" transform="translate(744.888 592.371)" fill="none" stroke="#184c3d" stroke-linecap="round" stroke-linejoin="round" stroke-width="2"/>
      <line id="Line_104" data-name="Line 104" y2="4.675" transform="translate(744.888 604.234)" fill="none" stroke="#184c3d" stroke-linecap="round" stroke-linejoin="round" stroke-width="2"/>
      <line id="Line_105" data-name="Line 105" y2="6.737" transform="translate(744.888 349.411)" fill="none" stroke="#184c3d" stroke-linecap="round" stroke-linejoin="round" stroke-width="2"/>
      <line id="Line_106" data-name="Line 106" y2="4.675" transform="translate(744.888 361.274)" fill="none" stroke="#184c3d" stroke-linecap="round" stroke-linejoin="round" stroke-width="2"/>
      <g id="Group_4117" data-name="Group 4117">
        <circle id="Ellipse_103" data-name="Ellipse 103" cx="9.667" cy="9.667" r="9.667" transform="translate(1018.228 556.201)" fill="none" stroke="#dab67f" stroke-miterlimit="10" stroke-width="2"/>
        <circle id="Ellipse_104" data-name="Ellipse 104" cx="4.424" cy="4.424" r="4.424" transform="translate(1055.321 397.663)" fill="none" stroke="#1a1a1a" stroke-miterlimit="10" stroke-width="2"/>
        <circle id="Ellipse_105" data-name="Ellipse 105" cx="4.833" cy="4.833" r="4.833" transform="translate(1143.527 525.813)" fill="none" stroke="#dab67f" stroke-miterlimit="10" stroke-width="2"/>
        <circle id="Ellipse_106" data-name="Ellipse 106" cx="4.993" cy="4.993" r="4.993" transform="translate(1106.461 344.418)" fill="none" stroke="#dab67f" stroke-miterlimit="10" stroke-width="2"/>
        <rect id="Rectangle_665" data-name="Rectangle 665" width="12.563" height="12.563" transform="translate(896.168 589.367) rotate(45)" fill="none" stroke="#1a1a1a" stroke-miterlimit="10" stroke-width="2"/>
        <rect id="Rectangle_666" data-name="Rectangle 666" width="12.563" height="12.563" transform="translate(934.943 347.49) rotate(45)" fill="none" stroke="#dab67f" stroke-miterlimit="10" stroke-width="2"/>
        <path id="Path_1625" data-name="Path 1625" d="M1116.447,594.266l6.451-4.774,4.774,6.451Z" fill="none" stroke="#dab67f" stroke-linecap="round" stroke-linejoin="round" stroke-width="2"/>
        <path id="Path_1626" data-name="Path 1626" d="M1181.979,404.152l8.6-6.366,6.366,8.6Z" fill="none" stroke="#dab67f" stroke-linecap="round" stroke-linejoin="round" stroke-width="2"/>
      </g>
    </g>
  </g>
</svg>
