<svg xmlns="http://www.w3.org/2000/svg" width="64" height="64" viewBox="0 0 64 64"><g transform="translate(-928 -508)"><g transform="translate(905 488)"><g transform="translate(23 20)" fill="#fff" stroke="#d7d7d7" stroke-width="1"><rect width="64" height="64" rx="5" stroke="none"/><rect x="0.5" y="0.5" width="63" height="63" rx="4.5" fill="none"/></g></g><g transform="translate(5341.001 2081)"><path d="M307.219,248.6c.534.213.907.053.249-.479-4.02-2.628-6.4-9-6.617-14.42V222.891a6.471,6.471,0,0,0,2.472.621h6.031a2.906,2.906,0,0,1,3.1,2.06c.533-2.593-1.068-4.973-3.575-4.973h-6.9c-1.726.125-4.162-1.4-4.162-1.4v11.827c0,12,6.439,17.1,9.41,17.581" transform="translate(-4678.451 -1775.197)" fill="#b0a16e"/><path d="M282.3,219.2s-2.312,1.529-4.162,1.405h-6.867a3.937,3.937,0,0,0-3.629,4.982,3.074,3.074,0,0,1,3.184-2.064h6.048a6.455,6.455,0,0,0,2.455-.623v10.834c-.231,5.425-2.633,11.812-6.706,14.444-.694.533-.285.694.213.48,3.042-.48,9.463-5.585,9.463-17.611Z" transform="translate(-4664.54 -1775.197)" fill="#b0a16e"/></g></g></svg>