<svg xmlns="http://www.w3.org/2000/svg" width="255" height="205.375" viewBox="0 0 255 205.375"><defs><style>.a{fill:#040505;}</style></defs><g transform="translate(-206.059 -219.197)"><path class="a" d="M251.713,371.444V358.988h-4.945v-5.325H263.5v5.42h-4.565v12.361Z" transform="translate(15.968 52.742)"/><path class="a" d="M276.341,371.444V359.083h-4.849v-5.42h16.831v5.515h-4.66v12.266Z" transform="translate(25.665 52.742)"/><path class="a" d="M257.559,371.444l6.655-17.781h7.8l6.562,17.781h-7.035l-3.424-10.269-3.422,10.269Z" transform="translate(20.2 52.742)"/><path class="a" d="M282.214,371.444l6.657-17.781h7.7l6.56,17.781H296.19l-3.422-10.269-3.613,10.269Z" transform="translate(29.871 52.742)"/><path class="a" d="M236,353.63h4.256l6.917,17.9h-3.8l-1.485-4.234h-7.8l-1.552,4.234h-3.5Zm2.067,2.982-3,8.048h5.886Z" transform="translate(9.014 52.729)"/><path class="a" d="M403.01,353.756h12.971v2.75h-4.754v15.078H407.7V356.506H403.01Zm-1.16.567-.227,2.821c-.07-.026-.156-.06-.267-.1a11.939,11.939,0,0,0-3.875-.929,6.234,6.234,0,0,0-4.693,1.818,6.686,6.686,0,0,0-1.756,4.841,6.216,6.216,0,0,0,1.811,4.64,6.55,6.55,0,0,0,4.788,1.782,10.3,10.3,0,0,0,2.989-.691c.468-.157.817-.27,1.054-.337l.3,2.821-.966.266a14.844,14.844,0,0,1-3.674.691,10.26,10.26,0,0,1-7.269-2.471,8.708,8.708,0,0,1-2.658-6.7,9.072,9.072,0,0,1,2.668-6.818,9.714,9.714,0,0,1,7.071-2.591,14.216,14.216,0,0,1,3.7.677C401.305,354.171,401.64,354.26,401.85,354.322Zm-31.881-.567h3.513V364.2a6.577,6.577,0,0,0,.872,3.808,3.126,3.126,0,0,0,2.727,1.211,3.276,3.276,0,0,0,2.822-1.3,6.444,6.444,0,0,0,.956-3.845V353.756h3.311V364.1q0,3.914-1.788,5.877a6.882,6.882,0,0,1-5.352,1.966A6.8,6.8,0,0,1,371.75,370a8.245,8.245,0,0,1-1.781-5.746Zm-18.4,0h5.105a20.711,20.711,0,0,1,3.884.312,7.65,7.65,0,0,1,2.641.968,7.864,7.864,0,0,1,2.879,3.123,9.9,9.9,0,0,1,.957,4.479,9.726,9.726,0,0,1-.97,4.475,7.958,7.958,0,0,1-5.658,4.136,20.523,20.523,0,0,1-4.007.336h-4.831Zm3.538,2.647v12.431h2.029a5.714,5.714,0,0,0,6.25-6.248,6.1,6.1,0,0,0-1.636-4.6,6.518,6.518,0,0,0-4.713-1.587Zm-15.181-3.036a7.951,7.951,0,0,1,6.189,2.484,11.4,11.4,0,0,1,.013,13.626,9,9,0,0,1-12.387,0,11.462,11.462,0,0,1,.007-13.638A7.927,7.927,0,0,1,339.925,353.366Zm0,2.645a4.175,4.175,0,0,0-3.518,1.8,7.872,7.872,0,0,0-1.338,4.8,7.99,7.99,0,0,0,1.328,4.827,4.343,4.343,0,0,0,7.064-.01,9.271,9.271,0,0,0,0-9.609A4.2,4.2,0,0,0,339.925,356.011Zm-23.32-2.255h5.836a8.511,8.511,0,0,1,4.891,1.147,3.938,3.938,0,0,1,1.632,3.443,4.189,4.189,0,0,1-.969,2.843,4.807,4.807,0,0,1-2.758,1.5,2.9,2.9,0,0,1,1.238.753,6.692,6.692,0,0,1,1.046,1.945l2.47,6.2h-3.7l-2.009-5.4a3.229,3.229,0,0,0-1.1-1.625,3.62,3.62,0,0,0-2.008-.458h-1.105v7.479H316.6Zm3.464,2.482v5.37h1.807a4.294,4.294,0,0,0,2.633-.7,2.351,2.351,0,0,0,.93-2,2.3,2.3,0,0,0-.92-2.024,5.129,5.129,0,0,0-2.908-.647Zm-18.13-2.482h5.292a8.018,8.018,0,0,1,5.13,1.362,5.078,5.078,0,0,1,1.669,4.185,4.966,4.966,0,0,1-1.742,4.05,7.535,7.535,0,0,1-4.933,1.442H305.45v6.789h-3.511Zm3.511,2.509v6.021h1.444a3.983,3.983,0,0,0,2.633-.771,2.73,2.73,0,0,0,.916-2.212,2.871,2.871,0,0,0-.873-2.246,3.558,3.558,0,0,0-2.474-.792Z" transform="translate(37.607 52.625)"/><path class="a" d="M240.762,324.654a12.384,12.384,0,0,0-.643,10.174h-7.24a19.465,19.465,0,0,1-.64-3.162v-2.247c.458-5.911,4.489-11.455,9.349-16.406,3.3-3.437,6.14-5.957,8.889-8.523a64.344,64.344,0,0,0,10.4-12.924,2.788,2.788,0,0,1,2.427-1.466v44.728h-4.536V324.654Zm18.01-3.07v-19.2c-1.924,3.715-5.225,6.692-8.295,9.442-3.575,3.07-6.965,6.049-8.341,9.761Z" transform="translate(10.269 27.809)"/><path class="a" d="M232.654,329.9l3.71-31.3c1.055-4.216,1.605-6.461,6.922-11-3.713-.319-5.409,1.878-8.479,1.559H211.482c-4.767-.322-5.957,3.941-5.224,5.637.732-1.513,1.511-1.513,2.886-1.7h22.043a16.253,16.253,0,0,0-3.3,7.607s-2.429,27.176-2.019,35.655c.415,17.047,12.834,26.21,18.563,25.525-9.212-8.8-12.834-19.2-11.778-31.989" transform="translate(0 26.82)"/><path class="a" d="M322.051,294.955c1.376.55,2.336.138.64-1.235-10.357-6.77-16.5-23.193-17.046-37.148v-27.86c2.154,1.371,6.369,1.6,6.369,1.6H327.55c4.17,0,6.369,1.463,7.975,5.307,1.374-6.68-2.751-12.811-9.211-12.811H308.532c-4.447.322-10.723-3.613-10.723-3.613v30.468c0,30.927,16.588,44.056,24.242,45.291" transform="translate(35.987 0)"/><path class="a" d="M288.433,321.531c-2.154-5.821-10.634-12.739-10.634-12.739-6.552-5.821-11-13.886-11.869-17.69l-2.52-.872v44.544h3.8v-30.2c2.016,5.82,11.778,13.565,11.778,13.565s7.425,6.461,11,15.49l2.339,1.146V290.782h-3.9Z" transform="translate(22.495 27.862)"/><path class="a" d="M298.02,277.3a5.549,5.549,0,0,0-5.544,5.729,5.674,5.674,0,0,0,5.544,5.636c2.613,0,5.271-2.659,5.271-5.636a5.625,5.625,0,0,0-5.271-5.729" transform="translate(33.896 22.788)"/><path class="a" d="M381.122,342.1l-.092-.135c-5.317-5.409-9.946-9.945-13.888-18.1a25.011,25.011,0,0,1-2.382-10.449h0v-1.008a26.622,26.622,0,0,1,2.381-10.815c2.659-6.14,7.425-10.173,13.016-14.848a5.847,5.847,0,0,0,.963,1.6c2.887,3.162,11.685,9.441,15.168,15.993a20.782,20.782,0,0,1,2.52,9.579v.642a20.955,20.955,0,0,1-3.8,11.641,58.3,58.3,0,0,1-9.211,10.357c2.109,2.659,5.176,5.086,6.461,7.745,2.109,3.943,2.75,6.461,1.694,11.778-.32,1.6-2.656,6.141-4.444,6.141,2.338-7.425-4.675-15.81-8.385-20.121m0-9.9c.549.458.961.87,1.512,1.284,3.9-2.979,5.911-5.409,7.607-9.945,2.978-7.655,2.978-13.381-1.6-21.219a35.206,35.206,0,0,0-7.515-8.569c-.826-.642-1.7-1.376-2.431-1.926a22.5,22.5,0,0,0-7.926,11.366,25.5,25.5,0,0,0,1.786,16.956A32.5,32.5,0,0,0,381.122,332.2Z" transform="translate(62.248 26.493)"/><path class="a" d="M359.144,317.985H343.564V290.626h-5.729v42.848h5.729v-12.1h15.581v12.6H365.1V290.626h-5.958Z" transform="translate(51.687 28.017)"/><path class="a" d="M305.555,219.2s-5.957,3.94-10.723,3.62h-17.69c-6.369,0-10.724,6.141-9.349,12.834,1.834-3.852,4.033-5.318,8.2-5.318h15.582s4.124-.228,6.323-1.6v27.91c-.6,13.977-6.783,30.43-17.275,37.212-1.789,1.374-.735,1.788.549,1.236,7.835-1.236,24.379-14.389,24.379-45.369Z" transform="translate(24.115 0)"/><path class="a" d="M331.311,310.429c-5.82-2.84-10.677-4.994-15.259-8.571-2.2-2.152-2.2-5.728-.184-7.33,2.29-1.789,6.324-1.6,9.118-.23,2.521,1.6,3.255,3.391,5.271,5.316,1.513,1.146,2.75,1.786,4.263,1.376a15.068,15.068,0,0,0-4.766-7.609c-5.639-4.9-14.987-3.712-18.563.092-4.078,4.675-2.612,9.121,1.146,13.152,4.583,4.766,12.648,6.463,19.111,12.832,3.162,3.07,3.8,7.607-.551,10.495-3.068,1.786-8.065,2.336-12.739.64-3.07-1.511-4.308-2.656-6.552-5.729-1.331-2.244-2.474-3.848-6.1-3.848.643,5.407,4.766,9.991,10.037,12.1,6.873,2.658,14.618,2.246,20.668-2.016,7.287-5.086,5.591-14.94-4.9-20.669" transform="translate(39.008 27.828)"/><rect class="a" width="5.5" height="43.994" transform="translate(328.938 318.644)"/></g></svg>